  0
SECTION
  2
HEADER
  9
$ACADVER
  1
AC1012
  9
$DWGCODEPAGE
  3
undefined
  9
$INSBASE
 10
0.0
 20
0.0
 30
0.0
  9
$EXTMIN
 10
1.000000000000000E+20
 20
1.000000000000000E+20
 30
1.000000000000000E+20
  9
$EXTMAX
 10
-1.000000000000000E+20
 20
-1.000000000000000E+20
 30
-1.000000000000000E+20
  9
$LIMMIN
 10
0.0
 20
0.0
  9
$LIMMAX
 10
12.0
 20
9.0
  9
$ORTHOMODE
 70
     0
  9
$REGENMODE
 70
     1
  9
$FILLMODE
 70
     1
  9
$QTEXTMODE
 70
     0
  9
$MIRRTEXT
 70
     1
  9
$DRAGMODE
 70
     2
  9
$LTSCALE
 40
1.0
  9
$OSMODE
 70
    37
  9
$ATTMODE
 70
     1
  9
$TEXTSIZE
 40
0.2
  9
$TRACEWID
 40
0.05
  9
$TEXTSTYLE
  7
STANDARD
  9
$CLAYER
  8
0
  9
$CELTYPE
  6
BYLAYER
  9
$CECOLOR
 62
   256
  9
$CELTSCALE
 40
1.0
  9
$DELOBJ
 70
     1
  9
$DISPSILH
 70
     0
  9
$DIMSCALE
 40
1.0
  9
$DIMASZ
 40
0.18
  9
$DIMEXO
 40
0.0625
  9
$DIMDLI
 40
0.38
  9
$DIMRND
 40
0.0
  9
$DIMDLE
 40
0.0
  9
$DIMEXE
 40
0.18
  9
$DIMTP
 40
0.0
  9
$DIMTM
 40
0.0
  9
$DIMTXT
 40
0.18
  9
$DIMCEN
 40
0.09
  9
$DIMTSZ
 40
0.0
  9
$DIMTOL
 70
     0
  9
$DIMLIM
 70
     0
  9
$DIMTIH
 70
     1
  9
$DIMTOH
 70
     1
  9
$DIMSE1
 70
     0
  9
$DIMSE2
 70
     0
  9
$DIMTAD
 70
     0
  9
$DIMZIN
 70
     0
  9
$DIMBLK
  1

  9
$DIMASO
 70
     1
  9
$DIMSHO
 70
     1
  9
$DIMPOST
  1

  9
$DIMAPOST
  1

  9
$DIMALT
 70
     0
  9
$DIMALTD
 70
     2
  9
$DIMALTF
 40
25.4
  9
$DIMLFAC
 40
1.0
  9
$DIMTOFL
 70
     0
  9
$DIMTVP
 40
0.0
  9
$DIMTIX
 70
     0
  9
$DIMSOXD
 70
     0
  9
$DIMSAH
 70
     0
  9
$DIMBLK1
  1

  9
$DIMBLK2
  1

  9
$DIMSTYLE
  2
STANDARD
  9
$DIMCLRD
 70
     0
  9
$DIMCLRE
 70
     0
  9
$DIMCLRT
 70
     0
  9
$DIMTFAC
 40
1.0
  9
$DIMGAP
 40
0.09
  9
$DIMJUST
 70
     0
  9
$DIMSD1
 70
     0
  9
$DIMSD2
 70
     0
  9
$DIMTOLJ
 70
     1
  9
$DIMTZIN
 70
     0
  9
$DIMALTZ
 70
     0
  9
$DIMALTTZ
 70
     0
  9
$DIMFIT
 70
     3
  9
$DIMUPT
 70
     0
  9
$DIMUNIT
 70
     2
  9
$DIMDEC
 70
     4
  9
$DIMTDEC
 70
     4
  9
$DIMALTU
 70
     2
  9
$DIMALTTD
 70
     2
  9
$DIMTXSTY
  7
STANDARD
  9
$DIMAUNIT
 70
     0
  9
$LUNITS
 70
     2
  9
$LUPREC
 70
     4
  9
$SKETCHINC
 40
0.1
  9
$FILLETRAD
 40
0.5
  9
$AUNITS
 70
     0
  9
$AUPREC
 70
     0
  9
$MENU
  1
.
  9
$ELEVATION
 40
0.0
  9
$PELEVATION
 40
0.0
  9
$THICKNESS
 40
0.0
  9
$LIMCHECK
 70
     0
  9
$CHAMFERA
 40
0.5
  9
$CHAMFERB
 40
0.5
  9
$CHAMFERC
 40
1.0
  9
$CHAMFERD
 40
0.0
  9
$SKPOLY
 70
     0
  9
$TDCREATE
 40
2457439.525833333
  9
$TDUPDATE
 40
2457439.525833333
  9
$TDINDWG
 40
0.0000000116
  9
$TDUSRTIMER
 40
0.0000000116
  9
$USRTIMER
 70
     1
  9
$ANGBASE
 50
0.0
  9
$ANGDIR
 70
     0
  9
$PDMODE
 70
     0
  9
$PDSIZE
 40
0.0
  9
$PLINEWID
 40
0.0
  9
$COORDS
 70
     1
  9
$SPLFRAME
 70
     0
  9
$SPLINETYPE
 70
     6
  9
$SPLINESEGS
 70
     8
  9
$ATTDIA
 70
     0
  9
$ATTREQ
 70
     1
  9
$HANDLING
 70
     1
  9
$HANDSEED
  5
22C
  9
$SURFTAB1
 70
     6
  9
$SURFTAB2
 70
     6
  9
$SURFTYPE
 70
     6
  9
$SURFU
 70
     6
  9
$SURFV
 70
     6
  9
$UCSNAME
  2

  9
$UCSORG
 10
0.0
 20
0.0
 30
0.0
  9
$UCSXDIR
 10
1.0
 20
0.0
 30
0.0
  9
$UCSYDIR
 10
0.0
 20
1.0
 30
0.0
  9
$PUCSNAME
  2

  9
$PUCSORG
 10
0.0
 20
0.0
 30
0.0
  9
$PUCSXDIR
 10
1.0
 20
0.0
 30
0.0
  9
$PUCSYDIR
 10
0.0
 20
1.0
 30
0.0
  9
$USERI1
 70
     0
  9
$USERI2
 70
     0
  9
$USERI3
 70
     0
  9
$USERI4
 70
     0
  9
$USERI5
 70
     0
  9
$USERR1
 40
0.0
  9
$USERR2
 40
0.0
  9
$USERR3
 40
0.0
  9
$USERR4
 40
0.0
  9
$USERR5
 40
0.0
  9
$WORLDVIEW
 70
     1
  9
$SHADEDGE
 70
     3
  9
$SHADEDIF
 70
    70
  9
$TILEMODE
 70
     1
  9
$MAXACTVP
 70
    64
  9
$PINSBASE
 10
0.0
 20
0.0
 30
0.0
  9
$PLIMCHECK
 70
     0
  9
$PEXTMIN
 10
1.000000000000000E+20
 20
1.000000000000000E+20
 30
1.000000000000000E+20
  9
$PEXTMAX
 10
-1.000000000000000E+20
 20
-1.000000000000000E+20
 30
-1.000000000000000E+20
  9
$PLIMMIN
 10
0.0
 20
0.0
  9
$PLIMMAX
 10
12.0
 20
9.0
  9
$UNITMODE
 70
     0
  9
$VISRETAIN
 70
     1
  9
$PLINEGEN
 70
     0
  9
$PSLTSCALE
 70
     1
  9
$TREEDEPTH
 70
  3020
  9
$PICKSTYLE
 70
     1
  9
$CMLSTYLE
  2
STANDARD
  9
$CMLJUST
 70
     0
  9
$CMLSCALE
 40
1.0
  9
$SAVEIMAGES
 70
     1
  0
ENDSEC
  0
SECTION
  2
CLASSES
  0
CLASS
  1
ACDBDICTIONARYWDFLT
  2
AcDbDictionaryWithDefault
  3
ObjectDBX Classes
 90
    32768
280
     0
281
     0
  0
CLASS
  1
VISUALSTYLE
  2
AcDbVisualStyle
  3
ObjectDBX Classes
 90
     4095
280
     0
281
     0
  0
CLASS
  1
MATERIAL
  2
AcDbMaterial
  3
ObjectDBX Classes
 90
     1153
280
     0
281
     0
  0
CLASS
  1
SUN
  2
AcDbSun
  3
SCENEOE
 90
     1024
280
     0
281
     0
  0
CLASS
  1
DICTIONARYVAR
  2
AcDbDictionaryVar
  3
ObjectDBX Classes
 90
        0
280
     0
281
     0
  0
CLASS
  1
XRECORD
  2
AcDbXrecord
  3
AutoCAD 2000
 90
    32768
280
     0
281
     0
  0
CLASS
  1
LWPOLYLINE
  2
AcDbPolyline
  3
AutoCAD 2000
 90
    32768
280
     0
281
     1
  0
CLASS
  1
HATCH
  2
AcDbHatch
  3
AutoCAD 2000
 90
    32768
280
     0
281
     1
  0
CLASS
  1
ACDBPLACEHOLDER
  2
AcDbPlaceHolder
  3
ObjectDBX Classes
 90
        0
280
     0
281
     0
  0
CLASS
  1
LAYOUT
  2
AcDbLayout
  3
ObjectDBX Classes
 90
        0
280
     0
281
     0
  0
ENDSEC
  0
SECTION
  2
TABLES
  0
TABLE
  2
VPORT
  5
8
330
0
100
AcDbSymbolTable
 70
     1
  0
VPORT
  5
29
330
8
100
AcDbSymbolTableRecord
100
AcDbViewportTableRecord
  2
*ACTIVE
 70
     0
 10
0.0
 20
0.0
 11
1.0
 21
1.0
 12
0.0
 22
0.0
 13
0.0
 23
0.0
 14
0.5
 24
0.5
 15
0.5
 25
0.5
 16
0.0
 26
0.0
 36
1.0
 17
11.99973610811129
 27
-10.99961110836131
 37
0.0
 40
21.99922221672262
 41
1.090923669018602
 42
50.0
 43
0.0
 44
0.0
 50
0.0
 51
0.0
 71
     0
 72
   100
 73
     1
 74
     3
 75
     0
 76
     0
 77
     0
 78
     0
  0
ENDTAB
  0
TABLE
  2
LTYPE
  5
5
330
0
100
AcDbSymbolTable
 70
    37
  0
LTYPE
  5
14
330
5
100
AcDbSymbolTableRecord
100
AcDbLinetypeTableRecord
  2
BYBLOCK
 70
     0
  3

 72
    65
 73
     0
 40
0.0
  0
LTYPE
  5
15
330
5
100
AcDbSymbolTableRecord
100
AcDbLinetypeTableRecord
  2
BYLAYER
 70
     0
  3

 72
    65
 73
     0
 40
0.0
  0
LTYPE
  5
16
330
5
100
AcDbSymbolTableRecord
100
AcDbLinetypeTableRecord
  2
CONTINUOUS
 70
     0
  3
Solid line
 72
    65
 73
     0
 40
0.0
  0
LTYPE
  5
51
330
5
100
AcDbSymbolTableRecord
100
AcDbLinetypeTableRecord
  2
AI-LINETYPE-1
 70
     0
  3
Adobe Illustrator Linetype No. 1
 72
    65
 73
     2
 40
0.33932748064194
 49
0.16966374032097
 74
     0
 49
-0.16966374032097
 74
     0
  0
LTYPE
  5
5B
330
5
100
AcDbSymbolTableRecord
100
AcDbLinetypeTableRecord
  2
AI-LINETYPE-2
 70
     0
  3
Adobe Illustrator Linetype No. 2
 72
    65
 73
     2
 40
0.3315656493934249
 49
0.1657828246967124
 74
     0
 49
-0.1657828246967124
 74
     0
  0
LTYPE
  5
65
330
5
100
AcDbSymbolTableRecord
100
AcDbLinetypeTableRecord
  2
AI-LINETYPE-3
 70
     0
  3
Adobe Illustrator Linetype No. 3
 72
    65
 73
     2
 40
0.33932748064194
 49
0.16966374032097
 74
     0
 49
-0.16966374032097
 74
     0
  0
LTYPE
  5
6F
330
5
100
AcDbSymbolTableRecord
100
AcDbLinetypeTableRecord
  2
AI-LINETYPE-4
 70
     0
  3
Adobe Illustrator Linetype No. 4
 72
    65
 73
     2
 40
0.3315656493934249
 49
0.1657828246967124
 74
     0
 49
-0.1657828246967124
 74
     0
  0
LTYPE
  5
81
330
5
100
AcDbSymbolTableRecord
100
AcDbLinetypeTableRecord
  2
AI-LINETYPE-5
 70
     0
  3
Adobe Illustrator Linetype No. 5
 72
    65
 73
     2
 40
0.33932748064194
 49
0.16966374032097
 74
     0
 49
-0.16966374032097
 74
     0
  0
LTYPE
  5
8B
330
5
100
AcDbSymbolTableRecord
100
AcDbLinetypeTableRecord
  2
AI-LINETYPE-6
 70
     0
  3
Adobe Illustrator Linetype No. 6
 72
    65
 73
     2
 40
0.3315656493934249
 49
0.1657828246967124
 74
     0
 49
-0.1657828246967124
 74
     0
  0
LTYPE
  5
95
330
5
100
AcDbSymbolTableRecord
100
AcDbLinetypeTableRecord
  2
AI-LINETYPE-7
 70
     0
  3
Adobe Illustrator Linetype No. 7
 72
    65
 73
     2
 40
0.33932748064194
 49
0.16966374032097
 74
     0
 49
-0.16966374032097
 74
     0
  0
LTYPE
  5
9F
330
5
100
AcDbSymbolTableRecord
100
AcDbLinetypeTableRecord
  2
AI-LINETYPE-8
 70
     0
  3
Adobe Illustrator Linetype No. 8
 72
    65
 73
     2
 40
0.3315656493934249
 49
0.1657828246967124
 74
     0
 49
-0.1657828246967124
 74
     0
  0
LTYPE
  5
B1
330
5
100
AcDbSymbolTableRecord
100
AcDbLinetypeTableRecord
  2
AI-LINETYPE-9
 70
     0
  3
Adobe Illustrator Linetype No. 9
 72
    65
 73
     2
 40
0.33932748064194
 49
0.16966374032097
 74
     0
 49
-0.16966374032097
 74
     0
  0
LTYPE
  5
BB
330
5
100
AcDbSymbolTableRecord
100
AcDbLinetypeTableRecord
  2
AI-LINETYPE-10
 70
     0
  3
Adobe Illustrator Linetype No. 10
 72
    65
 73
     2
 40
0.3315656493934249
 49
0.1657828246967124
 74
     0
 49
-0.1657828246967124
 74
     0
  0
LTYPE
  5
C5
330
5
100
AcDbSymbolTableRecord
100
AcDbLinetypeTableRecord
  2
AI-LINETYPE-11
 70
     0
  3
Adobe Illustrator Linetype No. 11
 72
    65
 73
     2
 40
0.33932748064194
 49
0.16966374032097
 74
     0
 49
-0.16966374032097
 74
     0
  0
LTYPE
  5
CF
330
5
100
AcDbSymbolTableRecord
100
AcDbLinetypeTableRecord
  2
AI-LINETYPE-12
 70
     0
  3
Adobe Illustrator Linetype No. 12
 72
    65
 73
     2
 40
0.3315656493934249
 49
0.1657828246967124
 74
     0
 49
-0.1657828246967124
 74
     0
  0
LTYPE
  5
E1
330
5
100
AcDbSymbolTableRecord
100
AcDbLinetypeTableRecord
  2
AI-LINETYPE-13
 70
     0
  3
Adobe Illustrator Linetype No. 13
 72
    65
 73
     2
 40
0.33932748064194
 49
0.16966374032097
 74
     0
 49
-0.16966374032097
 74
     0
  0
LTYPE
  5
EB
330
5
100
AcDbSymbolTableRecord
100
AcDbLinetypeTableRecord
  2
AI-LINETYPE-14
 70
     0
  3
Adobe Illustrator Linetype No. 14
 72
    65
 73
     2
 40
0.3315656493934249
 49
0.1657828246967124
 74
     0
 49
-0.1657828246967124
 74
     0
  0
LTYPE
  5
F5
330
5
100
AcDbSymbolTableRecord
100
AcDbLinetypeTableRecord
  2
AI-LINETYPE-15
 70
     0
  3
Adobe Illustrator Linetype No. 15
 72
    65
 73
     2
 40
0.33932748064194
 49
0.16966374032097
 74
     0
 49
-0.16966374032097
 74
     0
  0
LTYPE
  5
FF
330
5
100
AcDbSymbolTableRecord
100
AcDbLinetypeTableRecord
  2
AI-LINETYPE-16
 70
     0
  3
Adobe Illustrator Linetype No. 16
 72
    65
 73
     2
 40
0.3315656493934249
 49
0.1657828246967124
 74
     0
 49
-0.1657828246967124
 74
     0
  0
LTYPE
  5
111
330
5
100
AcDbSymbolTableRecord
100
AcDbLinetypeTableRecord
  2
AI-LINETYPE-17
 70
     0
  3
Adobe Illustrator Linetype No. 17
 72
    65
 73
     2
 40
0.33932748064194
 49
0.16966374032097
 74
     0
 49
-0.16966374032097
 74
     0
  0
LTYPE
  5
11B
330
5
100
AcDbSymbolTableRecord
100
AcDbLinetypeTableRecord
  2
AI-LINETYPE-18
 70
     0
  3
Adobe Illustrator Linetype No. 18
 72
    65
 73
     2
 40
0.3315656493934249
 49
0.1657828246967124
 74
     0
 49
-0.1657828246967124
 74
     0
  0
LTYPE
  5
125
330
5
100
AcDbSymbolTableRecord
100
AcDbLinetypeTableRecord
  2
AI-LINETYPE-19
 70
     0
  3
Adobe Illustrator Linetype No. 19
 72
    65
 73
     2
 40
0.33932748064194
 49
0.16966374032097
 74
     0
 49
-0.16966374032097
 74
     0
  0
LTYPE
  5
12F
330
5
100
AcDbSymbolTableRecord
100
AcDbLinetypeTableRecord
  2
AI-LINETYPE-20
 70
     0
  3
Adobe Illustrator Linetype No. 20
 72
    65
 73
     2
 40
0.3315656493934249
 49
0.1657828246967124
 74
     0
 49
-0.1657828246967124
 74
     0
  0
LTYPE
  5
141
330
5
100
AcDbSymbolTableRecord
100
AcDbLinetypeTableRecord
  2
AI-LINETYPE-21
 70
     0
  3
Adobe Illustrator Linetype No. 21
 72
    65
 73
     2
 40
0.33932748064194
 49
0.16966374032097
 74
     0
 49
-0.16966374032097
 74
     0
  0
LTYPE
  5
14B
330
5
100
AcDbSymbolTableRecord
100
AcDbLinetypeTableRecord
  2
AI-LINETYPE-22
 70
     0
  3
Adobe Illustrator Linetype No. 22
 72
    65
 73
     2
 40
0.3315656493934249
 49
0.1657828246967124
 74
     0
 49
-0.1657828246967124
 74
     0
  0
LTYPE
  5
155
330
5
100
AcDbSymbolTableRecord
100
AcDbLinetypeTableRecord
  2
AI-LINETYPE-23
 70
     0
  3
Adobe Illustrator Linetype No. 23
 72
    65
 73
     2
 40
0.33932748064194
 49
0.16966374032097
 74
     0
 49
-0.16966374032097
 74
     0
  0
LTYPE
  5
15F
330
5
100
AcDbSymbolTableRecord
100
AcDbLinetypeTableRecord
  2
AI-LINETYPE-24
 70
     0
  3
Adobe Illustrator Linetype No. 24
 72
    65
 73
     2
 40
0.3315656493934249
 49
0.1657828246967124
 74
     0
 49
-0.1657828246967124
 74
     0
  0
LTYPE
  5
171
330
5
100
AcDbSymbolTableRecord
100
AcDbLinetypeTableRecord
  2
AI-LINETYPE-25
 70
     0
  3
Adobe Illustrator Linetype No. 25
 72
    65
 73
     2
 40
0.33932748064194
 49
0.16966374032097
 74
     0
 49
-0.16966374032097
 74
     0
  0
LTYPE
  5
17B
330
5
100
AcDbSymbolTableRecord
100
AcDbLinetypeTableRecord
  2
AI-LINETYPE-26
 70
     0
  3
Adobe Illustrator Linetype No. 26
 72
    65
 73
     2
 40
0.3315656493934249
 49
0.1657828246967124
 74
     0
 49
-0.1657828246967124
 74
     0
  0
LTYPE
  5
185
330
5
100
AcDbSymbolTableRecord
100
AcDbLinetypeTableRecord
  2
AI-LINETYPE-27
 70
     0
  3
Adobe Illustrator Linetype No. 27
 72
    65
 73
     2
 40
0.33932748064194
 49
0.16966374032097
 74
     0
 49
-0.16966374032097
 74
     0
  0
LTYPE
  5
18F
330
5
100
AcDbSymbolTableRecord
100
AcDbLinetypeTableRecord
  2
AI-LINETYPE-28
 70
     0
  3
Adobe Illustrator Linetype No. 28
 72
    65
 73
     2
 40
0.3315656493934249
 49
0.1657828246967124
 74
     0
 49
-0.1657828246967124
 74
     0
  0
LTYPE
  5
1A1
330
5
100
AcDbSymbolTableRecord
100
AcDbLinetypeTableRecord
  2
AI-LINETYPE-29
 70
     0
  3
Adobe Illustrator Linetype No. 29
 72
    65
 73
     2
 40
0.33932748064194
 49
0.16966374032097
 74
     0
 49
-0.16966374032097
 74
     0
  0
LTYPE
  5
1AB
330
5
100
AcDbSymbolTableRecord
100
AcDbLinetypeTableRecord
  2
AI-LINETYPE-30
 70
     0
  3
Adobe Illustrator Linetype No. 30
 72
    65
 73
     2
 40
0.3315656493934249
 49
0.1657828246967124
 74
     0
 49
-0.1657828246967124
 74
     0
  0
LTYPE
  5
1B5
330
5
100
AcDbSymbolTableRecord
100
AcDbLinetypeTableRecord
  2
AI-LINETYPE-31
 70
     0
  3
Adobe Illustrator Linetype No. 31
 72
    65
 73
     2
 40
0.33932748064194
 49
0.16966374032097
 74
     0
 49
-0.16966374032097
 74
     0
  0
LTYPE
  5
1BF
330
5
100
AcDbSymbolTableRecord
100
AcDbLinetypeTableRecord
  2
AI-LINETYPE-32
 70
     0
  3
Adobe Illustrator Linetype No. 32
 72
    65
 73
     2
 40
0.3315656493934249
 49
0.1657828246967124
 74
     0
 49
-0.1657828246967124
 74
     0
  0
LTYPE
  5
1D1
330
5
100
AcDbSymbolTableRecord
100
AcDbLinetypeTableRecord
  2
AI-LINETYPE-33
 70
     0
  3
Adobe Illustrator Linetype No. 33
 72
    65
 73
     2
 40
0.33932748064194
 49
0.16966374032097
 74
     0
 49
-0.16966374032097
 74
     0
  0
LTYPE
  5
1DB
330
5
100
AcDbSymbolTableRecord
100
AcDbLinetypeTableRecord
  2
AI-LINETYPE-34
 70
     0
  3
Adobe Illustrator Linetype No. 34
 72
    65
 73
     2
 40
0.3315656493934249
 49
0.1657828246967124
 74
     0
 49
-0.1657828246967124
 74
     0
  0
LTYPE
  5
1E5
330
5
100
AcDbSymbolTableRecord
100
AcDbLinetypeTableRecord
  2
AI-LINETYPE-35
 70
     0
  3
Adobe Illustrator Linetype No. 35
 72
    65
 73
     2
 40
0.33932748064194
 49
0.16966374032097
 74
     0
 49
-0.16966374032097
 74
     0
  0
LTYPE
  5
1EF
330
5
100
AcDbSymbolTableRecord
100
AcDbLinetypeTableRecord
  2
AI-LINETYPE-36
 70
     0
  3
Adobe Illustrator Linetype No. 36
 72
    65
 73
     2
 40
0.3315656493934249
 49
0.1657828246967124
 74
     0
 49
-0.1657828246967124
 74
     0
  0
ENDTAB
  0
TABLE
  2
LAYER
  5
2
330
0
100
AcDbSymbolTable
 70
     2
  0
LAYER
  5
10
330
2
100
AcDbSymbolTableRecord
100
AcDbLayerTableRecord
  2
0
 70
     0
 62
     7
  6
CONTINUOUS
  0
LAYER
  5
40
330
2
100
AcDbSymbolTableRecord
100
AcDbLayerTableRecord
  2
LAYER_1
 70
     0
 62
     7
  6
CONTINUOUS
  0
ENDTAB
  0
TABLE
  2
STYLE
  5
3
330
0
100
AcDbSymbolTable
 70
     1
  0
STYLE
  5
11
330
3
100
AcDbSymbolTableRecord
100
AcDbTextStyleTableRecord
  2
STANDARD
 70
     0
 40
0.0
 41
1.0
 50
0.0
 71
     0
 42
0.2
  3
txt
  4

  0
ENDTAB
  0
TABLE
  2
VIEW
  5
6
330
0
100
AcDbSymbolTable
 70
     0
  0
ENDTAB
  0
TABLE
  2
UCS
  5
7
330
0
100
AcDbSymbolTable
 70
     0
  0
ENDTAB
  0
TABLE
  2
APPID
  5
9
330
0
100
AcDbSymbolTable
 70
     1
  0
APPID
  5
12
330
9
100
AcDbSymbolTableRecord
100
AcDbRegAppTableRecord
  2
ACAD
 70
     0
  0
ENDTAB
  0
TABLE
  2
DIMSTYLE
  5
A
330
0
100
AcDbSymbolTable
 70
     1
  0
DIMSTYLE
105
27
330
A
100
AcDbSymbolTableRecord
100
AcDbDimStyleTableRecord
  2
STANDARD
 70
     0
  3

  4

  5

  6

  7

 40
1.0
 41
0.18
 42
0.0625
 43
0.38
 44
0.18
 45
0.0
 46
0.0
 47
0.0
 48
0.0
140
0.18
141
0.09
142
0.0
143
25.4
144
1.0
145
0.0
146
1.0
147
0.09
 71
     0
 72
     0
 73
     1
 74
     1
 75
     0
 76
     0
 77
     0
 78
     0
170
     0
171
     2
172
     0
173
     0
174
     0
175
     0
176
     0
177
     0
178
     0
270
     2
271
     4
272
     4
273
     2
274
     2
340
11
275
     0
280
     0
281
     0
282
     0
283
     1
284
     0
285
     0
286
     0
287
     3
288
     0
  0
ENDTAB
  0
TABLE
  2
BLOCK_RECORD
  5
1
330
0
100
AcDbSymbolTable
 70
    22
  0
BLOCK_RECORD
  5
1F
330
1
100
AcDbSymbolTableRecord
100
AcDbBlockTableRecord
  2
*MODEL_SPACE
  0
BLOCK_RECORD
  5
1B
330
1
100
AcDbSymbolTableRecord
100
AcDbBlockTableRecord
  2
*PAPER_SPACE
  0
BLOCK_RECORD
  5
41
330
1
100
AcDbSymbolTableRecord
100
AcDbBlockTableRecord
  2
BLOCK_2
  0
BLOCK_RECORD
  5
45
330
1
100
AcDbSymbolTableRecord
100
AcDbBlockTableRecord
  2
BLOCK_3
  0
BLOCK_RECORD
  5
71
330
1
100
AcDbSymbolTableRecord
100
AcDbBlockTableRecord
  2
BLOCK_4
  0
BLOCK_RECORD
  5
75
330
1
100
AcDbSymbolTableRecord
100
AcDbBlockTableRecord
  2
BLOCK_5
  0
BLOCK_RECORD
  5
A1
330
1
100
AcDbSymbolTableRecord
100
AcDbBlockTableRecord
  2
BLOCK_6
  0
BLOCK_RECORD
  5
A5
330
1
100
AcDbSymbolTableRecord
100
AcDbBlockTableRecord
  2
BLOCK_7
  0
BLOCK_RECORD
  5
D1
330
1
100
AcDbSymbolTableRecord
100
AcDbBlockTableRecord
  2
BLOCK_8
  0
BLOCK_RECORD
  5
D5
330
1
100
AcDbSymbolTableRecord
100
AcDbBlockTableRecord
  2
BLOCK_9
  0
BLOCK_RECORD
  5
101
330
1
100
AcDbSymbolTableRecord
100
AcDbBlockTableRecord
  2
BLOCK_10
  0
BLOCK_RECORD
  5
105
330
1
100
AcDbSymbolTableRecord
100
AcDbBlockTableRecord
  2
BLOCK_11
  0
BLOCK_RECORD
  5
131
330
1
100
AcDbSymbolTableRecord
100
AcDbBlockTableRecord
  2
BLOCK_12
  0
BLOCK_RECORD
  5
135
330
1
100
AcDbSymbolTableRecord
100
AcDbBlockTableRecord
  2
BLOCK_13
  0
BLOCK_RECORD
  5
161
330
1
100
AcDbSymbolTableRecord
100
AcDbBlockTableRecord
  2
BLOCK_14
  0
BLOCK_RECORD
  5
165
330
1
100
AcDbSymbolTableRecord
100
AcDbBlockTableRecord
  2
BLOCK_15
  0
BLOCK_RECORD
  5
191
330
1
100
AcDbSymbolTableRecord
100
AcDbBlockTableRecord
  2
BLOCK_16
  0
BLOCK_RECORD
  5
195
330
1
100
AcDbSymbolTableRecord
100
AcDbBlockTableRecord
  2
BLOCK_17
  0
BLOCK_RECORD
  5
1C1
330
1
100
AcDbSymbolTableRecord
100
AcDbBlockTableRecord
  2
BLOCK_18
  0
BLOCK_RECORD
  5
1C5
330
1
100
AcDbSymbolTableRecord
100
AcDbBlockTableRecord
  2
BLOCK_19
  0
BLOCK_RECORD
  5
1F1
330
1
100
AcDbSymbolTableRecord
100
AcDbBlockTableRecord
  2
BLOCK_20
  0
BLOCK_RECORD
  5
1FD
330
1
100
AcDbSymbolTableRecord
100
AcDbBlockTableRecord
  2
BLOCK_21
  0
BLOCK_RECORD
  5
209
330
1
100
AcDbSymbolTableRecord
100
AcDbBlockTableRecord
  2
BLOCK_22
  0
ENDTAB
  0
ENDSEC
  0
SECTION
  2
BLOCKS
  0
BLOCK
  5
20
330
1F
100
AcDbEntity
  8
0
100
AcDbBlockBegin
  2
*MODEL_SPACE
 70
     0
 10
0.0
 20
0.0
 30
0.0
  3
*MODEL_SPACE
  1

  0
ENDBLK
  5
21
330
1F
100
AcDbEntity
  8
0
100
AcDbBlockEnd
  0
BLOCK
  5
1C
330
1B
100
AcDbEntity
 67
     1
  8
0
100
AcDbBlockBegin
  2
*PAPER_SPACE
 70
     0
 10
0.0
 20
0.0
 30
0.0
  3
*PAPER_SPACE
  1

  0
ENDBLK
  5
1D
330
1B
100
AcDbEntity
 67
     1
  8
0
100
AcDbBlockEnd
  0
BLOCK
  5
43
330
41
100
AcDbEntity
  8
0
100
AcDbBlockBegin
  2
BLOCK_2
 70
     0
 10
0.0
 20
0.0
 30
0.0
  3
BLOCK_2
  1

  0
INSERT
  5
46
330
41
100
AcDbEntity
  8
LAYER_1
100
AcDbBlockReference
  2
BLOCK_3
 10
0.0
 20
0.0
 30
0.0
  0
ENDBLK
  5
44
330
41
100
AcDbEntity
  8
0
100
AcDbBlockEnd
  0
BLOCK
  5
47
330
45
100
AcDbEntity
  8
0
100
AcDbBlockBegin
  2
BLOCK_3
 70
     0
 10
0.0
 20
0.0
 30
0.0
  3
BLOCK_3
  1

  0
POLYLINE
  5
49
330
45
100
AcDbEntity
  8
LAYER_1
 62
     1
100
AcDb2dPolyline
 66
     1
 10
0.0
 20
0.0
 30
0.0
  0
VERTEX
  5
4A
330
49
100
AcDbEntity
  8
LAYER_1
 62
     1
100
AcDbVertex
100
AcDb2dVertex
 10
13.15312021774376
 20
-9.194012448873373
 30
0.0
  0
VERTEX
  5
4B
330
49
100
AcDbEntity
  8
LAYER_1
 62
     1
100
AcDbVertex
100
AcDb2dVertex
 10
13.24131466216615
 20
-9.194012448873373
 30
0.0
  0
VERTEX
  5
4C
330
49
100
AcDbEntity
  8
LAYER_1
 62
     1
100
AcDbVertex
100
AcDb2dVertex
 10
13.24131466216615
 20
-9.282206893295768
 30
0.0
  0
SEQEND
  5
4D
330
49
100
AcDbEntity
  8
LAYER_1
 62
     1
  0
POLYLINE
  5
4E
330
45
100
AcDbEntity
  8
LAYER_1
  6
AI-LINETYPE-1
 62
     1
100
AcDb2dPolyline
 66
     1
 10
0.0
 20
0.0
 30
0.0
  0
VERTEX
  5
4F
330
4E
100
AcDbEntity
  8
LAYER_1
  6
AI-LINETYPE-1
 62
     1
100
AcDbVertex
100
AcDb2dVertex
 10
13.24131466216615
 20
-9.451872462982626
 30
0.0
  0
VERTEX
  5
50
330
4E
100
AcDbEntity
  8
LAYER_1
  6
AI-LINETYPE-1
 62
     1
100
AcDbVertex
100
AcDb2dVertex
 10
13.24131466216615
 20
-12.42098763473248
 30
0.0
  0
SEQEND
  5
52
330
4E
100
AcDbEntity
  8
LAYER_1
  6
AI-LINETYPE-1
 62
     1
  0
POLYLINE
  5
53
330
45
100
AcDbEntity
  8
LAYER_1
 62
     1
100
AcDb2dPolyline
 66
     1
 10
0.0
 20
0.0
 30
0.0
  0
VERTEX
  5
54
330
53
100
AcDbEntity
  8
LAYER_1
 62
     1
100
AcDbVertex
100
AcDb2dVertex
 10
13.24131466216615
 20
-12.50581772809506
 30
0.0
  0
VERTEX
  5
55
330
53
100
AcDbEntity
  8
LAYER_1
 62
     1
100
AcDbVertex
100
AcDb2dVertex
 10
13.24131466216615
 20
-12.59401217251746
 30
0.0
  0
VERTEX
  5
56
330
53
100
AcDbEntity
  8
LAYER_1
 62
     1
100
AcDbVertex
100
AcDb2dVertex
 10
13.15312021774376
 20
-12.59401217251746
 30
0.0
  0
SEQEND
  5
57
330
53
100
AcDbEntity
  8
LAYER_1
 62
     1
  0
POLYLINE
  5
58
330
45
100
AcDbEntity
  8
LAYER_1
  6
AI-LINETYPE-2
 62
     1
100
AcDb2dPolyline
 66
     1
 10
0.0
 20
0.0
 30
0.0
  0
VERTEX
  5
59
330
58
100
AcDbEntity
  8
LAYER_1
  6
AI-LINETYPE-2
 62
     1
100
AcDbVertex
100
AcDb2dVertex
 10
12.98733710917992
 20
-12.59401217251746
 30
0.0
  0
VERTEX
  5
5A
330
58
100
AcDbEntity
  8
LAYER_1
  6
AI-LINETYPE-2
 62
     1
100
AcDbVertex
100
AcDb2dVertex
 10
11.41240094217457
 20
-12.59401217251746
 30
0.0
  0
SEQEND
  5
5C
330
58
100
AcDbEntity
  8
LAYER_1
  6
AI-LINETYPE-2
 62
     1
  0
POLYLINE
  5
5D
330
45
100
AcDbEntity
  8
LAYER_1
 62
     1
100
AcDb2dPolyline
 66
     1
 10
0.0
 20
0.0
 30
0.0
  0
VERTEX
  5
5E
330
5D
100
AcDbEntity
  8
LAYER_1
 62
     1
100
AcDbVertex
100
AcDb2dVertex
 10
11.32951006076287
 20
-12.59401217251746
 30
0.0
  0
VERTEX
  5
5F
330
5D
100
AcDbEntity
  8
LAYER_1
 62
     1
100
AcDbVertex
100
AcDb2dVertex
 10
11.24131561634047
 20
-12.59401217251746
 30
0.0
  0
VERTEX
  5
60
330
5D
100
AcDbEntity
  8
LAYER_1
 62
     1
100
AcDbVertex
100
AcDb2dVertex
 10
11.24131561634047
 20
-12.50581772809506
 30
0.0
  0
SEQEND
  5
61
330
5D
100
AcDbEntity
  8
LAYER_1
 62
     1
  0
POLYLINE
  5
62
330
45
100
AcDbEntity
  8
LAYER_1
  6
AI-LINETYPE-3
 62
     1
100
AcDb2dPolyline
 66
     1
 10
0.0
 20
0.0
 30
0.0
  0
VERTEX
  5
63
330
62
100
AcDbEntity
  8
LAYER_1
  6
AI-LINETYPE-3
 62
     1
100
AcDbVertex
100
AcDb2dVertex
 10
11.24131561634047
 20
-12.33615484988905
 30
0.0
  0
VERTEX
  5
64
330
62
100
AcDbEntity
  8
LAYER_1
  6
AI-LINETYPE-3
 62
     1
100
AcDbVertex
100
AcDb2dVertex
 10
11.24131561634047
 20
-9.367039678139198
 30
0.0
  0
SEQEND
  5
66
330
62
100
AcDbEntity
  8
LAYER_1
  6
AI-LINETYPE-3
 62
     1
  0
POLYLINE
  5
67
330
45
100
AcDbEntity
  8
LAYER_1
 62
     1
100
AcDb2dPolyline
 66
     1
 10
0.0
 20
0.0
 30
0.0
  0
VERTEX
  5
68
330
67
100
AcDbEntity
  8
LAYER_1
 62
     1
100
AcDbVertex
100
AcDb2dVertex
 10
11.24131561634047
 20
-9.282206893295768
 30
0.0
  0
VERTEX
  5
69
330
67
100
AcDbEntity
  8
LAYER_1
 62
     1
100
AcDbVertex
100
AcDb2dVertex
 10
11.24131561634047
 20
-9.194012448873373
 30
0.0
  0
VERTEX
  5
6A
330
67
100
AcDbEntity
  8
LAYER_1
 62
     1
100
AcDbVertex
100
AcDb2dVertex
 10
11.32951006076287
 20
-9.194012448873373
 30
0.0
  0
SEQEND
  5
6B
330
67
100
AcDbEntity
  8
LAYER_1
 62
     1
  0
POLYLINE
  5
6C
330
45
100
AcDbEntity
  8
LAYER_1
  6
AI-LINETYPE-4
 62
     1
100
AcDb2dPolyline
 66
     1
 10
0.0
 20
0.0
 30
0.0
  0
VERTEX
  5
6D
330
6C
100
AcDbEntity
  8
LAYER_1
  6
AI-LINETYPE-4
 62
     1
100
AcDbVertex
100
AcDb2dVertex
 10
11.49529182358627
 20
-9.194012448873373
 30
0.0
  0
VERTEX
  5
6E
330
6C
100
AcDbEntity
  8
LAYER_1
  6
AI-LINETYPE-4
 62
     1
100
AcDbVertex
100
AcDb2dVertex
 10
13.07022933633205
 20
-9.194012448873373
 30
0.0
  0
SEQEND
  5
70
330
6C
100
AcDbEntity
  8
LAYER_1
  6
AI-LINETYPE-4
 62
     1
  0
ENDBLK
  5
48
330
45
100
AcDbEntity
  8
0
100
AcDbBlockEnd
  0
BLOCK
  5
73
330
71
100
AcDbEntity
  8
0
100
AcDbBlockBegin
  2
BLOCK_4
 70
     0
 10
0.0
 20
0.0
 30
0.0
  3
BLOCK_4
  1

  0
INSERT
  5
76
330
71
100
AcDbEntity
  8
LAYER_1
100
AcDbBlockReference
  2
BLOCK_5
 10
0.0
 20
0.0
 30
0.0
  0
ENDBLK
  5
74
330
71
100
AcDbEntity
  8
0
100
AcDbBlockEnd
  0
BLOCK
  5
77
330
75
100
AcDbEntity
  8
0
100
AcDbBlockBegin
  2
BLOCK_5
 70
     0
 10
0.0
 20
0.0
 30
0.0
  3
BLOCK_5
  1

  0
POLYLINE
  5
79
330
75
100
AcDbEntity
  8
LAYER_1
 62
     1
100
AcDb2dPolyline
 66
     1
 10
0.0
 20
0.0
 30
0.0
  0
VERTEX
  5
7A
330
79
100
AcDbEntity
  8
LAYER_1
 62
     1
100
AcDbVertex
100
AcDb2dVertex
 10
10.54865494570336
 20
-14.43330289691793
 30
0.0
  0
VERTEX
  5
7B
330
79
100
AcDbEntity
  8
LAYER_1
 62
     1
100
AcDbVertex
100
AcDb2dVertex
 10
10.54865494570336
 20
-14.34510845249554
 30
0.0
  0
VERTEX
  5
7C
330
79
100
AcDbEntity
  8
LAYER_1
 62
     1
100
AcDbVertex
100
AcDb2dVertex
 10
10.63684939012575
 20
-14.34510845249554
 30
0.0
  0
SEQEND
  5
7D
330
79
100
AcDbEntity
  8
LAYER_1
 62
     1
  0
POLYLINE
  5
7E
330
75
100
AcDbEntity
  8
LAYER_1
  6
AI-LINETYPE-5
 62
     1
100
AcDb2dPolyline
 66
     1
 10
0.0
 20
0.0
 30
0.0
  0
VERTEX
  5
7F
330
7E
100
AcDbEntity
  8
LAYER_1
  6
AI-LINETYPE-5
 62
     1
100
AcDbVertex
100
AcDb2dVertex
 10
10.80651361407219
 20
-14.34510845249554
 30
0.0
  0
VERTEX
  5
80
330
7E
100
AcDbEntity
  8
LAYER_1
  6
AI-LINETYPE-5
 62
     1
100
AcDbVertex
100
AcDb2dVertex
 10
13.77562878582204
 20
-14.34510845249554
 30
0.0
  0
SEQEND
  5
82
330
7E
100
AcDbEntity
  8
LAYER_1
  6
AI-LINETYPE-5
 62
     1
  0
POLYLINE
  5
83
330
75
100
AcDbEntity
  8
LAYER_1
 62
     1
100
AcDb2dPolyline
 66
     1
 10
0.0
 20
0.0
 30
0.0
  0
VERTEX
  5
84
330
83
100
AcDbEntity
  8
LAYER_1
 62
     1
100
AcDbVertex
100
AcDb2dVertex
 10
13.86046022492505
 20
-14.34510845249554
 30
0.0
  0
VERTEX
  5
85
330
83
100
AcDbEntity
  8
LAYER_1
 62
     1
100
AcDbVertex
100
AcDb2dVertex
 10
13.94865466934744
 20
-14.34510845249554
 30
0.0
  0
VERTEX
  5
86
330
83
100
AcDbEntity
  8
LAYER_1
 62
     1
100
AcDbVertex
100
AcDb2dVertex
 10
13.94865466934744
 20
-14.43330289691793
 30
0.0
  0
SEQEND
  5
87
330
83
100
AcDbEntity
  8
LAYER_1
 62
     1
  0
POLYLINE
  5
88
330
75
100
AcDbEntity
  8
LAYER_1
  6
AI-LINETYPE-6
 62
     1
100
AcDb2dPolyline
 66
     1
 10
0.0
 20
0.0
 30
0.0
  0
VERTEX
  5
89
330
88
100
AcDbEntity
  8
LAYER_1
  6
AI-LINETYPE-6
 62
     1
100
AcDbVertex
100
AcDb2dVertex
 10
13.94865466934744
 20
-14.5990819682605
 30
0.0
  0
VERTEX
  5
8A
330
88
100
AcDbEntity
  8
LAYER_1
  6
AI-LINETYPE-6
 62
     1
100
AcDbVertex
100
AcDb2dVertex
 10
13.94865466934744
 20
-16.17401813526585
 30
0.0
  0
SEQEND
  5
8C
330
88
100
AcDbEntity
  8
LAYER_1
  6
AI-LINETYPE-6
 62
     1
  0
POLYLINE
  5
8D
330
75
100
AcDbEntity
  8
LAYER_1
 62
     1
100
AcDb2dPolyline
 66
     1
 10
0.0
 20
0.0
 30
0.0
  0
VERTEX
  5
8E
330
8D
100
AcDbEntity
  8
LAYER_1
 62
     1
100
AcDbVertex
100
AcDb2dVertex
 10
13.94865466934744
 20
-16.25691036241798
 30
0.0
  0
VERTEX
  5
8F
330
8D
100
AcDbEntity
  8
LAYER_1
 62
     1
100
AcDbVertex
100
AcDb2dVertex
 10
13.94865466934744
 20
-16.34510480684038
 30
0.0
  0
VERTEX
  5
90
330
8D
100
AcDbEntity
  8
LAYER_1
 62
     1
100
AcDbVertex
100
AcDb2dVertex
 10
13.86046022492505
 20
-16.34510480684038
 30
0.0
  0
SEQEND
  5
91
330
8D
100
AcDbEntity
  8
LAYER_1
 62
     1
  0
POLYLINE
  5
92
330
75
100
AcDbEntity
  8
LAYER_1
  6
AI-LINETYPE-7
 62
     1
100
AcDb2dPolyline
 66
     1
 10
0.0
 20
0.0
 30
0.0
  0
VERTEX
  5
93
330
92
100
AcDbEntity
  8
LAYER_1
  6
AI-LINETYPE-7
 62
     1
100
AcDbVertex
100
AcDb2dVertex
 10
13.69079600097862
 20
-16.34510480684038
 30
0.0
  0
VERTEX
  5
94
330
92
100
AcDbEntity
  8
LAYER_1
  6
AI-LINETYPE-7
 62
     1
100
AcDbVertex
100
AcDb2dVertex
 10
10.72168082922876
 20
-16.34510480684038
 30
0.0
  0
SEQEND
  5
96
330
92
100
AcDbEntity
  8
LAYER_1
  6
AI-LINETYPE-7
 62
     1
  0
POLYLINE
  5
97
330
75
100
AcDbEntity
  8
LAYER_1
 62
     1
100
AcDb2dPolyline
 66
     1
 10
0.0
 20
0.0
 30
0.0
  0
VERTEX
  5
98
330
97
100
AcDbEntity
  8
LAYER_1
 62
     1
100
AcDbVertex
100
AcDb2dVertex
 10
10.63684939012575
 20
-16.34510480684038
 30
0.0
  0
VERTEX
  5
99
330
97
100
AcDbEntity
  8
LAYER_1
 62
     1
100
AcDbVertex
100
AcDb2dVertex
 10
10.54865494570336
 20
-16.34510480684038
 30
0.0
  0
VERTEX
  5
9A
330
97
100
AcDbEntity
  8
LAYER_1
 62
     1
100
AcDbVertex
100
AcDb2dVertex
 10
10.54865494570336
 20
-16.25691036241798
 30
0.0
  0
SEQEND
  5
9B
330
97
100
AcDbEntity
  8
LAYER_1
 62
     1
  0
POLYLINE
  5
9C
330
75
100
AcDbEntity
  8
LAYER_1
  6
AI-LINETYPE-8
 62
     1
100
AcDb2dPolyline
 66
     1
 10
0.0
 20
0.0
 30
0.0
  0
VERTEX
  5
9D
330
9C
100
AcDbEntity
  8
LAYER_1
  6
AI-LINETYPE-8
 62
     1
100
AcDbVertex
100
AcDb2dVertex
 10
10.54865494570336
 20
-16.09113129107542
 30
0.0
  0
VERTEX
  5
9E
330
9C
100
AcDbEntity
  8
LAYER_1
  6
AI-LINETYPE-8
 62
     1
100
AcDbVertex
100
AcDb2dVertex
 10
10.54865494570336
 20
-14.51618974110837
 30
0.0
  0
SEQEND
  5
A0
330
9C
100
AcDbEntity
  8
LAYER_1
  6
AI-LINETYPE-8
 62
     1
  0
ENDBLK
  5
78
330
75
100
AcDbEntity
  8
0
100
AcDbBlockEnd
  0
BLOCK
  5
A3
330
A1
100
AcDbEntity
  8
0
100
AcDbBlockBegin
  2
BLOCK_6
 70
     0
 10
0.0
 20
0.0
 30
0.0
  3
BLOCK_6
  1

  0
INSERT
  5
A6
330
A1
100
AcDbEntity
  8
LAYER_1
100
AcDbBlockReference
  2
BLOCK_7
 10
0.0
 20
0.0
 30
0.0
  0
ENDBLK
  5
A4
330
A1
100
AcDbEntity
  8
0
100
AcDbBlockEnd
  0
BLOCK
  5
A7
330
A5
100
AcDbEntity
  8
0
100
AcDbBlockBegin
  2
BLOCK_7
 70
     0
 10
0.0
 20
0.0
 30
0.0
  3
BLOCK_7
  1

  0
POLYLINE
  5
A9
330
A5
100
AcDbEntity
  8
LAYER_1
 62
     1
100
AcDb2dPolyline
 66
     1
 10
0.0
 20
0.0
 30
0.0
  0
VERTEX
  5
AA
330
A9
100
AcDbEntity
  8
LAYER_1
 62
     1
100
AcDbVertex
100
AcDb2dVertex
 10
13.93397533280326
 20
-7.354727107434593
 30
0.0
  0
VERTEX
  5
AB
330
A9
100
AcDbEntity
  8
LAYER_1
 62
     1
100
AcDbVertex
100
AcDb2dVertex
 10
13.93397533280326
 20
-7.44292155185699
 30
0.0
  0
VERTEX
  5
AC
330
A9
100
AcDbEntity
  8
LAYER_1
 62
     1
100
AcDbVertex
100
AcDb2dVertex
 10
13.84578088838087
 20
-7.44292155185699
 30
0.0
  0
SEQEND
  5
AD
330
A9
100
AcDbEntity
  8
LAYER_1
 62
     1
  0
POLYLINE
  5
AE
330
A5
100
AcDbEntity
  8
LAYER_1
  6
AI-LINETYPE-9
 62
     1
100
AcDb2dPolyline
 66
     1
 10
0.0
 20
0.0
 30
0.0
  0
VERTEX
  5
AF
330
AE
100
AcDbEntity
  8
LAYER_1
  6
AI-LINETYPE-9
 62
     1
100
AcDbVertex
100
AcDb2dVertex
 10
13.67611666443443
 20
-7.44292155185699
 30
0.0
  0
VERTEX
  5
B0
330
AE
100
AcDbEntity
  8
LAYER_1
  6
AI-LINETYPE-9
 62
     1
100
AcDbVertex
100
AcDb2dVertex
 10
10.70700149268458
 20
-7.44292155185699
 30
0.0
  0
SEQEND
  5
B2
330
AE
100
AcDbEntity
  8
LAYER_1
  6
AI-LINETYPE-9
 62
     1
  0
POLYLINE
  5
B3
330
A5
100
AcDbEntity
  8
LAYER_1
 62
     1
100
AcDb2dPolyline
 66
     1
 10
0.0
 20
0.0
 30
0.0
  0
VERTEX
  5
B4
330
B3
100
AcDbEntity
  8
LAYER_1
 62
     1
100
AcDbVertex
100
AcDb2dVertex
 10
10.62217005358157
 20
-7.44292155185699
 30
0.0
  0
VERTEX
  5
B5
330
B3
100
AcDbEntity
  8
LAYER_1
 62
     1
100
AcDbVertex
100
AcDb2dVertex
 10
10.53397560915918
 20
-7.44292155185699
 30
0.0
  0
VERTEX
  5
B6
330
B3
100
AcDbEntity
  8
LAYER_1
 62
     1
100
AcDbVertex
100
AcDb2dVertex
 10
10.53397560915918
 20
-7.354727107434593
 30
0.0
  0
SEQEND
  5
B7
330
B3
100
AcDbEntity
  8
LAYER_1
 62
     1
  0
POLYLINE
  5
B8
330
A5
100
AcDbEntity
  8
LAYER_1
  6
AI-LINETYPE-10
 62
     1
100
AcDb2dPolyline
 66
     1
 10
0.0
 20
0.0
 30
0.0
  0
VERTEX
  5
B9
330
B8
100
AcDbEntity
  8
LAYER_1
  6
AI-LINETYPE-10
 62
     1
100
AcDbVertex
100
AcDb2dVertex
 10
10.53397560915918
 20
-7.188942653130336
 30
0.0
  0
VERTEX
  5
BA
330
B8
100
AcDbEntity
  8
LAYER_1
  6
AI-LINETYPE-10
 62
     1
100
AcDbVertex
100
AcDb2dVertex
 10
10.53397560915918
 20
-5.614006486124982
 30
0.0
  0
SEQEND
  5
BC
330
B8
100
AcDbEntity
  8
LAYER_1
  6
AI-LINETYPE-10
 62
     1
  0
POLYLINE
  5
BD
330
A5
100
AcDbEntity
  8
LAYER_1
 62
     1
100
AcDb2dPolyline
 66
     1
 10
0.0
 20
0.0
 30
0.0
  0
VERTEX
  5
BE
330
BD
100
AcDbEntity
  8
LAYER_1
 62
     1
100
AcDbVertex
100
AcDb2dVertex
 10
10.53397560915918
 20
-5.531114258972853
 30
0.0
  0
VERTEX
  5
BF
330
BD
100
AcDbEntity
  8
LAYER_1
 62
     1
100
AcDbVertex
100
AcDb2dVertex
 10
10.53397560915918
 20
-5.442919814550457
 30
0.0
  0
VERTEX
  5
C0
330
BD
100
AcDbEntity
  8
LAYER_1
 62
     1
100
AcDbVertex
100
AcDb2dVertex
 10
10.62217005358157
 20
-5.442919814550457
 30
0.0
  0
SEQEND
  5
C1
330
BD
100
AcDbEntity
  8
LAYER_1
 62
     1
  0
POLYLINE
  5
C2
330
A5
100
AcDbEntity
  8
LAYER_1
  6
AI-LINETYPE-11
 62
     1
100
AcDb2dPolyline
 66
     1
 10
0.0
 20
0.0
 30
0.0
  0
VERTEX
  5
C3
330
C2
100
AcDbEntity
  8
LAYER_1
  6
AI-LINETYPE-11
 62
     1
100
AcDbVertex
100
AcDb2dVertex
 10
10.79183293178758
 20
-5.442919814550457
 30
0.0
  0
VERTEX
  5
C4
330
C2
100
AcDbEntity
  8
LAYER_1
  6
AI-LINETYPE-11
 62
     1
100
AcDbVertex
100
AcDb2dVertex
 10
13.76094944927786
 20
-5.442919814550457
 30
0.0
  0
SEQEND
  5
C6
330
C2
100
AcDbEntity
  8
LAYER_1
  6
AI-LINETYPE-11
 62
     1
  0
POLYLINE
  5
C7
330
A5
100
AcDbEntity
  8
LAYER_1
 62
     1
100
AcDb2dPolyline
 66
     1
 10
0.0
 20
0.0
 30
0.0
  0
VERTEX
  5
C8
330
C7
100
AcDbEntity
  8
LAYER_1
 62
     1
100
AcDbVertex
100
AcDb2dVertex
 10
13.84578088838087
 20
-5.442919814550457
 30
0.0
  0
VERTEX
  5
C9
330
C7
100
AcDbEntity
  8
LAYER_1
 62
     1
100
AcDbVertex
100
AcDb2dVertex
 10
13.93397533280326
 20
-5.442919814550457
 30
0.0
  0
VERTEX
  5
CA
330
C7
100
AcDbEntity
  8
LAYER_1
 62
     1
100
AcDbVertex
100
AcDb2dVertex
 10
13.93397533280326
 20
-5.531114258972853
 30
0.0
  0
SEQEND
  5
CB
330
C7
100
AcDbEntity
  8
LAYER_1
 62
     1
  0
POLYLINE
  5
CC
330
A5
100
AcDbEntity
  8
LAYER_1
  6
AI-LINETYPE-12
 62
     1
100
AcDb2dPolyline
 66
     1
 10
0.0
 20
0.0
 30
0.0
  0
VERTEX
  5
CD
330
CC
100
AcDbEntity
  8
LAYER_1
  6
AI-LINETYPE-12
 62
     1
100
AcDbVertex
100
AcDb2dVertex
 10
13.93397533280326
 20
-5.69689871327711
 30
0.0
  0
VERTEX
  5
CE
330
CC
100
AcDbEntity
  8
LAYER_1
  6
AI-LINETYPE-12
 62
     1
100
AcDbVertex
100
AcDb2dVertex
 10
13.93397533280326
 20
-7.271834880282465
 30
0.0
  0
SEQEND
  5
D0
330
CC
100
AcDbEntity
  8
LAYER_1
  6
AI-LINETYPE-12
 62
     1
  0
ENDBLK
  5
A8
330
A5
100
AcDbEntity
  8
0
100
AcDbBlockEnd
  0
BLOCK
  5
D3
330
D1
100
AcDbEntity
  8
0
100
AcDbBlockBegin
  2
BLOCK_8
 70
     0
 10
0.0
 20
0.0
 30
0.0
  3
BLOCK_8
  1

  0
INSERT
  5
D6
330
D1
100
AcDbEntity
  8
LAYER_1
100
AcDbBlockReference
  2
BLOCK_9
 10
0.0
 20
0.0
 30
0.0
  0
ENDBLK
  5
D4
330
D1
100
AcDbEntity
  8
0
100
AcDbBlockEnd
  0
BLOCK
  5
D7
330
D5
100
AcDbEntity
  8
0
100
AcDbBlockBegin
  2
BLOCK_9
 70
     0
 10
0.0
 20
0.0
 30
0.0
  3
BLOCK_9
  1

  0
POLYLINE
  5
D9
330
D5
100
AcDbEntity
  8
LAYER_1
 62
     1
100
AcDb2dPolyline
 66
     1
 10
0.0
 20
0.0
 30
0.0
  0
VERTEX
  5
DA
330
D9
100
AcDbEntity
  8
LAYER_1
 62
     1
100
AcDbVertex
100
AcDb2dVertex
 10
13.93397533280326
 20
-20.13277735736644
 30
0.0
  0
VERTEX
  5
DB
330
D9
100
AcDbEntity
  8
LAYER_1
 62
     1
100
AcDbVertex
100
AcDb2dVertex
 10
13.93397533280326
 20
-20.22097180178883
 30
0.0
  0
VERTEX
  5
DC
330
D9
100
AcDbEntity
  8
LAYER_1
 62
     1
100
AcDbVertex
100
AcDb2dVertex
 10
13.84578088838087
 20
-20.22097180178883
 30
0.0
  0
SEQEND
  5
DD
330
D9
100
AcDbEntity
  8
LAYER_1
 62
     1
  0
POLYLINE
  5
DE
330
D5
100
AcDbEntity
  8
LAYER_1
  6
AI-LINETYPE-13
 62
     1
100
AcDb2dPolyline
 66
     1
 10
0.0
 20
0.0
 30
0.0
  0
VERTEX
  5
DF
330
DE
100
AcDbEntity
  8
LAYER_1
  6
AI-LINETYPE-13
 62
     1
100
AcDbVertex
100
AcDb2dVertex
 10
13.67611666443443
 20
-20.22097180178883
 30
0.0
  0
VERTEX
  5
E0
330
DE
100
AcDbEntity
  8
LAYER_1
  6
AI-LINETYPE-13
 62
     1
100
AcDbVertex
100
AcDb2dVertex
 10
10.70700149268458
 20
-20.22097180178883
 30
0.0
  0
SEQEND
  5
E2
330
DE
100
AcDbEntity
  8
LAYER_1
  6
AI-LINETYPE-13
 62
     1
  0
POLYLINE
  5
E3
330
D5
100
AcDbEntity
  8
LAYER_1
 62
     1
100
AcDb2dPolyline
 66
     1
 10
0.0
 20
0.0
 30
0.0
  0
VERTEX
  5
E4
330
E3
100
AcDbEntity
  8
LAYER_1
 62
     1
100
AcDbVertex
100
AcDb2dVertex
 10
10.62217005358157
 20
-20.22097180178883
 30
0.0
  0
VERTEX
  5
E5
330
E3
100
AcDbEntity
  8
LAYER_1
 62
     1
100
AcDbVertex
100
AcDb2dVertex
 10
10.53397560915918
 20
-20.22097180178883
 30
0.0
  0
VERTEX
  5
E6
330
E3
100
AcDbEntity
  8
LAYER_1
 62
     1
100
AcDbVertex
100
AcDb2dVertex
 10
10.53397560915918
 20
-20.13277735736644
 30
0.0
  0
SEQEND
  5
E7
330
E3
100
AcDbEntity
  8
LAYER_1
 62
     1
  0
POLYLINE
  5
E8
330
D5
100
AcDbEntity
  8
LAYER_1
  6
AI-LINETYPE-14
 62
     1
100
AcDb2dPolyline
 66
     1
 10
0.0
 20
0.0
 30
0.0
  0
VERTEX
  5
E9
330
E8
100
AcDbEntity
  8
LAYER_1
  6
AI-LINETYPE-14
 62
     1
100
AcDbVertex
100
AcDb2dVertex
 10
10.53397560915918
 20
-19.96699290306218
 30
0.0
  0
VERTEX
  5
EA
330
E8
100
AcDbEntity
  8
LAYER_1
  6
AI-LINETYPE-14
 62
     1
100
AcDbVertex
100
AcDb2dVertex
 10
10.53397560915918
 20
-18.39205673605683
 30
0.0
  0
SEQEND
  5
EC
330
E8
100
AcDbEntity
  8
LAYER_1
  6
AI-LINETYPE-14
 62
     1
  0
POLYLINE
  5
ED
330
D5
100
AcDbEntity
  8
LAYER_1
 62
     1
100
AcDb2dPolyline
 66
     1
 10
0.0
 20
0.0
 30
0.0
  0
VERTEX
  5
EE
330
ED
100
AcDbEntity
  8
LAYER_1
 62
     1
100
AcDbVertex
100
AcDb2dVertex
 10
10.53397560915918
 20
-18.3091645089047
 30
0.0
  0
VERTEX
  5
EF
330
ED
100
AcDbEntity
  8
LAYER_1
 62
     1
100
AcDbVertex
100
AcDb2dVertex
 10
10.53397560915918
 20
-18.2209700644823
 30
0.0
  0
VERTEX
  5
F0
330
ED
100
AcDbEntity
  8
LAYER_1
 62
     1
100
AcDbVertex
100
AcDb2dVertex
 10
10.62217005358157
 20
-18.2209700644823
 30
0.0
  0
SEQEND
  5
F1
330
ED
100
AcDbEntity
  8
LAYER_1
 62
     1
  0
POLYLINE
  5
F2
330
D5
100
AcDbEntity
  8
LAYER_1
  6
AI-LINETYPE-15
 62
     1
100
AcDb2dPolyline
 66
     1
 10
0.0
 20
0.0
 30
0.0
  0
VERTEX
  5
F3
330
F2
100
AcDbEntity
  8
LAYER_1
  6
AI-LINETYPE-15
 62
     1
100
AcDbVertex
100
AcDb2dVertex
 10
10.79183293178758
 20
-18.2209700644823
 30
0.0
  0
VERTEX
  5
F4
330
F2
100
AcDbEntity
  8
LAYER_1
  6
AI-LINETYPE-15
 62
     1
100
AcDbVertex
100
AcDb2dVertex
 10
13.76094944927786
 20
-18.2209700644823
 30
0.0
  0
SEQEND
  5
F6
330
F2
100
AcDbEntity
  8
LAYER_1
  6
AI-LINETYPE-15
 62
     1
  0
POLYLINE
  5
F7
330
D5
100
AcDbEntity
  8
LAYER_1
 62
     1
100
AcDb2dPolyline
 66
     1
 10
0.0
 20
0.0
 30
0.0
  0
VERTEX
  5
F8
330
F7
100
AcDbEntity
  8
LAYER_1
 62
     1
100
AcDbVertex
100
AcDb2dVertex
 10
13.84578088838087
 20
-18.2209700644823
 30
0.0
  0
VERTEX
  5
F9
330
F7
100
AcDbEntity
  8
LAYER_1
 62
     1
100
AcDbVertex
100
AcDb2dVertex
 10
13.93397533280326
 20
-18.2209700644823
 30
0.0
  0
VERTEX
  5
FA
330
F7
100
AcDbEntity
  8
LAYER_1
 62
     1
100
AcDbVertex
100
AcDb2dVertex
 10
13.93397533280326
 20
-18.3091645089047
 30
0.0
  0
SEQEND
  5
FB
330
F7
100
AcDbEntity
  8
LAYER_1
 62
     1
  0
POLYLINE
  5
FC
330
D5
100
AcDbEntity
  8
LAYER_1
  6
AI-LINETYPE-16
 62
     1
100
AcDb2dPolyline
 66
     1
 10
0.0
 20
0.0
 30
0.0
  0
VERTEX
  5
FD
330
FC
100
AcDbEntity
  8
LAYER_1
  6
AI-LINETYPE-16
 62
     1
100
AcDbVertex
100
AcDb2dVertex
 10
13.93397533280326
 20
-18.47494896320896
 30
0.0
  0
VERTEX
  5
FE
330
FC
100
AcDbEntity
  8
LAYER_1
  6
AI-LINETYPE-16
 62
     1
100
AcDbVertex
100
AcDb2dVertex
 10
13.93397533280326
 20
-20.04988513021431
 30
0.0
  0
SEQEND
  5
100
330
FC
100
AcDbEntity
  8
LAYER_1
  6
AI-LINETYPE-16
 62
     1
  0
ENDBLK
  5
D8
330
D5
100
AcDbEntity
  8
0
100
AcDbBlockEnd
  0
BLOCK
  5
103
330
101
100
AcDbEntity
  8
0
100
AcDbBlockBegin
  2
BLOCK_10
 70
     0
 10
0.0
 20
0.0
 30
0.0
  3
BLOCK_10
  1

  0
INSERT
  5
106
330
101
100
AcDbEntity
  8
LAYER_1
100
AcDbBlockReference
  2
BLOCK_11
 10
0.0
 20
0.0
 30
0.0
  0
ENDBLK
  5
104
330
101
100
AcDbEntity
  8
0
100
AcDbBlockEnd
  0
BLOCK
  5
107
330
105
100
AcDbEntity
  8
0
100
AcDbBlockBegin
  2
BLOCK_11
 70
     0
 10
0.0
 20
0.0
 30
0.0
  3
BLOCK_11
  1

  0
POLYLINE
  5
109
330
105
100
AcDbEntity
  8
LAYER_1
 62
     1
100
AcDb2dPolyline
 66
     1
 10
0.0
 20
0.0
 30
0.0
  0
VERTEX
  5
10A
330
109
100
AcDbEntity
  8
LAYER_1
 62
     1
100
AcDbVertex
100
AcDb2dVertex
 10
10.54865494570336
 20
-1.655249955505241
 30
0.0
  0
VERTEX
  5
10B
330
109
100
AcDbEntity
  8
LAYER_1
 62
     1
100
AcDbVertex
100
AcDb2dVertex
 10
10.54865494570336
 20
-1.567055511082845
 30
0.0
  0
VERTEX
  5
10C
330
109
100
AcDbEntity
  8
LAYER_1
 62
     1
100
AcDbVertex
100
AcDb2dVertex
 10
10.63684939012575
 20
-1.567055511082845
 30
0.0
  0
SEQEND
  5
10D
330
109
100
AcDbEntity
  8
LAYER_1
 62
     1
  0
POLYLINE
  5
10E
330
105
100
AcDbEntity
  8
LAYER_1
  6
AI-LINETYPE-17
 62
     1
100
AcDb2dPolyline
 66
     1
 10
0.0
 20
0.0
 30
0.0
  0
VERTEX
  5
10F
330
10E
100
AcDbEntity
  8
LAYER_1
  6
AI-LINETYPE-17
 62
     1
100
AcDbVertex
100
AcDb2dVertex
 10
10.80651361407219
 20
-1.567055511082845
 30
0.0
  0
VERTEX
  5
110
330
10E
100
AcDbEntity
  8
LAYER_1
  6
AI-LINETYPE-17
 62
     1
100
AcDbVertex
100
AcDb2dVertex
 10
13.77562878582204
 20
-1.567055511082845
 30
0.0
  0
SEQEND
  5
112
330
10E
100
AcDbEntity
  8
LAYER_1
  6
AI-LINETYPE-17
 62
     1
  0
POLYLINE
  5
113
330
105
100
AcDbEntity
  8
LAYER_1
 62
     1
100
AcDb2dPolyline
 66
     1
 10
0.0
 20
0.0
 30
0.0
  0
VERTEX
  5
114
330
113
100
AcDbEntity
  8
LAYER_1
 62
     1
100
AcDbVertex
100
AcDb2dVertex
 10
13.86046022492505
 20
-1.567055511082845
 30
0.0
  0
VERTEX
  5
115
330
113
100
AcDbEntity
  8
LAYER_1
 62
     1
100
AcDbVertex
100
AcDb2dVertex
 10
13.94865466934744
 20
-1.567055511082845
 30
0.0
  0
VERTEX
  5
116
330
113
100
AcDbEntity
  8
LAYER_1
 62
     1
100
AcDbVertex
100
AcDb2dVertex
 10
13.94865466934744
 20
-1.655249955505241
 30
0.0
  0
SEQEND
  5
117
330
113
100
AcDbEntity
  8
LAYER_1
 62
     1
  0
POLYLINE
  5
118
330
105
100
AcDbEntity
  8
LAYER_1
  6
AI-LINETYPE-18
 62
     1
100
AcDb2dPolyline
 66
     1
 10
0.0
 20
0.0
 30
0.0
  0
VERTEX
  5
119
330
118
100
AcDbEntity
  8
LAYER_1
  6
AI-LINETYPE-18
 62
     1
100
AcDbVertex
100
AcDb2dVertex
 10
13.94865466934744
 20
-1.821031718328651
 30
0.0
  0
VERTEX
  5
11A
330
118
100
AcDbEntity
  8
LAYER_1
  6
AI-LINETYPE-18
 62
     1
100
AcDbVertex
100
AcDb2dVertex
 10
13.94865466934744
 20
-3.395967885334005
 30
0.0
  0
SEQEND
  5
11C
330
118
100
AcDbEntity
  8
LAYER_1
  6
AI-LINETYPE-18
 62
     1
  0
POLYLINE
  5
11D
330
105
100
AcDbEntity
  8
LAYER_1
 62
     1
100
AcDb2dPolyline
 66
     1
 10
0.0
 20
0.0
 30
0.0
  0
VERTEX
  5
11E
330
11D
100
AcDbEntity
  8
LAYER_1
 62
     1
100
AcDbVertex
100
AcDb2dVertex
 10
13.94865466934744
 20
-3.478860112486134
 30
0.0
  0
VERTEX
  5
11F
330
11D
100
AcDbEntity
  8
LAYER_1
 62
     1
100
AcDbVertex
100
AcDb2dVertex
 10
13.94865466934744
 20
-3.56705455690853
 30
0.0
  0
VERTEX
  5
120
330
11D
100
AcDbEntity
  8
LAYER_1
 62
     1
100
AcDbVertex
100
AcDb2dVertex
 10
13.86046022492505
 20
-3.56705455690853
 30
0.0
  0
SEQEND
  5
121
330
11D
100
AcDbEntity
  8
LAYER_1
 62
     1
  0
POLYLINE
  5
122
330
105
100
AcDbEntity
  8
LAYER_1
  6
AI-LINETYPE-19
 62
     1
100
AcDb2dPolyline
 66
     1
 10
0.0
 20
0.0
 30
0.0
  0
VERTEX
  5
123
330
122
100
AcDbEntity
  8
LAYER_1
  6
AI-LINETYPE-19
 62
     1
100
AcDbVertex
100
AcDb2dVertex
 10
13.69079600097862
 20
-3.56705455690853
 30
0.0
  0
VERTEX
  5
124
330
122
100
AcDbEntity
  8
LAYER_1
  6
AI-LINETYPE-19
 62
     1
100
AcDbVertex
100
AcDb2dVertex
 10
10.72168082922876
 20
-3.56705455690853
 30
0.0
  0
SEQEND
  5
126
330
122
100
AcDbEntity
  8
LAYER_1
  6
AI-LINETYPE-19
 62
     1
  0
POLYLINE
  5
127
330
105
100
AcDbEntity
  8
LAYER_1
 62
     1
100
AcDb2dPolyline
 66
     1
 10
0.0
 20
0.0
 30
0.0
  0
VERTEX
  5
128
330
127
100
AcDbEntity
  8
LAYER_1
 62
     1
100
AcDbVertex
100
AcDb2dVertex
 10
10.63684939012575
 20
-3.56705455690853
 30
0.0
  0
VERTEX
  5
129
330
127
100
AcDbEntity
  8
LAYER_1
 62
     1
100
AcDbVertex
100
AcDb2dVertex
 10
10.54865494570336
 20
-3.56705455690853
 30
0.0
  0
VERTEX
  5
12A
330
127
100
AcDbEntity
  8
LAYER_1
 62
     1
100
AcDbVertex
100
AcDb2dVertex
 10
10.54865494570336
 20
-3.478860112486134
 30
0.0
  0
SEQEND
  5
12B
330
127
100
AcDbEntity
  8
LAYER_1
 62
     1
  0
POLYLINE
  5
12C
330
105
100
AcDbEntity
  8
LAYER_1
  6
AI-LINETYPE-20
 62
     1
100
AcDb2dPolyline
 66
     1
 10
0.0
 20
0.0
 30
0.0
  0
VERTEX
  5
12D
330
12C
100
AcDbEntity
  8
LAYER_1
  6
AI-LINETYPE-20
 62
     1
100
AcDbVertex
100
AcDb2dVertex
 10
10.54865494570336
 20
-3.313078349662725
 30
0.0
  0
VERTEX
  5
12E
330
12C
100
AcDbEntity
  8
LAYER_1
  6
AI-LINETYPE-20
 62
     1
100
AcDbVertex
100
AcDb2dVertex
 10
10.54865494570336
 20
-1.738139491176522
 30
0.0
  0
SEQEND
  5
130
330
12C
100
AcDbEntity
  8
LAYER_1
  6
AI-LINETYPE-20
 62
     1
  0
ENDBLK
  5
108
330
105
100
AcDbEntity
  8
0
100
AcDbBlockEnd
  0
BLOCK
  5
133
330
131
100
AcDbEntity
  8
0
100
AcDbBlockBegin
  2
BLOCK_12
 70
     0
 10
0.0
 20
0.0
 30
0.0
  3
BLOCK_12
  1

  0
INSERT
  5
136
330
131
100
AcDbEntity
  8
LAYER_1
100
AcDbBlockReference
  2
BLOCK_13
 10
0.0
 20
0.0
 30
0.0
  0
ENDBLK
  5
134
330
131
100
AcDbEntity
  8
0
100
AcDbBlockEnd
  0
BLOCK
  5
137
330
135
100
AcDbEntity
  8
0
100
AcDbBlockBegin
  2
BLOCK_13
 70
     0
 10
0.0
 20
0.0
 30
0.0
  3
BLOCK_13
  1

  0
POLYLINE
  5
139
330
135
100
AcDbEntity
  8
LAYER_1
 62
     1
100
AcDb2dPolyline
 66
     1
 10
0.0
 20
0.0
 30
0.0
  0
VERTEX
  5
13A
330
139
100
AcDbEntity
  8
LAYER_1
 62
     1
100
AcDbVertex
100
AcDb2dVertex
 10
19.3959898582288
 20
-4.808745022737159
 30
0.0
  0
VERTEX
  5
13B
330
139
100
AcDbEntity
  8
LAYER_1
 62
     1
100
AcDbVertex
100
AcDb2dVertex
 10
19.47236735598871
 20
-4.76464780052596
 30
0.0
  0
VERTEX
  5
13C
330
139
100
AcDbEntity
  8
LAYER_1
 62
     1
100
AcDbVertex
100
AcDb2dVertex
 10
19.5164645781999
 20
-4.841026644026289
 30
0.0
  0
SEQEND
  5
13D
330
139
100
AcDbEntity
  8
LAYER_1
 62
     1
  0
POLYLINE
  5
13E
330
135
100
AcDbEntity
  8
LAYER_1
  6
AI-LINETYPE-21
 62
     1
100
AcDb2dPolyline
 66
     1
 10
0.0
 20
0.0
 30
0.0
  0
VERTEX
  5
13F
330
13E
100
AcDbEntity
  8
LAYER_1
  6
AI-LINETYPE-21
 62
     1
100
AcDbVertex
100
AcDb2dVertex
 10
19.60129736304333
 20
-4.987959966472194
 30
0.0
  0
VERTEX
  5
140
330
13E
100
AcDbEntity
  8
LAYER_1
  6
AI-LINETYPE-21
 62
     1
100
AcDbVertex
100
AcDb2dVertex
 10
21.08585494891826
 20
-7.559287726313846
 30
0.0
  0
SEQEND
  5
142
330
13E
100
AcDbEntity
  8
LAYER_1
  6
AI-LINETYPE-21
 62
     1
  0
POLYLINE
  5
143
330
135
100
AcDbEntity
  8
LAYER_1
 62
     1
100
AcDb2dPolyline
 66
     1
 10
0.0
 20
0.0
 30
0.0
  0
VERTEX
  5
144
330
143
100
AcDbEntity
  8
LAYER_1
 62
     1
100
AcDbVertex
100
AcDb2dVertex
 10
21.12826999559955
 20
-7.632754387536798
 30
0.0
  0
VERTEX
  5
145
330
143
100
AcDbEntity
  8
LAYER_1
 62
     1
100
AcDbVertex
100
AcDb2dVertex
 10
21.17236721781075
 20
-7.709133231037127
 30
0.0
  0
VERTEX
  5
146
330
143
100
AcDbEntity
  8
LAYER_1
 62
     1
100
AcDbVertex
100
AcDb2dVertex
 10
21.09598837431042
 20
-7.753230453248324
 30
0.0
  0
SEQEND
  5
147
330
143
100
AcDbEntity
  8
LAYER_1
 62
     1
  0
POLYLINE
  5
148
330
135
100
AcDbEntity
  8
LAYER_1
  6
AI-LINETYPE-22
 62
     1
100
AcDb2dPolyline
 66
     1
 10
0.0
 20
0.0
 30
0.0
  0
VERTEX
  5
149
330
148
100
AcDbEntity
  8
LAYER_1
  6
AI-LINETYPE-22
 62
     1
100
AcDbVertex
100
AcDb2dVertex
 10
20.95241671144348
 20
-7.836122680400453
 30
0.0
  0
VERTEX
  5
14A
330
148
100
AcDbEntity
  8
LAYER_1
  6
AI-LINETYPE-22
 62
     1
100
AcDbVertex
100
AcDb2dVertex
 10
19.58848187698629
 20
-8.623590763903131
 30
0.0
  0
SEQEND
  5
14C
330
148
100
AcDbEntity
  8
LAYER_1
  6
AI-LINETYPE-22
 62
     1
  0
POLYLINE
  5
14D
330
135
100
AcDbEntity
  8
LAYER_1
 62
     1
100
AcDb2dPolyline
 66
     1
 10
0.0
 20
0.0
 30
0.0
  0
VERTEX
  5
14E
330
14D
100
AcDbEntity
  8
LAYER_1
 62
     1
100
AcDbVertex
100
AcDb2dVertex
 10
19.51669604555282
 20
-8.665036877479194
 30
0.0
  0
VERTEX
  5
14F
330
14D
100
AcDbEntity
  8
LAYER_1
 62
     1
100
AcDbVertex
100
AcDb2dVertex
 10
19.44031720205249
 20
-8.709134099690393
 30
0.0
  0
VERTEX
  5
150
330
14D
100
AcDbEntity
  8
LAYER_1
 62
     1
100
AcDbVertex
100
AcDb2dVertex
 10
19.39621997984129
 20
-8.632755256190064
 30
0.0
  0
SEQEND
  5
151
330
14D
100
AcDbEntity
  8
LAYER_1
 62
     1
  0
POLYLINE
  5
152
330
135
100
AcDbEntity
  8
LAYER_1
  6
AI-LINETYPE-23
 62
     1
100
AcDb2dPolyline
 66
     1
 10
0.0
 20
0.0
 30
0.0
  0
VERTEX
  5
153
330
152
100
AcDbEntity
  8
LAYER_1
  6
AI-LINETYPE-23
 62
     1
100
AcDbVertex
100
AcDb2dVertex
 10
19.31138854073829
 20
-8.485821933744159
 30
0.0
  0
VERTEX
  5
154
330
152
100
AcDbEntity
  8
LAYER_1
  6
AI-LINETYPE-23
 62
     1
100
AcDbVertex
100
AcDb2dVertex
 10
17.82682960912294
 20
-5.91449148242166
 30
0.0
  0
SEQEND
  5
156
330
152
100
AcDbEntity
  8
LAYER_1
  6
AI-LINETYPE-23
 62
     1
  0
POLYLINE
  5
157
330
135
100
AcDbEntity
  8
LAYER_1
 62
     1
100
AcDb2dPolyline
 66
     1
 10
0.0
 20
0.0
 30
0.0
  0
VERTEX
  5
158
330
157
100
AcDbEntity
  8
LAYER_1
 62
     1
100
AcDbVertex
100
AcDb2dVertex
 10
17.78441456244165
 20
-5.841024821198706
 30
0.0
  0
VERTEX
  5
159
330
157
100
AcDbEntity
  8
LAYER_1
 62
     1
100
AcDbVertex
100
AcDb2dVertex
 10
17.74031734023045
 20
-5.764645977698379
 30
0.0
  0
VERTEX
  5
15A
330
157
100
AcDbEntity
  8
LAYER_1
 62
     1
100
AcDbVertex
100
AcDb2dVertex
 10
17.81669618373078
 20
-5.72054875548718
 30
0.0
  0
SEQEND
  5
15B
330
157
100
AcDbEntity
  8
LAYER_1
 62
     1
  0
POLYLINE
  5
15C
330
135
100
AcDbEntity
  8
LAYER_1
  6
AI-LINETYPE-24
 62
     1
100
AcDb2dPolyline
 66
     1
 10
0.0
 20
0.0
 30
0.0
  0
VERTEX
  5
15D
330
15C
100
AcDbEntity
  8
LAYER_1
  6
AI-LINETYPE-24
 62
     1
100
AcDbVertex
100
AcDb2dVertex
 10
17.96026784659772
 20
-5.6376592198159
 30
0.0
  0
VERTEX
  5
15E
330
15C
100
AcDbEntity
  8
LAYER_1
  6
AI-LINETYPE-24
 62
     1
100
AcDbVertex
100
AcDb2dVertex
 10
19.32420268105491
 20
-4.850191136313223
 30
0.0
  0
SEQEND
  5
160
330
15C
100
AcDbEntity
  8
LAYER_1
  6
AI-LINETYPE-24
 62
     1
  0
ENDBLK
  5
138
330
135
100
AcDbEntity
  8
0
100
AcDbBlockEnd
  0
BLOCK
  5
163
330
161
100
AcDbEntity
  8
0
100
AcDbBlockBegin
  2
BLOCK_14
 70
     0
 10
0.0
 20
0.0
 30
0.0
  3
BLOCK_14
  1

  0
INSERT
  5
166
330
161
100
AcDbEntity
  8
LAYER_1
100
AcDbBlockReference
  2
BLOCK_15
 10
0.0
 20
0.0
 30
0.0
  0
ENDBLK
  5
164
330
161
100
AcDbEntity
  8
0
100
AcDbBlockEnd
  0
BLOCK
  5
167
330
165
100
AcDbEntity
  8
0
100
AcDbBlockBegin
  2
BLOCK_15
 70
     0
 10
0.0
 20
0.0
 30
0.0
  3
BLOCK_15
  1

  0
POLYLINE
  5
169
330
165
100
AcDbEntity
  8
LAYER_1
 62
     1
100
AcDb2dPolyline
 66
     1
 10
0.0
 20
0.0
 30
0.0
  0
VERTEX
  5
16A
330
169
100
AcDbEntity
  8
LAYER_1
 62
     1
100
AcDbVertex
100
AcDb2dVertex
 10
21.08864870603833
 20
-14.04750603218691
 30
0.0
  0
VERTEX
  5
16B
330
169
100
AcDbEntity
  8
LAYER_1
 62
     1
100
AcDbVertex
100
AcDb2dVertex
 10
21.16502754953866
 20
-14.09160325439811
 30
0.0
  0
VERTEX
  5
16C
330
169
100
AcDbEntity
  8
LAYER_1
 62
     1
100
AcDbVertex
100
AcDb2dVertex
 10
21.12093032732746
 20
-14.16798209789843
 30
0.0
  0
SEQEND
  5
16D
330
169
100
AcDbEntity
  8
LAYER_1
 62
     1
  0
POLYLINE
  5
16E
330
165
100
AcDbEntity
  8
LAYER_1
  6
AI-LINETYPE-25
 62
     1
100
AcDb2dPolyline
 66
     1
 10
0.0
 20
0.0
 30
0.0
  0
VERTEX
  5
16F
330
16E
100
AcDbEntity
  8
LAYER_1
  6
AI-LINETYPE-25
 62
     1
100
AcDbVertex
100
AcDb2dVertex
 10
21.03610023396488
 20
-14.31491542034434
 30
0.0
  0
VERTEX
  5
170
330
16E
100
AcDbEntity
  8
LAYER_1
  6
AI-LINETYPE-25
 62
     1
100
AcDbVertex
100
AcDb2dVertex
 10
19.55154130234953
 20
-16.88624856314769
 30
0.0
  0
SEQEND
  5
172
330
16E
100
AcDbEntity
  8
LAYER_1
  6
AI-LINETYPE-25
 62
     1
  0
POLYLINE
  5
173
330
165
100
AcDbEntity
  8
LAYER_1
 62
     1
100
AcDb2dPolyline
 66
     1
 10
0.0
 20
0.0
 30
0.0
  0
VERTEX
  5
174
330
173
100
AcDbEntity
  8
LAYER_1
 62
     1
100
AcDbVertex
100
AcDb2dVertex
 10
19.50912490992781
 20
-16.95971522437064
 30
0.0
  0
VERTEX
  5
175
330
173
100
AcDbEntity
  8
LAYER_1
 62
     1
100
AcDbVertex
100
AcDb2dVertex
 10
19.46502768771662
 20
-17.03609406787097
 30
0.0
  0
VERTEX
  5
176
330
173
100
AcDbEntity
  8
LAYER_1
 62
     1
100
AcDbVertex
100
AcDb2dVertex
 10
19.38865018995671
 20
-16.99199684565977
 30
0.0
  0
SEQEND
  5
177
330
173
100
AcDbEntity
  8
LAYER_1
 62
     1
  0
POLYLINE
  5
178
330
165
100
AcDbEntity
  8
LAYER_1
  6
AI-LINETYPE-26
 62
     1
100
AcDb2dPolyline
 66
     1
 10
0.0
 20
0.0
 30
0.0
  0
VERTEX
  5
179
330
178
100
AcDbEntity
  8
LAYER_1
  6
AI-LINETYPE-26
 62
     1
100
AcDbVertex
100
AcDb2dVertex
 10
19.24507718134935
 20
-16.90910461850764
 30
0.0
  0
VERTEX
  5
17A
330
178
100
AcDbEntity
  8
LAYER_1
  6
AI-LINETYPE-26
 62
     1
100
AcDbVertex
100
AcDb2dVertex
 10
17.88114234689215
 20
-16.12163653500496
 30
0.0
  0
SEQEND
  5
17C
330
178
100
AcDbEntity
  8
LAYER_1
  6
AI-LINETYPE-26
 62
     1
  0
POLYLINE
  5
17D
330
165
100
AcDbEntity
  8
LAYER_1
 62
     1
100
AcDb2dPolyline
 66
     1
 10
0.0
 20
0.0
 30
0.0
  0
VERTEX
  5
17E
330
17D
100
AcDbEntity
  8
LAYER_1
 62
     1
100
AcDbVertex
100
AcDb2dVertex
 10
17.80935651545868
 20
-16.08018772994805
 30
0.0
  0
VERTEX
  5
17F
330
17D
100
AcDbEntity
  8
LAYER_1
 62
     1
100
AcDbVertex
100
AcDb2dVertex
 10
17.73297767195836
 20
-16.03609050773685
 30
0.0
  0
VERTEX
  5
180
330
17D
100
AcDbEntity
  8
LAYER_1
 62
     1
100
AcDbVertex
100
AcDb2dVertex
 10
17.77707489416956
 20
-15.95971166423653
 30
0.0
  0
SEQEND
  5
181
330
17D
100
AcDbEntity
  8
LAYER_1
 62
     1
  0
POLYLINE
  5
182
330
165
100
AcDbEntity
  8
LAYER_1
  6
AI-LINETYPE-27
 62
     1
100
AcDb2dPolyline
 66
     1
 10
0.0
 20
0.0
 30
0.0
  0
VERTEX
  5
183
330
182
100
AcDbEntity
  8
LAYER_1
  6
AI-LINETYPE-27
 62
     1
100
AcDbVertex
100
AcDb2dVertex
 10
17.86190633327256
 20
-15.81277834179062
 30
0.0
  0
VERTEX
  5
184
330
182
100
AcDbEntity
  8
LAYER_1
  6
AI-LINETYPE-27
 62
     1
100
AcDbVertex
100
AcDb2dVertex
 10
19.34646391914749
 20
-13.24145058194897
 30
0.0
  0
SEQEND
  5
186
330
182
100
AcDbEntity
  8
LAYER_1
  6
AI-LINETYPE-27
 62
     1
  0
POLYLINE
  5
187
330
165
100
AcDbEntity
  8
LAYER_1
 62
     1
100
AcDb2dPolyline
 66
     1
 10
0.0
 20
0.0
 30
0.0
  0
VERTEX
  5
188
330
187
100
AcDbEntity
  8
LAYER_1
 62
     1
100
AcDbVertex
100
AcDb2dVertex
 10
19.3888803115692
 20
-13.16798392072602
 30
0.0
  0
VERTEX
  5
189
330
187
100
AcDbEntity
  8
LAYER_1
 62
     1
100
AcDbVertex
100
AcDb2dVertex
 10
19.4329775337804
 20
-13.09160507722569
 30
0.0
  0
VERTEX
  5
18A
330
187
100
AcDbEntity
  8
LAYER_1
 62
     1
100
AcDbVertex
100
AcDb2dVertex
 10
19.50935637728073
 20
-13.13570229943689
 30
0.0
  0
SEQEND
  5
18B
330
187
100
AcDbEntity
  8
LAYER_1
 62
     1
  0
POLYLINE
  5
18C
330
165
100
AcDbEntity
  8
LAYER_1
  6
AI-LINETYPE-28
 62
     1
100
AcDb2dPolyline
 66
     1
 10
0.0
 20
0.0
 30
0.0
  0
VERTEX
  5
18D
330
18C
100
AcDbEntity
  8
LAYER_1
  6
AI-LINETYPE-28
 62
     1
100
AcDbVertex
100
AcDb2dVertex
 10
19.65292804014767
 20
-13.21859452658902
 30
0.0
  0
VERTEX
  5
18E
330
18C
100
AcDbEntity
  8
LAYER_1
  6
AI-LINETYPE-28
 62
     1
100
AcDbVertex
100
AcDb2dVertex
 10
21.01686422034529
 20
-14.00606261009169
 30
0.0
  0
SEQEND
  5
190
330
18C
100
AcDbEntity
  8
LAYER_1
  6
AI-LINETYPE-28
 62
     1
  0
ENDBLK
  5
168
330
165
100
AcDbEntity
  8
0
100
AcDbBlockEnd
  0
BLOCK
  5
193
330
191
100
AcDbEntity
  8
0
100
AcDbBlockBegin
  2
BLOCK_16
 70
     0
 10
0.0
 20
0.0
 30
0.0
  3
BLOCK_16
  1

  0
INSERT
  5
196
330
191
100
AcDbEntity
  8
LAYER_1
100
AcDbBlockReference
  2
BLOCK_17
 10
0.0
 20
0.0
 30
0.0
  0
ENDBLK
  5
194
330
191
100
AcDbEntity
  8
0
100
AcDbBlockEnd
  0
BLOCK
  5
197
330
195
100
AcDbEntity
  8
0
100
AcDbBlockBegin
  2
BLOCK_17
 70
     0
 10
0.0
 20
0.0
 30
0.0
  3
BLOCK_17
  1

  0
POLYLINE
  5
199
330
195
100
AcDbEntity
  8
LAYER_1
 62
     1
100
AcDb2dPolyline
 66
     1
 10
0.0
 20
0.0
 30
0.0
  0
VERTEX
  5
19A
330
199
100
AcDbEntity
  8
LAYER_1
 62
     1
100
AcDbVertex
100
AcDb2dVertex
 10
5.086641093148032
 20
-16.97928229013452
 30
0.0
  0
VERTEX
  5
19B
330
199
100
AcDbEntity
  8
LAYER_1
 62
     1
100
AcDbVertex
100
AcDb2dVertex
 10
5.010262249647703
 20
-17.02337951234572
 30
0.0
  0
VERTEX
  5
19C
330
199
100
AcDbEntity
  8
LAYER_1
 62
     1
100
AcDbVertex
100
AcDb2dVertex
 10
4.966165027436506
 20
-16.94700066884539
 30
0.0
  0
SEQEND
  5
19D
330
199
100
AcDbEntity
  8
LAYER_1
 62
     1
  0
POLYLINE
  5
19E
330
195
100
AcDbEntity
  8
LAYER_1
  6
AI-LINETYPE-29
 62
     1
100
AcDb2dPolyline
 66
     1
 10
0.0
 20
0.0
 30
0.0
  0
VERTEX
  5
19F
330
19E
100
AcDbEntity
  8
LAYER_1
  6
AI-LINETYPE-29
 62
     1
100
AcDbVertex
100
AcDb2dVertex
 10
4.881332915463288
 20
-16.80006734639948
 30
0.0
  0
VERTEX
  5
1A0
330
19E
100
AcDbEntity
  8
LAYER_1
  6
AI-LINETYPE-29
 62
     1
100
AcDbVertex
100
AcDb2dVertex
 10
3.39677532958836
 20
-14.22873958655783
 30
0.0
  0
SEQEND
  5
1A2
330
19E
100
AcDbEntity
  8
LAYER_1
  6
AI-LINETYPE-29
 62
     1
  0
POLYLINE
  5
1A3
330
195
100
AcDbEntity
  8
LAYER_1
 62
     1
100
AcDb2dPolyline
 66
     1
 10
0.0
 20
0.0
 30
0.0
  0
VERTEX
  5
1A4
330
1A3
100
AcDbEntity
  8
LAYER_1
 62
     1
100
AcDbVertex
100
AcDb2dVertex
 10
3.354359273601752
 20
-14.15527292533488
 30
0.0
  0
VERTEX
  5
1A5
330
1A3
100
AcDbEntity
  8
LAYER_1
 62
     1
100
AcDbVertex
100
AcDb2dVertex
 10
3.310262051390554
 20
-14.07889408183455
 30
0.0
  0
VERTEX
  5
1A6
330
1A3
100
AcDbEntity
  8
LAYER_1
 62
     1
100
AcDbVertex
100
AcDb2dVertex
 10
3.386640894890882
 20
-14.03479685962335
 30
0.0
  0
SEQEND
  5
1A7
330
1A3
100
AcDbEntity
  8
LAYER_1
 62
     1
  0
POLYLINE
  5
1A8
330
195
100
AcDbEntity
  8
LAYER_1
  6
AI-LINETYPE-30
 62
     1
100
AcDb2dPolyline
 66
     1
 10
0.0
 20
0.0
 30
0.0
  0
VERTEX
  5
1A9
330
1A8
100
AcDbEntity
  8
LAYER_1
  6
AI-LINETYPE-30
 62
     1
100
AcDbVertex
100
AcDb2dVertex
 10
3.530212894192927
 20
-13.95190463247123
 30
0.0
  0
VERTEX
  5
1AA
330
1A8
100
AcDbEntity
  8
LAYER_1
  6
AI-LINETYPE-30
 62
     1
100
AcDbVertex
100
AcDb2dVertex
 10
4.894148401520332
 20
-13.16443654896855
 30
0.0
  0
SEQEND
  5
1AC
330
1A8
100
AcDbEntity
  8
LAYER_1
  6
AI-LINETYPE-30
 62
     1
  0
POLYLINE
  5
1AD
330
195
100
AcDbEntity
  8
LAYER_1
 62
     1
100
AcDb2dPolyline
 66
     1
 10
0.0
 20
0.0
 30
0.0
  0
VERTEX
  5
1AE
330
1AD
100
AcDbEntity
  8
LAYER_1
 62
     1
100
AcDbVertex
100
AcDb2dVertex
 10
4.965934232953802
 20
-13.12298774391164
 30
0.0
  0
VERTEX
  5
1AF
330
1AD
100
AcDbEntity
  8
LAYER_1
 62
     1
100
AcDbVertex
100
AcDb2dVertex
 10
5.04231307645413
 20
-13.07889052170044
 30
0.0
  0
VERTEX
  5
1B0
330
1AD
100
AcDbEntity
  8
LAYER_1
 62
     1
100
AcDbVertex
100
AcDb2dVertex
 10
5.086410298665328
 20
-13.15526936520077
 30
0.0
  0
SEQEND
  5
1B1
330
1AD
100
AcDbEntity
  8
LAYER_1
 62
     1
  0
POLYLINE
  5
1B2
330
195
100
AcDbEntity
  8
LAYER_1
  6
AI-LINETYPE-31
 62
     1
100
AcDb2dPolyline
 66
     1
 10
0.0
 20
0.0
 30
0.0
  0
VERTEX
  5
1B3
330
1B2
100
AcDbEntity
  8
LAYER_1
  6
AI-LINETYPE-31
 62
     1
100
AcDbVertex
100
AcDb2dVertex
 10
5.171242410638546
 20
-13.30220268764667
 30
0.0
  0
VERTEX
  5
1B4
330
1B2
100
AcDbEntity
  8
LAYER_1
  6
AI-LINETYPE-31
 62
     1
100
AcDbVertex
100
AcDb2dVertex
 10
6.655799996513473
 20
-15.87353583045002
 30
0.0
  0
SEQEND
  5
1B6
330
1B2
100
AcDbEntity
  8
LAYER_1
  6
AI-LINETYPE-31
 62
     1
  0
POLYLINE
  5
1B7
330
195
100
AcDbEntity
  8
LAYER_1
 62
     1
100
AcDb2dPolyline
 66
     1
 10
0.0
 20
0.0
 30
0.0
  0
VERTEX
  5
1B8
330
1B7
100
AcDbEntity
  8
LAYER_1
 62
     1
100
AcDbVertex
100
AcDb2dVertex
 10
6.698215716064976
 20
-15.94700249167297
 30
0.0
  0
VERTEX
  5
1B9
330
1B7
100
AcDbEntity
  8
LAYER_1
 62
     1
100
AcDbVertex
100
AcDb2dVertex
 10
6.742312938276173
 20
-16.0233813351733
 30
0.0
  0
VERTEX
  5
1BA
330
1B7
100
AcDbEntity
  8
LAYER_1
 62
     1
100
AcDbVertex
100
AcDb2dVertex
 10
6.665934094775845
 20
-16.0674785573845
 30
0.0
  0
SEQEND
  5
1BB
330
1B7
100
AcDbEntity
  8
LAYER_1
 62
     1
  0
POLYLINE
  5
1BC
330
195
100
AcDbEntity
  8
LAYER_1
  6
AI-LINETYPE-32
 62
     1
100
AcDb2dPolyline
 66
     1
 10
0.0
 20
0.0
 30
0.0
  0
VERTEX
  5
1BD
330
1BC
100
AcDbEntity
  8
LAYER_1
  6
AI-LINETYPE-32
 62
     1
100
AcDbVertex
100
AcDb2dVertex
 10
6.522362431908906
 20
-16.15036540157493
 30
0.0
  0
VERTEX
  5
1BE
330
1BC
100
AcDbEntity
  8
LAYER_1
  6
AI-LINETYPE-32
 62
     1
100
AcDbVertex
100
AcDb2dVertex
 10
5.158426924581501
 20
-16.9378388680393
 30
0.0
  0
SEQEND
  5
1C0
330
1BC
100
AcDbEntity
  8
LAYER_1
  6
AI-LINETYPE-32
 62
     1
  0
ENDBLK
  5
198
330
195
100
AcDbEntity
  8
0
100
AcDbBlockEnd
  0
BLOCK
  5
1C3
330
1C1
100
AcDbEntity
  8
0
100
AcDbBlockBegin
  2
BLOCK_18
 70
     0
 10
0.0
 20
0.0
 30
0.0
  3
BLOCK_18
  1

  0
INSERT
  5
1C6
330
1C1
100
AcDbEntity
  8
LAYER_1
100
AcDbBlockReference
  2
BLOCK_19
 10
0.0
 20
0.0
 30
0.0
  0
ENDBLK
  5
1C4
330
1C1
100
AcDbEntity
  8
0
100
AcDbBlockEnd
  0
BLOCK
  5
1C7
330
1C5
100
AcDbEntity
  8
0
100
AcDbBlockBegin
  2
BLOCK_19
 70
     0
 10
0.0
 20
0.0
 30
0.0
  3
BLOCK_19
  1

  0
POLYLINE
  5
1C9
330
1C5
100
AcDbEntity
  8
LAYER_1
 62
     1
100
AcDb2dPolyline
 66
     1
 10
0.0
 20
0.0
 30
0.0
  0
VERTEX
  5
1CA
330
1C9
100
AcDbEntity
  8
LAYER_1
 62
     1
100
AcDbVertex
100
AcDb2dVertex
 10
3.393980563162973
 20
-7.740518589203923
 30
0.0
  0
VERTEX
  5
1CB
330
1C9
100
AcDbEntity
  8
LAYER_1
 62
     1
100
AcDbVertex
100
AcDb2dVertex
 10
3.317602056097751
 20
-7.696421366992724
 30
0.0
  0
VERTEX
  5
1CC
330
1C9
100
AcDbEntity
  8
LAYER_1
 62
     1
100
AcDbVertex
100
AcDb2dVertex
 10
3.361699278308949
 20
-7.620042523492397
 30
0.0
  0
SEQEND
  5
1CD
330
1C9
100
AcDbEntity
  8
LAYER_1
 62
     1
  0
POLYLINE
  5
1CE
330
1C5
100
AcDbEntity
  8
LAYER_1
  6
AI-LINETYPE-33
 62
     1
100
AcDb2dPolyline
 66
     1
 10
0.0
 20
0.0
 30
0.0
  0
VERTEX
  5
1CF
330
1CE
100
AcDbEntity
  8
LAYER_1
  6
AI-LINETYPE-33
 62
     1
100
AcDbVertex
100
AcDb2dVertex
 10
3.44653105384706
 20
-7.473109201046491
 30
0.0
  0
VERTEX
  5
1D0
330
1CE
100
AcDbEntity
  8
LAYER_1
  6
AI-LINETYPE-33
 62
     1
100
AcDbVertex
100
AcDb2dVertex
 10
4.931088976157094
 20
-4.901778749723992
 30
0.0
  0
SEQEND
  5
1D2
330
1CE
100
AcDbEntity
  8
LAYER_1
  6
AI-LINETYPE-33
 62
     1
  0
POLYLINE
  5
1D3
330
1C5
100
AcDbEntity
  8
LAYER_1
 62
     1
100
AcDb2dPolyline
 66
     1
 10
0.0
 20
0.0
 30
0.0
  0
VERTEX
  5
1D4
330
1D3
100
AcDbEntity
  8
LAYER_1
 62
     1
100
AcDbVertex
100
AcDb2dVertex
 10
4.973504695708596
 20
-4.828312088501039
 30
0.0
  0
VERTEX
  5
1D5
330
1D3
100
AcDbEntity
  8
LAYER_1
 62
     1
100
AcDbVertex
100
AcDb2dVertex
 10
5.017601917919794
 20
-4.751933245000711
 30
0.0
  0
VERTEX
  5
1D6
330
1D3
100
AcDbEntity
  8
LAYER_1
 62
     1
100
AcDbVertex
100
AcDb2dVertex
 10
5.093980761420122
 20
-4.796030467211908
 30
0.0
  0
SEQEND
  5
1D7
330
1D3
100
AcDbEntity
  8
LAYER_1
 62
     1
  0
POLYLINE
  5
1D8
330
1C5
100
AcDbEntity
  8
LAYER_1
  6
AI-LINETYPE-34
 62
     1
100
AcDb2dPolyline
 66
     1
 10
0.0
 20
0.0
 30
0.0
  0
VERTEX
  5
1D9
330
1D8
100
AcDbEntity
  8
LAYER_1
  6
AI-LINETYPE-34
 62
     1
100
AcDbVertex
100
AcDb2dVertex
 10
5.237552424287061
 20
-4.878922694364037
 30
0.0
  0
VERTEX
  5
1DA
330
1D8
100
AcDbEntity
  8
LAYER_1
  6
AI-LINETYPE-34
 62
     1
100
AcDbVertex
100
AcDb2dVertex
 10
6.601487931614467
 20
-5.666390777866714
 30
0.0
  0
SEQEND
  5
1DC
330
1D8
100
AcDbEntity
  8
LAYER_1
  6
AI-LINETYPE-34
 62
     1
  0
POLYLINE
  5
1DD
330
1C5
100
AcDbEntity
  8
LAYER_1
 62
     1
100
AcDb2dPolyline
 66
     1
 10
0.0
 20
0.0
 30
0.0
  0
VERTEX
  5
1DE
330
1DD
100
AcDbEntity
  8
LAYER_1
 62
     1
100
AcDbVertex
100
AcDb2dVertex
 10
6.673274435918148
 20
-5.707836891442779
 30
0.0
  0
VERTEX
  5
1DF
330
1DD
100
AcDbEntity
  8
LAYER_1
 62
     1
100
AcDbVertex
100
AcDb2dVertex
 10
6.749652606548264
 20
-5.751934113653976
 30
0.0
  0
VERTEX
  5
1E0
330
1DD
100
AcDbEntity
  8
LAYER_1
 62
     1
100
AcDbVertex
100
AcDb2dVertex
 10
6.705555384337067
 20
-5.828312957154305
 30
0.0
  0
SEQEND
  5
1E1
330
1DD
100
AcDbEntity
  8
LAYER_1
 62
     1
  0
POLYLINE
  5
1E2
330
1C5
100
AcDbEntity
  8
LAYER_1
  6
AI-LINETYPE-35
 62
     1
100
AcDb2dPolyline
 66
     1
 10
0.0
 20
0.0
 30
0.0
  0
VERTEX
  5
1E3
330
1E2
100
AcDbEntity
  8
LAYER_1
  6
AI-LINETYPE-35
 62
     1
100
AcDbVertex
100
AcDb2dVertex
 10
6.620723945234061
 20
-5.97524627960021
 30
0.0
  0
VERTEX
  5
1E4
330
1E2
100
AcDbEntity
  8
LAYER_1
  6
AI-LINETYPE-35
 62
     1
100
AcDbVertex
100
AcDb2dVertex
 10
5.136165686488922
 20
-8.546576730922709
 30
0.0
  0
SEQEND
  5
1E6
330
1E2
100
AcDbEntity
  8
LAYER_1
  6
AI-LINETYPE-35
 62
     1
  0
POLYLINE
  5
1E7
330
1C5
100
AcDbEntity
  8
LAYER_1
 62
     1
100
AcDb2dPolyline
 66
     1
 10
0.0
 20
0.0
 30
0.0
  0
VERTEX
  5
1E8
330
1E7
100
AcDbEntity
  8
LAYER_1
 62
     1
100
AcDbVertex
100
AcDb2dVertex
 10
5.093749966937419
 20
-8.620043392145663
 30
0.0
  0
VERTEX
  5
1E9
330
1E7
100
AcDbEntity
  8
LAYER_1
 62
     1
100
AcDbVertex
100
AcDb2dVertex
 10
5.049652744726221
 20
-8.696419544165142
 30
0.0
  0
VERTEX
  5
1EA
330
1E7
100
AcDbEntity
  8
LAYER_1
 62
     1
100
AcDbVertex
100
AcDb2dVertex
 10
4.973273901225893
 20
-8.652322321953944
 30
0.0
  0
SEQEND
  5
1EB
330
1E7
100
AcDbEntity
  8
LAYER_1
 62
     1
  0
POLYLINE
  5
1EC
330
1C5
100
AcDbEntity
  8
LAYER_1
  6
AI-LINETYPE-36
 62
     1
100
AcDb2dPolyline
 66
     1
 10
0.0
 20
0.0
 30
0.0
  0
VERTEX
  5
1ED
330
1EC
100
AcDbEntity
  8
LAYER_1
  6
AI-LINETYPE-36
 62
     1
100
AcDbVertex
100
AcDb2dVertex
 10
4.829702238358954
 20
-8.569432786282665
 30
0.0
  0
VERTEX
  5
1EE
330
1EC
100
AcDbEntity
  8
LAYER_1
  6
AI-LINETYPE-36
 62
     1
100
AcDbVertex
100
AcDb2dVertex
 10
3.465766731031549
 20
-7.781964702779987
 30
0.0
  0
SEQEND
  5
1F0
330
1EC
100
AcDbEntity
  8
LAYER_1
  6
AI-LINETYPE-36
 62
     1
  0
ENDBLK
  5
1C8
330
1C5
100
AcDbEntity
  8
0
100
AcDbBlockEnd
  0
BLOCK
  5
1F3
330
1F1
100
AcDbEntity
  8
0
100
AcDbBlockBegin
  2
BLOCK_20
 70
     0
 10
0.0
 20
0.0
 30
0.0
  3
BLOCK_20
  1

  0
POLYLINE
  5
1F5
330
1F1
100
AcDbEntity
  8
LAYER_1
 62
     1
100
AcDb2dPolyline
 66
     1
 10
0.0
 20
0.0
 30
0.0
  0
VERTEX
  5
1F6
330
1F5
100
AcDbEntity
  8
LAYER_1
 62
     1
100
AcDbVertex
100
AcDb2dVertex
 10
11.99241546594204
 20
-10.88756569915844
 30
0.0
  0
VERTEX
  5
1F7
330
1F5
100
AcDbEntity
  8
LAYER_1
 62
     1
100
AcDbVertex
100
AcDb2dVertex
 10
12.24241546590114
 20
-10.63756569924362
 30
0.0
  0
VERTEX
  5
1F8
330
1F5
100
AcDbEntity
  8
LAYER_1
 62
     1
100
AcDbVertex
100
AcDb2dVertex
 10
12.49241546581724
 20
-10.88756569920336
 30
0.0
  0
VERTEX
  5
1F9
330
1F5
100
AcDbEntity
  8
LAYER_1
 62
     1
100
AcDbVertex
100
AcDb2dVertex
 10
12.24241546585558
 20
-11.13756569911947
 30
0.0
  0
VERTEX
  5
1FA
330
1F5
100
AcDbEntity
  8
LAYER_1
 62
     1
100
AcDbVertex
100
AcDb2dVertex
 10
11.99241546594204
 20
-10.88756569915844
 30
0.0
  0
VERTEX
  5
1FB
330
1F5
100
AcDbEntity
  8
LAYER_1
 62
     1
100
AcDbVertex
100
AcDb2dVertex
 10
11.99241546594204
 20
-10.88756569915844
 30
0.0
  0
SEQEND
  5
1FC
330
1F5
100
AcDbEntity
  8
LAYER_1
 62
     1
  0
ENDBLK
  5
1F4
330
1F1
100
AcDbEntity
  8
0
100
AcDbBlockEnd
  0
BLOCK
  5
1FF
330
1FD
100
AcDbEntity
  8
0
100
AcDbBlockBegin
  2
BLOCK_21
 70
     0
 10
0.0
 20
0.0
 30
0.0
  3
BLOCK_21
  1

  0
POLYLINE
  5
201
330
1FD
100
AcDbEntity
  8
LAYER_1
 62
     1
100
AcDb2dPolyline
 66
     1
 10
0.0
 20
0.0
 30
0.0
  0
VERTEX
  5
202
330
201
100
AcDbEntity
  8
LAYER_1
 62
     1
100
AcDbVertex
100
AcDb2dVertex
 10
12.00588923949128
 20
-15.34510634428707
 30
0.0
  0
VERTEX
  5
203
330
201
100
AcDbEntity
  8
LAYER_1
 62
     1
100
AcDbVertex
100
AcDb2dVertex
 10
12.25588923944974
 20
-15.09510634437224
 30
0.0
  0
VERTEX
  5
204
330
201
100
AcDbEntity
  8
LAYER_1
 62
     1
100
AcDbVertex
100
AcDb2dVertex
 10
12.50588923936585
 20
-15.34510634433199
 30
0.0
  0
VERTEX
  5
205
330
201
100
AcDbEntity
  8
LAYER_1
 62
     1
100
AcDbVertex
100
AcDb2dVertex
 10
12.25588923940482
 20
-15.59510634424873
 30
0.0
  0
VERTEX
  5
206
330
201
100
AcDbEntity
  8
LAYER_1
 62
     1
100
AcDbVertex
100
AcDb2dVertex
 10
12.00588923949128
 20
-15.34510634428707
 30
0.0
  0
VERTEX
  5
207
330
201
100
AcDbEntity
  8
LAYER_1
 62
     1
100
AcDbVertex
100
AcDb2dVertex
 10
12.00588923949128
 20
-15.34510634428707
 30
0.0
  0
SEQEND
  5
208
330
201
100
AcDbEntity
  8
LAYER_1
 62
     1
  0
ENDBLK
  5
200
330
1FD
100
AcDbEntity
  8
0
100
AcDbBlockEnd
  0
BLOCK
  5
20B
330
209
100
AcDbEntity
  8
0
100
AcDbBlockBegin
  2
BLOCK_22
 70
     0
 10
0.0
 20
0.0
 30
0.0
  3
BLOCK_22
  1

  0
POLYLINE
  5
20D
330
209
100
AcDbEntity
  8
LAYER_1
 62
     1
100
AcDb2dPolyline
 66
     1
 10
0.0
 20
0.0
 30
0.0
  0
VERTEX
  5
20E
330
20D
100
AcDbEntity
  8
LAYER_1
 62
     1
100
AcDbVertex
100
AcDb2dVertex
 10
4.776287579324745
 20
-15.04544546452845
 30
0.0
  0
VERTEX
  5
20F
330
20D
100
AcDbEntity
  8
LAYER_1
 62
     1
100
AcDbVertex
100
AcDb2dVertex
 10
5.026287579283204
 20
-14.79544546461362
 30
0.0
  0
VERTEX
  5
210
330
20D
100
AcDbEntity
  8
LAYER_1
 62
     1
100
AcDbVertex
100
AcDb2dVertex
 10
5.27628757919931
 20
-15.04544546457336
 30
0.0
  0
VERTEX
  5
211
330
20D
100
AcDbEntity
  8
LAYER_1
 62
     1
100
AcDbVertex
100
AcDb2dVertex
 10
5.026287579238284
 20
-15.29544546449011
 30
0.0
  0
VERTEX
  5
212
330
20D
100
AcDbEntity
  8
LAYER_1
 62
     1
100
AcDbVertex
100
AcDb2dVertex
 10
4.776287579324745
 20
-15.04544546452845
 30
0.0
  0
VERTEX
  5
213
330
20D
100
AcDbEntity
  8
LAYER_1
 62
     1
100
AcDbVertex
100
AcDb2dVertex
 10
4.776287579324745
 20
-15.04544546452845
 30
0.0
  0
SEQEND
  5
214
330
20D
100
AcDbEntity
  8
LAYER_1
 62
     1
  0
ENDBLK
  5
20C
330
209
100
AcDbEntity
  8
0
100
AcDbBlockEnd
  0
ENDSEC
  0
SECTION
  2
ENTITIES
  0
INSERT
  5
42
330
1F
100
AcDbEntity
  8
LAYER_1
100
AcDbBlockReference
  2
BLOCK_2
 10
0.0
 20
0.0
 30
0.0
  0
INSERT
  5
72
330
1F
100
AcDbEntity
  8
LAYER_1
100
AcDbBlockReference
  2
BLOCK_4
 10
0.0
 20
0.0
 30
0.0
  0
INSERT
  5
A2
330
1F
100
AcDbEntity
  8
LAYER_1
100
AcDbBlockReference
  2
BLOCK_6
 10
0.0
 20
0.0
 30
0.0
  0
INSERT
  5
D2
330
1F
100
AcDbEntity
  8
LAYER_1
100
AcDbBlockReference
  2
BLOCK_8
 10
0.0
 20
0.0
 30
0.0
  0
INSERT
  5
102
330
1F
100
AcDbEntity
  8
LAYER_1
100
AcDbBlockReference
  2
BLOCK_10
 10
0.0
 20
0.0
 30
0.0
  0
INSERT
  5
132
330
1F
100
AcDbEntity
  8
LAYER_1
100
AcDbBlockReference
  2
BLOCK_12
 10
0.0
 20
0.0
 30
0.0
  0
INSERT
  5
162
330
1F
100
AcDbEntity
  8
LAYER_1
100
AcDbBlockReference
  2
BLOCK_14
 10
0.0
 20
0.0
 30
0.0
  0
INSERT
  5
192
330
1F
100
AcDbEntity
  8
LAYER_1
100
AcDbBlockReference
  2
BLOCK_16
 10
0.0
 20
0.0
 30
0.0
  0
INSERT
  5
1C2
330
1F
100
AcDbEntity
  8
LAYER_1
100
AcDbBlockReference
  2
BLOCK_18
 10
0.0
 20
0.0
 30
0.0
  0
INSERT
  5
1F2
330
1F
100
AcDbEntity
  8
LAYER_1
100
AcDbBlockReference
  2
BLOCK_20
 10
0.0
 20
0.0
 30
0.0
  0
INSERT
  5
1FE
330
1F
100
AcDbEntity
  8
LAYER_1
100
AcDbBlockReference
  2
BLOCK_21
 10
0.0
 20
0.0
 30
0.0
  0
INSERT
  5
20A
330
1F
100
AcDbEntity
  8
LAYER_1
100
AcDbBlockReference
  2
BLOCK_22
 10
0.0
 20
0.0
 30
0.0
  0
POLYLINE
  5
215
330
1F
100
AcDbEntity
  8
LAYER_1
 62
     1
100
AcDb2dPolyline
 66
     1
 10
0.0
 20
0.0
 30
0.0
  0
VERTEX
  5
216
330
215
100
AcDbEntity
  8
LAYER_1
 62
     1
100
AcDbVertex
100
AcDb2dVertex
 10
9.693975647608983
 20
-18.93188197703841
 30
0.0
  0
VERTEX
  5
217
330
215
100
AcDbEntity
  8
LAYER_1
 62
     1
100
AcDbVertex
100
AcDb2dVertex
 10
7.266837423514134
 20
-18.93188197703841
 30
0.0
  0
VERTEX
  5
218
330
215
100
AcDbEntity
  8
LAYER_1
 62
     1
100
AcDbVertex
100
AcDb2dVertex
 10
7.26631240252296
 20
-18.93097295044197
 30
0.0
  0
VERTEX
  5
219
330
215
100
AcDbEntity
  8
LAYER_1
 62
     1
100
AcDbVertex
100
AcDb2dVertex
 10
5.024569316119825
 20
-15.04816002767833
 30
0.0
  0
SEQEND
  5
21A
330
215
100
AcDbEntity
  8
LAYER_1
 62
     1
  0
POLYLINE
  5
21B
330
1F
100
AcDbEntity
  8
LAYER_1
 62
     1
100
AcDb2dPolyline
 66
     1
 10
0.0
 20
0.0
 30
0.0
  0
VERTEX
  5
21C
330
21B
100
AcDbEntity
  8
LAYER_1
 62
     1
100
AcDbVertex
100
AcDb2dVertex
 10
12.22724676886159
 20
-10.88130048993393
 30
0.0
  0
VERTEX
  5
21D
330
21B
100
AcDbEntity
  8
LAYER_1
 62
     1
100
AcDbVertex
100
AcDb2dVertex
 10
14.77397492300351
 20
-10.88130048993393
 30
0.0
  0
VERTEX
  5
21E
330
21B
100
AcDbEntity
  8
LAYER_1
 62
     1
100
AcDbVertex
100
AcDb2dVertex
 10
14.77397492300351
 20
-10.89401332047976
 30
0.0
  0
VERTEX
  5
21F
330
21B
100
AcDbEntity
  8
LAYER_1
 62
     1
100
AcDbVertex
100
AcDb2dVertex
 10
14.77397492300351
 20
-18.93188197703841
 30
0.0
  0
SEQEND
  5
220
330
21B
100
AcDbEntity
  8
LAYER_1
 62
     1
  0
ENDSEC
  0
SECTION
  2
OBJECTS
  0
DICTIONARY
  5
C
330
0
100
AcDbDictionary
  3
ACAD_GROUP
350
D
  3
ACAD_LAYOUT
350
1A
  3
ACAD_MATERIAL
350
3B
  3
ACAD_MLEADERSTYLE
350
223
  3
ACAD_MLINESTYLE
350
17
  3
ACAD_PLOTSETTINGS
350
19
  3
ACAD_VISUALSTYLE
350
2A
  3
ACDBVARIABLEDICTIONARY
350
221
1001
ACAD
1000
TREAT_AS_HARD
1070
     0
  0
DICTIONARY
  5
D
102
{ACAD_REACTORS
330
C
102
}
330
C
100
AcDbDictionary
1001
ACAD
1000
TREAT_AS_HARD
1070
     0
  0
DICTIONARY
  5
1A
102
{ACAD_REACTORS
330
C
102
}
330
C
100
AcDbDictionary
1001
ACAD
1000
TREAT_AS_HARD
1070
     0
  0
DICTIONARY
  5
3B
102
{ACAD_REACTORS
330
C
102
}
330
C
100
AcDbDictionary
  3
BYBLOCK
350
3D
  3
BYLAYER
350
3C
  3
GLOBAL
350
3E
1001
ACAD
1000
TREAT_AS_HARD
1070
     0
  0
DICTIONARY
  5
223
102
{ACAD_REACTORS
330
C
102
}
330
C
100
AcDbDictionary
1001
ACAD
1000
TREAT_AS_HARD
1070
     0
  0
DICTIONARY
  5
17
102
{ACAD_REACTORS
330
C
102
}
330
C
100
AcDbDictionary
  3
STANDARD
350
18
1001
ACAD
1000
TREAT_AS_HARD
1070
     0
  0
DICTIONARY
  5
19
102
{ACAD_REACTORS
330
C
102
}
330
C
100
AcDbDictionary
1001
ACAD
1000
TREAT_AS_HARD
1070
     0
  0
DICTIONARY
  5
2A
102
{ACAD_REACTORS
330
C
102
}
330
C
100
AcDbDictionary
  3
2DWIREFRAME
350
2F
  3
3DWIREFRAME
350
30
  3
3D_HIDDEN
350
31
  3
BASIC
350
32
  3
BRIGHTEN
350
36
  3
COLORCHANGE
350
3A
  3
CONCEPTUAL
350
34
  3
DIM
350
35
  3
FACEPATTERN
350
39
  3
FLAT
350
2B
  3
FLATWITHEDGES
350
2C
  3
GOURAUD
350
2D
  3
GOURAUDWITHEDGES
350
2E
  3
LINEPATTERN
350
38
  3
REALISTIC
350
33
  3
THICKEN
350
37
1001
ACAD
1000
TREAT_AS_HARD
1070
     0
  0
DICTIONARY
  5
221
102
{ACAD_REACTORS
330
C
102
}
330
C
100
AcDbDictionary
  3
DIMASSOC
350
224
  3
HIDETEXT
350
225
1001
ACAD
1000
TREAT_AS_HARD
1070
     0
  0
MATERIAL
  5
3D
102
{ACAD_REACTORS
330
3B
102
}
102
{ACAD_XDICTIONARY
360
228
102
}
330
3B
100
AcDbMaterial
  1
ByBlock
  0
MATERIAL
  5
3C
102
{ACAD_REACTORS
330
3B
102
}
102
{ACAD_XDICTIONARY
360
226
102
}
330
3B
100
AcDbMaterial
  1
ByLayer
  0
MATERIAL
  5
3E
102
{ACAD_REACTORS
330
3B
102
}
102
{ACAD_XDICTIONARY
360
22A
102
}
330
3B
100
AcDbMaterial
  1
Global
  0
MLINESTYLE
  5
18
102
{ACAD_REACTORS
330
17
102
}
330
17
100
AcDbMlineStyle
  2
Standard
 70
     0
  3

 62
   256
 51
90.0
 52
90.0
 71
     2
 49
0.5
 62
   256
  6
BYLAYER
 49
-0.5
 62
   256
  6
BYLAYER
  0
ACAD_PROXY_OBJECT
  5
2F
102
{ACAD_REACTORS
330
2A
102
}
330
2A
100
AcDbZombieObject
 90
      499
 91
      501
 93
      436
310
42CC9915DA5C99599C985B595049028333333333333E3BF0000000000000FB0107901411070040501600405405064090741402480A0340
1001
ACAD
1000
AcDbSavedByObjectVersion
1070
     0
  0
ACAD_PROXY_OBJECT
  5
30
102
{ACAD_REACTORS
330
2A
102
}
330
2A
100
AcDbZombieObject
 90
      499
 91
      501
 93
      436
310
42CCD915DA5C99599C985B595059028333333333333E3BF0000000000000FB0107901411070040501600405405064090741402480A0340
1001
ACAD
1000
AcDbSavedByObjectVersion
1070
     0
  0
ACAD_PROXY_OBJECT
  5
31
102
{ACAD_REACTORS
330
2A
102
}
330
2A
100
AcDbZombieObject
 90
      499
 91
      501
 93
      500
310
424CD108121A5919195B90640502408333333333333E3BF0000000000000FB01079024090700405020000000000001110200405405064090740C02480A0340
1001
ACAD
1000
AcDbSavedByObjectVersion
1070
     0
  0
ACAD_PROXY_OBJECT
  5
32
102
{ACAD_REACTORS
330
2A
102
}
330
2A
100
AcDbZombieObject
 90
      499
 91
      501
 93
      388
310
4150985CDA58D07406404333333333333E3BF0000000000000FB0107A41107004050150841D405064090741402480A0350
1001
ACAD
1000
AcDbSavedByObjectVersion
1070
     0
  0
ACAD_PROXY_OBJECT
  5
36
102
{ACAD_REACTORS
330
2A
102
}
330
2A
100
AcDbZombieObject
 90
      499
 91
      501
 93
      428
310
42109C9A59DA1D195B90C409028333333333333E3BF0000000000000FB010790141107004050150841D405064090741402480A029950
1001
ACAD
1000
AcDbSavedByObjectVersion
1070
     0
  0
ACAD_PROXY_OBJECT
  5
3A
102
{ACAD_REACTORS
330
2A
102
}
330
2A
100
AcDbZombieObject
 90
      499
 91
      501
 93
      452
310
42D0DBDB1BDC90DA185B99D95104090240C333333333333E3BF0000000000000FB0108901411070040501508421405064090741402480A0350
1001
ACAD
1000
AcDbSavedByObjectVersion
1070
     0
  0
ACAD_PROXY_OBJECT
  5
34
102
{ACAD_REACTORS
330
2A
102
}
330
2A
100
AcDbZombieObject
 90
      499
 91
      501
 93
      500
310
4290DBDB98D95C1D1D585B10940D028333333333333E3BF0000000000000FB0107902409070040501000000000000111010841D405064090740C02480A0340
1001
ACAD
1000
AcDbSavedByObjectVersion
1070
     0
  0
ACAD_PROXY_OBJECT
  5
35
102
{ACAD_REACTORS
330
2A
102
}
330
2A
100
AcDbZombieObject
 90
      499
 91
      501
 93
      412
310
40D11A5B50B409028333333333333E3BF0000000000000FB010790141107004050150841D405064090741402480A02677FFFFFD0
1001
ACAD
1000
AcDbSavedByObjectVersion
1070
     0
  0
ACAD_PROXY_OBJECT
  5
39
102
{ACAD_REACTORS
330
2A
102
}
330
2A
100
AcDbZombieObject
 90
      499
 91
      501
 93
      444
310
42D19858D95C185D1D195C9B90F409028333333333333E3BF0000000000000FB010790141107004050150841D405064090741402480A0350
1001
ACAD
1000
AcDbSavedByObjectVersion
1070
     0
  0
ACAD_PROXY_OBJECT
  5
2B
102
{ACAD_REACTORS
330
2A
102
}
330
2A
100
AcDbZombieObject
 90
      499
 91
      501
 93
      388
310
41119B185D240901404333333333333E3BF0000000000000F9010740A41107004050150841D405064090741402480A1B50
1001
ACAD
1000
AcDbSavedByObjectVersion
1070
     0
  0
ACAD_PROXY_OBJECT
  5
2C
102
{ACAD_REACTORS
330
2A
102
}
330
2A
100
AcDbZombieObject
 90
      499
 91
      501
 93
      476
310
43519B185D15DA5D1A115919D95CD0140901404333333333333E3BF0000000000000F9010740901411070040501600405405064090741402480A1B50
1001
ACAD
1000
AcDbSavedByObjectVersion
1070
     0
  0
ACAD_PROXY_OBJECT
  5
2D
102
{ACAD_REACTORS
330
2A
102
}
330
2A
100
AcDbZombieObject
 90
      499
 91
      501
 93
      412
310
41D1DBDD5C985D5910240902404333333333333E3BF0000000000000F9010740A411070040501641D405064090741402480A1B50
1001
ACAD
1000
AcDbSavedByObjectVersion
1070
     0
  0
ACAD_PROXY_OBJECT
  5
2E
102
{ACAD_REACTORS
330
2A
102
}
330
2A
100
AcDbZombieObject
 90
      499
 91
      501
 93
      500
310
4411DBDD5C985D5915DA5D1A115919D95CD0340902404333333333333E3BF0000000000000F9010740901411070040501600405405064090741402480A1B50
1001
ACAD
1000
AcDbSavedByObjectVersion
1070
     0
  0
ACAD_PROXY_OBJECT
  5
38
102
{ACAD_REACTORS
330
2A
102
}
330
2A
100
AcDbZombieObject
 90
      499
 91
      501
 93
      444
310
42D31A5B995C185D1D195C9B90E409028333333333333E3BF0000000000000FB010790141107004050750841D405064090741402483A0350
1001
ACAD
1000
AcDbSavedByObjectVersion
1070
     0
  0
ACAD_PROXY_OBJECT
  5
33
102
{ACAD_REACTORS
330
2A
102
}
330
2A
100
AcDbZombieObject
 90
      499
 91
      501
 93
      420
310
425499585B1A5CDD1A58D08409028333333333333E3BF0000000000000FB01079019070040501508421405064090741402480A1B40
1001
ACAD
1000
AcDbSavedByObjectVersion
1070
     0
  0
ACAD_PROXY_OBJECT
  5
37
102
{ACAD_REACTORS
330
2A
102
}
330
2A
100
AcDbZombieObject
 90
      499
 91
      501
 93
      412
310
41D51A1A58DAD95B90D409028333333333333E3BF0000000000000FB010790141107004050150C41D405064090741402480A0350
1001
ACAD
1000
AcDbSavedByObjectVersion
1070
     0
  0
DICTIONARYVAR
  5
224
102
{ACAD_REACTORS
330
221
102
}
330
221
100
DictionaryVariables
280
     0
  1
2
  0
DICTIONARYVAR
  5
225
102
{ACAD_REACTORS
330
221
102
}
330
221
100
DictionaryVariables
280
     0
  1
1
  0
DICTIONARY
  5
228
330
3D
100
AcDbDictionary
  3
ACAD_XREC_ROUNDTRIP
360
229
1001
ACAD
1000
TREAT_AS_HARD
1070
     1
  0
DICTIONARY
  5
226
330
3C
100
AcDbDictionary
  3
ACAD_XREC_ROUNDTRIP
360
227
1001
ACAD
1000
TREAT_AS_HARD
1070
     1
  0
DICTIONARY
  5
22A
330
3E
100
AcDbDictionary
  3
ACAD_XREC_ROUNDTRIP
360
22B
1001
ACAD
1000
TREAT_AS_HARD
1070
     1
  0
XRECORD
  5
229
102
{ACAD_REACTORS
330
228
102
}
330
228
100
AcDbXrecord
102
MATERIAL
148
0.0
149
0.0
149
0.0
 93
        0
 94
      127
282
     0
 72
     1
 77
     1
171
     1
175
     1
179
     1
273
     0
  0
XRECORD
  5
227
102
{ACAD_REACTORS
330
226
102
}
330
226
100
AcDbXrecord
102
MATERIAL
148
0.0
149
0.0
149
0.0
 93
        0
 94
      127
282
     0
 72
     1
 77
     1
171
     1
175
     1
179
     1
273
     0
  0
XRECORD
  5
22B
102
{ACAD_REACTORS
330
22A
102
}
330
22A
100
AcDbXrecord
102
MATERIAL
148
0.0
149
0.0
149
0.0
 93
        0
 94
      127
282
     0
 72
     1
 77
     1
171
     1
175
     1
179
     1
273
     0
  0
ENDSEC
  0
EOF
