  0
SECTION
  2
HEADER
  9
$ACADVER
  1
AC1012
  9
$DWGCODEPAGE
  3
undefined
  9
$INSBASE
 10
0.0
 20
0.0
 30
0.0
  9
$EXTMIN
 10
1.000000000000000E+20
 20
1.000000000000000E+20
 30
1.000000000000000E+20
  9
$EXTMAX
 10
-1.000000000000000E+20
 20
-1.000000000000000E+20
 30
-1.000000000000000E+20
  9
$LIMMIN
 10
0.0
 20
0.0
  9
$LIMMAX
 10
12.0
 20
9.0
  9
$ORTHOMODE
 70
     0
  9
$REGENMODE
 70
     1
  9
$FILLMODE
 70
     1
  9
$QTEXTMODE
 70
     0
  9
$MIRRTEXT
 70
     1
  9
$DRAGMODE
 70
     2
  9
$LTSCALE
 40
1.0
  9
$OSMODE
 70
    37
  9
$ATTMODE
 70
     1
  9
$TEXTSIZE
 40
0.2
  9
$TRACEWID
 40
0.05
  9
$TEXTSTYLE
  7
STANDARD
  9
$CLAYER
  8
0
  9
$CELTYPE
  6
BYLAYER
  9
$CECOLOR
 62
   256
  9
$CELTSCALE
 40
1.0
  9
$DELOBJ
 70
     1
  9
$DISPSILH
 70
     0
  9
$DIMSCALE
 40
1.0
  9
$DIMASZ
 40
0.18
  9
$DIMEXO
 40
0.0625
  9
$DIMDLI
 40
0.38
  9
$DIMRND
 40
0.0
  9
$DIMDLE
 40
0.0
  9
$DIMEXE
 40
0.18
  9
$DIMTP
 40
0.0
  9
$DIMTM
 40
0.0
  9
$DIMTXT
 40
0.18
  9
$DIMCEN
 40
0.09
  9
$DIMTSZ
 40
0.0
  9
$DIMTOL
 70
     0
  9
$DIMLIM
 70
     0
  9
$DIMTIH
 70
     1
  9
$DIMTOH
 70
     1
  9
$DIMSE1
 70
     0
  9
$DIMSE2
 70
     0
  9
$DIMTAD
 70
     0
  9
$DIMZIN
 70
     0
  9
$DIMBLK
  1

  9
$DIMASO
 70
     1
  9
$DIMSHO
 70
     1
  9
$DIMPOST
  1

  9
$DIMAPOST
  1

  9
$DIMALT
 70
     0
  9
$DIMALTD
 70
     2
  9
$DIMALTF
 40
25.4
  9
$DIMLFAC
 40
1.0
  9
$DIMTOFL
 70
     0
  9
$DIMTVP
 40
0.0
  9
$DIMTIX
 70
     0
  9
$DIMSOXD
 70
     0
  9
$DIMSAH
 70
     0
  9
$DIMBLK1
  1

  9
$DIMBLK2
  1

  9
$DIMSTYLE
  2
STANDARD
  9
$DIMCLRD
 70
     0
  9
$DIMCLRE
 70
     0
  9
$DIMCLRT
 70
     0
  9
$DIMTFAC
 40
1.0
  9
$DIMGAP
 40
0.09
  9
$DIMJUST
 70
     0
  9
$DIMSD1
 70
     0
  9
$DIMSD2
 70
     0
  9
$DIMTOLJ
 70
     1
  9
$DIMTZIN
 70
     0
  9
$DIMALTZ
 70
     0
  9
$DIMALTTZ
 70
     0
  9
$DIMFIT
 70
     3
  9
$DIMUPT
 70
     0
  9
$DIMUNIT
 70
     2
  9
$DIMDEC
 70
     4
  9
$DIMTDEC
 70
     4
  9
$DIMALTU
 70
     2
  9
$DIMALTTD
 70
     2
  9
$DIMTXSTY
  7
STANDARD
  9
$DIMAUNIT
 70
     0
  9
$LUNITS
 70
     2
  9
$LUPREC
 70
     4
  9
$SKETCHINC
 40
0.1
  9
$FILLETRAD
 40
0.5
  9
$AUNITS
 70
     0
  9
$AUPREC
 70
     0
  9
$MENU
  1
.
  9
$ELEVATION
 40
0.0
  9
$PELEVATION
 40
0.0
  9
$THICKNESS
 40
0.0
  9
$LIMCHECK
 70
     0
  9
$CHAMFERA
 40
0.5
  9
$CHAMFERB
 40
0.5
  9
$CHAMFERC
 40
1.0
  9
$CHAMFERD
 40
0.0
  9
$SKPOLY
 70
     0
  9
$TDCREATE
 40
2457659.924374988
  9
$TDUPDATE
 40
2457659.924374988
  9
$TDINDWG
 40
0.0000000116
  9
$TDUSRTIMER
 40
0.0000000116
  9
$USRTIMER
 70
     1
  9
$ANGBASE
 50
0.0
  9
$ANGDIR
 70
     0
  9
$PDMODE
 70
     0
  9
$PDSIZE
 40
0.0
  9
$PLINEWID
 40
0.0
  9
$COORDS
 70
     1
  9
$SPLFRAME
 70
     0
  9
$SPLINETYPE
 70
     6
  9
$SPLINESEGS
 70
     8
  9
$ATTDIA
 70
     0
  9
$ATTREQ
 70
     1
  9
$HANDLING
 70
     1
  9
$HANDSEED
  5
A0
  9
$SURFTAB1
 70
     6
  9
$SURFTAB2
 70
     6
  9
$SURFTYPE
 70
     6
  9
$SURFU
 70
     6
  9
$SURFV
 70
     6
  9
$UCSNAME
  2

  9
$UCSORG
 10
0.0
 20
0.0
 30
0.0
  9
$UCSXDIR
 10
1.0
 20
0.0
 30
0.0
  9
$UCSYDIR
 10
0.0
 20
1.0
 30
0.0
  9
$PUCSNAME
  2

  9
$PUCSORG
 10
0.0
 20
0.0
 30
0.0
  9
$PUCSXDIR
 10
1.0
 20
0.0
 30
0.0
  9
$PUCSYDIR
 10
0.0
 20
1.0
 30
0.0
  9
$USERI1
 70
     0
  9
$USERI2
 70
     0
  9
$USERI3
 70
     0
  9
$USERI4
 70
     0
  9
$USERI5
 70
     0
  9
$USERR1
 40
0.0
  9
$USERR2
 40
0.0
  9
$USERR3
 40
0.0
  9
$USERR4
 40
0.0
  9
$USERR5
 40
0.0
  9
$WORLDVIEW
 70
     1
  9
$SHADEDGE
 70
     3
  9
$SHADEDIF
 70
    70
  9
$TILEMODE
 70
     1
  9
$MAXACTVP
 70
    64
  9
$PINSBASE
 10
0.0
 20
0.0
 30
0.0
  9
$PLIMCHECK
 70
     0
  9
$PEXTMIN
 10
1.000000000000000E+20
 20
1.000000000000000E+20
 30
1.000000000000000E+20
  9
$PEXTMAX
 10
-1.000000000000000E+20
 20
-1.000000000000000E+20
 30
-1.000000000000000E+20
  9
$PLIMMIN
 10
0.0
 20
0.0
  9
$PLIMMAX
 10
12.0
 20
9.0
  9
$UNITMODE
 70
     0
  9
$VISRETAIN
 70
     1
  9
$PLINEGEN
 70
     0
  9
$PSLTSCALE
 70
     1
  9
$TREEDEPTH
 70
  3020
  9
$PICKSTYLE
 70
     1
  9
$CMLSTYLE
  2
STANDARD
  9
$CMLJUST
 70
     0
  9
$CMLSCALE
 40
1.0
  9
$SAVEIMAGES
 70
     1
  0
ENDSEC
  0
SECTION
  2
CLASSES
  0
CLASS
  1
ACDBDICTIONARYWDFLT
  2
AcDbDictionaryWithDefault
  3
ObjectDBX Classes
 90
    32768
280
     0
281
     0
  0
CLASS
  1
VISUALSTYLE
  2
AcDbVisualStyle
  3
ObjectDBX Classes
 90
     4095
280
     0
281
     0
  0
CLASS
  1
MATERIAL
  2
AcDbMaterial
  3
ObjectDBX Classes
 90
     1153
280
     0
281
     0
  0
CLASS
  1
SUN
  2
AcDbSun
  3
SCENEOE
 90
     1024
280
     0
281
     0
  0
CLASS
  1
DICTIONARYVAR
  2
AcDbDictionaryVar
  3
ObjectDBX Classes
 90
        0
280
     0
281
     0
  0
CLASS
  1
XRECORD
  2
AcDbXrecord
  3
AutoCAD 2000
 90
    32768
280
     0
281
     0
  0
CLASS
  1
LWPOLYLINE
  2
AcDbPolyline
  3
AutoCAD 2000
 90
    32768
280
     0
281
     1
  0
CLASS
  1
HATCH
  2
AcDbHatch
  3
AutoCAD 2000
 90
    32768
280
     0
281
     1
  0
CLASS
  1
ACDBPLACEHOLDER
  2
AcDbPlaceHolder
  3
ObjectDBX Classes
 90
        0
280
     0
281
     0
  0
CLASS
  1
LAYOUT
  2
AcDbLayout
  3
ObjectDBX Classes
 90
        0
280
     0
281
     0
  0
ENDSEC
  0
SECTION
  2
TABLES
  0
TABLE
  2
VPORT
  5
8
330
0
100
AcDbSymbolTable
 70
     1
  0
VPORT
  5
29
330
8
100
AcDbSymbolTableRecord
100
AcDbViewportTableRecord
  2
*ACTIVE
 70
     0
 10
0.0
 20
0.0
 11
1.0
 21
1.0
 12
0.0
 22
0.0
 13
0.0
 23
0.0
 14
0.5
 24
0.5
 15
0.5
 25
0.5
 16
0.0
 26
0.0
 36
1.0
 17
11.99973610811129
 27
-10.99961110836131
 37
0.0
 40
21.99922221672262
 41
1.090923669018602
 42
50.0
 43
0.0
 44
0.0
 50
0.0
 51
0.0
 71
     0
 72
   100
 73
     1
 74
     3
 75
     0
 76
     0
 77
     0
 78
     0
  0
ENDTAB
  0
TABLE
  2
LTYPE
  5
5
330
0
100
AcDbSymbolTable
 70
    10
  0
LTYPE
  5
14
330
5
100
AcDbSymbolTableRecord
100
AcDbLinetypeTableRecord
  2
BYBLOCK
 70
     0
  3

 72
    65
 73
     0
 40
0.0
  0
LTYPE
  5
15
330
5
100
AcDbSymbolTableRecord
100
AcDbLinetypeTableRecord
  2
BYLAYER
 70
     0
  3

 72
    65
 73
     0
 40
0.0
  0
LTYPE
  5
16
330
5
100
AcDbSymbolTableRecord
100
AcDbLinetypeTableRecord
  2
CONTINUOUS
 70
     0
  3
Solid line
 72
    65
 73
     0
 40
0.0
  0
LTYPE
  5
4B
330
5
100
AcDbSymbolTableRecord
100
AcDbLinetypeTableRecord
  2
AI-LINETYPE-1
 70
     0
  3
Adobe Illustrator Linetype No. 1
 72
    65
 73
     2
 40
0.3527777776895833
 49
0.1763888888447917
 74
     0
 49
-0.1763888888447917
 74
     0
  0
LTYPE
  5
53
330
5
100
AcDbSymbolTableRecord
100
AcDbLinetypeTableRecord
  2
AI-LINETYPE-2
 70
     0
  3
Adobe Illustrator Linetype No. 2
 72
    65
 73
     2
 40
0.3527777776895833
 49
0.1763888888447917
 74
     0
 49
-0.1763888888447917
 74
     0
  0
LTYPE
  5
5B
330
5
100
AcDbSymbolTableRecord
100
AcDbLinetypeTableRecord
  2
AI-LINETYPE-3
 70
     0
  3
Adobe Illustrator Linetype No. 3
 72
    65
 73
     2
 40
0.3527777776895833
 49
0.1763888888447917
 74
     0
 49
-0.1763888888447917
 74
     0
  0
LTYPE
  5
63
330
5
100
AcDbSymbolTableRecord
100
AcDbLinetypeTableRecord
  2
AI-LINETYPE-4
 70
     0
  3
Adobe Illustrator Linetype No. 4
 72
    65
 73
     2
 40
0.3527777776895833
 49
0.1763888888447917
 74
     0
 49
-0.1763888888447917
 74
     0
  0
LTYPE
  5
6B
330
5
100
AcDbSymbolTableRecord
100
AcDbLinetypeTableRecord
  2
AI-LINETYPE-5
 70
     0
  3
Adobe Illustrator Linetype No. 5
 72
    65
 73
     2
 40
0.3527777776895833
 49
0.1763888888447917
 74
     0
 49
-0.1763888888447917
 74
     0
  0
LTYPE
  5
73
330
5
100
AcDbSymbolTableRecord
100
AcDbLinetypeTableRecord
  2
AI-LINETYPE-6
 70
     0
  3
Adobe Illustrator Linetype No. 6
 72
    65
 73
     2
 40
0.3527777776895833
 49
0.1763888888447917
 74
     0
 49
-0.1763888888447917
 74
     0
  0
LTYPE
  5
7B
330
5
100
AcDbSymbolTableRecord
100
AcDbLinetypeTableRecord
  2
AI-LINETYPE-7
 70
     0
  3
Adobe Illustrator Linetype No. 7
 72
    65
 73
     2
 40
0.3527777776895833
 49
0.1763888888447917
 74
     0
 49
-0.1763888888447917
 74
     0
  0
LTYPE
  5
83
330
5
100
AcDbSymbolTableRecord
100
AcDbLinetypeTableRecord
  2
AI-LINETYPE-8
 70
     0
  3
Adobe Illustrator Linetype No. 8
 72
    65
 73
     2
 40
0.3527777776895833
 49
0.1763888888447917
 74
     0
 49
-0.1763888888447917
 74
     0
  0
LTYPE
  5
8B
330
5
100
AcDbSymbolTableRecord
100
AcDbLinetypeTableRecord
  2
AI-LINETYPE-9
 70
     0
  3
Adobe Illustrator Linetype No. 9
 72
    65
 73
     2
 40
0.3527777776895833
 49
0.1763888888447917
 74
     0
 49
-0.1763888888447917
 74
     0
  0
ENDTAB
  0
TABLE
  2
LAYER
  5
2
330
0
100
AcDbSymbolTable
 70
     2
  0
LAYER
  5
10
330
2
100
AcDbSymbolTableRecord
100
AcDbLayerTableRecord
  2
0
 70
     0
 62
     7
  6
CONTINUOUS
  0
LAYER
  5
40
330
2
100
AcDbSymbolTableRecord
100
AcDbLayerTableRecord
  2
LAYER_1
 70
     0
 62
     7
  6
CONTINUOUS
  0
ENDTAB
  0
TABLE
  2
STYLE
  5
3
330
0
100
AcDbSymbolTable
 70
     1
  0
STYLE
  5
11
330
3
100
AcDbSymbolTableRecord
100
AcDbTextStyleTableRecord
  2
STANDARD
 70
     0
 40
0.0
 41
1.0
 50
0.0
 71
     0
 42
0.2
  3
txt
  4

  0
ENDTAB
  0
TABLE
  2
VIEW
  5
6
330
0
100
AcDbSymbolTable
 70
     0
  0
ENDTAB
  0
TABLE
  2
UCS
  5
7
330
0
100
AcDbSymbolTable
 70
     0
  0
ENDTAB
  0
TABLE
  2
APPID
  5
9
330
0
100
AcDbSymbolTable
 70
     1
  0
APPID
  5
12
330
9
100
AcDbSymbolTableRecord
100
AcDbRegAppTableRecord
  2
ACAD
 70
     0
  0
ENDTAB
  0
TABLE
  2
DIMSTYLE
  5
A
330
0
100
AcDbSymbolTable
 70
     1
  0
DIMSTYLE
105
27
330
A
100
AcDbSymbolTableRecord
100
AcDbDimStyleTableRecord
  2
STANDARD
 70
     0
  3

  4

  5

  6

  7

 40
1.0
 41
0.18
 42
0.0625
 43
0.38
 44
0.18
 45
0.0
 46
0.0
 47
0.0
 48
0.0
140
0.18
141
0.09
142
0.0
143
25.4
144
1.0
145
0.0
146
1.0
147
0.09
 71
     0
 72
     0
 73
     1
 74
     1
 75
     0
 76
     0
 77
     0
 78
     0
170
     0
171
     2
172
     0
173
     0
174
     0
175
     0
176
     0
177
     0
178
     0
270
     2
271
     4
272
     4
273
     2
274
     2
340
11
275
     0
280
     0
281
     0
282
     0
283
     1
284
     0
285
     0
286
     0
287
     3
288
     0
  0
ENDTAB
  0
TABLE
  2
BLOCK_RECORD
  5
1
330
0
100
AcDbSymbolTable
 70
     2
  0
BLOCK_RECORD
  5
1F
330
1
100
AcDbSymbolTableRecord
100
AcDbBlockTableRecord
  2
*MODEL_SPACE
  0
BLOCK_RECORD
  5
1B
330
1
100
AcDbSymbolTableRecord
100
AcDbBlockTableRecord
  2
*PAPER_SPACE
  0
BLOCK_RECORD
  5
41
330
1
100
AcDbSymbolTableRecord
100
AcDbBlockTableRecord
  2
BLOCK_2
  0
ENDTAB
  0
ENDSEC
  0
SECTION
  2
BLOCKS
  0
BLOCK
  5
20
330
1F
100
AcDbEntity
  8
0
100
AcDbBlockBegin
  2
*MODEL_SPACE
 70
     0
 10
0.0
 20
0.0
 30
0.0
  3
*MODEL_SPACE
  1

  0
ENDBLK
  5
21
330
1F
100
AcDbEntity
  8
0
100
AcDbBlockEnd
  0
BLOCK
  5
1C
330
1B
100
AcDbEntity
 67
     1
  8
0
100
AcDbBlockBegin
  2
*PAPER_SPACE
 70
     0
 10
0.0
 20
0.0
 30
0.0
  3
*PAPER_SPACE
  1

  0
ENDBLK
  5
1D
330
1B
100
AcDbEntity
 67
     1
  8
0
100
AcDbBlockEnd
  0
BLOCK
  5
43
330
41
100
AcDbEntity
  8
0
100
AcDbBlockBegin
  2
BLOCK_2
 70
     0
 10
0.0
 20
0.0
 30
0.0
  3
BLOCK_2
  1

  0
POLYLINE
  5
45
330
41
100
AcDbEntity
  8
LAYER_1
  6
AI-LINETYPE-1
 62
     1
100
AcDb2dPolyline
 66
     1
 10
0.0
 20
0.0
 30
0.0
  0
VERTEX
  5
46
330
45
100
AcDbEntity
  8
LAYER_1
  6
AI-LINETYPE-1
 62
     1
100
AcDbVertex
100
AcDb2dVertex
 10
13.00225290326757
 20
-9.303970327001844
 30
0.0
  0
VERTEX
  5
47
330
45
100
AcDbEntity
  8
LAYER_1
  6
AI-LINETYPE-1
 62
     1
100
AcDbVertex
100
AcDb2dVertex
 10
13.00225290367184
 20
-12.70397032584819
 30
0.0
  0
VERTEX
  5
48
330
45
100
AcDbEntity
  8
LAYER_1
  6
AI-LINETYPE-1
 62
     1
100
AcDbVertex
100
AcDb2dVertex
 10
11.002252904574
 20
-12.70397032615171
 30
0.0
  0
VERTEX
  5
49
330
45
100
AcDbEntity
  8
LAYER_1
  6
AI-LINETYPE-1
 62
     1
100
AcDbVertex
100
AcDb2dVertex
 10
11.00225290417101
 20
-9.303970327304725
 30
0.0
  0
VERTEX
  5
4A
330
45
100
AcDbEntity
  8
LAYER_1
  6
AI-LINETYPE-1
 62
     1
100
AcDbVertex
100
AcDb2dVertex
 10
13.00225290326757
 20
-9.303970327001844
 30
0.0
  0
SEQEND
  5
4C
330
45
100
AcDbEntity
  8
LAYER_1
  6
AI-LINETYPE-1
 62
     1
  0
POLYLINE
  5
4D
330
41
100
AcDbEntity
  8
LAYER_1
  6
AI-LINETYPE-2
 62
     1
100
AcDb2dPolyline
 66
     1
 10
0.0
 20
0.0
 30
0.0
  0
VERTEX
  5
4E
330
4D
100
AcDbEntity
  8
LAYER_1
  6
AI-LINETYPE-2
 62
     1
100
AcDbVertex
100
AcDb2dVertex
 10
10.30959266012772
 20
-14.45506335098628
 30
0.0
  0
VERTEX
  5
4F
330
4D
100
AcDbEntity
  8
LAYER_1
  6
AI-LINETYPE-2
 62
     1
100
AcDbVertex
100
AcDb2dVertex
 10
13.70959265897471
 20
-14.45506335073538
 30
0.0
  0
VERTEX
  5
50
330
4D
100
AcDbEntity
  8
LAYER_1
  6
AI-LINETYPE-2
 62
     1
100
AcDbVertex
100
AcDb2dVertex
 10
13.70959265918903
 20
-16.45506334983193
 30
0.0
  0
VERTEX
  5
51
330
4D
100
AcDbEntity
  8
LAYER_1
  6
AI-LINETYPE-2
 62
     1
100
AcDbVertex
100
AcDb2dVertex
 10
10.30959266034205
 20
-16.45506335008284
 30
0.0
  0
VERTEX
  5
52
330
4D
100
AcDbEntity
  8
LAYER_1
  6
AI-LINETYPE-2
 62
     1
100
AcDbVertex
100
AcDb2dVertex
 10
10.30959266012772
 20
-14.45506335098628
 30
0.0
  0
SEQEND
  5
54
330
4D
100
AcDbEntity
  8
LAYER_1
  6
AI-LINETYPE-2
 62
     1
  0
POLYLINE
  5
55
330
41
100
AcDbEntity
  8
LAYER_1
  6
AI-LINETYPE-3
 62
     1
100
AcDb2dPolyline
 66
     1
 10
0.0
 20
0.0
 30
0.0
  0
VERTEX
  5
56
330
55
100
AcDbEntity
  8
LAYER_1
  6
AI-LINETYPE-3
 62
     1
100
AcDbVertex
100
AcDb2dVertex
 10
13.68023363574904
 20
-7.578302966559187
 30
0.0
  0
VERTEX
  5
57
330
55
100
AcDbEntity
  8
LAYER_1
  6
AI-LINETYPE-3
 62
     1
100
AcDbVertex
100
AcDb2dVertex
 10
10.28023363690269
 20
-7.578302966504642
 30
0.0
  0
VERTEX
  5
58
330
55
100
AcDbEntity
  8
LAYER_1
  6
AI-LINETYPE-3
 62
     1
100
AcDbVertex
100
AcDb2dVertex
 10
10.2802336368674
 20
-5.578302967408084
 30
0.0
  0
VERTEX
  5
59
330
55
100
AcDbEntity
  8
LAYER_1
  6
AI-LINETYPE-3
 62
     1
100
AcDbVertex
100
AcDb2dVertex
 10
13.68023363571439
 20
-5.578302967462628
 30
0.0
  0
VERTEX
  5
5A
330
55
100
AcDbEntity
  8
LAYER_1
  6
AI-LINETYPE-3
 62
     1
100
AcDbVertex
100
AcDb2dVertex
 10
13.68023363574904
 20
-7.578302966559187
 30
0.0
  0
SEQEND
  5
5C
330
55
100
AcDbEntity
  8
LAYER_1
  6
AI-LINETYPE-3
 62
     1
  0
POLYLINE
  5
5D
330
41
100
AcDbEntity
  8
LAYER_1
  6
AI-LINETYPE-4
 62
     1
100
AcDb2dPolyline
 66
     1
 10
0.0
 20
0.0
 30
0.0
  0
VERTEX
  5
5E
330
5D
100
AcDbEntity
  8
LAYER_1
  6
AI-LINETYPE-4
 62
     1
100
AcDbVertex
100
AcDb2dVertex
 10
13.69491314740455
 20
-20.33092881080783
 30
0.0
  0
VERTEX
  5
5F
330
5D
100
AcDbEntity
  8
LAYER_1
  6
AI-LINETYPE-4
 62
     1
100
AcDbVertex
100
AcDb2dVertex
 10
10.29491314855756
 20
-20.33092881136418
 30
0.0
  0
VERTEX
  5
60
330
5D
100
AcDbEntity
  8
LAYER_1
  6
AI-LINETYPE-4
 62
     1
100
AcDbVertex
100
AcDb2dVertex
 10
10.29491314816484
 20
-18.33092881226698
 30
0.0
  0
VERTEX
  5
61
330
5D
100
AcDbEntity
  8
LAYER_1
  6
AI-LINETYPE-4
 62
     1
100
AcDbVertex
100
AcDb2dVertex
 10
13.69491314701054
 20
-18.33092881171127
 30
0.0
  0
VERTEX
  5
62
330
5D
100
AcDbEntity
  8
LAYER_1
  6
AI-LINETYPE-4
 62
     1
100
AcDbVertex
100
AcDb2dVertex
 10
13.69491314740455
 20
-20.33092881080783
 30
0.0
  0
SEQEND
  5
64
330
5D
100
AcDbEntity
  8
LAYER_1
  6
AI-LINETYPE-4
 62
     1
  0
POLYLINE
  5
65
330
41
100
AcDbEntity
  8
LAYER_1
  6
AI-LINETYPE-5
 62
     1
100
AcDb2dPolyline
 66
     1
 10
0.0
 20
0.0
 30
0.0
  0
VERTEX
  5
66
330
65
100
AcDbEntity
  8
LAYER_1
  6
AI-LINETYPE-5
 62
     1
100
AcDbVertex
100
AcDb2dVertex
 10
10.30959266127508
 20
-1.677011842193006
 30
0.0
  0
VERTEX
  5
67
330
65
100
AcDbEntity
  8
LAYER_1
  6
AI-LINETYPE-5
 62
     1
100
AcDbVertex
100
AcDb2dVertex
 10
13.70959266012207
 20
-1.677011841942101
 30
0.0
  0
VERTEX
  5
68
330
65
100
AcDbEntity
  8
LAYER_1
  6
AI-LINETYPE-5
 62
     1
100
AcDbVertex
100
AcDb2dVertex
 10
13.70959266033639
 20
-3.677011841039301
 30
0.0
  0
VERTEX
  5
69
330
65
100
AcDbEntity
  8
LAYER_1
  6
AI-LINETYPE-5
 62
     1
100
AcDbVertex
100
AcDb2dVertex
 10
10.30959266148941
 20
-3.677011841289564
 30
0.0
  0
VERTEX
  5
6A
330
65
100
AcDbEntity
  8
LAYER_1
  6
AI-LINETYPE-5
 62
     1
100
AcDbVertex
100
AcDb2dVertex
 10
10.30959266127508
 20
-1.677011842193006
 30
0.0
  0
SEQEND
  5
6C
330
65
100
AcDbEntity
  8
LAYER_1
  6
AI-LINETYPE-5
 62
     1
  0
POLYLINE
  5
6D
330
41
100
AcDbEntity
  8
LAYER_1
  6
AI-LINETYPE-6
 62
     1
100
AcDb2dPolyline
 66
     1
 10
0.0
 20
0.0
 30
0.0
  0
VERTEX
  5
6E
330
6D
100
AcDbEntity
  8
LAYER_1
  6
AI-LINETYPE-6
 62
     1
100
AcDbVertex
100
AcDb2dVertex
 10
19.23330576993433
 20
-4.87460431406089
 30
0.0
  0
VERTEX
  5
6F
330
6D
100
AcDbEntity
  8
LAYER_1
  6
AI-LINETYPE-6
 62
     1
100
AcDbVertex
100
AcDb2dVertex
 10
20.93330576966263
 20
-7.819090685753321
 30
0.0
  0
VERTEX
  5
70
330
6D
100
AcDbEntity
  8
LAYER_1
  6
AI-LINETYPE-6
 62
     1
100
AcDbVertex
100
AcDb2dVertex
 10
19.20125496301287
 20
-8.819090685538388
 30
0.0
  0
VERTEX
  5
71
330
6D
100
AcDbEntity
  8
LAYER_1
  6
AI-LINETYPE-6
 62
     1
100
AcDbVertex
100
AcDb2dVertex
 10
17.50125496328457
 20
-5.874604313847239
 30
0.0
  0
VERTEX
  5
72
330
6D
100
AcDbEntity
  8
LAYER_1
  6
AI-LINETYPE-6
 62
     1
100
AcDbVertex
100
AcDb2dVertex
 10
19.23330576993433
 20
-4.87460431406089
 30
0.0
  0
SEQEND
  5
74
330
6D
100
AcDbEntity
  8
LAYER_1
  6
AI-LINETYPE-6
 62
     1
  0
POLYLINE
  5
75
330
41
100
AcDbEntity
  8
LAYER_1
  6
AI-LINETYPE-7
 62
     1
100
AcDb2dPolyline
 66
     1
 10
0.0
 20
0.0
 30
0.0
  0
VERTEX
  5
76
330
75
100
AcDbEntity
  8
LAYER_1
  6
AI-LINETYPE-7
 62
     1
100
AcDbVertex
100
AcDb2dVertex
 10
20.93330577045705
 20
-14.21427562945957
 30
0.0
  0
VERTEX
  5
77
330
75
100
AcDbEntity
  8
LAYER_1
  6
AI-LINETYPE-7
 62
     1
100
AcDbVertex
100
AcDb2dVertex
 10
19.23330577142692
 20
-17.15876200155435
 30
0.0
  0
VERTEX
  5
78
330
75
100
AcDbEntity
  8
LAYER_1
  6
AI-LINETYPE-7
 62
     1
100
AcDbVertex
100
AcDb2dVertex
 10
17.50125496447364
 20
-16.15876200229483
 30
0.0
  0
VERTEX
  5
79
330
75
100
AcDbEntity
  8
LAYER_1
  6
AI-LINETYPE-7
 62
     1
100
AcDbVertex
100
AcDb2dVertex
 10
19.20125496350313
 20
-13.21427563020006
 30
0.0
  0
VERTEX
  5
7A
330
75
100
AcDbEntity
  8
LAYER_1
  6
AI-LINETYPE-7
 62
     1
100
AcDbVertex
100
AcDb2dVertex
 10
20.93330577045705
 20
-14.21427562945957
 30
0.0
  0
SEQEND
  5
7C
330
75
100
AcDbEntity
  8
LAYER_1
  6
AI-LINETYPE-7
 62
     1
  0
POLYLINE
  5
7D
330
41
100
AcDbEntity
  8
LAYER_1
  6
AI-LINETYPE-8
 62
     1
100
AcDb2dPolyline
 66
     1
 10
0.0
 20
0.0
 30
0.0
  0
VERTEX
  5
7E
330
7D
100
AcDbEntity
  8
LAYER_1
  6
AI-LINETYPE-8
 62
     1
100
AcDbVertex
100
AcDb2dVertex
 10
3.078539795176511
 20
-7.806377854225052
 30
0.0
  0
VERTEX
  5
7F
330
7D
100
AcDbEntity
  8
LAYER_1
  6
AI-LINETYPE-8
 62
     1
100
AcDbVertex
100
AcDb2dVertex
 10
4.778539794469739
 20
-4.861891482281718
 30
0.0
  0
VERTEX
  5
80
330
7D
100
AcDbEntity
  8
LAYER_1
  6
AI-LINETYPE-8
 62
     1
100
AcDbVertex
100
AcDb2dVertex
 10
6.510590601333824
 20
-5.861891481697165
 30
0.0
  0
VERTEX
  5
81
330
7D
100
AcDbEntity
  8
LAYER_1
  6
AI-LINETYPE-8
 62
     1
100
AcDbVertex
100
AcDb2dVertex
 10
4.810590602039313
 20
-8.806377853639859
 30
0.0
  0
VERTEX
  5
82
330
7D
100
AcDbEntity
  8
LAYER_1
  6
AI-LINETYPE-8
 62
     1
100
AcDbVertex
100
AcDb2dVertex
 10
3.078539795176511
 20
-7.806377854225052
 30
0.0
  0
SEQEND
  5
84
330
7D
100
AcDbEntity
  8
LAYER_1
  6
AI-LINETYPE-8
 62
     1
  0
POLYLINE
  5
85
330
41
100
AcDbEntity
  8
LAYER_1
  6
AI-LINETYPE-9
 62
     1
100
AcDb2dPolyline
 66
     1
 10
0.0
 20
0.0
 30
0.0
  0
VERTEX
  5
86
330
85
100
AcDbEntity
  8
LAYER_1
  6
AI-LINETYPE-9
 62
     1
100
AcDbVertex
100
AcDb2dVertex
 10
4.756520523720551
 20
-17.13333633922935
 30
0.0
  0
VERTEX
  5
87
330
85
100
AcDbEntity
  8
LAYER_1
  6
AI-LINETYPE-9
 62
     1
100
AcDbVertex
100
AcDb2dVertex
 10
3.056520524255347
 20
-14.18884996738483
 30
0.0
  0
VERTEX
  5
88
330
85
100
AcDbEntity
  8
LAYER_1
  6
AI-LINETYPE-9
 62
     1
100
AcDbVertex
100
AcDb2dVertex
 10
4.788571330996226
 20
-13.18884996775506
 30
0.0
  0
VERTEX
  5
89
330
85
100
AcDbEntity
  8
LAYER_1
  6
AI-LINETYPE-9
 62
     1
100
AcDbVertex
100
AcDb2dVertex
 10
6.488571330460147
 20
-16.13333633959957
 30
0.0
  0
VERTEX
  5
8A
330
85
100
AcDbEntity
  8
LAYER_1
  6
AI-LINETYPE-9
 62
     1
100
AcDbVertex
100
AcDb2dVertex
 10
4.756520523720551
 20
-17.13333633922935
 30
0.0
  0
SEQEND
  5
8C
330
85
100
AcDbEntity
  8
LAYER_1
  6
AI-LINETYPE-9
 62
     1
  0
SPLINE
  5
8D
330
41
100
AcDbEntity
  8
LAYER_1
 62
    93
100
AcDbSpline
210
0.0
220
0.0
230
1.0
 70
    11
 71
     3
 72
    53
 73
    49
 74
     0
 42
0.0000000001
 43
0.0000000001
 12
1.0
 22
0.0
 32
0.0
 13
1.0
 23
0.0
 33
0.0
 40
0.0
 40
0.0
 40
0.0
 40
0.0
 40
1.0
 40
1.0
 40
1.0
 40
2.0
 40
2.0
 40
2.0
 40
3.0
 40
3.0
 40
3.0
 40
4.0
 40
4.0
 40
4.0
 40
5.0
 40
5.0
 40
5.0
 40
6.0
 40
6.0
 40
6.0
 40
7.0
 40
7.0
 40
7.0
 40
8.0
 40
8.0
 40
8.0
 40
9.0
 40
9.0
 40
9.0
 40
10.0
 40
10.0
 40
10.0
 40
11.0
 40
11.0
 40
11.0
 40
12.0
 40
12.0
 40
12.0
 40
13.0
 40
13.0
 40
13.0
 40
14.0
 40
14.0
 40
14.0
 40
15.0
 40
15.0
 40
15.0
 40
16.0
 40
16.0
 40
16.0
 40
16.0
 10
16.29768787409329
 20
-19.75157117646543
 30
0.0
 10
16.29768787409457
 20
-19.8206067701724
 30
0.0
 10
16.28369677252844
 20
-19.88637456701909
 30
0.0
 10
16.25839539557455
 20
-19.94619374082711
 30
0.0
 10
16.23309401861938
 20
-20.00601291463513
 30
0.0
 10
16.19648236627517
 20
-20.05988346540575
 30
0.0
 10
16.15124126471775
 20
-20.10512456696317
 30
0.0
 10
16.10600016316033
 20
-20.15036566852059
 30
0.0
 10
16.05212961239099
 20
-20.18697732086479
 30
0.0
 10
15.99231043858169
 20
-20.21227869781869
 30
0.0
 10
15.93249126477239
 20
-20.23758007477386
 30
0.0
 10
15.86672346792698
 20
-20.25157117634
 30
0.0
 10
15.79768787422001
 20
-20.25157117634
 30
0.0
 10
15.72865228051176
 20
-20.25157117633871
 30
0.0
 10
15.66288448366507
 20
-20.23758007477386
 30
0.0
 10
15.60306530985705
 20
-20.21227869781997
 30
0.0
 10
15.54324613604775
 20
-20.18697732086479
 30
0.0
 10
15.48937558527712
 20
-20.15036566852059
 30
0.0
 10
15.4441344837197
 20
-20.10512456696317
 30
0.0
 10
15.39889338216229
 20
-20.05988346540575
 30
0.0
 10
15.36228172981808
 20
-20.00601291463384
 30
0.0
 10
15.33698035286419
 20
-19.94619374082583
 30
0.0
 10
15.31167897590902
 20
-19.88637456701781
 30
0.0
 10
15.29768787434416
 20
-19.8206067701724
 30
0.0
 10
15.29768787434416
 20
-19.75157117646543
 30
0.0
 10
15.29768787434416
 20
-19.68253558275589
 30
0.0
 10
15.31167897590902
 20
-19.61676778591049
 30
0.0
 10
15.33698035286419
 20
-19.55694861210247
 30
0.0
 10
15.36228172981936
 20
-19.49712943829445
 30
0.0
 10
15.39889338216229
 20
-19.44325888752254
 30
0.0
 10
15.4441344837197
 20
-19.39801778596512
 30
0.0
 10
15.4893755852784
 20
-19.35277668440771
 30
0.0
 10
15.54324613604775
 20
-19.3161650320635
 30
0.0
 10
15.60306530985705
 20
-19.29086365510833
 30
0.0
 10
15.66288448366507
 20
-19.26556227815444
 30
0.0
 10
15.72865228051176
 20
-19.2515711765883
 30
0.0
 10
15.79768787422001
 20
-19.2515711765883
 30
0.0
 10
15.86672346792698
 20
-19.25157117658958
 30
0.0
 10
15.93249126477239
 20
-19.26556227815444
 30
0.0
 10
15.99231043858169
 20
-19.29086365510833
 30
0.0
 10
16.05212961239099
 20
-19.3161650320635
 30
0.0
 10
16.10600016316033
 20
-19.35277668440771
 30
0.0
 10
16.15124126471903
 20
-19.39801778596512
 30
0.0
 10
16.19648236627517
 20
-19.44325888752254
 30
0.0
 10
16.23309401861938
 20
-19.49712943829317
 30
0.0
 10
16.25839539557326
 20
-19.55694861210247
 30
0.0
 10
16.28369677252844
 20
-19.61676778591049
 30
0.0
 10
16.29768787409329
 20
-19.68253558275846
 30
0.0
 10
16.29768787409329
 20
-19.75157117646543
 30
0.0
  0
SPLINE
  5
8E
330
41
100
AcDbEntity
  8
LAYER_1
 62
    93
100
AcDbSpline
210
0.0
220
0.0
230
1.0
 70
    11
 71
     3
 72
    53
 73
    49
 74
     0
 42
0.0000000001
 43
0.0000000001
 12
1.0
 22
0.0
 32
0.0
 13
1.0
 23
0.0
 33
0.0
 40
0.0
 40
0.0
 40
0.0
 40
0.0
 40
1.0
 40
1.0
 40
1.0
 40
2.0
 40
2.0
 40
2.0
 40
3.0
 40
3.0
 40
3.0
 40
4.0
 40
4.0
 40
4.0
 40
5.0
 40
5.0
 40
5.0
 40
6.0
 40
6.0
 40
6.0
 40
7.0
 40
7.0
 40
7.0
 40
8.0
 40
8.0
 40
8.0
 40
9.0
 40
9.0
 40
9.0
 40
10.0
 40
10.0
 40
10.0
 40
11.0
 40
11.0
 40
11.0
 40
12.0
 40
12.0
 40
12.0
 40
13.0
 40
13.0
 40
13.0
 40
14.0
 40
14.0
 40
14.0
 40
15.0
 40
15.0
 40
15.0
 40
16.0
 40
16.0
 40
16.0
 40
16.0
 10
11.23213868973959
 20
-19.75157184933436
 30
0.0
 10
11.23213868973831
 20
-19.82060744304261
 30
0.0
 10
11.21814758817474
 20
-19.88637523988802
 30
0.0
 10
11.19284621121956
 20
-19.94619441369732
 30
0.0
 10
11.16754483426439
 20
-20.00601358750534
 30
0.0
 10
11.13093318192018
 20
-20.05988413827597
 30
0.0
 10
11.08569208036277
 20
-20.10512523983338
 30
0.0
 10
11.04045097880535
 20
-20.15036634139209
 30
0.0
 10
10.986580428036
 20
-20.18697799373629
 30
0.0
 10
10.9267612542267
 20
-20.21227937069018
 30
0.0
 10
10.8669420804174
 20
-20.23758074764407
 30
0.0
 10
10.801174283572
 20
-20.25157184921021
 30
0.0
 10
10.73213868986503
 20
-20.25157184920893
 30
0.0
 10
10.66310309615677
 20
-20.25157184920893
 30
0.0
 10
10.59733529931008
 20
-20.23758074764535
 30
0.0
 10
10.53751612550207
 20
-20.21227937069018
 30
0.0
 10
10.47769695169277
 20
-20.18697799373501
 30
0.0
 10
10.42382640092214
 20
-20.15036634139209
 30
0.0
 10
10.37858529936472
 20
-20.10512523983338
 30
0.0
 10
10.3333441978073
 20
-20.05988413827597
 30
0.0
 10
10.2967325454631
 20
-20.00601358750534
 30
0.0
 10
10.27143116850792
 20
-19.94619441369732
 30
0.0
 10
10.24612979155275
 20
-19.88637523988802
 30
0.0
 10
10.23213868998918
 20
-19.82060744304261
 30
0.0
 10
10.2321386899879
 20
-19.75157184933436
 30
0.0
 10
10.2321386899879
 20
-19.68253625562739
 30
0.0
 10
10.24612979155403
 20
-19.6167684587807
 30
0.0
 10
10.27143116850921
 20
-19.55694928497397
 30
0.0
 10
10.2967325454631
 20
-19.49713011116467
 30
0.0
 10
10.3333441978073
 20
-19.44325956039275
 30
0.0
 10
10.37858529936472
 20
-19.39801845883534
 30
0.0
 10
10.42382640092342
 20
-19.35277735727792
 30
0.0
 10
10.47769695169277
 20
-19.31616570493371
 30
0.0
 10
10.53751612550207
 20
-19.29086432797983
 30
0.0
 10
10.59733529931008
 20
-19.26556295102465
 30
0.0
 10
10.66310309615677
 20
-19.25157184945979
 30
0.0
 10
10.73213868986503
 20
-19.25157184945979
 30
0.0
 10
10.801174283572
 20
-19.25157184945979
 30
0.0
 10
10.8669420804174
 20
-19.26556295102465
 30
0.0
 10
10.9267612542267
 20
-19.29086432797983
 30
0.0
 10
10.98658042803472
 20
-19.31616570493371
 30
0.0
 10
11.04045097880535
 20
-19.35277735727664
 30
0.0
 10
11.08569208036405
 20
-19.39801845883534
 30
0.0
 10
11.13093318192147
 20
-19.44325956039275
 30
0.0
 10
11.16754483426439
 20
-19.49713011116338
 30
0.0
 10
11.19284621121956
 20
-19.55694928497268
 30
0.0
 10
11.21814758817474
 20
-19.6167684587807
 30
0.0
 10
11.23213868973959
 20
-19.68253625562739
 30
0.0
 10
11.23213868973959
 20
-19.75157184933436
 30
0.0
  0
SPLINE
  5
8F
330
41
100
AcDbEntity
  8
LAYER_1
 62
    93
100
AcDbSpline
210
0.0
220
0.0
230
1.0
 70
    11
 71
     3
 72
    53
 73
    49
 74
     0
 42
0.0000000001
 43
0.0000000001
 12
1.0
 22
0.0
 32
0.0
 13
1.0
 23
0.0
 33
0.0
 40
0.0
 40
0.0
 40
0.0
 40
0.0
 40
1.0
 40
1.0
 40
1.0
 40
2.0
 40
2.0
 40
2.0
 40
3.0
 40
3.0
 40
3.0
 40
4.0
 40
4.0
 40
4.0
 40
5.0
 40
5.0
 40
5.0
 40
6.0
 40
6.0
 40
6.0
 40
7.0
 40
7.0
 40
7.0
 40
8.0
 40
8.0
 40
8.0
 40
9.0
 40
9.0
 40
9.0
 40
10.0
 40
10.0
 40
10.0
 40
11.0
 40
11.0
 40
11.0
 40
12.0
 40
12.0
 40
12.0
 40
13.0
 40
13.0
 40
13.0
 40
14.0
 40
14.0
 40
14.0
 40
15.0
 40
15.0
 40
15.0
 40
16.0
 40
16.0
 40
16.0
 40
16.0
 10
13.77213769661975
 20
-19.75157151289925
 30
0.0
 10
13.77213769661975
 20
-19.82060710660751
 30
0.0
 10
13.75814659505617
 20
-19.88637490345291
 30
0.0
 10
13.732845218101
 20
-19.9461940772635
 30
0.0
 10
13.70754384114583
 20
-20.00601325107023
 30
0.0
 10
13.67093218880162
 20
-20.05988380184086
 30
0.0
 10
13.62569108724549
 20
-20.10512490339828
 30
0.0
 10
13.58044998568679
 20
-20.15036600495698
 30
0.0
 10
13.52657943491744
 20
-20.1869776572999
 30
0.0
 10
13.46676026110814
 20
-20.21227903425508
 30
0.0
 10
13.40694108729884
 20
-20.23758041120896
 30
0.0
 10
13.34117329045344
 20
-20.2515715127751
 30
0.0
 10
13.27213769674646
 20
-20.2515715127751
 30
0.0
 10
13.20310210303821
 20
-20.25157151277382
 30
0.0
 10
13.13733430619152
 20
-20.23758041121025
 30
0.0
 10
13.0775151323835
 20
-20.21227903425508
 30
0.0
 10
13.0176959585742
 20
-20.1869776572999
 30
0.0
 10
12.96382540780358
 20
-20.15036600495698
 30
0.0
 10
12.91858430624487
 20
-20.10512490339828
 30
0.0
 10
12.87334320468874
 20
-20.05988380184086
 30
0.0
 10
12.83673155234453
 20
-20.00601325107023
 30
0.0
 10
12.81143017539064
 20
-19.94619407726093
 30
0.0
 10
12.78612879843547
 20
-19.88637490345291
 30
0.0
 10
12.77213769687062
 20
-19.82060710660751
 30
0.0
 10
12.77213769687062
 20
-19.75157151289925
 30
0.0
 10
12.77213769687062
 20
-19.682535919191
 30
0.0
 10
12.78612879843547
 20
-19.61676812234559
 30
0.0
 10
12.81143017539064
 20
-19.55694894853758
 30
0.0
 10
12.83673155234453
 20
-19.49712977472956
 30
0.0
 10
12.87334320468874
 20
-19.44325922395893
 30
0.0
 10
12.91858430624616
 20
-19.39801812240023
 30
0.0
 10
12.96382540780486
 20
-19.35277702084282
 30
0.0
 10
13.0176959585742
 20
-19.31616536849861
 30
0.0
 10
13.0775151323835
 20
-19.29086399154472
 30
0.0
 10
13.13733430619152
 20
-19.26556261458954
 30
0.0
 10
13.20310210303821
 20
-19.25157151302341
 30
0.0
 10
13.27213769674646
 20
-19.25157151302341
 30
0.0
 10
13.34117329045344
 20
-19.25157151302469
 30
0.0
 10
13.40694108729884
 20
-19.26556261458954
 30
0.0
 10
13.46676026110814
 20
-19.29086399154472
 30
0.0
 10
13.52657943491616
 20
-19.31616536849861
 30
0.0
 10
13.58044998568679
 20
-19.35277702084282
 30
0.0
 10
13.6256910872442
 20
-19.39801812240023
 30
0.0
 10
13.67093218880162
 20
-19.44325922395893
 30
0.0
 10
13.70754384114583
 20
-19.49712977472828
 30
0.0
 10
13.73284521809972
 20
-19.55694894853758
 30
0.0
 10
13.75814659505489
 20
-19.61676812234688
 30
0.0
 10
13.77213769661975
 20
-19.68253591919228
 30
0.0
 10
13.77213769661975
 20
-19.75157151289925
 30
0.0
  0
SPLINE
  5
90
330
41
100
AcDbEntity
  8
LAYER_1
 62
    93
100
AcDbSpline
210
0.0
220
0.0
230
1.0
 70
    11
 71
     3
 72
    53
 73
    49
 74
     0
 42
0.0000000001
 43
0.0000000001
 12
1.0
 22
0.0
 32
0.0
 13
1.0
 23
0.0
 33
0.0
 40
0.0
 40
0.0
 40
0.0
 40
0.0
 40
1.0
 40
1.0
 40
1.0
 40
2.0
 40
2.0
 40
2.0
 40
3.0
 40
3.0
 40
3.0
 40
4.0
 40
4.0
 40
4.0
 40
5.0
 40
5.0
 40
5.0
 40
6.0
 40
6.0
 40
6.0
 40
7.0
 40
7.0
 40
7.0
 40
8.0
 40
8.0
 40
8.0
 40
9.0
 40
9.0
 40
9.0
 40
10.0
 40
10.0
 40
10.0
 40
11.0
 40
11.0
 40
11.0
 40
12.0
 40
12.0
 40
12.0
 40
13.0
 40
13.0
 40
13.0
 40
14.0
 40
14.0
 40
14.0
 40
15.0
 40
15.0
 40
15.0
 40
16.0
 40
16.0
 40
16.0
 40
16.0
 10
8.692138421226828
 20
-19.75157184933436
 30
0.0
 10
8.692138421226828
 20
-19.82060744304133
 30
0.0
 10
8.678147319661973
 20
-19.88637523988802
 30
0.0
 10
8.652845942706799
 20
-19.94619441369604
 30
0.0
 10
8.627544565751627
 20
-20.00601358750405
 30
0.0
 10
8.590932913408063
 20
-20.05988413827597
 30
0.0
 10
8.545691811851286
 20
-20.10512523983338
 30
0.0
 10
8.500450710293869
 20
-20.1503663413908
 30
0.0
 10
8.446580159521957
 20
-20.18697799373501
 30
0.0
 10
8.38676098571394
 20
-20.2122793706889
 30
0.0
 10
8.326941811905282
 20
-20.23758074764407
 30
0.0
 10
8.261174015059234
 20
-20.25157184920893
 30
0.0
 10
8.192138421350979
 20
-20.25157184920893
 30
0.0
 10
8.123102827644008
 20
-20.25157184921021
 30
0.0
 10
8.057335030797319
 20
-20.23758074764407
 30
0.0
 10
7.99751585698866
 20
-20.21227937069018
 30
0.0
 10
7.937696683180643
 20
-20.18697799373629
 30
0.0
 10
7.883826132409373
 20
-20.15036634139209
 30
0.0
 10
7.838585030851956
 20
-20.10512523983338
 30
0.0
 10
7.793343929293256
 20
-20.05988413827597
 30
0.0
 10
7.756732276950332
 20
-20.00601358750534
 30
0.0
 10
7.73143089999516
 20
-19.94619441369604
 30
0.0
 10
7.70612952304127
 20
-19.88637523988802
 30
0.0
 10
7.692138421475772
 20
-19.82060744304133
 30
0.0
 10
7.69213842147513
 20
-19.75157184933436
 30
0.0
 10
7.692138421475772
 20
-19.68253625562739
 30
0.0
 10
7.70612952304127
 20
-19.6167684587807
 30
0.0
 10
7.731430899995801
 20
-19.55694928497268
 30
0.0
 10
7.756732276950332
 20
-19.49713011116338
 30
0.0
 10
7.793343929294539
 20
-19.44325956039275
 30
0.0
 10
7.838585030852598
 20
-19.39801845883534
 30
0.0
 10
7.883826132409373
 20
-19.35277735727792
 30
0.0
 10
7.937696683180643
 20
-19.31616570493371
 30
0.0
 10
7.997515856989303
 20
-19.29086432797983
 30
0.0
 10
8.057335030797319
 20
-19.26556295102465
 30
0.0
 10
8.123102827644008
 20
-19.25157184945851
 30
0.0
 10
8.192138421352263
 20
-19.25157184945979
 30
0.0
 10
8.261174015059234
 20
-19.25157184945979
 30
0.0
 10
8.326941811905924
 20
-19.26556295102465
 30
0.0
 10
8.38676098571394
 20
-19.29086432797983
 30
0.0
 10
8.446580159521957
 20
-19.31616570493371
 30
0.0
 10
8.500450710293228
 20
-19.35277735727792
 30
0.0
 10
8.545691811850645
 20
-19.39801845883534
 30
0.0
 10
8.590932913408704
 20
-19.44325956039275
 30
0.0
 10
8.627544565751627
 20
-19.49713011116338
 30
0.0
 10
8.652845942706799
 20
-19.55694928497268
 30
0.0
 10
8.678147319661973
 20
-19.6167684587807
 30
0.0
 10
8.692138421226828
 20
-19.6825362556261
 30
0.0
 10
8.692138421226828
 20
-19.75157184933436
 30
0.0
  0
SPLINE
  5
91
330
41
100
AcDbEntity
  8
LAYER_1
 62
    93
100
AcDbSpline
210
0.0
220
0.0
230
1.0
 70
    11
 71
     3
 72
    53
 73
    49
 74
     0
 42
0.0000000001
 43
0.0000000001
 12
1.0
 22
0.0
 32
0.0
 13
1.0
 23
0.0
 33
0.0
 40
0.0
 40
0.0
 40
0.0
 40
0.0
 40
1.0
 40
1.0
 40
1.0
 40
2.0
 40
2.0
 40
2.0
 40
3.0
 40
3.0
 40
3.0
 40
4.0
 40
4.0
 40
4.0
 40
5.0
 40
5.0
 40
5.0
 40
6.0
 40
6.0
 40
6.0
 40
7.0
 40
7.0
 40
7.0
 40
8.0
 40
8.0
 40
8.0
 40
9.0
 40
9.0
 40
9.0
 40
10.0
 40
10.0
 40
10.0
 40
11.0
 40
11.0
 40
11.0
 40
12.0
 40
12.0
 40
12.0
 40
13.0
 40
13.0
 40
13.0
 40
14.0
 40
14.0
 40
14.0
 40
15.0
 40
15.0
 40
15.0
 40
16.0
 40
16.0
 40
16.0
 40
16.0
 10
7.69213842219608
 20
-2.281795140542294
 30
0.0
 10
7.692138422201213
 20
-2.212759546835322
 30
0.0
 10
7.706129523773128
 20
-2.146991749989917
 30
0.0
 10
7.731430900732151
 20
-2.087172576183825
 30
0.0
 10
7.756732277693099
 20
-2.027353402378375
 30
0.0
 10
7.793343930041797
 20
-1.973482851610955
 30
0.0
 10
7.838585031603065
 20
-1.928241750057388
 30
0.0
 10
7.883826133164974
 20
-1.88300064850382
 30
0.0
 10
7.937696683937528
 20
-1.846388996164748
 30
0.0
 10
7.997515857748753
 20
-1.821087619215992
 30
0.0
 10
8.057335031560621
 20
-1.795786242266594
 30
0.0
 10
8.123102828407308
 20
-1.78179514070623
 30
0.0
 10
8.192138422114281
 20
-1.781795140712647
 30
0.0
 10
8.261174015822535
 20
-1.781795140719706
 30
0.0
 10
8.326941812667942
 20
-1.795786242290337
 30
0.0
 10
8.38676098647339
 20
-1.821087619250002
 30
0.0
 10
8.446580160280766
 20
-1.846388996210308
 30
0.0
 10
8.500450711048186
 20
-1.883000648559648
 30
0.0
 10
8.545691812601111
 20
-1.928241750120916
 30
0.0
 10
8.59093291415468
 20
-1.973482851682183
 30
0.0
 10
8.627544566494393
 20
-2.027353402457945
 30
0.0
 10
8.652845943442507
 20
-2.087172576267887
 30
0.0
 10
8.678147320392547
 20
-2.146991750078471
 30
0.0
 10
8.692138421951627
 20
-2.21275954692516
 30
0.0
 10
8.692138421945211
 20
-2.281795140632132
 30
0.0
 10
8.692138421938793
 20
-2.35083073434167
 30
0.0
 10
8.678147320368161
 20
-2.416598531185792
 30
0.0
 10
8.652845943407856
 20
-2.476417704991242
 30
0.0
 10
8.627544566446907
 20
-2.536236878797334
 30
0.0
 10
8.590932914099493
 20
-2.590107429565395
 30
0.0
 10
8.545691812538225
 20
-2.635348531118963
 30
0.0
 10
8.500450710975032
 20
-2.68058963267253
 30
0.0
 10
8.44658016020248
 20
-2.717201285011603
 30
0.0
 10
8.386760986391254
 20
-2.742502661961642
 30
0.0
 10
8.32694181258067
 20
-2.767804038909756
 30
0.0
 10
8.261174015732697
 20
-2.78179514047012
 30
0.0
 10
8.192138422024442
 20
-2.781795140464345
 30
0.0
 10
8.12310282831747
 20
-2.781795140456644
 30
0.0
 10
8.057335031473349
 20
-2.767804038886013
 30
0.0
 10
7.997515857666616
 20
-2.742502661926348
 30
0.0
 10
7.93769668385924
 20
-2.717201284966042
 30
0.0
 10
7.883826133093104
 20
-2.680589632616702
 30
0.0
 10
7.838585031538895
 20
-2.635348531055434
 30
0.0
 10
7.793343929986611
 20
-2.590107429494167
 30
0.0
 10
7.756732277646897
 20
-2.53623687872033
 30
0.0
 10
7.731430900698783
 20
-2.476417704908463
 30
0.0
 10
7.706129523748743
 20
-2.416598531098521
 30
0.0
 10
7.692138422189663
 20
-2.350830734249265
 30
0.0
 10
7.69213842219608
 20
-2.281795140542294
 30
0.0
  0
SPLINE
  5
92
330
41
100
AcDbEntity
  8
LAYER_1
 62
    93
100
AcDbSpline
210
0.0
220
0.0
230
1.0
 70
    11
 71
     3
 72
    53
 73
    49
 74
     0
 42
0.0000000001
 43
0.0000000001
 12
1.0
 22
0.0
 32
0.0
 13
1.0
 23
0.0
 33
0.0
 40
0.0
 40
0.0
 40
0.0
 40
0.0
 40
1.0
 40
1.0
 40
1.0
 40
2.0
 40
2.0
 40
2.0
 40
3.0
 40
3.0
 40
3.0
 40
4.0
 40
4.0
 40
4.0
 40
5.0
 40
5.0
 40
5.0
 40
6.0
 40
6.0
 40
6.0
 40
7.0
 40
7.0
 40
7.0
 40
8.0
 40
8.0
 40
8.0
 40
9.0
 40
9.0
 40
9.0
 40
10.0
 40
10.0
 40
10.0
 40
11.0
 40
11.0
 40
11.0
 40
12.0
 40
12.0
 40
12.0
 40
13.0
 40
13.0
 40
13.0
 40
14.0
 40
14.0
 40
14.0
 40
15.0
 40
15.0
 40
15.0
 40
16.0
 40
16.0
 40
16.0
 40
16.0
 10
12.75768760654978
 20
-2.281794468127688
 30
0.0
 10
12.75768760655684
 20
-2.212758874419433
 30
0.0
 10
12.77167870812747
 20
-2.146991077575311
 30
0.0
 10
12.79698008508649
 20
-2.087171903768577
 30
0.0
 10
12.82228146204744
 20
-2.027352729963127
 30
0.0
 10
12.85889311439614
 20
-1.973482179195708
 30
0.0
 10
12.90413421595805
 20
-1.92824107764214
 30
0.0
 10
12.94937531751996
 20
-1.88299997608729
 30
0.0
 10
13.00324586829187
 20
-1.846388323748217
 30
0.0
 10
13.06306504210374
 20
-1.821086946799461
 30
0.0
 10
13.1228842159156
 20
-1.795785569851347
 30
0.0
 10
13.18865201276229
 20
-1.781794468290983
 30
0.0
 10
13.25768760646926
 20
-1.781794468298041
 30
0.0
 10
13.32672320017752
 20
-1.781794468304458
 30
0.0
 10
13.39249099702293
 20
-1.795785569873806
 30
0.0
 10
13.45231017082837
 20
-1.821086946834754
 30
0.0
 10
13.51212934463511
 20
-1.846388323795061
 30
0.0
 10
13.56599989540317
 20
-1.882999976143118
 30
0.0
 10
13.6112409969561
 20
-1.928241077705668
 30
0.0
 10
13.65648209850902
 20
-1.973482179266936
 30
0.0
 10
13.69309375084874
 20
-2.027352730040773
 30
0.0
 10
13.71839512779813
 20
-2.087171903851357
 30
0.0
 10
13.74369650474817
 20
-2.146991077662582
 30
0.0
 10
13.75768760630661
 20
-2.212758874509271
 30
0.0
 10
13.75768760630148
 20
-2.281794468217526
 30
0.0
 10
13.75768760629506
 20
-2.350830061924497
 30
0.0
 10
13.7436965047225
 20
-2.416597858769903
 30
0.0
 10
13.7183951277622
 20
-2.476417032574711
 30
0.0
 10
13.69309375080318
 20
-2.536236206381445
 30
0.0
 10
13.65648209845383
 20
-2.590106757150148
 30
0.0
 10
13.61124099689257
 20
-2.635347858703715
 30
0.0
 10
13.56599989533002
 20
-2.680588960257282
 30
0.0
 10
13.51212934455682
 20
-2.717200612596355
 30
0.0
 10
13.4523101707456
 20
-2.742501989545111
 30
0.0
 10
13.39249099693565
 20
-2.767803366494509
 30
0.0
 10
13.32672320008768
 20
-2.781794468053589
 30
0.0
 10
13.25768760637943
 20
-2.781794468047172
 30
0.0
 10
13.18865201267245
 20
-2.781794468041397
 30
0.0
 10
13.12288421582833
 20
-2.767803366470766
 30
0.0
 10
13.06306504202096
 20
-2.742501989509817
 30
0.0
 10
13.00324586821487
 20
-2.717200612550795
 30
0.0
 10
12.94937531744809
 20
-2.680588960202738
 30
0.0
 10
12.90413421589324
 20
-2.635347858640187
 30
0.0
 10
12.85889311434095
 20
-2.590106757078919
 30
0.0
 10
12.82228146200188
 20
-2.536236206305083
 30
0.0
 10
12.79698008505184
 20
-2.476417032493215
 30
0.0
 10
12.77167870810309
 20
-2.416597858682632
 30
0.0
 10
12.75768760654336
 20
-2.350830061834659
 30
0.0
 10
12.75768760654978
 20
-2.281794468127688
 30
0.0
  0
SPLINE
  5
93
330
41
100
AcDbEntity
  8
LAYER_1
 62
    93
100
AcDbSpline
210
0.0
220
0.0
230
1.0
 70
    11
 71
     3
 72
    53
 73
    49
 74
     0
 42
0.0000000001
 43
0.0000000001
 12
1.0
 22
0.0
 32
0.0
 13
1.0
 23
0.0
 33
0.0
 40
0.0
 40
0.0
 40
0.0
 40
0.0
 40
1.0
 40
1.0
 40
1.0
 40
2.0
 40
2.0
 40
2.0
 40
3.0
 40
3.0
 40
3.0
 40
4.0
 40
4.0
 40
4.0
 40
5.0
 40
5.0
 40
5.0
 40
6.0
 40
6.0
 40
6.0
 40
7.0
 40
7.0
 40
7.0
 40
8.0
 40
8.0
 40
8.0
 40
9.0
 40
9.0
 40
9.0
 40
10.0
 40
10.0
 40
10.0
 40
11.0
 40
11.0
 40
11.0
 40
12.0
 40
12.0
 40
12.0
 40
13.0
 40
13.0
 40
13.0
 40
14.0
 40
14.0
 40
14.0
 40
15.0
 40
15.0
 40
15.0
 40
16.0
 40
16.0
 40
16.0
 40
16.0
 10
10.21768859966962
 20
-2.281794804334991
 30
0.0
 10
10.21768859967604
 20
-2.212759210626736
 30
0.0
 10
10.23167970124539
 20
-2.146991413782614
 30
0.0
 10
10.2569810782057
 20
-2.087172239974597
 30
0.0
 10
10.28228245516665
 20
-2.027353066169788
 30
0.0
 10
10.31889410751534
 20
-1.973482515402369
 30
0.0
 10
10.36413520907533
 20
-1.928241413849443
 30
0.0
 10
10.40937631063852
 20
-1.883000312294593
 30
0.0
 10
10.46324686141107
 20
-1.846388659956161
 30
0.0
 10
10.5230660352223
 20
-1.821087283006764
 30
0.0
 10
10.58288520903417
 20
-1.795785906058008
 30
0.0
 10
10.64865300588085
 20
-1.781794804497644
 30
0.0
 10
10.71768859958783
 20
-1.781794804504061
 30
0.0
 10
10.78672419329608
 20
-1.781794804511761
 30
0.0
 10
10.85249199014149
 20
-1.795785906081109
 30
0.0
 10
10.91231116394694
 20
-1.821087283041416
 30
0.0
 10
10.97213033775431
 20
-1.846388660002364
 30
0.0
 10
11.02600088852173
 20
-1.883000312349779
 30
0.0
 10
11.07124199007594
 20
-1.92824141391233
 30
0.0
 10
11.11648309162823
 20
-1.973482515474239
 30
0.0
 10
11.15309474396794
 20
-2.027353066248076
 30
0.0
 10
11.17839612091605
 20
-2.087172240059301
 30
0.0
 10
11.20369749786609
 20
-2.146991413869885
 30
0.0
 10
11.21768859942517
 20
-2.212759210716574
 30
0.0
 10
11.21768859941876
 20
-2.281794804424829
 30
0.0
 10
11.21768859941234
 20
-2.350830398133084
 30
0.0
 10
11.20369749784171
 20
-2.416598194977206
 30
0.0
 10
11.1783961208814
 20
-2.476417368782656
 30
0.0
 10
11.15309474392174
 20
-2.536236542588747
 30
0.0
 10
11.11648309157304
 20
-2.590107093356167
 30
0.0
 10
11.07124199001177
 20
-2.635348194910376
 30
0.0
 10
11.02600088844858
 20
-2.680589296463944
 30
0.0
 10
10.97213033767603
 20
-2.717200948803658
 30
0.0
 10
10.9123111638648
 20
-2.742502325751772
 30
0.0
 10
10.85249199005422
 20
-2.767803702701812
 30
0.0
 10
10.78672419320624
 20
-2.781794804262176
 30
0.0
 10
10.71768859949799
 20
-2.781794804255759
 30
0.0
 10
10.64865300579102
 20
-2.781794804248058
 30
0.0
 10
10.58288520894689
 20
-2.767803702677427
 30
0.0
 10
10.52306603514016
 20
-2.74250232571712
 30
0.0
 10
10.46324686133407
 20
-2.717200948757456
 30
0.0
 10
10.40937631056665
 20
-2.680589296408757
 30
0.0
 10
10.36413520901372
 20
-2.63534819484749
 30
0.0
 10
10.31889410746016
 20
-2.590107093284297
 30
0.0
 10
10.28228245512044
 20
-2.536236542511744
 30
0.0
 10
10.25698107817233
 20
-2.476417368700518
 30
0.0
 10
10.23167970122229
 20
-2.416598194888651
 30
0.0
 10
10.21768859966321
 20
-2.350830398041962
 30
0.0
 10
10.21768859966962
 20
-2.281794804334991
 30
0.0
  0
SPLINE
  5
94
330
41
100
AcDbEntity
  8
LAYER_1
 62
    93
100
AcDbSpline
210
0.0
220
0.0
230
1.0
 70
    11
 71
     3
 72
    53
 73
    49
 74
     0
 42
0.0000000001
 43
0.0000000001
 12
1.0
 22
0.0
 32
0.0
 13
1.0
 23
0.0
 33
0.0
 40
0.0
 40
0.0
 40
0.0
 40
0.0
 40
1.0
 40
1.0
 40
1.0
 40
2.0
 40
2.0
 40
2.0
 40
3.0
 40
3.0
 40
3.0
 40
4.0
 40
4.0
 40
4.0
 40
5.0
 40
5.0
 40
5.0
 40
6.0
 40
6.0
 40
6.0
 40
7.0
 40
7.0
 40
7.0
 40
8.0
 40
8.0
 40
8.0
 40
9.0
 40
9.0
 40
9.0
 40
10.0
 40
10.0
 40
10.0
 40
11.0
 40
11.0
 40
11.0
 40
12.0
 40
12.0
 40
12.0
 40
13.0
 40
13.0
 40
13.0
 40
14.0
 40
14.0
 40
14.0
 40
15.0
 40
15.0
 40
15.0
 40
16.0
 40
16.0
 40
16.0
 40
16.0
 10
15.29768787506286
 20
-2.281794468356133
 30
0.0
 10
15.29768787506864
 20
-2.212758874649162
 30
0.0
 10
15.31167897663927
 20
-2.146991077803756
 30
0.0
 10
15.33698035359958
 20
-2.087171903997664
 30
0.0
 10
15.36228173056053
 20
-2.027352730192214
 30
0.0
 10
15.39889338290922
 20
-1.973482179423511
 30
0.0
 10
15.44413448446985
 20
-1.928241077869943
 30
0.0
 10
15.48937558603176
 20
-1.882999976317018
 30
0.0
 10
15.54324613680624
 20
-1.846388323977304
 30
0.0
 10
15.60306531061682
 20
-1.821086947029189
 30
0.0
 10
15.6628844844274
 20
-1.79578557007915
 30
0.0
 10
15.72865228127538
 20
-1.781794468520069
 30
0.0
 10
15.79768787498363
 20
-1.781794468526486
 30
0.0
 10
15.8667234686906
 20
-1.78179446853162
 30
0.0
 10
15.93249126553601
 20
-1.795785570103535
 30
0.0
 10
15.9923104393421
 20
-1.821086947062558
 30
0.0
 10
16.05212961314819
 20
-1.846388324021581
 30
0.0
 10
16.10600016391625
 20
-1.882999976370921
 30
0.0
 10
16.15124126546918
 20
-1.928241077933472
 30
0.0
 10
16.19648236702339
 20
-1.973482179495381
 30
0.0
 10
16.23309401936182
 20
-2.027352730269218
 30
0.0
 10
16.25839539631122
 20
-2.087171904080444
 30
0.0
 10
16.28369677325997
 20
-2.146991077891027
 30
0.0
 10
16.2976878748197
 20
-2.212758874738999
 30
0.0
 10
16.29768787481456
 20
-2.281794468445971
 30
0.0
 10
16.2976878748075
 20
-2.350830062152942
 30
0.0
 10
16.28369677323559
 20
-2.416597858998347
 30
0.0
 10
16.25839539627657
 20
-2.476417032803798
 30
0.0
 10
16.23309401931626
 20
-2.536236206611173
 30
0.0
 10
16.19648236696692
 20
-2.590106757378593
 30
0.0
 10
16.15124126540501
 20
-2.635347858931518
 30
0.0
 10
16.10600016384439
 20
-2.680588960485085
 30
0.0
 10
16.0521296130699
 20
-2.717200612824158
 30
0.0
 10
15.99231043925868
 20
-2.742501989772914
 30
0.0
 10
15.93249126544874
 20
-2.767803366722954
 30
0.0
 10
15.86672346860077
 20
-2.781794468283318
 30
0.0
 10
15.79768787489251
 20
-2.781794468275617
 30
0.0
 10
15.72865228118554
 20
-2.7817944682692
 30
0.0
 10
15.66288448434013
 20
-2.767803366698569
 30
0.0
 10
15.60306531053404
 20
-2.742501989738262
 30
0.0
 10
15.54324613672795
 20
-2.717200612778598
 30
0.0
 10
15.48937558595989
 20
-2.680588960429899
 30
0.0
 10
15.44413448440696
 20
-2.63534785886799
 30
0.0
 10
15.39889338285275
 20
-2.590106757306723
 30
0.0
 10
15.36228173051497
 20
-2.536236206532886
 30
0.0
 10
15.33698035356493
 20
-2.476417032721018
 30
0.0
 10
15.31167897661489
 20
-2.416597858911076
 30
0.0
 10
15.29768787505645
 20
-2.350830062064388
 30
0.0
 10
15.29768787506286
 20
-2.281794468356133
 30
0.0
  0
ENDBLK
  5
44
330
41
100
AcDbEntity
  8
0
100
AcDbBlockEnd
  0
ENDSEC
  0
SECTION
  2
ENTITIES
  0
INSERT
  5
42
330
1F
100
AcDbEntity
  8
LAYER_1
100
AcDbBlockReference
  2
BLOCK_2
 10
0.0
 20
0.0
 30
0.0
  0
ENDSEC
  0
SECTION
  2
OBJECTS
  0
DICTIONARY
  5
C
330
0
100
AcDbDictionary
  3
ACAD_GROUP
350
D
  3
ACAD_LAYOUT
350
1A
  3
ACAD_MATERIAL
350
3B
  3
ACAD_MLEADERSTYLE
350
97
  3
ACAD_MLINESTYLE
350
17
  3
ACAD_PLOTSETTINGS
350
19
  3
ACAD_VISUALSTYLE
350
2A
  3
ACDBVARIABLEDICTIONARY
350
95
1001
ACAD
1000
TREAT_AS_HARD
1070
     0
  0
DICTIONARY
  5
D
102
{ACAD_REACTORS
330
C
102
}
330
C
100
AcDbDictionary
1001
ACAD
1000
TREAT_AS_HARD
1070
     0
  0
DICTIONARY
  5
1A
102
{ACAD_REACTORS
330
C
102
}
330
C
100
AcDbDictionary
1001
ACAD
1000
TREAT_AS_HARD
1070
     0
  0
DICTIONARY
  5
3B
102
{ACAD_REACTORS
330
C
102
}
330
C
100
AcDbDictionary
  3
BYBLOCK
350
3D
  3
BYLAYER
350
3C
  3
GLOBAL
350
3E
1001
ACAD
1000
TREAT_AS_HARD
1070
     0
  0
DICTIONARY
  5
97
102
{ACAD_REACTORS
330
C
102
}
330
C
100
AcDbDictionary
1001
ACAD
1000
TREAT_AS_HARD
1070
     0
  0
DICTIONARY
  5
17
102
{ACAD_REACTORS
330
C
102
}
330
C
100
AcDbDictionary
  3
STANDARD
350
18
1001
ACAD
1000
TREAT_AS_HARD
1070
     0
  0
DICTIONARY
  5
19
102
{ACAD_REACTORS
330
C
102
}
330
C
100
AcDbDictionary
1001
ACAD
1000
TREAT_AS_HARD
1070
     0
  0
DICTIONARY
  5
2A
102
{ACAD_REACTORS
330
C
102
}
330
C
100
AcDbDictionary
  3
2DWIREFRAME
350
2F
  3
3DWIREFRAME
350
30
  3
3D_HIDDEN
350
31
  3
BASIC
350
32
  3
BRIGHTEN
350
36
  3
COLORCHANGE
350
3A
  3
CONCEPTUAL
350
34
  3
DIM
350
35
  3
FACEPATTERN
350
39
  3
FLAT
350
2B
  3
FLATWITHEDGES
350
2C
  3
GOURAUD
350
2D
  3
GOURAUDWITHEDGES
350
2E
  3
LINEPATTERN
350
38
  3
REALISTIC
350
33
  3
THICKEN
350
37
1001
ACAD
1000
TREAT_AS_HARD
1070
     0
  0
DICTIONARY
  5
95
102
{ACAD_REACTORS
330
C
102
}
330
C
100
AcDbDictionary
  3
DIMASSOC
350
98
  3
HIDETEXT
350
99
1001
ACAD
1000
TREAT_AS_HARD
1070
     0
  0
MATERIAL
  5
3D
102
{ACAD_REACTORS
330
3B
102
}
102
{ACAD_XDICTIONARY
360
9C
102
}
330
3B
100
AcDbMaterial
  1
ByBlock
  0
MATERIAL
  5
3C
102
{ACAD_REACTORS
330
3B
102
}
102
{ACAD_XDICTIONARY
360
9A
102
}
330
3B
100
AcDbMaterial
  1
ByLayer
  0
MATERIAL
  5
3E
102
{ACAD_REACTORS
330
3B
102
}
102
{ACAD_XDICTIONARY
360
9E
102
}
330
3B
100
AcDbMaterial
  1
Global
  0
MLINESTYLE
  5
18
102
{ACAD_REACTORS
330
17
102
}
330
17
100
AcDbMlineStyle
  2
Standard
 70
     0
  3

 62
   256
 51
90.0
 52
90.0
 71
     2
 49
0.5
 62
   256
  6
BYLAYER
 49
-0.5
 62
   256
  6
BYLAYER
  0
ACAD_PROXY_OBJECT
  5
2F
102
{ACAD_REACTORS
330
2A
102
}
330
2A
100
AcDbZombieObject
 90
      499
 91
      501
 93
      436
310
42CC9915DA5C99599C985B595049028333333333333E3BF0000000000000FB0107901411070040501600405405064090741402480A0340
1001
ACAD
1000
AcDbSavedByObjectVersion
1070
     0
  0
ACAD_PROXY_OBJECT
  5
30
102
{ACAD_REACTORS
330
2A
102
}
330
2A
100
AcDbZombieObject
 90
      499
 91
      501
 93
      436
310
42CCD915DA5C99599C985B595059028333333333333E3BF0000000000000FB0107901411070040501600405405064090741402480A0340
1001
ACAD
1000
AcDbSavedByObjectVersion
1070
     0
  0
ACAD_PROXY_OBJECT
  5
31
102
{ACAD_REACTORS
330
2A
102
}
330
2A
100
AcDbZombieObject
 90
      499
 91
      501
 93
      500
310
424CD108121A5919195B90640502408333333333333E3BF0000000000000FB01079024090700405020000000000001110200405405064090740C02480A0340
1001
ACAD
1000
AcDbSavedByObjectVersion
1070
     0
  0
ACAD_PROXY_OBJECT
  5
32
102
{ACAD_REACTORS
330
2A
102
}
330
2A
100
AcDbZombieObject
 90
      499
 91
      501
 93
      388
310
4150985CDA58D07406404333333333333E3BF0000000000000FB0107A41107004050150841D405064090741402480A0350
1001
ACAD
1000
AcDbSavedByObjectVersion
1070
     0
  0
ACAD_PROXY_OBJECT
  5
36
102
{ACAD_REACTORS
330
2A
102
}
330
2A
100
AcDbZombieObject
 90
      499
 91
      501
 93
      428
310
42109C9A59DA1D195B90C409028333333333333E3BF0000000000000FB010790141107004050150841D405064090741402480A029950
1001
ACAD
1000
AcDbSavedByObjectVersion
1070
     0
  0
ACAD_PROXY_OBJECT
  5
3A
102
{ACAD_REACTORS
330
2A
102
}
330
2A
100
AcDbZombieObject
 90
      499
 91
      501
 93
      452
310
42D0DBDB1BDC90DA185B99D95104090240C333333333333E3BF0000000000000FB0108901411070040501508421405064090741402480A0350
1001
ACAD
1000
AcDbSavedByObjectVersion
1070
     0
  0
ACAD_PROXY_OBJECT
  5
34
102
{ACAD_REACTORS
330
2A
102
}
330
2A
100
AcDbZombieObject
 90
      499
 91
      501
 93
      500
310
4290DBDB98D95C1D1D585B10940D028333333333333E3BF0000000000000FB0107902409070040501000000000000111010841D405064090740C02480A0340
1001
ACAD
1000
AcDbSavedByObjectVersion
1070
     0
  0
ACAD_PROXY_OBJECT
  5
35
102
{ACAD_REACTORS
330
2A
102
}
330
2A
100
AcDbZombieObject
 90
      499
 91
      501
 93
      412
310
40D11A5B50B409028333333333333E3BF0000000000000FB010790141107004050150841D405064090741402480A02677FFFFFD0
1001
ACAD
1000
AcDbSavedByObjectVersion
1070
     0
  0
ACAD_PROXY_OBJECT
  5
39
102
{ACAD_REACTORS
330
2A
102
}
330
2A
100
AcDbZombieObject
 90
      499
 91
      501
 93
      444
310
42D19858D95C185D1D195C9B90F409028333333333333E3BF0000000000000FB010790141107004050150841D405064090741402480A0350
1001
ACAD
1000
AcDbSavedByObjectVersion
1070
     0
  0
ACAD_PROXY_OBJECT
  5
2B
102
{ACAD_REACTORS
330
2A
102
}
330
2A
100
AcDbZombieObject
 90
      499
 91
      501
 93
      388
310
41119B185D240901404333333333333E3BF0000000000000F9010740A41107004050150841D405064090741402480A1B50
1001
ACAD
1000
AcDbSavedByObjectVersion
1070
     0
  0
ACAD_PROXY_OBJECT
  5
2C
102
{ACAD_REACTORS
330
2A
102
}
330
2A
100
AcDbZombieObject
 90
      499
 91
      501
 93
      476
310
43519B185D15DA5D1A115919D95CD0140901404333333333333E3BF0000000000000F9010740901411070040501600405405064090741402480A1B50
1001
ACAD
1000
AcDbSavedByObjectVersion
1070
     0
  0
ACAD_PROXY_OBJECT
  5
2D
102
{ACAD_REACTORS
330
2A
102
}
330
2A
100
AcDbZombieObject
 90
      499
 91
      501
 93
      412
310
41D1DBDD5C985D5910240902404333333333333E3BF0000000000000F9010740A411070040501641D405064090741402480A1B50
1001
ACAD
1000
AcDbSavedByObjectVersion
1070
     0
  0
ACAD_PROXY_OBJECT
  5
2E
102
{ACAD_REACTORS
330
2A
102
}
330
2A
100
AcDbZombieObject
 90
      499
 91
      501
 93
      500
310
4411DBDD5C985D5915DA5D1A115919D95CD0340902404333333333333E3BF0000000000000F9010740901411070040501600405405064090741402480A1B50
1001
ACAD
1000
AcDbSavedByObjectVersion
1070
     0
  0
ACAD_PROXY_OBJECT
  5
38
102
{ACAD_REACTORS
330
2A
102
}
330
2A
100
AcDbZombieObject
 90
      499
 91
      501
 93
      444
310
42D31A5B995C185D1D195C9B90E409028333333333333E3BF0000000000000FB010790141107004050750841D405064090741402483A0350
1001
ACAD
1000
AcDbSavedByObjectVersion
1070
     0
  0
ACAD_PROXY_OBJECT
  5
33
102
{ACAD_REACTORS
330
2A
102
}
330
2A
100
AcDbZombieObject
 90
      499
 91
      501
 93
      420
310
425499585B1A5CDD1A58D08409028333333333333E3BF0000000000000FB01079019070040501508421405064090741402480A1B40
1001
ACAD
1000
AcDbSavedByObjectVersion
1070
     0
  0
ACAD_PROXY_OBJECT
  5
37
102
{ACAD_REACTORS
330
2A
102
}
330
2A
100
AcDbZombieObject
 90
      499
 91
      501
 93
      412
310
41D51A1A58DAD95B90D409028333333333333E3BF0000000000000FB010790141107004050150C41D405064090741402480A0350
1001
ACAD
1000
AcDbSavedByObjectVersion
1070
     0
  0
DICTIONARYVAR
  5
98
102
{ACAD_REACTORS
330
95
102
}
330
95
100
DictionaryVariables
280
     0
  1
2
  0
DICTIONARYVAR
  5
99
102
{ACAD_REACTORS
330
95
102
}
330
95
100
DictionaryVariables
280
     0
  1
1
  0
DICTIONARY
  5
9C
330
3D
100
AcDbDictionary
  3
ACAD_XREC_ROUNDTRIP
360
9D
1001
ACAD
1000
TREAT_AS_HARD
1070
     1
  0
DICTIONARY
  5
9A
330
3C
100
AcDbDictionary
  3
ACAD_XREC_ROUNDTRIP
360
9B
1001
ACAD
1000
TREAT_AS_HARD
1070
     1
  0
DICTIONARY
  5
9E
330
3E
100
AcDbDictionary
  3
ACAD_XREC_ROUNDTRIP
360
9F
1001
ACAD
1000
TREAT_AS_HARD
1070
     1
  0
XRECORD
  5
9D
102
{ACAD_REACTORS
330
9C
102
}
330
9C
100
AcDbXrecord
102
MATERIAL
148
0.0
149
0.0
149
0.0
 93
        0
 94
      127
282
     0
 72
     1
 77
     1
171
     1
175
     1
179
     1
273
     0
  0
XRECORD
  5
9B
102
{ACAD_REACTORS
330
9A
102
}
330
9A
100
AcDbXrecord
102
MATERIAL
148
0.0
149
0.0
149
0.0
 93
        0
 94
      127
282
     0
 72
     1
 77
     1
171
     1
175
     1
179
     1
273
     0
  0
XRECORD
  5
9F
102
{ACAD_REACTORS
330
9E
102
}
330
9E
100
AcDbXrecord
102
MATERIAL
148
0.0
149
0.0
149
0.0
 93
        0
 94
      127
282
     0
 72
     1
 77
     1
171
     1
175
     1
179
     1
273
     0
  0
ENDSEC
  0
EOF
