  0
SECTION
  2
HEADER
  9
$ACADVER
  1
AC1012
  9
$DWGCODEPAGE
  3
undefined
  9
$INSBASE
 10
0.0
 20
0.0
 30
0.0
  9
$EXTMIN
 10
1.000000000000000E+20
 20
1.000000000000000E+20
 30
1.000000000000000E+20
  9
$EXTMAX
 10
-1.000000000000000E+20
 20
-1.000000000000000E+20
 30
-1.000000000000000E+20
  9
$LIMMIN
 10
0.0
 20
0.0
  9
$LIMMAX
 10
12.0
 20
9.0
  9
$ORTHOMODE
 70
     0
  9
$REGENMODE
 70
     1
  9
$FILLMODE
 70
     1
  9
$QTEXTMODE
 70
     0
  9
$MIRRTEXT
 70
     1
  9
$DRAGMODE
 70
     2
  9
$LTSCALE
 40
1.0
  9
$OSMODE
 70
    37
  9
$ATTMODE
 70
     1
  9
$TEXTSIZE
 40
0.2
  9
$TRACEWID
 40
0.05
  9
$TEXTSTYLE
  7
STANDARD
  9
$CLAYER
  8
0
  9
$CELTYPE
  6
BYLAYER
  9
$CECOLOR
 62
   256
  9
$CELTSCALE
 40
1.0
  9
$DELOBJ
 70
     1
  9
$DISPSILH
 70
     0
  9
$DIMSCALE
 40
1.0
  9
$DIMASZ
 40
0.18
  9
$DIMEXO
 40
0.0625
  9
$DIMDLI
 40
0.38
  9
$DIMRND
 40
0.0
  9
$DIMDLE
 40
0.0
  9
$DIMEXE
 40
0.18
  9
$DIMTP
 40
0.0
  9
$DIMTM
 40
0.0
  9
$DIMTXT
 40
0.18
  9
$DIMCEN
 40
0.09
  9
$DIMTSZ
 40
0.0
  9
$DIMTOL
 70
     0
  9
$DIMLIM
 70
     0
  9
$DIMTIH
 70
     1
  9
$DIMTOH
 70
     1
  9
$DIMSE1
 70
     0
  9
$DIMSE2
 70
     0
  9
$DIMTAD
 70
     0
  9
$DIMZIN
 70
     0
  9
$DIMBLK
  1

  9
$DIMASO
 70
     1
  9
$DIMSHO
 70
     1
  9
$DIMPOST
  1

  9
$DIMAPOST
  1

  9
$DIMALT
 70
     0
  9
$DIMALTD
 70
     2
  9
$DIMALTF
 40
25.4
  9
$DIMLFAC
 40
1.0
  9
$DIMTOFL
 70
     0
  9
$DIMTVP
 40
0.0
  9
$DIMTIX
 70
     0
  9
$DIMSOXD
 70
     0
  9
$DIMSAH
 70
     0
  9
$DIMBLK1
  1

  9
$DIMBLK2
  1

  9
$DIMSTYLE
  2
STANDARD
  9
$DIMCLRD
 70
     0
  9
$DIMCLRE
 70
     0
  9
$DIMCLRT
 70
     0
  9
$DIMTFAC
 40
1.0
  9
$DIMGAP
 40
0.09
  9
$DIMJUST
 70
     0
  9
$DIMSD1
 70
     0
  9
$DIMSD2
 70
     0
  9
$DIMTOLJ
 70
     1
  9
$DIMTZIN
 70
     0
  9
$DIMALTZ
 70
     0
  9
$DIMALTTZ
 70
     0
  9
$DIMFIT
 70
     3
  9
$DIMUPT
 70
     0
  9
$DIMUNIT
 70
     2
  9
$DIMDEC
 70
     4
  9
$DIMTDEC
 70
     4
  9
$DIMALTU
 70
     2
  9
$DIMALTTD
 70
     2
  9
$DIMTXSTY
  7
STANDARD
  9
$DIMAUNIT
 70
     0
  9
$LUNITS
 70
     2
  9
$LUPREC
 70
     4
  9
$SKETCHINC
 40
0.1
  9
$FILLETRAD
 40
0.5
  9
$AUNITS
 70
     0
  9
$AUPREC
 70
     0
  9
$MENU
  1
.
  9
$ELEVATION
 40
0.0
  9
$PELEVATION
 40
0.0
  9
$THICKNESS
 40
0.0
  9
$LIMCHECK
 70
     0
  9
$CHAMFERA
 40
0.5
  9
$CHAMFERB
 40
0.5
  9
$CHAMFERC
 40
1.0
  9
$CHAMFERD
 40
0.0
  9
$SKPOLY
 70
     0
  9
$TDCREATE
 40
2457431.972025451
  9
$TDUPDATE
 40
2457431.972025451
  9
$TDINDWG
 40
0.0000000116
  9
$TDUSRTIMER
 40
0.0000000116
  9
$USRTIMER
 70
     1
  9
$ANGBASE
 50
0.0
  9
$ANGDIR
 70
     0
  9
$PDMODE
 70
     0
  9
$PDSIZE
 40
0.0
  9
$PLINEWID
 40
0.0
  9
$COORDS
 70
     1
  9
$SPLFRAME
 70
     0
  9
$SPLINETYPE
 70
     6
  9
$SPLINESEGS
 70
     8
  9
$ATTDIA
 70
     0
  9
$ATTREQ
 70
     1
  9
$HANDLING
 70
     1
  9
$HANDSEED
  5
74
  9
$SURFTAB1
 70
     6
  9
$SURFTAB2
 70
     6
  9
$SURFTYPE
 70
     6
  9
$SURFU
 70
     6
  9
$SURFV
 70
     6
  9
$UCSNAME
  2

  9
$UCSORG
 10
0.0
 20
0.0
 30
0.0
  9
$UCSXDIR
 10
1.0
 20
0.0
 30
0.0
  9
$UCSYDIR
 10
0.0
 20
1.0
 30
0.0
  9
$PUCSNAME
  2

  9
$PUCSORG
 10
0.0
 20
0.0
 30
0.0
  9
$PUCSXDIR
 10
1.0
 20
0.0
 30
0.0
  9
$PUCSYDIR
 10
0.0
 20
1.0
 30
0.0
  9
$USERI1
 70
     0
  9
$USERI2
 70
     0
  9
$USERI3
 70
     0
  9
$USERI4
 70
     0
  9
$USERI5
 70
     0
  9
$USERR1
 40
0.0
  9
$USERR2
 40
0.0
  9
$USERR3
 40
0.0
  9
$USERR4
 40
0.0
  9
$USERR5
 40
0.0
  9
$WORLDVIEW
 70
     1
  9
$SHADEDGE
 70
     3
  9
$SHADEDIF
 70
    70
  9
$TILEMODE
 70
     1
  9
$MAXACTVP
 70
    64
  9
$PINSBASE
 10
0.0
 20
0.0
 30
0.0
  9
$PLIMCHECK
 70
     0
  9
$PEXTMIN
 10
1.000000000000000E+20
 20
1.000000000000000E+20
 30
1.000000000000000E+20
  9
$PEXTMAX
 10
-1.000000000000000E+20
 20
-1.000000000000000E+20
 30
-1.000000000000000E+20
  9
$PLIMMIN
 10
0.0
 20
0.0
  9
$PLIMMAX
 10
12.0
 20
9.0
  9
$UNITMODE
 70
     0
  9
$VISRETAIN
 70
     1
  9
$PLINEGEN
 70
     0
  9
$PSLTSCALE
 70
     1
  9
$TREEDEPTH
 70
  3020
  9
$PICKSTYLE
 70
     1
  9
$CMLSTYLE
  2
STANDARD
  9
$CMLJUST
 70
     0
  9
$CMLSCALE
 40
1.0
  9
$SAVEIMAGES
 70
     1
  0
ENDSEC
  0
SECTION
  2
CLASSES
  0
CLASS
  1
ACDBDICTIONARYWDFLT
  2
AcDbDictionaryWithDefault
  3
ObjectDBX Classes
 90
    32768
280
     0
281
     0
  0
CLASS
  1
VISUALSTYLE
  2
AcDbVisualStyle
  3
ObjectDBX Classes
 90
     4095
280
     0
281
     0
  0
CLASS
  1
MATERIAL
  2
AcDbMaterial
  3
ObjectDBX Classes
 90
     1153
280
     0
281
     0
  0
CLASS
  1
SUN
  2
AcDbSun
  3
SCENEOE
 90
     1024
280
     0
281
     0
  0
CLASS
  1
DICTIONARYVAR
  2
AcDbDictionaryVar
  3
ObjectDBX Classes
 90
        0
280
     0
281
     0
  0
CLASS
  1
XRECORD
  2
AcDbXrecord
  3
AutoCAD 2000
 90
    32768
280
     0
281
     0
  0
CLASS
  1
LWPOLYLINE
  2
AcDbPolyline
  3
AutoCAD 2000
 90
    32768
280
     0
281
     1
  0
CLASS
  1
HATCH
  2
AcDbHatch
  3
AutoCAD 2000
 90
    32768
280
     0
281
     1
  0
CLASS
  1
ACDBPLACEHOLDER
  2
AcDbPlaceHolder
  3
ObjectDBX Classes
 90
        0
280
     0
281
     0
  0
CLASS
  1
LAYOUT
  2
AcDbLayout
  3
ObjectDBX Classes
 90
        0
280
     0
281
     0
  0
ENDSEC
  0
SECTION
  2
TABLES
  0
TABLE
  2
VPORT
  5
8
330
0
100
AcDbSymbolTable
 70
     1
  0
VPORT
  5
29
330
8
100
AcDbSymbolTableRecord
100
AcDbViewportTableRecord
  2
*ACTIVE
 70
     0
 10
0.0
 20
0.0
 11
1.0
 21
1.0
 12
0.0
 22
0.0
 13
0.0
 23
0.0
 14
0.5
 24
0.5
 15
0.5
 25
0.5
 16
0.0
 26
0.0
 36
1.0
 17
11.99973610811129
 27
-10.99961110836131
 37
0.0
 40
21.99922221672262
 41
1.090923669018602
 42
50.0
 43
0.0
 44
0.0
 50
0.0
 51
0.0
 71
     0
 72
   100
 73
     1
 74
     3
 75
     0
 76
     0
 77
     0
 78
     0
  0
ENDTAB
  0
TABLE
  2
LTYPE
  5
5
330
0
100
AcDbSymbolTable
 70
     1
  0
LTYPE
  5
14
330
5
100
AcDbSymbolTableRecord
100
AcDbLinetypeTableRecord
  2
BYBLOCK
 70
     0
  3

 72
    65
 73
     0
 40
0.0
  0
LTYPE
  5
15
330
5
100
AcDbSymbolTableRecord
100
AcDbLinetypeTableRecord
  2
BYLAYER
 70
     0
  3

 72
    65
 73
     0
 40
0.0
  0
LTYPE
  5
16
330
5
100
AcDbSymbolTableRecord
100
AcDbLinetypeTableRecord
  2
CONTINUOUS
 70
     0
  3
Solid line
 72
    65
 73
     0
 40
0.0
  0
ENDTAB
  0
TABLE
  2
LAYER
  5
2
330
0
100
AcDbSymbolTable
 70
     2
  0
LAYER
  5
10
330
2
100
AcDbSymbolTableRecord
100
AcDbLayerTableRecord
  2
0
 70
     0
 62
     7
  6
CONTINUOUS
  0
LAYER
  5
40
330
2
100
AcDbSymbolTableRecord
100
AcDbLayerTableRecord
  2
LAYER_1
 70
     0
 62
     7
  6
CONTINUOUS
  0
ENDTAB
  0
TABLE
  2
STYLE
  5
3
330
0
100
AcDbSymbolTable
 70
     1
  0
STYLE
  5
11
330
3
100
AcDbSymbolTableRecord
100
AcDbTextStyleTableRecord
  2
STANDARD
 70
     0
 40
0.0
 41
1.0
 50
0.0
 71
     0
 42
0.2
  3
txt
  4

  0
ENDTAB
  0
TABLE
  2
VIEW
  5
6
330
0
100
AcDbSymbolTable
 70
     0
  0
ENDTAB
  0
TABLE
  2
UCS
  5
7
330
0
100
AcDbSymbolTable
 70
     0
  0
ENDTAB
  0
TABLE
  2
APPID
  5
9
330
0
100
AcDbSymbolTable
 70
     1
  0
APPID
  5
12
330
9
100
AcDbSymbolTableRecord
100
AcDbRegAppTableRecord
  2
ACAD
 70
     0
  0
ENDTAB
  0
TABLE
  2
DIMSTYLE
  5
A
330
0
100
AcDbSymbolTable
 70
     1
  0
DIMSTYLE
105
27
330
A
100
AcDbSymbolTableRecord
100
AcDbDimStyleTableRecord
  2
STANDARD
 70
     0
  3

  4

  5

  6

  7

 40
1.0
 41
0.18
 42
0.0625
 43
0.38
 44
0.18
 45
0.0
 46
0.0
 47
0.0
 48
0.0
140
0.18
141
0.09
142
0.0
143
25.4
144
1.0
145
0.0
146
1.0
147
0.09
 71
     0
 72
     0
 73
     1
 74
     1
 75
     0
 76
     0
 77
     0
 78
     0
170
     0
171
     2
172
     0
173
     0
174
     0
175
     0
176
     0
177
     0
178
     0
270
     2
271
     4
272
     4
273
     2
274
     2
340
11
275
     0
280
     0
281
     0
282
     0
283
     1
284
     0
285
     0
286
     0
287
     3
288
     0
  0
ENDTAB
  0
TABLE
  2
BLOCK_RECORD
  5
1
330
0
100
AcDbSymbolTable
 70
     9
  0
BLOCK_RECORD
  5
1F
330
1
100
AcDbSymbolTableRecord
100
AcDbBlockTableRecord
  2
*MODEL_SPACE
  0
BLOCK_RECORD
  5
1B
330
1
100
AcDbSymbolTableRecord
100
AcDbBlockTableRecord
  2
*PAPER_SPACE
  0
BLOCK_RECORD
  5
41
330
1
100
AcDbSymbolTableRecord
100
AcDbBlockTableRecord
  2
BLOCK_2
  0
BLOCK_RECORD
  5
46
330
1
100
AcDbSymbolTableRecord
100
AcDbBlockTableRecord
  2
BLOCK_3
  0
BLOCK_RECORD
  5
4B
330
1
100
AcDbSymbolTableRecord
100
AcDbBlockTableRecord
  2
BLOCK_4
  0
BLOCK_RECORD
  5
50
330
1
100
AcDbSymbolTableRecord
100
AcDbBlockTableRecord
  2
BLOCK_5
  0
BLOCK_RECORD
  5
55
330
1
100
AcDbSymbolTableRecord
100
AcDbBlockTableRecord
  2
BLOCK_6
  0
BLOCK_RECORD
  5
5A
330
1
100
AcDbSymbolTableRecord
100
AcDbBlockTableRecord
  2
BLOCK_7
  0
BLOCK_RECORD
  5
5F
330
1
100
AcDbSymbolTableRecord
100
AcDbBlockTableRecord
  2
BLOCK_8
  0
BLOCK_RECORD
  5
64
330
1
100
AcDbSymbolTableRecord
100
AcDbBlockTableRecord
  2
BLOCK_9
  0
ENDTAB
  0
ENDSEC
  0
SECTION
  2
BLOCKS
  0
BLOCK
  5
20
330
1F
100
AcDbEntity
  8
0
100
AcDbBlockBegin
  2
*MODEL_SPACE
 70
     0
 10
0.0
 20
0.0
 30
0.0
  3
*MODEL_SPACE
  1

  0
ENDBLK
  5
21
330
1F
100
AcDbEntity
  8
0
100
AcDbBlockEnd
  0
BLOCK
  5
1C
330
1B
100
AcDbEntity
 67
     1
  8
0
100
AcDbBlockBegin
  2
*PAPER_SPACE
 70
     0
 10
0.0
 20
0.0
 30
0.0
  3
*PAPER_SPACE
  1

  0
ENDBLK
  5
1D
330
1B
100
AcDbEntity
 67
     1
  8
0
100
AcDbBlockEnd
  0
BLOCK
  5
43
330
41
100
AcDbEntity
  8
0
100
AcDbBlockBegin
  2
BLOCK_2
 70
     0
 10
0.0
 20
0.0
 30
0.0
  3
BLOCK_2
  1

  0
SPLINE
  5
45
330
41
100
AcDbEntity
  8
LAYER_1
 62
    93
100
AcDbSpline
210
0.0
220
0.0
230
1.0
 70
    11
 71
     3
 72
    53
 73
    49
 74
     0
 42
0.0000000001
 43
0.0000000001
 12
1.0
 22
0.0
 32
0.0
 13
1.0
 23
0.0
 33
0.0
 40
0.0
 40
0.0
 40
0.0
 40
0.0
 40
1.0
 40
1.0
 40
1.0
 40
2.0
 40
2.0
 40
2.0
 40
3.0
 40
3.0
 40
3.0
 40
4.0
 40
4.0
 40
4.0
 40
5.0
 40
5.0
 40
5.0
 40
6.0
 40
6.0
 40
6.0
 40
7.0
 40
7.0
 40
7.0
 40
8.0
 40
8.0
 40
8.0
 40
9.0
 40
9.0
 40
9.0
 40
10.0
 40
10.0
 40
10.0
 40
11.0
 40
11.0
 40
11.0
 40
12.0
 40
12.0
 40
12.0
 40
13.0
 40
13.0
 40
13.0
 40
14.0
 40
14.0
 40
14.0
 40
15.0
 40
15.0
 40
15.0
 40
16.0
 40
16.0
 40
16.0
 40
16.0
 10
10.08053354267995
 20
-2.550140356482846
 30
0.0
 10
10.08053354267995
 20
-2.578989862949648
 30
0.0
 10
10.07468675621233
 20
-2.606473779268652
 30
0.0
 10
10.06411348235576
 20
-2.631471806359261
 30
0.0
 10
10.05354020849984
 20
-2.656469833448587
 30
0.0
 10
10.03824044725561
 20
-2.678981971309518
 30
0.0
 10
10.01933449770303
 20
-2.69788792086274
 30
0.0
 10
10.00042854814981
 20
-2.71679387041532
 30
0.0
 10
9.977916410288877
 20
-2.732093631660192
 30
0.0
 10
9.95291838319891
 20
-2.742666905516117
 30
0.0
 10
9.9279203561083
 20
-2.753240179372042
 30
0.0
 10
9.900436439789939
 20
-2.759086965840302
 30
0.0
 10
9.871586933322495
 20
-2.759086965840302
 30
0.0
 10
9.84273742685441
 20
-2.759086965839661
 30
0.0
 10
9.815253510536047
 20
-2.753240179372042
 30
0.0
 10
9.79025548344608
 20
-2.742666905516117
 30
0.0
 10
9.76525745635547
 20
-2.732093631660192
 30
0.0
 10
9.74274531849454
 20
-2.71679387041532
 30
0.0
 10
9.723839368941318
 20
-2.69788792086274
 30
0.0
 10
9.704933419388738
 20
-2.678981971309518
 30
0.0
 10
9.689633658144507
 20
-2.656469833447945
 30
0.0
 10
9.67906038428794
 20
-2.631471806357978
 30
0.0
 10
9.668487110432016
 20
-2.606473779268652
 30
0.0
 10
9.662640323964396
 20
-2.578989862949648
 30
0.0
 10
9.662640323964396
 20
-2.550140356482846
 30
0.0
 10
9.662640323963755
 20
-2.521290850014119
 30
0.0
 10
9.668487110432016
 20
-2.493806933695756
 30
0.0
 10
9.679060384288583
 20
-2.468808906605789
 30
0.0
 10
9.689633658144507
 20
-2.443810879515822
 30
0.0
 10
9.704933419388738
 20
-2.421298741654891
 30
0.0
 10
9.723839368941318
 20
-2.402392792101669
 30
0.0
 10
9.74274531849454
 20
-2.383486842548447
 30
0.0
 10
9.76525745635547
 20
-2.368187081304217
 30
0.0
 10
9.79025548344608
 20
-2.357613807448292
 30
0.0
 10
9.815253510536047
 20
-2.347040533592367
 30
0.0
 10
9.84273742685441
 20
-2.341193747123465
 30
0.0
 10
9.871586933322495
 20
-2.341193747123465
 30
0.0
 10
9.900436439789939
 20
-2.341193747124748
 30
0.0
 10
9.9279203561083
 20
-2.347040533592367
 30
0.0
 10
9.95291838319891
 20
-2.357613807448292
 30
0.0
 10
9.977916410288877
 20
-2.368187081304217
 30
0.0
 10
10.00042854814981
 20
-2.383486842548447
 30
0.0
 10
10.01933449770303
 20
-2.402392792101669
 30
0.0
 10
10.03824044725561
 20
-2.421298741654891
 30
0.0
 10
10.05354020849984
 20
-2.443810879515822
 30
0.0
 10
10.06411348235576
 20
-2.468808906605789
 30
0.0
 10
10.07468675621233
 20
-2.493806933695756
 30
0.0
 10
10.08053354267995
 20
-2.52129085001476
 30
0.0
 10
10.08053354267995
 20
-2.550140356482846
 30
0.0
  0
ENDBLK
  5
44
330
41
100
AcDbEntity
  8
0
100
AcDbBlockEnd
  0
BLOCK
  5
48
330
46
100
AcDbEntity
  8
0
100
AcDbBlockBegin
  2
BLOCK_3
 70
     0
 10
0.0
 20
0.0
 30
0.0
  3
BLOCK_3
  1

  0
SPLINE
  5
4A
330
46
100
AcDbEntity
  8
LAYER_1
 62
    93
100
AcDbSpline
210
0.0
220
0.0
230
1.0
 70
    11
 71
     3
 72
    53
 73
    49
 74
     0
 42
0.0000000001
 43
0.0000000001
 12
1.0
 22
0.0
 32
0.0
 13
1.0
 23
0.0
 33
0.0
 40
0.0
 40
0.0
 40
0.0
 40
0.0
 40
1.0
 40
1.0
 40
1.0
 40
2.0
 40
2.0
 40
2.0
 40
3.0
 40
3.0
 40
3.0
 40
4.0
 40
4.0
 40
4.0
 40
5.0
 40
5.0
 40
5.0
 40
6.0
 40
6.0
 40
6.0
 40
7.0
 40
7.0
 40
7.0
 40
8.0
 40
8.0
 40
8.0
 40
9.0
 40
9.0
 40
9.0
 40
10.0
 40
10.0
 40
10.0
 40
11.0
 40
11.0
 40
11.0
 40
12.0
 40
12.0
 40
12.0
 40
13.0
 40
13.0
 40
13.0
 40
14.0
 40
14.0
 40
14.0
 40
15.0
 40
15.0
 40
15.0
 40
16.0
 40
16.0
 40
16.0
 40
16.0
 10
3.94466957566129
 20
-8.584832483808913
 30
0.0
 10
3.969653981148427
 20
-8.599257237043599
 30
0.0
 10
3.990532357642281
 20
-8.618062660815411
 30
0.0
 10
4.006894647217536
 20
-8.639718398121648
 30
0.0
 10
4.023256936793431
 20
-8.661374135427243
 30
0.0
 10
4.035103139451369
 20
-8.68588018626726
 30
0.0
 10
4.042023197269882
 20
-8.711706193638996
 30
0.0
 10
4.048943255087752
 20
-8.737532201011371
 30
0.0
 10
4.050937168066198
 20
-8.764678164914823
 30
0.0
 10
4.047594878280542
 20
-8.791613728347286
 30
0.0
 10
4.044252588495527
 20
-8.818549291779748
 30
0.0
 10
4.035574095947696
 20
-8.84527445474058
 30
0.0
 10
4.021149342713011
 20
-8.870258860228358
 30
0.0
 10
4.006724589478327
 20
-8.895243265715493
 30
0.0
 10
3.987919165706513
 20
-8.916121642208065
 30
0.0
 10
3.966263428400277
 20
-8.93248393178396
 30
0.0
 10
3.94460769109404
 20
-8.948846221359856
 30
0.0
 10
3.92010164025338
 20
-8.960692424018436
 30
0.0
 10
3.894275632881646
 20
-8.967612481836948
 30
0.0
 10
3.868449625509269
 20
-8.974532539654819
 30
0.0
 10
3.841303661605176
 20
-8.976526452632623
 30
0.0
 10
3.814368098173355
 20
-8.97318416284825
 30
0.0
 10
3.787432534740893
 20
-8.969841873062595
 30
0.0
 10
3.760707371780061
 20
-8.96116338051412
 30
0.0
 10
3.735722966292925
 20
-8.946738627279435
 30
0.0
 10
3.710738560805147
 20
-8.932313874045393
 30
0.0
 10
3.689860184312577
 20
-8.913508450272937
 30
0.0
 10
3.673497894736681
 20
-8.8918527129667
 30
0.0
 10
3.657135605161426
 20
-8.870196975661107
 30
0.0
 10
3.645289402502847
 20
-8.845690924821088
 30
0.0
 10
3.638369344684334
 20
-8.819864917448713
 30
0.0
 10
3.631449286866463
 20
-8.794038910076337
 30
0.0
 10
3.629455373888018
 20
-8.766892946172884
 30
0.0
 10
3.632797663673032
 20
-8.73995738273978
 30
0.0
 10
3.636139953458688
 20
-8.71302181930796
 30
0.0
 10
3.644818446006841
 20
-8.686296656346487
 30
0.0
 10
3.659243199241205
 20
-8.66131225085935
 30
0.0
 10
3.673667952476531
 20
-8.636327845372215
 30
0.0
 10
3.692473376247703
 20
-8.615449468879644
 30
0.0
 10
3.714129113553939
 20
-8.599087179303107
 30
0.0
 10
3.735784850860176
 20
-8.582724889727851
 30
0.0
 10
3.760290901700194
 20
-8.570878687069914
 30
0.0
 10
3.786116909073212
 20
-8.56395862925076
 30
0.0
 10
3.811942916444946
 20
-8.557038571432889
 30
0.0
 10
3.839088880348398
 20
-8.555044658455085
 30
0.0
 10
3.866024443780219
 20
-8.558386948240098
 30
0.0
 10
3.892960007213323
 20
-8.561729238025755
 30
0.0
 10
3.919685170174796
 20
-8.57040773057423
 30
0.0
 10
3.94466957566129
 20
-8.584832483808913
 30
0.0
  0
ENDBLK
  5
49
330
46
100
AcDbEntity
  8
0
100
AcDbBlockEnd
  0
BLOCK
  5
4D
330
4B
100
AcDbEntity
  8
0
100
AcDbBlockBegin
  2
BLOCK_4
 70
     0
 10
0.0
 20
0.0
 30
0.0
  3
BLOCK_4
  1

  0
SPLINE
  5
4F
330
4B
100
AcDbEntity
  8
LAYER_1
 62
    93
100
AcDbSpline
210
0.0
220
0.0
230
1.0
 70
    11
 71
     3
 72
    53
 73
    49
 74
     0
 42
0.0000000001
 43
0.0000000001
 12
1.0
 22
0.0
 32
0.0
 13
1.0
 23
0.0
 33
0.0
 40
0.0
 40
0.0
 40
0.0
 40
0.0
 40
1.0
 40
1.0
 40
1.0
 40
2.0
 40
2.0
 40
2.0
 40
3.0
 40
3.0
 40
3.0
 40
4.0
 40
4.0
 40
4.0
 40
5.0
 40
5.0
 40
5.0
 40
6.0
 40
6.0
 40
6.0
 40
7.0
 40
7.0
 40
7.0
 40
8.0
 40
8.0
 40
8.0
 40
9.0
 40
9.0
 40
9.0
 40
10.0
 40
10.0
 40
10.0
 40
11.0
 40
11.0
 40
11.0
 40
12.0
 40
12.0
 40
12.0
 40
13.0
 40
13.0
 40
13.0
 40
14.0
 40
14.0
 40
14.0
 40
15.0
 40
15.0
 40
15.0
 40
16.0
 40
16.0
 40
16.0
 40
16.0
 10
6.102934278185851
 20
-16.91599261714033
 30
0.0
 10
6.12791868367427
 20
-16.90156786390821
 30
0.0
 10
6.154643846636385
 20
-16.89288937136102
 30
0.0
 10
6.181579410068847
 20
-16.88954708157921
 30
0.0
 10
6.20851497350131
 20
-16.88620479179612
 30
0.0
 10
6.235660937404761
 20
-16.88819870477649
 30
0.0
 10
6.261486944775855
 20
-16.89511876259693
 30
0.0
 10
6.287312952147589
 20
-16.90203882041801
 30
0.0
 10
6.311819002986965
 20
-16.91388502307787
 30
0.0
 10
6.333474740291276
 20
-16.93024731265633
 30
0.0
 10
6.355130477596229
 20
-16.94660960223352
 30
0.0
 10
6.373935901365476
 20
-16.96748797872737
 30
0.0
 10
6.388360654598877
 20
-16.99247238421643
 30
0.0
 10
6.402785407830994
 20
-17.01745678970485
 30
0.0
 10
6.411463900376902
 20
-17.04418195266696
 30
0.0
 10
6.414806190159349
 20
-17.07111751609943
 30
0.0
 10
6.418148479942439
 20
-17.09805307953317
 30
0.0
 10
6.416154566962068
 20
-17.12519904343598
 30
0.0
 10
6.409234509141631
 20
-17.15102505080772
 30
0.0
 10
6.402314451320551
 20
-17.17685105817945
 30
0.0
 10
6.390468248659405
 20
-17.20135710901883
 30
0.0
 10
6.374105959082225
 20
-17.22301284632314
 30
0.0
 10
6.357743669505046
 20
-17.24466858362809
 30
0.0
 10
6.33686529301055
 20
-17.26347400739734
 30
0.0
 10
6.311880887521489
 20
-17.27789876062946
 30
0.0
 10
6.286896482033711
 20
-17.29232351386286
 30
0.0
 10
6.260171319071596
 20
-17.30100200640812
 30
0.0
 10
6.233235755637851
 20
-17.30434429619121
 30
0.0
 10
6.206300192206029
 20
-17.30768658597366
 30
0.0
 10
6.179154228302578
 20
-17.30569267299329
 30
0.0
 10
6.153328220931485
 20
-17.29877261517285
 30
0.0
 10
6.127502213559109
 20
-17.29185255735177
 30
0.0
 10
6.102996162719733
 20
-17.28000635469127
 30
0.0
 10
6.08134042541478
 20
-17.26364406511409
 30
0.0
 10
6.059684688111109
 20
-17.24728177553627
 30
0.0
 10
6.04087926434058
 20
-17.22640339904177
 30
0.0
 10
6.026454511108462
 20
-17.20141899355335
 30
0.0
 10
6.012029757876344
 20
-17.17643458806429
 30
0.0
 10
6.003351265330437
 20
-17.14970942510282
 30
0.0
 10
6.000008975546707
 20
-17.12277386166971
 30
0.0
 10
5.9966666857649
 20
-17.09583829823725
 30
0.0
 10
5.998660598745271
 20
-17.0686923343338
 30
0.0
 10
6.005580656565709
 20
-17.04286632696142
 30
0.0
 10
6.012500714386788
 20
-17.01704031959033
 30
0.0
 10
6.024346917047293
 20
-16.99253426875159
 30
0.0
 10
6.040709206624472
 20
-16.97087853144728
 30
0.0
 10
6.057071496202293
 20
-16.94922279414169
 30
0.0
 10
6.077949872697431
 20
-16.93041737037244
 30
0.0
 10
6.102934278185851
 20
-16.91599261714033
 30
0.0
  0
ENDBLK
  5
4E
330
4B
100
AcDbEntity
  8
0
100
AcDbBlockEnd
  0
BLOCK
  5
52
330
50
100
AcDbEntity
  8
0
100
AcDbBlockBegin
  2
BLOCK_5
 70
     0
 10
0.0
 20
0.0
 30
0.0
  3
BLOCK_5
  1

  0
SPLINE
  5
54
330
50
100
AcDbEntity
  8
LAYER_1
 62
    93
100
AcDbSpline
210
0.0
220
0.0
230
1.0
 70
    11
 71
     3
 72
    53
 73
    49
 74
     0
 42
0.0000000001
 43
0.0000000001
 12
1.0
 22
0.0
 32
0.0
 13
1.0
 23
0.0
 33
0.0
 40
0.0
 40
0.0
 40
0.0
 40
0.0
 40
1.0
 40
1.0
 40
1.0
 40
2.0
 40
2.0
 40
2.0
 40
3.0
 40
3.0
 40
3.0
 40
4.0
 40
4.0
 40
4.0
 40
5.0
 40
5.0
 40
5.0
 40
6.0
 40
6.0
 40
6.0
 40
7.0
 40
7.0
 40
7.0
 40
8.0
 40
8.0
 40
8.0
 40
9.0
 40
9.0
 40
9.0
 40
10.0
 40
10.0
 40
10.0
 40
11.0
 40
11.0
 40
11.0
 40
12.0
 40
12.0
 40
12.0
 40
13.0
 40
13.0
 40
13.0
 40
14.0
 40
14.0
 40
14.0
 40
15.0
 40
15.0
 40
15.0
 40
16.0
 40
16.0
 40
16.0
 40
16.0
 10
14.39706294784008
 20
-19.21246062357689
 30
0.0
 10
14.39706294784265
 20
-19.18361111710881
 30
0.0
 10
14.40290973431284
 20
-19.15612720079044
 30
0.0
 10
14.41348300817133
 20
-19.1311291737024
 30
0.0
 10
14.42405628202982
 20
-19.10613114661308
 30
0.0
 10
14.43935604327533
 20
-19.08361900875279
 30
0.0
 10
14.45826199282984
 20
-19.06471305920213
 30
0.0
 10
14.47716794238563
 20
-19.04580710965147
 30
0.0
 10
14.49968008024656
 20
-19.03050734840853
 30
0.0
 10
14.52467810733845
 20
-19.01993407455517
 30
0.0
 10
14.54967613442906
 20
-19.00936080070053
 30
0.0
 10
14.57716005074806
 20
-19.00351401423548
 30
0.0
 10
14.60600955721615
 20
-19.0035140142374
 30
0.0
 10
14.63485906368424
 20
-19.00351401423997
 30
0.0
 10
14.66234298000196
 20
-19.00936080071079
 30
0.0
 10
14.68734100709128
 20
-19.01993407456929
 30
0.0
 10
14.71233903418061
 20
-19.03050734842778
 30
0.0
 10
14.73485117204025
 20
-19.04580710967393
 30
0.0
 10
14.75375712159219
 20
-19.06471305922844
 30
0.0
 10
14.77266307114285
 20
-19.08361900878359
 30
0.0
 10
14.78796283238451
 20
-19.10613114664644
 30
0.0
 10
14.79853610623915
 20
-19.13112917373705
 30
0.0
 10
14.8091093800938
 20
-19.15612720082766
 30
0.0
 10
14.81495616655756
 20
-19.18361111714666
 30
0.0
 10
14.814956166555
 20
-19.21246062361475
 30
0.0
 10
14.81495616655371
 20
-19.24131013008219
 30
0.0
 10
14.80910938008224
 20
-19.26879404639991
 30
0.0
 10
14.79853610622375
 20
-19.29379207348988
 30
0.0
 10
14.78796283236526
 20
-19.31879010057857
 30
0.0
 10
14.77266307111975
 20
-19.34130223843821
 30
0.0
 10
14.75375712156524
 20
-19.36020818798951
 30
0.0
 10
14.73485117200945
 20
-19.37911413754081
 30
0.0
 10
14.71233903414724
 20
-19.39441389878375
 30
0.0
 10
14.68734100705663
 20
-19.40498717263711
 30
0.0
 10
14.66234297996602
 20
-19.41556044649047
 30
0.0
 10
14.63485906364573
 20
-19.42140723295681
 30
0.0
 10
14.60600955717893
 20
-19.42140723295424
 30
0.0
 10
14.57716005071085
 20
-19.42140723295103
 30
0.0
 10
14.54967613439313
 20
-19.41556044648085
 30
0.0
 10
14.5246781073038
 20
-19.404987172623
 30
0.0
 10
14.49968008021447
 20
-19.39441389876386
 30
0.0
 10
14.47716794235483
 20
-19.37911413751771
 30
0.0
 10
14.45826199280289
 20
-19.36020818796256
 30
0.0
 10
14.43935604325223
 20
-19.34130223840805
 30
0.0
 10
14.42405628201057
 20
-19.3187901005452
 30
0.0
 10
14.41348300815721
 20
-19.29379207345523
 30
0.0
 10
14.40290973430257
 20
-19.26879404636398
 30
0.0
 10
14.39706294783752
 20
-19.24131013004433
 30
0.0
 10
14.39706294784008
 20
-19.21246062357689
 30
0.0
  0
ENDBLK
  5
53
330
50
100
AcDbEntity
  8
0
100
AcDbBlockEnd
  0
BLOCK
  5
57
330
55
100
AcDbEntity
  8
0
100
AcDbBlockBegin
  2
BLOCK_6
 70
     0
 10
0.0
 20
0.0
 30
0.0
  3
BLOCK_6
  1

  0
SPLINE
  5
59
330
55
100
AcDbEntity
  8
LAYER_1
 62
    93
100
AcDbSpline
210
0.0
220
0.0
230
1.0
 70
    11
 71
     3
 72
    53
 73
    49
 74
     0
 42
0.0000000001
 43
0.0000000001
 12
1.0
 22
0.0
 32
0.0
 13
1.0
 23
0.0
 33
0.0
 40
0.0
 40
0.0
 40
0.0
 40
0.0
 40
1.0
 40
1.0
 40
1.0
 40
2.0
 40
2.0
 40
2.0
 40
3.0
 40
3.0
 40
3.0
 40
4.0
 40
4.0
 40
4.0
 40
5.0
 40
5.0
 40
5.0
 40
6.0
 40
6.0
 40
6.0
 40
7.0
 40
7.0
 40
7.0
 40
8.0
 40
8.0
 40
8.0
 40
9.0
 40
9.0
 40
9.0
 40
10.0
 40
10.0
 40
10.0
 40
11.0
 40
11.0
 40
11.0
 40
12.0
 40
12.0
 40
12.0
 40
13.0
 40
13.0
 40
13.0
 40
14.0
 40
14.0
 40
14.0
 40
15.0
 40
15.0
 40
15.0
 40
16.0
 40
16.0
 40
16.0
 40
16.0
 10
20.5329269153997
 20
-13.1777684968014
 30
0.0
 10
20.50794250991513
 20
-13.16334374356415
 30
0.0
 10
20.48706413342192
 20
-13.14453831979105
 30
0.0
 10
20.47070184384987
 20
-13.12288258248353
 30
0.0
 10
20.45433955427526
 20
-13.10122684517601
 30
0.0
 10
20.44249335161924
 20
-13.07672079433471
 30
0.0
 10
20.43557329380266
 20
-13.05089478696169
 30
0.0
 10
20.42865323598864
 20
-13.02506877958932
 30
0.0
 10
20.42665932301147
 20
-12.99792281568587
 30
0.0
 10
20.4300016127997
 20
-12.9709872522534
 30
0.0
 10
20.43334390258664
 20
-12.94405168882158
 30
0.0
 10
20.44202239513768
 20
-12.91732652586203
 30
0.0
 10
20.45644714837364
 20
-12.8923421203749
 30
0.0
 10
20.4708719016109
 20
-12.86735771488905
 30
0.0
 10
20.48967732538528
 20
-12.8464793383984
 30
0.0
 10
20.5113330626928
 20
-12.83011704882443
 30
0.0
 10
20.53298880000032
 20
-12.81375475925046
 30
0.0
 10
20.55749485084097
 20
-12.8019085565938
 30
0.0
 10
20.58332085821463
 20
-12.79498849877786
 30
0.0
 10
20.60914686558701
 20
-12.78806844096191
 30
0.0
 10
20.6362928294911
 20
-12.78607452798668
 30
0.0
 10
20.66322839292292
 20
-12.78941681777426
 30
0.0
 10
20.69016395635603
 20
-12.7927591075612
 30
0.0
 10
20.71688911931558
 20
-12.80143760011288
 30
0.0
 10
20.74187352480143
 20
-12.81586235335013
 30
0.0
 10
20.76685793028728
 20
-12.83028710658546
 30
0.0
 10
20.78773630677793
 20
-12.84909253035919
 30
0.0
 10
20.80409859635254
 20
-12.87074826766736
 30
0.0
 10
20.82046088592587
 20
-12.89240400497487
 30
0.0
 10
20.83230708858189
 20
-12.91691005581618
 30
0.0
 10
20.83922714639847
 20
-12.94273606318855
 30
0.0
 10
20.84614720421377
 20
-12.96856207056221
 30
0.0
 10
20.84814111719094
 20
-12.99570803446566
 30
0.0
 10
20.84479882740272
 20
-13.02264359789813
 30
0.0
 10
20.84145653761449
 20
-13.04957916132995
 30
0.0
 10
20.83277804506345
 20
-13.07630432429078
 30
0.0
 10
20.81835329182748
 20
-13.10128872977663
 30
0.0
 10
20.80392853859023
 20
-13.12627313526184
 30
0.0
 10
20.78512311481714
 20
-13.14715151175377
 30
0.0
 10
20.76346737750962
 20
-13.16351380132774
 30
0.0
 10
20.74181164020081
 20
-13.17987609090107
 30
0.0
 10
20.71730558936015
 20
-13.19172229355708
 30
0.0
 10
20.69147958198649
 20
-13.19864235137367
 30
0.0
 10
20.66565357461412
 20
-13.20556240918898
 30
0.0
 10
20.63850761071002
 20
-13.20755632216421
 30
0.0
 10
20.61157204727949
 20
-13.20421403237663
 30
0.0
 10
20.58463648384638
 20
-13.20087174258969
 30
0.0
 10
20.55791132088555
 20
-13.19219325003801
 30
0.0
 10
20.5329269153997
 20
-13.1777684968014
 30
0.0
  0
ENDBLK
  5
58
330
55
100
AcDbEntity
  8
0
100
AcDbBlockEnd
  0
BLOCK
  5
5C
330
5A
100
AcDbEntity
  8
0
100
AcDbBlockBegin
  2
BLOCK_7
 70
     0
 10
0.0
 20
0.0
 30
0.0
  3
BLOCK_7
  1

  0
SPLINE
  5
5E
330
5A
100
AcDbEntity
  8
LAYER_1
 62
    93
100
AcDbSpline
210
0.0
220
0.0
230
1.0
 70
    11
 71
     3
 72
    53
 73
    49
 74
     0
 42
0.0000000001
 43
0.0000000001
 12
1.0
 22
0.0
 32
0.0
 13
1.0
 23
0.0
 33
0.0
 40
0.0
 40
0.0
 40
0.0
 40
0.0
 40
1.0
 40
1.0
 40
1.0
 40
2.0
 40
2.0
 40
2.0
 40
3.0
 40
3.0
 40
3.0
 40
4.0
 40
4.0
 40
4.0
 40
5.0
 40
5.0
 40
5.0
 40
6.0
 40
6.0
 40
6.0
 40
7.0
 40
7.0
 40
7.0
 40
8.0
 40
8.0
 40
8.0
 40
9.0
 40
9.0
 40
9.0
 40
10.0
 40
10.0
 40
10.0
 40
11.0
 40
11.0
 40
11.0
 40
12.0
 40
12.0
 40
12.0
 40
13.0
 40
13.0
 40
13.0
 40
14.0
 40
14.0
 40
14.0
 40
15.0
 40
15.0
 40
15.0
 40
16.0
 40
16.0
 40
16.0
 40
16.0
 10
18.37466221362464
 20
-4.846608363276196
 30
0.0
 10
18.34967780813366
 20
-4.861033116505105
 30
0.0
 10
18.32295264517154
 20
-4.869711609050371
 30
0.0
 10
18.29601708173844
 20
-4.873053898829609
 30
0.0
 10
18.26908151830533
 20
-4.876396188610133
 30
0.0
 10
18.24193555440252
 20
-4.874402275627837
 30
0.0
 10
18.21610954703143
 20
-4.867482217805474
 30
0.0
 10
18.19028353966162
 20
-4.860562159981186
 30
0.0
 10
18.16577748882224
 20
-4.84871595732004
 30
0.0
 10
18.14412175151986
 20
-4.832353667739652
 30
0.0
 10
18.12246601421619
 20
-4.815991378159906
 30
0.0
 10
18.10366059044823
 20
-4.795113001664769
 30
0.0
 10
18.08923583721739
 20
-4.770128596174423
 30
0.0
 10
18.07481108398784
 20
-4.74514419068472
 30
0.0
 10
18.0661325914445
 20
-4.718419027721964
 30
0.0
 10
18.06279030166398
 20
-4.69148346428886
 30
0.0
 10
18.05944801188345
 20
-4.664547900855114
 30
0.0
 10
18.06144192486575
 20
-4.637401936952304
 30
0.0
 10
18.06836198268875
 20
-4.611575929581211
 30
0.0
 10
18.07528204051176
 20
-4.585749922210118
 30
0.0
 10
18.08712824317547
 20
-4.561243871371383
 30
0.0
 10
18.10349053275522
 20
-4.539588134068356
 30
0.0
 10
18.11985282233368
 20
-4.517932396765327
 30
0.0
 10
18.14073119883074
 20
-4.499126972998006
 30
0.0
 10
18.16571560432045
 20
-4.484702219768455
 30
0.0
 10
18.19070000981015
 20
-4.470277466536979
 30
0.0
 10
18.21742517277227
 20
-4.46159897399428
 30
0.0
 10
18.24436073620537
 20
-4.458256684213758
 30
0.0
 10
18.27129629963847
 20
-4.454914394433877
 30
0.0
 10
18.29844226354128
 20
-4.456908307416173
 30
0.0
 10
18.32426827091238
 20
-4.463828365238536
 30
0.0
 10
18.35009427828475
 20
-4.470748423062182
 30
0.0
 10
18.37460032912285
 20
-4.48259462572397
 30
0.0
 10
18.39625606642523
 20
-4.498956915304358
 30
0.0
 10
18.4179118037289
 20
-4.515319204884745
 30
0.0
 10
18.43671722749686
 20
-4.536197581380525
 30
0.0
 10
18.4511419807277
 20
-4.561181986870228
 30
0.0
 10
18.46556673395597
 20
-4.586166392359931
 30
0.0
 10
18.47424522650059
 20
-4.612891555322688
 30
0.0
 10
18.47758751628111
 20
-4.63982711875515
 30
0.0
 10
18.48092980606035
 20
-4.666762682189538
 30
0.0
 10
18.47893589307806
 20
-4.693908646091706
 30
0.0
 10
18.47201583525634
 20
-4.719734653464082
 30
0.0
 10
18.46509577743205
 20
-4.745560660833892
 30
0.0
 10
18.45324957476962
 20
-4.770066711671984
 30
0.0
 10
18.43688728518987
 20
-4.791722448974371
 30
0.0
 10
18.42052499561141
 20
-4.81337818627804
 30
0.0
 10
18.39964661911306
 20
-4.832183610046004
 30
0.0
 10
18.37466221362464
 20
-4.846608363276196
 30
0.0
  0
ENDBLK
  5
5D
330
5A
100
AcDbEntity
  8
0
100
AcDbBlockEnd
  0
BLOCK
  5
61
330
5F
100
AcDbEntity
  8
0
100
AcDbBlockBegin
  2
BLOCK_8
 70
     0
 10
0.0
 20
0.0
 30
0.0
  3
BLOCK_8
  1

  0
SPLINE
  5
63
330
5F
100
AcDbEntity
  8
LAYER_1
 62
    93
100
AcDbSpline
210
0.0
220
0.0
230
1.0
 70
    11
 71
     3
 72
    53
 73
    49
 74
     0
 42
0.0000000001
 43
0.0000000001
 12
1.0
 22
0.0
 32
0.0
 13
1.0
 23
0.0
 33
0.0
 40
0.0
 40
0.0
 40
0.0
 40
0.0
 40
1.0
 40
1.0
 40
1.0
 40
2.0
 40
2.0
 40
2.0
 40
3.0
 40
3.0
 40
3.0
 40
4.0
 40
4.0
 40
4.0
 40
5.0
 40
5.0
 40
5.0
 40
6.0
 40
6.0
 40
6.0
 40
7.0
 40
7.0
 40
7.0
 40
8.0
 40
8.0
 40
8.0
 40
9.0
 40
9.0
 40
9.0
 40
10.0
 40
10.0
 40
10.0
 40
11.0
 40
11.0
 40
11.0
 40
12.0
 40
12.0
 40
12.0
 40
13.0
 40
13.0
 40
13.0
 40
14.0
 40
14.0
 40
14.0
 40
15.0
 40
15.0
 40
15.0
 40
16.0
 40
16.0
 40
16.0
 40
16.0
 10
7.218271551598882
 20
-10.70033831425494
 30
0.0
 10
7.243255957086018
 20
-10.71476306748962
 30
0.0
 10
7.264134333579872
 20
-10.73356849126144
 30
0.0
 10
7.280496623155126
 20
-10.75522422856767
 30
0.0
 10
7.296858912731022
 20
-10.77687996587391
 30
0.0
 10
7.30870511538896
 20
-10.80138601671329
 30
0.0
 10
7.315625173207472
 20
-10.82721202408566
 30
0.0
 10
7.322545231025344
 20
-10.85303803145804
 30
0.0
 10
7.324539144003789
 20
-10.88018399536085
 30
0.0
 10
7.321196854218132
 20
-10.90711955879395
 30
0.0
 10
7.317854564433119
 20
-10.93405512222641
 30
0.0
 10
7.309176071885286
 20
-10.9607802851866
 30
0.0
 10
7.294751318650602
 20
-10.98576469067502
 30
0.0
 10
7.280326565415917
 20
-11.01074909616216
 30
0.0
 10
7.261521141644104
 20
-11.03162747265473
 30
0.0
 10
7.239865404337867
 20
-11.04798976222999
 30
0.0
 10
7.218209667031631
 20
-11.06435205180652
 30
0.0
 10
7.193703616190971
 20
-11.07619825446446
 30
0.0
 10
7.167877608819237
 20
-11.08311831228361
 30
0.0
 10
7.14205160144686
 20
-11.09003837010149
 30
0.0
 10
7.114905637542767
 20
-11.09203228307865
 30
0.0
 10
7.087970074110946
 20
-11.08868999329428
 30
0.0
 10
7.061034510678484
 20
-11.08534770350862
 30
0.0
 10
7.034309347717652
 20
-11.07666921096015
 30
0.0
 10
7.009324942230516
 20
-11.06224445772546
 30
0.0
 10
6.984340536742738
 20
-11.04781970449206
 30
0.0
 10
6.963462160250168
 20
-11.0290142807196
 30
0.0
 10
6.947099870674271
 20
-11.00735854341273
 30
0.0
 10
6.930737581099017
 20
-10.98570280610777
 30
0.0
 10
6.918891378440438
 20
-10.96119675526711
 30
0.0
 10
6.911971320621925
 20
-10.93537074789538
 30
0.0
 10
6.905051262804054
 20
-10.90954474052236
 30
0.0
 10
6.903057349825609
 20
-10.88239877661955
 30
0.0
 10
6.906399639610623
 20
-10.85546321318645
 30
0.0
 10
6.909741929396279
 20
-10.82852764975463
 30
0.0
 10
6.918420421944111
 20
-10.80180248679251
 30
0.0
 10
6.932845175178795
 20
-10.77681808130538
 30
0.0
 10
6.947269928414122
 20
-10.75183367581824
 30
0.0
 10
6.966075352185293
 20
-10.73095529932631
 30
0.0
 10
6.98773108949153
 20
-10.71459300974913
 30
0.0
 10
7.009386826797766
 20
-10.69823072017452
 30
0.0
 10
7.033892877637784
 20
-10.68638451751594
 30
0.0
 10
7.059718885010803
 20
-10.67946445969743
 30
0.0
 10
7.085544892382537
 20
-10.67254440187956
 30
0.0
 10
7.112690856285989
 20
-10.67055048890175
 30
0.0
 10
7.13962641971781
 20
-10.67389277868677
 30
0.0
 10
7.166561983150913
 20
-10.67723506847178
 30
0.0
 10
7.193287146112387
 20
-10.6859135610209
 30
0.0
 10
7.218271551598882
 20
-10.70033831425494
 30
0.0
  0
ENDBLK
  5
62
330
5F
100
AcDbEntity
  8
0
100
AcDbBlockEnd
  0
BLOCK
  5
66
330
64
100
AcDbEntity
  8
0
100
AcDbBlockBegin
  2
BLOCK_9
 70
     0
 10
0.0
 20
0.0
 30
0.0
  3
BLOCK_9
  1

  0
SPLINE
  5
68
330
64
100
AcDbEntity
  8
LAYER_1
 62
    93
100
AcDbSpline
210
0.0
220
0.0
230
1.0
 70
    11
 71
     3
 72
    53
 73
    49
 74
     0
 42
0.0000000001
 43
0.0000000001
 12
1.0
 22
0.0
 32
0.0
 13
1.0
 23
0.0
 33
0.0
 40
0.0
 40
0.0
 40
0.0
 40
0.0
 40
1.0
 40
1.0
 40
1.0
 40
2.0
 40
2.0
 40
2.0
 40
3.0
 40
3.0
 40
3.0
 40
4.0
 40
4.0
 40
4.0
 40
5.0
 40
5.0
 40
5.0
 40
6.0
 40
6.0
 40
6.0
 40
7.0
 40
7.0
 40
7.0
 40
8.0
 40
8.0
 40
8.0
 40
9.0
 40
9.0
 40
9.0
 40
10.0
 40
10.0
 40
10.0
 40
11.0
 40
11.0
 40
11.0
 40
12.0
 40
12.0
 40
12.0
 40
13.0
 40
13.0
 40
13.0
 40
14.0
 40
14.0
 40
14.0
 40
15.0
 40
15.0
 40
15.0
 40
16.0
 40
16.0
 40
16.0
 40
16.0
 10
12.33495720628356
 20
-10.71350131929425
 30
0.0
 10
12.3599416117707
 20
-10.72792607252893
 30
0.0
 10
12.38081998826456
 20
-10.74673149630074
 30
0.0
 10
12.39718227783981
 20
-10.76838723360698
 30
0.0
 10
12.41354456741571
 20
-10.79004297091322
 30
0.0
 10
12.42539077007364
 20
-10.81454902175259
 30
0.0
 10
12.43231082789151
 20
-10.84037502912497
 30
0.0
 10
12.43923088570939
 20
-10.86620103649735
 30
0.0
 10
12.44122479868783
 20
-10.89334700040016
 30
0.0
 10
12.43788250890217
 20
-10.92028256383326
 30
0.0
 10
12.4345402191178
 20
-10.94721812726572
 30
0.0
 10
12.42586172656997
 20
-10.97394329022591
 30
0.0
 10
12.41143697333528
 20
-10.99892769571433
 30
0.0
 10
12.3970122201006
 20
-11.02391210120147
 30
0.0
 10
12.37820679632879
 20
-11.04479047769404
 30
0.0
 10
12.35655105902255
 20
-11.06115276726929
 30
0.0
 10
12.33489532171631
 20
-11.07751505684583
 30
0.0
 10
12.31038927087566
 20
-11.08936125950377
 30
0.0
 10
12.28456326350392
 20
-11.09628131732292
 30
0.0
 10
12.25873725613154
 20
-11.10320137514079
 30
0.0
 10
12.23159129222745
 20
-11.10519528811796
 30
0.0
 10
12.20465572879563
 20
-11.10185299833358
 30
0.0
 10
12.17772016536317
 20
-11.09851070854793
 30
0.0
 10
12.15099500240234
 20
-11.08983221599945
 30
0.0
 10
12.1260105969152
 20
-11.07540746276477
 30
0.0
 10
12.10102619142742
 20
-11.06098270953137
 30
0.0
 10
12.08014781493485
 20
-11.04217728575891
 30
0.0
 10
12.06378552535895
 20
-11.02052154845203
 30
0.0
 10
12.0474232357837
 20
-10.99886581114708
 30
0.0
 10
12.03557703312512
 20
-10.97435976030642
 30
0.0
 10
12.02865697530661
 20
-10.94853375293469
 30
0.0
 10
12.02173691748874
 20
-10.92270774556167
 30
0.0
 10
12.01974300451029
 20
-10.89556178165886
 30
0.0
 10
12.02308529429531
 20
-10.86862621822575
 30
0.0
 10
12.02642758408096
 20
-10.84169065479393
 30
0.0
 10
12.03510607662879
 20
-10.81496549183182
 30
0.0
 10
12.04953082986348
 20
-10.78998108634468
 30
0.0
 10
12.0639555830988
 20
-10.76499668085755
 30
0.0
 10
12.08276100686998
 20
-10.74411830436562
 30
0.0
 10
12.10441674417621
 20
-10.72775601478844
 30
0.0
 10
12.12607248148245
 20
-10.71139372521383
 30
0.0
 10
12.15057853232247
 20
-10.69954752255525
 30
0.0
 10
12.17640453969549
 20
-10.69262746473673
 30
0.0
 10
12.20223054706722
 20
-10.68570740691886
 30
0.0
 10
12.22937651097067
 20
-10.68371349394106
 30
0.0
 10
12.25631207440249
 20
-10.68705578372607
 30
0.0
 10
12.2832476378356
 20
-10.69039807351109
 30
0.0
 10
12.30997280079707
 20
-10.6990765660602
 30
0.0
 10
12.33495720628356
 20
-10.71350131929425
 30
0.0
  0
ENDBLK
  5
67
330
64
100
AcDbEntity
  8
0
100
AcDbBlockEnd
  0
ENDSEC
  0
SECTION
  2
ENTITIES
  0
INSERT
  5
42
330
1F
100
AcDbEntity
  8
LAYER_1
100
AcDbBlockReference
  2
BLOCK_2
 10
0.0
 20
0.0
 30
0.0
  0
INSERT
  5
47
330
1F
100
AcDbEntity
  8
LAYER_1
100
AcDbBlockReference
  2
BLOCK_3
 10
0.0
 20
0.0
 30
0.0
  0
INSERT
  5
4C
330
1F
100
AcDbEntity
  8
LAYER_1
100
AcDbBlockReference
  2
BLOCK_4
 10
0.0
 20
0.0
 30
0.0
  0
INSERT
  5
51
330
1F
100
AcDbEntity
  8
LAYER_1
100
AcDbBlockReference
  2
BLOCK_5
 10
0.0
 20
0.0
 30
0.0
  0
INSERT
  5
56
330
1F
100
AcDbEntity
  8
LAYER_1
100
AcDbBlockReference
  2
BLOCK_6
 10
0.0
 20
0.0
 30
0.0
  0
INSERT
  5
5B
330
1F
100
AcDbEntity
  8
LAYER_1
100
AcDbBlockReference
  2
BLOCK_7
 10
0.0
 20
0.0
 30
0.0
  0
INSERT
  5
60
330
1F
100
AcDbEntity
  8
LAYER_1
100
AcDbBlockReference
  2
BLOCK_8
 10
0.0
 20
0.0
 30
0.0
  0
INSERT
  5
65
330
1F
100
AcDbEntity
  8
LAYER_1
100
AcDbBlockReference
  2
BLOCK_9
 10
0.0
 20
0.0
 30
0.0
  0
ENDSEC
  0
SECTION
  2
OBJECTS
  0
DICTIONARY
  5
C
330
0
100
AcDbDictionary
  3
ACAD_GROUP
350
D
  3
ACAD_LAYOUT
350
1A
  3
ACAD_MATERIAL
350
3B
  3
ACAD_MLEADERSTYLE
350
6B
  3
ACAD_MLINESTYLE
350
17
  3
ACAD_PLOTSETTINGS
350
19
  3
ACAD_VISUALSTYLE
350
2A
  3
ACDBVARIABLEDICTIONARY
350
69
1001
ACAD
1000
TREAT_AS_HARD
1070
     0
  0
DICTIONARY
  5
D
102
{ACAD_REACTORS
330
C
102
}
330
C
100
AcDbDictionary
1001
ACAD
1000
TREAT_AS_HARD
1070
     0
  0
DICTIONARY
  5
1A
102
{ACAD_REACTORS
330
C
102
}
330
C
100
AcDbDictionary
1001
ACAD
1000
TREAT_AS_HARD
1070
     0
  0
DICTIONARY
  5
3B
102
{ACAD_REACTORS
330
C
102
}
330
C
100
AcDbDictionary
  3
BYBLOCK
350
3D
  3
BYLAYER
350
3C
  3
GLOBAL
350
3E
1001
ACAD
1000
TREAT_AS_HARD
1070
     0
  0
DICTIONARY
  5
6B
102
{ACAD_REACTORS
330
C
102
}
330
C
100
AcDbDictionary
1001
ACAD
1000
TREAT_AS_HARD
1070
     0
  0
DICTIONARY
  5
17
102
{ACAD_REACTORS
330
C
102
}
330
C
100
AcDbDictionary
  3
STANDARD
350
18
1001
ACAD
1000
TREAT_AS_HARD
1070
     0
  0
DICTIONARY
  5
19
102
{ACAD_REACTORS
330
C
102
}
330
C
100
AcDbDictionary
1001
ACAD
1000
TREAT_AS_HARD
1070
     0
  0
DICTIONARY
  5
2A
102
{ACAD_REACTORS
330
C
102
}
330
C
100
AcDbDictionary
  3
2DWIREFRAME
350
2F
  3
3DWIREFRAME
350
30
  3
3D_HIDDEN
350
31
  3
BASIC
350
32
  3
BRIGHTEN
350
36
  3
COLORCHANGE
350
3A
  3
CONCEPTUAL
350
34
  3
DIM
350
35
  3
FACEPATTERN
350
39
  3
FLAT
350
2B
  3
FLATWITHEDGES
350
2C
  3
GOURAUD
350
2D
  3
GOURAUDWITHEDGES
350
2E
  3
LINEPATTERN
350
38
  3
REALISTIC
350
33
  3
THICKEN
350
37
1001
ACAD
1000
TREAT_AS_HARD
1070
     0
  0
DICTIONARY
  5
69
102
{ACAD_REACTORS
330
C
102
}
330
C
100
AcDbDictionary
  3
DIMASSOC
350
6C
  3
HIDETEXT
350
6D
1001
ACAD
1000
TREAT_AS_HARD
1070
     0
  0
MATERIAL
  5
3D
102
{ACAD_REACTORS
330
3B
102
}
102
{ACAD_XDICTIONARY
360
70
102
}
330
3B
100
AcDbMaterial
  1
ByBlock
  0
MATERIAL
  5
3C
102
{ACAD_REACTORS
330
3B
102
}
102
{ACAD_XDICTIONARY
360
6E
102
}
330
3B
100
AcDbMaterial
  1
ByLayer
  0
MATERIAL
  5
3E
102
{ACAD_REACTORS
330
3B
102
}
102
{ACAD_XDICTIONARY
360
72
102
}
330
3B
100
AcDbMaterial
  1
Global
  0
MLINESTYLE
  5
18
102
{ACAD_REACTORS
330
17
102
}
330
17
100
AcDbMlineStyle
  2
Standard
 70
     0
  3

 62
   256
 51
90.0
 52
90.0
 71
     2
 49
0.5
 62
   256
  6
BYLAYER
 49
-0.5
 62
   256
  6
BYLAYER
  0
ACAD_PROXY_OBJECT
  5
2F
102
{ACAD_REACTORS
330
2A
102
}
330
2A
100
AcDbZombieObject
 90
      499
 91
      501
 93
      436
310
42CC9915DA5C99599C985B595049028333333333333E3BF0000000000000FB0107901411070040501600405405064090741402480A0340
1001
ACAD
1000
AcDbSavedByObjectVersion
1070
     0
  0
ACAD_PROXY_OBJECT
  5
30
102
{ACAD_REACTORS
330
2A
102
}
330
2A
100
AcDbZombieObject
 90
      499
 91
      501
 93
      436
310
42CCD915DA5C99599C985B595059028333333333333E3BF0000000000000FB0107901411070040501600405405064090741402480A0340
1001
ACAD
1000
AcDbSavedByObjectVersion
1070
     0
  0
ACAD_PROXY_OBJECT
  5
31
102
{ACAD_REACTORS
330
2A
102
}
330
2A
100
AcDbZombieObject
 90
      499
 91
      501
 93
      500
310
424CD108121A5919195B90640502408333333333333E3BF0000000000000FB01079024090700405020000000000001110200405405064090740C02480A0340
1001
ACAD
1000
AcDbSavedByObjectVersion
1070
     0
  0
ACAD_PROXY_OBJECT
  5
32
102
{ACAD_REACTORS
330
2A
102
}
330
2A
100
AcDbZombieObject
 90
      499
 91
      501
 93
      388
310
4150985CDA58D07406404333333333333E3BF0000000000000FB0107A41107004050150841D405064090741402480A0350
1001
ACAD
1000
AcDbSavedByObjectVersion
1070
     0
  0
ACAD_PROXY_OBJECT
  5
36
102
{ACAD_REACTORS
330
2A
102
}
330
2A
100
AcDbZombieObject
 90
      499
 91
      501
 93
      428
310
42109C9A59DA1D195B90C409028333333333333E3BF0000000000000FB010790141107004050150841D405064090741402480A029950
1001
ACAD
1000
AcDbSavedByObjectVersion
1070
     0
  0
ACAD_PROXY_OBJECT
  5
3A
102
{ACAD_REACTORS
330
2A
102
}
330
2A
100
AcDbZombieObject
 90
      499
 91
      501
 93
      452
310
42D0DBDB1BDC90DA185B99D95104090240C333333333333E3BF0000000000000FB0108901411070040501508421405064090741402480A0350
1001
ACAD
1000
AcDbSavedByObjectVersion
1070
     0
  0
ACAD_PROXY_OBJECT
  5
34
102
{ACAD_REACTORS
330
2A
102
}
330
2A
100
AcDbZombieObject
 90
      499
 91
      501
 93
      500
310
4290DBDB98D95C1D1D585B10940D028333333333333E3BF0000000000000FB0107902409070040501000000000000111010841D405064090740C02480A0340
1001
ACAD
1000
AcDbSavedByObjectVersion
1070
     0
  0
ACAD_PROXY_OBJECT
  5
35
102
{ACAD_REACTORS
330
2A
102
}
330
2A
100
AcDbZombieObject
 90
      499
 91
      501
 93
      412
310
40D11A5B50B409028333333333333E3BF0000000000000FB010790141107004050150841D405064090741402480A02677FFFFFD0
1001
ACAD
1000
AcDbSavedByObjectVersion
1070
     0
  0
ACAD_PROXY_OBJECT
  5
39
102
{ACAD_REACTORS
330
2A
102
}
330
2A
100
AcDbZombieObject
 90
      499
 91
      501
 93
      444
310
42D19858D95C185D1D195C9B90F409028333333333333E3BF0000000000000FB010790141107004050150841D405064090741402480A0350
1001
ACAD
1000
AcDbSavedByObjectVersion
1070
     0
  0
ACAD_PROXY_OBJECT
  5
2B
102
{ACAD_REACTORS
330
2A
102
}
330
2A
100
AcDbZombieObject
 90
      499
 91
      501
 93
      388
310
41119B185D240901404333333333333E3BF0000000000000F9010740A41107004050150841D405064090741402480A1B50
1001
ACAD
1000
AcDbSavedByObjectVersion
1070
     0
  0
ACAD_PROXY_OBJECT
  5
2C
102
{ACAD_REACTORS
330
2A
102
}
330
2A
100
AcDbZombieObject
 90
      499
 91
      501
 93
      476
310
43519B185D15DA5D1A115919D95CD0140901404333333333333E3BF0000000000000F9010740901411070040501600405405064090741402480A1B50
1001
ACAD
1000
AcDbSavedByObjectVersion
1070
     0
  0
ACAD_PROXY_OBJECT
  5
2D
102
{ACAD_REACTORS
330
2A
102
}
330
2A
100
AcDbZombieObject
 90
      499
 91
      501
 93
      412
310
41D1DBDD5C985D5910240902404333333333333E3BF0000000000000F9010740A411070040501641D405064090741402480A1B50
1001
ACAD
1000
AcDbSavedByObjectVersion
1070
     0
  0
ACAD_PROXY_OBJECT
  5
2E
102
{ACAD_REACTORS
330
2A
102
}
330
2A
100
AcDbZombieObject
 90
      499
 91
      501
 93
      500
310
4411DBDD5C985D5915DA5D1A115919D95CD0340902404333333333333E3BF0000000000000F9010740901411070040501600405405064090741402480A1B50
1001
ACAD
1000
AcDbSavedByObjectVersion
1070
     0
  0
ACAD_PROXY_OBJECT
  5
38
102
{ACAD_REACTORS
330
2A
102
}
330
2A
100
AcDbZombieObject
 90
      499
 91
      501
 93
      444
310
42D31A5B995C185D1D195C9B90E409028333333333333E3BF0000000000000FB010790141107004050750841D405064090741402483A0350
1001
ACAD
1000
AcDbSavedByObjectVersion
1070
     0
  0
ACAD_PROXY_OBJECT
  5
33
102
{ACAD_REACTORS
330
2A
102
}
330
2A
100
AcDbZombieObject
 90
      499
 91
      501
 93
      420
310
425499585B1A5CDD1A58D08409028333333333333E3BF0000000000000FB01079019070040501508421405064090741402480A1B40
1001
ACAD
1000
AcDbSavedByObjectVersion
1070
     0
  0
ACAD_PROXY_OBJECT
  5
37
102
{ACAD_REACTORS
330
2A
102
}
330
2A
100
AcDbZombieObject
 90
      499
 91
      501
 93
      412
310
41D51A1A58DAD95B90D409028333333333333E3BF0000000000000FB010790141107004050150C41D405064090741402480A0350
1001
ACAD
1000
AcDbSavedByObjectVersion
1070
     0
  0
DICTIONARYVAR
  5
6C
102
{ACAD_REACTORS
330
69
102
}
330
69
100
DictionaryVariables
280
     0
  1
2
  0
DICTIONARYVAR
  5
6D
102
{ACAD_REACTORS
330
69
102
}
330
69
100
DictionaryVariables
280
     0
  1
1
  0
DICTIONARY
  5
70
330
3D
100
AcDbDictionary
  3
ACAD_XREC_ROUNDTRIP
360
71
1001
ACAD
1000
TREAT_AS_HARD
1070
     1
  0
DICTIONARY
  5
6E
330
3C
100
AcDbDictionary
  3
ACAD_XREC_ROUNDTRIP
360
6F
1001
ACAD
1000
TREAT_AS_HARD
1070
     1
  0
DICTIONARY
  5
72
330
3E
100
AcDbDictionary
  3
ACAD_XREC_ROUNDTRIP
360
73
1001
ACAD
1000
TREAT_AS_HARD
1070
     1
  0
XRECORD
  5
71
102
{ACAD_REACTORS
330
70
102
}
330
70
100
AcDbXrecord
102
MATERIAL
148
0.0
149
0.0
149
0.0
 93
        0
 94
      127
282
     0
 72
     1
 77
     1
171
     1
175
     1
179
     1
273
     0
  0
XRECORD
  5
6F
102
{ACAD_REACTORS
330
6E
102
}
330
6E
100
AcDbXrecord
102
MATERIAL
148
0.0
149
0.0
149
0.0
 93
        0
 94
      127
282
     0
 72
     1
 77
     1
171
     1
175
     1
179
     1
273
     0
  0
XRECORD
  5
73
102
{ACAD_REACTORS
330
72
102
}
330
72
100
AcDbXrecord
102
MATERIAL
148
0.0
149
0.0
149
0.0
 93
        0
 94
      127
282
     0
 72
     1
 77
     1
171
     1
175
     1
179
     1
273
     0
  0
ENDSEC
  0
EOF
