  0
SECTION
  2
HEADER
  9
$ACADVER
  1
AC1012
  9
$DWGCODEPAGE
  3
undefined
  9
$INSBASE
 10
0.0
 20
0.0
 30
0.0
  9
$EXTMIN
 10
1.000000000000000E+20
 20
1.000000000000000E+20
 30
1.000000000000000E+20
  9
$EXTMAX
 10
-1.000000000000000E+20
 20
-1.000000000000000E+20
 30
-1.000000000000000E+20
  9
$LIMMIN
 10
0.0
 20
0.0
  9
$LIMMAX
 10
12.0
 20
9.0
  9
$ORTHOMODE
 70
     0
  9
$REGENMODE
 70
     1
  9
$FILLMODE
 70
     1
  9
$QTEXTMODE
 70
     0
  9
$MIRRTEXT
 70
     1
  9
$DRAGMODE
 70
     2
  9
$LTSCALE
 40
1.0
  9
$OSMODE
 70
    37
  9
$ATTMODE
 70
     1
  9
$TEXTSIZE
 40
0.2
  9
$TRACEWID
 40
0.05
  9
$TEXTSTYLE
  7
STANDARD
  9
$CLAYER
  8
0
  9
$CELTYPE
  6
BYLAYER
  9
$CECOLOR
 62
   256
  9
$CELTSCALE
 40
1.0
  9
$DELOBJ
 70
     1
  9
$DISPSILH
 70
     0
  9
$DIMSCALE
 40
1.0
  9
$DIMASZ
 40
0.18
  9
$DIMEXO
 40
0.0625
  9
$DIMDLI
 40
0.38
  9
$DIMRND
 40
0.0
  9
$DIMDLE
 40
0.0
  9
$DIMEXE
 40
0.18
  9
$DIMTP
 40
0.0
  9
$DIMTM
 40
0.0
  9
$DIMTXT
 40
0.18
  9
$DIMCEN
 40
0.09
  9
$DIMTSZ
 40
0.0
  9
$DIMTOL
 70
     0
  9
$DIMLIM
 70
     0
  9
$DIMTIH
 70
     1
  9
$DIMTOH
 70
     1
  9
$DIMSE1
 70
     0
  9
$DIMSE2
 70
     0
  9
$DIMTAD
 70
     0
  9
$DIMZIN
 70
     0
  9
$DIMBLK
  1

  9
$DIMASO
 70
     1
  9
$DIMSHO
 70
     1
  9
$DIMPOST
  1

  9
$DIMAPOST
  1

  9
$DIMALT
 70
     0
  9
$DIMALTD
 70
     2
  9
$DIMALTF
 40
25.4
  9
$DIMLFAC
 40
1.0
  9
$DIMTOFL
 70
     0
  9
$DIMTVP
 40
0.0
  9
$DIMTIX
 70
     0
  9
$DIMSOXD
 70
     0
  9
$DIMSAH
 70
     0
  9
$DIMBLK1
  1

  9
$DIMBLK2
  1

  9
$DIMSTYLE
  2
STANDARD
  9
$DIMCLRD
 70
     0
  9
$DIMCLRE
 70
     0
  9
$DIMCLRT
 70
     0
  9
$DIMTFAC
 40
1.0
  9
$DIMGAP
 40
0.09
  9
$DIMJUST
 70
     0
  9
$DIMSD1
 70
     0
  9
$DIMSD2
 70
     0
  9
$DIMTOLJ
 70
     1
  9
$DIMTZIN
 70
     0
  9
$DIMALTZ
 70
     0
  9
$DIMALTTZ
 70
     0
  9
$DIMFIT
 70
     3
  9
$DIMUPT
 70
     0
  9
$DIMUNIT
 70
     2
  9
$DIMDEC
 70
     4
  9
$DIMTDEC
 70
     4
  9
$DIMALTU
 70
     2
  9
$DIMALTTD
 70
     2
  9
$DIMTXSTY
  7
STANDARD
  9
$DIMAUNIT
 70
     0
  9
$LUNITS
 70
     2
  9
$LUPREC
 70
     4
  9
$SKETCHINC
 40
0.1
  9
$FILLETRAD
 40
0.5
  9
$AUNITS
 70
     0
  9
$AUPREC
 70
     0
  9
$MENU
  1
.
  9
$ELEVATION
 40
0.0
  9
$PELEVATION
 40
0.0
  9
$THICKNESS
 40
0.0
  9
$LIMCHECK
 70
     0
  9
$CHAMFERA
 40
0.5
  9
$CHAMFERB
 40
0.5
  9
$CHAMFERC
 40
1.0
  9
$CHAMFERD
 40
0.0
  9
$SKPOLY
 70
     0
  9
$TDCREATE
 40
2457431.972210636
  9
$TDUPDATE
 40
2457431.972210636
  9
$TDINDWG
 40
0.0000000116
  9
$TDUSRTIMER
 40
0.0000000116
  9
$USRTIMER
 70
     1
  9
$ANGBASE
 50
0.0
  9
$ANGDIR
 70
     0
  9
$PDMODE
 70
     0
  9
$PDSIZE
 40
0.0
  9
$PLINEWID
 40
0.0
  9
$COORDS
 70
     1
  9
$SPLFRAME
 70
     0
  9
$SPLINETYPE
 70
     6
  9
$SPLINESEGS
 70
     8
  9
$ATTDIA
 70
     0
  9
$ATTREQ
 70
     1
  9
$HANDLING
 70
     1
  9
$HANDSEED
  5
4E
  9
$SURFTAB1
 70
     6
  9
$SURFTAB2
 70
     6
  9
$SURFTYPE
 70
     6
  9
$SURFU
 70
     6
  9
$SURFV
 70
     6
  9
$UCSNAME
  2

  9
$UCSORG
 10
0.0
 20
0.0
 30
0.0
  9
$UCSXDIR
 10
1.0
 20
0.0
 30
0.0
  9
$UCSYDIR
 10
0.0
 20
1.0
 30
0.0
  9
$PUCSNAME
  2

  9
$PUCSORG
 10
0.0
 20
0.0
 30
0.0
  9
$PUCSXDIR
 10
1.0
 20
0.0
 30
0.0
  9
$PUCSYDIR
 10
0.0
 20
1.0
 30
0.0
  9
$USERI1
 70
     0
  9
$USERI2
 70
     0
  9
$USERI3
 70
     0
  9
$USERI4
 70
     0
  9
$USERI5
 70
     0
  9
$USERR1
 40
0.0
  9
$USERR2
 40
0.0
  9
$USERR3
 40
0.0
  9
$USERR4
 40
0.0
  9
$USERR5
 40
0.0
  9
$WORLDVIEW
 70
     1
  9
$SHADEDGE
 70
     3
  9
$SHADEDIF
 70
    70
  9
$TILEMODE
 70
     1
  9
$MAXACTVP
 70
    64
  9
$PINSBASE
 10
0.0
 20
0.0
 30
0.0
  9
$PLIMCHECK
 70
     0
  9
$PEXTMIN
 10
1.000000000000000E+20
 20
1.000000000000000E+20
 30
1.000000000000000E+20
  9
$PEXTMAX
 10
-1.000000000000000E+20
 20
-1.000000000000000E+20
 30
-1.000000000000000E+20
  9
$PLIMMIN
 10
0.0
 20
0.0
  9
$PLIMMAX
 10
12.0
 20
9.0
  9
$UNITMODE
 70
     0
  9
$VISRETAIN
 70
     1
  9
$PLINEGEN
 70
     0
  9
$PSLTSCALE
 70
     1
  9
$TREEDEPTH
 70
  3020
  9
$PICKSTYLE
 70
     1
  9
$CMLSTYLE
  2
STANDARD
  9
$CMLJUST
 70
     0
  9
$CMLSCALE
 40
1.0
  9
$SAVEIMAGES
 70
     1
  0
ENDSEC
  0
SECTION
  2
CLASSES
  0
CLASS
  1
ACDBDICTIONARYWDFLT
  2
AcDbDictionaryWithDefault
  3
ObjectDBX Classes
 90
    32768
280
     0
281
     0
  0
CLASS
  1
VISUALSTYLE
  2
AcDbVisualStyle
  3
ObjectDBX Classes
 90
     4095
280
     0
281
     0
  0
CLASS
  1
MATERIAL
  2
AcDbMaterial
  3
ObjectDBX Classes
 90
     1153
280
     0
281
     0
  0
CLASS
  1
SUN
  2
AcDbSun
  3
SCENEOE
 90
     1024
280
     0
281
     0
  0
CLASS
  1
DICTIONARYVAR
  2
AcDbDictionaryVar
  3
ObjectDBX Classes
 90
        0
280
     0
281
     0
  0
CLASS
  1
XRECORD
  2
AcDbXrecord
  3
AutoCAD 2000
 90
    32768
280
     0
281
     0
  0
CLASS
  1
LWPOLYLINE
  2
AcDbPolyline
  3
AutoCAD 2000
 90
    32768
280
     0
281
     1
  0
CLASS
  1
HATCH
  2
AcDbHatch
  3
AutoCAD 2000
 90
    32768
280
     0
281
     1
  0
CLASS
  1
ACDBPLACEHOLDER
  2
AcDbPlaceHolder
  3
ObjectDBX Classes
 90
        0
280
     0
281
     0
  0
CLASS
  1
LAYOUT
  2
AcDbLayout
  3
ObjectDBX Classes
 90
        0
280
     0
281
     0
  0
ENDSEC
  0
SECTION
  2
TABLES
  0
TABLE
  2
VPORT
  5
8
330
0
100
AcDbSymbolTable
 70
     1
  0
VPORT
  5
29
330
8
100
AcDbSymbolTableRecord
100
AcDbViewportTableRecord
  2
*ACTIVE
 70
     0
 10
0.0
 20
0.0
 11
1.0
 21
1.0
 12
0.0
 22
0.0
 13
0.0
 23
0.0
 14
0.5
 24
0.5
 15
0.5
 25
0.5
 16
0.0
 26
0.0
 36
1.0
 17
11.99973610811129
 27
-10.99961110836131
 37
0.0
 40
21.99922221672262
 41
1.090923669018602
 42
50.0
 43
0.0
 44
0.0
 50
0.0
 51
0.0
 71
     0
 72
   100
 73
     1
 74
     3
 75
     0
 76
     0
 77
     0
 78
     0
  0
ENDTAB
  0
TABLE
  2
LTYPE
  5
5
330
0
100
AcDbSymbolTable
 70
     2
  0
LTYPE
  5
14
330
5
100
AcDbSymbolTableRecord
100
AcDbLinetypeTableRecord
  2
BYBLOCK
 70
     0
  3

 72
    65
 73
     0
 40
0.0
  0
LTYPE
  5
15
330
5
100
AcDbSymbolTableRecord
100
AcDbLinetypeTableRecord
  2
BYLAYER
 70
     0
  3

 72
    65
 73
     0
 40
0.0
  0
LTYPE
  5
16
330
5
100
AcDbSymbolTableRecord
100
AcDbLinetypeTableRecord
  2
CONTINUOUS
 70
     0
  3
Solid line
 72
    65
 73
     0
 40
0.0
  0
LTYPE
  5
42
330
5
100
AcDbSymbolTableRecord
100
AcDbLinetypeTableRecord
  2
AI-LINETYPE-1
 70
     0
  3
Adobe Illustrator Linetype No. 1
 72
    65
 73
     2
 40
0.529166666534375
 49
0.1763888888447917
 74
     0
 49
-0.3527777776895833
 74
     0
  0
ENDTAB
  0
TABLE
  2
LAYER
  5
2
330
0
100
AcDbSymbolTable
 70
     2
  0
LAYER
  5
10
330
2
100
AcDbSymbolTableRecord
100
AcDbLayerTableRecord
  2
0
 70
     0
 62
     7
  6
CONTINUOUS
  0
LAYER
  5
40
330
2
100
AcDbSymbolTableRecord
100
AcDbLayerTableRecord
  2
LAYER_1
 70
     0
 62
     7
  6
CONTINUOUS
  0
ENDTAB
  0
TABLE
  2
STYLE
  5
3
330
0
100
AcDbSymbolTable
 70
     1
  0
STYLE
  5
11
330
3
100
AcDbSymbolTableRecord
100
AcDbTextStyleTableRecord
  2
STANDARD
 70
     0
 40
0.0
 41
1.0
 50
0.0
 71
     0
 42
0.2
  3
txt
  4

  0
ENDTAB
  0
TABLE
  2
VIEW
  5
6
330
0
100
AcDbSymbolTable
 70
     0
  0
ENDTAB
  0
TABLE
  2
UCS
  5
7
330
0
100
AcDbSymbolTable
 70
     0
  0
ENDTAB
  0
TABLE
  2
APPID
  5
9
330
0
100
AcDbSymbolTable
 70
     1
  0
APPID
  5
12
330
9
100
AcDbSymbolTableRecord
100
AcDbRegAppTableRecord
  2
ACAD
 70
     0
  0
ENDTAB
  0
TABLE
  2
DIMSTYLE
  5
A
330
0
100
AcDbSymbolTable
 70
     1
  0
DIMSTYLE
105
27
330
A
100
AcDbSymbolTableRecord
100
AcDbDimStyleTableRecord
  2
STANDARD
 70
     0
  3

  4

  5

  6

  7

 40
1.0
 41
0.18
 42
0.0625
 43
0.38
 44
0.18
 45
0.0
 46
0.0
 47
0.0
 48
0.0
140
0.18
141
0.09
142
0.0
143
25.4
144
1.0
145
0.0
146
1.0
147
0.09
 71
     0
 72
     0
 73
     1
 74
     1
 75
     0
 76
     0
 77
     0
 78
     0
170
     0
171
     2
172
     0
173
     0
174
     0
175
     0
176
     0
177
     0
178
     0
270
     2
271
     4
272
     4
273
     2
274
     2
340
11
275
     0
280
     0
281
     0
282
     0
283
     1
284
     0
285
     0
286
     0
287
     3
288
     0
  0
ENDTAB
  0
TABLE
  2
BLOCK_RECORD
  5
1
330
0
100
AcDbSymbolTable
 70
     1
  0
BLOCK_RECORD
  5
1F
330
1
100
AcDbSymbolTableRecord
100
AcDbBlockTableRecord
  2
*MODEL_SPACE
  0
BLOCK_RECORD
  5
1B
330
1
100
AcDbSymbolTableRecord
100
AcDbBlockTableRecord
  2
*PAPER_SPACE
  0
ENDTAB
  0
ENDSEC
  0
SECTION
  2
BLOCKS
  0
BLOCK
  5
20
330
1F
100
AcDbEntity
  8
0
100
AcDbBlockBegin
  2
*MODEL_SPACE
 70
     0
 10
0.0
 20
0.0
 30
0.0
  3
*MODEL_SPACE
  1

  0
ENDBLK
  5
21
330
1F
100
AcDbEntity
  8
0
100
AcDbBlockEnd
  0
BLOCK
  5
1C
330
1B
100
AcDbEntity
 67
     1
  8
0
100
AcDbBlockBegin
  2
*PAPER_SPACE
 70
     0
 10
0.0
 20
0.0
 30
0.0
  3
*PAPER_SPACE
  1

  0
ENDBLK
  5
1D
330
1B
100
AcDbEntity
 67
     1
  8
0
100
AcDbBlockEnd
  0
ENDSEC
  0
SECTION
  2
ENTITIES
  0
SPLINE
  5
41
330
1F
100
AcDbEntity
  8
LAYER_1
  6
AI-LINETYPE-1
 62
   250
100
AcDbSpline
210
0.0
220
0.0
230
1.0
 70
    11
 71
     3
 72
  1541
 73
  1537
 74
     0
 42
0.0000000001
 43
0.0000000001
 12
1.0
 22
0.0
 32
0.0
 13
1.0
 23
0.0
 33
0.0
 40
0.0
 40
0.0
 40
0.0
 40
0.0
 40
1.0
 40
1.0
 40
1.0
 40
2.0
 40
2.0
 40
2.0
 40
3.0
 40
3.0
 40
3.0
 40
4.0
 40
4.0
 40
4.0
 40
5.0
 40
5.0
 40
5.0
 40
6.0
 40
6.0
 40
6.0
 40
7.0
 40
7.0
 40
7.0
 40
8.0
 40
8.0
 40
8.0
 40
9.0
 40
9.0
 40
9.0
 40
10.0
 40
10.0
 40
10.0
 40
11.0
 40
11.0
 40
11.0
 40
12.0
 40
12.0
 40
12.0
 40
13.0
 40
13.0
 40
13.0
 40
14.0
 40
14.0
 40
14.0
 40
15.0
 40
15.0
 40
15.0
 40
16.0
 40
16.0
 40
16.0
 40
17.0
 40
17.0
 40
17.0
 40
18.0
 40
18.0
 40
18.0
 40
19.0
 40
19.0
 40
19.0
 40
20.0
 40
20.0
 40
20.0
 40
21.0
 40
21.0
 40
21.0
 40
22.0
 40
22.0
 40
22.0
 40
23.0
 40
23.0
 40
23.0
 40
24.0
 40
24.0
 40
24.0
 40
25.0
 40
25.0
 40
25.0
 40
26.0
 40
26.0
 40
26.0
 40
27.0
 40
27.0
 40
27.0
 40
28.0
 40
28.0
 40
28.0
 40
29.0
 40
29.0
 40
29.0
 40
30.0
 40
30.0
 40
30.0
 40
31.0
 40
31.0
 40
31.0
 40
32.0
 40
32.0
 40
32.0
 40
33.0
 40
33.0
 40
33.0
 40
34.0
 40
34.0
 40
34.0
 40
35.0
 40
35.0
 40
35.0
 40
36.0
 40
36.0
 40
36.0
 40
37.0
 40
37.0
 40
37.0
 40
38.0
 40
38.0
 40
38.0
 40
39.0
 40
39.0
 40
39.0
 40
40.0
 40
40.0
 40
40.0
 40
41.0
 40
41.0
 40
41.0
 40
42.0
 40
42.0
 40
42.0
 40
43.0
 40
43.0
 40
43.0
 40
44.0
 40
44.0
 40
44.0
 40
45.0
 40
45.0
 40
45.0
 40
46.0
 40
46.0
 40
46.0
 40
47.0
 40
47.0
 40
47.0
 40
48.0
 40
48.0
 40
48.0
 40
49.0
 40
49.0
 40
49.0
 40
50.0
 40
50.0
 40
50.0
 40
51.0
 40
51.0
 40
51.0
 40
52.0
 40
52.0
 40
52.0
 40
53.0
 40
53.0
 40
53.0
 40
54.0
 40
54.0
 40
54.0
 40
55.0
 40
55.0
 40
55.0
 40
56.0
 40
56.0
 40
56.0
 40
57.0
 40
57.0
 40
57.0
 40
58.0
 40
58.0
 40
58.0
 40
59.0
 40
59.0
 40
59.0
 40
60.0
 40
60.0
 40
60.0
 40
61.0
 40
61.0
 40
61.0
 40
62.0
 40
62.0
 40
62.0
 40
63.0
 40
63.0
 40
63.0
 40
64.0
 40
64.0
 40
64.0
 40
65.0
 40
65.0
 40
65.0
 40
66.0
 40
66.0
 40
66.0
 40
67.0
 40
67.0
 40
67.0
 40
68.0
 40
68.0
 40
68.0
 40
69.0
 40
69.0
 40
69.0
 40
70.0
 40
70.0
 40
70.0
 40
71.0
 40
71.0
 40
71.0
 40
72.0
 40
72.0
 40
72.0
 40
73.0
 40
73.0
 40
73.0
 40
74.0
 40
74.0
 40
74.0
 40
75.0
 40
75.0
 40
75.0
 40
76.0
 40
76.0
 40
76.0
 40
77.0
 40
77.0
 40
77.0
 40
78.0
 40
78.0
 40
78.0
 40
79.0
 40
79.0
 40
79.0
 40
80.0
 40
80.0
 40
80.0
 40
81.0
 40
81.0
 40
81.0
 40
82.0
 40
82.0
 40
82.0
 40
83.0
 40
83.0
 40
83.0
 40
84.0
 40
84.0
 40
84.0
 40
85.0
 40
85.0
 40
85.0
 40
86.0
 40
86.0
 40
86.0
 40
87.0
 40
87.0
 40
87.0
 40
88.0
 40
88.0
 40
88.0
 40
89.0
 40
89.0
 40
89.0
 40
90.0
 40
90.0
 40
90.0
 40
91.0
 40
91.0
 40
91.0
 40
92.0
 40
92.0
 40
92.0
 40
93.0
 40
93.0
 40
93.0
 40
94.0
 40
94.0
 40
94.0
 40
95.0
 40
95.0
 40
95.0
 40
96.0
 40
96.0
 40
96.0
 40
97.0
 40
97.0
 40
97.0
 40
98.0
 40
98.0
 40
98.0
 40
99.0
 40
99.0
 40
99.0
 40
100.0
 40
100.0
 40
100.0
 40
101.0
 40
101.0
 40
101.0
 40
102.0
 40
102.0
 40
102.0
 40
103.0
 40
103.0
 40
103.0
 40
104.0
 40
104.0
 40
104.0
 40
105.0
 40
105.0
 40
105.0
 40
106.0
 40
106.0
 40
106.0
 40
107.0
 40
107.0
 40
107.0
 40
108.0
 40
108.0
 40
108.0
 40
109.0
 40
109.0
 40
109.0
 40
110.0
 40
110.0
 40
110.0
 40
111.0
 40
111.0
 40
111.0
 40
112.0
 40
112.0
 40
112.0
 40
113.0
 40
113.0
 40
113.0
 40
114.0
 40
114.0
 40
114.0
 40
115.0
 40
115.0
 40
115.0
 40
116.0
 40
116.0
 40
116.0
 40
117.0
 40
117.0
 40
117.0
 40
118.0
 40
118.0
 40
118.0
 40
119.0
 40
119.0
 40
119.0
 40
120.0
 40
120.0
 40
120.0
 40
121.0
 40
121.0
 40
121.0
 40
122.0
 40
122.0
 40
122.0
 40
123.0
 40
123.0
 40
123.0
 40
124.0
 40
124.0
 40
124.0
 40
125.0
 40
125.0
 40
125.0
 40
126.0
 40
126.0
 40
126.0
 40
127.0
 40
127.0
 40
127.0
 40
128.0
 40
128.0
 40
128.0
 40
129.0
 40
129.0
 40
129.0
 40
130.0
 40
130.0
 40
130.0
 40
131.0
 40
131.0
 40
131.0
 40
132.0
 40
132.0
 40
132.0
 40
133.0
 40
133.0
 40
133.0
 40
134.0
 40
134.0
 40
134.0
 40
135.0
 40
135.0
 40
135.0
 40
136.0
 40
136.0
 40
136.0
 40
137.0
 40
137.0
 40
137.0
 40
138.0
 40
138.0
 40
138.0
 40
139.0
 40
139.0
 40
139.0
 40
140.0
 40
140.0
 40
140.0
 40
141.0
 40
141.0
 40
141.0
 40
142.0
 40
142.0
 40
142.0
 40
143.0
 40
143.0
 40
143.0
 40
144.0
 40
144.0
 40
144.0
 40
145.0
 40
145.0
 40
145.0
 40
146.0
 40
146.0
 40
146.0
 40
147.0
 40
147.0
 40
147.0
 40
148.0
 40
148.0
 40
148.0
 40
149.0
 40
149.0
 40
149.0
 40
150.0
 40
150.0
 40
150.0
 40
151.0
 40
151.0
 40
151.0
 40
152.0
 40
152.0
 40
152.0
 40
153.0
 40
153.0
 40
153.0
 40
154.0
 40
154.0
 40
154.0
 40
155.0
 40
155.0
 40
155.0
 40
156.0
 40
156.0
 40
156.0
 40
157.0
 40
157.0
 40
157.0
 40
158.0
 40
158.0
 40
158.0
 40
159.0
 40
159.0
 40
159.0
 40
160.0
 40
160.0
 40
160.0
 40
161.0
 40
161.0
 40
161.0
 40
162.0
 40
162.0
 40
162.0
 40
163.0
 40
163.0
 40
163.0
 40
164.0
 40
164.0
 40
164.0
 40
165.0
 40
165.0
 40
165.0
 40
166.0
 40
166.0
 40
166.0
 40
167.0
 40
167.0
 40
167.0
 40
168.0
 40
168.0
 40
168.0
 40
169.0
 40
169.0
 40
169.0
 40
170.0
 40
170.0
 40
170.0
 40
171.0
 40
171.0
 40
171.0
 40
172.0
 40
172.0
 40
172.0
 40
173.0
 40
173.0
 40
173.0
 40
174.0
 40
174.0
 40
174.0
 40
175.0
 40
175.0
 40
175.0
 40
176.0
 40
176.0
 40
176.0
 40
177.0
 40
177.0
 40
177.0
 40
178.0
 40
178.0
 40
178.0
 40
179.0
 40
179.0
 40
179.0
 40
180.0
 40
180.0
 40
180.0
 40
181.0
 40
181.0
 40
181.0
 40
182.0
 40
182.0
 40
182.0
 40
183.0
 40
183.0
 40
183.0
 40
184.0
 40
184.0
 40
184.0
 40
185.0
 40
185.0
 40
185.0
 40
186.0
 40
186.0
 40
186.0
 40
187.0
 40
187.0
 40
187.0
 40
188.0
 40
188.0
 40
188.0
 40
189.0
 40
189.0
 40
189.0
 40
190.0
 40
190.0
 40
190.0
 40
191.0
 40
191.0
 40
191.0
 40
192.0
 40
192.0
 40
192.0
 40
193.0
 40
193.0
 40
193.0
 40
194.0
 40
194.0
 40
194.0
 40
195.0
 40
195.0
 40
195.0
 40
196.0
 40
196.0
 40
196.0
 40
197.0
 40
197.0
 40
197.0
 40
198.0
 40
198.0
 40
198.0
 40
199.0
 40
199.0
 40
199.0
 40
200.0
 40
200.0
 40
200.0
 40
201.0
 40
201.0
 40
201.0
 40
202.0
 40
202.0
 40
202.0
 40
203.0
 40
203.0
 40
203.0
 40
204.0
 40
204.0
 40
204.0
 40
205.0
 40
205.0
 40
205.0
 40
206.0
 40
206.0
 40
206.0
 40
207.0
 40
207.0
 40
207.0
 40
208.0
 40
208.0
 40
208.0
 40
209.0
 40
209.0
 40
209.0
 40
210.0
 40
210.0
 40
210.0
 40
211.0
 40
211.0
 40
211.0
 40
212.0
 40
212.0
 40
212.0
 40
213.0
 40
213.0
 40
213.0
 40
214.0
 40
214.0
 40
214.0
 40
215.0
 40
215.0
 40
215.0
 40
216.0
 40
216.0
 40
216.0
 40
217.0
 40
217.0
 40
217.0
 40
218.0
 40
218.0
 40
218.0
 40
219.0
 40
219.0
 40
219.0
 40
220.0
 40
220.0
 40
220.0
 40
221.0
 40
221.0
 40
221.0
 40
222.0
 40
222.0
 40
222.0
 40
223.0
 40
223.0
 40
223.0
 40
224.0
 40
224.0
 40
224.0
 40
225.0
 40
225.0
 40
225.0
 40
226.0
 40
226.0
 40
226.0
 40
227.0
 40
227.0
 40
227.0
 40
228.0
 40
228.0
 40
228.0
 40
229.0
 40
229.0
 40
229.0
 40
230.0
 40
230.0
 40
230.0
 40
231.0
 40
231.0
 40
231.0
 40
232.0
 40
232.0
 40
232.0
 40
233.0
 40
233.0
 40
233.0
 40
234.0
 40
234.0
 40
234.0
 40
235.0
 40
235.0
 40
235.0
 40
236.0
 40
236.0
 40
236.0
 40
237.0
 40
237.0
 40
237.0
 40
238.0
 40
238.0
 40
238.0
 40
239.0
 40
239.0
 40
239.0
 40
240.0
 40
240.0
 40
240.0
 40
241.0
 40
241.0
 40
241.0
 40
242.0
 40
242.0
 40
242.0
 40
243.0
 40
243.0
 40
243.0
 40
244.0
 40
244.0
 40
244.0
 40
245.0
 40
245.0
 40
245.0
 40
246.0
 40
246.0
 40
246.0
 40
247.0
 40
247.0
 40
247.0
 40
248.0
 40
248.0
 40
248.0
 40
249.0
 40
249.0
 40
249.0
 40
250.0
 40
250.0
 40
250.0
 40
251.0
 40
251.0
 40
251.0
 40
252.0
 40
252.0
 40
252.0
 40
253.0
 40
253.0
 40
253.0
 40
254.0
 40
254.0
 40
254.0
 40
255.0
 40
255.0
 40
255.0
 40
256.0
 40
256.0
 40
256.0
 40
257.0
 40
257.0
 40
257.0
 40
258.0
 40
258.0
 40
258.0
 40
259.0
 40
259.0
 40
259.0
 40
260.0
 40
260.0
 40
260.0
 40
261.0
 40
261.0
 40
261.0
 40
262.0
 40
262.0
 40
262.0
 40
263.0
 40
263.0
 40
263.0
 40
264.0
 40
264.0
 40
264.0
 40
265.0
 40
265.0
 40
265.0
 40
266.0
 40
266.0
 40
266.0
 40
267.0
 40
267.0
 40
267.0
 40
268.0
 40
268.0
 40
268.0
 40
269.0
 40
269.0
 40
269.0
 40
270.0
 40
270.0
 40
270.0
 40
271.0
 40
271.0
 40
271.0
 40
272.0
 40
272.0
 40
272.0
 40
273.0
 40
273.0
 40
273.0
 40
274.0
 40
274.0
 40
274.0
 40
275.0
 40
275.0
 40
275.0
 40
276.0
 40
276.0
 40
276.0
 40
277.0
 40
277.0
 40
277.0
 40
278.0
 40
278.0
 40
278.0
 40
279.0
 40
279.0
 40
279.0
 40
280.0
 40
280.0
 40
280.0
 40
281.0
 40
281.0
 40
281.0
 40
282.0
 40
282.0
 40
282.0
 40
283.0
 40
283.0
 40
283.0
 40
284.0
 40
284.0
 40
284.0
 40
285.0
 40
285.0
 40
285.0
 40
286.0
 40
286.0
 40
286.0
 40
287.0
 40
287.0
 40
287.0
 40
288.0
 40
288.0
 40
288.0
 40
289.0
 40
289.0
 40
289.0
 40
290.0
 40
290.0
 40
290.0
 40
291.0
 40
291.0
 40
291.0
 40
292.0
 40
292.0
 40
292.0
 40
293.0
 40
293.0
 40
293.0
 40
294.0
 40
294.0
 40
294.0
 40
295.0
 40
295.0
 40
295.0
 40
296.0
 40
296.0
 40
296.0
 40
297.0
 40
297.0
 40
297.0
 40
298.0
 40
298.0
 40
298.0
 40
299.0
 40
299.0
 40
299.0
 40
300.0
 40
300.0
 40
300.0
 40
301.0
 40
301.0
 40
301.0
 40
302.0
 40
302.0
 40
302.0
 40
303.0
 40
303.0
 40
303.0
 40
304.0
 40
304.0
 40
304.0
 40
305.0
 40
305.0
 40
305.0
 40
306.0
 40
306.0
 40
306.0
 40
307.0
 40
307.0
 40
307.0
 40
308.0
 40
308.0
 40
308.0
 40
309.0
 40
309.0
 40
309.0
 40
310.0
 40
310.0
 40
310.0
 40
311.0
 40
311.0
 40
311.0
 40
312.0
 40
312.0
 40
312.0
 40
313.0
 40
313.0
 40
313.0
 40
314.0
 40
314.0
 40
314.0
 40
315.0
 40
315.0
 40
315.0
 40
316.0
 40
316.0
 40
316.0
 40
317.0
 40
317.0
 40
317.0
 40
318.0
 40
318.0
 40
318.0
 40
319.0
 40
319.0
 40
319.0
 40
320.0
 40
320.0
 40
320.0
 40
321.0
 40
321.0
 40
321.0
 40
322.0
 40
322.0
 40
322.0
 40
323.0
 40
323.0
 40
323.0
 40
324.0
 40
324.0
 40
324.0
 40
325.0
 40
325.0
 40
325.0
 40
326.0
 40
326.0
 40
326.0
 40
327.0
 40
327.0
 40
327.0
 40
328.0
 40
328.0
 40
328.0
 40
329.0
 40
329.0
 40
329.0
 40
330.0
 40
330.0
 40
330.0
 40
331.0
 40
331.0
 40
331.0
 40
332.0
 40
332.0
 40
332.0
 40
333.0
 40
333.0
 40
333.0
 40
334.0
 40
334.0
 40
334.0
 40
335.0
 40
335.0
 40
335.0
 40
336.0
 40
336.0
 40
336.0
 40
337.0
 40
337.0
 40
337.0
 40
338.0
 40
338.0
 40
338.0
 40
339.0
 40
339.0
 40
339.0
 40
340.0
 40
340.0
 40
340.0
 40
341.0
 40
341.0
 40
341.0
 40
342.0
 40
342.0
 40
342.0
 40
343.0
 40
343.0
 40
343.0
 40
344.0
 40
344.0
 40
344.0
 40
345.0
 40
345.0
 40
345.0
 40
346.0
 40
346.0
 40
346.0
 40
347.0
 40
347.0
 40
347.0
 40
348.0
 40
348.0
 40
348.0
 40
349.0
 40
349.0
 40
349.0
 40
350.0
 40
350.0
 40
350.0
 40
351.0
 40
351.0
 40
351.0
 40
352.0
 40
352.0
 40
352.0
 40
353.0
 40
353.0
 40
353.0
 40
354.0
 40
354.0
 40
354.0
 40
355.0
 40
355.0
 40
355.0
 40
356.0
 40
356.0
 40
356.0
 40
357.0
 40
357.0
 40
357.0
 40
358.0
 40
358.0
 40
358.0
 40
359.0
 40
359.0
 40
359.0
 40
360.0
 40
360.0
 40
360.0
 40
361.0
 40
361.0
 40
361.0
 40
362.0
 40
362.0
 40
362.0
 40
363.0
 40
363.0
 40
363.0
 40
364.0
 40
364.0
 40
364.0
 40
365.0
 40
365.0
 40
365.0
 40
366.0
 40
366.0
 40
366.0
 40
367.0
 40
367.0
 40
367.0
 40
368.0
 40
368.0
 40
368.0
 40
369.0
 40
369.0
 40
369.0
 40
370.0
 40
370.0
 40
370.0
 40
371.0
 40
371.0
 40
371.0
 40
372.0
 40
372.0
 40
372.0
 40
373.0
 40
373.0
 40
373.0
 40
374.0
 40
374.0
 40
374.0
 40
375.0
 40
375.0
 40
375.0
 40
376.0
 40
376.0
 40
376.0
 40
377.0
 40
377.0
 40
377.0
 40
378.0
 40
378.0
 40
378.0
 40
379.0
 40
379.0
 40
379.0
 40
380.0
 40
380.0
 40
380.0
 40
381.0
 40
381.0
 40
381.0
 40
382.0
 40
382.0
 40
382.0
 40
383.0
 40
383.0
 40
383.0
 40
384.0
 40
384.0
 40
384.0
 40
385.0
 40
385.0
 40
385.0
 40
386.0
 40
386.0
 40
386.0
 40
387.0
 40
387.0
 40
387.0
 40
388.0
 40
388.0
 40
388.0
 40
389.0
 40
389.0
 40
389.0
 40
390.0
 40
390.0
 40
390.0
 40
391.0
 40
391.0
 40
391.0
 40
392.0
 40
392.0
 40
392.0
 40
393.0
 40
393.0
 40
393.0
 40
394.0
 40
394.0
 40
394.0
 40
395.0
 40
395.0
 40
395.0
 40
396.0
 40
396.0
 40
396.0
 40
397.0
 40
397.0
 40
397.0
 40
398.0
 40
398.0
 40
398.0
 40
399.0
 40
399.0
 40
399.0
 40
400.0
 40
400.0
 40
400.0
 40
401.0
 40
401.0
 40
401.0
 40
402.0
 40
402.0
 40
402.0
 40
403.0
 40
403.0
 40
403.0
 40
404.0
 40
404.0
 40
404.0
 40
405.0
 40
405.0
 40
405.0
 40
406.0
 40
406.0
 40
406.0
 40
407.0
 40
407.0
 40
407.0
 40
408.0
 40
408.0
 40
408.0
 40
409.0
 40
409.0
 40
409.0
 40
410.0
 40
410.0
 40
410.0
 40
411.0
 40
411.0
 40
411.0
 40
412.0
 40
412.0
 40
412.0
 40
413.0
 40
413.0
 40
413.0
 40
414.0
 40
414.0
 40
414.0
 40
415.0
 40
415.0
 40
415.0
 40
416.0
 40
416.0
 40
416.0
 40
417.0
 40
417.0
 40
417.0
 40
418.0
 40
418.0
 40
418.0
 40
419.0
 40
419.0
 40
419.0
 40
420.0
 40
420.0
 40
420.0
 40
421.0
 40
421.0
 40
421.0
 40
422.0
 40
422.0
 40
422.0
 40
423.0
 40
423.0
 40
423.0
 40
424.0
 40
424.0
 40
424.0
 40
425.0
 40
425.0
 40
425.0
 40
426.0
 40
426.0
 40
426.0
 40
427.0
 40
427.0
 40
427.0
 40
428.0
 40
428.0
 40
428.0
 40
429.0
 40
429.0
 40
429.0
 40
430.0
 40
430.0
 40
430.0
 40
431.0
 40
431.0
 40
431.0
 40
432.0
 40
432.0
 40
432.0
 40
433.0
 40
433.0
 40
433.0
 40
434.0
 40
434.0
 40
434.0
 40
435.0
 40
435.0
 40
435.0
 40
436.0
 40
436.0
 40
436.0
 40
437.0
 40
437.0
 40
437.0
 40
438.0
 40
438.0
 40
438.0
 40
439.0
 40
439.0
 40
439.0
 40
440.0
 40
440.0
 40
440.0
 40
441.0
 40
441.0
 40
441.0
 40
442.0
 40
442.0
 40
442.0
 40
443.0
 40
443.0
 40
443.0
 40
444.0
 40
444.0
 40
444.0
 40
445.0
 40
445.0
 40
445.0
 40
446.0
 40
446.0
 40
446.0
 40
447.0
 40
447.0
 40
447.0
 40
448.0
 40
448.0
 40
448.0
 40
449.0
 40
449.0
 40
449.0
 40
450.0
 40
450.0
 40
450.0
 40
451.0
 40
451.0
 40
451.0
 40
452.0
 40
452.0
 40
452.0
 40
453.0
 40
453.0
 40
453.0
 40
454.0
 40
454.0
 40
454.0
 40
455.0
 40
455.0
 40
455.0
 40
456.0
 40
456.0
 40
456.0
 40
457.0
 40
457.0
 40
457.0
 40
458.0
 40
458.0
 40
458.0
 40
459.0
 40
459.0
 40
459.0
 40
460.0
 40
460.0
 40
460.0
 40
461.0
 40
461.0
 40
461.0
 40
462.0
 40
462.0
 40
462.0
 40
463.0
 40
463.0
 40
463.0
 40
464.0
 40
464.0
 40
464.0
 40
465.0
 40
465.0
 40
465.0
 40
466.0
 40
466.0
 40
466.0
 40
467.0
 40
467.0
 40
467.0
 40
468.0
 40
468.0
 40
468.0
 40
469.0
 40
469.0
 40
469.0
 40
470.0
 40
470.0
 40
470.0
 40
471.0
 40
471.0
 40
471.0
 40
472.0
 40
472.0
 40
472.0
 40
473.0
 40
473.0
 40
473.0
 40
474.0
 40
474.0
 40
474.0
 40
475.0
 40
475.0
 40
475.0
 40
476.0
 40
476.0
 40
476.0
 40
477.0
 40
477.0
 40
477.0
 40
478.0
 40
478.0
 40
478.0
 40
479.0
 40
479.0
 40
479.0
 40
480.0
 40
480.0
 40
480.0
 40
481.0
 40
481.0
 40
481.0
 40
482.0
 40
482.0
 40
482.0
 40
483.0
 40
483.0
 40
483.0
 40
484.0
 40
484.0
 40
484.0
 40
485.0
 40
485.0
 40
485.0
 40
486.0
 40
486.0
 40
486.0
 40
487.0
 40
487.0
 40
487.0
 40
488.0
 40
488.0
 40
488.0
 40
489.0
 40
489.0
 40
489.0
 40
490.0
 40
490.0
 40
490.0
 40
491.0
 40
491.0
 40
491.0
 40
492.0
 40
492.0
 40
492.0
 40
493.0
 40
493.0
 40
493.0
 40
494.0
 40
494.0
 40
494.0
 40
495.0
 40
495.0
 40
495.0
 40
496.0
 40
496.0
 40
496.0
 40
497.0
 40
497.0
 40
497.0
 40
498.0
 40
498.0
 40
498.0
 40
499.0
 40
499.0
 40
499.0
 40
500.0
 40
500.0
 40
500.0
 40
501.0
 40
501.0
 40
501.0
 40
502.0
 40
502.0
 40
502.0
 40
503.0
 40
503.0
 40
503.0
 40
504.0
 40
504.0
 40
504.0
 40
505.0
 40
505.0
 40
505.0
 40
506.0
 40
506.0
 40
506.0
 40
507.0
 40
507.0
 40
507.0
 40
508.0
 40
508.0
 40
508.0
 40
509.0
 40
509.0
 40
509.0
 40
510.0
 40
510.0
 40
510.0
 40
511.0
 40
511.0
 40
511.0
 40
512.0
 40
512.0
 40
512.0
 40
512.0
 10
18.58879824404502
 20
-10.8896541022659
 30
0.0
 10
18.58879824404502
 20
-10.91705270668271
 30
0.0
 10
18.58862472159431
 20
-10.94441078260677
 30
0.0
 10
18.58827871570822
 20
-10.97172729101826
 30
0.0
 10
18.58793270982278
 20
-10.99904379942943
 30
0.0
 10
18.5874142205026
 20
-11.0263187403277
 30
0.0
 10
18.58672428676431
 20
-11.05355107469259
 30
0.0
 10
18.58603435302603
 20
-11.08078340905749
 30
0.0
 10
18.58517297486964
 20
-11.10797313688901
 30
0.0
 10
18.58414119131177
 20
-11.13511921916668
 30
0.0
 10
18.5831094077539
 20
-11.16226530144404
 30
0.0
 10
18.5819072187939
 20
-11.18936773816818
 30
0.0
 10
18.58053566344969
 20
-11.21642549031768
 30
0.0
 10
18.57916410810549
 20
-11.24348324246718
 30
0.0
 10
18.57762318637578
 20
-11.27049631004268
 30
0.0
 10
18.5759139372772
 20
-11.2974636540237
 30
0.0
 10
18.57420468817927
 20
-11.32443099800472
 30
0.0
 10
18.57232711171246
 20
-11.35135261839126
 30
0.0
 10
18.5702822468934
 20
-11.3782274761622
 30
0.0
 10
18.56823738207434
 20
-11.40510233393315
 30
0.0
 10
18.56602522890368
 20
-11.43193042908914
 30
0.0
 10
18.56364682639676
 20
-11.4587107226097
 30
0.0
 10
18.56126842389047
 20
-11.48549101613026
 30
0.0
 10
18.55872377204793
 20
-11.51222350801539
 30
0.0
 10
18.55601390988702
 20
-11.53890715924526
 30
0.0
 10
18.55330404772612
 20
-11.56559081047513
 30
0.0
 10
18.55042897524558
 20
-11.59222562104845
 30
0.0
 10
18.54738973146202
 20
-11.61881055194603
 30
0.0
 10
18.54435048767911
 20
-11.64539548284361
 30
0.0
 10
18.54114707259318
 20
-11.67193053406482
 30
0.0
 10
18.53778052522151
 20
-11.69841466658917
 30
0.0
 10
18.53441397784984
 20
-11.72489879911416
 30
0.0
 10
18.53088429819178
 20
-11.75133201294229
 30
0.0
 10
18.52719252526459
 20
-11.77771326905309
 30
0.0
 10
18.52350075233677
 20
-11.8040945251639
 30
0.0
 10
18.51964688613982
 20
-11.83042382355801
 30
0.0
 10
18.51563196568974
 20
-11.85670012521432
 30
0.0
 10
18.51161704523965
 20
-11.88297642687063
 30
0.0
 10
18.50744107053579
 20
-11.90919973178913
 30
0.0
 10
18.50310508059541
 20
-11.93536900095063
 30
0.0
 10
18.49876909065568
 20
-11.9615382701115
 30
0.0
 10
18.49427308547879
 20
-11.98765350351472
 30
0.0
 10
18.48961810408201
 20
-12.01371366213982
 30
0.0
 10
18.48496312268524
 20
-12.03977382076493
 30
0.0
 10
18.48014916506793
 20
-12.06577890461192
 30
0.0
 10
18.47517727024736
 20
-12.09172787465968
 30
0.0
 10
18.47020537542679
 20
-12.11767684470808
 30
0.0
 10
18.46507554340232
 20
-12.14356970095725
 30
0.0
 10
18.45978881319057
 20
-12.169405404388
 30
0.0
 10
18.45450208297882
 20
-12.19524110781874
 30
0.0
 10
18.44905845457978
 20
-12.22101965842978
 30
0.0
 10
18.44345896701074
 20
-12.24674001720192
 30
0.0
 10
18.4378594794417
 20
-12.27246037597341
 30
0.0
 10
18.43210413270136
 20
-12.29812254290601
 30
0.0
 10
18.42619396580699
 20
-12.32372547897859
 30
0.0
 10
18.42028379891263
 20
-12.34932841505117
 30
0.0
 10
18.41421881186423
 20
-12.37487212026373
 30
0.0
 10
18.40800004367779
 20
-12.4003555555958
 30
0.0
 10
18.40178127549199
 20
-12.42583899092851
 30
0.0
 10
18.39540872616815
 20
-12.45126215638009
 30
0.0
 10
18.38888343472289
 20
-12.47662401293135
 30
0.0
 10
18.38235814327762
 20
-12.5019858694826
 30
0.0
 10
18.37568010971158
 20
-12.52728641713353
 30
0.0
 10
18.3688503730401
 20
-12.55252461686301
 30
0.0
 10
18.36202063636926
 20
-12.5777628165925
 30
0.0
 10
18.35503919659363
 20
-12.60293866840118
 30
0.0
 10
18.34790709272983
 20
-12.62805113326859
 30
0.0
 10
18.34077498886603
 20
-12.65316359813535
 30
0.0
 10
18.33349222091405
 20
-12.67821267606084
 30
0.0
 10
18.32605982789054
 20
-12.70319732802458
 30
0.0
 10
18.31862743486638
 20
-12.72818197998832
 30
0.0
 10
18.31104541677132
 20
-12.75310220598966
 30
0.0
 10
18.30331481262006
 20
-12.77795696700942
 30
0.0
 10
18.2955842084688
 20
-12.80281172802918
 30
0.0
 10
18.28770501826325
 20
-12.82760102406607
 30
0.0
 10
18.27967828101814
 20
-12.85232381610025
 30
0.0
 10
18.27165154377366
 20
-12.87704660813444
 30
0.0
 10
18.26347725949024
 20
-12.90170289616593
 30
0.0
 10
18.25515646718452
 20
-12.92629164117423
 30
0.0
 10
18.2468356748788
 20
-12.95088038618254
 30
0.0
 10
18.23836837455077
 20
-12.97540158816831
 30
0.0
 10
18.22975560521705
 20
-12.99985420811043
 30
0.0
 10
18.22114283588333
 20
-13.0243068280519
 30
0.0
 10
18.21238459754456
 20
-13.04869086595101
 30
0.0
 10
18.20348192921546
 20
-13.07300528278534
 30
0.0
 10
18.19457926088699
 20
-13.09731969961968
 30
0.0
 10
18.18553216256947
 20
-13.12156449539053
 30
0.0
 10
18.17634167327822
 20
-13.14573863107677
 30
0.0
 10
18.16715118398762
 20
-13.16991276676302
 30
0.0
 10
18.15781730372394
 20
-13.19401624236466
 30
0.0
 10
18.14834107150445
 20
-13.21804801886186
 30
0.0
 10
18.13886483928496
 20
-13.24207979535906
 30
0.0
 10
18.12924625510838
 20
-13.26603987275183
 30
0.0
 10
18.11948635799261
 20
-13.28992721201904
 30
0.0
 10
18.10972646087684
 20
-13.31381455128625
 30
0.0
 10
18.09982525082125
 20
-13.33762915242919
 30
0.0
 10
18.08978376684246
 20
-13.36136997642546
 30
0.0
 10
18.07974228286366
 20
-13.38511080042172
 30
0.0
 10
18.06956052496166
 20
-13.40877784727324
 30
0.0
 10
18.05923953215245
 20
-13.43237007795826
 30
0.0
 10
18.04891853934387
 20
-13.45596230864392
 30
0.0
 10
18.03845831162744
 20
-13.47947972316307
 30
0.0
 10
18.0278598880217
 20
-13.50292128249588
 30
0.0
 10
18.01726146441596
 20
-13.52636284182869
 30
0.0
 10
18.00652484491962
 20
-13.54972854597517
 30
0.0
 10
17.99565106854932
 20
-13.57301735591483
 30
0.0
 10
17.98477729217902
 20
-13.59630616585449
 30
0.0
 10
17.97376635893475
 20
-13.61951808158733
 30
0.0
 10
17.96261930783378
 20
-13.64265206409353
 30
0.0
 10
17.95147225673281
 20
-13.66578604659908
 30
0.0
 10
17.94018908777385
 20
-13.68884209587799
 30
0.0
 10
17.92877083997418
 20
-13.71181917290849
 30
0.0
 10
17.91735259217515
 20
-13.73479624993963
 30
0.0
 10
17.90579926553476
 20
-13.75769435472301
 30
0.0
 10
17.89411189907028
 20
-13.78051244823879
 30
0.0
 10
17.8824245326058
 20
-13.80333054175456
 30
0.0
 10
17.87060312631658
 20
-13.8260686240021
 30
0.0
 10
17.8586487192199
 20
-13.84872565596092
 30
0.0
 10
17.84669431212322
 20
-13.87138268792039
 30
0.0
 10
17.83460690421843
 20
-13.89395866959113
 30
0.0
 10
17.8223875345228
 20
-13.91645256195333
 30
0.0
 10
17.81016816482717
 20
-13.93894645431553
 30
0.0
 10
17.79781683333941
 20
-13.96135825736853
 30
0.0
 10
17.78533457907744
 20
-13.98368693209252
 30
0.0
 10
17.77285232481546
 20
-14.0060156068165
 30
0.0
 10
17.76023914777799
 20
-14.02826115321145
 30
0.0
 10
17.74749608698292
 20
-14.05042253225691
 30
0.0
 10
17.73475302618786
 20
-14.07258391130237
 30
0.0
 10
17.72188008163392
 20
-14.09466112299768
 30
0.0
 10
17.70887829233901
 20
-14.11665312832366
 30
0.0
 10
17.69587650304346
 20
-14.138645133649
 30
0.0
 10
17.68274586900567
 20
-14.160551932605
 30
0.0
 10
17.66948742924353
 20
-14.18237248616992
 30
0.0
 10
17.65622898948075
 20
-14.20419303973483
 30
0.0
 10
17.64284274399234
 20
-14.22592734790993
 30
0.0
 10
17.62932973179558
 20
-14.24757437167411
 30
0.0
 10
17.61581671959818
 20
-14.26922139543828
 30
0.0
 10
17.60217694069242
 20
-14.29078113479153
 30
0.0
 10
17.58841143409428
 20
-14.31225255071338
 30
0.0
 10
17.5746459274955
 20
-14.33372396663523
 30
0.0
 10
17.56075469320499
 20
-14.35510705912568
 30
0.0
 10
17.54673877023809
 20
-14.37640078916489
 30
0.0
 10
17.53272284727183
 20
-14.3976945192041
 30
0.0
 10
17.51858223562919
 20
-14.41889888679207
 30
0.0
 10
17.50431797432741
 20
-14.4400128529077
 30
0.0
 10
17.49005371302564
 20
-14.46112681902332
 30
0.0
 10
17.47566580206474
 20
-14.48215038366659
 30
0.0
 10
17.46115528046007
 20
-14.50308250781768
 30
0.0
 10
17.44664475885603
 20
-14.52401463196876
 30
0.0
 10
17.43201162660885
 20
-14.54485531562766
 30
0.0
 10
17.41725692273516
 20
-14.56560351977325
 30
0.0
 10
17.40250221886211
 20
-14.58635172391885
 30
0.0
 10
17.3876259433619
 20
-14.60700744855243
 30
0.0
 10
17.3726291352518
 20
-14.62756965465158
 30
0.0
 10
17.35763232714234
 20
-14.64813186075138
 30
0.0
 10
17.34251498642236
 20
-14.66860054831804
 30
0.0
 10
17.32727815210911
 20
-14.68897467833109
 30
0.0
 10
17.31204131779585
 20
-14.70934880834414
 30
0.0
 10
17.29668498988934
 20
-14.72962838080293
 30
0.0
 10
17.28121020740554
 20
-14.74981235668828
 30
0.0
 10
17.26573542492238
 20
-14.76999633257298
 30
0.0
 10
17.25014218786194
 20
-14.79008471188424
 30
0.0
 10
17.23443153524085
 20
-14.81007645560094
 30
0.0
 10
17.2187208826204
 20
-14.83006819931764
 30
0.0
 10
17.20289281443864
 20
-14.84996330743977
 30
0.0
 10
17.18694836971351
 20
-14.86976074094687
 30
0.0
 10
17.17100392498773
 20
-14.88955817445461
 30
0.0
 10
17.15494310371855
 20
-14.90925793334731
 30
0.0
 10
17.13876694492198
 20
-14.9288589786045
 30
0.0
 10
17.1225907861254
 20
-14.94846002386168
 30
0.0
 10
17.10629928980078
 20
-14.967962355484
 30
0.0
 10
17.08989349496537
 20
-14.98736493445032
 30
0.0
 10
17.07348770013061
 20
-15.00676751341665
 30
0.0
 10
17.05696760678378
 20
-15.02607033972698
 30
0.0
 10
17.04033425394344
 20
-15.0452723743615
 30
0.0
 10
17.0237009011031
 20
-15.06447440899601
 30
0.0
 10
17.00695428876796
 20
-15.0835756519547
 30
0.0
 10
16.99009545595465
 20
-15.10257506421709
 30
0.0
 10
16.97323662314134
 20
-15.12157447647884
 30
0.0
 10
16.95626556984986
 20
-15.1404720580443
 30
0.0
 10
16.93918333509747
 20
-15.15926676989298
 30
0.0
 10
16.92210110034509
 20
-15.17806148174166
 30
0.0
 10
16.90490768413115
 20
-15.19675332387356
 30
0.0
 10
16.8876041254723
 20
-15.21534125726758
 30
0.0
 10
16.8703005668128
 20
-15.23392919066224
 30
0.0
 10
16.85288686570902
 20
-15.252413215319
 30
0.0
 10
16.83536406117631
 20
-15.27079229221869
 30
0.0
 10
16.81784125664423
 20
-15.28917136911837
 30
0.0
 10
16.80020934868322
 20
-15.30744549826033
 30
0.0
 10
16.78246937630989
 20
-15.32561364062409
 30
0.0
 10
16.76472940393657
 20
-15.34378178298786
 30
0.0
 10
16.74688136715157
 20
-15.36184393857342
 30
0.0
 10
16.72892630497089
 20
-15.3797990683603
 30
0.0
 10
16.7109712427902
 20
-15.39775419814719
 30
0.0
 10
16.69290915521383
 20
-15.41560230213604
 30
0.0
 10
16.67474108125904
 20
-15.43334234130575
 30
0.0
 10
16.65657300730361
 20
-15.45108238047545
 30
0.0
 10
16.63829894696911
 20
-15.468714354826
 30
0.0
 10
16.61991993927282
 20
-15.48623722533757
 30
0.0
 10
16.60154093157652
 20
-15.50376009584914
 30
0.0
 10
16.58305697651715
 20
-15.52117386252108
 30
0.0
 10
16.56446911311197
 20
-15.53847748633357
 30
0.0
 10
16.54588124970614
 20
-15.55578111014605
 30
0.0
 10
16.52718947795514
 20
-15.57297459109908
 30
0.0
 10
16.50839483687431
 20
-15.59005689017153
 30
0.0
 10
16.48960019579349
 20
-15.60713918924397
 30
0.0
 10
16.47070268538283
 20
-15.62411030643649
 30
0.0
 10
16.45170334465962
 20
-15.64096920272859
 30
0.0
 10
16.4327040039364
 20
-15.6578280990207
 30
0.0
 10
16.41360283289998
 20
-15.67457477441239
 30
0.0
 10
16.39440087056634
 20
-15.69120818988256
 30
0.0
 10
16.37519890823334
 20
-15.70784160535272
 30
0.0
 10
16.35589615460376
 20
-15.72436176090265
 30
0.0
 10
16.33649364869423
 20
-15.74076761751121
 30
0.0
 10
16.31709114278405
 20
-15.75717347411913
 30
0.0
 10
16.29758888459457
 20
-15.77346503178569
 30
0.0
 10
16.27798791314111
 20
-15.78964125149106
 30
0.0
 10
16.25838694168766
 20
-15.80581747119642
 30
0.0
 10
16.23868725697088
 20
-15.82187835293995
 30
0.0
 10
16.21888989800675
 20
-15.83782285770117
 30
0.0
 10
16.19909253904262
 20
-15.85376736246239
 30
0.0
 10
16.17919750583115
 20
-15.8695954902413
 30
0.0
 10
16.1592058373896
 20
-15.88530620201806
 30
0.0
 10
16.13921416894805
 20
-15.90101691379482
 30
0.0
 10
16.11912586527578
 20
-15.9166102095688
 30
0.0
 10
16.09894196538942
 20
-15.93208505031951
 30
0.0
 10
16.07875806550305
 20
-15.94755989107022
 30
0.0
 10
16.0584785694026
 20
-15.96291627679896
 30
0.0
 10
16.03810451610467
 20
-15.97815316848331
 30
0.0
 10
16.01773046280674
 20
-15.99339006016767
 30
0.0
 10
15.99726185231134
 20
-16.00850745780892
 30
0.0
 10
15.97669972363446
 20
-16.02350432238661
 30
0.0
 10
15.95613759495757
 20
-16.0385011869643
 30
0.0
 10
15.93548194809921
 20
-16.05337751847842
 30
0.0
 10
15.91473382207662
 20
-16.06813227790785
 30
0.0
 10
15.89398569605403
 20
-16.08288703733728
 30
0.0
 10
15.87314509086723
 20
-16.0975202246833
 30
0.0
 10
15.85221304553154
 20
-16.11203080092416
 30
0.0
 10
15.8312810001965
 20
-16.12654137716502
 30
0.0
 10
15.81025751471258
 20
-16.14092934230136
 30
0.0
 10
15.78914362809769
 20
-16.1551936573127
 30
0.0
 10
15.76802974148281
 20
-16.16945797232404
 30
0.0
 10
15.74682545373567
 20
-16.18359863721038
 30
0.0
 10
15.72553180387418
 20
-16.19761461295125
 30
0.0
 10
15.70423815401206
 20
-16.21163058869212
 30
0.0
 10
15.68285514203559
 20
-16.22552187528816
 30
0.0
 10
15.66138380695948
 20
-16.23928743371761
 30
0.0
 10
15.63991247188401
 20
-16.25305299214707
 30
0.0
 10
15.61835281370954
 20
-16.26669282241121
 30
0.0
 10
15.59670587145333
 20
-16.28020588548893
 30
0.0
 10
15.57505892919648
 20
-16.29371894856665
 30
0.0
 10
15.55332470285854
 20
-16.30710524445859
 30
0.0
 10
15.53150423145421
 20
-16.32036373414363
 30
0.0
 10
15.50968376004988
 20
-16.33362222382867
 30
0.0
 10
15.48777704357979
 20
-16.34675290730681
 30
0.0
 10
15.46578512106058
 20
-16.35975474555886
 30
0.0
 10
15.44379319854201
 20
-16.37275658381027
 30
0.0
 10
15.42171606997303
 20
-16.38562957683495
 30
0.0
 10
15.39955477437219
 20
-16.39837268561178
 30
0.0
 10
15.37739347877135
 20
-16.4111157943886
 30
0.0
 10
15.35514801613802
 20
-16.42372901891822
 30
0.0
 10
15.33281942548816
 20
-16.43621132017952
 30
0.0
 10
15.3104908348383
 20
-16.44869362144145
 30
0.0
 10
15.28807911617193
 20
-16.46104499943507
 30
0.0
 10
15.2655853085063
 20
-16.47326441514116
 30
0.0
 10
15.24309150084068
 20
-16.48548383084725
 30
0.0
 10
15.22051560417516
 20
-16.49757128426455
 30
0.0
 10
15.19785865752638
 20
-16.50952573637321
 30
0.0
 10
15.17520171087759
 20
-16.52148018848187
 30
0.0
 10
15.15246371424618
 20
-16.5333016392819
 30
0.0
 10
15.12964570664749
 20
-16.54498904975346
 30
0.0
 10
15.10682769904944
 20
-16.55667646022502
 30
0.0
 10
15.0839296804841
 20
-16.56822983036683
 30
0.0
 10
15.06095268996875
 20
-16.57964812115969
 30
0.0
 10
15.0379756994534
 20
-16.59106641195192
 30
0.0
 10
15.01491973698803
 20
-16.6023496233952
 30
0.0
 10
14.99178584158863
 20
-16.61349671646906
 30
0.0
 10
14.96865194618922
 20
-16.62464380954292
 30
0.0
 10
14.94544011785579
 20
-16.63565478424609
 30
0.0
 10
14.92215139560559
 20
-16.64652860155935
 30
0.0
 10
14.89886267335539
 20
-16.65740241887262
 30
0.0
 10
14.87549705718777
 20
-16.668139078796
 30
0.0
 10
14.85205558611938
 20
-16.67873754230836
 30
0.0
 10
14.82861411505163
 20
-16.68933600582072
 30
0.0
 10
14.80509678908245
 20
-16.69979627292272
 30
0.0
 10
14.78150464722912
 20
-16.71011730459387
 30
0.0
 10
14.75791250537643
 20
-16.72043833626438
 30
0.0
 10
14.73424554763829
 20
-16.73062013250404
 30
0.0
 10
14.71050481303327
 20
-16.74066165429238
 30
0.0
 10
14.68676407842824
 20
-16.75070317608073
 30
0.0
 10
14.66294956695504
 20
-16.76060442341775
 30
0.0
 10
14.6390623176303
 20
-16.77036435728234
 30
0.0
 10
14.61517506830619
 20
-16.78012429114693
 30
0.0
 10
14.59121508113053
 20
-16.78974291154037
 30
0.0
 10
14.5671833951206
 20
-16.79921917944089
 30
0.0
 10
14.54315170911066
 20
-16.80869544734141
 30
0.0
 10
14.51904832426515
 20
-16.81802936275031
 30
0.0
 10
14.49487427960199
 20
-16.82721988664581
 30
0.0
 10
14.47070023493883
 20
-16.83641041054132
 30
0.0
 10
14.44645553045673
 20
-16.84545754292472
 30
0.0
 10
14.4221412051736
 20
-16.8543602447749
 30
0.0
 10
14.39782687989046
 20
-16.86326294662508
 30
0.0
 10
14.37344293380502
 20
-16.87202121794205
 30
0.0
 10
14.34899040593452
 20
-16.88063401970531
 30
0.0
 10
14.32453787806466
 20
-16.88924682146921
 30
0.0
 10
14.30001676840848
 20
-16.89771415367942
 30
0.0
 10
14.27542811598451
 20
-16.90603497731546
 30
0.0
 10
14.2508394635599
 20
-16.91435580095149
 30
0.0
 10
14.22618326836622
 20
-16.922530116014
 30
0.0
 10
14.20146056942074
 20
-16.93055688348186
 30
0.0
 10
14.17673787047527
 20
-16.93858365094972
 30
0.0
 10
14.15194866777736
 20
-16.94646287082293
 30
0.0
 10
14.12709400034363
 20
-16.95419350408231
 30
0.0
 10
14.1022393329099
 20
-16.96192413734104
 30
0.0
 10
14.07731920074036
 20
-16.96950618398529
 30
0.0
 10
14.05233464285162
 20
-16.97693860499458
 30
0.0
 10
14.02735008496289
 20
-16.98437102600324
 30
0.0
 10
14.00230110135433
 20
-16.99165382137758
 30
0.0
 10
13.9771887310432
 20
-16.99878595209584
 30
0.0
 10
13.95207636073271
 20
-17.00591808281411
 30
0.0
 10
13.92690060371837
 20
-17.01289954887758
 30
0.0
 10
13.90166249901874
 20
-17.01972931126451
 30
0.0
 10
13.87642439431847
 20
-17.02655907365143
 30
0.0
 10
13.85112394193161
 20
-17.03323713236309
 30
0.0
 10
13.82576218087545
 20
-17.03976244837773
 30
0.0
 10
13.80040041981928
 20
-17.04628776439237
 30
0.0
 10
13.77497735009315
 20
-17.05266033771126
 30
0.0
 10
13.7494940107137
 20
-17.05887912931266
 30
0.0
 10
13.72401067133424
 20
-17.0650979209147
 30
0.0
 10
13.69846706230146
 20
-17.07116293079988
 30
0.0
 10
13.67286422263132
 20
-17.07707311994773
 30
0.0
 10
13.64726138296183
 20
-17.08298330909558
 30
0.0
 10
13.62159931265499
 20
-17.08873867750673
 30
0.0
 10
13.59587905072872
 20
-17.09433818615944
 30
0.0
 10
13.57015878880116
 20
-17.09993769481279
 30
0.0
 10
13.54438033525416
 20
-17.10538134370833
 30
0.0
 10
13.51854472910306
 20
-17.11066809382622
 30
0.0
 10
13.49270912295197
 20
-17.11595484394412
 30
0.0
 10
13.46681636419678
 20
-17.12108469528374
 30
0.0
 10
13.44086749185475
 20
-17.12605660882523
 30
0.0
 10
13.41491861951273
 20
-17.13102852236673
 30
0.0
 10
13.38891363358324
 20
-17.13584249811011
 30
0.0
 10
13.36285357308225
 20
-17.14049749703425
 30
0.0
 10
13.33679351258127
 20
-17.1451524959584
 30
0.0
 10
13.31067837751009
 20
-17.14964851806459
 30
0.0
 10
13.28450920688404
 20
-17.15398452433107
 30
0.0
 10
13.25834003625799
 20
-17.15832053059756
 30
0.0
 10
13.23211683007836
 20
-17.16249652102497
 30
0.0
 10
13.20584062735985
 20
-17.16651145659284
 30
0.0
 10
13.17956442464134
 20
-17.17052639216072
 30
0.0
 10
13.15323522538524
 20
-17.17438027286904
 30
0.0
 10
13.12685406860816
 20
-17.17807205969735
 30
0.0
 10
13.10047291183044
 20
-17.18176384652502
 30
0.0
 10
13.07403979753176
 20
-17.18529353947331
 30
0.0
 10
13.04755576472808
 20
-17.18866009952111
 30
0.0
 10
13.0210717319244
 20
-17.1920266595689
 30
0.0
 10
12.9945367806151
 20
-17.19523008671685
 30
0.0
 10
12.96795194981808
 20
-17.19826934194318
 30
0.0
 10
12.94136711902105
 20
-17.20130859717015
 30
0.0
 10
12.91473240873502
 20
-17.20418368047552
 30
0.0
 10
12.8880488579779
 20
-17.20689355284072
 30
0.0
 10
12.86136530722077
 20
-17.20960342520592
 30
0.0
 10
12.83463291599127
 20
-17.21214808662903
 30
0.0
 10
12.80785272330601
 20
-17.21452649809087
 30
0.0
 10
12.78107253062075
 20
-17.21690490955335
 30
0.0
 10
12.75424453648103
 20
-17.21911707105326
 30
0.0
 10
12.72736977990153
 20
-17.22116194357206
 30
0.0
 10
12.70049502332203
 20
-17.22320681609087
 30
0.0
 10
12.67357350430405
 20
-17.22508439962727
 30
0.0
 10
12.64660626186356
 20
-17.22679365516145
 30
0.0
 10
12.61963901942307
 20
-17.22850291069563
 30
0.0
 10
12.59262605356008
 20
-17.23004383822758
 30
0.0
 10
12.56556840329121
 20
-17.23141539873618
 30
0.0
 10
12.53851075302234
 20
-17.23278695924478
 30
0.0
 10
12.51140841834759
 20
-17.23398915273132
 30
0.0
 10
12.48426243828295
 20
-17.23502094017404
 30
0.0
 10
12.45711645821831
 20
-17.23605272761676
 30
0.0
 10
12.42992683276377
 20
-17.23691410901629
 30
0.0
 10
12.40269460093725
 20
-17.23760404535217
 30
0.0
 10
12.37546236911073
 20
-17.2382939816887
 30
0.0
 10
12.34818753091094
 20
-17.23881247296092
 30
0.0
 10
12.3208711253545
 20
-17.23915848014966
 30
0.0
 10
12.29355471979806
 20
-17.23950448733775
 30
0.0
 10
12.2661967468853
 20
-17.23967801044236
 30
0.0
 10
12.23879824563253
 20
-17.23967801044236
 30
0.0
 10
12.21139974437975
 20
-17.23967801044236
 30
0.0
 10
12.18404177146699
 20
-17.23950448733775
 30
0.0
 10
12.15672536591055
 20
-17.23915848014966
 30
0.0
 10
12.12940896035443
 20
-17.23881247296092
 30
0.0
 10
12.10213412215432
 20
-17.2382939816887
 30
0.0
 10
12.07490189032748
 20
-17.23760404535217
 30
0.0
 10
12.04766965850063
 20
-17.23691410901629
 30
0.0
 10
12.02048003304674
 20
-17.23605272761676
 30
0.0
 10
11.99333405298242
 20
-17.23502094017404
 30
0.0
 10
11.9661880729181
 20
-17.23398915273132
 30
0.0
 10
11.93908573824335
 20
-17.23278695924478
 30
0.0
 10
11.91202808797416
 20
-17.23141539873618
 30
0.0
 10
11.88497043770497
 20
-17.23004383822758
 30
0.0
 10
11.85795747184198
 20
-17.22850291069563
 30
0.0
 10
11.83099022940149
 20
-17.22679365516145
 30
0.0
 10
11.804022986961
 20
-17.22508439962727
 30
0.0
 10
11.7771014679427
 20
-17.22320681609087
 30
0.0
 10
11.75022671136352
 20
-17.22116194357206
 30
0.0
 10
11.72335195478434
 20
-17.21911707105326
 30
0.0
 10
11.6965239606443
 20
-17.21690490955335
 30
0.0
 10
11.66974376795936
 20
-17.21452649809087
 30
0.0
 10
11.64296357527442
 20
-17.21214808662903
 30
0.0
 10
11.61623118404492
 20
-17.20960342520592
 30
0.0
 10
11.58954763328747
 20
-17.20689355284072
 30
0.0
 10
11.56286408253003
 20
-17.20418368047552
 30
0.0
 10
11.53622937224432
 20
-17.20130859717015
 30
0.0
 10
11.50964454144729
 20
-17.19826934194318
 30
0.0
 10
11.48305971064995
 20
-17.19523008671685
 30
0.0
 10
11.45652475934128
 20
-17.1920266595689
 30
0.0
 10
11.43004072653761
 20
-17.18866009952111
 30
0.0
 10
11.40355669373393
 20
-17.18529353947331
 30
0.0
 10
11.37712357943525
 20
-17.18176384652502
 30
0.0
 10
11.35074242265753
 20
-17.17807205969735
 30
0.0
 10
11.32436126588013
 20
-17.17438027286904
 30
0.0
 10
11.29803206662403
 20
-17.17052639216072
 30
0.0
 10
11.27175586390584
 20
-17.16651145659284
 30
0.0
 10
11.24547966118765
 20
-17.16249652102497
 30
0.0
 10
11.21925645500738
 20
-17.15832053059756
 30
0.0
 10
11.19308728438165
 20
-17.15398452433107
 30
0.0
 10
11.1669181137556
 20
-17.14964851806459
 30
0.0
 10
11.1408029786841
 20
-17.1451524959584
 30
0.0
 10
11.11474291818343
 20
-17.14049749703425
 30
0.0
 10
11.08868285768277
 20
-17.13584249811011
 30
0.0
 10
11.06267787175296
 20
-17.13102852236673
 30
0.0
 10
11.03672899941062
 20
-17.12605660882523
 30
0.0
 10
11.01078012706827
 20
-17.12108469528374
 30
0.0
 10
10.98488736831308
 20
-17.11595484394412
 30
0.0
 10
10.95905176216199
 20
-17.11066809382622
 30
0.0
 10
10.93321615601089
 20
-17.10538134370833
 30
0.0
 10
10.90743770246357
 20
-17.09993769481279
 30
0.0
 10
10.88171744053665
 20
-17.09433818615944
 30
0.0
 10
10.85599717860973
 20
-17.08873867750673
 30
0.0
 10
10.83033510830322
 20
-17.08298330909558
 30
0.0
 10
10.8047322686334
 20
-17.07707311994773
 30
0.0
 10
10.77912942896359
 20
-17.07116293079988
 30
0.0
 10
10.75358581993081
 20
-17.0650979209147
 30
0.0
 10
10.72810248055135
 20
-17.05887912931266
 30
0.0
 10
10.7026191411719
 20
-17.05266033771126
 30
0.0
 10
10.67719607144577
 20
-17.04628776439237
 30
0.0
 10
10.65183431038928
 20
-17.03976244837773
 30
0.0
 10
10.62647254933279
 20
-17.03323713236309
 30
0.0
 10
10.60117209694658
 20
-17.02655907365143
 30
0.0
 10
10.57593399224631
 20
-17.01972931126451
 30
0.0
 10
10.55069588754635
 20
-17.01289954887758
 30
0.0
 10
10.52552013053234
 20
-17.00591808281411
 30
0.0
 10
10.50040776022153
 20
-16.99878595209584
 30
0.0
 10
10.47529538991072
 20
-16.99165382137758
 30
0.0
 10
10.45024640630248
 20
-16.98437102600324
 30
0.0
 10
10.42526184841343
 20
-16.97693860499458
 30
0.0
 10
10.40027729052469
 20
-16.96950618398529
 30
0.0
 10
10.37535715835515
 20
-16.96192413734104
 30
0.0
 10
10.35050249092142
 20
-16.95419350408231
 30
0.0
 10
10.32564782348769
 20
-16.94646287082293
 30
0.0
 10
10.30085862078978
 20
-16.93858365094972
 30
0.0
 10
10.2761359218443
 20
-16.93055688348186
 30
0.0
 10
10.25141322289851
 20
-16.922530116014
 30
0.0
 10
10.22675702770515
 20
-16.91435580095149
 30
0.0
 10
10.20216837528054
 20
-16.90603497731546
 30
0.0
 10
10.17757972285593
 20
-16.89771415367942
 30
0.0
 10
10.15305861320039
 20
-16.88924682146921
 30
0.0
 10
10.12860608532989
 20
-16.88063401970531
 30
0.0
 10
10.10415355745939
 20
-16.87202121794205
 30
0.0
 10
10.07976961137426
 20
-16.86326294662508
 30
0.0
 10
10.05545528609081
 20
-16.8543602447749
 30
0.0
 10
10.03114096080735
 20
-16.84545754292472
 30
0.0
 10
10.00689625632557
 20
-16.83641041054132
 30
0.0
 10
9.982722211662413
 20
-16.82721988664581
 30
0.0
 10
9.958548166999252
 20
-16.81802936275031
 30
0.0
 10
9.934444782154069
 20
-16.80869544734141
 30
0.0
 10
9.910413096143811
 20
-16.79921917944089
 30
0.0
 10
9.886381410133552
 20
-16.78974291154037
 30
0.0
 10
9.862421422958217
 20
-16.78012429114693
 30
0.0
 10
9.83853417363379
 20
-16.77036435728234
 30
0.0
 10
9.814646924309683
 20
-16.76060442341775
 30
0.0
 10
9.790832412836805
 20
-16.75070317608073
 30
0.0
 10
9.76709167823146
 20
-16.74066165429238
 30
0.0
 10
9.743350943626114
 20
-16.73062013250404
 30
0.0
 10
9.719683985888622
 20
-16.72043833626438
 30
0.0
 10
9.696091844035609
 20
-16.71011730459387
 30
0.0
 10
9.672499702182275
 20
-16.69979627292272
 30
0.0
 10
9.64898237621342
 20
-16.68933600582072
 30
0.0
 10
9.625540905145026
 20
-16.67873754230836
 30
0.0
 10
9.602099434076633
 20
-16.668139078796
 30
0.0
 10
9.578733817909344
 20
-16.65740241887262
 30
0.0
 10
9.55544509565882
 20
-16.64652860155935
 30
0.0
 10
9.532156373408618
 20
-16.63565478424609
 30
0.0
 10
9.508944545075503
 20
-16.62464380954292
 30
0.0
 10
9.4858106496761
 20
-16.61349671646906
 30
0.0
 10
9.46267675427702
 20
-16.6023496233952
 30
0.0
 10
9.439620791811329
 20
-16.59106641195192
 30
0.0
 10
9.416643801295656
 20
-16.57964812115969
 30
0.0
 10
9.393666810780305
 20
-16.56822983036683
 30
0.0
 10
9.37076879221497
 20
-16.55667646022502
 30
0.0
 10
9.347950784616597
 20
-16.54498904975346
 30
0.0
 10
9.325132777018224
 20
-16.5333016392819
 30
0.0
 10
9.302394780386173
 20
-16.52148018848187
 30
0.0
 10
9.279737833737709
 20
-16.50952573637321
 30
0.0
 10
9.257080887089245
 20
-16.49757128426455
 30
0.0
 10
9.234504990423728
 20
-16.48548383084725
 30
0.0
 10
9.212011182758104
 20
-16.47326441514116
 30
0.0
 10
9.189517375092478
 20
-16.46104499943507
 30
0.0
 10
9.167105656426425
 20
-16.44869362144145
 30
0.0
 10
9.14477706577689
 20
-16.43621132017952
 30
0.0
 10
9.122448475127033
 20
-16.42372901891822
 30
0.0
 10
9.100203012493372
 20
-16.4111157943886
 30
0.0
 10
9.078041716892535
 20
-16.39837268561178
 30
0.0
 10
9.055880421291375
 20
-16.38562957683495
 30
0.0
 10
9.03380329272336
 20
-16.37275658381027
 30
0.0
 10
9.011811370204148
 20
-16.35975474555886
 30
0.0
 10
8.989819447685258
 20
-16.34675290730681
 30
0.0
 10
8.967912731215172
 20
-16.33362222382867
 30
0.0
 10
8.946092259810838
 20
-16.32036373414363
 30
0.0
 10
8.924271788406505
 20
-16.30710524445859
 30
0.0
 10
8.902537562067922
 20
-16.29371894856665
 30
0.0
 10
8.880890619811396
 20
-16.28020588548893
 30
0.0
 10
8.85924367755519
 20
-16.26669282241121
 30
0.0
 10
8.837684019381038
 20
-16.25305299214707
 30
0.0
 10
8.816212684305249
 20
-16.23928743371761
 30
0.0
 10
8.794741349229458
 20
-16.22552187528816
 30
0.0
 10
8.773358337252668
 20
-16.21163058869212
 30
0.0
 10
8.752064687390865
 20
-16.19761461295125
 30
0.0
 10
8.730771037529061
 20
-16.18359863721038
 30
0.0
 10
8.709566749782242
 20
-16.16945797232404
 30
0.0
 10
8.688452863167356
 20
-16.1551936573127
 30
0.0
 10
8.667338976552468
 20
-16.14092934230136
 30
0.0
 10
8.64631549106887
 20
-16.12654137716502
 30
0.0
 10
8.625383445733506
 20
-16.11203080092416
 30
0.0
 10
8.604451400398144
 20
-16.0975202246833
 30
0.0
 10
8.583610795211017
 20
-16.08288703733728
 30
0.0
 10
8.56286266918843
 20
-16.06813227790785
 30
0.0
 10
8.542114543165843
 20
-16.05337751847842
 30
0.0
 10
8.521458896308115
 20
-16.0385011869643
 30
0.0
 10
8.500896767631232
 20
-16.02350432238661
 30
0.0
 10
8.48033463895435
 20
-16.00850745780892
 30
0.0
 10
8.459866028458952
 20
-15.99339006016767
 30
0.0
 10
8.439491975160703
 20
-15.97815316848331
 30
0.0
 10
8.419117921862455
 20
-15.96291627679896
 30
0.0
 10
8.398838425761996
 20
-15.94755989107022
 30
0.0
 10
8.378654525875632
 20
-15.93208505031951
 30
0.0
 10
8.358470625989268
 20
-15.9166102095688
 30
0.0
 10
8.338382322316997
 20
-15.90101691379482
 30
0.0
 10
8.318390653875127
 20
-15.88530620201806
 30
0.0
 10
8.298398985433256
 20
-15.8695954902413
 30
0.0
 10
8.278503952222426
 20
-15.85376736246239
 30
0.0
 10
8.258706593258298
 20
-15.83782285770117
 30
0.0
 10
8.23890923429417
 20
-15.82187835293995
 30
0.0
 10
8.219209549577387
 20
-15.80581747119642
 30
0.0
 10
8.199608578123932
 20
-15.78964125149106
 30
0.0
 10
8.180007606670477
 20
-15.77346503178569
 30
0.0
 10
8.160505348480672
 20
-15.75717347411913
 30
0.0
 10
8.14110284257082
 20
-15.74076761751121
 30
0.0
 10
8.12170033666129
 20
-15.72436176090265
 30
0.0
 10
8.102397583031712
 20
-15.70784160535272
 30
0.0
 10
8.08319562069839
 20
-15.69120818988256
 30
0.0
 10
8.06399365836539
 20
-15.67457477441239
 30
0.0
 10
8.04489248732897
 20
-15.6578280990207
 30
0.0
 10
8.025893146605434
 20
-15.64096920272859
 30
0.0
 10
8.006893805881894
 20
-15.62411030643649
 30
0.0
 10
7.987996295471561
 20
-15.60713918924397
 30
0.0
 10
7.969201654390734
 20
-15.59005689017153
 30
0.0
 10
7.950407013309908
 20
-15.57297459109908
 30
0.0
 10
7.93171524155859
 20
-15.55578111014605
 30
0.0
 10
7.913127378153405
 20
-15.53847748633357
 30
0.0
 10
7.894539514747899
 20
-15.52117386252108
 30
0.0
 10
7.876055559688527
 20
-15.50376009584914
 30
0.0
 10
7.857676551991912
 20
-15.48623722533757
 30
0.0
 10
7.839297544295298
 20
-15.468714354826
 30
0.0
 10
7.821023483960801
 20
-15.45108238047545
 30
0.0
 10
7.802855410005687
 20
-15.43334234130575
 30
0.0
 10
7.784687336050573
 20
-15.41560230213604
 30
0.0
 10
7.766625248474201
 20
-15.39775419814719
 30
0.0
 10
7.748670186293837
 20
-15.3797990683603
 30
0.0
 10
7.730715124113474
 20
-15.36184393857342
 30
0.0
 10
7.712867087328156
 20
-15.34378178298786
 30
0.0
 10
7.695127114955152
 20
-15.32561364062409
 30
0.0
 10
7.677387142581828
 20
-15.30744549826033
 30
0.0
 10
7.659755234620816
 20
-15.28917136911837
 30
0.0
 10
7.6422324300881
 20
-15.27079229221869
 30
0.0
 10
7.624709625555385
 20
-15.252413215319
 30
0.0
 10
7.607295924451607
 20
-15.23392919066224
 30
0.0
 10
7.589992365792431
 20
-15.21534125726758
 30
0.0
 10
7.572688807133254
 20
-15.19675332387356
 30
0.0
 10
7.555495390919321
 20
-15.17806148174166
 30
0.0
 10
7.538413156166612
 20
-15.15926676989298
 30
0.0
 10
7.521330921413904
 20
-15.1404720580443
 30
0.0
 10
7.504359868123064
 20
-15.12157447647884
 30
0.0
 10
7.487501035309754
 20
-15.10257506421709
 30
0.0
 10
7.470642202496765
 20
-15.0835756519547
 30
0.0
 10
7.453895590161627
 20
-15.06447440899601
 30
0.0
 10
7.437262237320965
 20
-15.0452723743615
 30
0.0
 10
7.420628884480625
 20
-15.02607033972698
 30
0.0
 10
7.40410879113444
 20
-15.00676751341665
 30
0.0
 10
7.387702996299034
 20
-14.98736493445032
 30
0.0
 10
7.371297201463951
 20
-14.967962355484
 30
0.0
 10
7.355005705139647
 20
-14.94846002386168
 30
0.0
 10
7.338829546343071
 20
-14.9288589786045
 30
0.0
 10
7.322653387546174
 20
-14.90925793334731
 30
0.0
 10
7.306592566276683
 20
-14.88955817445461
 30
0.0
 10
7.290648121551543
 20
-14.86976074094687
 30
0.0
 10
7.274703676826082
 20
-14.84996330743977
 30
0.0
 10
7.258875608644653
 20
-14.83006819931764
 30
0.0
 10
7.243164956023558
 20
-14.81007645560094
 30
0.0
 10
7.227454303402464
 20
-14.79008471188424
 30
0.0
 10
7.211861066342026
 20
-14.76999633257298
 30
0.0
 10
7.196386283858549
 20
-14.74981235668828
 30
0.0
 10
7.180911501375071
 20
-14.72962838080293
 30
0.0
 10
7.165555173468554
 20
-14.70934880834414
 30
0.0
 10
7.150318339155302
 20
-14.68897467833109
 30
0.0
 10
7.135081504842049
 20
-14.66860054831804
 30
0.0
 10
7.119964164122061
 20
-14.64813186075138
 30
0.0
 10
7.104967356012285
 20
-14.62756965465158
 30
0.0
 10
7.089970547902508
 20
-14.60700744855243
 30
0.0
 10
7.075094272402301
 20
-14.58635172391885
 30
0.0
 10
7.060339568528929
 20
-14.56560351977325
 30
0.0
 10
7.045584864655557
 20
-14.54485531562766
 30
0.0
 10
7.03095173240838
 20
-14.52401463196876
 30
0.0
 10
7.016441210804022
 20
-14.50308250781768
 30
0.0
 10
7.001930689199985
 20
-14.48215038366659
 30
0.0
 10
6.987542778238767
 20
-14.46112681902332
 30
0.0
 10
6.973278516936994
 20
-14.4400128529077
 30
0.0
 10
6.959014255635221
 20
-14.41889888679207
 30
0.0
 10
6.944873643992572
 20
-14.3976945192041
 30
0.0
 10
6.930857721026314
 20
-14.37640078916489
 30
0.0
 10
6.916841798059413
 20
-14.35510705912568
 30
0.0
 10
6.902950563768903
 20
-14.33372396663523
 30
0.0
 10
6.889185057170768
 20
-14.31225255071338
 30
0.0
 10
6.875419550572633
 20
-14.29078113479153
 30
0.0
 10
6.861779771666551
 20
-14.26922139543828
 30
0.0
 10
6.848266759469468
 20
-14.24757437167411
 30
0.0
 10
6.834753747272384
 20
-14.22592734790993
 30
0.0
 10
6.821367501784301
 20
-14.20419303973483
 30
0.0
 10
6.80810906202152
 20
-14.18237248616992
 30
0.0
 10
6.79485062225874
 20
-14.160551932605
 30
0.0
 10
6.781719988221264
 20
-14.138645133649
 30
0.0
 10
6.768718198925716
 20
-14.11665312832366
 30
0.0
 10
6.755716409630168
 20
-14.09466112299768
 30
0.0
 10
6.742843465076549
 20
-14.07258391130237
 30
0.0
 10
6.730100404281163
 20
-14.05042253225691
 30
0.0
 10
6.717357343485777
 20
-14.02826115321145
 30
0.0
 10
6.704744166448945
 20
-14.0060156068165
 30
0.0
 10
6.692261912186972
 20
-13.98368693209252
 30
0.0
 10
6.679779657924998
 20
-13.96135825736853
 30
0.0
 10
6.667428326437562
 20
-13.93894645431553
 30
0.0
 10
6.655208956741609
 20
-13.91645256195333
 30
0.0
 10
6.642989587045656
 20
-13.89395866959113
 30
0.0
 10
6.630902179141186
 20
-13.87138268792039
 30
0.0
 10
6.618947772044183
 20
-13.84872565596092
 30
0.0
 10
6.606993364947502
 20
-13.8260686240021
 30
0.0
 10
6.595171958658607
 20
-13.80333054175456
 30
0.0
 10
6.583484592194126
 20
-13.78051244823879
 30
0.0
 10
6.571797225729645
 20
-13.75769435472301
 30
0.0
 10
6.560243899089256
 20
-13.73479624993963
 30
0.0
 10
6.548825651289905
 20
-13.71181917290849
 30
0.0
 10
6.537407403490554
 20
-13.68884209587799
 30
0.0
 10
6.52612423453192
 20
-13.66578604659908
 30
0.0
 10
6.514977183430629
 20
-13.64265206409353
 30
0.0
 10
6.503830132329337
 20
-13.61951808158733
 30
0.0
 10
6.492819199085388
 20
-13.59630616585449
 30
0.0
 10
6.481945422715086
 20
-13.57301735591483
 30
0.0
 10
6.471071646345105
 20
-13.54972854597517
 30
0.0
 10
6.46033502684877
 20
-13.52636284182869
 30
0.0
 10
6.449736603242707
 20
-13.50292128249588
 30
0.0
 10
6.439138179636966
 20
-13.47947972316307
 30
0.0
 10
6.428677951921174
 20
-13.45596230864392
 30
0.0
 10
6.41835695911228
 20
-13.43237007795826
 30
0.0
 10
6.408035966303387
 20
-13.40877784727324
 30
0.0
 10
6.397854208401389
 20
-13.38511080042172
 30
0.0
 10
6.387812724422274
 20
-13.36136997642546
 30
0.0
 10
6.377771240443157
 20
-13.33762915242919
 30
0.0
 10
6.367870030387563
 20
-13.31381455128625
 30
0.0
 10
6.358110133271795
 20
-13.28992721201904
 30
0.0
 10
6.348350236156028
 20
-13.26603987275183
 30
0.0
 10
6.338731651980087
 20
-13.24207979535906
 30
0.0
 10
6.329255419760598
 20
-13.21804801886186
 30
0.0
 10
6.319779187540787
 20
-13.19401624236466
 30
0.0
 10
6.310445307277429
 20
-13.16991276676302
 30
0.0
 10
6.301254817986505
 20
-13.14573863107677
 30
0.0
 10
6.292064328695903
 20
-13.12156449539053
 30
0.0
 10
6.283017230378056
 20
-13.09731969961968
 30
0.0
 10
6.27411456204927
 20
-13.07300528278534
 30
0.0
 10
6.265211893720484
 20
-13.04869086595101
 30
0.0
 10
6.25645365538108
 20
-13.0243068280519
 30
0.0
 10
6.247840886047681
 20
-12.99985420811043
 30
0.0
 10
6.239228116713962
 20
-12.97540158816831
 30
0.0
 10
6.230760816385928
 20
-12.95088038618254
 30
0.0
 10
6.222440024080204
 20
-12.92629164117423
 30
0.0
 10
6.214119231774802
 20
-12.90170289616593
 30
0.0
 10
6.20594494749139
 20
-12.87704660813444
 30
0.0
 10
6.197918210246592
 20
-12.85232381610025
 30
0.0
 10
6.189891473001795
 20
-12.82760102406607
 30
0.0
 10
6.182012282795612
 20
-12.80281172802918
 30
0.0
 10
6.174281678644991
 20
-12.77795696700942
 30
0.0
 10
6.16655107449437
 20
-12.75310220598966
 30
0.0
 10
6.158969056398667
 20
-12.72818197998832
 30
0.0
 10
6.151536663374831
 20
-12.70319732802458
 30
0.0
 10
6.144104270350994
 20
-12.67821267606084
 30
0.0
 10
6.136821502399022
 20
-12.65316359813535
 30
0.0
 10
6.129689398535221
 20
-12.62805113326859
 30
0.0
 10
6.122557294671418
 20
-12.60293866840118
 30
0.0
 10
6.115575854895466
 20
-12.5777628165925
 30
0.0
 10
6.108746118224628
 20
-12.55252461686301
 30
0.0
 10
6.101916381553471
 20
-12.52728641713353
 30
0.0
 10
6.095238347987427
 20
-12.5019858694826
 30
0.0
 10
6.088713056542164
 20
-12.47662401293135
 30
0.0
 10
6.08218776509722
 20
-12.45126215638009
 30
0.0
 10
6.075815215773376
 20
-12.42583899092851
 30
0.0
 10
6.069596447587256
 20
-12.4003555555958
 30
0.0
 10
6.063377679400816
 20
-12.37487212026373
 30
0.0
 10
6.05731269235242
 20
-12.34932841505117
 30
0.0
 10
6.051402525458053
 20
-12.32372547897859
 30
0.0
 10
6.045492358563686
 20
-12.29812254290601
 30
0.0
 10
6.039737011823989
 20
-12.27246037597341
 30
0.0
 10
6.034137524254305
 20
-12.24674001720192
 30
0.0
 10
6.028538036685262
 20
-12.22101965842978
 30
0.0
 10
6.023094408286232
 20
-12.19524110781874
 30
0.0
 10
6.017807678074801
 20
-12.169405404388
 30
0.0
 10
6.012520947863369
 20
-12.14356970095725
 30
0.0
 10
6.007391115838897
 20
-12.11767684470808
 30
0.0
 10
6.002419221018008
 20
-12.09172787465968
 30
0.0
 10
5.997447326197439
 20
-12.06577890461192
 30
0.0
 10
5.992633368580454
 20
-12.03977382076493
 30
0.0
 10
5.987978387183356
 20
-12.01371366213982
 30
0.0
 10
5.983323405786258
 20
-11.98765350351472
 30
0.0
 10
5.97882740060969
 20
-11.9615382701115
 30
0.0
 10
5.974491410669635
 20
-11.93536900095063
 30
0.0
 10
5.970155420729258
 20
-11.90919973178913
 30
0.0
 10
5.965979446026036
 20
-11.88297642687063
 30
0.0
 10
5.961964525575631
 20
-11.85670012521432
 30
0.0
 10
5.957949605125227
 20
-11.83042382355801
 30
0.0
 10
5.95409573892828
 20
-11.8040945251639
 30
0.0
 10
5.950403966000455
 20
-11.77771326905309
 30
0.0
 10
5.946712193072951
 20
-11.75133201294229
 30
0.0
 10
5.943182513415211
 20
-11.72489879911416
 30
0.0
 10
5.939815966043216
 20
-11.69841466658917
 30
0.0
 10
5.936449418671223
 20
-11.67193053406482
 30
0.0
 10
5.933246003585617
 20
-11.64539548284361
 30
0.0
 10
5.930206759802704
 20
-11.61881055194603
 30
0.0
 10
5.92716751601947
 20
-11.59222562104845
 30
0.0
 10
5.924292443539248
 20
-11.56559081047513
 30
0.0
 10
5.921582581378025
 20
-11.53890715924526
 30
0.0
 10
5.918872719216801
 20
-11.51222350801539
 30
0.0
 10
5.916328067374574
 20
-11.48549101613026
 30
0.0
 10
5.91394966486797
 20
-11.4587107226097
 30
0.0
 10
5.911571262361365
 20
-11.43193042908914
 30
0.0
 10
5.909359109190382
 20
-11.40510233393315
 30
0.0
 10
5.907314244371647
 20
-11.3782274761622
 30
0.0
 10
5.905269379552591
 20
-11.35135261839126
 30
0.0
 10
5.903391803085782
 20
-11.32443099800472
 30
0.0
 10
5.901682553987524
 20
-11.2974636540237
 30
0.0
 10
5.899973304889268
 20
-11.27049631004268
 30
0.0
 10
5.898432383159562
 20
-11.24348324246718
 30
0.0
 10
5.897060827815032
 20
-11.21642549031768
 30
0.0
 10
5.895689272470504
 20
-11.18936773816818
 30
0.0
 10
5.894487083511152
 20
-11.16226530144404
 30
0.0
 10
5.89345529995328
 20
-11.13511921916668
 30
0.0
 10
5.892423516395409
 20
-11.10797313688901
 30
0.0
 10
5.891562138239019
 20
-11.08078340905749
 30
0.0
 10
5.890872204500734
 20
-11.05355107469259
 30
0.0
 10
5.890182270762451
 20
-11.0263187403277
 30
0.0
 10
5.889663781442273
 20
-10.99904379942943
 30
0.0
 10
5.889317775556827
 20
-10.97172729101826
 30
0.0
 10
5.88897176967106
 20
-10.94441078260677
 30
0.0
 10
5.888798247220024
 20
-10.91705270668271
 30
0.0
 10
5.888798247220024
 20
-10.8896541022659
 30
0.0
 10
5.888798247220024
 20
-10.86225549784909
 30
0.0
 10
5.88897176967106
 20
-10.83489742192503
 30
0.0
 10
5.889317775556827
 20
-10.80758091351354
 30
0.0
 10
5.889663781442273
 20
-10.78026440510237
 30
0.0
 10
5.890182270762451
 20
-10.7529894642041
 30
0.0
 10
5.890872204500734
 20
-10.72575712983921
 30
0.0
 10
5.891562138239019
 20
-10.69852479547431
 30
0.0
 10
5.892423516395409
 20
-10.67133506764279
 30
0.0
 10
5.89345529995328
 20
-10.64418898536512
 30
0.0
 10
5.894487083511152
 20
-10.61704290308776
 30
0.0
 10
5.895689272470504
 20
-10.58994046636362
 30
0.0
 10
5.897060827815032
 20
-10.56288271421412
 30
0.0
 10
5.898432383159562
 20
-10.53582496206462
 30
0.0
 10
5.899973304889268
 20
-10.50881189448912
 30
0.0
 10
5.901682553987524
 20
-10.4818445505081
 30
0.0
 10
5.903391803085782
 20
-10.45487720652708
 30
0.0
 10
5.905269379552591
 20
-10.42795558614118
 30
0.0
 10
5.907314244371647
 20
-10.40108072836992
 30
0.0
 10
5.909359109190382
 20
-10.37420587059865
 30
0.0
 10
5.911571262361365
 20
-10.34737777544234
 30
0.0
 10
5.91394966486797
 20
-10.32059748192178
 30
0.0
 10
5.916328067374574
 20
-10.2938171884009
 30
0.0
 10
5.918872719216801
 20
-10.26708469651577
 30
0.0
 10
5.921582581378025
 20
-10.24040104528622
 30
0.0
 10
5.924292443539248
 20
-10.21371739405667
 30
0.0
 10
5.92716751601947
 20
-10.18708258348335
 30
0.0
 10
5.930206759802704
 20
-10.16049765258577
 30
0.0
 10
5.933246003585617
 20
-10.13391272168818
 30
0.0
 10
5.936449418671223
 20
-10.10737767046698
 30
0.0
 10
5.939815966043216
 20
-10.08089353794231
 30
0.0
 10
5.943182513415211
 20
-10.05440940541764
 30
0.0
 10
5.946712193072951
 20
-10.02797619158983
 30
0.0
 10
5.950403966000455
 20
-10.00159493547871
 30
0.0
 10
5.95409573892828
 20
-9.9752136793679
 30
0.0
 10
5.957949605125227
 20
-9.948884380973787
 30
0.0
 10
5.961964525575631
 20
-9.92260807931748
 30
0.0
 10
5.965979446026036
 20
-9.896331777661171
 30
0.0
 10
5.970155420729258
 20
-9.870108472742027
 30
0.0
 10
5.974491410669635
 20
-9.843939203581165
 30
0.0
 10
5.97882740060969
 20
-9.817769934419982
 30
0.0
 10
5.983323405786258
 20
-9.791654701016439
 30
0.0
 10
5.987978387183356
 20
-9.765594542391653
 30
0.0
 10
5.992633368580454
 20
-9.739534383766866
 30
0.0
 10
5.997447326197439
 20
-9.713529299919875
 30
0.0
 10
6.002419221018008
 20
-9.687580329871794
 30
0.0
 10
6.007391115838897
 20
-9.661631359823714
 30
0.0
 10
6.012520947863369
 20
-9.635738503574224
 30
0.0
 10
6.017807678074801
 20
-9.6099028001438
 30
0.0
 10
6.023094408286232
 20
-9.584067096713376
 30
0.0
 10
6.028538036685262
 20
-9.558288546102018
 30
0.0
 10
6.034137524254305
 20
-9.532568187330202
 30
0.0
 10
6.039737011823989
 20
-9.506847828558385
 30
0.0
 10
6.045492358563686
 20
-9.481185661625789
 30
0.0
 10
6.051402525458053
 20
-9.45558272555353
 30
0.0
 10
6.05731269235242
 20
-9.429979789480951
 30
0.0
 10
6.063377679400816
 20
-9.404436084268388
 30
0.0
 10
6.069596447587256
 20
-9.378952648935996
 30
0.0
 10
6.075815215773376
 20
-9.353469213603605
 30
0.0
 10
6.08218776509722
 20
-9.328046048151705
 30
0.0
 10
6.088713056542164
 20
-9.30268419160013
 30
0.0
 10
6.095238347987427
 20
-9.277322335048558
 30
0.0
 10
6.101916381553471
 20
-9.25202178739795
 30
0.0
 10
6.108746118224628
 20
-9.226783587668466
 30
0.0
 10
6.115575854895466
 20
-9.201545387938982
 30
0.0
 10
6.122557294671418
 20
-9.176369536130618
 30
0.0
 10
6.129689398535221
 20
-9.151257071263533
 30
0.0
 10
6.136821502399022
 20
-9.126144606396446
 30
0.0
 10
6.144104270350994
 20
-9.101095528470957
 30
0.0
 10
6.151536663374831
 20
-9.07611087650722
 30
0.0
 10
6.158969056398667
 20
-9.051126224543482
 30
0.0
 10
6.16655107449437
 20
-9.026205998541817
 30
0.0
 10
6.174281678644991
 20
-9.00135123752238
 30
0.0
 10
6.182012282795612
 20
-8.976496476502943
 30
0.0
 10
6.189891473001795
 20
-8.951707180465732
 30
0.0
 10
6.197918210246592
 20
-8.926984388431546
 30
0.0
 10
6.20594494749139
 20
-8.902261596397038
 30
0.0
 10
6.214119231774802
 20
-8.877605308365233
 30
0.0
 10
6.222440024080204
 20
-8.853016563356604
 30
0.0
 10
6.230760816385928
 20
-8.828427818347977
 30
0.0
 10
6.239228116713962
 20
-8.803906616362529
 30
0.0
 10
6.247840886047681
 20
-8.779453996420411
 30
0.0
 10
6.25645365538108
 20
-8.755001376478614
 30
0.0
 10
6.265211893720484
 20
-8.730617338580151
 30
0.0
 10
6.27411456204927
 20
-8.706302921745493
 30
0.0
 10
6.283017230378056
 20
-8.681988504910837
 30
0.0
 10
6.292064328695903
 20
-8.65774370914031
 30
0.0
 10
6.301254817986505
 20
-8.633569573454066
 30
0.0
 10
6.310445307277429
 20
-8.609395437767821
 30
0.0
 10
6.319779187540787
 20
-8.58529196216586
 30
0.0
 10
6.329255419760598
 20
-8.561260185668656
 30
0.0
 10
6.338731651980087
 20
-8.537228409171453
 30
0.0
 10
6.348350236156028
 20
-8.51326833177901
 30
0.0
 10
6.358110133271795
 20
-8.489380992511798
 30
0.0
 10
6.367870030387563
 20
-8.465493653244268
 30
0.0
 10
6.377771240443157
 20
-8.441679052102291
 30
0.0
 10
6.387812724422274
 20
-8.417938228105703
 30
0.0
 10
6.397854208401389
 20
-8.394197404109113
 30
0.0
 10
6.408035966303387
 20
-8.370530357257913
 30
0.0
 10
6.41835695911228
 20
-8.346938126572898
 30
0.0
 10
6.428677951921174
 20
-8.323345895887883
 30
0.0
 10
6.439138179636966
 20
-8.29982848136873
 30
0.0
 10
6.449736603242707
 20
-8.276386922035918
 30
0.0
 10
6.46033502684877
 20
-8.252945362703105
 30
0.0
 10
6.471071646345105
 20
-8.22957965855663
 30
0.0
 10
6.481945422715086
 20
-8.206290848616971
 30
0.0
 10
6.492819199085388
 20
-8.183002038677312
 30
0.0
 10
6.503830132329337
 20
-8.159790122944147
 30
0.0
 10
6.514977183430629
 20
-8.136656140438271
 30
0.0
 10
6.52612423453192
 20
-8.113522157932396
 30
0.0
 10
6.537407403490554
 20
-8.090466108653809
 30
0.0
 10
6.548825651289905
 20
-8.067489031622667
 30
0.0
 10
6.560243899089256
 20
-8.044511954591846
 30
0.0
 10
6.571797225729645
 20
-8.02161384980815
 30
0.0
 10
6.583484592194126
 20
-7.998795756292692
 30
0.0
 10
6.595171958658607
 20
-7.975977662777235
 30
0.0
 10
6.606993364947502
 20
-7.953239580529698
 30
0.0
 10
6.618947772044183
 20
-7.930582548570555
 30
0.0
 10
6.630902179141186
 20
-7.907925516611414
 30
0.0
 10
6.642989587045656
 20
-7.885349534940667
 30
0.0
 10
6.655208956741609
 20
-7.862855642578468
 30
0.0
 10
6.667428326437562
 20
-7.840361750216271
 30
0.0
 10
6.679779657924998
 20
-7.817949947163265
 30
0.0
 10
6.692261912186972
 20
-7.795621272439283
 30
0.0
 10
6.704744166448945
 20
-7.773292597714981
 30
0.0
 10
6.717357343485777
 20
-7.751047051320345
 30
0.0
 10
6.730100404281163
 20
-7.728885672274889
 30
0.0
 10
6.742843465076549
 20
-7.706724293229754
 30
0.0
 10
6.755716409630168
 20
-7.684647081534118
 30
0.0
 10
6.768718198925716
 20
-7.662655076208459
 30
0.0
 10
6.781719988221264
 20
-7.640663070882799
 30
0.0
 10
6.79485062225874
 20
-7.618756271927116
 30
0.0
 10
6.80810906202152
 20
-7.596935718361883
 30
0.0
 10
6.821367501784301
 20
-7.575115164796649
 30
0.0
 10
6.834753747272384
 20
-7.553380856621868
 30
0.0
 10
6.848266759469468
 20
-7.531733832857691
 30
0.0
 10
6.861779771666551
 20
-7.510086809093515
 30
0.0
 10
6.875419550572633
 20
-7.488527069740265
 30
0.0
 10
6.889185057170768
 20
-7.467055653818096
 30
0.0
 10
6.902950563768903
 20
-7.445584237895927
 30
0.0
 10
6.916841798059413
 20
-7.42420114540516
 30
0.0
 10
6.930857721026314
 20
-7.402907415365949
 30
0.0
 10
6.944873643992572
 20
-7.381613685326737
 30
0.0
 10
6.959014255635221
 20
-7.360409317739083
 30
0.0
 10
6.973278516936994
 20
-7.339295351623781
 30
0.0
 10
6.987542778238767
 20
-7.318181385508478
 30
0.0
 10
7.001930689199985
 20
-7.297157820864887
 30
0.0
 10
7.016441210804022
 20
-7.276225696713801
 30
0.0
 10
7.03095173240838
 20
-7.255293572562717
 30
0.0
 10
7.045584864655557
 20
-7.234452888904139
 30
0.0
 10
7.060339568528929
 20
-7.213704684758223
 30
0.0
 10
7.075094272402301
 20
-7.192956480612307
 30
0.0
 10
7.089970547902508
 20
-7.172300755979373
 30
0.0
 10
7.104967356012285
 20
-7.151738549879576
 30
0.0
 10
7.119964164122061
 20
-7.131176343779779
 30
0.0
 10
7.135081504842049
 20
-7.110707656213118
 30
0.0
 10
7.150318339155302
 20
-7.090333526200391
 30
0.0
 10
7.165555173468554
 20
-7.069959396187664
 30
0.0
 10
7.180911501375071
 20
-7.049679823728228
 30
0.0
 10
7.196386283858549
 20
-7.029495847843201
 30
0.0
 10
7.211861066342026
 20
-7.009311871958174
 30
0.0
 10
7.227454303402464
 20
-6.989223492646913
 30
0.0
 10
7.243164956023558
 20
-6.969231748930215
 30
0.0
 10
7.258875608644653
 20
-6.949240005213517
 30
0.0
 10
7.274703676826082
 20
-6.929344897091383
 30
0.0
 10
7.290648121551543
 20
-6.909547463583644
 30
0.0
 10
7.306592566276683
 20
-6.889750030076548
 30
0.0
 10
7.322653387546174
 20
-6.870050271183848
 30
0.0
 10
7.338829546343071
 20
-6.850449225926662
 30
0.0
 10
7.355005705139647
 20
-6.830848180669475
 30
0.0
 10
7.371297201463951
 20
-6.811345849047482
 30
0.0
 10
7.387702996299034
 20
-6.791943270081157
 30
0.0
 10
7.40410879113444
 20
-6.772540691114831
 30
0.0
 10
7.420628884480625
 20
-6.753237864804174
 30
0.0
 10
7.437262237320965
 20
-6.734035830169661
 30
0.0
 10
7.453895590161627
 20
-6.714833795535148
 30
0.0
 10
7.470642202496765
 20
-6.695732552576457
 30
0.0
 10
7.487501035309754
 20
-6.676733140314705
 30
0.0
 10
7.504359868123064
 20
-6.657733728052634
 30
0.0
 10
7.521330921413904
 20
-6.638836146486859
 30
0.0
 10
7.538413156166612
 20
-6.620041434638501
 30
0.0
 10
7.555495390919321
 20
-6.601246722789821
 30
0.0
 10
7.572688807133254
 20
-6.582554880657915
 30
0.0
 10
7.589992365792431
 20
-6.563966947263578
 30
0.0
 10
7.607295924451607
 20
-6.545379013868921
 30
0.0
 10
7.624709625555385
 20
-6.526894989211833
 30
0.0
 10
7.6422324300881
 20
-6.508515912312469
 30
0.0
 10
7.659755234620816
 20
-6.490136835412785
 30
0.0
 10
7.677387142581828
 20
-6.471862706271145
 30
0.0
 10
7.695127114955152
 20
-6.453694563907384
 30
0.0
 10
7.712867087328156
 20
-6.435526421543623
 30
0.0
 10
7.730715124113474
 20
-6.417464265958062
 30
0.0
 10
7.748670186293837
 20
-6.399509136170854
 30
0.0
 10
7.766625248474201
 20
-6.381554006383647
 30
0.0
 10
7.784687336050573
 20
-6.363705902395115
 30
0.0
 10
7.802855410005687
 20
-6.345965863225412
 30
0.0
 10
7.821023483960801
 20
-6.328225824055709
 30
0.0
 10
7.839297544295298
 20
-6.310593849705155
 30
0.0
 10
7.857676551991912
 20
-6.293070979193586
 30
0.0
 10
7.876055559688527
 20
-6.275548108682018
 30
0.0
 10
7.894539514747899
 20
-6.258134342009753
 30
0.0
 10
7.913127378153405
 20
-6.240830718197269
 30
0.0
 10
7.93171524155859
 20
-6.223527094385106
 30
0.0
 10
7.950407013309908
 20
-6.20633361343208
 30
0.0
 10
7.969201654390734
 20
-6.189251314359632
 30
0.0
 10
7.987996295471561
 20
-6.172169015287183
 30
0.0
 10
8.006893805881894
 20
-6.155197898094669
 30
0.0
 10
8.025893146605434
 20
-6.138339001802565
 30
0.0
 10
8.04489248732897
 20
-6.121480105510461
 30
0.0
 10
8.06399365836539
 20
-6.104733430119088
 30
0.0
 10
8.08319562069839
 20
-6.0881000146486
 30
0.0
 10
8.102397583031712
 20
-6.071466599178112
 30
0.0
 10
8.12170033666129
 20
-6.054946443628509
 30
0.0
 10
8.14110284257082
 20
-6.038540587020268
 30
0.0
 10
8.160505348480672
 20
-6.022134730412026
 30
0.0
 10
8.180007606670477
 20
-6.005843172745466
 30
0.0
 10
8.199608578123932
 20
-5.9896669530401
 30
0.0
 10
8.219209549577387
 20
-5.973490733335055
 30
0.0
 10
8.23890923429417
 20
-5.957429851591845
 30
0.0
 10
8.258706593258298
 20
-5.941485346830307
 30
0.0
 10
8.278503952222426
 20
-5.925540842069088
 30
0.0
 10
8.298398985433256
 20
-5.90971271428986
 30
0.0
 10
8.318390653875127
 20
-5.894002002513419
 30
0.0
 10
8.338382322316997
 20
-5.878291290736978
 30
0.0
 10
8.358470625989268
 20
-5.862697994963003
 30
0.0
 10
8.378654525875632
 20
-5.847223154211969
 30
0.0
 10
8.398838425761996
 20
-5.831748313460936
 30
0.0
 10
8.419117921862455
 20
-5.816391927732843
 30
0.0
 10
8.439491975160703
 20
-5.801155036048168
 30
0.0
 10
8.459866028458952
 20
-5.785918144363491
 30
0.0
 10
8.48033463895435
 20
-5.770800746721911
 30
0.0
 10
8.500896767631232
 20
-5.755803882144544
 30
0.0
 10
8.521458896308115
 20
-5.740807017566857
 30
0.0
 10
8.542114543165843
 20
-5.725930686053061
 30
0.0
 10
8.56286266918843
 20
-5.711175926623311
 30
0.0
 10
8.583610795211017
 20
-5.696421167193883
 30
0.0
 10
8.604451400398144
 20
-5.681787979848179
 30
0.0
 10
8.625383445733506
 20
-5.667277403607319
 30
0.0
 10
8.64631549106887
 20
-5.65276682736646
 30
0.0
 10
8.667338976552468
 20
-5.638378862230121
 30
0.0
 10
8.688452863167356
 20
-5.624114547218781
 30
0.0
 10
8.709566749782242
 20
-5.609850232207119
 30
0.0
 10
8.730771037529061
 20
-5.595709567320776
 30
0.0
 10
8.752064687390865
 20
-5.581693591579905
 30
0.0
 10
8.773358337252668
 20
-5.567677615839033
 30
0.0
 10
8.794741349229458
 20
-5.553786329243314
 30
0.0
 10
8.816212684305249
 20
-5.540020770813543
 30
0.0
 10
8.837684019381038
 20
-5.526255212383772
 30
0.0
 10
8.85924367755519
 20
-5.512615382119948
 30
0.0
 10
8.880890619811396
 20
-5.499102319041907
 30
0.0
 10
8.902537562067922
 20
-5.485589255964186
 30
0.0
 10
8.924271788406505
 20
-5.472202960072568
 30
0.0
 10
8.946092259810838
 20
-5.458944470387528
 30
0.0
 10
8.967912731215172
 20
-5.445685980702487
 30
0.0
 10
8.989819447685258
 20
-5.432555297224025
 30
0.0
 10
9.011811370204148
 20
-5.419553458972616
 30
0.0
 10
9.03380329272336
 20
-5.406551620721206
 30
0.0
 10
9.055880421291375
 20
-5.39367862769685
 30
0.0
 10
9.078041716892535
 20
-5.380935518920023
 30
0.0
 10
9.100203012493372
 20
-5.368192410143195
 30
0.0
 10
9.122448475127033
 20
-5.355579185613577
 30
0.0
 10
9.14477706577689
 20
-5.34309688435164
 30
0.0
 10
9.167105656426425
 20
-5.330614583089703
 30
0.0
 10
9.189517375092478
 20
-5.318263205096091
 30
0.0
 10
9.212011182758104
 20
-5.306043789390317
 30
0.0
 10
9.234504990423728
 20
-5.293824373684544
 30
0.0
 10
9.257080887089245
 20
-5.281736920267249
 30
0.0
 10
9.279737833737709
 20
-5.269782468158267
 30
0.0
 10
9.302394780386173
 20
-5.257828016049606
 30
0.0
 10
9.325132777018224
 20
-5.246006565249258
 30
0.0
 10
9.347950784616597
 20
-5.234319154778019
 30
0.0
 10
9.37076879221497
 20
-5.22263174430678
 30
0.0
 10
9.393666810780305
 20
-5.211078374164651
 30
0.0
 10
9.416643801295656
 20
-5.199660083371786
 30
0.0
 10
9.439620791811329
 20
-5.18824179257924
 30
0.0
 10
9.46267675427702
 20
-5.176958581135959
 30
0.0
 10
9.4858106496761
 20
-5.165811488062417
 30
0.0
 10
9.508944545075503
 20
-5.154664394988875
 30
0.0
 10
9.532156373408618
 20
-5.143653420285393
 30
0.0
 10
9.55544509565882
 20
-5.132779602972125
 30
0.0
 10
9.578733817909344
 20
-5.121905785658536
 30
0.0
 10
9.602099434076633
 20
-5.111169125735483
 30
0.0
 10
9.625540905145026
 20
-5.100570662223119
 30
0.0
 10
9.64898237621342
 20
-5.089972198710435
 30
0.0
 10
9.672499702182275
 20
-5.079511931608761
 30
0.0
 10
9.696091844035609
 20
-5.069190899937932
 30
0.0
 10
9.719683985888622
 20
-5.058869868267423
 30
0.0
 10
9.743350943626114
 20
-5.048688072027759
 30
0.0
 10
9.76709167823146
 20
-5.038646550239414
 30
0.0
 10
9.790832412836805
 20
-5.02860502845107
 30
0.0
 10
9.814646924309683
 20
-5.018703781114686
 30
0.0
 10
9.83853417363379
 20
-5.008943847249777
 30
0.0
 10
9.862421422958217
 20
-4.999183913384869
 30
0.0
 10
9.886381410133552
 20
-4.989565292991754
 30
0.0
 10
9.910413096143811
 20
-4.980089025090911
 30
0.0
 10
9.934444782154069
 20
-4.970612757190067
 30
0.0
 10
9.958548166999252
 20
-4.961278841781494
 30
0.0
 10
9.982722211662413
 20
-4.952088317885667
 30
0.0
 10
10.00689625632557
 20
-4.94289779398984
 30
0.0
 10
10.03114096080735
 20
-4.933850661607079
 30
0.0
 10
10.05545528609081
 20
-4.924947959756897
 30
0.0
 10
10.07976961137426
 20
-4.916045257906716
 30
0.0
 10
10.10415355745939
 20
-4.907286986589756
 30
0.0
 10
10.12860608532989
 20
-4.898674184826171
 30
0.0
 10
10.15305861320039
 20
-4.890061383062908
 30
0.0
 10
10.17757972285593
 20
-4.881594050853019
 30
0.0
 10
10.20216837528054
 20
-4.873273227216662
 30
0.0
 10
10.22675702770515
 20
-4.864952403580304
 30
0.0
 10
10.25141322289851
 20
-4.856778088518118
 30
0.0
 10
10.2761359218443
 20
-4.848751321050258
 30
0.0
 10
10.30085862078978
 20
-4.840724553582398
 30
0.0
 10
10.32564782348769
 20
-4.832845333708865
 30
0.0
 10
10.35050249092142
 20
-4.825114700449813
 30
0.0
 10
10.37535715835515
 20
-4.81738406719076
 30
0.0
 10
10.40027729052469
 20
-4.80980202054651
 30
0.0
 10
10.42526184841343
 20
-4.802369599537536
 30
0.0
 10
10.45024640630248
 20
-4.794937178528563
 30
0.0
 10
10.47529538991072
 20
-4.787654383154224
 30
0.0
 10
10.50040776022153
 20
-4.780522252435959
 30
0.0
 10
10.52552013053234
 20
-4.773390121717373
 30
0.0
 10
10.55069588754635
 20
-4.766408655654219
 30
0.0
 10
10.57593399224631
 20
-4.759578893267293
 30
0.0
 10
10.60117209694658
 20
-4.752749130880367
 30
0.0
 10
10.62647254933279
 20
-4.746071072169026
 30
0.0
 10
10.65183431038928
 20
-4.739545756154069
 30
0.0
 10
10.67719607144577
 20
-4.733020440139431
 30
0.0
 10
10.7026191411719
 20
-4.726647866820856
 30
0.0
 10
10.72810248055135
 20
-4.720429075219138
 30
0.0
 10
10.75358581993081
 20
-4.714210283617099
 30
0.0
 10
10.77912942896359
 20
-4.708145273731919
 30
0.0
 10
10.8047322686334
 20
-4.70223508458407
 30
0.0
 10
10.83033510830322
 20
-4.696324895436223
 30
0.0
 10
10.85599717860973
 20
-4.690569527025387
 30
0.0
 10
10.88171744053665
 20
-4.684970018372359
 30
0.0
 10
10.90743770246357
 20
-4.679370509719011
 30
0.0
 10
10.93321615601089
 20
-4.673926860823472
 30
0.0
 10
10.95905176216199
 20
-4.668640110705574
 30
0.0
 10
10.98488736831308
 20
-4.663353360587677
 30
0.0
 10
11.01078012706827
 20
-4.658223509248063
 30
0.0
 10
11.03672899941062
 20
-4.653251595706567
 30
0.0
 10
11.06267787175296
 20
-4.64827968216507
 30
0.0
 10
11.08868285768277
 20
-4.643465706422012
 30
0.0
 10
11.11474291818343
 20
-4.638810707497547
 30
0.0
 10
11.1408029786841
 20
-4.634155708573082
 30
0.0
 10
11.1669181137556
 20
-4.629659686467209
 30
0.0
 10
11.19308728438165
 20
-4.625323680200726
 30
0.0
 10
11.21925645500738
 20
-4.620987673934242
 30
0.0
 10
11.24547966118765
 20
-4.616811683506827
 30
0.0
 10
11.27175586390584
 20
-4.612796747939276
 30
0.0
 10
11.29803206662403
 20
-4.608781812371725
 30
0.0
 10
11.32436126588013
 20
-4.604927931663397
 30
0.0
 10
11.35074242265753
 20
-4.601236144835088
 30
0.0
 10
11.37712357943525
 20
-4.597544358006779
 30
0.0
 10
11.40355669373393
 20
-4.594014665058488
 30
0.0
 10
11.43004072653761
 20
-4.590648105010692
 30
0.0
 10
11.45652475934128
 20
-4.587281544962896
 30
0.0
 10
11.48305971064995
 20
-4.584078117814952
 30
0.0
 10
11.50964454144729
 20
-4.581038862588299
 30
0.0
 10
11.53622937224432
 20
-4.577999607361646
 30
0.0
 10
11.56286408253003
 20
-4.575124524055642
 30
0.0
 10
11.58954763328747
 20
-4.572414651690762
 30
0.0
 10
11.61623118404492
 20
-4.569704779325882
 30
0.0
 10
11.64296357527442
 20
-4.567160117902446
 30
0.0
 10
11.66974376795936
 20
-4.56478170644029
 30
0.0
 10
11.6965239606443
 20
-4.562403294978455
 30
0.0
 10
11.72335195478434
 20
-4.560191133477898
 30
0.0
 10
11.75022671136352
 20
-4.558146260959416
 30
0.0
 10
11.7771014679427
 20
-4.556101388440934
 30
0.0
 10
11.804022986961
 20
-4.554223804904526
 30
0.0
 10
11.83099022940149
 20
-4.552514549370348
 30
0.0
 10
11.85795747184198
 20
-4.55080529383617
 30
0.0
 10
11.88497043770497
 20
-4.549264366304542
 30
0.0
 10
11.91202808797416
 20
-4.54789280579562
 30
0.0
 10
11.93908573824335
 20
-4.546521245286697
 30
0.0
 10
11.9661880729181
 20
-4.545319051800479
 30
0.0
 10
11.99333405298242
 20
-4.544287264357761
 30
0.0
 10
12.02048003304674
 20
-4.543255476915045
 30
0.0
 10
12.04766965850063
 20
-4.542394095515507
 30
0.0
 10
12.07490189032748
 20
-4.541704159179305
 30
0.0
 10
12.10213412215432
 20
-4.541014222843102
 30
0.0
 10
12.12940896035443
 20
-4.540495731570876
 30
0.0
 10
12.15672536591055
 20
-4.54014972438246
 30
0.0
 10
12.18404177146699
 20
-4.539803717194044
 30
0.0
 10
12.21139974437975
 20
-4.539630194089438
 30
0.0
 10
12.23879824563253
 20
-4.539630194089438
 30
0.0
 10
12.2661967468853
 20
-4.539630194089438
 30
0.0
 10
12.29355471979806
 20
-4.539803717194044
 30
0.0
 10
12.3208711253545
 20
-4.54014972438246
 30
0.0
 10
12.34818753091094
 20
-4.540495731570876
 30
0.0
 10
12.37546236911073
 20
-4.541014222843102
 30
0.0
 10
12.40269460093725
 20
-4.541704159179305
 30
0.0
 10
12.42992683276377
 20
-4.542394095515507
 30
0.0
 10
12.45711645821831
 20
-4.543255476915045
 30
0.0
 10
12.48426243828295
 20
-4.544287264357761
 30
0.0
 10
12.51140841834759
 20
-4.545319051800479
 30
0.0
 10
12.53851075302234
 20
-4.546521245286697
 30
0.0
 10
12.56556840329121
 20
-4.54789280579562
 30
0.0
 10
12.59262605356008
 20
-4.549264366304542
 30
0.0
 10
12.61963901942307
 20
-4.55080529383617
 30
0.0
 10
12.64660626186356
 20
-4.552514549370348
 30
0.0
 10
12.67357350430405
 20
-4.554223804904526
 30
0.0
 10
12.70049502332203
 20
-4.556101388440934
 30
0.0
 10
12.72736977990153
 20
-4.558146260959416
 30
0.0
 10
12.75424453648103
 20
-4.560191133477898
 30
0.0
 10
12.78107253062075
 20
-4.562403294978455
 30
0.0
 10
12.80785272330601
 20
-4.56478170644029
 30
0.0
 10
12.83463291599127
 20
-4.567160117902446
 30
0.0
 10
12.86136530722077
 20
-4.569704779325882
 30
0.0
 10
12.8880488579779
 20
-4.572414651690762
 30
0.0
 10
12.91473240873502
 20
-4.575124524055642
 30
0.0
 10
12.94136711902105
 20
-4.577999607361646
 30
0.0
 10
12.96795194981808
 20
-4.581038862588299
 30
0.0
 10
12.9945367806151
 20
-4.584078117814952
 30
0.0
 10
13.0210717319244
 20
-4.587281544962896
 30
0.0
 10
13.04755576472808
 20
-4.590648105010692
 30
0.0
 10
13.07403979753176
 20
-4.594014665058488
 30
0.0
 10
13.10047291183044
 20
-4.597544358006779
 30
0.0
 10
13.12685406860816
 20
-4.601236144835088
 30
0.0
 10
13.15323522538524
 20
-4.604927931663397
 30
0.0
 10
13.17956442464134
 20
-4.608781812371725
 30
0.0
 10
13.20584062735985
 20
-4.612796747939276
 30
0.0
 10
13.23211683007836
 20
-4.616811683506827
 30
0.0
 10
13.25834003625799
 20
-4.620987673934242
 30
0.0
 10
13.28450920688404
 20
-4.625323680200726
 30
0.0
 10
13.31067837751009
 20
-4.629659686467209
 30
0.0
 10
13.33679351258127
 20
-4.634155708573082
 30
0.0
 10
13.36285357308225
 20
-4.638810707497547
 30
0.0
 10
13.38891363358324
 20
-4.643465706422012
 30
0.0
 10
13.41491861951273
 20
-4.64827968216507
 30
0.0
 10
13.44086749185475
 20
-4.653251595706567
 30
0.0
 10
13.46681636419678
 20
-4.658223509248063
 30
0.0
 10
13.49270912295197
 20
-4.663353360587677
 30
0.0
 10
13.51854472910306
 20
-4.668640110705574
 30
0.0
 10
13.54438033525416
 20
-4.673926860823472
 30
0.0
 10
13.57015878880116
 20
-4.679370509719011
 30
0.0
 10
13.59587905072872
 20
-4.684970018372359
 30
0.0
 10
13.62159931265499
 20
-4.690569527025387
 30
0.0
 10
13.64726138296183
 20
-4.696324895436223
 30
0.0
 10
13.67286422263132
 20
-4.70223508458407
 30
0.0
 10
13.69846706230146
 20
-4.708145273731919
 30
0.0
 10
13.72401067133424
 20
-4.714210283617099
 30
0.0
 10
13.7494940107137
 20
-4.720429075219138
 30
0.0
 10
13.77497735009315
 20
-4.726647866820856
 30
0.0
 10
13.80040041981928
 20
-4.733020440139431
 30
0.0
 10
13.82576218087545
 20
-4.739545756154069
 30
0.0
 10
13.85112394193161
 20
-4.746071072169026
 30
0.0
 10
13.87642439431847
 20
-4.752749130880367
 30
0.0
 10
13.90166249901874
 20
-4.759578893267293
 30
0.0
 10
13.92690060371837
 20
-4.766408655654219
 30
0.0
 10
13.95207636073271
 20
-4.773390121717373
 30
0.0
 10
13.9771887310432
 20
-4.780522252435959
 30
0.0
 10
14.00230110135433
 20
-4.787654383154224
 30
0.0
 10
14.02735008496289
 20
-4.794937178528563
 30
0.0
 10
14.05233464285162
 20
-4.802369599537536
 30
0.0
 10
14.07731920074036
 20
-4.80980202054651
 30
0.0
 10
14.1022393329099
 20
-4.81738406719076
 30
0.0
 10
14.12709400034363
 20
-4.825114700449813
 30
0.0
 10
14.15194866777736
 20
-4.832845333708865
 30
0.0
 10
14.17673787047527
 20
-4.840724553582398
 30
0.0
 10
14.20146056942074
 20
-4.848751321050258
 30
0.0
 10
14.22618326836622
 20
-4.856778088518118
 30
0.0
 10
14.2508394635599
 20
-4.864952403580304
 30
0.0
 10
14.27542811598451
 20
-4.873273227216662
 30
0.0
 10
14.30001676840848
 20
-4.881594050853019
 30
0.0
 10
14.32453787806466
 20
-4.890061383062908
 30
0.0
 10
14.34899040593452
 20
-4.898674184826171
 30
0.0
 10
14.37344293380502
 20
-4.907286986589756
 30
0.0
 10
14.39782687989046
 20
-4.916045257906716
 30
0.0
 10
14.4221412051736
 20
-4.924947959756897
 30
0.0
 10
14.44645553045673
 20
-4.933850661607079
 30
0.0
 10
14.47070023493883
 20
-4.94289779398984
 30
0.0
 10
14.49487427960199
 20
-4.952088317885667
 30
0.0
 10
14.51904832426515
 20
-4.961278841781494
 30
0.0
 10
14.54315170911066
 20
-4.970612757190067
 30
0.0
 10
14.5671833951206
 20
-4.980089025090911
 30
0.0
 10
14.59121508113053
 20
-4.989565292991754
 30
0.0
 10
14.61517506830619
 20
-4.999183913384869
 30
0.0
 10
14.6390623176303
 20
-5.008943847249777
 30
0.0
 10
14.66294956695504
 20
-5.018703781114686
 30
0.0
 10
14.68676407842824
 20
-5.02860502845107
 30
0.0
 10
14.71050481303327
 20
-5.038646550239414
 30
0.0
 10
14.73424554763829
 20
-5.048688072027759
 30
0.0
 10
14.75791250537643
 20
-5.058869868267423
 30
0.0
 10
14.78150464722912
 20
-5.069190899937932
 30
0.0
 10
14.80509678908245
 20
-5.079511931608761
 30
0.0
 10
14.82861411505163
 20
-5.089972198710435
 30
0.0
 10
14.85205558611938
 20
-5.100570662223119
 30
0.0
 10
14.87549705718777
 20
-5.111169125735483
 30
0.0
 10
14.89886267335539
 20
-5.121905785658536
 30
0.0
 10
14.92215139560559
 20
-5.132779602972125
 30
0.0
 10
14.94544011785579
 20
-5.143653420285393
 30
0.0
 10
14.96865194618922
 20
-5.154664394988875
 30
0.0
 10
14.99178584158863
 20
-5.165811488062417
 30
0.0
 10
15.01491973698803
 20
-5.176958581135959
 30
0.0
 10
15.0379756994534
 20
-5.18824179257924
 30
0.0
 10
15.06095268996875
 20
-5.199660083371786
 30
0.0
 10
15.0839296804841
 20
-5.211078374164651
 30
0.0
 10
15.10682769904944
 20
-5.22263174430678
 30
0.0
 10
15.12964570664749
 20
-5.234319154778019
 30
0.0
 10
15.15246371424618
 20
-5.246006565249258
 30
0.0
 10
15.17520171087759
 20
-5.257828016049606
 30
0.0
 10
15.19785865752638
 20
-5.269782468158267
 30
0.0
 10
15.22051560417516
 20
-5.281736920267249
 30
0.0
 10
15.24309150084068
 20
-5.293824373684544
 30
0.0
 10
15.2655853085063
 20
-5.306043789390317
 30
0.0
 10
15.28807911617193
 20
-5.318263205096091
 30
0.0
 10
15.3104908348383
 20
-5.330614583089703
 30
0.0
 10
15.33281942548816
 20
-5.34309688435164
 30
0.0
 10
15.35514801613802
 20
-5.355579185613577
 30
0.0
 10
15.37739347877135
 20
-5.368192410143195
 30
0.0
 10
15.39955477437219
 20
-5.380935518920023
 30
0.0
 10
15.42171606997303
 20
-5.39367862769685
 30
0.0
 10
15.44379319854201
 20
-5.406551620721206
 30
0.0
 10
15.46578512106058
 20
-5.419553458972616
 30
0.0
 10
15.48777704357979
 20
-5.432555297224025
 30
0.0
 10
15.50968376004988
 20
-5.445685980702487
 30
0.0
 10
15.53150423145421
 20
-5.458944470387528
 30
0.0
 10
15.55332470285854
 20
-5.472202960072568
 30
0.0
 10
15.57505892919648
 20
-5.485589255964186
 30
0.0
 10
15.59670587145333
 20
-5.499102319041907
 30
0.0
 10
15.61835281370954
 20
-5.512615382119948
 30
0.0
 10
15.63991247188401
 20
-5.526255212383772
 30
0.0
 10
15.66138380695948
 20
-5.540020770813543
 30
0.0
 10
15.68285514203559
 20
-5.553786329243314
 30
0.0
 10
15.70423815401206
 20
-5.567677615839033
 30
0.0
 10
15.72553180387418
 20
-5.581693591579905
 30
0.0
 10
15.74682545373567
 20
-5.595709567320776
 30
0.0
 10
15.76802974148281
 20
-5.609850232207119
 30
0.0
 10
15.78914362809769
 20
-5.624114547218781
 30
0.0
 10
15.81025751471258
 20
-5.638378862230121
 30
0.0
 10
15.8312810001965
 20
-5.65276682736646
 30
0.0
 10
15.85221304553154
 20
-5.667277403607319
 30
0.0
 10
15.87314509086723
 20
-5.681787979848179
 30
0.0
 10
15.89398569605403
 20
-5.696421167193883
 30
0.0
 10
15.91473382207662
 20
-5.711175926623311
 30
0.0
 10
15.93548194809921
 20
-5.725930686053061
 30
0.0
 10
15.95613759495757
 20
-5.740807017566857
 30
0.0
 10
15.97669972363446
 20
-5.755803882144544
 30
0.0
 10
15.99726185231134
 20
-5.770800746721911
 30
0.0
 10
16.01773046280674
 20
-5.785918144363491
 30
0.0
 10
16.03810451610467
 20
-5.801155036048168
 30
0.0
 10
16.0584785694026
 20
-5.816391927732843
 30
0.0
 10
16.07875806550305
 20
-5.831748313460936
 30
0.0
 10
16.09894196538942
 20
-5.847223154211969
 30
0.0
 10
16.11912586527578
 20
-5.862697994963003
 30
0.0
 10
16.13921416894805
 20
-5.878291290736978
 30
0.0
 10
16.1592058373896
 20
-5.894002002513419
 30
0.0
 10
16.17919750583115
 20
-5.90971271428986
 30
0.0
 10
16.19909253904262
 20
-5.925540842069088
 30
0.0
 10
16.21888989800675
 20
-5.941485346830307
 30
0.0
 10
16.23868725697088
 20
-5.957429851591845
 30
0.0
 10
16.25838694168766
 20
-5.973490733335055
 30
0.0
 10
16.27798791314111
 20
-5.9896669530401
 30
0.0
 10
16.29758888459457
 20
-6.005843172745466
 30
0.0
 10
16.31709114278405
 20
-6.022134730412026
 30
0.0
 10
16.33649364869423
 20
-6.038540587020268
 30
0.0
 10
16.35589615460376
 20
-6.054946443628509
 30
0.0
 10
16.37519890823334
 20
-6.071466599178112
 30
0.0
 10
16.39440087056634
 20
-6.0881000146486
 30
0.0
 10
16.41360283289998
 20
-6.104733430119088
 30
0.0
 10
16.4327040039364
 20
-6.121480105510461
 30
0.0
 10
16.45170334465962
 20
-6.138339001802565
 30
0.0
 10
16.47070268538283
 20
-6.155197898094669
 30
0.0
 10
16.48960019579349
 20
-6.172169015287183
 30
0.0
 10
16.50839483687431
 20
-6.189251314359632
 30
0.0
 10
16.52718947795514
 20
-6.20633361343208
 30
0.0
 10
16.54588124970614
 20
-6.223527094385106
 30
0.0
 10
16.56446911311197
 20
-6.240830718197269
 30
0.0
 10
16.58305697651715
 20
-6.258134342009753
 30
0.0
 10
16.60154093157652
 20
-6.275548108682018
 30
0.0
 10
16.61991993927282
 20
-6.293070979193586
 30
0.0
 10
16.63829894696911
 20
-6.310593849705155
 30
0.0
 10
16.65657300730361
 20
-6.328225824055709
 30
0.0
 10
16.67474108125904
 20
-6.345965863225412
 30
0.0
 10
16.69290915521383
 20
-6.363705902395115
 30
0.0
 10
16.7109712427902
 20
-6.381554006383647
 30
0.0
 10
16.72892630497089
 20
-6.399509136170854
 30
0.0
 10
16.74688136715157
 20
-6.417464265958062
 30
0.0
 10
16.76472940393657
 20
-6.435526421543623
 30
0.0
 10
16.78246937630989
 20
-6.453694563907384
 30
0.0
 10
16.80020934868322
 20
-6.471862706271145
 30
0.0
 10
16.81784125664423
 20
-6.490136835412785
 30
0.0
 10
16.83536406117631
 20
-6.508515912312469
 30
0.0
 10
16.85288686570902
 20
-6.526894989211833
 30
0.0
 10
16.8703005668128
 20
-6.545379013868921
 30
0.0
 10
16.8876041254723
 20
-6.563966947263578
 30
0.0
 10
16.90490768413115
 20
-6.582554880657915
 30
0.0
 10
16.92210110034509
 20
-6.601246722789821
 30
0.0
 10
16.93918333509747
 20
-6.620041434638501
 30
0.0
 10
16.95626556984986
 20
-6.638836146486859
 30
0.0
 10
16.97323662314134
 20
-6.657733728052634
 30
0.0
 10
16.99009545595465
 20
-6.676733140314705
 30
0.0
 10
17.00695428876796
 20
-6.695732552576457
 30
0.0
 10
17.0237009011031
 20
-6.714833795535148
 30
0.0
 10
17.04033425394344
 20
-6.734035830169661
 30
0.0
 10
17.05696760678378
 20
-6.753237864804174
 30
0.0
 10
17.07348770013061
 20
-6.772540691114831
 30
0.0
 10
17.08989349496537
 20
-6.791943270081157
 30
0.0
 10
17.10629928980078
 20
-6.811345849047482
 30
0.0
 10
17.1225907861254
 20
-6.830848180669475
 30
0.0
 10
17.13876694492198
 20
-6.850449225926662
 30
0.0
 10
17.15494310371855
 20
-6.870050271183848
 30
0.0
 10
17.17100392498773
 20
-6.889750030076548
 30
0.0
 10
17.18694836971351
 20
-6.909547463583644
 30
0.0
 10
17.20289281443864
 20
-6.929344897091383
 30
0.0
 10
17.2187208826204
 20
-6.949240005213517
 30
0.0
 10
17.23443153524085
 20
-6.969231748930215
 30
0.0
 10
17.25014218786194
 20
-6.989223492646913
 30
0.0
 10
17.26573542492238
 20
-7.009311871958174
 30
0.0
 10
17.28121020740554
 20
-7.029495847843201
 30
0.0
 10
17.29668498988934
 20
-7.049679823728228
 30
0.0
 10
17.31204131779585
 20
-7.069959396187664
 30
0.0
 10
17.32727815210911
 20
-7.090333526200391
 30
0.0
 10
17.34251498642236
 20
-7.110707656213118
 30
0.0
 10
17.35763232714234
 20
-7.131176343779779
 30
0.0
 10
17.3726291352518
 20
-7.151738549879576
 30
0.0
 10
17.3876259433619
 20
-7.172300755979373
 30
0.0
 10
17.40250221886211
 20
-7.192956480612307
 30
0.0
 10
17.41725692273516
 20
-7.213704684758223
 30
0.0
 10
17.43201162660885
 20
-7.234452888904139
 30
0.0
 10
17.44664475885603
 20
-7.255293572562717
 30
0.0
 10
17.46115528046007
 20
-7.276225696713801
 30
0.0
 10
17.47566580206474
 20
-7.297157820864887
 30
0.0
 10
17.49005371302564
 20
-7.318181385508478
 30
0.0
 10
17.50431797432741
 20
-7.339295351623781
 30
0.0
 10
17.51858223562919
 20
-7.360409317739083
 30
0.0
 10
17.53272284727183
 20
-7.381613685326737
 30
0.0
 10
17.54673877023809
 20
-7.402907415365949
 30
0.0
 10
17.56075469320499
 20
-7.42420114540516
 30
0.0
 10
17.5746459274955
 20
-7.445584237895927
 30
0.0
 10
17.58841143409428
 20
-7.467055653818096
 30
0.0
 10
17.60217694069242
 20
-7.488527069740265
 30
0.0
 10
17.61581671959818
 20
-7.510086809093515
 30
0.0
 10
17.62932973179558
 20
-7.531733832857691
 30
0.0
 10
17.64284274399234
 20
-7.553380856621868
 30
0.0
 10
17.65622898948075
 20
-7.575115164796649
 30
0.0
 10
17.66948742924353
 20
-7.596935718361883
 30
0.0
 10
17.68274586900567
 20
-7.618756271927116
 30
0.0
 10
17.69587650304346
 20
-7.640663070882799
 30
0.0
 10
17.70887829233901
 20
-7.662655076208459
 30
0.0
 10
17.72188008163392
 20
-7.684647081534118
 30
0.0
 10
17.73475302618786
 20
-7.706724293229754
 30
0.0
 10
17.74749608698292
 20
-7.728885672274889
 30
0.0
 10
17.76023914777799
 20
-7.751047051320345
 30
0.0
 10
17.77285232481546
 20
-7.773292597714981
 30
0.0
 10
17.78533457907744
 20
-7.795621272439283
 30
0.0
 10
17.79781683333941
 20
-7.817949947163265
 30
0.0
 10
17.81016816482717
 20
-7.840361750216271
 30
0.0
 10
17.8223875345228
 20
-7.862855642578468
 30
0.0
 10
17.83460690421843
 20
-7.885349534940667
 30
0.0
 10
17.84669431212322
 20
-7.907925516611414
 30
0.0
 10
17.8586487192199
 20
-7.930582548570555
 30
0.0
 10
17.87060312631658
 20
-7.953239580529698
 30
0.0
 10
17.8824245326058
 20
-7.975977662777235
 30
0.0
 10
17.89411189907028
 20
-7.998795756292692
 30
0.0
 10
17.90579926553476
 20
-8.02161384980815
 30
0.0
 10
17.91735259217515
 20
-8.044511954591846
 30
0.0
 10
17.92877083997418
 20
-8.067489031622667
 30
0.0
 10
17.94018908777385
 20
-8.090466108653809
 30
0.0
 10
17.95147225673281
 20
-8.113522157932396
 30
0.0
 10
17.96261930783378
 20
-8.136656140438271
 30
0.0
 10
17.97376635893475
 20
-8.159790122944147
 30
0.0
 10
17.98477729217902
 20
-8.183002038677312
 30
0.0
 10
17.99565106854932
 20
-8.206290848616971
 30
0.0
 10
18.00652484491962
 20
-8.22957965855663
 30
0.0
 10
18.01726146441596
 20
-8.252945362703105
 30
0.0
 10
18.0278598880217
 20
-8.276386922035918
 30
0.0
 10
18.03845831162744
 20
-8.29982848136873
 30
0.0
 10
18.04891853934387
 20
-8.323345895887883
 30
0.0
 10
18.05923953215245
 20
-8.346938126572898
 30
0.0
 10
18.06956052496166
 20
-8.370530357257913
 30
0.0
 10
18.07974228286366
 20
-8.394197404109113
 30
0.0
 10
18.08978376684246
 20
-8.417938228105703
 30
0.0
 10
18.09982525082125
 20
-8.441679052102291
 30
0.0
 10
18.10972646087684
 20
-8.465493653244268
 30
0.0
 10
18.11948635799261
 20
-8.489380992511798
 30
0.0
 10
18.12924625510838
 20
-8.51326833177901
 30
0.0
 10
18.13886483928496
 20
-8.537228409171453
 30
0.0
 10
18.14834107150445
 20
-8.561260185668656
 30
0.0
 10
18.15781730372394
 20
-8.58529196216586
 30
0.0
 10
18.16715118398762
 20
-8.609395437767821
 30
0.0
 10
18.17634167327822
 20
-8.633569573454066
 30
0.0
 10
18.18553216256947
 20
-8.65774370914031
 30
0.0
 10
18.19457926088699
 20
-8.681988504910837
 30
0.0
 10
18.20348192921546
 20
-8.706302921745493
 30
0.0
 10
18.21238459754456
 20
-8.730617338580151
 30
0.0
 10
18.22114283588333
 20
-8.755001376478614
 30
0.0
 10
18.22975560521705
 20
-8.779453996420411
 30
0.0
 10
18.23836837455077
 20
-8.803906616362529
 30
0.0
 10
18.2468356748788
 20
-8.828427818347977
 30
0.0
 10
18.25515646718452
 20
-8.853016563356604
 30
0.0
 10
18.26347725949024
 20
-8.877605308365233
 30
0.0
 10
18.27165154377366
 20
-8.902261596397038
 30
0.0
 10
18.27967828101814
 20
-8.926984388431546
 30
0.0
 10
18.28770501826325
 20
-8.951707180465732
 30
0.0
 10
18.2955842084688
 20
-8.976496476502943
 30
0.0
 10
18.30331481262006
 20
-9.00135123752238
 30
0.0
 10
18.31104541677132
 20
-9.026205998541817
 30
0.0
 10
18.31862743486638
 20
-9.051126224543482
 30
0.0
 10
18.32605982789054
 20
-9.07611087650722
 30
0.0
 10
18.33349222091405
 20
-9.101095528470957
 30
0.0
 10
18.34077498886603
 20
-9.126144606396446
 30
0.0
 10
18.34790709272983
 20
-9.151257071263533
 30
0.0
 10
18.35503919659363
 20
-9.176369536130618
 30
0.0
 10
18.36202063636926
 20
-9.201545387938982
 30
0.0
 10
18.3688503730401
 20
-9.226783587668466
 30
0.0
 10
18.37568010971158
 20
-9.25202178739795
 30
0.0
 10
18.38235814327762
 20
-9.277322335048558
 30
0.0
 10
18.38888343472289
 20
-9.30268419160013
 30
0.0
 10
18.39540872616815
 20
-9.328046048151705
 30
0.0
 10
18.40178127549199
 20
-9.353469213603605
 30
0.0
 10
18.40800004367779
 20
-9.378952648935996
 30
0.0
 10
18.41421881186423
 20
-9.404436084268388
 30
0.0
 10
18.42028379891263
 20
-9.429979789480951
 30
0.0
 10
18.42619396580699
 20
-9.45558272555353
 30
0.0
 10
18.43210413270136
 20
-9.481185661625789
 30
0.0
 10
18.4378594794417
 20
-9.506847828558385
 30
0.0
 10
18.44345896701074
 20
-9.532568187330202
 30
0.0
 10
18.44905845457978
 20
-9.558288546102018
 30
0.0
 10
18.45450208297882
 20
-9.584067096713376
 30
0.0
 10
18.45978881319057
 20
-9.6099028001438
 30
0.0
 10
18.46507554340232
 20
-9.635738503574224
 30
0.0
 10
18.47020537542679
 20
-9.661631359823714
 30
0.0
 10
18.47517727024736
 20
-9.687580329871794
 30
0.0
 10
18.48014916506793
 20
-9.713529299919875
 30
0.0
 10
18.48496312268524
 20
-9.739534383766866
 30
0.0
 10
18.48961810408201
 20
-9.765594542391653
 30
0.0
 10
18.49427308547879
 20
-9.791654701016439
 30
0.0
 10
18.49876909065568
 20
-9.817769934419982
 30
0.0
 10
18.50310508059541
 20
-9.843939203581165
 30
0.0
 10
18.50744107053579
 20
-9.870108472742027
 30
0.0
 10
18.51161704523965
 20
-9.896331777661171
 30
0.0
 10
18.51563196568974
 20
-9.92260807931748
 30
0.0
 10
18.51964688613982
 20
-9.948884380973787
 30
0.0
 10
18.52350075233677
 20
-9.9752136793679
 30
0.0
 10
18.52719252526459
 20
-10.00159493547871
 30
0.0
 10
18.53088429819178
 20
-10.02797619158983
 30
0.0
 10
18.53441397784984
 20
-10.05440940541764
 30
0.0
 10
18.53778052522151
 20
-10.08089353794231
 30
0.0
 10
18.54114707259318
 20
-10.10737767046698
 30
0.0
 10
18.54435048767911
 20
-10.13391272168818
 30
0.0
 10
18.54738973146202
 20
-10.16049765258577
 30
0.0
 10
18.55042897524558
 20
-10.18708258348335
 30
0.0
 10
18.55330404772612
 20
-10.21371739405667
 30
0.0
 10
18.55601390988702
 20
-10.24040104528622
 30
0.0
 10
18.55872377204793
 20
-10.26708469651577
 30
0.0
 10
18.56126842389047
 20
-10.2938171884009
 30
0.0
 10
18.56364682639676
 20
-10.32059748192178
 30
0.0
 10
18.56602522890368
 20
-10.34737777544234
 30
0.0
 10
18.56823738207434
 20
-10.37420587059865
 30
0.0
 10
18.5702822468934
 20
-10.40108072836992
 30
0.0
 10
18.57232711171246
 20
-10.42795558614118
 30
0.0
 10
18.57420468817927
 20
-10.45487720652708
 30
0.0
 10
18.5759139372772
 20
-10.4818445505081
 30
0.0
 10
18.57762318637578
 20
-10.50881189448912
 30
0.0
 10
18.57916410810549
 20
-10.53582496206462
 30
0.0
 10
18.58053566344969
 20
-10.56288271421412
 30
0.0
 10
18.5819072187939
 20
-10.58994046636362
 30
0.0
 10
18.5831094077539
 20
-10.61704290308776
 30
0.0
 10
18.58414119131177
 20
-10.64418898536512
 30
0.0
 10
18.58517297486964
 20
-10.67133506764279
 30
0.0
 10
18.58603435302603
 20
-10.69852479547431
 30
0.0
 10
18.58672428676431
 20
-10.72575712983921
 30
0.0
 10
18.5874142205026
 20
-10.7529894642041
 30
0.0
 10
18.58793270982278
 20
-10.78026440510237
 30
0.0
 10
18.58827871570822
 20
-10.80758091351354
 30
0.0
 10
18.58862472159431
 20
-10.83489742192503
 30
0.0
 10
18.58879824404502
 20
-10.86225549784909
 30
0.0
 10
18.58879824404502
 20
-10.8896541022659
 30
0.0
  0
ENDSEC
  0
SECTION
  2
OBJECTS
  0
DICTIONARY
  5
C
330
0
100
AcDbDictionary
  3
ACAD_GROUP
350
D
  3
ACAD_LAYOUT
350
1A
  3
ACAD_MATERIAL
350
3B
  3
ACAD_MLEADERSTYLE
350
45
  3
ACAD_MLINESTYLE
350
17
  3
ACAD_PLOTSETTINGS
350
19
  3
ACAD_VISUALSTYLE
350
2A
  3
ACDBVARIABLEDICTIONARY
350
43
1001
ACAD
1000
TREAT_AS_HARD
1070
     0
  0
DICTIONARY
  5
D
102
{ACAD_REACTORS
330
C
102
}
330
C
100
AcDbDictionary
1001
ACAD
1000
TREAT_AS_HARD
1070
     0
  0
DICTIONARY
  5
1A
102
{ACAD_REACTORS
330
C
102
}
330
C
100
AcDbDictionary
1001
ACAD
1000
TREAT_AS_HARD
1070
     0
  0
DICTIONARY
  5
3B
102
{ACAD_REACTORS
330
C
102
}
330
C
100
AcDbDictionary
  3
BYBLOCK
350
3D
  3
BYLAYER
350
3C
  3
GLOBAL
350
3E
1001
ACAD
1000
TREAT_AS_HARD
1070
     0
  0
DICTIONARY
  5
45
102
{ACAD_REACTORS
330
C
102
}
330
C
100
AcDbDictionary
1001
ACAD
1000
TREAT_AS_HARD
1070
     0
  0
DICTIONARY
  5
17
102
{ACAD_REACTORS
330
C
102
}
330
C
100
AcDbDictionary
  3
STANDARD
350
18
1001
ACAD
1000
TREAT_AS_HARD
1070
     0
  0
DICTIONARY
  5
19
102
{ACAD_REACTORS
330
C
102
}
330
C
100
AcDbDictionary
1001
ACAD
1000
TREAT_AS_HARD
1070
     0
  0
DICTIONARY
  5
2A
102
{ACAD_REACTORS
330
C
102
}
330
C
100
AcDbDictionary
  3
2DWIREFRAME
350
2F
  3
3DWIREFRAME
350
30
  3
3D_HIDDEN
350
31
  3
BASIC
350
32
  3
BRIGHTEN
350
36
  3
COLORCHANGE
350
3A
  3
CONCEPTUAL
350
34
  3
DIM
350
35
  3
FACEPATTERN
350
39
  3
FLAT
350
2B
  3
FLATWITHEDGES
350
2C
  3
GOURAUD
350
2D
  3
GOURAUDWITHEDGES
350
2E
  3
LINEPATTERN
350
38
  3
REALISTIC
350
33
  3
THICKEN
350
37
1001
ACAD
1000
TREAT_AS_HARD
1070
     0
  0
DICTIONARY
  5
43
102
{ACAD_REACTORS
330
C
102
}
330
C
100
AcDbDictionary
  3
DIMASSOC
350
46
  3
HIDETEXT
350
47
1001
ACAD
1000
TREAT_AS_HARD
1070
     0
  0
MATERIAL
  5
3D
102
{ACAD_REACTORS
330
3B
102
}
102
{ACAD_XDICTIONARY
360
4A
102
}
330
3B
100
AcDbMaterial
  1
ByBlock
  0
MATERIAL
  5
3C
102
{ACAD_REACTORS
330
3B
102
}
102
{ACAD_XDICTIONARY
360
48
102
}
330
3B
100
AcDbMaterial
  1
ByLayer
  0
MATERIAL
  5
3E
102
{ACAD_REACTORS
330
3B
102
}
102
{ACAD_XDICTIONARY
360
4C
102
}
330
3B
100
AcDbMaterial
  1
Global
  0
MLINESTYLE
  5
18
102
{ACAD_REACTORS
330
17
102
}
330
17
100
AcDbMlineStyle
  2
Standard
 70
     0
  3

 62
   256
 51
90.0
 52
90.0
 71
     2
 49
0.5
 62
   256
  6
BYLAYER
 49
-0.5
 62
   256
  6
BYLAYER
  0
ACAD_PROXY_OBJECT
  5
2F
102
{ACAD_REACTORS
330
2A
102
}
330
2A
100
AcDbZombieObject
 90
      499
 91
      501
 93
      436
310
42CC9915DA5C99599C985B595049028333333333333E3BF0000000000000FB0107901411070040501600405405064090741402480A0340
1001
ACAD
1000
AcDbSavedByObjectVersion
1070
     0
  0
ACAD_PROXY_OBJECT
  5
30
102
{ACAD_REACTORS
330
2A
102
}
330
2A
100
AcDbZombieObject
 90
      499
 91
      501
 93
      436
310
42CCD915DA5C99599C985B595059028333333333333E3BF0000000000000FB0107901411070040501600405405064090741402480A0340
1001
ACAD
1000
AcDbSavedByObjectVersion
1070
     0
  0
ACAD_PROXY_OBJECT
  5
31
102
{ACAD_REACTORS
330
2A
102
}
330
2A
100
AcDbZombieObject
 90
      499
 91
      501
 93
      500
310
424CD108121A5919195B90640502408333333333333E3BF0000000000000FB01079024090700405020000000000001110200405405064090740C02480A0340
1001
ACAD
1000
AcDbSavedByObjectVersion
1070
     0
  0
ACAD_PROXY_OBJECT
  5
32
102
{ACAD_REACTORS
330
2A
102
}
330
2A
100
AcDbZombieObject
 90
      499
 91
      501
 93
      388
310
4150985CDA58D07406404333333333333E3BF0000000000000FB0107A41107004050150841D405064090741402480A0350
1001
ACAD
1000
AcDbSavedByObjectVersion
1070
     0
  0
ACAD_PROXY_OBJECT
  5
36
102
{ACAD_REACTORS
330
2A
102
}
330
2A
100
AcDbZombieObject
 90
      499
 91
      501
 93
      428
310
42109C9A59DA1D195B90C409028333333333333E3BF0000000000000FB010790141107004050150841D405064090741402480A029950
1001
ACAD
1000
AcDbSavedByObjectVersion
1070
     0
  0
ACAD_PROXY_OBJECT
  5
3A
102
{ACAD_REACTORS
330
2A
102
}
330
2A
100
AcDbZombieObject
 90
      499
 91
      501
 93
      452
310
42D0DBDB1BDC90DA185B99D95104090240C333333333333E3BF0000000000000FB0108901411070040501508421405064090741402480A0350
1001
ACAD
1000
AcDbSavedByObjectVersion
1070
     0
  0
ACAD_PROXY_OBJECT
  5
34
102
{ACAD_REACTORS
330
2A
102
}
330
2A
100
AcDbZombieObject
 90
      499
 91
      501
 93
      500
310
4290DBDB98D95C1D1D585B10940D028333333333333E3BF0000000000000FB0107902409070040501000000000000111010841D405064090740C02480A0340
1001
ACAD
1000
AcDbSavedByObjectVersion
1070
     0
  0
ACAD_PROXY_OBJECT
  5
35
102
{ACAD_REACTORS
330
2A
102
}
330
2A
100
AcDbZombieObject
 90
      499
 91
      501
 93
      412
310
40D11A5B50B409028333333333333E3BF0000000000000FB010790141107004050150841D405064090741402480A02677FFFFFD0
1001
ACAD
1000
AcDbSavedByObjectVersion
1070
     0
  0
ACAD_PROXY_OBJECT
  5
39
102
{ACAD_REACTORS
330
2A
102
}
330
2A
100
AcDbZombieObject
 90
      499
 91
      501
 93
      444
310
42D19858D95C185D1D195C9B90F409028333333333333E3BF0000000000000FB010790141107004050150841D405064090741402480A0350
1001
ACAD
1000
AcDbSavedByObjectVersion
1070
     0
  0
ACAD_PROXY_OBJECT
  5
2B
102
{ACAD_REACTORS
330
2A
102
}
330
2A
100
AcDbZombieObject
 90
      499
 91
      501
 93
      388
310
41119B185D240901404333333333333E3BF0000000000000F9010740A41107004050150841D405064090741402480A1B50
1001
ACAD
1000
AcDbSavedByObjectVersion
1070
     0
  0
ACAD_PROXY_OBJECT
  5
2C
102
{ACAD_REACTORS
330
2A
102
}
330
2A
100
AcDbZombieObject
 90
      499
 91
      501
 93
      476
310
43519B185D15DA5D1A115919D95CD0140901404333333333333E3BF0000000000000F9010740901411070040501600405405064090741402480A1B50
1001
ACAD
1000
AcDbSavedByObjectVersion
1070
     0
  0
ACAD_PROXY_OBJECT
  5
2D
102
{ACAD_REACTORS
330
2A
102
}
330
2A
100
AcDbZombieObject
 90
      499
 91
      501
 93
      412
310
41D1DBDD5C985D5910240902404333333333333E3BF0000000000000F9010740A411070040501641D405064090741402480A1B50
1001
ACAD
1000
AcDbSavedByObjectVersion
1070
     0
  0
ACAD_PROXY_OBJECT
  5
2E
102
{ACAD_REACTORS
330
2A
102
}
330
2A
100
AcDbZombieObject
 90
      499
 91
      501
 93
      500
310
4411DBDD5C985D5915DA5D1A115919D95CD0340902404333333333333E3BF0000000000000F9010740901411070040501600405405064090741402480A1B50
1001
ACAD
1000
AcDbSavedByObjectVersion
1070
     0
  0
ACAD_PROXY_OBJECT
  5
38
102
{ACAD_REACTORS
330
2A
102
}
330
2A
100
AcDbZombieObject
 90
      499
 91
      501
 93
      444
310
42D31A5B995C185D1D195C9B90E409028333333333333E3BF0000000000000FB010790141107004050750841D405064090741402483A0350
1001
ACAD
1000
AcDbSavedByObjectVersion
1070
     0
  0
ACAD_PROXY_OBJECT
  5
33
102
{ACAD_REACTORS
330
2A
102
}
330
2A
100
AcDbZombieObject
 90
      499
 91
      501
 93
      420
310
425499585B1A5CDD1A58D08409028333333333333E3BF0000000000000FB01079019070040501508421405064090741402480A1B40
1001
ACAD
1000
AcDbSavedByObjectVersion
1070
     0
  0
ACAD_PROXY_OBJECT
  5
37
102
{ACAD_REACTORS
330
2A
102
}
330
2A
100
AcDbZombieObject
 90
      499
 91
      501
 93
      412
310
41D51A1A58DAD95B90D409028333333333333E3BF0000000000000FB010790141107004050150C41D405064090741402480A0350
1001
ACAD
1000
AcDbSavedByObjectVersion
1070
     0
  0
DICTIONARYVAR
  5
46
102
{ACAD_REACTORS
330
43
102
}
330
43
100
DictionaryVariables
280
     0
  1
2
  0
DICTIONARYVAR
  5
47
102
{ACAD_REACTORS
330
43
102
}
330
43
100
DictionaryVariables
280
     0
  1
1
  0
DICTIONARY
  5
4A
330
3D
100
AcDbDictionary
  3
ACAD_XREC_ROUNDTRIP
360
4B
1001
ACAD
1000
TREAT_AS_HARD
1070
     1
  0
DICTIONARY
  5
48
330
3C
100
AcDbDictionary
  3
ACAD_XREC_ROUNDTRIP
360
49
1001
ACAD
1000
TREAT_AS_HARD
1070
     1
  0
DICTIONARY
  5
4C
330
3E
100
AcDbDictionary
  3
ACAD_XREC_ROUNDTRIP
360
4D
1001
ACAD
1000
TREAT_AS_HARD
1070
     1
  0
XRECORD
  5
4B
102
{ACAD_REACTORS
330
4A
102
}
330
4A
100
AcDbXrecord
102
MATERIAL
148
0.0
149
0.0
149
0.0
 93
        0
 94
      127
282
     0
 72
     1
 77
     1
171
     1
175
     1
179
     1
273
     0
  0
XRECORD
  5
49
102
{ACAD_REACTORS
330
48
102
}
330
48
100
AcDbXrecord
102
MATERIAL
148
0.0
149
0.0
149
0.0
 93
        0
 94
      127
282
     0
 72
     1
 77
     1
171
     1
175
     1
179
     1
273
     0
  0
XRECORD
  5
4D
102
{ACAD_REACTORS
330
4C
102
}
330
4C
100
AcDbXrecord
102
MATERIAL
148
0.0
149
0.0
149
0.0
 93
        0
 94
      127
282
     0
 72
     1
 77
     1
171
     1
175
     1
179
     1
273
     0
  0
ENDSEC
  0
EOF
