  0
SECTION
  2
HEADER
  9
$ACADVER
  1
AC1012
  9
$DWGCODEPAGE
  3
undefined
  9
$INSBASE
 10
0.0
 20
0.0
 30
0.0
  9
$EXTMIN
 10
1.000000000000000E+20
 20
1.000000000000000E+20
 30
1.000000000000000E+20
  9
$EXTMAX
 10
-1.000000000000000E+20
 20
-1.000000000000000E+20
 30
-1.000000000000000E+20
  9
$LIMMIN
 10
0.0
 20
0.0
  9
$LIMMAX
 10
12.0
 20
9.0
  9
$ORTHOMODE
 70
     0
  9
$REGENMODE
 70
     1
  9
$FILLMODE
 70
     1
  9
$QTEXTMODE
 70
     0
  9
$MIRRTEXT
 70
     1
  9
$DRAGMODE
 70
     2
  9
$LTSCALE
 40
1.0
  9
$OSMODE
 70
    37
  9
$ATTMODE
 70
     1
  9
$TEXTSIZE
 40
0.2
  9
$TRACEWID
 40
0.05
  9
$TEXTSTYLE
  7
STANDARD
  9
$CLAYER
  8
0
  9
$CELTYPE
  6
BYLAYER
  9
$CECOLOR
 62
   256
  9
$CELTSCALE
 40
1.0
  9
$DELOBJ
 70
     1
  9
$DISPSILH
 70
     0
  9
$DIMSCALE
 40
1.0
  9
$DIMASZ
 40
0.18
  9
$DIMEXO
 40
0.0625
  9
$DIMDLI
 40
0.38
  9
$DIMRND
 40
0.0
  9
$DIMDLE
 40
0.0
  9
$DIMEXE
 40
0.18
  9
$DIMTP
 40
0.0
  9
$DIMTM
 40
0.0
  9
$DIMTXT
 40
0.18
  9
$DIMCEN
 40
0.09
  9
$DIMTSZ
 40
0.0
  9
$DIMTOL
 70
     0
  9
$DIMLIM
 70
     0
  9
$DIMTIH
 70
     1
  9
$DIMTOH
 70
     1
  9
$DIMSE1
 70
     0
  9
$DIMSE2
 70
     0
  9
$DIMTAD
 70
     0
  9
$DIMZIN
 70
     0
  9
$DIMBLK
  1

  9
$DIMASO
 70
     1
  9
$DIMSHO
 70
     1
  9
$DIMPOST
  1

  9
$DIMAPOST
  1

  9
$DIMALT
 70
     0
  9
$DIMALTD
 70
     2
  9
$DIMALTF
 40
25.4
  9
$DIMLFAC
 40
1.0
  9
$DIMTOFL
 70
     0
  9
$DIMTVP
 40
0.0
  9
$DIMTIX
 70
     0
  9
$DIMSOXD
 70
     0
  9
$DIMSAH
 70
     0
  9
$DIMBLK1
  1

  9
$DIMBLK2
  1

  9
$DIMSTYLE
  2
STANDARD
  9
$DIMCLRD
 70
     0
  9
$DIMCLRE
 70
     0
  9
$DIMCLRT
 70
     0
  9
$DIMTFAC
 40
1.0
  9
$DIMGAP
 40
0.09
  9
$DIMJUST
 70
     0
  9
$DIMSD1
 70
     0
  9
$DIMSD2
 70
     0
  9
$DIMTOLJ
 70
     1
  9
$DIMTZIN
 70
     0
  9
$DIMALTZ
 70
     0
  9
$DIMALTTZ
 70
     0
  9
$DIMFIT
 70
     3
  9
$DIMUPT
 70
     0
  9
$DIMUNIT
 70
     2
  9
$DIMDEC
 70
     4
  9
$DIMTDEC
 70
     4
  9
$DIMALTU
 70
     2
  9
$DIMALTTD
 70
     2
  9
$DIMTXSTY
  7
STANDARD
  9
$DIMAUNIT
 70
     0
  9
$LUNITS
 70
     2
  9
$LUPREC
 70
     4
  9
$SKETCHINC
 40
0.1
  9
$FILLETRAD
 40
0.5
  9
$AUNITS
 70
     0
  9
$AUPREC
 70
     0
  9
$MENU
  1
.
  9
$ELEVATION
 40
0.0
  9
$PELEVATION
 40
0.0
  9
$THICKNESS
 40
0.0
  9
$LIMCHECK
 70
     0
  9
$CHAMFERA
 40
0.5
  9
$CHAMFERB
 40
0.5
  9
$CHAMFERC
 40
1.0
  9
$CHAMFERD
 40
0.0
  9
$SKPOLY
 70
     0
  9
$TDCREATE
 40
2457439.854467593
  9
$TDUPDATE
 40
2457439.854467593
  9
$TDINDWG
 40
0.0000000116
  9
$TDUSRTIMER
 40
0.0000000116
  9
$USRTIMER
 70
     1
  9
$ANGBASE
 50
0.0
  9
$ANGDIR
 70
     0
  9
$PDMODE
 70
     0
  9
$PDSIZE
 40
0.0
  9
$PLINEWID
 40
0.0
  9
$COORDS
 70
     1
  9
$SPLFRAME
 70
     0
  9
$SPLINETYPE
 70
     6
  9
$SPLINESEGS
 70
     8
  9
$ATTDIA
 70
     0
  9
$ATTREQ
 70
     1
  9
$HANDLING
 70
     1
  9
$HANDSEED
  5
4E
  9
$SURFTAB1
 70
     6
  9
$SURFTAB2
 70
     6
  9
$SURFTYPE
 70
     6
  9
$SURFU
 70
     6
  9
$SURFV
 70
     6
  9
$UCSNAME
  2

  9
$UCSORG
 10
0.0
 20
0.0
 30
0.0
  9
$UCSXDIR
 10
1.0
 20
0.0
 30
0.0
  9
$UCSYDIR
 10
0.0
 20
1.0
 30
0.0
  9
$PUCSNAME
  2

  9
$PUCSORG
 10
0.0
 20
0.0
 30
0.0
  9
$PUCSXDIR
 10
1.0
 20
0.0
 30
0.0
  9
$PUCSYDIR
 10
0.0
 20
1.0
 30
0.0
  9
$USERI1
 70
     0
  9
$USERI2
 70
     0
  9
$USERI3
 70
     0
  9
$USERI4
 70
     0
  9
$USERI5
 70
     0
  9
$USERR1
 40
0.0
  9
$USERR2
 40
0.0
  9
$USERR3
 40
0.0
  9
$USERR4
 40
0.0
  9
$USERR5
 40
0.0
  9
$WORLDVIEW
 70
     1
  9
$SHADEDGE
 70
     3
  9
$SHADEDIF
 70
    70
  9
$TILEMODE
 70
     1
  9
$MAXACTVP
 70
    64
  9
$PINSBASE
 10
0.0
 20
0.0
 30
0.0
  9
$PLIMCHECK
 70
     0
  9
$PEXTMIN
 10
1.000000000000000E+20
 20
1.000000000000000E+20
 30
1.000000000000000E+20
  9
$PEXTMAX
 10
-1.000000000000000E+20
 20
-1.000000000000000E+20
 30
-1.000000000000000E+20
  9
$PLIMMIN
 10
0.0
 20
0.0
  9
$PLIMMAX
 10
12.0
 20
9.0
  9
$UNITMODE
 70
     0
  9
$VISRETAIN
 70
     1
  9
$PLINEGEN
 70
     0
  9
$PSLTSCALE
 70
     1
  9
$TREEDEPTH
 70
  3020
  9
$PICKSTYLE
 70
     1
  9
$CMLSTYLE
  2
STANDARD
  9
$CMLJUST
 70
     0
  9
$CMLSCALE
 40
1.0
  9
$SAVEIMAGES
 70
     1
  0
ENDSEC
  0
SECTION
  2
CLASSES
  0
CLASS
  1
ACDBDICTIONARYWDFLT
  2
AcDbDictionaryWithDefault
  3
ObjectDBX Classes
 90
    32768
280
     0
281
     0
  0
CLASS
  1
VISUALSTYLE
  2
AcDbVisualStyle
  3
ObjectDBX Classes
 90
     4095
280
     0
281
     0
  0
CLASS
  1
MATERIAL
  2
AcDbMaterial
  3
ObjectDBX Classes
 90
     1153
280
     0
281
     0
  0
CLASS
  1
SUN
  2
AcDbSun
  3
SCENEOE
 90
     1024
280
     0
281
     0
  0
CLASS
  1
DICTIONARYVAR
  2
AcDbDictionaryVar
  3
ObjectDBX Classes
 90
        0
280
     0
281
     0
  0
CLASS
  1
XRECORD
  2
AcDbXrecord
  3
AutoCAD 2000
 90
    32768
280
     0
281
     0
  0
CLASS
  1
LWPOLYLINE
  2
AcDbPolyline
  3
AutoCAD 2000
 90
    32768
280
     0
281
     1
  0
CLASS
  1
HATCH
  2
AcDbHatch
  3
AutoCAD 2000
 90
    32768
280
     0
281
     1
  0
CLASS
  1
ACDBPLACEHOLDER
  2
AcDbPlaceHolder
  3
ObjectDBX Classes
 90
        0
280
     0
281
     0
  0
CLASS
  1
LAYOUT
  2
AcDbLayout
  3
ObjectDBX Classes
 90
        0
280
     0
281
     0
  0
ENDSEC
  0
SECTION
  2
TABLES
  0
TABLE
  2
VPORT
  5
8
330
0
100
AcDbSymbolTable
 70
     1
  0
VPORT
  5
29
330
8
100
AcDbSymbolTableRecord
100
AcDbViewportTableRecord
  2
*ACTIVE
 70
     0
 10
0.0
 20
0.0
 11
1.0
 21
1.0
 12
0.0
 22
0.0
 13
0.0
 23
0.0
 14
0.5
 24
0.5
 15
0.5
 25
0.5
 16
0.0
 26
0.0
 36
1.0
 17
11.99973610811129
 27
-10.99961110836131
 37
0.0
 40
21.99922221672262
 41
1.090923669018602
 42
50.0
 43
0.0
 44
0.0
 50
0.0
 51
0.0
 71
     0
 72
   100
 73
     1
 74
     3
 75
     0
 76
     0
 77
     0
 78
     0
  0
ENDTAB
  0
TABLE
  2
LTYPE
  5
5
330
0
100
AcDbSymbolTable
 70
     2
  0
LTYPE
  5
14
330
5
100
AcDbSymbolTableRecord
100
AcDbLinetypeTableRecord
  2
BYBLOCK
 70
     0
  3

 72
    65
 73
     0
 40
0.0
  0
LTYPE
  5
15
330
5
100
AcDbSymbolTableRecord
100
AcDbLinetypeTableRecord
  2
BYLAYER
 70
     0
  3

 72
    65
 73
     0
 40
0.0
  0
LTYPE
  5
16
330
5
100
AcDbSymbolTableRecord
100
AcDbLinetypeTableRecord
  2
CONTINUOUS
 70
     0
  3
Solid line
 72
    65
 73
     0
 40
0.0
  0
LTYPE
  5
42
330
5
100
AcDbSymbolTableRecord
100
AcDbLinetypeTableRecord
  2
AI-LINETYPE-1
 70
     0
  3
Adobe Illustrator Linetype No. 1
 72
    65
 73
     2
 40
0.529166666534375
 49
0.1763888888447917
 74
     0
 49
-0.3527777776895833
 74
     0
  0
ENDTAB
  0
TABLE
  2
LAYER
  5
2
330
0
100
AcDbSymbolTable
 70
     2
  0
LAYER
  5
10
330
2
100
AcDbSymbolTableRecord
100
AcDbLayerTableRecord
  2
0
 70
     0
 62
     7
  6
CONTINUOUS
  0
LAYER
  5
40
330
2
100
AcDbSymbolTableRecord
100
AcDbLayerTableRecord
  2
LAYER_1
 70
     0
 62
     7
  6
CONTINUOUS
  0
ENDTAB
  0
TABLE
  2
STYLE
  5
3
330
0
100
AcDbSymbolTable
 70
     1
  0
STYLE
  5
11
330
3
100
AcDbSymbolTableRecord
100
AcDbTextStyleTableRecord
  2
STANDARD
 70
     0
 40
0.0
 41
1.0
 50
0.0
 71
     0
 42
0.2
  3
txt
  4

  0
ENDTAB
  0
TABLE
  2
VIEW
  5
6
330
0
100
AcDbSymbolTable
 70
     0
  0
ENDTAB
  0
TABLE
  2
UCS
  5
7
330
0
100
AcDbSymbolTable
 70
     0
  0
ENDTAB
  0
TABLE
  2
APPID
  5
9
330
0
100
AcDbSymbolTable
 70
     1
  0
APPID
  5
12
330
9
100
AcDbSymbolTableRecord
100
AcDbRegAppTableRecord
  2
ACAD
 70
     0
  0
ENDTAB
  0
TABLE
  2
DIMSTYLE
  5
A
330
0
100
AcDbSymbolTable
 70
     1
  0
DIMSTYLE
105
27
330
A
100
AcDbSymbolTableRecord
100
AcDbDimStyleTableRecord
  2
STANDARD
 70
     0
  3

  4

  5

  6

  7

 40
1.0
 41
0.18
 42
0.0625
 43
0.38
 44
0.18
 45
0.0
 46
0.0
 47
0.0
 48
0.0
140
0.18
141
0.09
142
0.0
143
25.4
144
1.0
145
0.0
146
1.0
147
0.09
 71
     0
 72
     0
 73
     1
 74
     1
 75
     0
 76
     0
 77
     0
 78
     0
170
     0
171
     2
172
     0
173
     0
174
     0
175
     0
176
     0
177
     0
178
     0
270
     2
271
     4
272
     4
273
     2
274
     2
340
11
275
     0
280
     0
281
     0
282
     0
283
     1
284
     0
285
     0
286
     0
287
     3
288
     0
  0
ENDTAB
  0
TABLE
  2
BLOCK_RECORD
  5
1
330
0
100
AcDbSymbolTable
 70
     1
  0
BLOCK_RECORD
  5
1F
330
1
100
AcDbSymbolTableRecord
100
AcDbBlockTableRecord
  2
*MODEL_SPACE
  0
BLOCK_RECORD
  5
1B
330
1
100
AcDbSymbolTableRecord
100
AcDbBlockTableRecord
  2
*PAPER_SPACE
  0
ENDTAB
  0
ENDSEC
  0
SECTION
  2
BLOCKS
  0
BLOCK
  5
20
330
1F
100
AcDbEntity
  8
0
100
AcDbBlockBegin
  2
*MODEL_SPACE
 70
     0
 10
0.0
 20
0.0
 30
0.0
  3
*MODEL_SPACE
  1

  0
ENDBLK
  5
21
330
1F
100
AcDbEntity
  8
0
100
AcDbBlockEnd
  0
BLOCK
  5
1C
330
1B
100
AcDbEntity
 67
     1
  8
0
100
AcDbBlockBegin
  2
*PAPER_SPACE
 70
     0
 10
0.0
 20
0.0
 30
0.0
  3
*PAPER_SPACE
  1

  0
ENDBLK
  5
1D
330
1B
100
AcDbEntity
 67
     1
  8
0
100
AcDbBlockEnd
  0
ENDSEC
  0
SECTION
  2
ENTITIES
  0
SPLINE
  5
41
330
1F
100
AcDbEntity
  8
LAYER_1
  6
AI-LINETYPE-1
 62
   250
100
AcDbSpline
210
0.0
220
0.0
230
1.0
 70
    11
 71
     3
 72
  1541
 73
  1537
 74
     0
 42
0.0000000001
 43
0.0000000001
 12
1.0
 22
0.0
 32
0.0
 13
1.0
 23
0.0
 33
0.0
 40
0.0
 40
0.0
 40
0.0
 40
0.0
 40
1.0
 40
1.0
 40
1.0
 40
2.0
 40
2.0
 40
2.0
 40
3.0
 40
3.0
 40
3.0
 40
4.0
 40
4.0
 40
4.0
 40
5.0
 40
5.0
 40
5.0
 40
6.0
 40
6.0
 40
6.0
 40
7.0
 40
7.0
 40
7.0
 40
8.0
 40
8.0
 40
8.0
 40
9.0
 40
9.0
 40
9.0
 40
10.0
 40
10.0
 40
10.0
 40
11.0
 40
11.0
 40
11.0
 40
12.0
 40
12.0
 40
12.0
 40
13.0
 40
13.0
 40
13.0
 40
14.0
 40
14.0
 40
14.0
 40
15.0
 40
15.0
 40
15.0
 40
16.0
 40
16.0
 40
16.0
 40
17.0
 40
17.0
 40
17.0
 40
18.0
 40
18.0
 40
18.0
 40
19.0
 40
19.0
 40
19.0
 40
20.0
 40
20.0
 40
20.0
 40
21.0
 40
21.0
 40
21.0
 40
22.0
 40
22.0
 40
22.0
 40
23.0
 40
23.0
 40
23.0
 40
24.0
 40
24.0
 40
24.0
 40
25.0
 40
25.0
 40
25.0
 40
26.0
 40
26.0
 40
26.0
 40
27.0
 40
27.0
 40
27.0
 40
28.0
 40
28.0
 40
28.0
 40
29.0
 40
29.0
 40
29.0
 40
30.0
 40
30.0
 40
30.0
 40
31.0
 40
31.0
 40
31.0
 40
32.0
 40
32.0
 40
32.0
 40
33.0
 40
33.0
 40
33.0
 40
34.0
 40
34.0
 40
34.0
 40
35.0
 40
35.0
 40
35.0
 40
36.0
 40
36.0
 40
36.0
 40
37.0
 40
37.0
 40
37.0
 40
38.0
 40
38.0
 40
38.0
 40
39.0
 40
39.0
 40
39.0
 40
40.0
 40
40.0
 40
40.0
 40
41.0
 40
41.0
 40
41.0
 40
42.0
 40
42.0
 40
42.0
 40
43.0
 40
43.0
 40
43.0
 40
44.0
 40
44.0
 40
44.0
 40
45.0
 40
45.0
 40
45.0
 40
46.0
 40
46.0
 40
46.0
 40
47.0
 40
47.0
 40
47.0
 40
48.0
 40
48.0
 40
48.0
 40
49.0
 40
49.0
 40
49.0
 40
50.0
 40
50.0
 40
50.0
 40
51.0
 40
51.0
 40
51.0
 40
52.0
 40
52.0
 40
52.0
 40
53.0
 40
53.0
 40
53.0
 40
54.0
 40
54.0
 40
54.0
 40
55.0
 40
55.0
 40
55.0
 40
56.0
 40
56.0
 40
56.0
 40
57.0
 40
57.0
 40
57.0
 40
58.0
 40
58.0
 40
58.0
 40
59.0
 40
59.0
 40
59.0
 40
60.0
 40
60.0
 40
60.0
 40
61.0
 40
61.0
 40
61.0
 40
62.0
 40
62.0
 40
62.0
 40
63.0
 40
63.0
 40
63.0
 40
64.0
 40
64.0
 40
64.0
 40
65.0
 40
65.0
 40
65.0
 40
66.0
 40
66.0
 40
66.0
 40
67.0
 40
67.0
 40
67.0
 40
68.0
 40
68.0
 40
68.0
 40
69.0
 40
69.0
 40
69.0
 40
70.0
 40
70.0
 40
70.0
 40
71.0
 40
71.0
 40
71.0
 40
72.0
 40
72.0
 40
72.0
 40
73.0
 40
73.0
 40
73.0
 40
74.0
 40
74.0
 40
74.0
 40
75.0
 40
75.0
 40
75.0
 40
76.0
 40
76.0
 40
76.0
 40
77.0
 40
77.0
 40
77.0
 40
78.0
 40
78.0
 40
78.0
 40
79.0
 40
79.0
 40
79.0
 40
80.0
 40
80.0
 40
80.0
 40
81.0
 40
81.0
 40
81.0
 40
82.0
 40
82.0
 40
82.0
 40
83.0
 40
83.0
 40
83.0
 40
84.0
 40
84.0
 40
84.0
 40
85.0
 40
85.0
 40
85.0
 40
86.0
 40
86.0
 40
86.0
 40
87.0
 40
87.0
 40
87.0
 40
88.0
 40
88.0
 40
88.0
 40
89.0
 40
89.0
 40
89.0
 40
90.0
 40
90.0
 40
90.0
 40
91.0
 40
91.0
 40
91.0
 40
92.0
 40
92.0
 40
92.0
 40
93.0
 40
93.0
 40
93.0
 40
94.0
 40
94.0
 40
94.0
 40
95.0
 40
95.0
 40
95.0
 40
96.0
 40
96.0
 40
96.0
 40
97.0
 40
97.0
 40
97.0
 40
98.0
 40
98.0
 40
98.0
 40
99.0
 40
99.0
 40
99.0
 40
100.0
 40
100.0
 40
100.0
 40
101.0
 40
101.0
 40
101.0
 40
102.0
 40
102.0
 40
102.0
 40
103.0
 40
103.0
 40
103.0
 40
104.0
 40
104.0
 40
104.0
 40
105.0
 40
105.0
 40
105.0
 40
106.0
 40
106.0
 40
106.0
 40
107.0
 40
107.0
 40
107.0
 40
108.0
 40
108.0
 40
108.0
 40
109.0
 40
109.0
 40
109.0
 40
110.0
 40
110.0
 40
110.0
 40
111.0
 40
111.0
 40
111.0
 40
112.0
 40
112.0
 40
112.0
 40
113.0
 40
113.0
 40
113.0
 40
114.0
 40
114.0
 40
114.0
 40
115.0
 40
115.0
 40
115.0
 40
116.0
 40
116.0
 40
116.0
 40
117.0
 40
117.0
 40
117.0
 40
118.0
 40
118.0
 40
118.0
 40
119.0
 40
119.0
 40
119.0
 40
120.0
 40
120.0
 40
120.0
 40
121.0
 40
121.0
 40
121.0
 40
122.0
 40
122.0
 40
122.0
 40
123.0
 40
123.0
 40
123.0
 40
124.0
 40
124.0
 40
124.0
 40
125.0
 40
125.0
 40
125.0
 40
126.0
 40
126.0
 40
126.0
 40
127.0
 40
127.0
 40
127.0
 40
128.0
 40
128.0
 40
128.0
 40
129.0
 40
129.0
 40
129.0
 40
130.0
 40
130.0
 40
130.0
 40
131.0
 40
131.0
 40
131.0
 40
132.0
 40
132.0
 40
132.0
 40
133.0
 40
133.0
 40
133.0
 40
134.0
 40
134.0
 40
134.0
 40
135.0
 40
135.0
 40
135.0
 40
136.0
 40
136.0
 40
136.0
 40
137.0
 40
137.0
 40
137.0
 40
138.0
 40
138.0
 40
138.0
 40
139.0
 40
139.0
 40
139.0
 40
140.0
 40
140.0
 40
140.0
 40
141.0
 40
141.0
 40
141.0
 40
142.0
 40
142.0
 40
142.0
 40
143.0
 40
143.0
 40
143.0
 40
144.0
 40
144.0
 40
144.0
 40
145.0
 40
145.0
 40
145.0
 40
146.0
 40
146.0
 40
146.0
 40
147.0
 40
147.0
 40
147.0
 40
148.0
 40
148.0
 40
148.0
 40
149.0
 40
149.0
 40
149.0
 40
150.0
 40
150.0
 40
150.0
 40
151.0
 40
151.0
 40
151.0
 40
152.0
 40
152.0
 40
152.0
 40
153.0
 40
153.0
 40
153.0
 40
154.0
 40
154.0
 40
154.0
 40
155.0
 40
155.0
 40
155.0
 40
156.0
 40
156.0
 40
156.0
 40
157.0
 40
157.0
 40
157.0
 40
158.0
 40
158.0
 40
158.0
 40
159.0
 40
159.0
 40
159.0
 40
160.0
 40
160.0
 40
160.0
 40
161.0
 40
161.0
 40
161.0
 40
162.0
 40
162.0
 40
162.0
 40
163.0
 40
163.0
 40
163.0
 40
164.0
 40
164.0
 40
164.0
 40
165.0
 40
165.0
 40
165.0
 40
166.0
 40
166.0
 40
166.0
 40
167.0
 40
167.0
 40
167.0
 40
168.0
 40
168.0
 40
168.0
 40
169.0
 40
169.0
 40
169.0
 40
170.0
 40
170.0
 40
170.0
 40
171.0
 40
171.0
 40
171.0
 40
172.0
 40
172.0
 40
172.0
 40
173.0
 40
173.0
 40
173.0
 40
174.0
 40
174.0
 40
174.0
 40
175.0
 40
175.0
 40
175.0
 40
176.0
 40
176.0
 40
176.0
 40
177.0
 40
177.0
 40
177.0
 40
178.0
 40
178.0
 40
178.0
 40
179.0
 40
179.0
 40
179.0
 40
180.0
 40
180.0
 40
180.0
 40
181.0
 40
181.0
 40
181.0
 40
182.0
 40
182.0
 40
182.0
 40
183.0
 40
183.0
 40
183.0
 40
184.0
 40
184.0
 40
184.0
 40
185.0
 40
185.0
 40
185.0
 40
186.0
 40
186.0
 40
186.0
 40
187.0
 40
187.0
 40
187.0
 40
188.0
 40
188.0
 40
188.0
 40
189.0
 40
189.0
 40
189.0
 40
190.0
 40
190.0
 40
190.0
 40
191.0
 40
191.0
 40
191.0
 40
192.0
 40
192.0
 40
192.0
 40
193.0
 40
193.0
 40
193.0
 40
194.0
 40
194.0
 40
194.0
 40
195.0
 40
195.0
 40
195.0
 40
196.0
 40
196.0
 40
196.0
 40
197.0
 40
197.0
 40
197.0
 40
198.0
 40
198.0
 40
198.0
 40
199.0
 40
199.0
 40
199.0
 40
200.0
 40
200.0
 40
200.0
 40
201.0
 40
201.0
 40
201.0
 40
202.0
 40
202.0
 40
202.0
 40
203.0
 40
203.0
 40
203.0
 40
204.0
 40
204.0
 40
204.0
 40
205.0
 40
205.0
 40
205.0
 40
206.0
 40
206.0
 40
206.0
 40
207.0
 40
207.0
 40
207.0
 40
208.0
 40
208.0
 40
208.0
 40
209.0
 40
209.0
 40
209.0
 40
210.0
 40
210.0
 40
210.0
 40
211.0
 40
211.0
 40
211.0
 40
212.0
 40
212.0
 40
212.0
 40
213.0
 40
213.0
 40
213.0
 40
214.0
 40
214.0
 40
214.0
 40
215.0
 40
215.0
 40
215.0
 40
216.0
 40
216.0
 40
216.0
 40
217.0
 40
217.0
 40
217.0
 40
218.0
 40
218.0
 40
218.0
 40
219.0
 40
219.0
 40
219.0
 40
220.0
 40
220.0
 40
220.0
 40
221.0
 40
221.0
 40
221.0
 40
222.0
 40
222.0
 40
222.0
 40
223.0
 40
223.0
 40
223.0
 40
224.0
 40
224.0
 40
224.0
 40
225.0
 40
225.0
 40
225.0
 40
226.0
 40
226.0
 40
226.0
 40
227.0
 40
227.0
 40
227.0
 40
228.0
 40
228.0
 40
228.0
 40
229.0
 40
229.0
 40
229.0
 40
230.0
 40
230.0
 40
230.0
 40
231.0
 40
231.0
 40
231.0
 40
232.0
 40
232.0
 40
232.0
 40
233.0
 40
233.0
 40
233.0
 40
234.0
 40
234.0
 40
234.0
 40
235.0
 40
235.0
 40
235.0
 40
236.0
 40
236.0
 40
236.0
 40
237.0
 40
237.0
 40
237.0
 40
238.0
 40
238.0
 40
238.0
 40
239.0
 40
239.0
 40
239.0
 40
240.0
 40
240.0
 40
240.0
 40
241.0
 40
241.0
 40
241.0
 40
242.0
 40
242.0
 40
242.0
 40
243.0
 40
243.0
 40
243.0
 40
244.0
 40
244.0
 40
244.0
 40
245.0
 40
245.0
 40
245.0
 40
246.0
 40
246.0
 40
246.0
 40
247.0
 40
247.0
 40
247.0
 40
248.0
 40
248.0
 40
248.0
 40
249.0
 40
249.0
 40
249.0
 40
250.0
 40
250.0
 40
250.0
 40
251.0
 40
251.0
 40
251.0
 40
252.0
 40
252.0
 40
252.0
 40
253.0
 40
253.0
 40
253.0
 40
254.0
 40
254.0
 40
254.0
 40
255.0
 40
255.0
 40
255.0
 40
256.0
 40
256.0
 40
256.0
 40
257.0
 40
257.0
 40
257.0
 40
258.0
 40
258.0
 40
258.0
 40
259.0
 40
259.0
 40
259.0
 40
260.0
 40
260.0
 40
260.0
 40
261.0
 40
261.0
 40
261.0
 40
262.0
 40
262.0
 40
262.0
 40
263.0
 40
263.0
 40
263.0
 40
264.0
 40
264.0
 40
264.0
 40
265.0
 40
265.0
 40
265.0
 40
266.0
 40
266.0
 40
266.0
 40
267.0
 40
267.0
 40
267.0
 40
268.0
 40
268.0
 40
268.0
 40
269.0
 40
269.0
 40
269.0
 40
270.0
 40
270.0
 40
270.0
 40
271.0
 40
271.0
 40
271.0
 40
272.0
 40
272.0
 40
272.0
 40
273.0
 40
273.0
 40
273.0
 40
274.0
 40
274.0
 40
274.0
 40
275.0
 40
275.0
 40
275.0
 40
276.0
 40
276.0
 40
276.0
 40
277.0
 40
277.0
 40
277.0
 40
278.0
 40
278.0
 40
278.0
 40
279.0
 40
279.0
 40
279.0
 40
280.0
 40
280.0
 40
280.0
 40
281.0
 40
281.0
 40
281.0
 40
282.0
 40
282.0
 40
282.0
 40
283.0
 40
283.0
 40
283.0
 40
284.0
 40
284.0
 40
284.0
 40
285.0
 40
285.0
 40
285.0
 40
286.0
 40
286.0
 40
286.0
 40
287.0
 40
287.0
 40
287.0
 40
288.0
 40
288.0
 40
288.0
 40
289.0
 40
289.0
 40
289.0
 40
290.0
 40
290.0
 40
290.0
 40
291.0
 40
291.0
 40
291.0
 40
292.0
 40
292.0
 40
292.0
 40
293.0
 40
293.0
 40
293.0
 40
294.0
 40
294.0
 40
294.0
 40
295.0
 40
295.0
 40
295.0
 40
296.0
 40
296.0
 40
296.0
 40
297.0
 40
297.0
 40
297.0
 40
298.0
 40
298.0
 40
298.0
 40
299.0
 40
299.0
 40
299.0
 40
300.0
 40
300.0
 40
300.0
 40
301.0
 40
301.0
 40
301.0
 40
302.0
 40
302.0
 40
302.0
 40
303.0
 40
303.0
 40
303.0
 40
304.0
 40
304.0
 40
304.0
 40
305.0
 40
305.0
 40
305.0
 40
306.0
 40
306.0
 40
306.0
 40
307.0
 40
307.0
 40
307.0
 40
308.0
 40
308.0
 40
308.0
 40
309.0
 40
309.0
 40
309.0
 40
310.0
 40
310.0
 40
310.0
 40
311.0
 40
311.0
 40
311.0
 40
312.0
 40
312.0
 40
312.0
 40
313.0
 40
313.0
 40
313.0
 40
314.0
 40
314.0
 40
314.0
 40
315.0
 40
315.0
 40
315.0
 40
316.0
 40
316.0
 40
316.0
 40
317.0
 40
317.0
 40
317.0
 40
318.0
 40
318.0
 40
318.0
 40
319.0
 40
319.0
 40
319.0
 40
320.0
 40
320.0
 40
320.0
 40
321.0
 40
321.0
 40
321.0
 40
322.0
 40
322.0
 40
322.0
 40
323.0
 40
323.0
 40
323.0
 40
324.0
 40
324.0
 40
324.0
 40
325.0
 40
325.0
 40
325.0
 40
326.0
 40
326.0
 40
326.0
 40
327.0
 40
327.0
 40
327.0
 40
328.0
 40
328.0
 40
328.0
 40
329.0
 40
329.0
 40
329.0
 40
330.0
 40
330.0
 40
330.0
 40
331.0
 40
331.0
 40
331.0
 40
332.0
 40
332.0
 40
332.0
 40
333.0
 40
333.0
 40
333.0
 40
334.0
 40
334.0
 40
334.0
 40
335.0
 40
335.0
 40
335.0
 40
336.0
 40
336.0
 40
336.0
 40
337.0
 40
337.0
 40
337.0
 40
338.0
 40
338.0
 40
338.0
 40
339.0
 40
339.0
 40
339.0
 40
340.0
 40
340.0
 40
340.0
 40
341.0
 40
341.0
 40
341.0
 40
342.0
 40
342.0
 40
342.0
 40
343.0
 40
343.0
 40
343.0
 40
344.0
 40
344.0
 40
344.0
 40
345.0
 40
345.0
 40
345.0
 40
346.0
 40
346.0
 40
346.0
 40
347.0
 40
347.0
 40
347.0
 40
348.0
 40
348.0
 40
348.0
 40
349.0
 40
349.0
 40
349.0
 40
350.0
 40
350.0
 40
350.0
 40
351.0
 40
351.0
 40
351.0
 40
352.0
 40
352.0
 40
352.0
 40
353.0
 40
353.0
 40
353.0
 40
354.0
 40
354.0
 40
354.0
 40
355.0
 40
355.0
 40
355.0
 40
356.0
 40
356.0
 40
356.0
 40
357.0
 40
357.0
 40
357.0
 40
358.0
 40
358.0
 40
358.0
 40
359.0
 40
359.0
 40
359.0
 40
360.0
 40
360.0
 40
360.0
 40
361.0
 40
361.0
 40
361.0
 40
362.0
 40
362.0
 40
362.0
 40
363.0
 40
363.0
 40
363.0
 40
364.0
 40
364.0
 40
364.0
 40
365.0
 40
365.0
 40
365.0
 40
366.0
 40
366.0
 40
366.0
 40
367.0
 40
367.0
 40
367.0
 40
368.0
 40
368.0
 40
368.0
 40
369.0
 40
369.0
 40
369.0
 40
370.0
 40
370.0
 40
370.0
 40
371.0
 40
371.0
 40
371.0
 40
372.0
 40
372.0
 40
372.0
 40
373.0
 40
373.0
 40
373.0
 40
374.0
 40
374.0
 40
374.0
 40
375.0
 40
375.0
 40
375.0
 40
376.0
 40
376.0
 40
376.0
 40
377.0
 40
377.0
 40
377.0
 40
378.0
 40
378.0
 40
378.0
 40
379.0
 40
379.0
 40
379.0
 40
380.0
 40
380.0
 40
380.0
 40
381.0
 40
381.0
 40
381.0
 40
382.0
 40
382.0
 40
382.0
 40
383.0
 40
383.0
 40
383.0
 40
384.0
 40
384.0
 40
384.0
 40
385.0
 40
385.0
 40
385.0
 40
386.0
 40
386.0
 40
386.0
 40
387.0
 40
387.0
 40
387.0
 40
388.0
 40
388.0
 40
388.0
 40
389.0
 40
389.0
 40
389.0
 40
390.0
 40
390.0
 40
390.0
 40
391.0
 40
391.0
 40
391.0
 40
392.0
 40
392.0
 40
392.0
 40
393.0
 40
393.0
 40
393.0
 40
394.0
 40
394.0
 40
394.0
 40
395.0
 40
395.0
 40
395.0
 40
396.0
 40
396.0
 40
396.0
 40
397.0
 40
397.0
 40
397.0
 40
398.0
 40
398.0
 40
398.0
 40
399.0
 40
399.0
 40
399.0
 40
400.0
 40
400.0
 40
400.0
 40
401.0
 40
401.0
 40
401.0
 40
402.0
 40
402.0
 40
402.0
 40
403.0
 40
403.0
 40
403.0
 40
404.0
 40
404.0
 40
404.0
 40
405.0
 40
405.0
 40
405.0
 40
406.0
 40
406.0
 40
406.0
 40
407.0
 40
407.0
 40
407.0
 40
408.0
 40
408.0
 40
408.0
 40
409.0
 40
409.0
 40
409.0
 40
410.0
 40
410.0
 40
410.0
 40
411.0
 40
411.0
 40
411.0
 40
412.0
 40
412.0
 40
412.0
 40
413.0
 40
413.0
 40
413.0
 40
414.0
 40
414.0
 40
414.0
 40
415.0
 40
415.0
 40
415.0
 40
416.0
 40
416.0
 40
416.0
 40
417.0
 40
417.0
 40
417.0
 40
418.0
 40
418.0
 40
418.0
 40
419.0
 40
419.0
 40
419.0
 40
420.0
 40
420.0
 40
420.0
 40
421.0
 40
421.0
 40
421.0
 40
422.0
 40
422.0
 40
422.0
 40
423.0
 40
423.0
 40
423.0
 40
424.0
 40
424.0
 40
424.0
 40
425.0
 40
425.0
 40
425.0
 40
426.0
 40
426.0
 40
426.0
 40
427.0
 40
427.0
 40
427.0
 40
428.0
 40
428.0
 40
428.0
 40
429.0
 40
429.0
 40
429.0
 40
430.0
 40
430.0
 40
430.0
 40
431.0
 40
431.0
 40
431.0
 40
432.0
 40
432.0
 40
432.0
 40
433.0
 40
433.0
 40
433.0
 40
434.0
 40
434.0
 40
434.0
 40
435.0
 40
435.0
 40
435.0
 40
436.0
 40
436.0
 40
436.0
 40
437.0
 40
437.0
 40
437.0
 40
438.0
 40
438.0
 40
438.0
 40
439.0
 40
439.0
 40
439.0
 40
440.0
 40
440.0
 40
440.0
 40
441.0
 40
441.0
 40
441.0
 40
442.0
 40
442.0
 40
442.0
 40
443.0
 40
443.0
 40
443.0
 40
444.0
 40
444.0
 40
444.0
 40
445.0
 40
445.0
 40
445.0
 40
446.0
 40
446.0
 40
446.0
 40
447.0
 40
447.0
 40
447.0
 40
448.0
 40
448.0
 40
448.0
 40
449.0
 40
449.0
 40
449.0
 40
450.0
 40
450.0
 40
450.0
 40
451.0
 40
451.0
 40
451.0
 40
452.0
 40
452.0
 40
452.0
 40
453.0
 40
453.0
 40
453.0
 40
454.0
 40
454.0
 40
454.0
 40
455.0
 40
455.0
 40
455.0
 40
456.0
 40
456.0
 40
456.0
 40
457.0
 40
457.0
 40
457.0
 40
458.0
 40
458.0
 40
458.0
 40
459.0
 40
459.0
 40
459.0
 40
460.0
 40
460.0
 40
460.0
 40
461.0
 40
461.0
 40
461.0
 40
462.0
 40
462.0
 40
462.0
 40
463.0
 40
463.0
 40
463.0
 40
464.0
 40
464.0
 40
464.0
 40
465.0
 40
465.0
 40
465.0
 40
466.0
 40
466.0
 40
466.0
 40
467.0
 40
467.0
 40
467.0
 40
468.0
 40
468.0
 40
468.0
 40
469.0
 40
469.0
 40
469.0
 40
470.0
 40
470.0
 40
470.0
 40
471.0
 40
471.0
 40
471.0
 40
472.0
 40
472.0
 40
472.0
 40
473.0
 40
473.0
 40
473.0
 40
474.0
 40
474.0
 40
474.0
 40
475.0
 40
475.0
 40
475.0
 40
476.0
 40
476.0
 40
476.0
 40
477.0
 40
477.0
 40
477.0
 40
478.0
 40
478.0
 40
478.0
 40
479.0
 40
479.0
 40
479.0
 40
480.0
 40
480.0
 40
480.0
 40
481.0
 40
481.0
 40
481.0
 40
482.0
 40
482.0
 40
482.0
 40
483.0
 40
483.0
 40
483.0
 40
484.0
 40
484.0
 40
484.0
 40
485.0
 40
485.0
 40
485.0
 40
486.0
 40
486.0
 40
486.0
 40
487.0
 40
487.0
 40
487.0
 40
488.0
 40
488.0
 40
488.0
 40
489.0
 40
489.0
 40
489.0
 40
490.0
 40
490.0
 40
490.0
 40
491.0
 40
491.0
 40
491.0
 40
492.0
 40
492.0
 40
492.0
 40
493.0
 40
493.0
 40
493.0
 40
494.0
 40
494.0
 40
494.0
 40
495.0
 40
495.0
 40
495.0
 40
496.0
 40
496.0
 40
496.0
 40
497.0
 40
497.0
 40
497.0
 40
498.0
 40
498.0
 40
498.0
 40
499.0
 40
499.0
 40
499.0
 40
500.0
 40
500.0
 40
500.0
 40
501.0
 40
501.0
 40
501.0
 40
502.0
 40
502.0
 40
502.0
 40
503.0
 40
503.0
 40
503.0
 40
504.0
 40
504.0
 40
504.0
 40
505.0
 40
505.0
 40
505.0
 40
506.0
 40
506.0
 40
506.0
 40
507.0
 40
507.0
 40
507.0
 40
508.0
 40
508.0
 40
508.0
 40
509.0
 40
509.0
 40
509.0
 40
510.0
 40
510.0
 40
510.0
 40
511.0
 40
511.0
 40
511.0
 40
512.0
 40
512.0
 40
512.0
 40
512.0
 10
18.62801382325737
 20
-10.88130048993425
 30
0.0
 10
18.62801382325737
 20
-10.90869909435106
 30
0.0
 10
18.62784030080666
 20
-10.93605717027513
 30
0.0
 10
18.62749429492057
 20
-10.96337367868662
 30
0.0
 10
18.62714828903512
 20
-10.99069018709778
 30
0.0
 10
18.62662979971495
 20
-11.01796512799605
 30
0.0
 10
18.62593986597666
 20
-11.04519746236095
 30
0.0
 10
18.62524993223838
 20
-11.07242979672584
 30
0.0
 10
18.62438855408199
 20
-11.09961952455737
 30
0.0
 10
18.62335677052412
 20
-11.12676560683504
 30
0.0
 10
18.62232498696624
 20
-11.15391168911239
 30
0.0
 10
18.62112279800625
 20
-11.18101412583654
 30
0.0
 10
18.61975124266204
 20
-11.20807187798604
 30
0.0
 10
18.61837968731784
 20
-11.23512963013554
 30
0.0
 10
18.61683876558813
 20
-11.26214269771104
 30
0.0
 10
18.61512951648955
 20
-11.28911004169206
 30
0.0
 10
18.61342026739161
 20
-11.31607738567307
 30
0.0
 10
18.61154269092481
 20
-11.34299900605961
 30
0.0
 10
18.60949782610575
 20
-11.36987386383056
 30
0.0
 10
18.60745296128669
 20
-11.3967487216015
 30
0.0
 10
18.60524080811603
 20
-11.42357681675749
 30
0.0
 10
18.60286240560911
 20
-11.45035711027805
 30
0.0
 10
18.60048400310282
 20
-11.47713740379861
 30
0.0
 10
18.59793935126028
 20
-11.50386989568374
 30
0.0
 10
18.59522948909937
 20
-11.53055354691361
 30
0.0
 10
18.59251962693847
 20
-11.55723719814348
 30
0.0
 10
18.58964455445793
 20
-11.5838720087168
 30
0.0
 10
18.58660531067437
 20
-11.61045693961439
 30
0.0
 10
18.58356606689146
 20
-11.63704187051197
 30
0.0
 10
18.58036265180553
 20
-11.66357692173317
 30
0.0
 10
18.57699610443386
 20
-11.69006105425752
 30
0.0
 10
18.57362955706219
 20
-11.71654518678251
 30
0.0
 10
18.57009987740413
 20
-11.74297840061065
 30
0.0
 10
18.56640810447694
 20
-11.76935965672145
 30
0.0
 10
18.56271633154912
 20
-11.79574091283225
 30
0.0
 10
18.55886246535217
 20
-11.82207021122637
 30
0.0
 10
18.55484754490209
 20
-11.84834651288268
 30
0.0
 10
18.550832624452
 20
-11.87462281453898
 30
0.0
 10
18.54665664974814
 20
-11.90084611945749
 30
0.0
 10
18.54232065980776
 20
-11.92701538861899
 30
0.0
 10
18.53798466986803
 20
-11.95318465777985
 30
0.0
 10
18.53348866469114
 20
-11.97929989118307
 30
0.0
 10
18.52883368329436
 20
-12.00536004980818
 30
0.0
 10
18.52417870189759
 20
-12.03142020843329
 30
0.0
 10
18.51936474428028
 20
-12.05742529228028
 30
0.0
 10
18.51439284945971
 20
-12.08337426232804
 30
0.0
 10
18.50942095463914
 20
-12.10932323237644
 30
0.0
 10
18.50429112261467
 20
-12.13521608862561
 30
0.0
 10
18.49900439240292
 20
-12.16105179205635
 30
0.0
 10
18.49371766219117
 20
-12.1868874954871
 30
0.0
 10
18.48827403379213
 20
-12.21266604609814
 30
0.0
 10
18.48267454622309
 20
-12.23838640487027
 30
0.0
 10
18.47707505865405
 20
-12.26410676364177
 30
0.0
 10
18.47131971191371
 20
-12.28976893057436
 30
0.0
 10
18.46540954501934
 20
-12.31537186664695
 30
0.0
 10
18.45949937812498
 20
-12.34097480271952
 30
0.0
 10
18.45343439107658
 20
-12.36651850793209
 30
0.0
 10
18.44721562289014
 20
-12.39200194326416
 30
0.0
 10
18.44099685470434
 20
-12.41748537859687
 30
0.0
 10
18.4346243053805
 20
-12.44290854404845
 30
0.0
 10
18.42809901393523
 20
-12.4682704005997
 30
0.0
 10
18.42157372248997
 20
-12.49363225715096
 30
0.0
 10
18.41489568892393
 20
-12.51893280480188
 30
0.0
 10
18.40806595225245
 20
-12.54417100453137
 30
0.0
 10
18.40123621558161
 20
-12.56940920426085
 30
0.0
 10
18.39425477580598
 20
-12.59458505606954
 30
0.0
 10
18.38712267194218
 20
-12.61969752093694
 30
0.0
 10
18.37999056807838
 20
-12.64480998580371
 30
0.0
 10
18.3727078001264
 20
-12.6698590637292
 30
0.0
 10
18.36527540710289
 20
-12.69484371569293
 30
0.0
 10
18.35784301407873
 20
-12.71982836765667
 30
0.0
 10
18.35026099598367
 20
-12.74474859365802
 30
0.0
 10
18.3425303918324
 20
-12.76960335467778
 30
0.0
 10
18.33479978768114
 20
-12.79445811569753
 30
0.0
 10
18.3269205974756
 20
-12.81924741173442
 30
0.0
 10
18.31889386023049
 20
-12.84397020376861
 30
0.0
 10
18.31086712298601
 20
-12.8686929958028
 30
0.0
 10
18.30269283870259
 20
-12.89334928383428
 30
0.0
 10
18.29437204639687
 20
-12.91793802884259
 30
0.0
 10
18.28605125409115
 20
-12.94252677385089
 30
0.0
 10
18.27758395376312
 20
-12.96704797583666
 30
0.0
 10
18.2689711844294
 20
-12.99150059577878
 30
0.0
 10
18.26035841509568
 20
-13.01595321572026
 30
0.0
 10
18.25160017675691
 20
-13.04033725361936
 30
0.0
 10
18.24269750842781
 20
-13.0646516704537
 30
0.0
 10
18.23379484009934
 20
-13.08896608728803
 30
0.0
 10
18.22474774178182
 20
-13.11321088305888
 30
0.0
 10
18.21555725249057
 20
-13.13738501874513
 30
0.0
 10
18.20636676319997
 20
-13.16155915443137
 30
0.0
 10
18.19703288293629
 20
-13.18566263003301
 30
0.0
 10
18.1875566507168
 20
-13.20969440653021
 30
0.0
 10
18.17808041849731
 20
-13.23372618302742
 30
0.0
 10
18.16846183432073
 20
-13.25768626042018
 30
0.0
 10
18.15870193720496
 20
-13.28157359968739
 30
0.0
 10
18.14894204008919
 20
-13.3054609389546
 30
0.0
 10
18.1390408300336
 20
-13.32927554009754
 30
0.0
 10
18.1289993460548
 20
-13.35301636409381
 30
0.0
 10
18.11895786207601
 20
-13.37675718809008
 30
0.0
 10
18.10877610417401
 20
-13.4004242349416
 30
0.0
 10
18.0984551113648
 20
-13.42401646562661
 30
0.0
 10
18.08813411855622
 20
-13.44760869631227
 30
0.0
 10
18.07767389083979
 20
-13.47112611083142
 30
0.0
 10
18.06707546723405
 20
-13.49456767016424
 30
0.0
 10
18.05647704362831
 20
-13.51800922949705
 30
0.0
 10
18.04574042413197
 20
-13.54137493364352
 30
0.0
 10
18.03486664776167
 20
-13.56466374358318
 30
0.0
 10
18.02399287139137
 20
-13.58795255352284
 30
0.0
 10
18.0129819381471
 20
-13.61116446925569
 30
0.0
 10
18.00183488704613
 20
-13.63429845176188
 30
0.0
 10
17.99068783594516
 20
-13.65743243426744
 30
0.0
 10
17.9794046669862
 20
-13.68048848354635
 30
0.0
 10
17.96798641918653
 20
-13.70346556057684
 30
0.0
 10
17.9565681713875
 20
-13.72644263760799
 30
0.0
 10
17.94501484474711
 20
-13.74934074239136
 30
0.0
 10
17.93332747828263
 20
-13.77215883590714
 30
0.0
 10
17.92164011181815
 20
-13.79497692942292
 30
0.0
 10
17.90981870552893
 20
-13.81771501167046
 30
0.0
 10
17.89786429843225
 20
-13.84037204362928
 30
0.0
 10
17.88590989133557
 20
-13.86302907558874
 30
0.0
 10
17.87382248343078
 20
-13.88560505725949
 30
0.0
 10
17.86160311373515
 20
-13.90809894962169
 30
0.0
 10
17.84938374403951
 20
-13.93059284198388
 30
0.0
 10
17.83703241255176
 20
-13.95300464503689
 30
0.0
 10
17.82455015828979
 20
-13.97533331976087
 30
0.0
 10
17.81206790402781
 20
-13.99766199448485
 30
0.0
 10
17.79945472699034
 20
-14.01990754087981
 30
0.0
 10
17.78671166619527
 20
-14.04206891992527
 30
0.0
 10
17.77396860540021
 20
-14.06423029897072
 30
0.0
 10
17.76109566084627
 20
-14.08630751066604
 30
0.0
 10
17.74809387155136
 20
-14.10829951599202
 30
0.0
 10
17.73509208225581
 20
-14.13029152131736
 30
0.0
 10
17.72196144821801
 20
-14.15219832027336
 30
0.0
 10
17.70870300845588
 20
-14.17401887383827
 30
0.0
 10
17.6954445686931
 20
-14.19583942740318
 30
0.0
 10
17.68205832320469
 20
-14.21757373557829
 30
0.0
 10
17.66854531100793
 20
-14.23922075934246
 30
0.0
 10
17.65503229881053
 20
-14.26086778310664
 30
0.0
 10
17.64139251990477
 20
-14.28242752245989
 30
0.0
 10
17.62762701330663
 20
-14.30389893838174
 30
0.0
 10
17.61386150670785
 20
-14.32537035430359
 30
0.0
 10
17.59997027241734
 20
-14.34675344679403
 30
0.0
 10
17.58595434945044
 20
-14.36804717683324
 30
0.0
 10
17.57193842648418
 20
-14.38934090687246
 30
0.0
 10
17.55779781484154
 20
-14.41054527446043
 30
0.0
 10
17.54353355353976
 20
-14.43165924057605
 30
0.0
 10
17.52926929223799
 20
-14.45277320669168
 30
0.0
 10
17.51488138127709
 20
-14.47379677133495
 30
0.0
 10
17.50037085967241
 20
-14.49472889548603
 30
0.0
 10
17.48586033806838
 20
-14.51566101963712
 30
0.0
 10
17.4712272058212
 20
-14.53650170329602
 30
0.0
 10
17.45647250194751
 20
-14.55724990744161
 30
0.0
 10
17.44171779807446
 20
-14.57799811158721
 30
0.0
 10
17.42684152257425
 20
-14.59865383622078
 30
0.0
 10
17.41184471446415
 20
-14.61921604231994
 30
0.0
 10
17.39684790635469
 20
-14.63977824841973
 30
0.0
 10
17.38173056563471
 20
-14.66024693598639
 30
0.0
 10
17.36649373132146
 20
-14.68062106599944
 30
0.0
 10
17.3512568970082
 20
-14.70099519601249
 30
0.0
 10
17.33590056910169
 20
-14.72127476847128
 30
0.0
 10
17.32042578661789
 20
-14.74145874435663
 30
0.0
 10
17.30495100413473
 20
-14.76164272024134
 30
0.0
 10
17.28935776707429
 20
-14.7817310995526
 30
0.0
 10
17.2736471144532
 20
-14.8017228432693
 30
0.0
 10
17.25793646183275
 20
-14.821714586986
 30
0.0
 10
17.24210839365099
 20
-14.84160969510813
 30
0.0
 10
17.22616394892585
 20
-14.86140712861523
 30
0.0
 10
17.21021950420007
 20
-14.88120456212297
 30
0.0
 10
17.1941586829309
 20
-14.90090432101566
 30
0.0
 10
17.17798252413433
 20
-14.92050536627285
 30
0.0
 10
17.16180636533775
 20
-14.94010641153004
 30
0.0
 10
17.14551486901313
 20
-14.95960874315235
 30
0.0
 10
17.12910907417772
 20
-14.97901132211868
 30
0.0
 10
17.11270327934296
 20
-14.998413901085
 30
0.0
 10
17.09618318599613
 20
-15.01771672739534
 30
0.0
 10
17.07954983315579
 20
-15.03691876202985
 30
0.0
 10
17.06291648031545
 20
-15.05612079666436
 30
0.0
 10
17.04616986798031
 20
-15.07522203962306
 30
0.0
 10
17.029311035167
 20
-15.09422145188545
 30
0.0
 10
17.01245220235369
 20
-15.1132208641472
 30
0.0
 10
16.99548114906221
 20
-15.13211844571265
 30
0.0
 10
16.97839891430982
 20
-15.15091315756133
 30
0.0
 10
16.96131667955743
 20
-15.16970786941001
 30
0.0
 10
16.9441232633435
 20
-15.18839971154192
 30
0.0
 10
16.92681970468465
 20
-15.20698764493594
 30
0.0
 10
16.90951614602515
 20
-15.22557557833059
 30
0.0
 10
16.89210244492137
 20
-15.24405960298736
 30
0.0
 10
16.87457964038866
 20
-15.26243867988704
 30
0.0
 10
16.85705683585658
 20
-15.28081775678673
 30
0.0
 10
16.83942492789557
 20
-15.29909188592869
 30
0.0
 10
16.82168495552224
 20
-15.31726002829245
 30
0.0
 10
16.80394498314892
 20
-15.33542817065621
 30
0.0
 10
16.78609694636392
 20
-15.35349032624177
 30
0.0
 10
16.76814188418324
 20
-15.37144545602866
 30
0.0
 10
16.75018682200255
 20
-15.38940058581555
 30
0.0
 10
16.73212473442618
 20
-15.4072486898044
 30
0.0
 10
16.71395666047139
 20
-15.4249887289741
 30
0.0
 10
16.69578858651596
 20
-15.44272876814381
 30
0.0
 10
16.67751452618146
 20
-15.46036074249436
 30
0.0
 10
16.65913551848517
 20
-15.47788361300593
 30
0.0
 10
16.64075651078887
 20
-15.4954064835175
 30
0.0
 10
16.6222725557295
 20
-15.51282025018944
 30
0.0
 10
16.60368469232431
 20
-15.53012387400192
 30
0.0
 10
16.58509682891849
 20
-15.54742749781441
 30
0.0
 10
16.56640505716749
 20
-15.56462097876743
 30
0.0
 10
16.54761041608666
 20
-15.58170327783988
 30
0.0
 10
16.52881577500584
 20
-15.59878557691233
 30
0.0
 10
16.50991826459518
 20
-15.61575669410484
 30
0.0
 10
16.49091892387197
 20
-15.63261559039695
 30
0.0
 10
16.47191958314875
 20
-15.64947448668905
 30
0.0
 10
16.45281841211233
 20
-15.66622116208075
 30
0.0
 10
16.43361644977869
 20
-15.68285457755091
 30
0.0
 10
16.41441448744569
 20
-15.69948799302108
 30
0.0
 10
16.39511173381611
 20
-15.716008148571
 30
0.0
 10
16.37570922790658
 20
-15.73241400517957
 30
0.0
 10
16.3563067219964
 20
-15.74881986178749
 30
0.0
 10
16.33680446380692
 20
-15.76511141945405
 30
0.0
 10
16.31720349235346
 20
-15.78128763915941
 30
0.0
 10
16.29760252090001
 20
-15.79746385886478
 30
0.0
 10
16.27790283618323
 20
-15.81352474060831
 30
0.0
 10
16.2581054772191
 20
-15.82946924536953
 30
0.0
 10
16.23830811825497
 20
-15.84541375013075
 30
0.0
 10
16.2184130850435
 20
-15.86124187790965
 30
0.0
 10
16.19842141660195
 20
-15.87695258968641
 30
0.0
 10
16.1784297481604
 20
-15.89266330146318
 30
0.0
 10
16.15834144448813
 20
-15.90825659723715
 30
0.0
 10
16.13815754460176
 20
-15.92373143798786
 30
0.0
 10
16.1179736447154
 20
-15.93920627873858
 30
0.0
 10
16.09769414861494
 20
-15.95456266446731
 30
0.0
 10
16.07732009531701
 20
-15.96979955615167
 30
0.0
 10
16.05694604201909
 20
-15.98503644783602
 30
0.0
 10
16.03647743152369
 20
-16.00015384547728
 30
0.0
 10
16.01591530284681
 20
-16.01515071005497
 30
0.0
 10
15.99535317416992
 20
-16.03014757463266
 30
0.0
 10
15.97469752731156
 20
-16.04502390614677
 30
0.0
 10
15.95394940128897
 20
-16.0597786655762
 30
0.0
 10
15.93320127526638
 20
-16.07453342500563
 30
0.0
 10
15.91236067007957
 20
-16.08916661235165
 30
0.0
 10
15.89142862474389
 20
-16.10367718859251
 30
0.0
 10
15.87049657940885
 20
-16.11818776483338
 30
0.0
 10
15.84947309392493
 20
-16.13257572996971
 30
0.0
 10
15.82835920731004
 20
-16.14684004498105
 30
0.0
 10
15.80724532069515
 20
-16.16110435999239
 30
0.0
 10
15.78604103294801
 20
-16.17524502487874
 30
0.0
 10
15.76474738308653
 20
-16.18926100061961
 30
0.0
 10
15.74345373322441
 20
-16.20327697636048
 30
0.0
 10
15.72207072124794
 20
-16.21716826295652
 30
0.0
 10
15.70059938617183
 20
-16.23093382138597
 30
0.0
 10
15.67912805109636
 20
-16.24469937981542
 30
0.0
 10
15.65756839292189
 20
-16.25833921007957
 30
0.0
 10
15.63592145066568
 20
-16.27185227315729
 30
0.0
 10
15.61427450840883
 20
-16.28536533623501
 30
0.0
 10
15.59254028207089
 20
-16.29875163212694
 30
0.0
 10
15.57071981066656
 20
-16.31201012181199
 30
0.0
 10
15.54889933926222
 20
-16.32526861149703
 30
0.0
 10
15.52699262279214
 20
-16.33839929497517
 30
0.0
 10
15.50500070027293
 20
-16.35140113322722
 30
0.0
 10
15.48300877775436
 20
-16.36440297147863
 30
0.0
 10
15.46093164918538
 20
-16.3772759645033
 30
0.0
 10
15.43877035358454
 20
-16.39001907328013
 30
0.0
 10
15.4166090579837
 20
-16.40276218205696
 30
0.0
 10
15.39436359535036
 20
-16.41537540658658
 30
0.0
 10
15.37203500470051
 20
-16.42785770784787
 30
0.0
 10
15.34970641405065
 20
-16.44034000910981
 30
0.0
 10
15.32729469538428
 20
-16.45269138710342
 30
0.0
 10
15.30480088771865
 20
-16.46491080280952
 30
0.0
 10
15.28230708005303
 20
-16.47713021851561
 30
0.0
 10
15.25973118338751
 20
-16.48921767193291
 30
0.0
 10
15.23707423673873
 20
-16.50117212404157
 30
0.0
 10
15.21441729008994
 20
-16.51312657615023
 30
0.0
 10
15.19167929345853
 20
-16.52494802695026
 30
0.0
 10
15.16886128585984
 20
-16.53663543742181
 30
0.0
 10
15.14604327826179
 20
-16.54832284789337
 30
0.0
 10
15.12314525969645
 20
-16.55987621803518
 30
0.0
 10
15.1001682691811
 20
-16.57129450882805
 30
0.0
 10
15.07719127866575
 20
-16.58271279962027
 30
0.0
 10
15.05413531620038
 20
-16.59399601106355
 30
0.0
 10
15.03100142080098
 20
-16.60514310413742
 30
0.0
 10
15.00786752540157
 20
-16.61629019721128
 30
0.0
 10
14.98465569706814
 20
-16.62730117191444
 30
0.0
 10
14.96136697481793
 20
-16.63817498922771
 30
0.0
 10
14.93807825256773
 20
-16.64904880654098
 30
0.0
 10
14.91471263640012
 20
-16.65978546646435
 30
0.0
 10
14.89127116533173
 20
-16.67038392997672
 30
0.0
 10
14.86782969426398
 20
-16.68098239348908
 30
0.0
 10
14.8443123682948
 20
-16.69144266059107
 30
0.0
 10
14.82072022644147
 20
-16.70176369226222
 30
0.0
 10
14.79712808458878
 20
-16.71208472393273
 30
0.0
 10
14.77346112685064
 20
-16.7222665201724
 30
0.0
 10
14.74972039224562
 20
-16.73230804196074
 30
0.0
 10
14.72597965764059
 20
-16.74234956374908
 30
0.0
 10
14.70216514616739
 20
-16.75225081108611
 30
0.0
 10
14.67827789684265
 20
-16.7620107449507
 30
0.0
 10
14.65439064751854
 20
-16.77177067881529
 30
0.0
 10
14.63043066034288
 20
-16.78138929920872
 30
0.0
 10
14.60639897433295
 20
-16.79086556710924
 30
0.0
 10
14.58236728832301
 20
-16.80034183500977
 30
0.0
 10
14.5582639034775
 20
-16.80967575041866
 30
0.0
 10
14.53408985881434
 20
-16.81886627431417
 30
0.0
 10
14.50991581415118
 20
-16.82805679820967
 30
0.0
 10
14.48567110966908
 20
-16.83710393059308
 30
0.0
 10
14.46135678438595
 20
-16.84600663244326
 30
0.0
 10
14.43704245910281
 20
-16.85490933429344
 30
0.0
 10
14.41265851301736
 20
-16.8636676056104
 30
0.0
 10
14.38820598514687
 20
-16.87228040737366
 30
0.0
 10
14.36375345727701
 20
-16.88089320913757
 30
0.0
 10
14.33923234762082
 20
-16.88936054134778
 30
0.0
 10
14.31464369519685
 20
-16.89768136498381
 30
0.0
 10
14.29005504277224
 20
-16.90600218861985
 30
0.0
 10
14.26539884757857
 20
-16.91417650368236
 30
0.0
 10
14.24067614863309
 20
-16.92220327115022
 30
0.0
 10
14.21595344968762
 20
-16.93023003861808
 30
0.0
 10
14.19116424698971
 20
-16.93810925849129
 30
0.0
 10
14.16630957955598
 20
-16.94583989175066
 30
0.0
 10
14.14145491212225
 20
-16.95357052500939
 30
0.0
 10
14.1165347799527
 20
-16.96115257165365
 30
0.0
 10
14.09155022206397
 20
-16.96858499266294
 30
0.0
 10
14.06656566417524
 20
-16.97601741367159
 30
0.0
 10
14.04151668056667
 20
-16.98330020904593
 30
0.0
 10
14.01640431025555
 20
-16.99043233976419
 30
0.0
 10
13.99129193994506
 20
-16.99756447048246
 30
0.0
 10
13.96611618293072
 20
-17.00454593654593
 30
0.0
 10
13.94087807823109
 20
-17.01137569893286
 30
0.0
 10
13.91563997353082
 20
-17.01820546131979
 30
0.0
 10
13.89033952114396
 20
-17.02488352003145
 30
0.0
 10
13.8649777600878
 20
-17.03140883604609
 30
0.0
 10
13.83961599903163
 20
-17.03793415206072
 30
0.0
 10
13.8141929293055
 20
-17.04430672537962
 30
0.0
 10
13.78870958992605
 20
-17.05052551698101
 30
0.0
 10
13.76322625054659
 20
-17.05674430858306
 30
0.0
 10
13.73768264151381
 20
-17.06280931846824
 30
0.0
 10
13.71207980184367
 20
-17.06871950761608
 30
0.0
 10
13.68647696217418
 20
-17.07462969676393
 30
0.0
 10
13.66081489186734
 20
-17.08038506517509
 30
0.0
 10
13.63509462994107
 20
-17.08598457382779
 30
0.0
 10
13.60937436801351
 20
-17.09158408248114
 30
0.0
 10
13.58359591446651
 20
-17.09702773137668
 30
0.0
 10
13.55776030831541
 20
-17.10231448149458
 30
0.0
 10
13.53192470216432
 20
-17.10760123161248
 30
0.0
 10
13.50603194340912
 20
-17.11273108295209
 30
0.0
 10
13.4800830710671
 20
-17.11770299649359
 30
0.0
 10
13.45413419872508
 20
-17.12267491003508
 30
0.0
 10
13.42812921279559
 20
-17.12748888577847
 30
0.0
 10
13.4020691522946
 20
-17.13214388470261
 30
0.0
 10
13.37600909179362
 20
-17.13679888362675
 30
0.0
 10
13.34989395672244
 20
-17.14129490573294
 30
0.0
 10
13.32372478609639
 20
-17.14563091199943
 30
0.0
 10
13.29755561547034
 20
-17.14996691826591
 30
0.0
 10
13.27133240929071
 20
-17.15414290869333
 30
0.0
 10
13.2450562065722
 20
-17.1581578442612
 30
0.0
 10
13.21878000385369
 20
-17.16217277982907
 30
0.0
 10
13.19245080459759
 20
-17.1660266605374
 30
0.0
 10
13.16606964782051
 20
-17.16971844736571
 30
0.0
 10
13.13968849104279
 20
-17.17341023419338
 30
0.0
 10
13.1132553767441
 20
-17.17693992714167
 30
0.0
 10
13.08677134394043
 20
-17.18030648718946
 30
0.0
 10
13.06028731113675
 20
-17.18367304723726
 30
0.0
 10
13.03375235982745
 20
-17.1868764743852
 30
0.0
 10
13.00716752903042
 20
-17.18991572961153
 30
0.0
 10
12.9805826982334
 20
-17.19295498483851
 30
0.0
 10
12.95394798794737
 20
-17.19583006814387
 30
0.0
 10
12.92726443719024
 20
-17.19853994050907
 30
0.0
 10
12.90058088643312
 20
-17.20124981287427
 30
0.0
 10
12.87384849520362
 20
-17.20379447429739
 30
0.0
 10
12.84706830251836
 20
-17.20617288575922
 30
0.0
 10
12.8202881098331
 20
-17.2085512972217
 30
0.0
 10
12.79346011569337
 20
-17.21076345872162
 30
0.0
 10
12.76658535911388
 20
-17.21280833124042
 30
0.0
 10
12.73971060253438
 20
-17.21485320375922
 30
0.0
 10
12.71278908351639
 20
-17.21673078729563
 30
0.0
 10
12.68582184107591
 20
-17.21844004282981
 30
0.0
 10
12.65885459863542
 20
-17.22014929836399
 30
0.0
 10
12.63184163277243
 20
-17.22169022589593
 30
0.0
 10
12.60478398250356
 20
-17.22306178640454
 30
0.0
 10
12.57772633223469
 20
-17.22443334691314
 30
0.0
 10
12.55062399755994
 20
-17.22563554039968
 30
0.0
 10
12.5234780174953
 20
-17.22666732784239
 30
0.0
 10
12.49633203743066
 20
-17.22769911528511
 30
0.0
 10
12.46914241197612
 20
-17.22856049668465
 30
0.0
 10
12.4419101801496
 20
-17.22925043302053
 30
0.0
 10
12.41467794832308
 20
-17.22994036935705
 30
0.0
 10
12.38740311012329
 20
-17.23045886062928
 30
0.0
 10
12.36008670456685
 20
-17.23080486781802
 30
0.0
 10
12.33277029901041
 20
-17.23115087500611
 30
0.0
 10
12.30541232609733
 20
-17.23132439811072
 30
0.0
 10
12.27801382484487
 20
-17.23132439811072
 30
0.0
 10
12.25061532359241
 20
-17.23132439811072
 30
0.0
 10
12.22325735067933
 20
-17.23115087500611
 30
0.0
 10
12.1959409451229
 20
-17.23080486781802
 30
0.0
 10
12.16862453956646
 20
-17.23045886062928
 30
0.0
 10
12.14134970136667
 20
-17.22994036935705
 30
0.0
 10
12.1141174695395
 20
-17.22925043302053
 30
0.0
 10
12.08688523771298
 20
-17.22856049668465
 30
0.0
 10
12.05969561225909
 20
-17.22769911528511
 30
0.0
 10
12.03254963219445
 20
-17.22666732784239
 30
0.0
 10
12.00540365213045
 20
-17.22563554039968
 30
0.0
 10
11.9783013174557
 20
-17.22443334691314
 30
0.0
 10
11.95124366718619
 20
-17.22306178640454
 30
0.0
 10
11.92418601691732
 20
-17.22169022589593
 30
0.0
 10
11.89717305105433
 20
-17.22014929836399
 30
0.0
 10
11.87020580861384
 20
-17.21844004282981
 30
0.0
 10
11.84323856617335
 20
-17.21673078729563
 30
0.0
 10
11.81631704715537
 20
-17.21485320375922
 30
0.0
 10
11.78944229057587
 20
-17.21280833124042
 30
0.0
 10
11.76256753399637
 20
-17.21076345872162
 30
0.0
 10
11.73573953985664
 20
-17.2085512972217
 30
0.0
 10
11.70895934717203
 20
-17.20617288575922
 30
0.0
 10
11.68217915448677
 20
-17.20379447429739
 30
0.0
 10
11.65544676325727
 20
-17.20124981287427
 30
0.0
 10
11.6287632124995
 20
-17.19853994050907
 30
0.0
 10
11.60207966174238
 20
-17.19583006814387
 30
0.0
 10
11.57544495145635
 20
-17.19295498483851
 30
0.0
 10
11.54886012065996
 20
-17.18991572961153
 30
0.0
 10
11.5222752898623
 20
-17.1868764743852
 30
0.0
 10
11.49574033855363
 20
-17.18367304723726
 30
0.0
 10
11.46925630574996
 20
-17.18030648718946
 30
0.0
 10
11.44277227294628
 20
-17.17693992714167
 30
0.0
 10
11.41633915864759
 20
-17.17341023419338
 30
0.0
 10
11.38995800186988
 20
-17.16971844736571
 30
0.0
 10
11.36357684509216
 20
-17.1660266605374
 30
0.0
 10
11.33724764583605
 20
-17.16217277982907
 30
0.0
 10
11.31097144311819
 20
-17.1581578442612
 30
0.0
 10
11.28469524040032
 20
-17.15414290869333
 30
0.0
 10
11.25847203421941
 20
-17.14996691826591
 30
0.0
 10
11.232302863594
 20
-17.14563091199943
 30
0.0
 10
11.20613369296795
 20
-17.14129490573294
 30
0.0
 10
11.18001855789612
 20
-17.13679888362675
 30
0.0
 10
11.15395849739578
 20
-17.13214388470261
 30
0.0
 10
11.12789843689544
 20
-17.12748888577847
 30
0.0
 10
11.10189345096531
 20
-17.12267491003508
 30
0.0
 10
11.07594457862329
 20
-17.11770299649359
 30
0.0
 10
11.04999570628062
 20
-17.11273108295209
 30
0.0
 10
11.02410294752543
 20
-17.10760123161248
 30
0.0
 10
10.99826734137434
 20
-17.10231448149458
 30
0.0
 10
10.97243173522324
 20
-17.09702773137668
 30
0.0
 10
10.94665328167624
 20
-17.09158408248114
 30
0.0
 10
10.92093301974868
 20
-17.08598457382779
 30
0.0
 10
10.8952127578224
 20
-17.08038506517509
 30
0.0
 10
10.86955068751556
 20
-17.07462969676393
 30
0.0
 10
10.84394784784607
 20
-17.06871950761608
 30
0.0
 10
10.81834500817594
 20
-17.06280931846824
 30
0.0
 10
10.79280139914315
 20
-17.05674430858306
 30
0.0
 10
10.7673180597637
 20
-17.05052551698101
 30
0.0
 10
10.74183472038425
 20
-17.04430672537962
 30
0.0
 10
10.71641165065812
 20
-17.03793415206072
 30
0.0
 10
10.69104988960131
 20
-17.03140883604609
 30
0.0
 10
10.66568812854514
 20
-17.02488352003145
 30
0.0
 10
10.64038767615893
 20
-17.01820546131979
 30
0.0
 10
10.61514957145865
 20
-17.01137569893286
 30
0.0
 10
10.58991146675902
 20
-17.00454593654593
 30
0.0
 10
10.56473570974469
 20
-16.99756447048246
 30
0.0
 10
10.5396233394342
 20
-16.99043233976419
 30
0.0
 10
10.51451096912307
 20
-16.98330020904593
 30
0.0
 10
10.48946198551451
 20
-16.97601741367159
 30
0.0
 10
10.46447742762578
 20
-16.96858499266294
 30
0.0
 10
10.43949286973704
 20
-16.96115257165365
 30
0.0
 10
10.4145727375675
 20
-16.95357052500939
 30
0.0
 10
10.38971807013377
 20
-16.94583989175066
 30
0.0
 10
10.36486340270004
 20
-16.93810925849129
 30
0.0
 10
10.34007420000213
 20
-16.93023003861808
 30
0.0
 10
10.31535150105665
 20
-16.92220327115022
 30
0.0
 10
10.29062880211118
 20
-16.91417650368236
 30
0.0
 10
10.2659726069175
 20
-16.90600218861985
 30
0.0
 10
10.24138395449289
 20
-16.89768136498381
 30
0.0
 10
10.21679530206828
 20
-16.88936054134778
 30
0.0
 10
10.19227419241273
 20
-16.88089320913757
 30
0.0
 10
10.16782166454224
 20
-16.87228040737366
 30
0.0
 10
10.14336913667174
 20
-16.8636676056104
 30
0.0
 10
10.11898519058693
 20
-16.85490933429344
 30
0.0
 10
10.09467086530316
 20
-16.84600663244326
 30
0.0
 10
10.07035654001938
 20
-16.83710393059308
 30
0.0
 10
10.04611183553792
 20
-16.82805679820967
 30
0.0
 10
10.02193779087476
 20
-16.81886627431417
 30
0.0
 10
9.997763746211602
 20
-16.80967575041866
 30
0.0
 10
9.97366036136674
 20
-16.80034183500977
 30
0.0
 10
9.94962867535616
 20
-16.79086556710924
 30
0.0
 10
9.92559698934558
 20
-16.78138929920872
 30
0.0
 10
9.901637002170565
 20
-16.77177067881529
 30
0.0
 10
9.877749752845817
 20
-16.7620107449507
 30
0.0
 10
9.853862503522352
 20
-16.75225081108611
 30
0.0
 10
9.830047992049154
 20
-16.74234956374908
 30
0.0
 10
9.806307257443487
 20
-16.73230804196074
 30
0.0
 10
9.782566522838463
 20
-16.7222665201724
 30
0.0
 10
9.75889956510097
 20
-16.71208472393273
 30
0.0
 10
9.735307423247637
 20
-16.70176369226222
 30
0.0
 10
9.711715281394303
 20
-16.69144266059107
 30
0.0
 10
9.688197955425768
 20
-16.68098239348908
 30
0.0
 10
9.664756484357374
 20
-16.67038392997672
 30
0.0
 10
9.641315013288981
 20
-16.65978546646435
 30
0.0
 10
9.617949397122013
 20
-16.64904880654098
 30
0.0
 10
9.594660674871168
 20
-16.63817498922771
 30
0.0
 10
9.571371952620966
 20
-16.62730117191444
 30
0.0
 10
9.548160124288172
 20
-16.61629019721128
 30
0.0
 10
9.52502622888877
 20
-16.60514310413742
 30
0.0
 10
9.501892333489367
 20
-16.59399601106355
 30
0.0
 10
9.478836371023998
 20
-16.58271279962027
 30
0.0
 10
9.455859380508006
 20
-16.57129450882805
 30
0.0
 10
9.432882389992653
 20
-16.55987621803518
 30
0.0
 10
9.409984371427317
 20
-16.54832284789337
 30
0.0
 10
9.387166363828625
 20
-16.53663543742181
 30
0.0
 10
9.364348356230572
 20
-16.52494802695026
 30
0.0
 10
9.341610359598521
 20
-16.51312657615023
 30
0.0
 10
9.318953412949737
 20
-16.50117212404157
 30
0.0
 10
9.296296466301595
 20
-16.48921767193291
 30
0.0
 10
9.273720569636078
 20
-16.47713021851561
 30
0.0
 10
9.251226761970452
 20
-16.46491080280952
 30
0.0
 10
9.228732954304828
 20
-16.45269138710342
 30
0.0
 10
9.206321235638454
 20
-16.44034000910981
 30
0.0
 10
9.183992644989239
 20
-16.42785770784787
 30
0.0
 10
9.161664054339381
 20
-16.41537540658658
 30
0.0
 10
9.139418591706043
 20
-16.40276218205696
 30
0.0
 10
9.117257296104563
 20
-16.39001907328013
 30
0.0
 10
9.095096000503725
 20
-16.3772759645033
 30
0.0
 10
9.073018871935387
 20
-16.36440297147863
 30
0.0
 10
9.051026949416176
 20
-16.35140113322722
 30
0.0
 10
9.029035026897606
 20
-16.33839929497517
 30
0.0
 10
9.007128310427522
 20
-16.32526861149703
 30
0.0
 10
8.985307839023188
 20
-16.31201012181199
 30
0.0
 10
8.963487367618853
 20
-16.29875163212694
 30
0.0
 10
8.941753141280271
 20
-16.28536533623501
 30
0.0
 10
8.920106199023424
 20
-16.27185227315729
 30
0.0
 10
8.898459256767218
 20
-16.25833921007957
 30
0.0
 10
8.876899598593388
 20
-16.24469937981542
 30
0.0
 10
8.855428263517918
 20
-16.23093382138597
 30
0.0
 10
8.833956928441808
 20
-16.21716826295652
 30
0.0
 10
8.812573916465018
 20
-16.20327697636048
 30
0.0
 10
8.791280266603215
 20
-16.18926100061961
 30
0.0
 10
8.769986616741411
 20
-16.17524502487874
 30
0.0
 10
8.748782328994592
 20
-16.16110435999239
 30
0.0
 10
8.727668442379704
 20
-16.14684004498105
 30
0.0
 10
8.706554555764816
 20
-16.13257572996971
 30
0.0
 10
8.685531070281218
 20
-16.11818776483338
 30
0.0
 10
8.664599024945856
 20
-16.10367718859251
 30
0.0
 10
8.643666979610494
 20
-16.08916661235165
 30
0.0
 10
8.622826374423365
 20
-16.07453342500563
 30
0.0
 10
8.602078248400778
 20
-16.0597786655762
 30
0.0
 10
8.58133012237819
 20
-16.04502390614677
 30
0.0
 10
8.560674475520464
 20
-16.03014757463266
 30
0.0
 10
8.54011234684358
 20
-16.01515071005497
 30
0.0
 10
8.519550218166698
 20
-16.00015384547728
 30
0.0
 10
8.4990816076713
 20
-15.98503644783602
 30
0.0
 10
8.478707554373052
 20
-15.96979955615167
 30
0.0
 10
8.458333501074804
 20
-15.95456266446731
 30
0.0
 10
8.438054004974346
 20
-15.93920627873858
 30
0.0
 10
8.417870105087982
 20
-15.92373143798786
 30
0.0
 10
8.397686205201616
 20
-15.90825659723715
 30
0.0
 10
8.377597901529347
 20
-15.89266330146318
 30
0.0
 10
8.357606233087475
 20
-15.87695258968641
 30
0.0
 10
8.337614564645605
 20
-15.86124187790965
 30
0.0
 10
8.317719531434774
 20
-15.84541375013075
 30
0.0
 10
8.297922172470647
 20
-15.82946924536953
 30
0.0
 10
8.278124813506519
 20
-15.81352474060831
 30
0.0
 10
8.258425128789735
 20
-15.79746385886478
 30
0.0
 10
8.238824157336282
 20
-15.78128763915941
 30
0.0
 10
8.219223185882827
 20
-15.76511141945405
 30
0.0
 10
8.199720927693022
 20
-15.74881986178749
 30
0.0
 10
8.18031842178317
 20
-15.73241400517957
 30
0.0
 10
8.160915915873638
 20
-15.716008148571
 30
0.0
 10
8.14161316224406
 20
-15.69948799302108
 30
0.0
 10
8.12241119991074
 20
-15.68285457755091
 30
0.0
 10
8.10320923757774
 20
-15.66622116208075
 30
0.0
 10
8.084108066541319
 20
-15.64947448668905
 30
0.0
 10
8.065108725817781
 20
-15.63261559039695
 30
0.0
 10
8.046109385094244
 20
-15.61575669410484
 30
0.0
 10
8.027211874683909
 20
-15.59878557691233
 30
0.0
 10
8.008417233603083
 20
-15.58170327783988
 30
0.0
 10
7.989622592522257
 20
-15.56462097876743
 30
0.0
 10
7.970930820770938
 20
-15.54742749781441
 30
0.0
 10
7.952342957365754
 20
-15.53012387400192
 30
0.0
 10
7.933755093960248
 20
-15.51282025018944
 30
0.0
 10
7.915271138900875
 20
-15.4954064835175
 30
0.0
 10
7.896892131204261
 20
-15.47788361300593
 30
0.0
 10
7.878513123507648
 20
-15.46036074249436
 30
0.0
 10
7.860239063173149
 20
-15.44272876814381
 30
0.0
 10
7.842070989218036
 20
-15.4249887289741
 30
0.0
 10
7.823902915262922
 20
-15.4072486898044
 30
0.0
 10
7.805840827686549
 20
-15.38940058581555
 30
0.0
 10
7.787885765506186
 20
-15.37144545602866
 30
0.0
 10
7.769930703325823
 20
-15.35349032624177
 30
0.0
 10
7.752082666540505
 20
-15.33542817065621
 30
0.0
 10
7.734342694167501
 20
-15.31726002829245
 30
0.0
 10
7.716602721794176
 20
-15.29909188592869
 30
0.0
 10
7.698970813833165
 20
-15.28081775678673
 30
0.0
 10
7.681448009300449
 20
-15.26243867988704
 30
0.0
 10
7.663925204767733
 20
-15.24405960298736
 30
0.0
 10
7.646511503663956
 20
-15.22557557833059
 30
0.0
 10
7.629207945004779
 20
-15.20698764493594
 30
0.0
 10
7.611904386345603
 20
-15.18839971154192
 30
0.0
 10
7.594710970131669
 20
-15.16970786941001
 30
0.0
 10
7.577628735378961
 20
-15.15091315756133
 30
0.0
 10
7.560546500626253
 20
-15.13211844571265
 30
0.0
 10
7.543575447335413
 20
-15.1132208641472
 30
0.0
 10
7.526716614522103
 20
-15.09422145188545
 30
0.0
 10
7.509857781709114
 20
-15.07522203962306
 30
0.0
 10
7.493111169373976
 20
-15.05612079666436
 30
0.0
 10
7.476477816533314
 20
-15.03691876202985
 30
0.0
 10
7.459844463692973
 20
-15.01771672739534
 30
0.0
 10
7.443324370346788
 20
-14.998413901085
 30
0.0
 10
7.426918575511383
 20
-14.97901132211868
 30
0.0
 10
7.410512780676299
 20
-14.95960874315235
 30
0.0
 10
7.394221284351996
 20
-14.94010641153004
 30
0.0
 10
7.37804512555542
 20
-14.92050536627285
 30
0.0
 10
7.361868966758522
 20
-14.90090432101566
 30
0.0
 10
7.345808145489031
 20
-14.88120456212297
 30
0.0
 10
7.329863700763892
 20
-14.86140712861523
 30
0.0
 10
7.313919256038431
 20
-14.84160969510813
 30
0.0
 10
7.298091187857001
 20
-14.821714586986
 30
0.0
 10
7.282380535235907
 20
-14.8017228432693
 30
0.0
 10
7.266669882614813
 20
-14.7817310995526
 30
0.0
 10
7.251076645554375
 20
-14.76164272024134
 30
0.0
 10
7.235601863070897
 20
-14.74145874435663
 30
0.0
 10
7.22012708058742
 20
-14.72127476847128
 30
0.0
 10
7.204770752680902
 20
-14.70099519601249
 30
0.0
 10
7.18953391836765
 20
-14.68062106599944
 30
0.0
 10
7.174297084054398
 20
-14.66024693598639
 30
0.0
 10
7.15917974333441
 20
-14.63977824841973
 30
0.0
 10
7.144182935224634
 20
-14.61921604231994
 30
0.0
 10
7.129186127114857
 20
-14.59865383622078
 30
0.0
 10
7.114309851614649
 20
-14.57799811158721
 30
0.0
 10
7.099555147741277
 20
-14.55724990744161
 30
0.0
 10
7.084800443867906
 20
-14.53650170329602
 30
0.0
 10
7.070167311620729
 20
-14.51566101963712
 30
0.0
 10
7.05565679001637
 20
-14.49472889548603
 30
0.0
 10
7.041146268412334
 20
-14.47379677133495
 30
0.0
 10
7.026758357451116
 20
-14.45277320669168
 30
0.0
 10
7.012494096149343
 20
-14.43165924057605
 30
0.0
 10
6.99822983484757
 20
-14.41054527446043
 30
0.0
 10
6.984089223204921
 20
-14.38934090687246
 30
0.0
 10
6.970073300238663
 20
-14.36804717683324
 30
0.0
 10
6.956057377271762
 20
-14.34675344679403
 30
0.0
 10
6.942166142981252
 20
-14.32537035430359
 30
0.0
 10
6.928400636383117
 20
-14.30389893838174
 30
0.0
 10
6.914635129784982
 20
-14.28242752245989
 30
0.0
 10
6.900995350878899
 20
-14.26086778310664
 30
0.0
 10
6.887482338681816
 20
-14.23922075934246
 30
0.0
 10
6.873969326484733
 20
-14.21757373557829
 30
0.0
 10
6.860583080996649
 20
-14.19583942740318
 30
0.0
 10
6.847324641233869
 20
-14.17401887383827
 30
0.0
 10
6.834066201471089
 20
-14.15219832027336
 30
0.0
 10
6.820935567433613
 20
-14.13029152131736
 30
0.0
 10
6.807933778138064
 20
-14.10829951599202
 30
0.0
 10
6.794931988842516
 20
-14.08630751066604
 30
0.0
 10
6.782059044288898
 20
-14.06423029897072
 30
0.0
 10
6.769315983493512
 20
-14.04206891992527
 30
0.0
 10
6.756572922698126
 20
-14.01990754087981
 30
0.0
 10
6.743959745661294
 20
-13.99766199448485
 30
0.0
 10
6.73147749139932
 20
-13.97533331976087
 30
0.0
 10
6.718995237137347
 20
-13.95300464503689
 30
0.0
 10
6.70664390564991
 20
-13.93059284198388
 30
0.0
 10
6.694424535953957
 20
-13.90809894962169
 30
0.0
 10
6.682205166258004
 20
-13.88560505725949
 30
0.0
 10
6.670117758353535
 20
-13.86302907558874
 30
0.0
 10
6.658163351256532
 20
-13.84037204362928
 30
0.0
 10
6.64620894415985
 20
-13.81771501167046
 30
0.0
 10
6.634387537870956
 20
-13.79497692942292
 30
0.0
 10
6.622700171406475
 20
-13.77215883590714
 30
0.0
 10
6.611012804941994
 20
-13.74934074239136
 30
0.0
 10
6.599459478301605
 20
-13.72644263760799
 30
0.0
 10
6.588041230502253
 20
-13.70346556057684
 30
0.0
 10
6.576622982702903
 20
-13.68048848354635
 30
0.0
 10
6.565339813744269
 20
-13.65743243426744
 30
0.0
 10
6.554192762642978
 20
-13.63429845176188
 30
0.0
 10
6.543045711541686
 20
-13.61116446925569
 30
0.0
 10
6.532034778297737
 20
-13.58795255352284
 30
0.0
 10
6.521161001927435
 20
-13.56466374358318
 30
0.0
 10
6.510287225557454
 20
-13.54137493364352
 30
0.0
 10
6.499550606061119
 20
-13.51800922949705
 30
0.0
 10
6.488952182455056
 20
-13.49456767016424
 30
0.0
 10
6.478353758849314
 20
-13.47112611083142
 30
0.0
 10
6.467893531133523
 20
-13.44760869631227
 30
0.0
 10
6.457572538324629
 20
-13.42401646562661
 30
0.0
 10
6.447251545515735
 20
-13.4004242349416
 30
0.0
 10
6.437069787613738
 20
-13.37675718809008
 30
0.0
 10
6.427028303634622
 20
-13.35301636409381
 30
0.0
 10
6.416986819655506
 20
-13.32927554009754
 30
0.0
 10
6.407085609599911
 20
-13.3054609389546
 30
0.0
 10
6.397325712484144
 20
-13.28157359968739
 30
0.0
 10
6.387565815368377
 20
-13.25768626042018
 30
0.0
 10
6.377947231192436
 20
-13.23372618302742
 30
0.0
 10
6.368470998972946
 20
-13.20969440653021
 30
0.0
 10
6.358994766753136
 20
-13.18566263003301
 30
0.0
 10
6.349660886489778
 20
-13.16155915443137
 30
0.0
 10
6.340470397198854
 20
-13.13738501874513
 30
0.0
 10
6.331279907908252
 20
-13.11321088305888
 30
0.0
 10
6.322232809590405
 20
-13.08896608728803
 30
0.0
 10
6.313330141261619
 20
-13.0646516704537
 30
0.0
 10
6.304427472932833
 20
-13.04033725361936
 30
0.0
 10
6.295669234593428
 20
-13.01595321572026
 30
0.0
 10
6.287056465260029
 20
-12.99150059577878
 30
0.0
 10
6.278443695926311
 20
-12.96704797583666
 30
0.0
 10
6.269976395598277
 20
-12.94252677385089
 30
0.0
 10
6.261655603292554
 20
-12.91793802884259
 30
0.0
 10
6.253334810987151
 20
-12.89334928383428
 30
0.0
 10
6.245160526703739
 20
-12.8686929958028
 30
0.0
 10
6.237133789458941
 20
-12.84397020376861
 30
0.0
 10
6.229107052214144
 20
-12.81924741173442
 30
0.0
 10
6.221227862007961
 20
-12.79445811569753
 30
0.0
 10
6.21349725785734
 20
-12.76960335467778
 30
0.0
 10
6.205766653706719
 20
-12.74474859365802
 30
0.0
 10
6.198184635611017
 20
-12.71982836765667
 30
0.0
 10
6.190752242587179
 20
-12.69484371569293
 30
0.0
 10
6.183319849563342
 20
-12.6698590637292
 30
0.0
 10
6.176037081611371
 20
-12.64480998580371
 30
0.0
 10
6.16890497774757
 20
-12.61969752093694
 30
0.0
 10
6.161772873883767
 20
-12.59458505606954
 30
0.0
 10
6.154791434107815
 20
-12.56940920426085
 30
0.0
 10
6.147961697436977
 20
-12.54417100453137
 30
0.0
 10
6.141131960765819
 20
-12.51893280480188
 30
0.0
 10
6.134453927199776
 20
-12.49363225715096
 30
0.0
 10
6.127928635754513
 20
-12.4682704005997
 30
0.0
 10
6.121403344309569
 20
-12.44290854404845
 30
0.0
 10
6.115030794985725
 20
-12.41748537859687
 30
0.0
 10
6.108812026799605
 20
-12.39200194326416
 30
0.0
 10
6.102593258613164
 20
-12.36651850793209
 30
0.0
 10
6.096528271564769
 20
-12.34097480271952
 30
0.0
 10
6.090618104670402
 20
-12.31537186664695
 30
0.0
 10
6.084707937776035
 20
-12.28976893057436
 30
0.0
 10
6.078952591036338
 20
-12.26410676364177
 30
0.0
 10
6.073353103466654
 20
-12.23838640487027
 30
0.0
 10
6.067753615897611
 20
-12.21266604609814
 30
0.0
 10
6.062309987498581
 20
-12.1868874954871
 30
0.0
 10
6.05702325728715
 20
-12.16105179205635
 30
0.0
 10
6.051736527075719
 20
-12.13521608862561
 30
0.0
 10
6.046606695051246
 20
-12.10932323237644
 30
0.0
 10
6.041634800230357
 20
-12.08337426232804
 30
0.0
 10
6.036662905409788
 20
-12.05742529228028
 30
0.0
 10
6.031848947792803
 20
-12.03142020843329
 30
0.0
 10
6.027193966395705
 20
-12.00536004980818
 30
0.0
 10
6.022538984998607
 20
-11.97929989118307
 30
0.0
 10
6.018042979822039
 20
-11.95318465777985
 30
0.0
 10
6.013706989881983
 20
-11.92701538861899
 30
0.0
 10
6.009370999941607
 20
-11.90084611945749
 30
0.0
 10
6.005195025238384
 20
-11.87462281453898
 30
0.0
 10
6.00118010478798
 20
-11.84834651288268
 30
0.0
 10
5.997165184337575
 20
-11.82207021122637
 30
0.0
 10
5.993311318140629
 20
-11.79574091283225
 30
0.0
 10
5.989619545212804
 20
-11.76935965672145
 30
0.0
 10
5.9859277722853
 20
-11.74297840061065
 30
0.0
 10
5.98239809262756
 20
-11.71654518678251
 30
0.0
 10
5.979031545255565
 20
-11.69006105425752
 30
0.0
 10
5.975664997883571
 20
-11.66357692173317
 30
0.0
 10
5.972461582797965
 20
-11.63704187051197
 30
0.0
 10
5.969422339015052
 20
-11.61045693961439
 30
0.0
 10
5.966383095231818
 20
-11.5838720087168
 30
0.0
 10
5.963508022751598
 20
-11.55723719814348
 30
0.0
 10
5.960798160590373
 20
-11.53055354691361
 30
0.0
 10
5.95808829842915
 20
-11.50386989568374
 30
0.0
 10
5.955543646586923
 20
-11.47713740379861
 30
0.0
 10
5.953165244080319
 20
-11.45035711027805
 30
0.0
 10
5.950786841573714
 20
-11.42357681675749
 30
0.0
 10
5.948574688402731
 20
-11.3967487216015
 30
0.0
 10
5.946529823583996
 20
-11.36987386383056
 30
0.0
 10
5.94448495876494
 20
-11.34299900605961
 30
0.0
 10
5.942607382298131
 20
-11.31607738567307
 30
0.0
 10
5.940898133199873
 20
-11.28911004169206
 30
0.0
 10
5.939188884101616
 20
-11.26214269771104
 30
0.0
 10
5.93764796237191
 20
-11.23512963013554
 30
0.0
 10
5.936276407027381
 20
-11.20807187798604
 30
0.0
 10
5.934904851682853
 20
-11.18101412583654
 30
0.0
 10
5.9337026627235
 20
-11.15391168911239
 30
0.0
 10
5.932670879165629
 20
-11.12676560683504
 30
0.0
 10
5.931639095607758
 20
-11.09961952455737
 30
0.0
 10
5.930777717451368
 20
-11.07242979672584
 30
0.0
 10
5.930087783713083
 20
-11.04519746236095
 30
0.0
 10
5.9293978499748
 20
-11.01796512799605
 30
0.0
 10
5.928879360654622
 20
-10.99069018709778
 30
0.0
 10
5.928533354769176
 20
-10.96337367868662
 30
0.0
 10
5.928187348883409
 20
-10.93605717027513
 30
0.0
 10
5.928013826432373
 20
-10.90869909435106
 30
0.0
 10
5.928013826432373
 20
-10.88130048993425
 30
0.0
 10
5.928013826432373
 20
-10.85390188551745
 30
0.0
 10
5.928187348883409
 20
-10.82654380959338
 30
0.0
 10
5.928533354769176
 20
-10.79922730118189
 30
0.0
 10
5.928879360654622
 20
-10.77191079277073
 30
0.0
 10
5.9293978499748
 20
-10.74463585187246
 30
0.0
 10
5.930087783713083
 20
-10.71740351750756
 30
0.0
 10
5.930777717451368
 20
-10.69017118314267
 30
0.0
 10
5.931639095607758
 20
-10.66298145531114
 30
0.0
 10
5.932670879165629
 20
-10.63583537303347
 30
0.0
 10
5.9337026627235
 20
-10.60868929075612
 30
0.0
 10
5.934904851682853
 20
-10.58158685403197
 30
0.0
 10
5.936276407027381
 20
-10.55452910188247
 30
0.0
 10
5.93764796237191
 20
-10.52747134973297
 30
0.0
 10
5.939188884101616
 20
-10.50045828215747
 30
0.0
 10
5.940898133199873
 20
-10.47349093817646
 30
0.0
 10
5.942607382298131
 20
-10.44652359419544
 30
0.0
 10
5.94448495876494
 20
-10.41960197380954
 30
0.0
 10
5.946529823583996
 20
-10.39272711603827
 30
0.0
 10
5.948574688402731
 20
-10.36585225826701
 30
0.0
 10
5.950786841573714
 20
-10.3390241631107
 30
0.0
 10
5.953165244080319
 20
-10.31224386959014
 30
0.0
 10
5.955543646586923
 20
-10.28546357606925
 30
0.0
 10
5.95808829842915
 20
-10.25873108418412
 30
0.0
 10
5.960798160590373
 20
-10.23204743295458
 30
0.0
 10
5.963508022751598
 20
-10.20536378172503
 30
0.0
 10
5.966383095231818
 20
-10.17872897115171
 30
0.0
 10
5.969422339015052
 20
-10.15214404025412
 30
0.0
 10
5.972461582797965
 20
-10.12555910935654
 30
0.0
 10
5.975664997883571
 20
-10.09902405813534
 30
0.0
 10
5.979031545255565
 20
-10.07253992561067
 30
0.0
 10
5.98239809262756
 20
-10.046055793086
 30
0.0
 10
5.9859277722853
 20
-10.01962257925818
 30
0.0
 10
5.989619545212804
 20
-9.99324132314706
 30
0.0
 10
5.993311318140629
 20
-9.966860067036258
 30
0.0
 10
5.997165184337575
 20
-9.940530768642143
 30
0.0
 10
6.00118010478798
 20
-9.914254466985835
 30
0.0
 10
6.005195025238384
 20
-9.887978165329526
 30
0.0
 10
6.009370999941607
 20
-9.861754860410382
 30
0.0
 10
6.013706989881983
 20
-9.83558559124952
 30
0.0
 10
6.018042979822039
 20
-9.809416322088337
 30
0.0
 10
6.022538984998607
 20
-9.783301088684794
 30
0.0
 10
6.027193966395705
 20
-9.757240930060009
 30
0.0
 10
6.031848947792803
 20
-9.731180771435222
 30
0.0
 10
6.036662905409788
 20
-9.70517568758823
 30
0.0
 10
6.041634800230357
 20
-9.67922671754015
 30
0.0
 10
6.046606695051246
 20
-9.65327774749207
 30
0.0
 10
6.051736527075719
 20
-9.62738489124258
 30
0.0
 10
6.05702325728715
 20
-9.601549187812155
 30
0.0
 10
6.062309987498581
 20
-9.575713484381732
 30
0.0
 10
6.067753615897611
 20
-9.549934933770375
 30
0.0
 10
6.073353103466654
 20
-9.524214574998558
 30
0.0
 10
6.078952591036338
 20
-9.49849421622674
 30
0.0
 10
6.084707937776035
 20
-9.472832049294144
 30
0.0
 10
6.090618104670402
 20
-9.447229113221887
 30
0.0
 10
6.096528271564769
 20
-9.421626177149307
 30
0.0
 10
6.102593258613164
 20
-9.396082471936744
 30
0.0
 10
6.108812026799605
 20
-9.370599036604352
 30
0.0
 10
6.115030794985725
 20
-9.34511560127196
 30
0.0
 10
6.121403344309569
 20
-9.31969243582006
 30
0.0
 10
6.127928635754513
 20
-9.294330579268488
 30
0.0
 10
6.134453927199776
 20
-9.268968722716913
 30
0.0
 10
6.141131960765819
 20
-9.243668175066306
 30
0.0
 10
6.147961697436977
 20
-9.218429975336822
 30
0.0
 10
6.154791434107815
 20
-9.193191775607337
 30
0.0
 10
6.161772873883767
 20
-9.168015923798974
 30
0.0
 10
6.16890497774757
 20
-9.142903458931888
 30
0.0
 10
6.176037081611371
 20
-9.117790994064801
 30
0.0
 10
6.183319849563342
 20
-9.092741916139312
 30
0.0
 10
6.190752242587179
 20
-9.067757264175576
 30
0.0
 10
6.198184635611017
 20
-9.042772612211838
 30
0.0
 10
6.205766653706719
 20
-9.017852386210173
 30
0.0
 10
6.21349725785734
 20
-8.992997625190736
 30
0.0
 10
6.221227862007961
 20
-8.968142864171298
 30
0.0
 10
6.229107052214144
 20
-8.943353568134087
 30
0.0
 10
6.237133789458941
 20
-8.918630776099901
 30
0.0
 10
6.245160526703739
 20
-8.893907984065393
 30
0.0
 10
6.253334810987151
 20
-8.869251696033588
 30
0.0
 10
6.261655603292554
 20
-8.84466295102496
 30
0.0
 10
6.269976395598277
 20
-8.820074206016333
 30
0.0
 10
6.278443695926311
 20
-8.795553004030884
 30
0.0
 10
6.287056465260029
 20
-8.771100384088767
 30
0.0
 10
6.295669234593428
 20
-8.746647764146969
 30
0.0
 10
6.304427472932833
 20
-8.722263726248507
 30
0.0
 10
6.313330141261619
 20
-8.69794930941385
 30
0.0
 10
6.322232809590405
 20
-8.673634892579193
 30
0.0
 10
6.331279907908252
 20
-8.649390096808666
 30
0.0
 10
6.340470397198854
 20
-8.625215961122422
 30
0.0
 10
6.349660886489778
 20
-8.601041825436177
 30
0.0
 10
6.358994766753136
 20
-8.576938349834215
 30
0.0
 10
6.368470998972946
 20
-8.552906573337012
 30
0.0
 10
6.377947231192436
 20
-8.52887479683981
 30
0.0
 10
6.387565815368377
 20
-8.504914719447365
 30
0.0
 10
6.397325712484144
 20
-8.481027380180155
 30
0.0
 10
6.407085609599911
 20
-8.457140040912623
 30
0.0
 10
6.416986819655506
 20
-8.433325439770647
 30
0.0
 10
6.427028303634622
 20
-8.409584615774058
 30
0.0
 10
6.437069787613738
 20
-8.38584379177747
 30
0.0
 10
6.447251545515735
 20
-8.362176744926268
 30
0.0
 10
6.457572538324629
 20
-8.338584514241253
 30
0.0
 10
6.467893531133523
 20
-8.314992283556238
 30
0.0
 10
6.478353758849314
 20
-8.291474869037087
 30
0.0
 10
6.488952182455056
 20
-8.268033309704274
 30
0.0
 10
6.499550606061119
 20
-8.24459175037146
 30
0.0
 10
6.510287225557454
 20
-8.221226046224986
 30
0.0
 10
6.521161001927435
 20
-8.197937236285327
 30
0.0
 10
6.532034778297737
 20
-8.174648426345668
 30
0.0
 10
6.543045711541686
 20
-8.151436510612502
 30
0.0
 10
6.554192762642978
 20
-8.128302528106627
 30
0.0
 10
6.565339813744269
 20
-8.105168545600751
 30
0.0
 10
6.576622982702903
 20
-8.082112496322164
 30
0.0
 10
6.588041230502253
 20
-8.059135419291023
 30
0.0
 10
6.599459478301605
 20
-8.036158342260203
 30
0.0
 10
6.611012804941994
 20
-8.013260237476505
 30
0.0
 10
6.622700171406475
 20
-7.990442143961047
 30
0.0
 10
6.634387537870956
 20
-7.967624050445591
 30
0.0
 10
6.64620894415985
 20
-7.944885968198053
 30
0.0
 10
6.658163351256532
 20
-7.922228936238911
 30
0.0
 10
6.670117758353535
 20
-7.899571904279769
 30
0.0
 10
6.682205166258004
 20
-7.876995922609022
 30
0.0
 10
6.694424535953957
 20
-7.854502030246824
 30
0.0
 10
6.70664390564991
 20
-7.832008137884626
 30
0.0
 10
6.718995237137347
 20
-7.80959633483162
 30
0.0
 10
6.73147749139932
 20
-7.787267660107639
 30
0.0
 10
6.743959745661294
 20
-7.764938985383337
 30
0.0
 10
6.756572922698126
 20
-7.742693438988701
 30
0.0
 10
6.769315983493512
 20
-7.720532059943245
 30
0.0
 10
6.782059044288898
 20
-7.698370680898109
 30
0.0
 10
6.794931988842516
 20
-7.676293469202474
 30
0.0
 10
6.807933778138064
 20
-7.654301463876815
 30
0.0
 10
6.820935567433613
 20
-7.632309458551155
 30
0.0
 10
6.834066201471089
 20
-7.610402659595471
 30
0.0
 10
6.847324641233869
 20
-7.588582106030239
 30
0.0
 10
6.860583080996649
 20
-7.566761552465006
 30
0.0
 10
6.873969326484733
 20
-7.545027244290224
 30
0.0
 10
6.887482338681816
 20
-7.523380220526048
 30
0.0
 10
6.900995350878899
 20
-7.501733196761871
 30
0.0
 10
6.914635129784982
 20
-7.480173457408621
 30
0.0
 10
6.928400636383117
 20
-7.458702041486452
 30
0.0
 10
6.942166142981252
 20
-7.437230625564283
 30
0.0
 10
6.956057377271762
 20
-7.415847533073515
 30
0.0
 10
6.970073300238663
 20
-7.394553803034304
 30
0.0
 10
6.984089223204921
 20
-7.373260072995093
 30
0.0
 10
6.99822983484757
 20
-7.352055705407438
 30
0.0
 10
7.012494096149343
 20
-7.330941739292136
 30
0.0
 10
7.026758357451116
 20
-7.309827773176834
 30
0.0
 10
7.041146268412334
 20
-7.288804208533242
 30
0.0
 10
7.05565679001637
 20
-7.267872084382157
 30
0.0
 10
7.070167311620729
 20
-7.246939960231073
 30
0.0
 10
7.084800443867906
 20
-7.226099276572495
 30
0.0
 10
7.099555147741277
 20
-7.205351072426579
 30
0.0
 10
7.114309851614649
 20
-7.184602868280662
 30
0.0
 10
7.129186127114857
 20
-7.163947143647729
 30
0.0
 10
7.144182935224634
 20
-7.143384937547931
 30
0.0
 10
7.15917974333441
 20
-7.122822731448134
 30
0.0
 10
7.174297084054398
 20
-7.102354043881475
 30
0.0
 10
7.18953391836765
 20
-7.081979913868746
 30
0.0
 10
7.204770752680902
 20
-7.061605783856019
 30
0.0
 10
7.22012708058742
 20
-7.041326211396584
 30
0.0
 10
7.235601863070897
 20
-7.021142235511556
 30
0.0
 10
7.251076645554375
 20
-7.000958259626529
 30
0.0
 10
7.266669882614813
 20
-6.980869880315269
 30
0.0
 10
7.282380535235907
 20
-6.960878136598571
 30
0.0
 10
7.298091187857001
 20
-6.940886392881873
 30
0.0
 10
7.313919256038431
 20
-6.920991284759738
 30
0.0
 10
7.329863700763892
 20
-6.901193851252
 30
0.0
 10
7.345808145489031
 20
-6.881396417744904
 30
0.0
 10
7.361868966758522
 20
-6.861696658852204
 30
0.0
 10
7.37804512555542
 20
-6.842095613595017
 30
0.0
 10
7.394221284351996
 20
-6.822494568337831
 30
0.0
 10
7.410512780676299
 20
-6.802992236715838
 30
0.0
 10
7.426918575511383
 20
-6.783589657749513
 30
0.0
 10
7.443324370346788
 20
-6.764187078783188
 30
0.0
 10
7.459844463692973
 20
-6.74488425247253
 30
0.0
 10
7.476477816533314
 20
-6.725682217838017
 30
0.0
 10
7.493111169373976
 20
-6.706480183203503
 30
0.0
 10
7.509857781709114
 20
-6.687378940244812
 30
0.0
 10
7.526716614522103
 20
-6.668379527983062
 30
0.0
 10
7.543575447335413
 20
-6.649380115720989
 30
0.0
 10
7.560546500626253
 20
-6.630482534155215
 30
0.0
 10
7.577628735378961
 20
-6.611687822306856
 30
0.0
 10
7.594710970131669
 20
-6.592893110458177
 30
0.0
 10
7.611904386345603
 20
-6.574201268326271
 30
0.0
 10
7.629207945004779
 20
-6.555613334931934
 30
0.0
 10
7.646511503663956
 20
-6.537025401537276
 30
0.0
 10
7.663925204767733
 20
-6.518541376880188
 30
0.0
 10
7.681448009300449
 20
-6.500162299980825
 30
0.0
 10
7.698970813833165
 20
-6.48178322308114
 30
0.0
 10
7.716602721794176
 20
-6.463509093939501
 30
0.0
 10
7.734342694167501
 20
-6.44534095157574
 30
0.0
 10
7.752082666540505
 20
-6.427172809211979
 30
0.0
 10
7.769930703325823
 20
-6.409110653626418
 30
0.0
 10
7.787885765506186
 20
-6.391155523839211
 30
0.0
 10
7.805840827686549
 20
-6.373200394052003
 30
0.0
 10
7.823902915262922
 20
-6.35535229006347
 30
0.0
 10
7.842070989218036
 20
-6.337612250893767
 30
0.0
 10
7.860239063173149
 20
-6.319872211724064
 30
0.0
 10
7.878513123507648
 20
-6.302240237373511
 30
0.0
 10
7.896892131204261
 20
-6.284717366861942
 30
0.0
 10
7.915271138900875
 20
-6.267194496350373
 30
0.0
 10
7.933755093960248
 20
-6.249780729678108
 30
0.0
 10
7.952342957365754
 20
-6.232477105865624
 30
0.0
 10
7.970930820770938
 20
-6.215173482053461
 30
0.0
 10
7.989622592522257
 20
-6.197980001100436
 30
0.0
 10
8.008417233603083
 20
-6.180897702027988
 30
0.0
 10
8.027211874683909
 20
-6.163815402955539
 30
0.0
 10
8.046109385094244
 20
-6.146844285763025
 30
0.0
 10
8.065108725817781
 20
-6.129985389470921
 30
0.0
 10
8.084108066541319
 20
-6.113126493178816
 30
0.0
 10
8.10320923757774
 20
-6.096379817787444
 30
0.0
 10
8.12241119991074
 20
-6.079746402316956
 30
0.0
 10
8.14161316224406
 20
-6.063112986846468
 30
0.0
 10
8.160915915873638
 20
-6.046592831296866
 30
0.0
 10
8.18031842178317
 20
-6.030186974688624
 30
0.0
 10
8.199720927693022
 20
-6.013781118080382
 30
0.0
 10
8.219223185882827
 20
-5.997489560413821
 30
0.0
 10
8.238824157336282
 20
-5.981313340708455
 30
0.0
 10
8.258425128789735
 20
-5.96513712100341
 30
0.0
 10
8.278124813506519
 20
-5.949076239260202
 30
0.0
 10
8.297922172470647
 20
-5.933131734498662
 30
0.0
 10
8.317719531434774
 20
-5.917187229737443
 30
0.0
 10
8.337614564645605
 20
-5.901359101958215
 30
0.0
 10
8.357606233087475
 20
-5.885648390181775
 30
0.0
 10
8.377597901529347
 20
-5.869937678405334
 30
0.0
 10
8.397686205201616
 20
-5.854344382631359
 30
0.0
 10
8.417870105087982
 20
-5.838869541880325
 30
0.0
 10
8.438054004974346
 20
-5.823394701129291
 30
0.0
 10
8.458333501074804
 20
-5.808038315401198
 30
0.0
 10
8.478707554373052
 20
-5.792801423716523
 30
0.0
 10
8.4990816076713
 20
-5.777564532031847
 30
0.0
 10
8.519550218166698
 20
-5.762447134390267
 30
0.0
 10
8.54011234684358
 20
-5.7474502698129
 30
0.0
 10
8.560674475520464
 20
-5.732453405235212
 30
0.0
 10
8.58133012237819
 20
-5.717577073721416
 30
0.0
 10
8.602078248400778
 20
-5.702822314291667
 30
0.0
 10
8.622826374423365
 20
-5.688067554862238
 30
0.0
 10
8.643666979610494
 20
-5.673434367516536
 30
0.0
 10
8.664599024945856
 20
-5.658923791275675
 30
0.0
 10
8.685531070281218
 20
-5.644413215034815
 30
0.0
 10
8.706554555764816
 20
-5.630025249898477
 30
0.0
 10
8.727668442379704
 20
-5.615760934887136
 30
0.0
 10
8.748782328994592
 20
-5.601496619875475
 30
0.0
 10
8.769986616741411
 20
-5.587355954989131
 30
0.0
 10
8.791280266603215
 20
-5.57333997924826
 30
0.0
 10
8.812573916465018
 20
-5.559324003507389
 30
0.0
 10
8.833956928441808
 20
-5.54543271691167
 30
0.0
 10
8.855428263517918
 20
-5.531667158481898
 30
0.0
 10
8.876899598593388
 20
-5.517901600052127
 30
0.0
 10
8.898459256767218
 20
-5.504261769788304
 30
0.0
 10
8.920106199023424
 20
-5.490748706710263
 30
0.0
 10
8.941753141280271
 20
-5.477235643632542
 30
0.0
 10
8.963487367618853
 20
-5.463849347740924
 30
0.0
 10
8.985307839023188
 20
-5.450590858055883
 30
0.0
 10
9.007128310427522
 20
-5.437332368370843
 30
0.0
 10
9.029035026897606
 20
-5.42420168489238
 30
0.0
 10
9.051026949416176
 20
-5.411199846640971
 30
0.0
 10
9.073018871935387
 20
-5.398198008389562
 30
0.0
 10
9.095096000503725
 20
-5.385325015365206
 30
0.0
 10
9.117257296104563
 20
-5.372581906588379
 30
0.0
 10
9.139418591706043
 20
-5.359838797811552
 30
0.0
 10
9.161664054339381
 20
-5.347225573281932
 30
0.0
 10
9.183992644989239
 20
-5.334743272019995
 30
0.0
 10
9.206321235638454
 20
-5.322260970758059
 30
0.0
 10
9.228732954304828
 20
-5.309909592764448
 30
0.0
 10
9.251226761970452
 20
-5.297690177058673
 30
0.0
 10
9.273720569636078
 20
-5.285470761352899
 30
0.0
 10
9.296296466301595
 20
-5.273383307935604
 30
0.0
 10
9.318953412949737
 20
-5.261428855826622
 30
0.0
 10
9.341610359598521
 20
-5.249474403717961
 30
0.0
 10
9.364348356230572
 20
-5.237652952917614
 30
0.0
 10
9.387166363828625
 20
-5.225965542446375
 30
0.0
 10
9.409984371427317
 20
-5.214278131975136
 30
0.0
 10
9.432882389992653
 20
-5.202724761833006
 30
0.0
 10
9.455859380508006
 20
-5.191306471040141
 30
0.0
 10
9.478836371023998
 20
-5.179888180247596
 30
0.0
 10
9.501892333489367
 20
-5.168604968804315
 30
0.0
 10
9.52502622888877
 20
-5.157457875730772
 30
0.0
 10
9.548160124288172
 20
-5.14631078265723
 30
0.0
 10
9.571371952620966
 20
-5.135299807953748
 30
0.0
 10
9.594660674871168
 20
-5.12442599064048
 30
0.0
 10
9.617949397122013
 20
-5.113552173326892
 30
0.0
 10
9.641315013288981
 20
-5.102815513403838
 30
0.0
 10
9.664756484357374
 20
-5.092217049891475
 30
0.0
 10
9.688197955425768
 20
-5.081618586378791
 30
0.0
 10
9.711715281394303
 20
-5.071158319277116
 30
0.0
 10
9.735307423247637
 20
-5.060837287606287
 30
0.0
 10
9.75889956510097
 20
-5.050516255935778
 30
0.0
 10
9.782566522838463
 20
-5.040334459696115
 30
0.0
 10
9.806307257443487
 20
-5.03029293790777
 30
0.0
 10
9.830047992049154
 20
-5.020251416119425
 30
0.0
 10
9.853862503522352
 20
-5.010350168783043
 30
0.0
 10
9.877749752845817
 20
-5.000590234918133
 30
0.0
 10
9.901637002170565
 20
-4.990830301053224
 30
0.0
 10
9.92559698934558
 20
-4.981211680660111
 30
0.0
 10
9.94962867535616
 20
-4.971735412759267
 30
0.0
 10
9.97366036136674
 20
-4.962259144858423
 30
0.0
 10
9.997763746211602
 20
-4.95292522944985
 30
0.0
 10
10.02193779087476
 20
-4.943734705554022
 30
0.0
 10
10.04611183553792
 20
-4.934544181658195
 30
0.0
 10
10.07035654001938
 20
-4.925497049275434
 30
0.0
 10
10.09467086530316
 20
-4.916594347425253
 30
0.0
 10
10.11898519058693
 20
-4.907691645575071
 30
0.0
 10
10.14336913667174
 20
-4.898933374258111
 30
0.0
 10
10.16782166454224
 20
-4.890320572494527
 30
0.0
 10
10.19227419241273
 20
-4.881707770731263
 30
0.0
 10
10.21679530206828
 20
-4.873240438521375
 30
0.0
 10
10.24138395449289
 20
-4.864919614885017
 30
0.0
 10
10.2659726069175
 20
-4.856598791248659
 30
0.0
 10
10.29062880211118
 20
-4.848424476186473
 30
0.0
 10
10.31535150105665
 20
-4.840397708718614
 30
0.0
 10
10.34007420000213
 20
-4.832370941250754
 30
0.0
 10
10.36486340270004
 20
-4.82449172137722
 30
0.0
 10
10.38971807013377
 20
-4.816761088118168
 30
0.0
 10
10.4145727375675
 20
-4.809030454859116
 30
0.0
 10
10.43949286973704
 20
-4.801448408214865
 30
0.0
 10
10.46447742762578
 20
-4.794015987205891
 30
0.0
 10
10.48946198551451
 20
-4.786583566196918
 30
0.0
 10
10.51451096912307
 20
-4.779300770822579
 30
0.0
 10
10.5396233394342
 20
-4.772168640104315
 30
0.0
 10
10.56473570974469
 20
-4.765036509385729
 30
0.0
 10
10.58991146675902
 20
-4.758055043322575
 30
0.0
 10
10.61514957145865
 20
-4.751225280935649
 30
0.0
 10
10.64038767615893
 20
-4.744395518548722
 30
0.0
 10
10.66568812854514
 20
-4.737717459837382
 30
0.0
 10
10.69104988960131
 20
-4.731192143822424
 30
0.0
 10
10.71641165065812
 20
-4.724666827807787
 30
0.0
 10
10.74183472038425
 20
-4.718294254489211
 30
0.0
 10
10.7673180597637
 20
-4.712075462887494
 30
0.0
 10
10.79280139914315
 20
-4.705856671285455
 30
0.0
 10
10.81834500817594
 20
-4.699791661400274
 30
0.0
 10
10.84394784784607
 20
-4.693881472252427
 30
0.0
 10
10.86955068751556
 20
-4.687971283104578
 30
0.0
 10
10.8952127578224
 20
-4.682215914693742
 30
0.0
 10
10.92093301974868
 20
-4.676616406040716
 30
0.0
 10
10.94665328167624
 20
-4.671016897387367
 30
0.0
 10
10.97243173522324
 20
-4.665573248491827
 30
0.0
 10
10.99826734137434
 20
-4.66028649837393
 30
0.0
 10
11.02410294752543
 20
-4.654999748256032
 30
0.0
 10
11.04999570628062
 20
-4.649869896916418
 30
0.0
 10
11.07594457862329
 20
-4.644897983374922
 30
0.0
 10
11.10189345096531
 20
-4.639926069833426
 30
0.0
 10
11.12789843689544
 20
-4.635112094090368
 30
0.0
 10
11.15395849739578
 20
-4.630457095165903
 30
0.0
 10
11.18001855789612
 20
-4.625802096241437
 30
0.0
 10
11.20613369296795
 20
-4.621306074135565
 30
0.0
 10
11.232302863594
 20
-4.616970067869081
 30
0.0
 10
11.25847203421941
 20
-4.612634061602598
 30
0.0
 10
11.28469524040032
 20
-4.608458071175183
 30
0.0
 10
11.31097144311819
 20
-4.604443135607632
 30
0.0
 10
11.33724764583605
 20
-4.60042820004008
 30
0.0
 10
11.36357684509216
 20
-4.596574319331753
 30
0.0
 10
11.38995800186988
 20
-4.592882532503443
 30
0.0
 10
11.41633915864759
 20
-4.589190745675134
 30
0.0
 10
11.44277227294628
 20
-4.585661052726844
 30
0.0
 10
11.46925630574996
 20
-4.582294492679048
 30
0.0
 10
11.49574033855363
 20
-4.578927932631252
 30
0.0
 10
11.5222752898623
 20
-4.575724505483308
 30
0.0
 10
11.54886012065996
 20
-4.572685250256655
 30
0.0
 10
11.57544495145635
 20
-4.569645995030002
 30
0.0
 10
11.60207966174238
 20
-4.566770911723998
 30
0.0
 10
11.6287632124995
 20
-4.564061039359117
 30
0.0
 10
11.65544676325727
 20
-4.561351166994237
 30
0.0
 10
11.68217915448677
 20
-4.558806505570802
 30
0.0
 10
11.70895934717203
 20
-4.556428094108646
 30
0.0
 10
11.73573953985664
 20
-4.55404968264681
 30
0.0
 10
11.76256753399637
 20
-4.551837521146253
 30
0.0
 10
11.78944229057587
 20
-4.549792648627771
 30
0.0
 10
11.81631704715537
 20
-4.547747776109289
 30
0.0
 10
11.84323856617335
 20
-4.545870192572882
 30
0.0
 10
11.87020580861384
 20
-4.544160937038703
 30
0.0
 10
11.89717305105433
 20
-4.542451681504525
 30
0.0
 10
11.92418601691732
 20
-4.540910753972899
 30
0.0
 10
11.95124366718619
 20
-4.539539193463975
 30
0.0
 10
11.9783013174557
 20
-4.538167632955052
 30
0.0
 10
12.00540365213045
 20
-4.536965439468834
 30
0.0
 10
12.03254963219445
 20
-4.535933652026117
 30
0.0
 10
12.05969561225909
 20
-4.5349018645834
 30
0.0
 10
12.08688523771298
 20
-4.534040483183863
 30
0.0
 10
12.1141174695395
 20
-4.53335054684766
 30
0.0
 10
12.14134970136667
 20
-4.532660610511458
 30
0.0
 10
12.16862453956646
 20
-4.532142119239231
 30
0.0
 10
12.1959409451229
 20
-4.531796112050816
 30
0.0
 10
12.22325735067933
 20
-4.531450104862399
 30
0.0
 10
12.25061532359241
 20
-4.531276581757793
 30
0.0
 10
12.27801382484487
 20
-4.531276581757793
 30
0.0
 10
12.30541232609733
 20
-4.531276581757793
 30
0.0
 10
12.33277029901041
 20
-4.531450104862399
 30
0.0
 10
12.36008670456685
 20
-4.531796112050816
 30
0.0
 10
12.38740311012329
 20
-4.532142119239231
 30
0.0
 10
12.41467794832308
 20
-4.532660610511458
 30
0.0
 10
12.4419101801496
 20
-4.53335054684766
 30
0.0
 10
12.46914241197612
 20
-4.534040483183863
 30
0.0
 10
12.49633203743066
 20
-4.5349018645834
 30
0.0
 10
12.5234780174953
 20
-4.535933652026117
 30
0.0
 10
12.55062399755994
 20
-4.536965439468834
 30
0.0
 10
12.57772633223469
 20
-4.538167632955052
 30
0.0
 10
12.60478398250356
 20
-4.539539193463975
 30
0.0
 10
12.63184163277243
 20
-4.540910753972899
 30
0.0
 10
12.65885459863542
 20
-4.542451681504525
 30
0.0
 10
12.68582184107591
 20
-4.544160937038703
 30
0.0
 10
12.71278908351639
 20
-4.545870192572882
 30
0.0
 10
12.73971060253438
 20
-4.547747776109289
 30
0.0
 10
12.76658535911388
 20
-4.549792648627771
 30
0.0
 10
12.79346011569337
 20
-4.551837521146253
 30
0.0
 10
12.8202881098331
 20
-4.55404968264681
 30
0.0
 10
12.84706830251836
 20
-4.556428094108646
 30
0.0
 10
12.87384849520362
 20
-4.558806505570802
 30
0.0
 10
12.90058088643312
 20
-4.561351166994237
 30
0.0
 10
12.92726443719024
 20
-4.564061039359117
 30
0.0
 10
12.95394798794737
 20
-4.566770911723998
 30
0.0
 10
12.9805826982334
 20
-4.569645995030002
 30
0.0
 10
13.00716752903042
 20
-4.572685250256655
 30
0.0
 10
13.03375235982745
 20
-4.575724505483308
 30
0.0
 10
13.06028731113675
 20
-4.578927932631252
 30
0.0
 10
13.08677134394043
 20
-4.582294492679048
 30
0.0
 10
13.1132553767441
 20
-4.585661052726844
 30
0.0
 10
13.13968849104279
 20
-4.589190745675134
 30
0.0
 10
13.16606964782051
 20
-4.592882532503443
 30
0.0
 10
13.19245080459759
 20
-4.596574319331753
 30
0.0
 10
13.21878000385369
 20
-4.60042820004008
 30
0.0
 10
13.2450562065722
 20
-4.604443135607632
 30
0.0
 10
13.27133240929071
 20
-4.608458071175183
 30
0.0
 10
13.29755561547034
 20
-4.612634061602598
 30
0.0
 10
13.32372478609639
 20
-4.616970067869081
 30
0.0
 10
13.34989395672244
 20
-4.621306074135565
 30
0.0
 10
13.37600909179362
 20
-4.625802096241437
 30
0.0
 10
13.4020691522946
 20
-4.630457095165903
 30
0.0
 10
13.42812921279559
 20
-4.635112094090368
 30
0.0
 10
13.45413419872508
 20
-4.639926069833426
 30
0.0
 10
13.4800830710671
 20
-4.644897983374922
 30
0.0
 10
13.50603194340912
 20
-4.649869896916418
 30
0.0
 10
13.53192470216432
 20
-4.654999748256032
 30
0.0
 10
13.55776030831541
 20
-4.66028649837393
 30
0.0
 10
13.58359591446651
 20
-4.665573248491827
 30
0.0
 10
13.60937436801351
 20
-4.671016897387367
 30
0.0
 10
13.63509462994107
 20
-4.676616406040716
 30
0.0
 10
13.66081489186734
 20
-4.682215914693742
 30
0.0
 10
13.68647696217418
 20
-4.687971283104578
 30
0.0
 10
13.71207980184367
 20
-4.693881472252427
 30
0.0
 10
13.73768264151381
 20
-4.699791661400274
 30
0.0
 10
13.76322625054659
 20
-4.705856671285455
 30
0.0
 10
13.78870958992605
 20
-4.712075462887494
 30
0.0
 10
13.8141929293055
 20
-4.718294254489211
 30
0.0
 10
13.83961599903163
 20
-4.724666827807787
 30
0.0
 10
13.8649777600878
 20
-4.731192143822424
 30
0.0
 10
13.89033952114396
 20
-4.737717459837382
 30
0.0
 10
13.91563997353082
 20
-4.744395518548722
 30
0.0
 10
13.94087807823109
 20
-4.751225280935649
 30
0.0
 10
13.96611618293072
 20
-4.758055043322575
 30
0.0
 10
13.99129193994506
 20
-4.765036509385729
 30
0.0
 10
14.01640431025555
 20
-4.772168640104315
 30
0.0
 10
14.04151668056667
 20
-4.779300770822579
 30
0.0
 10
14.06656566417524
 20
-4.786583566196918
 30
0.0
 10
14.09155022206397
 20
-4.794015987205891
 30
0.0
 10
14.1165347799527
 20
-4.801448408214865
 30
0.0
 10
14.14145491212225
 20
-4.809030454859116
 30
0.0
 10
14.16630957955598
 20
-4.816761088118168
 30
0.0
 10
14.19116424698971
 20
-4.82449172137722
 30
0.0
 10
14.21595344968762
 20
-4.832370941250754
 30
0.0
 10
14.24067614863309
 20
-4.840397708718614
 30
0.0
 10
14.26539884757857
 20
-4.848424476186473
 30
0.0
 10
14.29005504277224
 20
-4.856598791248659
 30
0.0
 10
14.31464369519685
 20
-4.864919614885017
 30
0.0
 10
14.33923234762082
 20
-4.873240438521375
 30
0.0
 10
14.36375345727701
 20
-4.881707770731263
 30
0.0
 10
14.38820598514687
 20
-4.890320572494527
 30
0.0
 10
14.41265851301736
 20
-4.898933374258111
 30
0.0
 10
14.43704245910281
 20
-4.907691645575071
 30
0.0
 10
14.46135678438595
 20
-4.916594347425253
 30
0.0
 10
14.48567110966908
 20
-4.925497049275434
 30
0.0
 10
14.50991581415118
 20
-4.934544181658195
 30
0.0
 10
14.53408985881434
 20
-4.943734705554022
 30
0.0
 10
14.5582639034775
 20
-4.95292522944985
 30
0.0
 10
14.58236728832301
 20
-4.962259144858423
 30
0.0
 10
14.60639897433295
 20
-4.971735412759267
 30
0.0
 10
14.63043066034288
 20
-4.981211680660111
 30
0.0
 10
14.65439064751854
 20
-4.990830301053224
 30
0.0
 10
14.67827789684265
 20
-5.000590234918133
 30
0.0
 10
14.70216514616739
 20
-5.010350168783043
 30
0.0
 10
14.72597965764059
 20
-5.020251416119425
 30
0.0
 10
14.74972039224562
 20
-5.03029293790777
 30
0.0
 10
14.77346112685064
 20
-5.040334459696115
 30
0.0
 10
14.79712808458878
 20
-5.050516255935778
 30
0.0
 10
14.82072022644147
 20
-5.060837287606287
 30
0.0
 10
14.8443123682948
 20
-5.071158319277116
 30
0.0
 10
14.86782969426398
 20
-5.081618586378791
 30
0.0
 10
14.89127116533173
 20
-5.092217049891475
 30
0.0
 10
14.91471263640012
 20
-5.102815513403838
 30
0.0
 10
14.93807825256773
 20
-5.113552173326892
 30
0.0
 10
14.96136697481793
 20
-5.12442599064048
 30
0.0
 10
14.98465569706814
 20
-5.135299807953748
 30
0.0
 10
15.00786752540157
 20
-5.14631078265723
 30
0.0
 10
15.03100142080098
 20
-5.157457875730772
 30
0.0
 10
15.05413531620038
 20
-5.168604968804315
 30
0.0
 10
15.07719127866575
 20
-5.179888180247596
 30
0.0
 10
15.1001682691811
 20
-5.191306471040141
 30
0.0
 10
15.12314525969645
 20
-5.202724761833006
 30
0.0
 10
15.14604327826179
 20
-5.214278131975136
 30
0.0
 10
15.16886128585984
 20
-5.225965542446375
 30
0.0
 10
15.19167929345853
 20
-5.237652952917614
 30
0.0
 10
15.21441729008994
 20
-5.249474403717961
 30
0.0
 10
15.23707423673873
 20
-5.261428855826622
 30
0.0
 10
15.25973118338751
 20
-5.273383307935604
 30
0.0
 10
15.28230708005303
 20
-5.285470761352899
 30
0.0
 10
15.30480088771865
 20
-5.297690177058673
 30
0.0
 10
15.32729469538428
 20
-5.309909592764448
 30
0.0
 10
15.34970641405065
 20
-5.322260970758059
 30
0.0
 10
15.37203500470051
 20
-5.334743272019995
 30
0.0
 10
15.39436359535036
 20
-5.347225573281932
 30
0.0
 10
15.4166090579837
 20
-5.359838797811552
 30
0.0
 10
15.43877035358454
 20
-5.372581906588379
 30
0.0
 10
15.46093164918538
 20
-5.385325015365206
 30
0.0
 10
15.48300877775436
 20
-5.398198008389562
 30
0.0
 10
15.50500070027293
 20
-5.411199846640971
 30
0.0
 10
15.52699262279214
 20
-5.42420168489238
 30
0.0
 10
15.54889933926222
 20
-5.437332368370843
 30
0.0
 10
15.57071981066656
 20
-5.450590858055883
 30
0.0
 10
15.59254028207089
 20
-5.463849347740924
 30
0.0
 10
15.61427450840883
 20
-5.477235643632542
 30
0.0
 10
15.63592145066568
 20
-5.490748706710263
 30
0.0
 10
15.65756839292189
 20
-5.504261769788304
 30
0.0
 10
15.67912805109636
 20
-5.517901600052127
 30
0.0
 10
15.70059938617183
 20
-5.531667158481898
 30
0.0
 10
15.72207072124794
 20
-5.54543271691167
 30
0.0
 10
15.74345373322441
 20
-5.559324003507389
 30
0.0
 10
15.76474738308653
 20
-5.57333997924826
 30
0.0
 10
15.78604103294801
 20
-5.587355954989131
 30
0.0
 10
15.80724532069515
 20
-5.601496619875475
 30
0.0
 10
15.82835920731004
 20
-5.615760934887136
 30
0.0
 10
15.84947309392493
 20
-5.630025249898477
 30
0.0
 10
15.87049657940885
 20
-5.644413215034815
 30
0.0
 10
15.89142862474389
 20
-5.658923791275675
 30
0.0
 10
15.91236067007957
 20
-5.673434367516536
 30
0.0
 10
15.93320127526638
 20
-5.688067554862238
 30
0.0
 10
15.95394940128897
 20
-5.702822314291667
 30
0.0
 10
15.97469752731156
 20
-5.717577073721416
 30
0.0
 10
15.99535317416992
 20
-5.732453405235212
 30
0.0
 10
16.01591530284681
 20
-5.7474502698129
 30
0.0
 10
16.03647743152369
 20
-5.762447134390267
 30
0.0
 10
16.05694604201909
 20
-5.777564532031847
 30
0.0
 10
16.07732009531701
 20
-5.792801423716523
 30
0.0
 10
16.09769414861494
 20
-5.808038315401198
 30
0.0
 10
16.1179736447154
 20
-5.823394701129291
 30
0.0
 10
16.13815754460176
 20
-5.838869541880325
 30
0.0
 10
16.15834144448813
 20
-5.854344382631359
 30
0.0
 10
16.1784297481604
 20
-5.869937678405334
 30
0.0
 10
16.19842141660195
 20
-5.885648390181775
 30
0.0
 10
16.2184130850435
 20
-5.901359101958215
 30
0.0
 10
16.23830811825497
 20
-5.917187229737443
 30
0.0
 10
16.2581054772191
 20
-5.933131734498662
 30
0.0
 10
16.27790283618323
 20
-5.949076239260202
 30
0.0
 10
16.29760252090001
 20
-5.96513712100341
 30
0.0
 10
16.31720349235346
 20
-5.981313340708455
 30
0.0
 10
16.33680446380692
 20
-5.997489560413821
 30
0.0
 10
16.3563067219964
 20
-6.013781118080382
 30
0.0
 10
16.37570922790658
 20
-6.030186974688624
 30
0.0
 10
16.39511173381611
 20
-6.046592831296866
 30
0.0
 10
16.41441448744569
 20
-6.063112986846468
 30
0.0
 10
16.43361644977869
 20
-6.079746402316956
 30
0.0
 10
16.45281841211233
 20
-6.096379817787444
 30
0.0
 10
16.47191958314875
 20
-6.113126493178816
 30
0.0
 10
16.49091892387197
 20
-6.129985389470921
 30
0.0
 10
16.50991826459518
 20
-6.146844285763025
 30
0.0
 10
16.52881577500584
 20
-6.163815402955539
 30
0.0
 10
16.54761041608666
 20
-6.180897702027988
 30
0.0
 10
16.56640505716749
 20
-6.197980001100436
 30
0.0
 10
16.58509682891849
 20
-6.215173482053461
 30
0.0
 10
16.60368469232431
 20
-6.232477105865624
 30
0.0
 10
16.6222725557295
 20
-6.249780729678108
 30
0.0
 10
16.64075651078887
 20
-6.267194496350373
 30
0.0
 10
16.65913551848517
 20
-6.284717366861942
 30
0.0
 10
16.67751452618146
 20
-6.302240237373511
 30
0.0
 10
16.69578858651596
 20
-6.319872211724064
 30
0.0
 10
16.71395666047139
 20
-6.337612250893767
 30
0.0
 10
16.73212473442618
 20
-6.35535229006347
 30
0.0
 10
16.75018682200255
 20
-6.373200394052003
 30
0.0
 10
16.76814188418324
 20
-6.391155523839211
 30
0.0
 10
16.78609694636392
 20
-6.409110653626418
 30
0.0
 10
16.80394498314892
 20
-6.427172809211979
 30
0.0
 10
16.82168495552224
 20
-6.44534095157574
 30
0.0
 10
16.83942492789557
 20
-6.463509093939501
 30
0.0
 10
16.85705683585658
 20
-6.48178322308114
 30
0.0
 10
16.87457964038866
 20
-6.500162299980825
 30
0.0
 10
16.89210244492137
 20
-6.518541376880188
 30
0.0
 10
16.90951614602515
 20
-6.537025401537276
 30
0.0
 10
16.92681970468465
 20
-6.555613334931934
 30
0.0
 10
16.9441232633435
 20
-6.574201268326271
 30
0.0
 10
16.96131667955743
 20
-6.592893110458177
 30
0.0
 10
16.97839891430982
 20
-6.611687822306856
 30
0.0
 10
16.99548114906221
 20
-6.630482534155215
 30
0.0
 10
17.01245220235369
 20
-6.649380115720989
 30
0.0
 10
17.029311035167
 20
-6.668379527983062
 30
0.0
 10
17.04616986798031
 20
-6.687378940244812
 30
0.0
 10
17.06291648031545
 20
-6.706480183203503
 30
0.0
 10
17.07954983315579
 20
-6.725682217838017
 30
0.0
 10
17.09618318599613
 20
-6.74488425247253
 30
0.0
 10
17.11270327934296
 20
-6.764187078783188
 30
0.0
 10
17.12910907417772
 20
-6.783589657749513
 30
0.0
 10
17.14551486901313
 20
-6.802992236715838
 30
0.0
 10
17.16180636533775
 20
-6.822494568337831
 30
0.0
 10
17.17798252413433
 20
-6.842095613595017
 30
0.0
 10
17.1941586829309
 20
-6.861696658852204
 30
0.0
 10
17.21021950420007
 20
-6.881396417744904
 30
0.0
 10
17.22616394892585
 20
-6.901193851252
 30
0.0
 10
17.24210839365099
 20
-6.920991284759738
 30
0.0
 10
17.25793646183275
 20
-6.940886392881873
 30
0.0
 10
17.2736471144532
 20
-6.960878136598571
 30
0.0
 10
17.28935776707429
 20
-6.980869880315269
 30
0.0
 10
17.30495100413473
 20
-7.000958259626529
 30
0.0
 10
17.32042578661789
 20
-7.021142235511556
 30
0.0
 10
17.33590056910169
 20
-7.041326211396584
 30
0.0
 10
17.3512568970082
 20
-7.061605783856019
 30
0.0
 10
17.36649373132146
 20
-7.081979913868746
 30
0.0
 10
17.38173056563471
 20
-7.102354043881475
 30
0.0
 10
17.39684790635469
 20
-7.122822731448134
 30
0.0
 10
17.41184471446415
 20
-7.143384937547931
 30
0.0
 10
17.42684152257425
 20
-7.163947143647729
 30
0.0
 10
17.44171779807446
 20
-7.184602868280662
 30
0.0
 10
17.45647250194751
 20
-7.205351072426579
 30
0.0
 10
17.4712272058212
 20
-7.226099276572495
 30
0.0
 10
17.48586033806838
 20
-7.246939960231073
 30
0.0
 10
17.50037085967241
 20
-7.267872084382157
 30
0.0
 10
17.51488138127709
 20
-7.288804208533242
 30
0.0
 10
17.52926929223799
 20
-7.309827773176834
 30
0.0
 10
17.54353355353976
 20
-7.330941739292136
 30
0.0
 10
17.55779781484154
 20
-7.352055705407438
 30
0.0
 10
17.57193842648418
 20
-7.373260072995093
 30
0.0
 10
17.58595434945044
 20
-7.394553803034304
 30
0.0
 10
17.59997027241734
 20
-7.415847533073515
 30
0.0
 10
17.61386150670785
 20
-7.437230625564283
 30
0.0
 10
17.62762701330663
 20
-7.458702041486452
 30
0.0
 10
17.64139251990477
 20
-7.480173457408621
 30
0.0
 10
17.65503229881053
 20
-7.501733196761871
 30
0.0
 10
17.66854531100793
 20
-7.523380220526048
 30
0.0
 10
17.68205832320469
 20
-7.545027244290224
 30
0.0
 10
17.6954445686931
 20
-7.566761552465006
 30
0.0
 10
17.70870300845588
 20
-7.588582106030239
 30
0.0
 10
17.72196144821801
 20
-7.610402659595471
 30
0.0
 10
17.73509208225581
 20
-7.632309458551155
 30
0.0
 10
17.74809387155136
 20
-7.654301463876815
 30
0.0
 10
17.76109566084627
 20
-7.676293469202474
 30
0.0
 10
17.77396860540021
 20
-7.698370680898109
 30
0.0
 10
17.78671166619527
 20
-7.720532059943245
 30
0.0
 10
17.79945472699034
 20
-7.742693438988701
 30
0.0
 10
17.81206790402781
 20
-7.764938985383337
 30
0.0
 10
17.82455015828979
 20
-7.787267660107639
 30
0.0
 10
17.83703241255176
 20
-7.80959633483162
 30
0.0
 10
17.84938374403951
 20
-7.832008137884626
 30
0.0
 10
17.86160311373515
 20
-7.854502030246824
 30
0.0
 10
17.87382248343078
 20
-7.876995922609022
 30
0.0
 10
17.88590989133557
 20
-7.899571904279769
 30
0.0
 10
17.89786429843225
 20
-7.922228936238911
 30
0.0
 10
17.90981870552893
 20
-7.944885968198053
 30
0.0
 10
17.92164011181815
 20
-7.967624050445591
 30
0.0
 10
17.93332747828263
 20
-7.990442143961047
 30
0.0
 10
17.94501484474711
 20
-8.013260237476505
 30
0.0
 10
17.9565681713875
 20
-8.036158342260203
 30
0.0
 10
17.96798641918653
 20
-8.059135419291023
 30
0.0
 10
17.9794046669862
 20
-8.082112496322164
 30
0.0
 10
17.99068783594516
 20
-8.105168545600751
 30
0.0
 10
18.00183488704613
 20
-8.128302528106627
 30
0.0
 10
18.0129819381471
 20
-8.151436510612502
 30
0.0
 10
18.02399287139137
 20
-8.174648426345668
 30
0.0
 10
18.03486664776167
 20
-8.197937236285327
 30
0.0
 10
18.04574042413197
 20
-8.221226046224986
 30
0.0
 10
18.05647704362831
 20
-8.24459175037146
 30
0.0
 10
18.06707546723405
 20
-8.268033309704274
 30
0.0
 10
18.07767389083979
 20
-8.291474869037087
 30
0.0
 10
18.08813411855622
 20
-8.314992283556238
 30
0.0
 10
18.0984551113648
 20
-8.338584514241253
 30
0.0
 10
18.10877610417401
 20
-8.362176744926268
 30
0.0
 10
18.11895786207601
 20
-8.38584379177747
 30
0.0
 10
18.1289993460548
 20
-8.409584615774058
 30
0.0
 10
18.1390408300336
 20
-8.433325439770647
 30
0.0
 10
18.14894204008919
 20
-8.457140040912623
 30
0.0
 10
18.15870193720496
 20
-8.481027380180155
 30
0.0
 10
18.16846183432073
 20
-8.504914719447365
 30
0.0
 10
18.17808041849731
 20
-8.52887479683981
 30
0.0
 10
18.1875566507168
 20
-8.552906573337012
 30
0.0
 10
18.19703288293629
 20
-8.576938349834215
 30
0.0
 10
18.20636676319997
 20
-8.601041825436177
 30
0.0
 10
18.21555725249057
 20
-8.625215961122422
 30
0.0
 10
18.22474774178182
 20
-8.649390096808666
 30
0.0
 10
18.23379484009934
 20
-8.673634892579193
 30
0.0
 10
18.24269750842781
 20
-8.69794930941385
 30
0.0
 10
18.25160017675691
 20
-8.722263726248507
 30
0.0
 10
18.26035841509568
 20
-8.746647764146969
 30
0.0
 10
18.2689711844294
 20
-8.771100384088767
 30
0.0
 10
18.27758395376312
 20
-8.795553004030884
 30
0.0
 10
18.28605125409115
 20
-8.820074206016333
 30
0.0
 10
18.29437204639687
 20
-8.84466295102496
 30
0.0
 10
18.30269283870259
 20
-8.869251696033588
 30
0.0
 10
18.31086712298601
 20
-8.893907984065393
 30
0.0
 10
18.31889386023049
 20
-8.918630776099901
 30
0.0
 10
18.3269205974756
 20
-8.943353568134087
 30
0.0
 10
18.33479978768114
 20
-8.968142864171298
 30
0.0
 10
18.3425303918324
 20
-8.992997625190736
 30
0.0
 10
18.35026099598367
 20
-9.017852386210173
 30
0.0
 10
18.35784301407873
 20
-9.042772612211838
 30
0.0
 10
18.36527540710289
 20
-9.067757264175576
 30
0.0
 10
18.3727078001264
 20
-9.092741916139312
 30
0.0
 10
18.37999056807838
 20
-9.117790994064801
 30
0.0
 10
18.38712267194218
 20
-9.142903458931888
 30
0.0
 10
18.39425477580598
 20
-9.168015923798974
 30
0.0
 10
18.40123621558161
 20
-9.193191775607337
 30
0.0
 10
18.40806595225245
 20
-9.218429975336822
 30
0.0
 10
18.41489568892393
 20
-9.243668175066306
 30
0.0
 10
18.42157372248997
 20
-9.268968722716913
 30
0.0
 10
18.42809901393523
 20
-9.294330579268488
 30
0.0
 10
18.4346243053805
 20
-9.31969243582006
 30
0.0
 10
18.44099685470434
 20
-9.34511560127196
 30
0.0
 10
18.44721562289014
 20
-9.370599036604352
 30
0.0
 10
18.45343439107658
 20
-9.396082471936744
 30
0.0
 10
18.45949937812498
 20
-9.421626177149307
 30
0.0
 10
18.46540954501934
 20
-9.447229113221887
 30
0.0
 10
18.47131971191371
 20
-9.472832049294144
 30
0.0
 10
18.47707505865405
 20
-9.49849421622674
 30
0.0
 10
18.48267454622309
 20
-9.524214574998558
 30
0.0
 10
18.48827403379213
 20
-9.549934933770375
 30
0.0
 10
18.49371766219117
 20
-9.575713484381732
 30
0.0
 10
18.49900439240292
 20
-9.601549187812155
 30
0.0
 10
18.50429112261467
 20
-9.62738489124258
 30
0.0
 10
18.50942095463914
 20
-9.65327774749207
 30
0.0
 10
18.51439284945971
 20
-9.67922671754015
 30
0.0
 10
18.51936474428028
 20
-9.70517568758823
 30
0.0
 10
18.52417870189759
 20
-9.731180771435222
 30
0.0
 10
18.52883368329436
 20
-9.757240930060009
 30
0.0
 10
18.53348866469114
 20
-9.783301088684794
 30
0.0
 10
18.53798466986803
 20
-9.809416322088337
 30
0.0
 10
18.54232065980776
 20
-9.83558559124952
 30
0.0
 10
18.54665664974814
 20
-9.861754860410382
 30
0.0
 10
18.550832624452
 20
-9.887978165329526
 30
0.0
 10
18.55484754490209
 20
-9.914254466985835
 30
0.0
 10
18.55886246535217
 20
-9.940530768642143
 30
0.0
 10
18.56271633154912
 20
-9.966860067036258
 30
0.0
 10
18.56640810447694
 20
-9.99324132314706
 30
0.0
 10
18.57009987740413
 20
-10.01962257925818
 30
0.0
 10
18.57362955706219
 20
-10.046055793086
 30
0.0
 10
18.57699610443386
 20
-10.07253992561067
 30
0.0
 10
18.58036265180553
 20
-10.09902405813534
 30
0.0
 10
18.58356606689146
 20
-10.12555910935654
 30
0.0
 10
18.58660531067437
 20
-10.15214404025412
 30
0.0
 10
18.58964455445793
 20
-10.17872897115171
 30
0.0
 10
18.59251962693847
 20
-10.20536378172503
 30
0.0
 10
18.59522948909937
 20
-10.23204743295458
 30
0.0
 10
18.59793935126028
 20
-10.25873108418412
 30
0.0
 10
18.60048400310282
 20
-10.28546357606925
 30
0.0
 10
18.60286240560911
 20
-10.31224386959014
 30
0.0
 10
18.60524080811603
 20
-10.3390241631107
 30
0.0
 10
18.60745296128669
 20
-10.36585225826701
 30
0.0
 10
18.60949782610575
 20
-10.39272711603827
 30
0.0
 10
18.61154269092481
 20
-10.41960197380954
 30
0.0
 10
18.61342026739161
 20
-10.44652359419544
 30
0.0
 10
18.61512951648955
 20
-10.47349093817646
 30
0.0
 10
18.61683876558813
 20
-10.50045828215747
 30
0.0
 10
18.61837968731784
 20
-10.52747134973297
 30
0.0
 10
18.61975124266204
 20
-10.55452910188247
 30
0.0
 10
18.62112279800625
 20
-10.58158685403197
 30
0.0
 10
18.62232498696624
 20
-10.60868929075612
 30
0.0
 10
18.62335677052412
 20
-10.63583537303347
 30
0.0
 10
18.62438855408199
 20
-10.66298145531114
 30
0.0
 10
18.62524993223838
 20
-10.69017118314267
 30
0.0
 10
18.62593986597666
 20
-10.71740351750756
 30
0.0
 10
18.62662979971495
 20
-10.74463585187246
 30
0.0
 10
18.62714828903512
 20
-10.77191079277073
 30
0.0
 10
18.62749429492057
 20
-10.79922730118189
 30
0.0
 10
18.62784030080666
 20
-10.82654380959338
 30
0.0
 10
18.62801382325737
 20
-10.85390188551745
 30
0.0
 10
18.62801382325737
 20
-10.88130048993425
 30
0.0
  0
ENDSEC
  0
SECTION
  2
OBJECTS
  0
DICTIONARY
  5
C
330
0
100
AcDbDictionary
  3
ACAD_GROUP
350
D
  3
ACAD_LAYOUT
350
1A
  3
ACAD_MATERIAL
350
3B
  3
ACAD_MLEADERSTYLE
350
45
  3
ACAD_MLINESTYLE
350
17
  3
ACAD_PLOTSETTINGS
350
19
  3
ACAD_VISUALSTYLE
350
2A
  3
ACDBVARIABLEDICTIONARY
350
43
1001
ACAD
1000
TREAT_AS_HARD
1070
     0
  0
DICTIONARY
  5
D
102
{ACAD_REACTORS
330
C
102
}
330
C
100
AcDbDictionary
1001
ACAD
1000
TREAT_AS_HARD
1070
     0
  0
DICTIONARY
  5
1A
102
{ACAD_REACTORS
330
C
102
}
330
C
100
AcDbDictionary
1001
ACAD
1000
TREAT_AS_HARD
1070
     0
  0
DICTIONARY
  5
3B
102
{ACAD_REACTORS
330
C
102
}
330
C
100
AcDbDictionary
  3
BYBLOCK
350
3D
  3
BYLAYER
350
3C
  3
GLOBAL
350
3E
1001
ACAD
1000
TREAT_AS_HARD
1070
     0
  0
DICTIONARY
  5
45
102
{ACAD_REACTORS
330
C
102
}
330
C
100
AcDbDictionary
1001
ACAD
1000
TREAT_AS_HARD
1070
     0
  0
DICTIONARY
  5
17
102
{ACAD_REACTORS
330
C
102
}
330
C
100
AcDbDictionary
  3
STANDARD
350
18
1001
ACAD
1000
TREAT_AS_HARD
1070
     0
  0
DICTIONARY
  5
19
102
{ACAD_REACTORS
330
C
102
}
330
C
100
AcDbDictionary
1001
ACAD
1000
TREAT_AS_HARD
1070
     0
  0
DICTIONARY
  5
2A
102
{ACAD_REACTORS
330
C
102
}
330
C
100
AcDbDictionary
  3
2DWIREFRAME
350
2F
  3
3DWIREFRAME
350
30
  3
3D_HIDDEN
350
31
  3
BASIC
350
32
  3
BRIGHTEN
350
36
  3
COLORCHANGE
350
3A
  3
CONCEPTUAL
350
34
  3
DIM
350
35
  3
FACEPATTERN
350
39
  3
FLAT
350
2B
  3
FLATWITHEDGES
350
2C
  3
GOURAUD
350
2D
  3
GOURAUDWITHEDGES
350
2E
  3
LINEPATTERN
350
38
  3
REALISTIC
350
33
  3
THICKEN
350
37
1001
ACAD
1000
TREAT_AS_HARD
1070
     0
  0
DICTIONARY
  5
43
102
{ACAD_REACTORS
330
C
102
}
330
C
100
AcDbDictionary
  3
DIMASSOC
350
46
  3
HIDETEXT
350
47
1001
ACAD
1000
TREAT_AS_HARD
1070
     0
  0
MATERIAL
  5
3D
102
{ACAD_REACTORS
330
3B
102
}
102
{ACAD_XDICTIONARY
360
4A
102
}
330
3B
100
AcDbMaterial
  1
ByBlock
  0
MATERIAL
  5
3C
102
{ACAD_REACTORS
330
3B
102
}
102
{ACAD_XDICTIONARY
360
48
102
}
330
3B
100
AcDbMaterial
  1
ByLayer
  0
MATERIAL
  5
3E
102
{ACAD_REACTORS
330
3B
102
}
102
{ACAD_XDICTIONARY
360
4C
102
}
330
3B
100
AcDbMaterial
  1
Global
  0
MLINESTYLE
  5
18
102
{ACAD_REACTORS
330
17
102
}
330
17
100
AcDbMlineStyle
  2
Standard
 70
     0
  3

 62
   256
 51
90.0
 52
90.0
 71
     2
 49
0.5
 62
   256
  6
BYLAYER
 49
-0.5
 62
   256
  6
BYLAYER
  0
ACAD_PROXY_OBJECT
  5
2F
102
{ACAD_REACTORS
330
2A
102
}
330
2A
100
AcDbZombieObject
 90
      499
 91
      501
 93
      436
310
42CC9915DA5C99599C985B595049028333333333333E3BF0000000000000FB0107901411070040501600405405064090741402480A0340
1001
ACAD
1000
AcDbSavedByObjectVersion
1070
     0
  0
ACAD_PROXY_OBJECT
  5
30
102
{ACAD_REACTORS
330
2A
102
}
330
2A
100
AcDbZombieObject
 90
      499
 91
      501
 93
      436
310
42CCD915DA5C99599C985B595059028333333333333E3BF0000000000000FB0107901411070040501600405405064090741402480A0340
1001
ACAD
1000
AcDbSavedByObjectVersion
1070
     0
  0
ACAD_PROXY_OBJECT
  5
31
102
{ACAD_REACTORS
330
2A
102
}
330
2A
100
AcDbZombieObject
 90
      499
 91
      501
 93
      500
310
424CD108121A5919195B90640502408333333333333E3BF0000000000000FB01079024090700405020000000000001110200405405064090740C02480A0340
1001
ACAD
1000
AcDbSavedByObjectVersion
1070
     0
  0
ACAD_PROXY_OBJECT
  5
32
102
{ACAD_REACTORS
330
2A
102
}
330
2A
100
AcDbZombieObject
 90
      499
 91
      501
 93
      388
310
4150985CDA58D07406404333333333333E3BF0000000000000FB0107A41107004050150841D405064090741402480A0350
1001
ACAD
1000
AcDbSavedByObjectVersion
1070
     0
  0
ACAD_PROXY_OBJECT
  5
36
102
{ACAD_REACTORS
330
2A
102
}
330
2A
100
AcDbZombieObject
 90
      499
 91
      501
 93
      428
310
42109C9A59DA1D195B90C409028333333333333E3BF0000000000000FB010790141107004050150841D405064090741402480A029950
1001
ACAD
1000
AcDbSavedByObjectVersion
1070
     0
  0
ACAD_PROXY_OBJECT
  5
3A
102
{ACAD_REACTORS
330
2A
102
}
330
2A
100
AcDbZombieObject
 90
      499
 91
      501
 93
      452
310
42D0DBDB1BDC90DA185B99D95104090240C333333333333E3BF0000000000000FB0108901411070040501508421405064090741402480A0350
1001
ACAD
1000
AcDbSavedByObjectVersion
1070
     0
  0
ACAD_PROXY_OBJECT
  5
34
102
{ACAD_REACTORS
330
2A
102
}
330
2A
100
AcDbZombieObject
 90
      499
 91
      501
 93
      500
310
4290DBDB98D95C1D1D585B10940D028333333333333E3BF0000000000000FB0107902409070040501000000000000111010841D405064090740C02480A0340
1001
ACAD
1000
AcDbSavedByObjectVersion
1070
     0
  0
ACAD_PROXY_OBJECT
  5
35
102
{ACAD_REACTORS
330
2A
102
}
330
2A
100
AcDbZombieObject
 90
      499
 91
      501
 93
      412
310
40D11A5B50B409028333333333333E3BF0000000000000FB010790141107004050150841D405064090741402480A02677FFFFFD0
1001
ACAD
1000
AcDbSavedByObjectVersion
1070
     0
  0
ACAD_PROXY_OBJECT
  5
39
102
{ACAD_REACTORS
330
2A
102
}
330
2A
100
AcDbZombieObject
 90
      499
 91
      501
 93
      444
310
42D19858D95C185D1D195C9B90F409028333333333333E3BF0000000000000FB010790141107004050150841D405064090741402480A0350
1001
ACAD
1000
AcDbSavedByObjectVersion
1070
     0
  0
ACAD_PROXY_OBJECT
  5
2B
102
{ACAD_REACTORS
330
2A
102
}
330
2A
100
AcDbZombieObject
 90
      499
 91
      501
 93
      388
310
41119B185D240901404333333333333E3BF0000000000000F9010740A41107004050150841D405064090741402480A1B50
1001
ACAD
1000
AcDbSavedByObjectVersion
1070
     0
  0
ACAD_PROXY_OBJECT
  5
2C
102
{ACAD_REACTORS
330
2A
102
}
330
2A
100
AcDbZombieObject
 90
      499
 91
      501
 93
      476
310
43519B185D15DA5D1A115919D95CD0140901404333333333333E3BF0000000000000F9010740901411070040501600405405064090741402480A1B50
1001
ACAD
1000
AcDbSavedByObjectVersion
1070
     0
  0
ACAD_PROXY_OBJECT
  5
2D
102
{ACAD_REACTORS
330
2A
102
}
330
2A
100
AcDbZombieObject
 90
      499
 91
      501
 93
      412
310
41D1DBDD5C985D5910240902404333333333333E3BF0000000000000F9010740A411070040501641D405064090741402480A1B50
1001
ACAD
1000
AcDbSavedByObjectVersion
1070
     0
  0
ACAD_PROXY_OBJECT
  5
2E
102
{ACAD_REACTORS
330
2A
102
}
330
2A
100
AcDbZombieObject
 90
      499
 91
      501
 93
      500
310
4411DBDD5C985D5915DA5D1A115919D95CD0340902404333333333333E3BF0000000000000F9010740901411070040501600405405064090741402480A1B50
1001
ACAD
1000
AcDbSavedByObjectVersion
1070
     0
  0
ACAD_PROXY_OBJECT
  5
38
102
{ACAD_REACTORS
330
2A
102
}
330
2A
100
AcDbZombieObject
 90
      499
 91
      501
 93
      444
310
42D31A5B995C185D1D195C9B90E409028333333333333E3BF0000000000000FB010790141107004050750841D405064090741402483A0350
1001
ACAD
1000
AcDbSavedByObjectVersion
1070
     0
  0
ACAD_PROXY_OBJECT
  5
33
102
{ACAD_REACTORS
330
2A
102
}
330
2A
100
AcDbZombieObject
 90
      499
 91
      501
 93
      420
310
425499585B1A5CDD1A58D08409028333333333333E3BF0000000000000FB01079019070040501508421405064090741402480A1B40
1001
ACAD
1000
AcDbSavedByObjectVersion
1070
     0
  0
ACAD_PROXY_OBJECT
  5
37
102
{ACAD_REACTORS
330
2A
102
}
330
2A
100
AcDbZombieObject
 90
      499
 91
      501
 93
      412
310
41D51A1A58DAD95B90D409028333333333333E3BF0000000000000FB010790141107004050150C41D405064090741402480A0350
1001
ACAD
1000
AcDbSavedByObjectVersion
1070
     0
  0
DICTIONARYVAR
  5
46
102
{ACAD_REACTORS
330
43
102
}
330
43
100
DictionaryVariables
280
     0
  1
2
  0
DICTIONARYVAR
  5
47
102
{ACAD_REACTORS
330
43
102
}
330
43
100
DictionaryVariables
280
     0
  1
1
  0
DICTIONARY
  5
4A
330
3D
100
AcDbDictionary
  3
ACAD_XREC_ROUNDTRIP
360
4B
1001
ACAD
1000
TREAT_AS_HARD
1070
     1
  0
DICTIONARY
  5
48
330
3C
100
AcDbDictionary
  3
ACAD_XREC_ROUNDTRIP
360
49
1001
ACAD
1000
TREAT_AS_HARD
1070
     1
  0
DICTIONARY
  5
4C
330
3E
100
AcDbDictionary
  3
ACAD_XREC_ROUNDTRIP
360
4D
1001
ACAD
1000
TREAT_AS_HARD
1070
     1
  0
XRECORD
  5
4B
102
{ACAD_REACTORS
330
4A
102
}
330
4A
100
AcDbXrecord
102
MATERIAL
148
0.0
149
0.0
149
0.0
 93
        0
 94
      127
282
     0
 72
     1
 77
     1
171
     1
175
     1
179
     1
273
     0
  0
XRECORD
  5
49
102
{ACAD_REACTORS
330
48
102
}
330
48
100
AcDbXrecord
102
MATERIAL
148
0.0
149
0.0
149
0.0
 93
        0
 94
      127
282
     0
 72
     1
 77
     1
171
     1
175
     1
179
     1
273
     0
  0
XRECORD
  5
4D
102
{ACAD_REACTORS
330
4C
102
}
330
4C
100
AcDbXrecord
102
MATERIAL
148
0.0
149
0.0
149
0.0
 93
        0
 94
      127
282
     0
 72
     1
 77
     1
171
     1
175
     1
179
     1
273
     0
  0
ENDSEC
  0
EOF
