  0
SECTION
  2
HEADER
  9
$ACADVER
  1
AC1012
  9
$DWGCODEPAGE
  3
undefined
  9
$INSBASE
 10
0.0
 20
0.0
 30
0.0
  9
$EXTMIN
 10
1.000000000000000E+20
 20
1.000000000000000E+20
 30
1.000000000000000E+20
  9
$EXTMAX
 10
-1.000000000000000E+20
 20
-1.000000000000000E+20
 30
-1.000000000000000E+20
  9
$LIMMIN
 10
0.0
 20
0.0
  9
$LIMMAX
 10
12.0
 20
9.0
  9
$ORTHOMODE
 70
     0
  9
$REGENMODE
 70
     1
  9
$FILLMODE
 70
     1
  9
$QTEXTMODE
 70
     0
  9
$MIRRTEXT
 70
     1
  9
$DRAGMODE
 70
     2
  9
$LTSCALE
 40
1.0
  9
$OSMODE
 70
    37
  9
$ATTMODE
 70
     1
  9
$TEXTSIZE
 40
0.2
  9
$TRACEWID
 40
0.05
  9
$TEXTSTYLE
  7
STANDARD
  9
$CLAYER
  8
0
  9
$CELTYPE
  6
BYLAYER
  9
$CECOLOR
 62
   256
  9
$CELTSCALE
 40
1.0
  9
$DELOBJ
 70
     1
  9
$DISPSILH
 70
     0
  9
$DIMSCALE
 40
1.0
  9
$DIMASZ
 40
0.18
  9
$DIMEXO
 40
0.0625
  9
$DIMDLI
 40
0.38
  9
$DIMRND
 40
0.0
  9
$DIMDLE
 40
0.0
  9
$DIMEXE
 40
0.18
  9
$DIMTP
 40
0.0
  9
$DIMTM
 40
0.0
  9
$DIMTXT
 40
0.18
  9
$DIMCEN
 40
0.09
  9
$DIMTSZ
 40
0.0
  9
$DIMTOL
 70
     0
  9
$DIMLIM
 70
     0
  9
$DIMTIH
 70
     1
  9
$DIMTOH
 70
     1
  9
$DIMSE1
 70
     0
  9
$DIMSE2
 70
     0
  9
$DIMTAD
 70
     0
  9
$DIMZIN
 70
     0
  9
$DIMBLK
  1

  9
$DIMASO
 70
     1
  9
$DIMSHO
 70
     1
  9
$DIMPOST
  1

  9
$DIMAPOST
  1

  9
$DIMALT
 70
     0
  9
$DIMALTD
 70
     2
  9
$DIMALTF
 40
25.4
  9
$DIMLFAC
 40
1.0
  9
$DIMTOFL
 70
     0
  9
$DIMTVP
 40
0.0
  9
$DIMTIX
 70
     0
  9
$DIMSOXD
 70
     0
  9
$DIMSAH
 70
     0
  9
$DIMBLK1
  1

  9
$DIMBLK2
  1

  9
$DIMSTYLE
  2
STANDARD
  9
$DIMCLRD
 70
     0
  9
$DIMCLRE
 70
     0
  9
$DIMCLRT
 70
     0
  9
$DIMTFAC
 40
1.0
  9
$DIMGAP
 40
0.09
  9
$DIMJUST
 70
     0
  9
$DIMSD1
 70
     0
  9
$DIMSD2
 70
     0
  9
$DIMTOLJ
 70
     1
  9
$DIMTZIN
 70
     0
  9
$DIMALTZ
 70
     0
  9
$DIMALTTZ
 70
     0
  9
$DIMFIT
 70
     3
  9
$DIMUPT
 70
     0
  9
$DIMUNIT
 70
     2
  9
$DIMDEC
 70
     4
  9
$DIMTDEC
 70
     4
  9
$DIMALTU
 70
     2
  9
$DIMALTTD
 70
     2
  9
$DIMTXSTY
  7
STANDARD
  9
$DIMAUNIT
 70
     0
  9
$LUNITS
 70
     2
  9
$LUPREC
 70
     4
  9
$SKETCHINC
 40
0.1
  9
$FILLETRAD
 40
0.5
  9
$AUNITS
 70
     0
  9
$AUPREC
 70
     0
  9
$MENU
  1
.
  9
$ELEVATION
 40
0.0
  9
$PELEVATION
 40
0.0
  9
$THICKNESS
 40
0.0
  9
$LIMCHECK
 70
     0
  9
$CHAMFERA
 40
0.5
  9
$CHAMFERB
 40
0.5
  9
$CHAMFERC
 40
1.0
  9
$CHAMFERD
 40
0.0
  9
$SKPOLY
 70
     0
  9
$TDCREATE
 40
2457721.391377303
  9
$TDUPDATE
 40
2457721.391377303
  9
$TDINDWG
 40
0.0000000116
  9
$TDUSRTIMER
 40
0.0000000116
  9
$USRTIMER
 70
     1
  9
$ANGBASE
 50
0.0
  9
$ANGDIR
 70
     0
  9
$PDMODE
 70
     0
  9
$PDSIZE
 40
0.0
  9
$PLINEWID
 40
0.0
  9
$COORDS
 70
     1
  9
$SPLFRAME
 70
     0
  9
$SPLINETYPE
 70
     6
  9
$SPLINESEGS
 70
     8
  9
$ATTDIA
 70
     0
  9
$ATTREQ
 70
     1
  9
$HANDLING
 70
     1
  9
$HANDSEED
  5
5C
  9
$SURFTAB1
 70
     6
  9
$SURFTAB2
 70
     6
  9
$SURFTYPE
 70
     6
  9
$SURFU
 70
     6
  9
$SURFV
 70
     6
  9
$UCSNAME
  2

  9
$UCSORG
 10
0.0
 20
0.0
 30
0.0
  9
$UCSXDIR
 10
1.0
 20
0.0
 30
0.0
  9
$UCSYDIR
 10
0.0
 20
1.0
 30
0.0
  9
$PUCSNAME
  2

  9
$PUCSORG
 10
0.0
 20
0.0
 30
0.0
  9
$PUCSXDIR
 10
1.0
 20
0.0
 30
0.0
  9
$PUCSYDIR
 10
0.0
 20
1.0
 30
0.0
  9
$USERI1
 70
     0
  9
$USERI2
 70
     0
  9
$USERI3
 70
     0
  9
$USERI4
 70
     0
  9
$USERI5
 70
     0
  9
$USERR1
 40
0.0
  9
$USERR2
 40
0.0
  9
$USERR3
 40
0.0
  9
$USERR4
 40
0.0
  9
$USERR5
 40
0.0
  9
$WORLDVIEW
 70
     1
  9
$SHADEDGE
 70
     3
  9
$SHADEDIF
 70
    70
  9
$TILEMODE
 70
     1
  9
$MAXACTVP
 70
    64
  9
$PINSBASE
 10
0.0
 20
0.0
 30
0.0
  9
$PLIMCHECK
 70
     0
  9
$PEXTMIN
 10
1.000000000000000E+20
 20
1.000000000000000E+20
 30
1.000000000000000E+20
  9
$PEXTMAX
 10
-1.000000000000000E+20
 20
-1.000000000000000E+20
 30
-1.000000000000000E+20
  9
$PLIMMIN
 10
0.0
 20
0.0
  9
$PLIMMAX
 10
12.0
 20
9.0
  9
$UNITMODE
 70
     0
  9
$VISRETAIN
 70
     1
  9
$PLINEGEN
 70
     0
  9
$PSLTSCALE
 70
     1
  9
$TREEDEPTH
 70
  3020
  9
$PICKSTYLE
 70
     1
  9
$CMLSTYLE
  2
STANDARD
  9
$CMLJUST
 70
     0
  9
$CMLSCALE
 40
1.0
  9
$SAVEIMAGES
 70
     1
  0
ENDSEC
  0
SECTION
  2
CLASSES
  0
CLASS
  1
ACDBDICTIONARYWDFLT
  2
AcDbDictionaryWithDefault
  3
ObjectDBX Classes
 90
    32768
280
     0
281
     0
  0
CLASS
  1
VISUALSTYLE
  2
AcDbVisualStyle
  3
ObjectDBX Classes
 90
     4095
280
     0
281
     0
  0
CLASS
  1
MATERIAL
  2
AcDbMaterial
  3
ObjectDBX Classes
 90
     1153
280
     0
281
     0
  0
CLASS
  1
SUN
  2
AcDbSun
  3
SCENEOE
 90
     1024
280
     0
281
     0
  0
CLASS
  1
DICTIONARYVAR
  2
AcDbDictionaryVar
  3
ObjectDBX Classes
 90
        0
280
     0
281
     0
  0
CLASS
  1
XRECORD
  2
AcDbXrecord
  3
AutoCAD 2000
 90
    32768
280
     0
281
     0
  0
CLASS
  1
LWPOLYLINE
  2
AcDbPolyline
  3
AutoCAD 2000
 90
    32768
280
     0
281
     1
  0
CLASS
  1
HATCH
  2
AcDbHatch
  3
AutoCAD 2000
 90
    32768
280
     0
281
     1
  0
CLASS
  1
ACDBPLACEHOLDER
  2
AcDbPlaceHolder
  3
ObjectDBX Classes
 90
        0
280
     0
281
     0
  0
CLASS
  1
LAYOUT
  2
AcDbLayout
  3
ObjectDBX Classes
 90
        0
280
     0
281
     0
  0
ENDSEC
  0
SECTION
  2
TABLES
  0
TABLE
  2
VPORT
  5
8
330
0
100
AcDbSymbolTable
 70
     1
  0
VPORT
  5
29
330
8
100
AcDbSymbolTableRecord
100
AcDbViewportTableRecord
  2
*ACTIVE
 70
     0
 10
0.0
 20
0.0
 11
1.0
 21
1.0
 12
0.0
 22
0.0
 13
0.0
 23
0.0
 14
0.5
 24
0.5
 15
0.5
 25
0.5
 16
0.0
 26
0.0
 36
1.0
 17
12.41571549842129
 27
-10.63647573638741
 37
0.0
 40
22.53562603226373
 41
1.154700538379242
 42
50.0
 43
0.0
 44
0.0
 50
0.0
 51
0.0
 71
     0
 72
   100
 73
     1
 74
     3
 75
     0
 76
     0
 77
     0
 78
     0
  0
ENDTAB
  0
TABLE
  2
LTYPE
  5
5
330
0
100
AcDbSymbolTable
 70
     1
  0
LTYPE
  5
14
330
5
100
AcDbSymbolTableRecord
100
AcDbLinetypeTableRecord
  2
BYBLOCK
 70
     0
  3

 72
    65
 73
     0
 40
0.0
  0
LTYPE
  5
15
330
5
100
AcDbSymbolTableRecord
100
AcDbLinetypeTableRecord
  2
BYLAYER
 70
     0
  3

 72
    65
 73
     0
 40
0.0
  0
LTYPE
  5
16
330
5
100
AcDbSymbolTableRecord
100
AcDbLinetypeTableRecord
  2
CONTINUOUS
 70
     0
  3
Solid line
 72
    65
 73
     0
 40
0.0
  0
ENDTAB
  0
TABLE
  2
LAYER
  5
2
330
0
100
AcDbSymbolTable
 70
     2
  0
LAYER
  5
10
330
2
100
AcDbSymbolTableRecord
100
AcDbLayerTableRecord
  2
0
 70
     0
 62
     7
  6
CONTINUOUS
  0
LAYER
  5
40
330
2
100
AcDbSymbolTableRecord
100
AcDbLayerTableRecord
  2
LAYER_1
 70
     0
 62
     7
  6
CONTINUOUS
  0
ENDTAB
  0
TABLE
  2
STYLE
  5
3
330
0
100
AcDbSymbolTable
 70
     1
  0
STYLE
  5
11
330
3
100
AcDbSymbolTableRecord
100
AcDbTextStyleTableRecord
  2
STANDARD
 70
     0
 40
0.0
 41
1.0
 50
0.0
 71
     0
 42
0.2
  3
txt
  4

  0
ENDTAB
  0
TABLE
  2
VIEW
  5
6
330
0
100
AcDbSymbolTable
 70
     0
  0
ENDTAB
  0
TABLE
  2
UCS
  5
7
330
0
100
AcDbSymbolTable
 70
     0
  0
ENDTAB
  0
TABLE
  2
APPID
  5
9
330
0
100
AcDbSymbolTable
 70
     1
  0
APPID
  5
12
330
9
100
AcDbSymbolTableRecord
100
AcDbRegAppTableRecord
  2
ACAD
 70
     0
  0
ENDTAB
  0
TABLE
  2
DIMSTYLE
  5
A
330
0
100
AcDbSymbolTable
 70
     1
  0
DIMSTYLE
105
27
330
A
100
AcDbSymbolTableRecord
100
AcDbDimStyleTableRecord
  2
STANDARD
 70
     0
  3

  4

  5

  6

  7

 40
1.0
 41
0.18
 42
0.0625
 43
0.38
 44
0.18
 45
0.0
 46
0.0
 47
0.0
 48
0.0
140
0.18
141
0.09
142
0.0
143
25.4
144
1.0
145
0.0
146
1.0
147
0.09
 71
     0
 72
     0
 73
     1
 74
     1
 75
     0
 76
     0
 77
     0
 78
     0
170
     0
171
     2
172
     0
173
     0
174
     0
175
     0
176
     0
177
     0
178
     0
270
     2
271
     4
272
     4
273
     2
274
     2
340
11
275
     0
280
     0
281
     0
282
     0
283
     1
284
     0
285
     0
286
     0
287
     3
288
     0
  0
ENDTAB
  0
TABLE
  2
BLOCK_RECORD
  5
1
330
0
100
AcDbSymbolTable
 70
     3
  0
BLOCK_RECORD
  5
1F
330
1
100
AcDbSymbolTableRecord
100
AcDbBlockTableRecord
  2
*MODEL_SPACE
  0
BLOCK_RECORD
  5
1B
330
1
100
AcDbSymbolTableRecord
100
AcDbBlockTableRecord
  2
*PAPER_SPACE
  0
BLOCK_RECORD
  5
41
330
1
100
AcDbSymbolTableRecord
100
AcDbBlockTableRecord
  2
BLOCK_2
  0
BLOCK_RECORD
  5
49
330
1
100
AcDbSymbolTableRecord
100
AcDbBlockTableRecord
  2
BLOCK_3
  0
ENDTAB
  0
ENDSEC
  0
SECTION
  2
BLOCKS
  0
BLOCK
  5
20
330
1F
100
AcDbEntity
  8
0
100
AcDbBlockBegin
  2
*MODEL_SPACE
 70
     0
 10
0.0
 20
0.0
 30
0.0
  3
*MODEL_SPACE
  1

  0
ENDBLK
  5
21
330
1F
100
AcDbEntity
  8
0
100
AcDbBlockEnd
  0
BLOCK
  5
1C
330
1B
100
AcDbEntity
 67
     1
  8
0
100
AcDbBlockBegin
  2
*PAPER_SPACE
 70
     0
 10
0.0
 20
0.0
 30
0.0
  3
*PAPER_SPACE
  1

  0
ENDBLK
  5
1D
330
1B
100
AcDbEntity
 67
     1
  8
0
100
AcDbBlockEnd
  0
BLOCK
  5
43
330
41
100
AcDbEntity
  8
0
100
AcDbBlockBegin
  2
BLOCK_2
 70
     0
 10
0.0
 20
0.0
 30
0.0
  3
BLOCK_2
  1

  0
SPLINE
  5
45
330
41
100
AcDbEntity
  8
LAYER_1
 62
    93
100
AcDbSpline
210
0.0
220
0.0
230
1.0
 70
    11
 71
     3
 72
    53
 73
    49
 74
     0
 42
0.0000000001
 43
0.0000000001
 12
1.0
 22
0.0
 32
0.0
 13
1.0
 23
0.0
 33
0.0
 40
0.0
 40
0.0
 40
0.0
 40
0.0
 40
1.0
 40
1.0
 40
1.0
 40
2.0
 40
2.0
 40
2.0
 40
3.0
 40
3.0
 40
3.0
 40
4.0
 40
4.0
 40
4.0
 40
5.0
 40
5.0
 40
5.0
 40
6.0
 40
6.0
 40
6.0
 40
7.0
 40
7.0
 40
7.0
 40
8.0
 40
8.0
 40
8.0
 40
9.0
 40
9.0
 40
9.0
 40
10.0
 40
10.0
 40
10.0
 40
11.0
 40
11.0
 40
11.0
 40
12.0
 40
12.0
 40
12.0
 40
13.0
 40
13.0
 40
13.0
 40
14.0
 40
14.0
 40
14.0
 40
15.0
 40
15.0
 40
15.0
 40
16.0
 40
16.0
 40
16.0
 40
16.0
 10
16.72945784934873
 20
-19.64001335319827
 30
0.0
 10
16.72945784935001
 20
-19.70904894690524
 30
0.0
 10
16.71546674778387
 20
-19.77481674375193
 30
0.0
 10
16.69016537082998
 20
-19.83463591755995
 30
0.0
 10
16.66486399387481
 20
-19.89445509136797
 30
0.0
 10
16.6282523415306
 20
-19.94832564213859
 30
0.0
 10
16.58301123997319
 20
-19.99356674369601
 30
0.0
 10
16.53777013841577
 20
-20.03880784525343
 30
0.0
 10
16.48389958764642
 20
-20.07541949759763
 30
0.0
 10
16.42408041383712
 20
-20.10072087455152
 30
0.0
 10
16.36426124002782
 20
-20.1260222515067
 30
0.0
 10
16.29849344318242
 20
-20.14001335307283
 30
0.0
 10
16.22945784947544
 20
-20.14001335307283
 30
0.0
 10
16.16042225576719
 20
-20.14001335307155
 30
0.0
 10
16.0946544589205
 20
-20.1260222515067
 30
0.0
 10
16.03483528511248
 20
-20.10072087455281
 30
0.0
 10
15.97501611130318
 20
-20.07541949759763
 30
0.0
 10
15.92114556053255
 20
-20.03880784525343
 30
0.0
 10
15.87590445897514
 20
-19.99356674369601
 30
0.0
 10
15.83066335741772
 20
-19.94832564213859
 30
0.0
 10
15.79405170507351
 20
-19.89445509136668
 30
0.0
 10
15.76875032811962
 20
-19.83463591755866
 30
0.0
 10
15.74344895116445
 20
-19.77481674375065
 30
0.0
 10
15.7294578495996
 20
-19.70904894690524
 30
0.0
 10
15.7294578495996
 20
-19.64001335319827
 30
0.0
 10
15.7294578495996
 20
-19.57097775948873
 30
0.0
 10
15.74344895116445
 20
-19.50520996264333
 30
0.0
 10
15.76875032811962
 20
-19.44539078883531
 30
0.0
 10
15.7940517050748
 20
-19.38557161502729
 30
0.0
 10
15.83066335741772
 20
-19.33170106425538
 30
0.0
 10
15.87590445897514
 20
-19.28645996269796
 30
0.0
 10
15.92114556053384
 20
-19.24121886114055
 30
0.0
 10
15.97501611130318
 20
-19.20460720879634
 30
0.0
 10
16.03483528511248
 20
-19.17930583184117
 30
0.0
 10
16.0946544589205
 20
-19.15400445488728
 30
0.0
 10
16.16042225576719
 20
-19.14001335332114
 30
0.0
 10
16.22945784947544
 20
-19.14001335332114
 30
0.0
 10
16.29849344318242
 20
-19.14001335332242
 30
0.0
 10
16.36426124002782
 20
-19.15400445488728
 30
0.0
 10
16.42408041383712
 20
-19.17930583184117
 30
0.0
 10
16.48389958764642
 20
-19.20460720879634
 30
0.0
 10
16.53777013841577
 20
-19.24121886114055
 30
0.0
 10
16.58301123997447
 20
-19.28645996269796
 30
0.0
 10
16.6282523415306
 20
-19.33170106425538
 30
0.0
 10
16.66486399387481
 20
-19.38557161502601
 30
0.0
 10
16.6901653708287
 20
-19.44539078883531
 30
0.0
 10
16.71546674778387
 20
-19.50520996264333
 30
0.0
 10
16.72945784934873
 20
-19.5709777594913
 30
0.0
 10
16.72945784934873
 20
-19.64001335319827
 30
0.0
  0
SPLINE
  5
46
330
41
100
AcDbEntity
  8
LAYER_1
 62
    93
100
AcDbSpline
210
0.0
220
0.0
230
1.0
 70
    11
 71
     3
 72
    53
 73
    49
 74
     0
 42
0.0000000001
 43
0.0000000001
 12
1.0
 22
0.0
 32
0.0
 13
1.0
 23
0.0
 33
0.0
 40
0.0
 40
0.0
 40
0.0
 40
0.0
 40
1.0
 40
1.0
 40
1.0
 40
2.0
 40
2.0
 40
2.0
 40
3.0
 40
3.0
 40
3.0
 40
4.0
 40
4.0
 40
4.0
 40
5.0
 40
5.0
 40
5.0
 40
6.0
 40
6.0
 40
6.0
 40
7.0
 40
7.0
 40
7.0
 40
8.0
 40
8.0
 40
8.0
 40
9.0
 40
9.0
 40
9.0
 40
10.0
 40
10.0
 40
10.0
 40
11.0
 40
11.0
 40
11.0
 40
12.0
 40
12.0
 40
12.0
 40
13.0
 40
13.0
 40
13.0
 40
14.0
 40
14.0
 40
14.0
 40
15.0
 40
15.0
 40
15.0
 40
16.0
 40
16.0
 40
16.0
 40
16.0
 10
11.66390866499471
 20
-19.6400140260672
 30
0.0
 10
11.66390866499342
 20
-19.70904961977545
 30
0.0
 10
11.64991756342985
 20
-19.77481741662086
 30
0.0
 10
11.62461618647468
 20
-19.83463659043016
 30
0.0
 10
11.5993148095195
 20
-19.89445576423818
 30
0.0
 10
11.5627031571753
 20
-19.94832631500881
 30
0.0
 10
11.51746205561788
 20
-19.99356741656622
 30
0.0
 10
11.47222095406046
 20
-20.03880851812492
 30
0.0
 10
11.41835040329112
 20
-20.07542017046913
 30
0.0
 10
11.35853122948182
 20
-20.10072154742302
 30
0.0
 10
11.29871205567252
 20
-20.12602292437691
 30
0.0
 10
11.23294425882711
 20
-20.14001402594305
 30
0.0
 10
11.16390866512014
 20
-20.14001402594176
 30
0.0
 10
11.09487307141188
 20
-20.14001402594176
 30
0.0
 10
11.0291052745652
 20
-20.12602292437819
 30
0.0
 10
10.96928610075718
 20
-20.10072154742302
 30
0.0
 10
10.90946692694788
 20
-20.07542017046785
 30
0.0
 10
10.85559637617725
 20
-20.03880851812492
 30
0.0
 10
10.81035527461983
 20
-19.99356741656622
 30
0.0
 10
10.76511417306241
 20
-19.94832631500881
 30
0.0
 10
10.72850252071821
 20
-19.89445576423818
 30
0.0
 10
10.70320114376304
 20
-19.83463659043016
 30
0.0
 10
10.67789976680786
 20
-19.77481741662086
 30
0.0
 10
10.66390866524429
 20
-19.70904961977545
 30
0.0
 10
10.66390866524301
 20
-19.6400140260672
 30
0.0
 10
10.66390866524301
 20
-19.57097843236023
 30
0.0
 10
10.67789976680915
 20
-19.50521063551354
 30
0.0
 10
10.70320114376432
 20
-19.44539146170681
 30
0.0
 10
10.72850252071821
 20
-19.38557228789751
 30
0.0
 10
10.76511417306241
 20
-19.33170173712559
 30
0.0
 10
10.81035527461983
 20
-19.28646063556818
 30
0.0
 10
10.85559637617853
 20
-19.24121953401076
 30
0.0
 10
10.90946692694788
 20
-19.20460788166655
 30
0.0
 10
10.96928610075718
 20
-19.17930650471266
 30
0.0
 10
11.0291052745652
 20
-19.15400512775749
 30
0.0
 10
11.09487307141188
 20
-19.14001402619263
 30
0.0
 10
11.16390866512014
 20
-19.14001402619263
 30
0.0
 10
11.23294425882711
 20
-19.14001402619263
 30
0.0
 10
11.29871205567252
 20
-19.15400512775749
 30
0.0
 10
11.35853122948182
 20
-19.17930650471266
 30
0.0
 10
11.41835040328983
 20
-19.20460788166655
 30
0.0
 10
11.47222095406046
 20
-19.24121953400947
 30
0.0
 10
11.51746205561916
 20
-19.28646063556818
 30
0.0
 10
11.56270315717658
 20
-19.33170173712559
 30
0.0
 10
11.5993148095195
 20
-19.38557228789622
 30
0.0
 10
11.62461618647468
 20
-19.44539146170552
 30
0.0
 10
11.64991756342985
 20
-19.50521063551354
 30
0.0
 10
11.66390866499471
 20
-19.57097843236023
 30
0.0
 10
11.66390866499471
 20
-19.6400140260672
 30
0.0
  0
SPLINE
  5
47
330
41
100
AcDbEntity
  8
LAYER_1
 62
    93
100
AcDbSpline
210
0.0
220
0.0
230
1.0
 70
    11
 71
     3
 72
    53
 73
    49
 74
     0
 42
0.0000000001
 43
0.0000000001
 12
1.0
 22
0.0
 32
0.0
 13
1.0
 23
0.0
 33
0.0
 40
0.0
 40
0.0
 40
0.0
 40
0.0
 40
1.0
 40
1.0
 40
1.0
 40
2.0
 40
2.0
 40
2.0
 40
3.0
 40
3.0
 40
3.0
 40
4.0
 40
4.0
 40
4.0
 40
5.0
 40
5.0
 40
5.0
 40
6.0
 40
6.0
 40
6.0
 40
7.0
 40
7.0
 40
7.0
 40
8.0
 40
8.0
 40
8.0
 40
9.0
 40
9.0
 40
9.0
 40
10.0
 40
10.0
 40
10.0
 40
11.0
 40
11.0
 40
11.0
 40
12.0
 40
12.0
 40
12.0
 40
13.0
 40
13.0
 40
13.0
 40
14.0
 40
14.0
 40
14.0
 40
15.0
 40
15.0
 40
15.0
 40
16.0
 40
16.0
 40
16.0
 40
16.0
 10
14.20390767187518
 20
-19.64001368963209
 30
0.0
 10
14.20390767187518
 20
-19.70904928334035
 30
0.0
 10
14.18991657031161
 20
-19.77481708018575
 30
0.0
 10
14.16461519335643
 20
-19.83463625399634
 30
0.0
 10
14.13931381640126
 20
-19.89445542780307
 30
0.0
 10
14.10270216405705
 20
-19.9483259785737
 30
0.0
 10
14.05746106250092
 20
-19.99356708013111
 30
0.0
 10
14.01221996094222
 20
-20.03880818168982
 30
0.0
 10
13.95834941017288
 20
-20.07541983403274
 30
0.0
 10
13.89853023636357
 20
-20.10072121098791
 30
0.0
 10
13.83871106255427
 20
-20.1260225879418
 30
0.0
 10
13.77294326570887
 20
-20.14001368950794
 30
0.0
 10
13.7039076720019
 20
-20.14001368950794
 30
0.0
 10
13.63487207829364
 20
-20.14001368950666
 30
0.0
 10
13.56910428144695
 20
-20.12602258794309
 30
0.0
 10
13.50928510763894
 20
-20.10072121098791
 30
0.0
 10
13.44946593382964
 20
-20.07541983403274
 30
0.0
 10
13.39559538305901
 20
-20.03880818168982
 30
0.0
 10
13.35035428150031
 20
-19.99356708013111
 30
0.0
 10
13.30511317994417
 20
-19.9483259785737
 30
0.0
 10
13.26850152759997
 20
-19.89445542780307
 30
0.0
 10
13.24320015064608
 20
-19.83463625399377
 30
0.0
 10
13.21789877369091
 20
-19.77481708018575
 30
0.0
 10
13.20390767212605
 20
-19.70904928334035
 30
0.0
 10
13.20390767212605
 20
-19.64001368963209
 30
0.0
 10
13.20390767212605
 20
-19.57097809592384
 30
0.0
 10
13.21789877369091
 20
-19.50521029907843
 30
0.0
 10
13.24320015064608
 20
-19.44539112527042
 30
0.0
 10
13.26850152759997
 20
-19.3855719514624
 30
0.0
 10
13.30511317994417
 20
-19.33170140069177
 30
0.0
 10
13.35035428150159
 20
-19.28646029913307
 30
0.0
 10
13.39559538306029
 20
-19.24121919757565
 30
0.0
 10
13.44946593382964
 20
-19.20460754523145
 30
0.0
 10
13.50928510763894
 20
-19.17930616827756
 30
0.0
 10
13.56910428144695
 20
-19.15400479132238
 30
0.0
 10
13.63487207829364
 20
-19.14001368975624
 30
0.0
 10
13.7039076720019
 20
-19.14001368975624
 30
0.0
 10
13.77294326570887
 20
-19.14001368975753
 30
0.0
 10
13.83871106255427
 20
-19.15400479132238
 30
0.0
 10
13.89853023636357
 20
-19.17930616827756
 30
0.0
 10
13.95834941017159
 20
-19.20460754523145
 30
0.0
 10
14.01221996094222
 20
-19.24121919757565
 30
0.0
 10
14.05746106249964
 20
-19.28646029913307
 30
0.0
 10
14.10270216405705
 20
-19.33170140069177
 30
0.0
 10
14.13931381640126
 20
-19.38557195146112
 30
0.0
 10
14.16461519335515
 20
-19.44539112527042
 30
0.0
 10
14.18991657031032
 20
-19.50521029907972
 30
0.0
 10
14.20390767187518
 20
-19.57097809592512
 30
0.0
 10
14.20390767187518
 20
-19.64001368963209
 30
0.0
  0
SPLINE
  5
48
330
41
100
AcDbEntity
  8
LAYER_1
 62
    93
100
AcDbSpline
210
0.0
220
0.0
230
1.0
 70
    11
 71
     3
 72
    53
 73
    49
 74
     0
 42
0.0000000001
 43
0.0000000001
 12
1.0
 22
0.0
 32
0.0
 13
1.0
 23
0.0
 33
0.0
 40
0.0
 40
0.0
 40
0.0
 40
0.0
 40
1.0
 40
1.0
 40
1.0
 40
2.0
 40
2.0
 40
2.0
 40
3.0
 40
3.0
 40
3.0
 40
4.0
 40
4.0
 40
4.0
 40
5.0
 40
5.0
 40
5.0
 40
6.0
 40
6.0
 40
6.0
 40
7.0
 40
7.0
 40
7.0
 40
8.0
 40
8.0
 40
8.0
 40
9.0
 40
9.0
 40
9.0
 40
10.0
 40
10.0
 40
10.0
 40
11.0
 40
11.0
 40
11.0
 40
12.0
 40
12.0
 40
12.0
 40
13.0
 40
13.0
 40
13.0
 40
14.0
 40
14.0
 40
14.0
 40
15.0
 40
15.0
 40
15.0
 40
16.0
 40
16.0
 40
16.0
 40
16.0
 10
9.12390839648194
 20
-19.6400140260672
 30
0.0
 10
9.12390839648194
 20
-19.70904961977417
 30
0.0
 10
9.109917294917086
 20
-19.77481741662086
 30
0.0
 10
9.084615917961912
 20
-19.83463659042888
 30
0.0
 10
9.059314541006739
 20
-19.89445576423689
 30
0.0
 10
9.022702888663174
 20
-19.94832631500881
 30
0.0
 10
8.9774617871064
 20
-19.99356741656622
 30
0.0
 10
8.932220685548982
 20
-20.03880851812364
 30
0.0
 10
8.878350134777069
 20
-20.07542017046785
 30
0.0
 10
8.818530960969053
 20
-20.10072154742173
 30
0.0
 10
8.758711787160394
 20
-20.12602292437691
 30
0.0
 10
8.692943990314348
 20
-20.14001402594176
 30
0.0
 10
8.623908396606092
 20
-20.14001402594176
 30
0.0
 10
8.554872802899121
 20
-20.14001402594305
 30
0.0
 10
8.489105006052432
 20
-20.12602292437691
 30
0.0
 10
8.429285832243773
 20
-20.10072154742302
 30
0.0
 10
8.369466658435757
 20
-20.07542017046913
 30
0.0
 10
8.315596107664486
 20
-20.03880851812492
 30
0.0
 10
8.270355006107069
 20
-19.99356741656622
 30
0.0
 10
8.225113904548367
 20
-19.94832631500881
 30
0.0
 10
8.188502252205446
 20
-19.89445576423818
 30
0.0
 10
8.163200875250272
 20
-19.83463659042888
 30
0.0
 10
8.137899498296383
 20
-19.77481741662086
 30
0.0
 10
8.123908396730885
 20
-19.70904961977417
 30
0.0
 10
8.123908396730243
 20
-19.6400140260672
 30
0.0
 10
8.123908396730885
 20
-19.57097843236023
 30
0.0
 10
8.137899498296383
 20
-19.50521063551354
 30
0.0
 10
8.163200875250913
 20
-19.44539146170552
 30
0.0
 10
8.188502252205446
 20
-19.38557228789622
 30
0.0
 10
8.225113904549652
 20
-19.33170173712559
 30
0.0
 10
8.27035500610771
 20
-19.28646063556818
 30
0.0
 10
8.315596107664486
 20
-19.24121953401076
 30
0.0
 10
8.369466658435757
 20
-19.20460788166655
 30
0.0
 10
8.429285832244416
 20
-19.17930650471266
 30
0.0
 10
8.489105006052432
 20
-19.15400512775749
 30
0.0
 10
8.554872802899121
 20
-19.14001402619135
 30
0.0
 10
8.623908396607376
 20
-19.14001402619263
 30
0.0
 10
8.692943990314348
 20
-19.14001402619263
 30
0.0
 10
8.758711787161035
 20
-19.15400512775749
 30
0.0
 10
8.818530960969053
 20
-19.17930650471266
 30
0.0
 10
8.878350134777069
 20
-19.20460788166655
 30
0.0
 10
8.932220685548339
 20
-19.24121953401076
 30
0.0
 10
8.977461787105756
 20
-19.28646063556818
 30
0.0
 10
9.022702888663817
 20
-19.33170173712559
 30
0.0
 10
9.059314541006739
 20
-19.38557228789622
 30
0.0
 10
9.084615917961912
 20
-19.44539146170552
 30
0.0
 10
9.109917294917086
 20
-19.50521063551354
 30
0.0
 10
9.12390839648194
 20
-19.57097843235895
 30
0.0
 10
9.12390839648194
 20
-19.6400140260672
 30
0.0
  0
ENDBLK
  5
44
330
41
100
AcDbEntity
  8
0
100
AcDbBlockEnd
  0
BLOCK
  5
4B
330
49
100
AcDbEntity
  8
0
100
AcDbBlockBegin
  2
BLOCK_3
 70
     0
 10
0.0
 20
0.0
 30
0.0
  3
BLOCK_3
  1

  0
SPLINE
  5
4D
330
49
100
AcDbEntity
  8
LAYER_1
 62
    93
100
AcDbSpline
210
0.0
220
0.0
230
1.0
 70
    11
 71
     3
 72
    53
 73
    49
 74
     0
 42
0.0000000001
 43
0.0000000001
 12
1.0
 22
0.0
 32
0.0
 13
1.0
 23
0.0
 33
0.0
 40
0.0
 40
0.0
 40
0.0
 40
0.0
 40
1.0
 40
1.0
 40
1.0
 40
2.0
 40
2.0
 40
2.0
 40
3.0
 40
3.0
 40
3.0
 40
4.0
 40
4.0
 40
4.0
 40
5.0
 40
5.0
 40
5.0
 40
6.0
 40
6.0
 40
6.0
 40
7.0
 40
7.0
 40
7.0
 40
8.0
 40
8.0
 40
8.0
 40
9.0
 40
9.0
 40
9.0
 40
10.0
 40
10.0
 40
10.0
 40
11.0
 40
11.0
 40
11.0
 40
12.0
 40
12.0
 40
12.0
 40
13.0
 40
13.0
 40
13.0
 40
14.0
 40
14.0
 40
14.0
 40
15.0
 40
15.0
 40
15.0
 40
16.0
 40
16.0
 40
16.0
 40
16.0
 10
8.123908396729922
 20
-17.10840778636608
 30
0.0
 10
8.123908396735056
 20
-17.03937219265911
 30
0.0
 10
8.13789949830697
 20
-16.97360439581371
 30
0.0
 10
8.163200875265995
 20
-16.91378522200761
 30
0.0
 10
8.188502252226941
 20
-16.85396604820217
 30
0.0
 10
8.22511390457564
 20
-16.80009549743475
 30
0.0
 10
8.270355006136908
 20
-16.75485439588118
 30
0.0
 10
8.315596107698816
 20
-16.70961329432761
 30
0.0
 10
8.36946665847137
 20
-16.67300164198854
 30
0.0
 10
8.429285832282597
 20
-16.64770026503978
 30
0.0
 10
8.489105006094464
 20
-16.62239888809038
 30
0.0
 10
8.554872802941151
 20
-16.60840778653002
 30
0.0
 10
8.623908396648124
 20
-16.60840778653644
 30
0.0
 10
8.692943990356378
 20
-16.60840778654349
 30
0.0
 10
8.758711787201785
 20
-16.62239888811413
 30
0.0
 10
8.818530961007234
 20
-16.64770026507379
 30
0.0
 10
8.878350134814609
 20
-16.6730016420341
 30
0.0
 10
8.93222068558203
 20
-16.70961329438344
 30
0.0
 10
8.977461787134954
 20
-16.75485439594471
 30
0.0
 10
9.02270288868852
 20
-16.80009549750597
 30
0.0
 10
9.059314541028236
 20
-16.85396604828174
 30
0.0
 10
9.08461591797635
 20
-16.91378522209168
 30
0.0
 10
9.10991729492639
 20
-16.97360439590226
 30
0.0
 10
9.12390839648547
 20
-17.03937219274895
 30
0.0
 10
9.123908396479054
 20
-17.10840778645592
 30
0.0
 10
9.123908396472636
 20
-17.17744338016546
 30
0.0
 10
9.109917294902004
 20
-17.24321117700958
 30
0.0
 10
9.084615917941699
 20
-17.30303035081503
 30
0.0
 10
9.05931454098075
 20
-17.36284952462113
 30
0.0
 10
9.022702888633335
 20
-17.41672007538919
 30
0.0
 10
8.977461787072068
 20
-17.46196117694275
 30
0.0
 10
8.932220685508875
 20
-17.50720227849632
 30
0.0
 10
8.878350134736321
 20
-17.54381393083539
 30
0.0
 10
8.818530960925097
 20
-17.56911530778543
 30
0.0
 10
8.758711787114512
 20
-17.59441668473355
 30
0.0
 10
8.69294399026654
 20
-17.60840778629391
 30
0.0
 10
8.623908396558285
 20
-17.60840778628814
 30
0.0
 10
8.554872802851314
 20
-17.60840778628043
 30
0.0
 10
8.489105006007192
 20
-17.5944166847098
 30
0.0
 10
8.429285832200458
 20
-17.56911530775014
 30
0.0
 10
8.369466658393083
 20
-17.54381393078983
 30
0.0
 10
8.315596107626947
 20
-17.50720227844049
 30
0.0
 10
8.270355006072737
 20
-17.46196117687922
 30
0.0
 10
8.225113904520454
 20
-17.41672007531796
 30
0.0
 10
8.18850225218074
 20
-17.36284952454412
 30
0.0
 10
8.163200875232626
 20
-17.30303035073225
 30
0.0
 10
8.137899498282586
 20
-17.24321117692231
 30
0.0
 10
8.123908396723506
 20
-17.17744338007306
 30
0.0
 10
8.123908396729922
 20
-17.10840778636608
 30
0.0
  0
SPLINE
  5
4E
330
49
100
AcDbEntity
  8
LAYER_1
 62
    93
100
AcDbSpline
210
0.0
220
0.0
230
1.0
 70
    11
 71
     3
 72
    53
 73
    49
 74
     0
 42
0.0000000001
 43
0.0000000001
 12
1.0
 22
0.0
 32
0.0
 13
1.0
 23
0.0
 33
0.0
 40
0.0
 40
0.0
 40
0.0
 40
0.0
 40
1.0
 40
1.0
 40
1.0
 40
2.0
 40
2.0
 40
2.0
 40
3.0
 40
3.0
 40
3.0
 40
4.0
 40
4.0
 40
4.0
 40
5.0
 40
5.0
 40
5.0
 40
6.0
 40
6.0
 40
6.0
 40
7.0
 40
7.0
 40
7.0
 40
8.0
 40
8.0
 40
8.0
 40
9.0
 40
9.0
 40
9.0
 40
10.0
 40
10.0
 40
10.0
 40
11.0
 40
11.0
 40
11.0
 40
12.0
 40
12.0
 40
12.0
 40
13.0
 40
13.0
 40
13.0
 40
14.0
 40
14.0
 40
14.0
 40
15.0
 40
15.0
 40
15.0
 40
16.0
 40
16.0
 40
16.0
 40
16.0
 10
13.18945758108394
 20
-17.10840711395148
 30
0.0
 10
13.18945758109036
 20
-17.03937152024323
 30
0.0
 10
13.20344868266163
 20
-16.9736037233991
 30
0.0
 10
13.22875005962066
 20
-16.91378454959237
 30
0.0
 10
13.25405143658096
 20
-16.85396537578692
 30
0.0
 10
13.2906630889303
 20
-16.8000948250195
 30
0.0
 10
13.33590419049157
 20
-16.75485372346593
 30
0.0
 10
13.38114529205412
 20
-16.70961262191108
 30
0.0
 10
13.43501584282603
 20
-16.67300096957201
 30
0.0
 10
13.4948350166379
 20
-16.64769959262325
 30
0.0
 10
13.55465419044977
 20
-16.62239821567514
 30
0.0
 10
13.62042198729646
 20
-16.60840711411477
 30
0.0
 10
13.68945758100343
 20
-16.60840711412183
 30
0.0
 10
13.75849317471168
 20
-16.60840711412825
 30
0.0
 10
13.82426097155709
 20
-16.6223982156976
 30
0.0
 10
13.88408014536254
 20
-16.64769959265854
 30
0.0
 10
13.94389931916927
 20
-16.67300096961885
 30
0.0
 10
13.99776986993733
 20
-16.70961262196691
 30
0.0
 10
14.04301097148962
 20
-16.75485372352946
 30
0.0
 10
14.08825207304318
 20
-16.80009482509073
 30
0.0
 10
14.12486372538226
 20
-16.85396537586456
 30
0.0
 10
14.1501651023323
 20
-16.91378454967515
 30
0.0
 10
14.17546647928234
 20
-16.97360372348637
 30
0.0
 10
14.18945758084078
 20
-17.03937152033306
 30
0.0
 10
14.18945758083564
 20
-17.10840711404132
 30
0.0
 10
14.18945758082922
 20
-17.17744270774829
 30
0.0
 10
14.17546647925667
 20
-17.24321050459369
 30
0.0
 10
14.15016510229636
 20
-17.3030296783985
 30
0.0
 10
14.12486372533734
 20
-17.36284885220524
 30
0.0
 10
14.088252072988
 20
-17.41671940297394
 30
0.0
 10
14.04301097142673
 20
-17.46196050452751
 30
0.0
 10
13.99776986986418
 20
-17.50720160608107
 30
0.0
 10
13.94389931909098
 20
-17.54381325842015
 30
0.0
 10
13.88408014527912
 20
-17.5691146353689
 30
0.0
 10
13.82426097146982
 20
-17.5944160123183
 30
0.0
 10
13.75849317462185
 20
-17.60840711387738
 30
0.0
 10
13.68945758091359
 20
-17.60840711387096
 30
0.0
 10
13.62042198720662
 20
-17.60840711386519
 30
0.0
 10
13.5546541903625
 20
-17.59441601229456
 30
0.0
 10
13.49483501655448
 20
-17.56911463533361
 30
0.0
 10
13.43501584274903
 20
-17.54381325837458
 30
0.0
 10
13.38114529198225
 20
-17.50720160602653
 30
0.0
 10
13.3359041904274
 20
-17.46196050446398
 30
0.0
 10
13.29066308887512
 20
-17.41671940290271
 30
0.0
 10
13.25405143653604
 20
-17.36284885212887
 30
0.0
 10
13.22875005958601
 20
-17.30302967831701
 30
0.0
 10
13.20344868263725
 20
-17.24321050450642
 30
0.0
 10
13.18945758107753
 20
-17.17744270765845
 30
0.0
 10
13.18945758108394
 20
-17.10840711395148
 30
0.0
  0
SPLINE
  5
4F
330
49
100
AcDbEntity
  8
LAYER_1
 62
    93
100
AcDbSpline
210
0.0
220
0.0
230
1.0
 70
    11
 71
     3
 72
    53
 73
    49
 74
     0
 42
0.0000000001
 43
0.0000000001
 12
1.0
 22
0.0
 32
0.0
 13
1.0
 23
0.0
 33
0.0
 40
0.0
 40
0.0
 40
0.0
 40
0.0
 40
1.0
 40
1.0
 40
1.0
 40
2.0
 40
2.0
 40
2.0
 40
3.0
 40
3.0
 40
3.0
 40
4.0
 40
4.0
 40
4.0
 40
5.0
 40
5.0
 40
5.0
 40
6.0
 40
6.0
 40
6.0
 40
7.0
 40
7.0
 40
7.0
 40
8.0
 40
8.0
 40
8.0
 40
9.0
 40
9.0
 40
9.0
 40
10.0
 40
10.0
 40
10.0
 40
11.0
 40
11.0
 40
11.0
 40
12.0
 40
12.0
 40
12.0
 40
13.0
 40
13.0
 40
13.0
 40
14.0
 40
14.0
 40
14.0
 40
15.0
 40
15.0
 40
15.0
 40
16.0
 40
16.0
 40
16.0
 40
16.0
 10
10.64945857420347
 20
-17.10840745015878
 30
0.0
 10
10.64945857420989
 20
-17.03937185645053
 30
0.0
 10
10.66344967577923
 20
-16.97360405960641
 30
0.0
 10
10.68875105273954
 20
-16.91378488579839
 30
0.0
 10
10.71405242970049
 20
-16.85396571199358
 30
0.0
 10
10.75066408204919
 20
-16.80009516122616
 30
0.0
 10
10.79590518360917
 20
-16.75485405967324
 30
0.0
 10
10.84114628517236
 20
-16.70961295811838
 30
0.0
 10
10.89501683594492
 20
-16.67300130577995
 30
0.0
 10
10.95483600975614
 20
-16.64769992883055
 30
0.0
 10
11.01465518356801
 20
-16.6223985518818
 30
0.0
 10
11.0804229804147
 20
-16.60840745032143
 30
0.0
 10
11.14945857412167
 20
-16.60840745032785
 30
0.0
 10
11.21849416782992
 20
-16.60840745033555
 30
0.0
 10
11.28426196467533
 20
-16.6223985519049
 30
0.0
 10
11.34408113848078
 20
-16.64769992886521
 30
0.0
 10
11.40390031228815
 20
-16.67300130582615
 30
0.0
 10
11.45777086305558
 20
-16.70961295817357
 30
0.0
 10
11.50301196460978
 20
-16.75485405973612
 30
0.0
 10
11.54825306616207
 20
-16.80009516129803
 30
0.0
 10
11.58486471850178
 20
-16.85396571207187
 30
0.0
 10
11.6101660954499
 20
-16.91378488588309
 30
0.0
 10
11.63546747239994
 20
-16.97360405969368
 30
0.0
 10
11.64945857395902
 20
-17.03937185654036
 30
0.0
 10
11.6494585739526
 20
-17.10840745024862
 30
0.0
 10
11.64945857394618
 20
-17.17744304395687
 30
0.0
 10
11.63546747237555
 20
-17.243210840801
 30
0.0
 10
11.61016609541525
 20
-17.30303001460645
 30
0.0
 10
11.58486471845558
 20
-17.36284918841254
 30
0.0
 10
11.54825306610688
 20
-17.41671973917996
 30
0.0
 10
11.50301196454561
 20
-17.46196084073417
 30
0.0
 10
11.45777086298242
 20
-17.50720194228774
 30
0.0
 10
11.40390031220987
 20
-17.54381359462745
 30
0.0
 10
11.34408113839864
 20
-17.56911497157556
 30
0.0
 10
11.28426196458806
 20
-17.5944163485256
 30
0.0
 10
11.21849416774009
 20
-17.60840745008597
 30
0.0
 10
11.14945857403183
 20
-17.60840745007955
 30
0.0
 10
11.08042298032486
 20
-17.60840745007185
 30
0.0
 10
11.01465518348074
 20
-17.59441634850122
 30
0.0
 10
10.954836009674
 20
-17.56911497154091
 30
0.0
 10
10.89501683586791
 20
-17.54381359458124
 30
0.0
 10
10.84114628510049
 20
-17.50720194223255
 30
0.0
 10
10.79590518354757
 20
-17.46196084067128
 30
0.0
 10
10.750664081994
 20
-17.41671973910809
 30
0.0
 10
10.71405242965429
 20
-17.36284918833553
 30
0.0
 10
10.68875105270617
 20
-17.30303001452431
 30
0.0
 10
10.66344967575613
 20
-17.24321084071244
 30
0.0
 10
10.64945857419705
 20
-17.17744304386575
 30
0.0
 10
10.64945857420347
 20
-17.10840745015878
 30
0.0
  0
SPLINE
  5
50
330
49
100
AcDbEntity
  8
LAYER_1
 62
    93
100
AcDbSpline
210
0.0
220
0.0
230
1.0
 70
    11
 71
     3
 72
    53
 73
    49
 74
     0
 42
0.0000000001
 43
0.0000000001
 12
1.0
 22
0.0
 32
0.0
 13
1.0
 23
0.0
 33
0.0
 40
0.0
 40
0.0
 40
0.0
 40
0.0
 40
1.0
 40
1.0
 40
1.0
 40
2.0
 40
2.0
 40
2.0
 40
3.0
 40
3.0
 40
3.0
 40
4.0
 40
4.0
 40
4.0
 40
5.0
 40
5.0
 40
5.0
 40
6.0
 40
6.0
 40
6.0
 40
7.0
 40
7.0
 40
7.0
 40
8.0
 40
8.0
 40
8.0
 40
9.0
 40
9.0
 40
9.0
 40
10.0
 40
10.0
 40
10.0
 40
11.0
 40
11.0
 40
11.0
 40
12.0
 40
12.0
 40
12.0
 40
13.0
 40
13.0
 40
13.0
 40
14.0
 40
14.0
 40
14.0
 40
15.0
 40
15.0
 40
15.0
 40
16.0
 40
16.0
 40
16.0
 40
16.0
 10
15.72945784959703
 20
-17.10840711417992
 30
0.0
 10
15.72945784960216
 20
-17.03937152047295
 30
0.0
 10
15.74344895117343
 20
-16.97360372362755
 30
0.0
 10
15.76875032813374
 20
-16.91378454982145
 30
0.0
 10
15.79405170509405
 20
-16.85396537601601
 30
0.0
 10
15.83066335744339
 20
-16.8000948252473
 30
0.0
 10
15.87590445900337
 20
-16.75485372369373
 30
0.0
 10
15.92114556056592
 20
-16.70961262214081
 30
0.0
 10
15.9750161113404
 20
-16.67300096980109
 30
0.0
 10
16.03483528515099
 20
-16.64769959285298
 30
0.0
 10
16.09465445896157
 20
-16.62239821590294
 30
0.0
 10
16.16042225580954
 20
-16.60840711434386
 30
0.0
 10
16.2294578495178
 20
-16.60840711435028
 30
0.0
 10
16.29849344322477
 20
-16.60840711435541
 30
0.0
 10
16.36426124007017
 20
-16.62239821592733
 30
0.0
 10
16.42408041387562
 20
-16.64769959288635
 30
0.0
 10
16.48389958768236
 20
-16.67300096984537
 30
0.0
 10
16.53777013845042
 20
-16.70961262219471
 30
0.0
 10
16.5830112400027
 20
-16.75485372375726
 30
0.0
 10
16.62825234155755
 20
-16.80009482531917
 30
0.0
 10
16.66486399389534
 20
-16.85396537609301
 30
0.0
 10
16.69016537084538
 20
-16.91378454990424
 30
0.0
 10
16.71546674779414
 20
-16.97360372371482
 30
0.0
 10
16.72945784935386
 20
-17.03937152056279
 30
0.0
 10
16.72945784934873
 20
-17.10840711426976
 30
0.0
 10
16.72945784934102
 20
-17.17744270797673
 30
0.0
 10
16.71546674776975
 20
-17.24321050482214
 30
0.0
 10
16.69016537081073
 20
-17.30302967862759
 30
0.0
 10
16.66486399385042
 20
-17.36284885243496
 30
0.0
 10
16.62825234150108
 20
-17.41671940320238
 30
0.0
 10
16.58301123993853
 20
-17.46196050475531
 30
0.0
 10
16.53777013837855
 20
-17.50720160630888
 30
0.0
 10
16.48389958760407
 20
-17.54381325864795
 30
0.0
 10
16.4240804137922
 20
-17.5691146355967
 30
0.0
 10
16.3642612399829
 20
-17.59441601254674
 30
0.0
 10
16.29849344313493
 20
-17.60840711410711
 30
0.0
 10
16.22945784942668
 20
-17.60840711409941
 30
0.0
 10
16.1604222557197
 20
-17.60840711409299
 30
0.0
 10
16.0946544588743
 20
-17.59441601252236
 30
0.0
 10
16.03483528506757
 20
-17.56911463556205
 30
0.0
 10
15.97501611126211
 20
-17.54381325860239
 30
0.0
 10
15.92114556049405
 20
-17.50720160625369
 30
0.0
 10
15.87590445894049
 20
-17.46196050469178
 30
0.0
 10
15.83066335738692
 20
-17.41671940313051
 30
0.0
 10
15.79405170504913
 20
-17.36284885235668
 30
0.0
 10
15.76875032809909
 20
-17.30302967854481
 30
0.0
 10
15.74344895114905
 20
-17.24321050473487
 30
0.0
 10
15.72945784959061
 20
-17.17744270788818
 30
0.0
 10
15.72945784959703
 20
-17.10840711417992
 30
0.0
  0
ENDBLK
  5
4C
330
49
100
AcDbEntity
  8
0
100
AcDbBlockEnd
  0
ENDSEC
  0
SECTION
  2
ENTITIES
  0
INSERT
  5
42
330
1F
100
AcDbEntity
  8
LAYER_1
100
AcDbBlockReference
  2
BLOCK_2
 10
0.0
 20
0.0
 30
0.0
  0
INSERT
  5
4A
330
1F
100
AcDbEntity
  8
LAYER_1
100
AcDbBlockReference
  2
BLOCK_3
 10
0.0
 20
0.0
 30
0.0
  0
ENDSEC
  0
SECTION
  2
OBJECTS
  0
DICTIONARY
  5
C
330
0
100
AcDbDictionary
  3
ACAD_GROUP
350
D
  3
ACAD_LAYOUT
350
1A
  3
ACAD_MATERIAL
350
3B
  3
ACAD_MLEADERSTYLE
350
53
  3
ACAD_MLINESTYLE
350
17
  3
ACAD_PLOTSETTINGS
350
19
  3
ACAD_VISUALSTYLE
350
2A
  3
ACDBVARIABLEDICTIONARY
350
51
1001
ACAD
1000
TREAT_AS_HARD
1070
     0
  0
DICTIONARY
  5
D
102
{ACAD_REACTORS
330
C
102
}
330
C
100
AcDbDictionary
1001
ACAD
1000
TREAT_AS_HARD
1070
     0
  0
DICTIONARY
  5
1A
102
{ACAD_REACTORS
330
C
102
}
330
C
100
AcDbDictionary
1001
ACAD
1000
TREAT_AS_HARD
1070
     0
  0
DICTIONARY
  5
3B
102
{ACAD_REACTORS
330
C
102
}
330
C
100
AcDbDictionary
  3
BYBLOCK
350
3D
  3
BYLAYER
350
3C
  3
GLOBAL
350
3E
1001
ACAD
1000
TREAT_AS_HARD
1070
     0
  0
DICTIONARY
  5
53
102
{ACAD_REACTORS
330
C
102
}
330
C
100
AcDbDictionary
1001
ACAD
1000
TREAT_AS_HARD
1070
     0
  0
DICTIONARY
  5
17
102
{ACAD_REACTORS
330
C
102
}
330
C
100
AcDbDictionary
  3
STANDARD
350
18
1001
ACAD
1000
TREAT_AS_HARD
1070
     0
  0
DICTIONARY
  5
19
102
{ACAD_REACTORS
330
C
102
}
330
C
100
AcDbDictionary
1001
ACAD
1000
TREAT_AS_HARD
1070
     0
  0
DICTIONARY
  5
2A
102
{ACAD_REACTORS
330
C
102
}
330
C
100
AcDbDictionary
  3
2DWIREFRAME
350
2F
  3
3DWIREFRAME
350
30
  3
3D_HIDDEN
350
31
  3
BASIC
350
32
  3
BRIGHTEN
350
36
  3
COLORCHANGE
350
3A
  3
CONCEPTUAL
350
34
  3
DIM
350
35
  3
FACEPATTERN
350
39
  3
FLAT
350
2B
  3
FLATWITHEDGES
350
2C
  3
GOURAUD
350
2D
  3
GOURAUDWITHEDGES
350
2E
  3
LINEPATTERN
350
38
  3
REALISTIC
350
33
  3
THICKEN
350
37
1001
ACAD
1000
TREAT_AS_HARD
1070
     0
  0
DICTIONARY
  5
51
102
{ACAD_REACTORS
330
C
102
}
330
C
100
AcDbDictionary
  3
DIMASSOC
350
54
  3
HIDETEXT
350
55
1001
ACAD
1000
TREAT_AS_HARD
1070
     0
  0
MATERIAL
  5
3D
102
{ACAD_REACTORS
330
3B
102
}
102
{ACAD_XDICTIONARY
360
58
102
}
330
3B
100
AcDbMaterial
  1
ByBlock
  0
MATERIAL
  5
3C
102
{ACAD_REACTORS
330
3B
102
}
102
{ACAD_XDICTIONARY
360
56
102
}
330
3B
100
AcDbMaterial
  1
ByLayer
  0
MATERIAL
  5
3E
102
{ACAD_REACTORS
330
3B
102
}
102
{ACAD_XDICTIONARY
360
5A
102
}
330
3B
100
AcDbMaterial
  1
Global
  0
MLINESTYLE
  5
18
102
{ACAD_REACTORS
330
17
102
}
330
17
100
AcDbMlineStyle
  2
Standard
 70
     0
  3

 62
   256
 51
90.0
 52
90.0
 71
     2
 49
0.5
 62
   256
  6
BYLAYER
 49
-0.5
 62
   256
  6
BYLAYER
  0
ACAD_PROXY_OBJECT
  5
2F
102
{ACAD_REACTORS
330
2A
102
}
330
2A
100
AcDbZombieObject
 90
      499
 91
      501
 93
      436
310
42CC9915DA5C99599C985B595049028333333333333E3BF0000000000000FB0107901411070040501600405405064090741402480A0340
1001
ACAD
1000
AcDbSavedByObjectVersion
1070
     0
  0
ACAD_PROXY_OBJECT
  5
30
102
{ACAD_REACTORS
330
2A
102
}
330
2A
100
AcDbZombieObject
 90
      499
 91
      501
 93
      436
310
42CCD915DA5C99599C985B595059028333333333333E3BF0000000000000FB0107901411070040501600405405064090741402480A0340
1001
ACAD
1000
AcDbSavedByObjectVersion
1070
     0
  0
ACAD_PROXY_OBJECT
  5
31
102
{ACAD_REACTORS
330
2A
102
}
330
2A
100
AcDbZombieObject
 90
      499
 91
      501
 93
      500
310
424CD108121A5919195B90640502408333333333333E3BF0000000000000FB01079024090700405020000000000001110200405405064090740C02480A0340
1001
ACAD
1000
AcDbSavedByObjectVersion
1070
     0
  0
ACAD_PROXY_OBJECT
  5
32
102
{ACAD_REACTORS
330
2A
102
}
330
2A
100
AcDbZombieObject
 90
      499
 91
      501
 93
      388
310
4150985CDA58D07406404333333333333E3BF0000000000000FB0107A41107004050150841D405064090741402480A0350
1001
ACAD
1000
AcDbSavedByObjectVersion
1070
     0
  0
ACAD_PROXY_OBJECT
  5
36
102
{ACAD_REACTORS
330
2A
102
}
330
2A
100
AcDbZombieObject
 90
      499
 91
      501
 93
      428
310
42109C9A59DA1D195B90C409028333333333333E3BF0000000000000FB010790141107004050150841D405064090741402480A029950
1001
ACAD
1000
AcDbSavedByObjectVersion
1070
     0
  0
ACAD_PROXY_OBJECT
  5
3A
102
{ACAD_REACTORS
330
2A
102
}
330
2A
100
AcDbZombieObject
 90
      499
 91
      501
 93
      452
310
42D0DBDB1BDC90DA185B99D95104090240C333333333333E3BF0000000000000FB0108901411070040501508421405064090741402480A0350
1001
ACAD
1000
AcDbSavedByObjectVersion
1070
     0
  0
ACAD_PROXY_OBJECT
  5
34
102
{ACAD_REACTORS
330
2A
102
}
330
2A
100
AcDbZombieObject
 90
      499
 91
      501
 93
      500
310
4290DBDB98D95C1D1D585B10940D028333333333333E3BF0000000000000FB0107902409070040501000000000000111010841D405064090740C02480A0340
1001
ACAD
1000
AcDbSavedByObjectVersion
1070
     0
  0
ACAD_PROXY_OBJECT
  5
35
102
{ACAD_REACTORS
330
2A
102
}
330
2A
100
AcDbZombieObject
 90
      499
 91
      501
 93
      412
310
40D11A5B50B409028333333333333E3BF0000000000000FB010790141107004050150841D405064090741402480A02677FFFFFD0
1001
ACAD
1000
AcDbSavedByObjectVersion
1070
     0
  0
ACAD_PROXY_OBJECT
  5
39
102
{ACAD_REACTORS
330
2A
102
}
330
2A
100
AcDbZombieObject
 90
      499
 91
      501
 93
      444
310
42D19858D95C185D1D195C9B90F409028333333333333E3BF0000000000000FB010790141107004050150841D405064090741402480A0350
1001
ACAD
1000
AcDbSavedByObjectVersion
1070
     0
  0
ACAD_PROXY_OBJECT
  5
2B
102
{ACAD_REACTORS
330
2A
102
}
330
2A
100
AcDbZombieObject
 90
      499
 91
      501
 93
      388
310
41119B185D240901404333333333333E3BF0000000000000F9010740A41107004050150841D405064090741402480A1B50
1001
ACAD
1000
AcDbSavedByObjectVersion
1070
     0
  0
ACAD_PROXY_OBJECT
  5
2C
102
{ACAD_REACTORS
330
2A
102
}
330
2A
100
AcDbZombieObject
 90
      499
 91
      501
 93
      476
310
43519B185D15DA5D1A115919D95CD0140901404333333333333E3BF0000000000000F9010740901411070040501600405405064090741402480A1B50
1001
ACAD
1000
AcDbSavedByObjectVersion
1070
     0
  0
ACAD_PROXY_OBJECT
  5
2D
102
{ACAD_REACTORS
330
2A
102
}
330
2A
100
AcDbZombieObject
 90
      499
 91
      501
 93
      412
310
41D1DBDD5C985D5910240902404333333333333E3BF0000000000000F9010740A411070040501641D405064090741402480A1B50
1001
ACAD
1000
AcDbSavedByObjectVersion
1070
     0
  0
ACAD_PROXY_OBJECT
  5
2E
102
{ACAD_REACTORS
330
2A
102
}
330
2A
100
AcDbZombieObject
 90
      499
 91
      501
 93
      500
310
4411DBDD5C985D5915DA5D1A115919D95CD0340902404333333333333E3BF0000000000000F9010740901411070040501600405405064090741402480A1B50
1001
ACAD
1000
AcDbSavedByObjectVersion
1070
     0
  0
ACAD_PROXY_OBJECT
  5
38
102
{ACAD_REACTORS
330
2A
102
}
330
2A
100
AcDbZombieObject
 90
      499
 91
      501
 93
      444
310
42D31A5B995C185D1D195C9B90E409028333333333333E3BF0000000000000FB010790141107004050750841D405064090741402483A0350
1001
ACAD
1000
AcDbSavedByObjectVersion
1070
     0
  0
ACAD_PROXY_OBJECT
  5
33
102
{ACAD_REACTORS
330
2A
102
}
330
2A
100
AcDbZombieObject
 90
      499
 91
      501
 93
      420
310
425499585B1A5CDD1A58D08409028333333333333E3BF0000000000000FB01079019070040501508421405064090741402480A1B40
1001
ACAD
1000
AcDbSavedByObjectVersion
1070
     0
  0
ACAD_PROXY_OBJECT
  5
37
102
{ACAD_REACTORS
330
2A
102
}
330
2A
100
AcDbZombieObject
 90
      499
 91
      501
 93
      412
310
41D51A1A58DAD95B90D409028333333333333E3BF0000000000000FB010790141107004050150C41D405064090741402480A0350
1001
ACAD
1000
AcDbSavedByObjectVersion
1070
     0
  0
DICTIONARYVAR
  5
54
102
{ACAD_REACTORS
330
51
102
}
330
51
100
DictionaryVariables
280
     0
  1
2
  0
DICTIONARYVAR
  5
55
102
{ACAD_REACTORS
330
51
102
}
330
51
100
DictionaryVariables
280
     0
  1
1
  0
DICTIONARY
  5
58
330
3D
100
AcDbDictionary
  3
ACAD_XREC_ROUNDTRIP
360
59
1001
ACAD
1000
TREAT_AS_HARD
1070
     1
  0
DICTIONARY
  5
56
330
3C
100
AcDbDictionary
  3
ACAD_XREC_ROUNDTRIP
360
57
1001
ACAD
1000
TREAT_AS_HARD
1070
     1
  0
DICTIONARY
  5
5A
330
3E
100
AcDbDictionary
  3
ACAD_XREC_ROUNDTRIP
360
5B
1001
ACAD
1000
TREAT_AS_HARD
1070
     1
  0
XRECORD
  5
59
102
{ACAD_REACTORS
330
58
102
}
330
58
100
AcDbXrecord
102
MATERIAL
148
0.0
149
0.0
149
0.0
 93
        0
 94
      127
282
     0
 72
     1
 77
     1
171
     1
175
     1
179
     1
273
     0
  0
XRECORD
  5
57
102
{ACAD_REACTORS
330
56
102
}
330
56
100
AcDbXrecord
102
MATERIAL
148
0.0
149
0.0
149
0.0
 93
        0
 94
      127
282
     0
 72
     1
 77
     1
171
     1
175
     1
179
     1
273
     0
  0
XRECORD
  5
5B
102
{ACAD_REACTORS
330
5A
102
}
330
5A
100
AcDbXrecord
102
MATERIAL
148
0.0
149
0.0
149
0.0
 93
        0
 94
      127
282
     0
 72
     1
 77
     1
171
     1
175
     1
179
     1
273
     0
  0
ENDSEC
  0
EOF
