  0
SECTION
  2
HEADER
  9
$ACADVER
  1
AC1012
  9
$DWGCODEPAGE
  3
undefined
  9
$INSBASE
 10
0.0
 20
0.0
 30
0.0
  9
$EXTMIN
 10
1.000000000000000E+20
 20
1.000000000000000E+20
 30
1.000000000000000E+20
  9
$EXTMAX
 10
-1.000000000000000E+20
 20
-1.000000000000000E+20
 30
-1.000000000000000E+20
  9
$LIMMIN
 10
0.0
 20
0.0
  9
$LIMMAX
 10
12.0
 20
9.0
  9
$ORTHOMODE
 70
     0
  9
$REGENMODE
 70
     1
  9
$FILLMODE
 70
     1
  9
$QTEXTMODE
 70
     0
  9
$MIRRTEXT
 70
     1
  9
$DRAGMODE
 70
     2
  9
$LTSCALE
 40
1.0
  9
$OSMODE
 70
    37
  9
$ATTMODE
 70
     1
  9
$TEXTSIZE
 40
0.2
  9
$TRACEWID
 40
0.05
  9
$TEXTSTYLE
  7
STANDARD
  9
$CLAYER
  8
0
  9
$CELTYPE
  6
BYLAYER
  9
$CECOLOR
 62
   256
  9
$CELTSCALE
 40
1.0
  9
$DELOBJ
 70
     1
  9
$DISPSILH
 70
     0
  9
$DIMSCALE
 40
1.0
  9
$DIMASZ
 40
0.18
  9
$DIMEXO
 40
0.0625
  9
$DIMDLI
 40
0.38
  9
$DIMRND
 40
0.0
  9
$DIMDLE
 40
0.0
  9
$DIMEXE
 40
0.18
  9
$DIMTP
 40
0.0
  9
$DIMTM
 40
0.0
  9
$DIMTXT
 40
0.18
  9
$DIMCEN
 40
0.09
  9
$DIMTSZ
 40
0.0
  9
$DIMTOL
 70
     0
  9
$DIMLIM
 70
     0
  9
$DIMTIH
 70
     1
  9
$DIMTOH
 70
     1
  9
$DIMSE1
 70
     0
  9
$DIMSE2
 70
     0
  9
$DIMTAD
 70
     0
  9
$DIMZIN
 70
     0
  9
$DIMBLK
  1

  9
$DIMASO
 70
     1
  9
$DIMSHO
 70
     1
  9
$DIMPOST
  1

  9
$DIMAPOST
  1

  9
$DIMALT
 70
     0
  9
$DIMALTD
 70
     2
  9
$DIMALTF
 40
25.4
  9
$DIMLFAC
 40
1.0
  9
$DIMTOFL
 70
     0
  9
$DIMTVP
 40
0.0
  9
$DIMTIX
 70
     0
  9
$DIMSOXD
 70
     0
  9
$DIMSAH
 70
     0
  9
$DIMBLK1
  1

  9
$DIMBLK2
  1

  9
$DIMSTYLE
  2
STANDARD
  9
$DIMCLRD
 70
     0
  9
$DIMCLRE
 70
     0
  9
$DIMCLRT
 70
     0
  9
$DIMTFAC
 40
1.0
  9
$DIMGAP
 40
0.09
  9
$DIMJUST
 70
     0
  9
$DIMSD1
 70
     0
  9
$DIMSD2
 70
     0
  9
$DIMTOLJ
 70
     1
  9
$DIMTZIN
 70
     0
  9
$DIMALTZ
 70
     0
  9
$DIMALTTZ
 70
     0
  9
$DIMFIT
 70
     3
  9
$DIMUPT
 70
     0
  9
$DIMUNIT
 70
     2
  9
$DIMDEC
 70
     4
  9
$DIMTDEC
 70
     4
  9
$DIMALTU
 70
     2
  9
$DIMALTTD
 70
     2
  9
$DIMTXSTY
  7
STANDARD
  9
$DIMAUNIT
 70
     0
  9
$LUNITS
 70
     2
  9
$LUPREC
 70
     4
  9
$SKETCHINC
 40
0.1
  9
$FILLETRAD
 40
0.5
  9
$AUNITS
 70
     0
  9
$AUPREC
 70
     0
  9
$MENU
  1
.
  9
$ELEVATION
 40
0.0
  9
$PELEVATION
 40
0.0
  9
$THICKNESS
 40
0.0
  9
$LIMCHECK
 70
     0
  9
$CHAMFERA
 40
0.5
  9
$CHAMFERB
 40
0.5
  9
$CHAMFERC
 40
1.0
  9
$CHAMFERD
 40
0.0
  9
$SKPOLY
 70
     0
  9
$TDCREATE
 40
2457439.742708322
  9
$TDUPDATE
 40
2457439.742708322
  9
$TDINDWG
 40
0.0000000116
  9
$TDUSRTIMER
 40
0.0000000116
  9
$USRTIMER
 70
     1
  9
$ANGBASE
 50
0.0
  9
$ANGDIR
 70
     0
  9
$PDMODE
 70
     0
  9
$PDSIZE
 40
0.0
  9
$PLINEWID
 40
0.0
  9
$COORDS
 70
     1
  9
$SPLFRAME
 70
     0
  9
$SPLINETYPE
 70
     6
  9
$SPLINESEGS
 70
     8
  9
$ATTDIA
 70
     0
  9
$ATTREQ
 70
     1
  9
$HANDLING
 70
     1
  9
$HANDSEED
  5
4E
  9
$SURFTAB1
 70
     6
  9
$SURFTAB2
 70
     6
  9
$SURFTYPE
 70
     6
  9
$SURFU
 70
     6
  9
$SURFV
 70
     6
  9
$UCSNAME
  2

  9
$UCSORG
 10
0.0
 20
0.0
 30
0.0
  9
$UCSXDIR
 10
1.0
 20
0.0
 30
0.0
  9
$UCSYDIR
 10
0.0
 20
1.0
 30
0.0
  9
$PUCSNAME
  2

  9
$PUCSORG
 10
0.0
 20
0.0
 30
0.0
  9
$PUCSXDIR
 10
1.0
 20
0.0
 30
0.0
  9
$PUCSYDIR
 10
0.0
 20
1.0
 30
0.0
  9
$USERI1
 70
     0
  9
$USERI2
 70
     0
  9
$USERI3
 70
     0
  9
$USERI4
 70
     0
  9
$USERI5
 70
     0
  9
$USERR1
 40
0.0
  9
$USERR2
 40
0.0
  9
$USERR3
 40
0.0
  9
$USERR4
 40
0.0
  9
$USERR5
 40
0.0
  9
$WORLDVIEW
 70
     1
  9
$SHADEDGE
 70
     3
  9
$SHADEDIF
 70
    70
  9
$TILEMODE
 70
     1
  9
$MAXACTVP
 70
    64
  9
$PINSBASE
 10
0.0
 20
0.0
 30
0.0
  9
$PLIMCHECK
 70
     0
  9
$PEXTMIN
 10
1.000000000000000E+20
 20
1.000000000000000E+20
 30
1.000000000000000E+20
  9
$PEXTMAX
 10
-1.000000000000000E+20
 20
-1.000000000000000E+20
 30
-1.000000000000000E+20
  9
$PLIMMIN
 10
0.0
 20
0.0
  9
$PLIMMAX
 10
12.0
 20
9.0
  9
$UNITMODE
 70
     0
  9
$VISRETAIN
 70
     1
  9
$PLINEGEN
 70
     0
  9
$PSLTSCALE
 70
     1
  9
$TREEDEPTH
 70
  3020
  9
$PICKSTYLE
 70
     1
  9
$CMLSTYLE
  2
STANDARD
  9
$CMLJUST
 70
     0
  9
$CMLSCALE
 40
1.0
  9
$SAVEIMAGES
 70
     1
  0
ENDSEC
  0
SECTION
  2
CLASSES
  0
CLASS
  1
ACDBDICTIONARYWDFLT
  2
AcDbDictionaryWithDefault
  3
ObjectDBX Classes
 90
    32768
280
     0
281
     0
  0
CLASS
  1
VISUALSTYLE
  2
AcDbVisualStyle
  3
ObjectDBX Classes
 90
     4095
280
     0
281
     0
  0
CLASS
  1
MATERIAL
  2
AcDbMaterial
  3
ObjectDBX Classes
 90
     1153
280
     0
281
     0
  0
CLASS
  1
SUN
  2
AcDbSun
  3
SCENEOE
 90
     1024
280
     0
281
     0
  0
CLASS
  1
DICTIONARYVAR
  2
AcDbDictionaryVar
  3
ObjectDBX Classes
 90
        0
280
     0
281
     0
  0
CLASS
  1
XRECORD
  2
AcDbXrecord
  3
AutoCAD 2000
 90
    32768
280
     0
281
     0
  0
CLASS
  1
LWPOLYLINE
  2
AcDbPolyline
  3
AutoCAD 2000
 90
    32768
280
     0
281
     1
  0
CLASS
  1
HATCH
  2
AcDbHatch
  3
AutoCAD 2000
 90
    32768
280
     0
281
     1
  0
CLASS
  1
ACDBPLACEHOLDER
  2
AcDbPlaceHolder
  3
ObjectDBX Classes
 90
        0
280
     0
281
     0
  0
CLASS
  1
LAYOUT
  2
AcDbLayout
  3
ObjectDBX Classes
 90
        0
280
     0
281
     0
  0
ENDSEC
  0
SECTION
  2
TABLES
  0
TABLE
  2
VPORT
  5
8
330
0
100
AcDbSymbolTable
 70
     1
  0
VPORT
  5
29
330
8
100
AcDbSymbolTableRecord
100
AcDbViewportTableRecord
  2
*ACTIVE
 70
     0
 10
0.0
 20
0.0
 11
1.0
 21
1.0
 12
0.0
 22
0.0
 13
0.0
 23
0.0
 14
0.5
 24
0.5
 15
0.5
 25
0.5
 16
0.0
 26
0.0
 36
1.0
 17
11.99973610811129
 27
-10.99961110836131
 37
0.0
 40
21.99922221672262
 41
1.090923669018602
 42
50.0
 43
0.0
 44
0.0
 50
0.0
 51
0.0
 71
     0
 72
   100
 73
     1
 74
     3
 75
     0
 76
     0
 77
     0
 78
     0
  0
ENDTAB
  0
TABLE
  2
LTYPE
  5
5
330
0
100
AcDbSymbolTable
 70
     2
  0
LTYPE
  5
14
330
5
100
AcDbSymbolTableRecord
100
AcDbLinetypeTableRecord
  2
BYBLOCK
 70
     0
  3

 72
    65
 73
     0
 40
0.0
  0
LTYPE
  5
15
330
5
100
AcDbSymbolTableRecord
100
AcDbLinetypeTableRecord
  2
BYLAYER
 70
     0
  3

 72
    65
 73
     0
 40
0.0
  0
LTYPE
  5
16
330
5
100
AcDbSymbolTableRecord
100
AcDbLinetypeTableRecord
  2
CONTINUOUS
 70
     0
  3
Solid line
 72
    65
 73
     0
 40
0.0
  0
LTYPE
  5
42
330
5
100
AcDbSymbolTableRecord
100
AcDbLinetypeTableRecord
  2
AI-LINETYPE-1
 70
     0
  3
Adobe Illustrator Linetype No. 1
 72
    65
 73
     2
 40
0.529166666534375
 49
0.1763888888447917
 74
     0
 49
-0.3527777776895833
 74
     0
  0
ENDTAB
  0
TABLE
  2
LAYER
  5
2
330
0
100
AcDbSymbolTable
 70
     2
  0
LAYER
  5
10
330
2
100
AcDbSymbolTableRecord
100
AcDbLayerTableRecord
  2
0
 70
     0
 62
     7
  6
CONTINUOUS
  0
LAYER
  5
40
330
2
100
AcDbSymbolTableRecord
100
AcDbLayerTableRecord
  2
LAYER_1
 70
     0
 62
     7
  6
CONTINUOUS
  0
ENDTAB
  0
TABLE
  2
STYLE
  5
3
330
0
100
AcDbSymbolTable
 70
     1
  0
STYLE
  5
11
330
3
100
AcDbSymbolTableRecord
100
AcDbTextStyleTableRecord
  2
STANDARD
 70
     0
 40
0.0
 41
1.0
 50
0.0
 71
     0
 42
0.2
  3
txt
  4

  0
ENDTAB
  0
TABLE
  2
VIEW
  5
6
330
0
100
AcDbSymbolTable
 70
     0
  0
ENDTAB
  0
TABLE
  2
UCS
  5
7
330
0
100
AcDbSymbolTable
 70
     0
  0
ENDTAB
  0
TABLE
  2
APPID
  5
9
330
0
100
AcDbSymbolTable
 70
     1
  0
APPID
  5
12
330
9
100
AcDbSymbolTableRecord
100
AcDbRegAppTableRecord
  2
ACAD
 70
     0
  0
ENDTAB
  0
TABLE
  2
DIMSTYLE
  5
A
330
0
100
AcDbSymbolTable
 70
     1
  0
DIMSTYLE
105
27
330
A
100
AcDbSymbolTableRecord
100
AcDbDimStyleTableRecord
  2
STANDARD
 70
     0
  3

  4

  5

  6

  7

 40
1.0
 41
0.18
 42
0.0625
 43
0.38
 44
0.18
 45
0.0
 46
0.0
 47
0.0
 48
0.0
140
0.18
141
0.09
142
0.0
143
25.4
144
1.0
145
0.0
146
1.0
147
0.09
 71
     0
 72
     0
 73
     1
 74
     1
 75
     0
 76
     0
 77
     0
 78
     0
170
     0
171
     2
172
     0
173
     0
174
     0
175
     0
176
     0
177
     0
178
     0
270
     2
271
     4
272
     4
273
     2
274
     2
340
11
275
     0
280
     0
281
     0
282
     0
283
     1
284
     0
285
     0
286
     0
287
     3
288
     0
  0
ENDTAB
  0
TABLE
  2
BLOCK_RECORD
  5
1
330
0
100
AcDbSymbolTable
 70
     1
  0
BLOCK_RECORD
  5
1F
330
1
100
AcDbSymbolTableRecord
100
AcDbBlockTableRecord
  2
*MODEL_SPACE
  0
BLOCK_RECORD
  5
1B
330
1
100
AcDbSymbolTableRecord
100
AcDbBlockTableRecord
  2
*PAPER_SPACE
  0
ENDTAB
  0
ENDSEC
  0
SECTION
  2
BLOCKS
  0
BLOCK
  5
20
330
1F
100
AcDbEntity
  8
0
100
AcDbBlockBegin
  2
*MODEL_SPACE
 70
     0
 10
0.0
 20
0.0
 30
0.0
  3
*MODEL_SPACE
  1

  0
ENDBLK
  5
21
330
1F
100
AcDbEntity
  8
0
100
AcDbBlockEnd
  0
BLOCK
  5
1C
330
1B
100
AcDbEntity
 67
     1
  8
0
100
AcDbBlockBegin
  2
*PAPER_SPACE
 70
     0
 10
0.0
 20
0.0
 30
0.0
  3
*PAPER_SPACE
  1

  0
ENDBLK
  5
1D
330
1B
100
AcDbEntity
 67
     1
  8
0
100
AcDbBlockEnd
  0
ENDSEC
  0
SECTION
  2
ENTITIES
  0
SPLINE
  5
41
330
1F
100
AcDbEntity
  8
LAYER_1
  6
AI-LINETYPE-1
 62
   250
100
AcDbSpline
210
0.0
220
0.0
230
1.0
 70
    11
 71
     3
 72
  1541
 73
  1537
 74
     0
 42
0.0000000001
 43
0.0000000001
 12
1.0
 22
0.0
 32
0.0
 13
1.0
 23
0.0
 33
0.0
 40
0.0
 40
0.0
 40
0.0
 40
0.0
 40
1.0
 40
1.0
 40
1.0
 40
2.0
 40
2.0
 40
2.0
 40
3.0
 40
3.0
 40
3.0
 40
4.0
 40
4.0
 40
4.0
 40
5.0
 40
5.0
 40
5.0
 40
6.0
 40
6.0
 40
6.0
 40
7.0
 40
7.0
 40
7.0
 40
8.0
 40
8.0
 40
8.0
 40
9.0
 40
9.0
 40
9.0
 40
10.0
 40
10.0
 40
10.0
 40
11.0
 40
11.0
 40
11.0
 40
12.0
 40
12.0
 40
12.0
 40
13.0
 40
13.0
 40
13.0
 40
14.0
 40
14.0
 40
14.0
 40
15.0
 40
15.0
 40
15.0
 40
16.0
 40
16.0
 40
16.0
 40
17.0
 40
17.0
 40
17.0
 40
18.0
 40
18.0
 40
18.0
 40
19.0
 40
19.0
 40
19.0
 40
20.0
 40
20.0
 40
20.0
 40
21.0
 40
21.0
 40
21.0
 40
22.0
 40
22.0
 40
22.0
 40
23.0
 40
23.0
 40
23.0
 40
24.0
 40
24.0
 40
24.0
 40
25.0
 40
25.0
 40
25.0
 40
26.0
 40
26.0
 40
26.0
 40
27.0
 40
27.0
 40
27.0
 40
28.0
 40
28.0
 40
28.0
 40
29.0
 40
29.0
 40
29.0
 40
30.0
 40
30.0
 40
30.0
 40
31.0
 40
31.0
 40
31.0
 40
32.0
 40
32.0
 40
32.0
 40
33.0
 40
33.0
 40
33.0
 40
34.0
 40
34.0
 40
34.0
 40
35.0
 40
35.0
 40
35.0
 40
36.0
 40
36.0
 40
36.0
 40
37.0
 40
37.0
 40
37.0
 40
38.0
 40
38.0
 40
38.0
 40
39.0
 40
39.0
 40
39.0
 40
40.0
 40
40.0
 40
40.0
 40
41.0
 40
41.0
 40
41.0
 40
42.0
 40
42.0
 40
42.0
 40
43.0
 40
43.0
 40
43.0
 40
44.0
 40
44.0
 40
44.0
 40
45.0
 40
45.0
 40
45.0
 40
46.0
 40
46.0
 40
46.0
 40
47.0
 40
47.0
 40
47.0
 40
48.0
 40
48.0
 40
48.0
 40
49.0
 40
49.0
 40
49.0
 40
50.0
 40
50.0
 40
50.0
 40
51.0
 40
51.0
 40
51.0
 40
52.0
 40
52.0
 40
52.0
 40
53.0
 40
53.0
 40
53.0
 40
54.0
 40
54.0
 40
54.0
 40
55.0
 40
55.0
 40
55.0
 40
56.0
 40
56.0
 40
56.0
 40
57.0
 40
57.0
 40
57.0
 40
58.0
 40
58.0
 40
58.0
 40
59.0
 40
59.0
 40
59.0
 40
60.0
 40
60.0
 40
60.0
 40
61.0
 40
61.0
 40
61.0
 40
62.0
 40
62.0
 40
62.0
 40
63.0
 40
63.0
 40
63.0
 40
64.0
 40
64.0
 40
64.0
 40
65.0
 40
65.0
 40
65.0
 40
66.0
 40
66.0
 40
66.0
 40
67.0
 40
67.0
 40
67.0
 40
68.0
 40
68.0
 40
68.0
 40
69.0
 40
69.0
 40
69.0
 40
70.0
 40
70.0
 40
70.0
 40
71.0
 40
71.0
 40
71.0
 40
72.0
 40
72.0
 40
72.0
 40
73.0
 40
73.0
 40
73.0
 40
74.0
 40
74.0
 40
74.0
 40
75.0
 40
75.0
 40
75.0
 40
76.0
 40
76.0
 40
76.0
 40
77.0
 40
77.0
 40
77.0
 40
78.0
 40
78.0
 40
78.0
 40
79.0
 40
79.0
 40
79.0
 40
80.0
 40
80.0
 40
80.0
 40
81.0
 40
81.0
 40
81.0
 40
82.0
 40
82.0
 40
82.0
 40
83.0
 40
83.0
 40
83.0
 40
84.0
 40
84.0
 40
84.0
 40
85.0
 40
85.0
 40
85.0
 40
86.0
 40
86.0
 40
86.0
 40
87.0
 40
87.0
 40
87.0
 40
88.0
 40
88.0
 40
88.0
 40
89.0
 40
89.0
 40
89.0
 40
90.0
 40
90.0
 40
90.0
 40
91.0
 40
91.0
 40
91.0
 40
92.0
 40
92.0
 40
92.0
 40
93.0
 40
93.0
 40
93.0
 40
94.0
 40
94.0
 40
94.0
 40
95.0
 40
95.0
 40
95.0
 40
96.0
 40
96.0
 40
96.0
 40
97.0
 40
97.0
 40
97.0
 40
98.0
 40
98.0
 40
98.0
 40
99.0
 40
99.0
 40
99.0
 40
100.0
 40
100.0
 40
100.0
 40
101.0
 40
101.0
 40
101.0
 40
102.0
 40
102.0
 40
102.0
 40
103.0
 40
103.0
 40
103.0
 40
104.0
 40
104.0
 40
104.0
 40
105.0
 40
105.0
 40
105.0
 40
106.0
 40
106.0
 40
106.0
 40
107.0
 40
107.0
 40
107.0
 40
108.0
 40
108.0
 40
108.0
 40
109.0
 40
109.0
 40
109.0
 40
110.0
 40
110.0
 40
110.0
 40
111.0
 40
111.0
 40
111.0
 40
112.0
 40
112.0
 40
112.0
 40
113.0
 40
113.0
 40
113.0
 40
114.0
 40
114.0
 40
114.0
 40
115.0
 40
115.0
 40
115.0
 40
116.0
 40
116.0
 40
116.0
 40
117.0
 40
117.0
 40
117.0
 40
118.0
 40
118.0
 40
118.0
 40
119.0
 40
119.0
 40
119.0
 40
120.0
 40
120.0
 40
120.0
 40
121.0
 40
121.0
 40
121.0
 40
122.0
 40
122.0
 40
122.0
 40
123.0
 40
123.0
 40
123.0
 40
124.0
 40
124.0
 40
124.0
 40
125.0
 40
125.0
 40
125.0
 40
126.0
 40
126.0
 40
126.0
 40
127.0
 40
127.0
 40
127.0
 40
128.0
 40
128.0
 40
128.0
 40
129.0
 40
129.0
 40
129.0
 40
130.0
 40
130.0
 40
130.0
 40
131.0
 40
131.0
 40
131.0
 40
132.0
 40
132.0
 40
132.0
 40
133.0
 40
133.0
 40
133.0
 40
134.0
 40
134.0
 40
134.0
 40
135.0
 40
135.0
 40
135.0
 40
136.0
 40
136.0
 40
136.0
 40
137.0
 40
137.0
 40
137.0
 40
138.0
 40
138.0
 40
138.0
 40
139.0
 40
139.0
 40
139.0
 40
140.0
 40
140.0
 40
140.0
 40
141.0
 40
141.0
 40
141.0
 40
142.0
 40
142.0
 40
142.0
 40
143.0
 40
143.0
 40
143.0
 40
144.0
 40
144.0
 40
144.0
 40
145.0
 40
145.0
 40
145.0
 40
146.0
 40
146.0
 40
146.0
 40
147.0
 40
147.0
 40
147.0
 40
148.0
 40
148.0
 40
148.0
 40
149.0
 40
149.0
 40
149.0
 40
150.0
 40
150.0
 40
150.0
 40
151.0
 40
151.0
 40
151.0
 40
152.0
 40
152.0
 40
152.0
 40
153.0
 40
153.0
 40
153.0
 40
154.0
 40
154.0
 40
154.0
 40
155.0
 40
155.0
 40
155.0
 40
156.0
 40
156.0
 40
156.0
 40
157.0
 40
157.0
 40
157.0
 40
158.0
 40
158.0
 40
158.0
 40
159.0
 40
159.0
 40
159.0
 40
160.0
 40
160.0
 40
160.0
 40
161.0
 40
161.0
 40
161.0
 40
162.0
 40
162.0
 40
162.0
 40
163.0
 40
163.0
 40
163.0
 40
164.0
 40
164.0
 40
164.0
 40
165.0
 40
165.0
 40
165.0
 40
166.0
 40
166.0
 40
166.0
 40
167.0
 40
167.0
 40
167.0
 40
168.0
 40
168.0
 40
168.0
 40
169.0
 40
169.0
 40
169.0
 40
170.0
 40
170.0
 40
170.0
 40
171.0
 40
171.0
 40
171.0
 40
172.0
 40
172.0
 40
172.0
 40
173.0
 40
173.0
 40
173.0
 40
174.0
 40
174.0
 40
174.0
 40
175.0
 40
175.0
 40
175.0
 40
176.0
 40
176.0
 40
176.0
 40
177.0
 40
177.0
 40
177.0
 40
178.0
 40
178.0
 40
178.0
 40
179.0
 40
179.0
 40
179.0
 40
180.0
 40
180.0
 40
180.0
 40
181.0
 40
181.0
 40
181.0
 40
182.0
 40
182.0
 40
182.0
 40
183.0
 40
183.0
 40
183.0
 40
184.0
 40
184.0
 40
184.0
 40
185.0
 40
185.0
 40
185.0
 40
186.0
 40
186.0
 40
186.0
 40
187.0
 40
187.0
 40
187.0
 40
188.0
 40
188.0
 40
188.0
 40
189.0
 40
189.0
 40
189.0
 40
190.0
 40
190.0
 40
190.0
 40
191.0
 40
191.0
 40
191.0
 40
192.0
 40
192.0
 40
192.0
 40
193.0
 40
193.0
 40
193.0
 40
194.0
 40
194.0
 40
194.0
 40
195.0
 40
195.0
 40
195.0
 40
196.0
 40
196.0
 40
196.0
 40
197.0
 40
197.0
 40
197.0
 40
198.0
 40
198.0
 40
198.0
 40
199.0
 40
199.0
 40
199.0
 40
200.0
 40
200.0
 40
200.0
 40
201.0
 40
201.0
 40
201.0
 40
202.0
 40
202.0
 40
202.0
 40
203.0
 40
203.0
 40
203.0
 40
204.0
 40
204.0
 40
204.0
 40
205.0
 40
205.0
 40
205.0
 40
206.0
 40
206.0
 40
206.0
 40
207.0
 40
207.0
 40
207.0
 40
208.0
 40
208.0
 40
208.0
 40
209.0
 40
209.0
 40
209.0
 40
210.0
 40
210.0
 40
210.0
 40
211.0
 40
211.0
 40
211.0
 40
212.0
 40
212.0
 40
212.0
 40
213.0
 40
213.0
 40
213.0
 40
214.0
 40
214.0
 40
214.0
 40
215.0
 40
215.0
 40
215.0
 40
216.0
 40
216.0
 40
216.0
 40
217.0
 40
217.0
 40
217.0
 40
218.0
 40
218.0
 40
218.0
 40
219.0
 40
219.0
 40
219.0
 40
220.0
 40
220.0
 40
220.0
 40
221.0
 40
221.0
 40
221.0
 40
222.0
 40
222.0
 40
222.0
 40
223.0
 40
223.0
 40
223.0
 40
224.0
 40
224.0
 40
224.0
 40
225.0
 40
225.0
 40
225.0
 40
226.0
 40
226.0
 40
226.0
 40
227.0
 40
227.0
 40
227.0
 40
228.0
 40
228.0
 40
228.0
 40
229.0
 40
229.0
 40
229.0
 40
230.0
 40
230.0
 40
230.0
 40
231.0
 40
231.0
 40
231.0
 40
232.0
 40
232.0
 40
232.0
 40
233.0
 40
233.0
 40
233.0
 40
234.0
 40
234.0
 40
234.0
 40
235.0
 40
235.0
 40
235.0
 40
236.0
 40
236.0
 40
236.0
 40
237.0
 40
237.0
 40
237.0
 40
238.0
 40
238.0
 40
238.0
 40
239.0
 40
239.0
 40
239.0
 40
240.0
 40
240.0
 40
240.0
 40
241.0
 40
241.0
 40
241.0
 40
242.0
 40
242.0
 40
242.0
 40
243.0
 40
243.0
 40
243.0
 40
244.0
 40
244.0
 40
244.0
 40
245.0
 40
245.0
 40
245.0
 40
246.0
 40
246.0
 40
246.0
 40
247.0
 40
247.0
 40
247.0
 40
248.0
 40
248.0
 40
248.0
 40
249.0
 40
249.0
 40
249.0
 40
250.0
 40
250.0
 40
250.0
 40
251.0
 40
251.0
 40
251.0
 40
252.0
 40
252.0
 40
252.0
 40
253.0
 40
253.0
 40
253.0
 40
254.0
 40
254.0
 40
254.0
 40
255.0
 40
255.0
 40
255.0
 40
256.0
 40
256.0
 40
256.0
 40
257.0
 40
257.0
 40
257.0
 40
258.0
 40
258.0
 40
258.0
 40
259.0
 40
259.0
 40
259.0
 40
260.0
 40
260.0
 40
260.0
 40
261.0
 40
261.0
 40
261.0
 40
262.0
 40
262.0
 40
262.0
 40
263.0
 40
263.0
 40
263.0
 40
264.0
 40
264.0
 40
264.0
 40
265.0
 40
265.0
 40
265.0
 40
266.0
 40
266.0
 40
266.0
 40
267.0
 40
267.0
 40
267.0
 40
268.0
 40
268.0
 40
268.0
 40
269.0
 40
269.0
 40
269.0
 40
270.0
 40
270.0
 40
270.0
 40
271.0
 40
271.0
 40
271.0
 40
272.0
 40
272.0
 40
272.0
 40
273.0
 40
273.0
 40
273.0
 40
274.0
 40
274.0
 40
274.0
 40
275.0
 40
275.0
 40
275.0
 40
276.0
 40
276.0
 40
276.0
 40
277.0
 40
277.0
 40
277.0
 40
278.0
 40
278.0
 40
278.0
 40
279.0
 40
279.0
 40
279.0
 40
280.0
 40
280.0
 40
280.0
 40
281.0
 40
281.0
 40
281.0
 40
282.0
 40
282.0
 40
282.0
 40
283.0
 40
283.0
 40
283.0
 40
284.0
 40
284.0
 40
284.0
 40
285.0
 40
285.0
 40
285.0
 40
286.0
 40
286.0
 40
286.0
 40
287.0
 40
287.0
 40
287.0
 40
288.0
 40
288.0
 40
288.0
 40
289.0
 40
289.0
 40
289.0
 40
290.0
 40
290.0
 40
290.0
 40
291.0
 40
291.0
 40
291.0
 40
292.0
 40
292.0
 40
292.0
 40
293.0
 40
293.0
 40
293.0
 40
294.0
 40
294.0
 40
294.0
 40
295.0
 40
295.0
 40
295.0
 40
296.0
 40
296.0
 40
296.0
 40
297.0
 40
297.0
 40
297.0
 40
298.0
 40
298.0
 40
298.0
 40
299.0
 40
299.0
 40
299.0
 40
300.0
 40
300.0
 40
300.0
 40
301.0
 40
301.0
 40
301.0
 40
302.0
 40
302.0
 40
302.0
 40
303.0
 40
303.0
 40
303.0
 40
304.0
 40
304.0
 40
304.0
 40
305.0
 40
305.0
 40
305.0
 40
306.0
 40
306.0
 40
306.0
 40
307.0
 40
307.0
 40
307.0
 40
308.0
 40
308.0
 40
308.0
 40
309.0
 40
309.0
 40
309.0
 40
310.0
 40
310.0
 40
310.0
 40
311.0
 40
311.0
 40
311.0
 40
312.0
 40
312.0
 40
312.0
 40
313.0
 40
313.0
 40
313.0
 40
314.0
 40
314.0
 40
314.0
 40
315.0
 40
315.0
 40
315.0
 40
316.0
 40
316.0
 40
316.0
 40
317.0
 40
317.0
 40
317.0
 40
318.0
 40
318.0
 40
318.0
 40
319.0
 40
319.0
 40
319.0
 40
320.0
 40
320.0
 40
320.0
 40
321.0
 40
321.0
 40
321.0
 40
322.0
 40
322.0
 40
322.0
 40
323.0
 40
323.0
 40
323.0
 40
324.0
 40
324.0
 40
324.0
 40
325.0
 40
325.0
 40
325.0
 40
326.0
 40
326.0
 40
326.0
 40
327.0
 40
327.0
 40
327.0
 40
328.0
 40
328.0
 40
328.0
 40
329.0
 40
329.0
 40
329.0
 40
330.0
 40
330.0
 40
330.0
 40
331.0
 40
331.0
 40
331.0
 40
332.0
 40
332.0
 40
332.0
 40
333.0
 40
333.0
 40
333.0
 40
334.0
 40
334.0
 40
334.0
 40
335.0
 40
335.0
 40
335.0
 40
336.0
 40
336.0
 40
336.0
 40
337.0
 40
337.0
 40
337.0
 40
338.0
 40
338.0
 40
338.0
 40
339.0
 40
339.0
 40
339.0
 40
340.0
 40
340.0
 40
340.0
 40
341.0
 40
341.0
 40
341.0
 40
342.0
 40
342.0
 40
342.0
 40
343.0
 40
343.0
 40
343.0
 40
344.0
 40
344.0
 40
344.0
 40
345.0
 40
345.0
 40
345.0
 40
346.0
 40
346.0
 40
346.0
 40
347.0
 40
347.0
 40
347.0
 40
348.0
 40
348.0
 40
348.0
 40
349.0
 40
349.0
 40
349.0
 40
350.0
 40
350.0
 40
350.0
 40
351.0
 40
351.0
 40
351.0
 40
352.0
 40
352.0
 40
352.0
 40
353.0
 40
353.0
 40
353.0
 40
354.0
 40
354.0
 40
354.0
 40
355.0
 40
355.0
 40
355.0
 40
356.0
 40
356.0
 40
356.0
 40
357.0
 40
357.0
 40
357.0
 40
358.0
 40
358.0
 40
358.0
 40
359.0
 40
359.0
 40
359.0
 40
360.0
 40
360.0
 40
360.0
 40
361.0
 40
361.0
 40
361.0
 40
362.0
 40
362.0
 40
362.0
 40
363.0
 40
363.0
 40
363.0
 40
364.0
 40
364.0
 40
364.0
 40
365.0
 40
365.0
 40
365.0
 40
366.0
 40
366.0
 40
366.0
 40
367.0
 40
367.0
 40
367.0
 40
368.0
 40
368.0
 40
368.0
 40
369.0
 40
369.0
 40
369.0
 40
370.0
 40
370.0
 40
370.0
 40
371.0
 40
371.0
 40
371.0
 40
372.0
 40
372.0
 40
372.0
 40
373.0
 40
373.0
 40
373.0
 40
374.0
 40
374.0
 40
374.0
 40
375.0
 40
375.0
 40
375.0
 40
376.0
 40
376.0
 40
376.0
 40
377.0
 40
377.0
 40
377.0
 40
378.0
 40
378.0
 40
378.0
 40
379.0
 40
379.0
 40
379.0
 40
380.0
 40
380.0
 40
380.0
 40
381.0
 40
381.0
 40
381.0
 40
382.0
 40
382.0
 40
382.0
 40
383.0
 40
383.0
 40
383.0
 40
384.0
 40
384.0
 40
384.0
 40
385.0
 40
385.0
 40
385.0
 40
386.0
 40
386.0
 40
386.0
 40
387.0
 40
387.0
 40
387.0
 40
388.0
 40
388.0
 40
388.0
 40
389.0
 40
389.0
 40
389.0
 40
390.0
 40
390.0
 40
390.0
 40
391.0
 40
391.0
 40
391.0
 40
392.0
 40
392.0
 40
392.0
 40
393.0
 40
393.0
 40
393.0
 40
394.0
 40
394.0
 40
394.0
 40
395.0
 40
395.0
 40
395.0
 40
396.0
 40
396.0
 40
396.0
 40
397.0
 40
397.0
 40
397.0
 40
398.0
 40
398.0
 40
398.0
 40
399.0
 40
399.0
 40
399.0
 40
400.0
 40
400.0
 40
400.0
 40
401.0
 40
401.0
 40
401.0
 40
402.0
 40
402.0
 40
402.0
 40
403.0
 40
403.0
 40
403.0
 40
404.0
 40
404.0
 40
404.0
 40
405.0
 40
405.0
 40
405.0
 40
406.0
 40
406.0
 40
406.0
 40
407.0
 40
407.0
 40
407.0
 40
408.0
 40
408.0
 40
408.0
 40
409.0
 40
409.0
 40
409.0
 40
410.0
 40
410.0
 40
410.0
 40
411.0
 40
411.0
 40
411.0
 40
412.0
 40
412.0
 40
412.0
 40
413.0
 40
413.0
 40
413.0
 40
414.0
 40
414.0
 40
414.0
 40
415.0
 40
415.0
 40
415.0
 40
416.0
 40
416.0
 40
416.0
 40
417.0
 40
417.0
 40
417.0
 40
418.0
 40
418.0
 40
418.0
 40
419.0
 40
419.0
 40
419.0
 40
420.0
 40
420.0
 40
420.0
 40
421.0
 40
421.0
 40
421.0
 40
422.0
 40
422.0
 40
422.0
 40
423.0
 40
423.0
 40
423.0
 40
424.0
 40
424.0
 40
424.0
 40
425.0
 40
425.0
 40
425.0
 40
426.0
 40
426.0
 40
426.0
 40
427.0
 40
427.0
 40
427.0
 40
428.0
 40
428.0
 40
428.0
 40
429.0
 40
429.0
 40
429.0
 40
430.0
 40
430.0
 40
430.0
 40
431.0
 40
431.0
 40
431.0
 40
432.0
 40
432.0
 40
432.0
 40
433.0
 40
433.0
 40
433.0
 40
434.0
 40
434.0
 40
434.0
 40
435.0
 40
435.0
 40
435.0
 40
436.0
 40
436.0
 40
436.0
 40
437.0
 40
437.0
 40
437.0
 40
438.0
 40
438.0
 40
438.0
 40
439.0
 40
439.0
 40
439.0
 40
440.0
 40
440.0
 40
440.0
 40
441.0
 40
441.0
 40
441.0
 40
442.0
 40
442.0
 40
442.0
 40
443.0
 40
443.0
 40
443.0
 40
444.0
 40
444.0
 40
444.0
 40
445.0
 40
445.0
 40
445.0
 40
446.0
 40
446.0
 40
446.0
 40
447.0
 40
447.0
 40
447.0
 40
448.0
 40
448.0
 40
448.0
 40
449.0
 40
449.0
 40
449.0
 40
450.0
 40
450.0
 40
450.0
 40
451.0
 40
451.0
 40
451.0
 40
452.0
 40
452.0
 40
452.0
 40
453.0
 40
453.0
 40
453.0
 40
454.0
 40
454.0
 40
454.0
 40
455.0
 40
455.0
 40
455.0
 40
456.0
 40
456.0
 40
456.0
 40
457.0
 40
457.0
 40
457.0
 40
458.0
 40
458.0
 40
458.0
 40
459.0
 40
459.0
 40
459.0
 40
460.0
 40
460.0
 40
460.0
 40
461.0
 40
461.0
 40
461.0
 40
462.0
 40
462.0
 40
462.0
 40
463.0
 40
463.0
 40
463.0
 40
464.0
 40
464.0
 40
464.0
 40
465.0
 40
465.0
 40
465.0
 40
466.0
 40
466.0
 40
466.0
 40
467.0
 40
467.0
 40
467.0
 40
468.0
 40
468.0
 40
468.0
 40
469.0
 40
469.0
 40
469.0
 40
470.0
 40
470.0
 40
470.0
 40
471.0
 40
471.0
 40
471.0
 40
472.0
 40
472.0
 40
472.0
 40
473.0
 40
473.0
 40
473.0
 40
474.0
 40
474.0
 40
474.0
 40
475.0
 40
475.0
 40
475.0
 40
476.0
 40
476.0
 40
476.0
 40
477.0
 40
477.0
 40
477.0
 40
478.0
 40
478.0
 40
478.0
 40
479.0
 40
479.0
 40
479.0
 40
480.0
 40
480.0
 40
480.0
 40
481.0
 40
481.0
 40
481.0
 40
482.0
 40
482.0
 40
482.0
 40
483.0
 40
483.0
 40
483.0
 40
484.0
 40
484.0
 40
484.0
 40
485.0
 40
485.0
 40
485.0
 40
486.0
 40
486.0
 40
486.0
 40
487.0
 40
487.0
 40
487.0
 40
488.0
 40
488.0
 40
488.0
 40
489.0
 40
489.0
 40
489.0
 40
490.0
 40
490.0
 40
490.0
 40
491.0
 40
491.0
 40
491.0
 40
492.0
 40
492.0
 40
492.0
 40
493.0
 40
493.0
 40
493.0
 40
494.0
 40
494.0
 40
494.0
 40
495.0
 40
495.0
 40
495.0
 40
496.0
 40
496.0
 40
496.0
 40
497.0
 40
497.0
 40
497.0
 40
498.0
 40
498.0
 40
498.0
 40
499.0
 40
499.0
 40
499.0
 40
500.0
 40
500.0
 40
500.0
 40
501.0
 40
501.0
 40
501.0
 40
502.0
 40
502.0
 40
502.0
 40
503.0
 40
503.0
 40
503.0
 40
504.0
 40
504.0
 40
504.0
 40
505.0
 40
505.0
 40
505.0
 40
506.0
 40
506.0
 40
506.0
 40
507.0
 40
507.0
 40
507.0
 40
508.0
 40
508.0
 40
508.0
 40
509.0
 40
509.0
 40
509.0
 40
510.0
 40
510.0
 40
510.0
 40
511.0
 40
511.0
 40
511.0
 40
512.0
 40
512.0
 40
512.0
 40
512.0
 10
18.60588923784107
 20
-10.91925657186879
 30
0.0
 10
18.60588923784107
 20
-10.94665517628592
 30
0.0
 10
18.60571571539035
 20
-10.97401325220966
 30
0.0
 10
18.60536970950426
 20
-11.00132976062147
 30
0.0
 10
18.60502370361882
 20
-11.028646269032
 30
0.0
 10
18.60450521429864
 20
-11.05592120993058
 30
0.0
 10
18.60381528056036
 20
-11.08315354429548
 30
0.0
 10
18.60312534682207
 20
-11.11038587866038
 30
0.0
 10
18.60226396866568
 20
-11.13757560649158
 30
0.0
 10
18.60123218510781
 20
-11.16472168876989
 30
0.0
 10
18.60020040154994
 20
-11.19186777104692
 30
0.0
 10
18.59899821258995
 20
-11.21897020777107
 30
0.0
 10
18.59762665724574
 20
-11.24602795992057
 30
0.0
 10
18.59625510190153
 20
-11.27308571207007
 30
0.0
 10
18.59471418017182
 20
-11.30009877964589
 30
0.0
 10
18.59300493107325
 20
-11.32706612362691
 30
0.0
 10
18.59129568197531
 20
-11.35403346760793
 30
0.0
 10
18.5894181055085
 20
-11.38095508799382
 30
0.0
 10
18.58737324068944
 20
-11.40782994576477
 30
0.0
 10
18.58532837587039
 20
-11.43470480353571
 30
0.0
 10
18.58311622269973
 20
-11.4615328986917
 30
0.0
 10
18.5807378201928
 20
-11.4883131922129
 30
0.0
 10
18.57835941768652
 20
-11.51509348573282
 30
0.0
 10
18.57581476584397
 20
-11.54182597761796
 30
0.0
 10
18.57310490368307
 20
-11.56850962884847
 30
0.0
 10
18.57039504152216
 20
-11.59519328007769
 30
0.0
 10
18.56751996904162
 20
-11.62182809065101
 30
0.0
 10
18.56448072525807
 20
-11.6484130215486
 30
0.0
 10
18.56144148147515
 20
-11.67499795244618
 30
0.0
 10
18.55823806638923
 20
-11.70153300366803
 30
0.0
 10
18.55487151901755
 20
-11.72801713619173
 30
0.0
 10
18.55150497164588
 20
-11.75450126871672
 30
0.0
 10
18.54797529198782
 20
-11.78093448254486
 30
0.0
 10
18.54428351906063
 20
-11.8073157386563
 30
0.0
 10
18.54059174613281
 20
-11.83369699476646
 30
0.0
 10
18.53673787993587
 20
-11.86002629316122
 30
0.0
 10
18.53272295948578
 20
-11.88630259481689
 30
0.0
 10
18.5287080390357
 20
-11.91257889647384
 30
0.0
 10
18.52453206433183
 20
-11.9388022013917
 30
0.0
 10
18.52019607439146
 20
-11.9649714705532
 30
0.0
 10
18.51586008445172
 20
-11.9911407397147
 30
0.0
 10
18.51136407927483
 20
-12.01725597311728
 30
0.0
 10
18.50670909787805
 20
-12.04331613174239
 30
0.0
 10
18.50205411648128
 20
-12.0693762903675
 30
0.0
 10
18.49724015886397
 20
-12.09538137421513
 30
0.0
 10
18.4922682640434
 20
-12.12133034426289
 30
0.0
 10
18.48729636922284
 20
-12.14727931431065
 30
0.0
 10
18.48216653719836
 20
-12.17317217055982
 30
0.0
 10
18.47687980698661
 20
-12.19900787399057
 30
0.0
 10
18.47159307677486
 20
-12.22484357742131
 30
0.0
 10
18.46614944837583
 20
-12.25062212803235
 30
0.0
 10
18.46054996080679
 20
-12.27634248680513
 30
0.0
 10
18.45495047323774
 20
-12.30206284557662
 30
0.0
 10
18.4491951264974
 20
-12.32772501250858
 30
0.0
 10
18.44328495960304
 20
-12.35332794858116
 30
0.0
 10
18.43737479270867
 20
-12.37893088465374
 30
0.0
 10
18.43130980566028
 20
-12.40447458986694
 30
0.0
 10
18.42509103747383
 20
-12.42995802519837
 30
0.0
 10
18.41887226928804
 20
-12.45544146053108
 30
0.0
 10
18.41249971996419
 20
-12.4808646259833
 30
0.0
 10
18.40597442851893
 20
-12.50622648253391
 30
0.0
 10
18.39944913707366
 20
-12.53158833908581
 30
0.0
 10
18.39277110350762
 20
-12.55688888673609
 30
0.0
 10
18.38594136683614
 20
-12.58212708646622
 30
0.0
 10
18.3791116301653
 20
-12.60736528619506
 30
0.0
 10
18.37213019038967
 20
-12.63254113800375
 30
0.0
 10
18.36499808652587
 20
-12.65765360287115
 30
0.0
 10
18.35786598266207
 20
-12.68276606773856
 30
0.0
 10
18.3505832147101
 20
-12.70781514566341
 30
0.0
 10
18.34315082168658
 20
-12.73279979762715
 30
0.0
 10
18.33571842866242
 20
-12.75778444959088
 30
0.0
 10
18.32813641056736
 20
-12.78270467559223
 30
0.0
 10
18.3204058064161
 20
-12.80755943661263
 30
0.0
 10
18.31267520226484
 20
-12.83241419763174
 30
0.0
 10
18.3047960120593
 20
-12.85720349366863
 30
0.0
 10
18.29676927481418
 20
-12.88192628570346
 30
0.0
 10
18.2887425375697
 20
-12.90664907773701
 30
0.0
 10
18.28056825328629
 20
-12.93130536576849
 30
0.0
 10
18.27224746098057
 20
-12.9558941107768
 30
0.0
 10
18.26392666867484
 20
-12.98048285578511
 30
0.0
 10
18.25545936834681
 20
-13.00500405777152
 30
0.0
 10
18.24684659901309
 20
-13.02945667771363
 30
0.0
 10
18.23823382967937
 20
-13.05390929765447
 30
0.0
 10
18.22947559134061
 20
-13.07829333555357
 30
0.0
 10
18.2205729230115
 20
-13.10260775238855
 30
0.0
 10
18.21167025468304
 20
-13.12692216922224
 30
0.0
 10
18.20262315636551
 20
-13.15116696499309
 30
0.0
 10
18.19343266707427
 20
-13.17534110067998
 30
0.0
 10
18.18424217778366
 20
-13.19951523636558
 30
0.0
 10
18.17490829751998
 20
-13.22361871196722
 30
0.0
 10
18.16543206530049
 20
-13.24765048846507
 30
0.0
 10
18.15595583308101
 20
-13.27168226496163
 30
0.0
 10
18.14633724890442
 20
-13.29564234235439
 30
0.0
 10
18.13657735178866
 20
-13.31952968162225
 30
0.0
 10
18.12681745467289
 20
-13.34341702088881
 30
0.0
 10
18.11691624461729
 20
-13.36723162203175
 30
0.0
 10
18.1068747606385
 20
-13.39097244602866
 30
0.0
 10
18.0968332766597
 20
-13.41471327002429
 30
0.0
 10
18.08665151875771
 20
-13.43838031687645
 30
0.0
 10
18.07633052594849
 20
-13.46197254756147
 30
0.0
 10
18.06600953313992
 20
-13.48556477824648
 30
0.0
 10
18.05554930542348
 20
-13.50908219276564
 30
0.0
 10
18.04495088181774
 20
-13.53252375209909
 30
0.0
 10
18.034352458212
 20
-13.55596531143126
 30
0.0
 10
18.02361583871567
 20
-13.57933101557773
 30
0.0
 10
18.01274206234536
 20
-13.60261982551739
 30
0.0
 10
18.00186828597506
 20
-13.62590863545705
 30
0.0
 10
17.99085735273079
 20
-13.6491205511899
 30
0.0
 10
17.97971030162982
 20
-13.67225453369609
 30
0.0
 10
17.96856325052885
 20
-13.69538851620229
 30
0.0
 10
17.95728008156989
 20
-13.71844456548056
 30
0.0
 10
17.94586183377022
 20
-13.74142164251106
 30
0.0
 10
17.9344435859712
 20
-13.76439871954284
 30
0.0
 10
17.9228902593308
 20
-13.78729682432557
 30
0.0
 10
17.91120289286632
 20
-13.81011491784199
 30
0.0
 10
17.89951552640184
 20
-13.83293301135713
 30
0.0
 10
17.88769412011263
 20
-13.85567109360467
 30
0.0
 10
17.87573971301595
 20
-13.87832812556349
 30
0.0
 10
17.86378530591927
 20
-13.90098515752359
 30
0.0
 10
17.85169789801447
 20
-13.9235611391937
 30
0.0
 10
17.83947852831884
 20
-13.94605503155654
 30
0.0
 10
17.82725915862321
 20
-13.96854892391809
 30
0.0
 10
17.81490782713545
 20
-13.9909607269711
 30
0.0
 10
17.80242557287348
 20
-14.01328940169572
 30
0.0
 10
17.78994331861151
 20
-14.03561807641906
 30
0.0
 10
17.77733014157403
 20
-14.05786362281402
 30
0.0
 10
17.76458708077897
 20
-14.08002500185948
 30
0.0
 10
17.7518440199839
 20
-14.10218638090493
 30
0.0
 10
17.73897107542996
 20
-14.12426359260089
 30
0.0
 10
17.72596928613505
 20
-14.14625559792623
 30
0.0
 10
17.71296749683951
 20
-14.16824760325157
 30
0.0
 10
17.69983686280171
 20
-14.19015440220757
 30
0.0
 10
17.68657842303957
 20
-14.21197495577312
 30
0.0
 10
17.67331998327679
 20
-14.23379550933739
 30
0.0
 10
17.65993373778839
 20
-14.2555298175125
 30
0.0
 10
17.64642072559163
 20
-14.27717684127732
 30
0.0
 10
17.63290771339422
 20
-14.29882386504085
 30
0.0
 10
17.61926793448846
 20
-14.3203836043941
 30
0.0
 10
17.60550242789032
 20
-14.34185502031595
 30
0.0
 10
17.59173692129155
 20
-14.3633264362378
 30
0.0
 10
17.57784568700104
 20
-14.38470952872824
 30
0.0
 10
17.56382976403414
 20
-14.40600325876745
 30
0.0
 10
17.54981384106788
 20
-14.42729698880667
 30
0.0
 10
17.53567322942523
 20
-14.44850135639464
 30
0.0
 10
17.52140896812346
 20
-14.46961532251026
 30
0.0
 10
17.50714470682168
 20
-14.49072928862589
 30
0.0
 10
17.49275679586079
 20
-14.51175285326916
 30
0.0
 10
17.47824627425611
 20
-14.53268497742024
 30
0.0
 10
17.46373575265207
 20
-14.55361710157133
 30
0.0
 10
17.44910262040489
 20
-14.57445778523023
 30
0.0
 10
17.4343479165312
 20
-14.59520598937582
 30
0.0
 10
17.41959321265815
 20
-14.61595419352142
 30
0.0
 10
17.40471693715794
 20
-14.63660991815499
 30
0.0
 10
17.38972012904784
 20
-14.65717212425415
 30
0.0
 10
17.37472332093839
 20
-14.67773433035459
 30
0.0
 10
17.3596059802184
 20
-14.6982030179206
 30
0.0
 10
17.34436914590515
 20
-14.71857714793365
 30
0.0
 10
17.32913231159189
 20
-14.7389512779467
 30
0.0
 10
17.31377598368538
 20
-14.7592308504055
 30
0.0
 10
17.29830120120158
 20
-14.77941482629149
 30
0.0
 10
17.28282641871842
 20
-14.79959880217619
 30
0.0
 10
17.26723318165799
 20
-14.81968718148681
 30
0.0
 10
17.25152252903689
 20
-14.83967892520351
 30
0.0
 10
17.23581187641644
 20
-14.85967066892021
 30
0.0
 10
17.21998380823469
 20
-14.87956577704298
 30
0.0
 10
17.20403936350955
 20
-14.89936321054944
 30
0.0
 10
17.18809491878377
 20
-14.91916064405718
 30
0.0
 10
17.1720340975146
 20
-14.93886040294988
 30
0.0
 10
17.15585793871802
 20
-14.9584614482077
 30
0.0
 10
17.13968177992144
 20
-14.97806249346425
 30
0.0
 10
17.12339028359682
 20
-14.9975648250872
 30
0.0
 10
17.10698448876142
 20
-15.01696740405289
 30
0.0
 10
17.09057869392665
 20
-15.03636998301985
 30
0.0
 10
17.07405860057982
 20
-15.05567280932955
 30
0.0
 10
17.05742524773948
 20
-15.0748748439647
 30
0.0
 10
17.04079189489914
 20
-15.09407687859858
 30
0.0
 10
17.02404528256401
 20
-15.11317812155791
 30
0.0
 10
17.00718644975069
 20
-15.1321775338203
 30
0.0
 10
16.99032761693739
 20
-15.15117694608141
 30
0.0
 10
16.9733565636459
 20
-15.17007452764686
 30
0.0
 10
16.95627432889352
 20
-15.18886923949554
 30
0.0
 10
16.93919209414113
 20
-15.20766395134422
 30
0.0
 10
16.9219986779272
 20
-15.22635579347613
 30
0.0
 10
16.90469511926834
 20
-15.24494372687015
 30
0.0
 10
16.88739156060884
 20
-15.26353166026544
 30
0.0
 10
16.86997785950507
 20
-15.28201568492157
 30
0.0
 10
16.85245505497235
 20
-15.30039476182125
 30
0.0
 10
16.83493225044027
 20
-15.31877383872094
 30
0.0
 10
16.81730034247926
 20
-15.3370479678629
 30
0.0
 10
16.79956037010594
 20
-15.3552161102273
 30
0.0
 10
16.78182039773261
 20
-15.37338425259042
 30
0.0
 10
16.76397236094762
 20
-15.39144640817598
 30
0.0
 10
16.74601729876693
 20
-15.40940153796287
 30
0.0
 10
16.72806223658625
 20
-15.42735666774976
 30
0.0
 10
16.71000014900988
 20
-15.44520477173925
 30
0.0
 10
16.69183207505508
 20
-15.46294481090895
 30
0.0
 10
16.67366400109965
 20
-15.48068485007866
 30
0.0
 10
16.65538994076515
 20
-15.49831682442857
 30
0.0
 10
16.63701093306886
 20
-15.51583969494014
 30
0.0
 10
16.61863192537256
 20
-15.53336256545171
 30
0.0
 10
16.60014797031319
 20
-15.55077633212365
 30
0.0
 10
16.58156010690801
 20
-15.56807995593613
 30
0.0
 10
16.56297224350218
 20
-15.58538357974862
 30
0.0
 10
16.54428047175118
 20
-15.60257706070164
 30
0.0
 10
16.52548583067036
 20
-15.61965935977409
 30
0.0
 10
16.50669118958953
 20
-15.63674165884654
 30
0.0
 10
16.48779367917887
 20
-15.6537127760397
 30
0.0
 10
16.46879433845566
 20
-15.67057167233116
 30
0.0
 10
16.44979499773244
 20
-15.6874305686239
 30
0.0
 10
16.43069382669602
 20
-15.70417724401496
 30
0.0
 10
16.41149186436238
 20
-15.72081065948577
 30
0.0
 10
16.39228990202938
 20
-15.73744407495529
 30
0.0
 10
16.3729871483998
 20
-15.75396423050586
 30
0.0
 10
16.35358464249027
 20
-15.77037008711378
 30
0.0
 10
16.3341821365801
 20
-15.7867759437217
 30
0.0
 10
16.31467987839061
 20
-15.80306750138826
 30
0.0
 10
16.29507890693716
 20
-15.81924372109362
 30
0.0
 10
16.2754779354837
 20
-15.83541994079899
 30
0.0
 10
16.25577825076692
 20
-15.85148082254316
 30
0.0
 10
16.23598089180279
 20
-15.86742532730374
 30
0.0
 10
16.21618353283867
 20
-15.8833698320656
 30
0.0
 10
16.19628849962719
 20
-15.89919795984386
 30
0.0
 10
16.17629683118564
 20
-15.91490867162127
 30
0.0
 10
16.15630516274409
 20
-15.93061938339739
 30
0.0
 10
16.13621685907182
 20
-15.94621267917136
 30
0.0
 10
16.11603295918546
 20
-15.96168751992207
 30
0.0
 10
16.09584905929909
 20
-15.97716236067279
 30
0.0
 10
16.07556956319864
 20
-15.99251874640152
 30
0.0
 10
16.05519550990071
 20
-16.00775563808588
 30
0.0
 10
16.03482145660278
 20
-16.02299252977023
 30
0.0
 10
16.01435284610738
 20
-16.03810992741149
 30
0.0
 10
15.9937907174305
 20
-16.05310679198982
 30
0.0
 10
15.97322858875362
 20
-16.06810365656687
 30
0.0
 10
15.95257294189525
 20
-16.08297998808099
 30
0.0
 10
15.93182481587266
 20
-16.09773474751105
 30
0.0
 10
15.91107668985007
 20
-16.11248950693984
 30
0.0
 10
15.89023608466327
 20
-16.12712269428587
 30
0.0
 10
15.86930403932758
 20
-16.14163327052673
 30
0.0
 10
15.84837199399254
 20
-16.15614384676758
 30
0.0
 10
15.82734850850862
 20
-16.17053181190456
 30
0.0
 10
15.80623462189374
 20
-16.18479612691526
 30
0.0
 10
15.78512073527885
 20
-16.19906044192725
 30
0.0
 10
15.76391644753171
 20
-16.21320110681295
 30
0.0
 10
15.74262279767023
 20
-16.22721708255382
 30
0.0
 10
15.7213291478081
 20
-16.24123305829469
 30
0.0
 10
15.69994613583163
 20
-16.25512434489073
 30
0.0
 10
15.67847480075552
 20
-16.26888990332082
 30
0.0
 10
15.65700346568005
 20
-16.28265546174963
 30
0.0
 10
15.63544380750558
 20
-16.29629529201377
 30
0.0
 10
15.61379686524938
 20
-16.30980835509214
 30
0.0
 10
15.59214992299253
 20
-16.32332141816922
 30
0.0
 10
15.57041569665459
 20
-16.3367077140618
 30
0.0
 10
15.54859522525025
 20
-16.3499662037462
 30
0.0
 10
15.52677475384592
 20
-16.36322469343188
 30
0.0
 10
15.50486803737583
 20
-16.37635537690938
 30
0.0
 10
15.48287611485662
 20
-16.38935721516143
 30
0.0
 10
15.46088419233805
 20
-16.40235905341348
 30
0.0
 10
15.43880706376907
 20
-16.41523204643752
 30
0.0
 10
15.41664576816824
 20
-16.42797515521498
 30
0.0
 10
15.3944844725674
 20
-16.44071826399117
 30
0.0
 10
15.37223900993406
 20
-16.45333148852079
 30
0.0
 10
15.3499104192842
 20
-16.46581378978273
 30
0.0
 10
15.32758182863435
 20
-16.47829609104466
 30
0.0
 10
15.30517010996797
 20
-16.49064746903763
 30
0.0
 10
15.28267630230235
 20
-16.50286688474437
 30
0.0
 10
15.26018249463672
 20
-16.51508630044982
 30
0.0
 10
15.2376065979712
 20
-16.52717375386776
 30
0.0
 10
15.21494965132242
 20
-16.53912820597578
 30
0.0
 10
15.19229270467364
 20
-16.55108265808508
 30
0.0
 10
15.16955470804223
 20
-16.56290410888447
 30
0.0
 10
15.14673670044353
 20
-16.57459151935667
 30
0.0
 10
15.12391869284548
 20
-16.58627892982759
 30
0.0
 10
15.10102067428014
 20
-16.59783229997004
 30
0.0
 10
15.07804368376479
 20
-16.6092505907629
 30
0.0
 10
15.05506669324944
 20
-16.62066888155448
 30
0.0
 10
15.03201073078407
 20
-16.63195209299776
 30
0.0
 10
15.00887683538467
 20
-16.64309918607163
 30
0.0
 10
14.98574293998527
 20
-16.65424627914549
 30
0.0
 10
14.96253111165183
 20
-16.66525725384865
 30
0.0
 10
14.93924238940163
 20
-16.67613107116256
 30
0.0
 10
14.91595366715143
 20
-16.68700488847519
 30
0.0
 10
14.89258805098382
 20
-16.69774154839856
 30
0.0
 10
14.86914657991542
 20
-16.70834001191157
 30
0.0
 10
14.84570510884767
 20
-16.71893847542329
 30
0.0
 10
14.8221877828785
 20
-16.72939874252593
 30
0.0
 10
14.79859564102516
 20
-16.73971977419708
 30
0.0
 10
14.77500349917247
 20
-16.75004080586694
 30
0.0
 10
14.75133654143434
 20
-16.76022260210661
 30
0.0
 10
14.72759580682931
 20
-16.77026412389495
 30
0.0
 10
14.70385507222429
 20
-16.7803056456833
 30
0.0
 10
14.68004056075109
 20
-16.79020689302032
 30
0.0
 10
14.65615331142634
 20
-16.79996682688491
 30
0.0
 10
14.63226606210223
 20
-16.8097267607495
 30
0.0
 10
14.60830607492658
 20
-16.81934538114293
 30
0.0
 10
14.58427438891664
 20
-16.8288216490441
 30
0.0
 10
14.5602427029067
 20
-16.83829791694398
 30
0.0
 10
14.5361393180612
 20
-16.84763183235287
 30
0.0
 10
14.51196527339804
 20
-16.85682235624838
 30
0.0
 10
14.48779122873488
 20
-16.86601288014388
 30
0.0
 10
14.46354652425277
 20
-16.87506001252729
 30
0.0
 10
14.43923219896964
 20
-16.88396271437747
 30
0.0
 10
14.41491787368651
 20
-16.89286541622765
 30
0.0
 10
14.39053392760106
 20
-16.90162368754461
 30
0.0
 10
14.36608139973056
 20
-16.91023648930852
 30
0.0
 10
14.3416288718607
 20
-16.91884929107242
 30
0.0
 10
14.31710776220452
 20
-16.92731662328199
 30
0.0
 10
14.29251910978055
 20
-16.93563744691867
 30
0.0
 10
14.26793045735594
 20
-16.94395827055406
 30
0.0
 10
14.24327426216226
 20
-16.95213258561657
 30
0.0
 10
14.21855156321679
 20
-16.96015935308507
 30
0.0
 10
14.19382886427131
 20
-16.96818612055229
 30
0.0
 10
14.1690396615734
 20
-16.9760653404255
 30
0.0
 10
14.14418499413967
 20
-16.98379597368487
 30
0.0
 10
14.11933032670594
 20
-16.99152660694425
 30
0.0
 10
14.0944101945364
 20
-16.9991086535885
 30
0.0
 10
14.06942563664767
 20
-17.00654107459779
 30
0.0
 10
14.04444107875893
 20
-17.0139734956058
 30
0.0
 10
14.01939209515037
 20
-17.02125629098014
 30
0.0
 10
13.99427972483924
 20
-17.02838842169841
 30
0.0
 10
13.96916735452875
 20
-17.03552055241667
 30
0.0
 10
13.94399159751442
 20
-17.04250201848015
 30
0.0
 10
13.91875349281479
 20
-17.04933178086771
 30
0.0
 10
13.89351538811451
 20
-17.056161543254
 30
0.0
 10
13.86821493572766
 20
-17.06283960196566
 30
0.0
 10
13.84285317467149
 20
-17.0693649179803
 30
0.0
 10
13.81749141361532
 20
-17.07589023399493
 30
0.0
 10
13.79206834388919
 20
-17.08226280731383
 30
0.0
 10
13.76658500450974
 20
-17.08848159891587
 30
0.0
 10
13.74110166513028
 20
-17.09470039051791
 30
0.0
 10
13.7155580560975
 20
-17.10076540040309
 30
0.0
 10
13.68995521642737
 20
-17.1066755895503
 30
0.0
 10
13.66435237675788
 20
-17.11258577869878
 30
0.0
 10
13.63869030645104
 20
-17.1183411471093
 30
0.0
 10
13.61297004452476
 20
-17.12394065576201
 30
0.0
 10
13.5872497825972
 20
-17.129540164416
 30
0.0
 10
13.5614713290502
 20
-17.13498381331089
 30
0.0
 10
13.53563572289911
 20
-17.14027056342943
 30
0.0
 10
13.50980011674801
 20
-17.14555731354669
 30
0.0
 10
13.48390735799282
 20
-17.1506871648863
 30
0.0
 10
13.4579584856508
 20
-17.15565907842844
 30
0.0
 10
13.43200961330877
 20
-17.1606309919693
 30
0.0
 10
13.40600462737928
 20
-17.16544496771267
 30
0.0
 10
13.3799445668783
 20
-17.17009996663746
 30
0.0
 10
13.35388450637732
 20
-17.17475496556096
 30
0.0
 10
13.32776937130613
 20
-17.17925098766716
 30
0.0
 10
13.30160020068008
 20
-17.18358699393364
 30
0.0
 10
13.27543103005403
 20
-17.18792300020012
 30
0.0
 10
13.2492078238744
 20
-17.19209899062818
 30
0.0
 10
13.22293162115589
 20
-17.19611392619541
 30
0.0
 10
13.19665541843738
 20
-17.20012886176393
 30
0.0
 10
13.17032621918128
 20
-17.20398274247161
 30
0.0
 10
13.1439450624042
 20
-17.20767452929992
 30
0.0
 10
13.11756390562649
 20
-17.21136631612823
 30
0.0
 10
13.0911307913278
 20
-17.21489600907588
 30
0.0
 10
13.06464675852412
 20
-17.21826256912432
 30
0.0
 10
13.03816272572045
 20
-17.22162912917147
 30
0.0
 10
13.01162777441114
 20
-17.22483255631941
 30
0.0
 10
12.98504294361412
 20
-17.22787181154575
 30
0.0
 10
12.95845811281709
 20
-17.23091106677336
 30
0.0
 10
12.93182340253106
 20
-17.23378615007808
 30
0.0
 10
12.90513985177394
 20
-17.23649602244392
 30
0.0
 10
12.87845630101681
 20
-17.23920589480849
 30
0.0
 10
12.85172390978731
 20
-17.2417505562316
 30
0.0
 10
12.82494371710205
 20
-17.24412896769343
 30
0.0
 10
12.7981635244168
 20
-17.24650737915655
 30
0.0
 10
12.77133553027707
 20
-17.24871954065583
 30
0.0
 10
12.74446077369757
 20
-17.25076441317527
 30
0.0
 10
12.71758601711807
 20
-17.25280928569343
 30
0.0
 10
12.69066449810009
 20
-17.25468686923048
 30
0.0
 10
12.6636972556596
 20
-17.25639612476402
 30
0.0
 10
12.63673001321911
 20
-17.25810538029884
 30
0.0
 10
12.60971704735612
 20
-17.25964630783015
 30
0.0
 10
12.58265939708725
 20
-17.26101786833939
 30
0.0
 10
12.55560174681838
 20
-17.26238942884735
 30
0.0
 10
12.52849941214364
 20
-17.26359162233453
 30
0.0
 10
12.50135343207899
 20
-17.26462340977725
 30
0.0
 10
12.47420745201435
 20
-17.26565519721996
 30
0.0
 10
12.44701782655982
 20
-17.2665165786195
 30
0.0
 10
12.41978559473329
 20
-17.26720651495474
 30
0.0
 10
12.39255336290677
 20
-17.26789645129126
 30
0.0
 10
12.36527852470698
 20
-17.26841494256349
 30
0.0
 10
12.33796211915054
 20
-17.26876094975287
 30
0.0
 10
12.31064571359411
 20
-17.26910695694096
 30
0.0
 10
12.28328774068167
 20
-17.26928048004493
 30
0.0
 10
12.25588923942857
 20
-17.26928048004493
 30
0.0
 10
12.22849073817547
 20
-17.26928048004493
 30
0.0
 10
12.20113276526303
 20
-17.26910695694096
 30
0.0
 10
12.17381635970659
 20
-17.26876094975287
 30
0.0
 10
12.1464999541508
 20
-17.26841494256349
 30
0.0
 10
12.11922511595036
 20
-17.26789645129126
 30
0.0
 10
12.09199288412384
 20
-17.26720651495474
 30
0.0
 10
12.06476065229668
 20
-17.2665165786195
 30
0.0
 10
12.03757102684278
 20
-17.26565519721996
 30
0.0
 10
12.01042504677878
 20
-17.26462340977725
 30
0.0
 10
11.98327906671414
 20
-17.26359162233453
 30
0.0
 10
11.95617673203939
 20
-17.26238942884735
 30
0.0
 10
11.92911908177052
 20
-17.26101786833939
 30
0.0
 10
11.90206143150101
 20
-17.25964630783015
 30
0.0
 10
11.87504846563802
 20
-17.25810538029884
 30
0.0
 10
11.84808122319753
 20
-17.25639612476402
 30
0.0
 10
11.82111398075705
 20
-17.25468686923048
 30
0.0
 10
11.79419246173842
 20
-17.25280928569343
 30
0.0
 10
11.76731770515956
 20
-17.25076441317527
 30
0.0
 10
11.74044294858071
 20
-17.24871954065583
 30
0.0
 10
11.71361495444034
 20
-17.24650737915655
 30
0.0
 10
11.68683476175508
 20
-17.24412896769343
 30
0.0
 10
11.66005456907047
 20
-17.2417505562316
 30
0.0
 10
11.63332217784096
 20
-17.23920589480849
 30
0.0
 10
11.60663862708384
 20
-17.23649602244392
 30
0.0
 10
11.57995507632607
 20
-17.23378615007808
 30
0.0
 10
11.55332036604068
 20
-17.23091106677336
 30
0.0
 10
11.52673553524302
 20
-17.22787181154575
 30
0.0
 10
11.50015070444599
 20
-17.22483255631941
 30
0.0
 10
11.47361575313733
 20
-17.22162912917147
 30
0.0
 10
11.44713172033365
 20
-17.21826256912432
 30
0.0
 10
11.42064768752998
 20
-17.21489600907588
 30
0.0
 10
11.39421457323129
 20
-17.21136631612823
 30
0.0
 10
11.36783341645357
 20
-17.20767452929992
 30
0.0
 10
11.3414522596765
 20
-17.20398274247161
 30
0.0
 10
11.31512306042039
 20
-17.20012886176393
 30
0.0
 10
11.28884685770188
 20
-17.19611392619541
 30
0.0
 10
11.26257065498337
 20
-17.19209899062818
 30
0.0
 10
11.23634744880374
 20
-17.18792300020012
 30
0.0
 10
11.2101782781777
 20
-17.18358699393364
 30
0.0
 10
11.18400910755165
 20
-17.17925098766716
 30
0.0
 10
11.15789397248046
 20
-17.17475496556096
 30
0.0
 10
11.13183391197948
 20
-17.17009996663746
 30
0.0
 10
11.1057738514785
 20
-17.16544496771267
 30
0.0
 10
11.079768865549
 20
-17.1606309919693
 30
0.0
 10
11.05381999320634
 20
-17.15565907842844
 30
0.0
 10
11.02787112086432
 20
-17.1506871648863
 30
0.0
 10
11.00197836210912
 20
-17.14555731354669
 30
0.0
 10
10.97614275595803
 20
-17.14027056342943
 30
0.0
 10
10.95030714980693
 20
-17.13498381331089
 30
0.0
 10
10.92452869625929
 20
-17.129540164416
 30
0.0
 10
10.89880843433302
 20
-17.12394065576201
 30
0.0
 10
10.87308817240546
 20
-17.1183411471093
 30
0.0
 10
10.84742610209926
 20
-17.11258577869878
 30
0.0
 10
10.82182326242913
 20
-17.1066755895503
 30
0.0
 10
10.79622042275964
 20
-17.10076540040309
 30
0.0
 10
10.77067681372685
 20
-17.09470039051791
 30
0.0
 10
10.74519347434739
 20
-17.08848159891587
 30
0.0
 10
10.71971013496794
 20
-17.08226280731383
 30
0.0
 10
10.69428706524181
 20
-17.07589023399493
 30
0.0
 10
10.66892530418565
 20
-17.0693649179803
 30
0.0
 10
10.64356354312883
 20
-17.06283960196566
 30
0.0
 10
10.61826309074262
 20
-17.056161543254
 30
0.0
 10
10.59302498604235
 20
-17.04933178086771
 30
0.0
 10
10.56778688134207
 20
-17.04250201848015
 30
0.0
 10
10.54261112432838
 20
-17.03552055241667
 30
0.0
 10
10.51749875401725
 20
-17.02838842169841
 30
0.0
 10
10.49238638370677
 20
-17.02125629098014
 30
0.0
 10
10.46733740009884
 20
-17.0139734956058
 30
0.0
 10
10.44235284220947
 20
-17.00654107459779
 30
0.0
 10
10.41736828432074
 20
-16.9991086535885
 30
0.0
 10
10.39244815215119
 20
-16.99152660694425
 30
0.0
 10
10.36759348471746
 20
-16.98379597368487
 30
0.0
 10
10.34273881728373
 20
-16.9760653404255
 30
0.0
 10
10.31794961458582
 20
-16.96818612055229
 30
0.0
 10
10.29322691564035
 20
-16.96015935308507
 30
0.0
 10
10.26850421669423
 20
-16.95213258561657
 30
0.0
 10
10.2438480215012
 20
-16.94395827055406
 30
0.0
 10
10.21925936907659
 20
-16.93563744691867
 30
0.0
 10
10.19467071665197
 20
-16.92731662328199
 30
0.0
 10
10.17014960699643
 20
-16.91884929107242
 30
0.0
 10
10.14569707912593
 20
-16.91023648930852
 30
0.0
 10
10.12124455125543
 20
-16.90162368754461
 30
0.0
 10
10.09686060516998
 20
-16.89286541622765
 30
0.0
 10
10.07254627988685
 20
-16.88396271437747
 30
0.0
 10
10.04823195460372
 20
-16.87506001252729
 30
0.0
 10
10.02398725012162
 20
-16.86601288014388
 30
0.0
 10
9.999813205458455
 20
-16.85682235624838
 30
0.0
 10
9.975639160795295
 20
-16.84763183235287
 30
0.0
 10
9.951535775949791
 20
-16.83829791694398
 30
0.0
 10
9.927504089939854
 20
-16.8288216490441
 30
0.0
 10
9.903472403929916
 20
-16.81934538114293
 30
0.0
 10
9.87951241675426
 20
-16.8097267607495
 30
0.0
 10
9.855625167430153
 20
-16.79996682688491
 30
0.0
 10
9.831737918105405
 20
-16.79020689302032
 30
0.0
 10
9.807923406632847
 20
-16.7803056456833
 30
0.0
 10
9.784182672027823
 20
-16.77026412389495
 30
0.0
 10
9.760441937422156
 20
-16.76022260210661
 30
0.0
 10
9.736774979684665
 20
-16.75004080586694
 30
0.0
 10
9.713182837831972
 20
-16.73971977419708
 30
0.0
 10
9.689590695978637
 20
-16.72939874252593
 30
0.0
 10
9.666073370009462
 20
-16.71893847542329
 30
0.0
 10
9.642631898941069
 20
-16.70834001191157
 30
0.0
 10
9.619190427872676
 20
-16.69774154839856
 30
0.0
 10
9.595824811705064
 20
-16.68700488847519
 30
0.0
 10
9.572536089454863
 20
-16.67613107116256
 30
0.0
 10
9.54924736720466
 20
-16.66525725384865
 30
0.0
 10
9.526035538871225
 20
-16.65424627914549
 30
0.0
 10
9.502901643471823
 20
-16.64309918607163
 30
0.0
 10
9.479767748073062
 20
-16.63195209299776
 30
0.0
 10
9.456711785607052
 20
-16.62066888155448
 30
0.0
 10
9.433734795091699
 20
-16.6092505907629
 30
0.0
 10
9.410757804576347
 20
-16.59783229997004
 30
0.0
 10
9.387859786011012
 20
-16.58627892982759
 30
0.0
 10
9.36504177841296
 20
-16.57459151935667
 30
0.0
 10
9.342223770814266
 20
-16.56290410888447
 30
0.0
 10
9.319485774182215
 20
-16.55108265808508
 30
0.0
 10
9.296828827534073
 20
-16.53912820597578
 30
0.0
 10
9.274171880885289
 20
-16.52717375386776
 30
0.0
 10
9.25159598421977
 20
-16.51508630044982
 30
0.0
 10
9.229102176554147
 20
-16.50286688474437
 30
0.0
 10
9.206608368888523
 20
-16.49064746903763
 30
0.0
 10
9.18419665022279
 20
-16.47829609104466
 30
0.0
 10
9.161868059572933
 20
-16.46581378978273
 30
0.0
 10
9.139539468923076
 20
-16.45333148852079
 30
0.0
 10
9.117294006289095
 20
-16.44071826399117
 30
0.0
 10
9.095132710688898
 20
-16.42797515521498
 30
0.0
 10
9.072971415087418
 20
-16.41523204643752
 30
0.0
 10
9.050894286519723
 20
-16.40235905341348
 30
0.0
 10
9.028902364000512
 20
-16.38935721516143
 30
0.0
 10
9.0069104414813
 20
-16.37635537690938
 30
0.0
 10
8.985003725011214
 20
-16.36322469343188
 30
0.0
 10
8.963183253606882
 20
-16.3499662037462
 30
0.0
 10
8.941362782202548
 20
-16.3367077140618
 30
0.0
 10
8.919628555863966
 20
-16.32332141816922
 30
0.0
 10
8.89798161360776
 20
-16.30980835509214
 30
0.0
 10
8.876334671351554
 20
-16.29629529201377
 30
0.0
 10
8.854775013177083
 20
-16.28265546174963
 30
0.0
 10
8.833303678101613
 20
-16.26888990332082
 30
0.0
 10
8.8118323430255
 20
-16.25512434489073
 30
0.0
 10
8.790449331048713
 20
-16.24123305829469
 30
0.0
 10
8.769155681186907
 20
-16.22721708255382
 30
0.0
 10
8.747862031325104
 20
-16.21320110681295
 30
0.0
 10
8.726657743578286
 20
-16.19906044192725
 30
0.0
 10
8.705543856963398
 20
-16.18479612691526
 30
0.0
 10
8.68442997034851
 20
-16.17053181190456
 30
0.0
 10
8.663406484864913
 20
-16.15614384676758
 30
0.0
 10
8.64247443952955
 20
-16.14163327052673
 30
0.0
 10
8.621542394194186
 20
-16.12712269428587
 30
0.0
 10
8.60070178900706
 20
-16.11248950693984
 30
0.0
 10
8.579953662984472
 20
-16.09773474751105
 30
0.0
 10
8.559205536961885
 20
-16.08297998808099
 30
0.0
 10
8.538549890104157
 20
-16.06810365656687
 30
0.0
 10
8.517987761427275
 20
-16.05310679198982
 30
0.0
 10
8.497425632750392
 20
-16.03810992741149
 30
0.0
 10
8.476957022254995
 20
-16.02299252977023
 30
0.0
 10
8.456582968956747
 20
-16.00775563808588
 30
0.0
 10
8.436208915658497
 20
-15.99251874640152
 30
0.0
 10
8.415929419558038
 20
-15.97716236067279
 30
0.0
 10
8.395745519671674
 20
-15.96168751992207
 30
0.0
 10
8.37556161978531
 20
-15.94621267917136
 30
0.0
 10
8.355473316113041
 20
-15.93061938339739
 30
0.0
 10
8.33548164767117
 20
-15.91490867162127
 30
0.0
 10
8.315489979229298
 20
-15.89919795984386
 30
0.0
 10
8.295594946018468
 20
-15.8833698320656
 30
0.0
 10
8.27579758705434
 20
-15.86742532730374
 30
0.0
 10
8.256000228090214
 20
-15.85148082254316
 30
0.0
 10
8.23630054337343
 20
-15.83541994079899
 30
0.0
 10
8.216699571919975
 20
-15.81924372109362
 30
0.0
 10
8.197098600466521
 20
-15.80306750138826
 30
0.0
 10
8.177596342276715
 20
-15.7867759437217
 30
0.0
 10
8.158193836366863
 20
-15.77037008711378
 30
0.0
 10
8.138791330457332
 20
-15.75396423050586
 30
0.0
 10
8.119488576827754
 20
-15.73744407495529
 30
0.0
 10
8.100286614494433
 20
-15.72081065948577
 30
0.0
 10
8.081084652161435
 20
-15.70417724401496
 30
0.0
 10
8.061983481125013
 20
-15.6874305686239
 30
0.0
 10
8.042984140401476
 20
-15.67057167233116
 30
0.0
 10
8.023984799677937
 20
-15.6537127760397
 30
0.0
 10
8.005087289267603
 20
-15.63674165884654
 30
0.0
 10
7.986292648186777
 20
-15.61965935977409
 30
0.0
 10
7.967498007105951
 20
-15.60257706070164
 30
0.0
 10
7.948806235354633
 20
-15.58538357974862
 30
0.0
 10
7.930218371949448
 20
-15.56807995593613
 30
0.0
 10
7.911630508543942
 20
-15.55077633212365
 30
0.0
 10
7.893146553484569
 20
-15.53336256545171
 30
0.0
 10
7.874767545787956
 20
-15.51583969494014
 30
0.0
 10
7.856388538091341
 20
-15.49831682442857
 30
0.0
 10
7.838114477756844
 20
-15.48068485007866
 30
0.0
 10
7.81994640380173
 20
-15.46294481090895
 30
0.0
 10
7.801778329846615
 20
-15.44520477173925
 30
0.0
 10
7.783716242270244
 20
-15.42735666774976
 30
0.0
 10
7.76576118008988
 20
-15.40940153796287
 30
0.0
 10
7.747806117909517
 20
-15.39144640817598
 30
0.0
 10
7.7299580811242
 20
-15.37338425259042
 30
0.0
 10
7.712218108751196
 20
-15.3552161102273
 30
0.0
 10
7.69447813637787
 20
-15.3370479678629
 30
0.0
 10
7.676846228416858
 20
-15.31877383872094
 30
0.0
 10
7.659323423884143
 20
-15.30039476182125
 30
0.0
 10
7.641800619351427
 20
-15.28201568492157
 30
0.0
 10
7.62438691824765
 20
-15.26353166026544
 30
0.0
 10
7.607083359588473
 20
-15.24494372687015
 30
0.0
 10
7.589779800929297
 20
-15.22635579347613
 30
0.0
 10
7.572586384715363
 20
-15.20766395134422
 30
0.0
 10
7.555504149962655
 20
-15.18886923949554
 30
0.0
 10
7.538421915209947
 20
-15.17007452764686
 30
0.0
 10
7.521450861919107
 20
-15.15117694608141
 30
0.0
 10
7.504592029105797
 20
-15.1321775338203
 30
0.0
 10
7.487733196292807
 20
-15.11317812155791
 30
0.0
 10
7.47098658395767
 20
-15.09407687859858
 30
0.0
 10
7.454353231117008
 20
-15.0748748439647
 30
0.0
 10
7.437719878276667
 20
-15.05567280932955
 30
0.0
 10
7.421199784930482
 20
-15.03636998301985
 30
0.0
 10
7.404793990095078
 20
-15.01696740405289
 30
0.0
 10
7.388388195259994
 20
-14.9975648250872
 30
0.0
 10
7.372096698935691
 20
-14.97806249346425
 30
0.0
 10
7.355920540139114
 20
-14.9584614482077
 30
0.0
 10
7.339744381342217
 20
-14.93886040294988
 30
0.0
 10
7.323683560072725
 20
-14.91916064405718
 30
0.0
 10
7.307739115347585
 20
-14.89936321054944
 30
0.0
 10
7.291794670622125
 20
-14.87956577704298
 30
0.0
 10
7.275966602440695
 20
-14.85967066892021
 30
0.0
 10
7.260255949819602
 20
-14.83967892520351
 30
0.0
 10
7.244545297198507
 20
-14.81968718148681
 30
0.0
 10
7.228952060138069
 20
-14.79959880217619
 30
0.0
 10
7.213477277654591
 20
-14.77941482629149
 30
0.0
 10
7.198002495171114
 20
-14.7592308504055
 30
0.0
 10
7.182646167264597
 20
-14.7389512779467
 30
0.0
 10
7.167409332951344
 20
-14.71857714793365
 30
0.0
 10
7.152172498638092
 20
-14.6982030179206
 30
0.0
 10
7.137055157918105
 20
-14.67773433035459
 30
0.0
 10
7.122058349808327
 20
-14.65717212425415
 30
0.0
 10
7.107061541698551
 20
-14.63660991815499
 30
0.0
 10
7.092185266198343
 20
-14.61595419352142
 30
0.0
 10
7.077430562324971
 20
-14.59520598937582
 30
0.0
 10
7.0626758584516
 20
-14.57445778523023
 30
0.0
 10
7.048042726204423
 20
-14.55361710157133
 30
0.0
 10
7.033532204600065
 20
-14.53268497742024
 30
0.0
 10
7.019021682996027
 20
-14.51175285326916
 30
0.0
 10
7.00463377203481
 20
-14.49072928862589
 30
0.0
 10
6.990369510733037
 20
-14.46961532251026
 30
0.0
 10
6.976105249431264
 20
-14.44850135639464
 30
0.0
 10
6.961964637788615
 20
-14.42729698880667
 30
0.0
 10
6.947948714822356
 20
-14.40600325876745
 30
0.0
 10
6.933932791855456
 20
-14.38470952872824
 30
0.0
 10
6.920041557564947
 20
-14.3633264362378
 30
0.0
 10
6.90627605096681
 20
-14.34185502031595
 30
0.0
 10
6.892510544368675
 20
-14.3203836043941
 30
0.0
 10
6.878870765462593
 20
-14.29882386504085
 30
0.0
 10
6.86535775326551
 20
-14.27717684127732
 30
0.0
 10
6.851844741068427
 20
-14.2555298175125
 30
0.0
 10
6.838458495580343
 20
-14.23379550933739
 30
0.0
 10
6.825200055817563
 20
-14.21197495577312
 30
0.0
 10
6.811941616054783
 20
-14.19015440220757
 30
0.0
 10
6.798810982017306
 20
-14.16824760325157
 30
0.0
 10
6.785809192721758
 20
-14.14625559792623
 30
0.0
 10
6.772807403426211
 20
-14.12426359260089
 30
0.0
 10
6.759934458872592
 20
-14.10218638090493
 30
0.0
 10
6.747191398077206
 20
-14.08002500185948
 30
0.0
 10
6.73444833728182
 20
-14.05786362281402
 30
0.0
 10
6.721835160244988
 20
-14.03561807641906
 30
0.0
 10
6.709352905983014
 20
-14.01328940169572
 30
0.0
 10
6.69687065172104
 20
-13.9909607269711
 30
0.0
 10
6.684519320233604
 20
-13.96854892391809
 30
0.0
 10
6.672299950537651
 20
-13.94605503155654
 30
0.0
 10
6.660080580841698
 20
-13.9235611391937
 30
0.0
 10
6.647993172937229
 20
-13.90098515752359
 30
0.0
 10
6.636038765840226
 20
-13.87832812556349
 30
0.0
 10
6.624084358743544
 20
-13.85567109360467
 30
0.0
 10
6.61226295245465
 20
-13.83293301135713
 30
0.0
 10
6.600575585990169
 20
-13.81011491784199
 30
0.0
 10
6.588888219525688
 20
-13.78729682432557
 30
0.0
 10
6.577334892885299
 20
-13.76439871954284
 30
0.0
 10
6.565916645085948
 20
-13.74142164251106
 30
0.0
 10
6.554498397286597
 20
-13.71844456548056
 30
0.0
 10
6.543215228327963
 20
-13.69538851620229
 30
0.0
 10
6.532068177226671
 20
-13.67225453369609
 30
0.0
 10
6.52092112612538
 20
-13.6491205511899
 30
0.0
 10
6.509910192881431
 20
-13.62590863545705
 30
0.0
 10
6.499036416511129
 20
-13.60261982551739
 30
0.0
 10
6.488162640141147
 20
-13.57933101557773
 30
0.0
 10
6.477426020644812
 20
-13.55596531143126
 30
0.0
 10
6.46682759703875
 20
-13.53252375209909
 30
0.0
 10
6.456229173433008
 20
-13.50908219276564
 30
0.0
 10
6.445768945717217
 20
-13.48556477824648
 30
0.0
 10
6.435447952908323
 20
-13.46197254756147
 30
0.0
 10
6.425126960099429
 20
-13.43838031687645
 30
0.0
 10
6.414945202197432
 20
-13.41471327002429
 30
0.0
 10
6.404903718218316
 20
-13.39097244602866
 30
0.0
 10
6.394862234239199
 20
-13.36723162203175
 30
0.0
 10
6.384961024183606
 20
-13.34341702088881
 30
0.0
 10
6.375201127067838
 20
-13.31952968162225
 30
0.0
 10
6.36544122995207
 20
-13.29564234235439
 30
0.0
 10
6.355822645776129
 20
-13.27168226496163
 30
0.0
 10
6.34634641355664
 20
-13.24765048846507
 30
0.0
 10
6.33687018133683
 20
-13.22361871196722
 30
0.0
 10
6.327536301073471
 20
-13.19951523636558
 30
0.0
 10
6.318345811782548
 20
-13.17534110067998
 30
0.0
 10
6.309155322491946
 20
-13.15116696499309
 30
0.0
 10
6.3001082241741
 20
-13.12692216922224
 30
0.0
 10
6.291205555845313
 20
-13.10260775238855
 30
0.0
 10
6.282302887516527
 20
-13.07829333555357
 30
0.0
 10
6.273544649177122
 20
-13.05390929765447
 30
0.0
 10
6.264931879843724
 20
-13.02945667771363
 30
0.0
 10
6.256319110510004
 20
-13.00500405777152
 30
0.0
 10
6.24785181018197
 20
-12.98048285578511
 30
0.0
 10
6.239531017876248
 20
-12.9558941107768
 30
0.0
 10
6.231210225570845
 20
-12.93130536576849
 30
0.0
 10
6.223035941287432
 20
-12.90664907773701
 30
0.0
 10
6.215009204042635
 20
-12.88192628570346
 30
0.0
 10
6.206982466797838
 20
-12.85720349366863
 30
0.0
 10
6.199103276591655
 20
-12.83241419763174
 30
0.0
 10
6.191372672441034
 20
-12.80755943661263
 30
0.0
 10
6.183642068290412
 20
-12.78270467559223
 30
0.0
 10
6.17606005019471
 20
-12.75778444959088
 30
0.0
 10
6.168627657170873
 20
-12.73279979762715
 30
0.0
 10
6.161195264147037
 20
-12.70781514566341
 30
0.0
 10
6.153912496195066
 20
-12.68276606773856
 30
0.0
 10
6.146780392331263
 20
-12.65765360287115
 30
0.0
 10
6.139648288467462
 20
-12.63254113800375
 30
0.0
 10
6.132666848691509
 20
-12.60736528619506
 30
0.0
 10
6.125837112020672
 20
-12.58212708646622
 30
0.0
 10
6.119007375349513
 20
-12.55688888673609
 30
0.0
 10
6.112329341783471
 20
-12.53158833908581
 30
0.0
 10
6.105804050338207
 20
-12.50622648253391
 30
0.0
 10
6.099278758893263
 20
-12.4808646259833
 30
0.0
 10
6.092906209569419
 20
-12.45544146053108
 30
0.0
 10
6.086687441383299
 20
-12.42995802519837
 30
0.0
 10
6.080468673196858
 20
-12.40447458986694
 30
0.0
 10
6.074403686148463
 20
-12.37893088465374
 30
0.0
 10
6.068493519254096
 20
-12.35332794858116
 30
0.0
 10
6.062583352359729
 20
-12.32772501250858
 30
0.0
 10
6.056828005620033
 20
-12.30206284557662
 30
0.0
 10
6.051228518050348
 20
-12.27634248680513
 30
0.0
 10
6.045629030481305
 20
-12.25062212803235
 30
0.0
 10
6.040185402082274
 20
-12.22484357742131
 30
0.0
 10
6.034898671870844
 20
-12.19900787399057
 30
0.0
 10
6.029611941659413
 20
-12.17317217055982
 30
0.0
 10
6.02448210963494
 20
-12.14727931431065
 30
0.0
 10
6.01951021481405
 20
-12.12133034426289
 30
0.0
 10
6.014538319993481
 20
-12.09538137421513
 30
0.0
 10
6.009724362376496
 20
-12.0693762903675
 30
0.0
 10
6.005069380979399
 20
-12.04331613174239
 30
0.0
 10
6.000414399582301
 20
-12.01725597311728
 30
0.0
 10
5.995918394405733
 20
-11.9911407397147
 30
0.0
 10
5.991582404465677
 20
-11.9649714705532
 30
0.0
 10
5.987246414525301
 20
-11.9388022013917
 30
0.0
 10
5.983070439822079
 20
-11.91257889647384
 30
0.0
 10
5.979055519371673
 20
-11.88630259481689
 30
0.0
 10
5.975040598921269
 20
-11.86002629316122
 30
0.0
 10
5.971186732724322
 20
-11.83369699476646
 30
0.0
 10
5.967494959796498
 20
-11.8073157386563
 30
0.0
 10
5.963803186868994
 20
-11.78093448254486
 30
0.0
 10
5.960273507211253
 20
-11.75450126871672
 30
0.0
 10
5.95690695983926
 20
-11.72801713619173
 30
0.0
 10
5.953540412467265
 20
-11.70153300366803
 30
0.0
 10
5.950336997381659
 20
-11.67499795244618
 30
0.0
 10
5.947297753598746
 20
-11.6484130215486
 30
0.0
 10
5.944258509815512
 20
-11.62182809065101
 30
0.0
 10
5.941383437335292
 20
-11.59519328007769
 30
0.0
 10
5.938673575174068
 20
-11.56850962884847
 30
0.0
 10
5.935963713012844
 20
-11.54182597761796
 30
0.0
 10
5.933419061170618
 20
-11.51509348573282
 30
0.0
 10
5.931040658664013
 20
-11.4883131922129
 30
0.0
 10
5.928662256157408
 20
-11.4615328986917
 30
0.0
 10
5.926450102986426
 20
-11.43470480353571
 30
0.0
 10
5.92440523816769
 20
-11.40782994576477
 30
0.0
 10
5.922360373348634
 20
-11.38095508799382
 30
0.0
 10
5.920482796881825
 20
-11.35403346760793
 30
0.0
 10
5.918773547783568
 20
-11.32706612362691
 30
0.0
 10
5.91706429868531
 20
-11.30009877964589
 30
0.0
 10
5.915523376955604
 20
-11.27308571207007
 30
0.0
 10
5.914151821611076
 20
-11.24602795992057
 30
0.0
 10
5.912780266266546
 20
-11.21897020777107
 30
0.0
 10
5.911578077307194
 20
-11.19186777104692
 30
0.0
 10
5.910546293749323
 20
-11.16472168876989
 30
0.0
 10
5.909514510191451
 20
-11.13757560649158
 30
0.0
 10
5.908653132035061
 20
-11.11038587866038
 30
0.0
 10
5.907963198296778
 20
-11.08315354429548
 30
0.0
 10
5.907273264558493
 20
-11.05592120993058
 30
0.0
 10
5.906754775238316
 20
-11.028646269032
 30
0.0
 10
5.906408769352869
 20
-11.00132976062147
 30
0.0
 10
5.906062763467102
 20
-10.97401325220966
 30
0.0
 10
5.905889241016067
 20
-10.94665517628592
 30
0.0
 10
5.905889241016067
 20
-10.91925657186879
 30
0.0
 10
5.905889241016067
 20
-10.89185796745166
 30
0.0
 10
5.906062763467102
 20
-10.86449989152791
 30
0.0
 10
5.906408769352869
 20
-10.8371833831161
 30
0.0
 10
5.906754775238316
 20
-10.80986687470558
 30
0.0
 10
5.907273264558493
 20
-10.78259193380699
 30
0.0
 10
5.907963198296778
 20
-10.75535959944209
 30
0.0
 10
5.908653132035061
 20
-10.7281272650772
 30
0.0
 10
5.909514510191451
 20
-10.700937537246
 30
0.0
 10
5.910546293749323
 20
-10.67379145496768
 30
0.0
 10
5.911578077307194
 20
-10.64664537269065
 30
0.0
 10
5.912780266266546
 20
-10.61954293596651
 30
0.0
 10
5.914151821611076
 20
-10.592485183817
 30
0.0
 10
5.915523376955604
 20
-10.5654274316675
 30
0.0
 10
5.91706429868531
 20
-10.53841436409201
 30
0.0
 10
5.918773547783568
 20
-10.51144702011099
 30
0.0
 10
5.920482796881825
 20
-10.48447967612997
 30
0.0
 10
5.922360373348634
 20
-10.45755805574407
 30
0.0
 10
5.92440523816769
 20
-10.43068319797281
 30
0.0
 10
5.926450102986426
 20
-10.40380834020154
 30
0.0
 10
5.928662256157408
 20
-10.37698024504523
 30
0.0
 10
5.931040658664013
 20
-10.35019995152467
 30
0.0
 10
5.933419061170618
 20
-10.32341965800379
 30
0.0
 10
5.935963713012844
 20
-10.29668716611866
 30
0.0
 10
5.938673575174068
 20
-10.27000351488911
 30
0.0
 10
5.941383437335292
 20
-10.24331986365956
 30
0.0
 10
5.944258509815512
 20
-10.21668505308624
 30
0.0
 10
5.947297753598746
 20
-10.19010012218865
 30
0.0
 10
5.950336997381659
 20
-10.16351519129107
 30
0.0
 10
5.953540412467265
 20
-10.13698014006987
 30
0.0
 10
5.95690695983926
 20
-10.1104960075452
 30
0.0
 10
5.960273507211253
 20
-10.08401187502053
 30
0.0
 10
5.963803186868994
 20
-10.05757866119272
 30
0.0
 10
5.967494959796498
 20
-10.03119740508159
 30
0.0
 10
5.971186732724322
 20
-10.00481614897079
 30
0.0
 10
5.975040598921269
 20
-9.978486850576674
 30
0.0
 10
5.979055519371673
 20
-9.952210548920366
 30
0.0
 10
5.983070439822079
 20
-9.925934247264058
 30
0.0
 10
5.987246414525301
 20
-9.899710942344914
 30
0.0
 10
5.991582404465677
 20
-9.873541673184052
 30
0.0
 10
5.995918394405733
 20
-9.84737240402287
 30
0.0
 10
6.000414399582301
 20
-9.821257170619326
 30
0.0
 10
6.005069380979399
 20
-9.79519701199454
 30
0.0
 10
6.009724362376496
 20
-9.769136853369755
 30
0.0
 10
6.014538319993481
 20
-9.743131769522762
 30
0.0
 10
6.01951021481405
 20
-9.717182799474681
 30
0.0
 10
6.02448210963494
 20
-9.6912338294266
 30
0.0
 10
6.029611941659413
 20
-9.665340973177111
 30
0.0
 10
6.034898671870844
 20
-9.639505269746687
 30
0.0
 10
6.040185402082274
 20
-9.613669566316265
 30
0.0
 10
6.045629030481305
 20
-9.587891015704907
 30
0.0
 10
6.051228518050348
 20
-9.56217065693309
 30
0.0
 10
6.056828005620033
 20
-9.536450298161272
 30
0.0
 10
6.062583352359729
 20
-9.510788131228676
 30
0.0
 10
6.068493519254096
 20
-9.485185195156419
 30
0.0
 10
6.074403686148463
 20
-9.459582259083838
 30
0.0
 10
6.080468673196858
 20
-9.434038553871275
 30
0.0
 10
6.086687441383299
 20
-9.408555118538883
 30
0.0
 10
6.092906209569419
 20
-9.383071683206492
 30
0.0
 10
6.099278758893263
 20
-9.357648517754592
 30
0.0
 10
6.105804050338207
 20
-9.33228666120302
 30
0.0
 10
6.112329341783471
 20
-9.306924804651445
 30
0.0
 10
6.119007375349513
 20
-9.281624257000837
 30
0.0
 10
6.125837112020672
 20
-9.256386057271353
 30
0.0
 10
6.132666848691509
 20
-9.231147857541869
 30
0.0
 10
6.139648288467462
 20
-9.205972005733505
 30
0.0
 10
6.146780392331263
 20
-9.18085954086642
 30
0.0
 10
6.153912496195066
 20
-9.155747075999333
 30
0.0
 10
6.161195264147037
 20
-9.130697998073844
 30
0.0
 10
6.168627657170873
 20
-9.105713346110107
 30
0.0
 10
6.17606005019471
 20
-9.08072869414637
 30
0.0
 10
6.183642068290412
 20
-9.055808468144706
 30
0.0
 10
6.191372672441034
 20
-9.030953707125267
 30
0.0
 10
6.199103276591655
 20
-9.00609894610583
 30
0.0
 10
6.206982466797838
 20
-8.98130965006862
 30
0.0
 10
6.215009204042635
 20
-8.956586858034433
 30
0.0
 10
6.223035941287432
 20
-8.931864065999925
 30
0.0
 10
6.231210225570845
 20
-8.90720777796812
 30
0.0
 10
6.239531017876248
 20
-8.882619032959493
 30
0.0
 10
6.24785181018197
 20
-8.858030287950864
 30
0.0
 10
6.256319110510004
 20
-8.833509085965416
 30
0.0
 10
6.264931879843724
 20
-8.809056466023298
 30
0.0
 10
6.273544649177122
 20
-8.784603846081502
 30
0.0
 10
6.282302887516527
 20
-8.760219808183038
 30
0.0
 10
6.291205555845313
 20
-8.735905391348382
 30
0.0
 10
6.3001082241741
 20
-8.711590974513726
 30
0.0
 10
6.309155322491946
 20
-8.687346178743198
 30
0.0
 10
6.318345811782548
 20
-8.663172043056953
 30
0.0
 10
6.327536301073471
 20
-8.638997907370708
 30
0.0
 10
6.33687018133683
 20
-8.614894431768747
 30
0.0
 10
6.34634641355664
 20
-8.590862655271543
 30
0.0
 10
6.355822645776129
 20
-8.566830878774342
 30
0.0
 10
6.36544122995207
 20
-8.542870801381897
 30
0.0
 10
6.375201127067838
 20
-8.518983462114686
 30
0.0
 10
6.384961024183606
 20
-8.495096122847155
 30
0.0
 10
6.394862234239199
 20
-8.471281521705178
 30
0.0
 10
6.404903718218316
 20
-8.44754069770859
 30
0.0
 10
6.414945202197432
 20
-8.423799873712001
 30
0.0
 10
6.425126960099429
 20
-8.400132826860801
 30
0.0
 10
6.435447952908323
 20
-8.376540596175785
 30
0.0
 10
6.445768945717217
 20
-8.35294836549077
 30
0.0
 10
6.456229173433008
 20
-8.329430950971618
 30
0.0
 10
6.46682759703875
 20
-8.305989391638805
 30
0.0
 10
6.477426020644812
 20
-8.282547832305992
 30
0.0
 10
6.488162640141147
 20
-8.259182128159518
 30
0.0
 10
6.499036416511129
 20
-8.235893318219858
 30
0.0
 10
6.509910192881431
 20
-8.212604508280199
 30
0.0
 10
6.52092112612538
 20
-8.189392592547033
 30
0.0
 10
6.532068177226671
 20
-8.166258610041158
 30
0.0
 10
6.543215228327963
 20
-8.143124627535283
 30
0.0
 10
6.554498397286597
 20
-8.120068578256696
 30
0.0
 10
6.565916645085948
 20
-8.097091501225554
 30
0.0
 10
6.577334892885299
 20
-8.074114424194734
 30
0.0
 10
6.588888219525688
 20
-8.051216319411036
 30
0.0
 10
6.600575585990169
 20
-8.028398225895579
 30
0.0
 10
6.61226295245465
 20
-8.005580132380123
 30
0.0
 10
6.624084358743544
 20
-7.982842050132585
 30
0.0
 10
6.636038765840226
 20
-7.960185018173443
 30
0.0
 10
6.647993172937229
 20
-7.937527986214301
 30
0.0
 10
6.660080580841698
 20
-7.914952004543554
 30
0.0
 10
6.672299950537651
 20
-7.892458112181356
 30
0.0
 10
6.684519320233604
 20
-7.869964219819158
 30
0.0
 10
6.69687065172104
 20
-7.847552416766152
 30
0.0
 10
6.709352905983014
 20
-7.82522374204217
 30
0.0
 10
6.721835160244988
 20
-7.802895067317868
 30
0.0
 10
6.73444833728182
 20
-7.780649520923232
 30
0.0
 10
6.747191398077206
 20
-7.758488141877776
 30
0.0
 10
6.759934458872592
 20
-7.736326762832641
 30
0.0
 10
6.772807403426211
 20
-7.714249551137006
 30
0.0
 10
6.785809192721758
 20
-7.692257545811346
 30
0.0
 10
6.798810982017306
 20
-7.670265540485687
 30
0.0
 10
6.811941616054783
 20
-7.648358741530003
 30
0.0
 10
6.825200055817563
 20
-7.62653818796477
 30
0.0
 10
6.838458495580343
 20
-7.604717634399537
 30
0.0
 10
6.851844741068427
 20
-7.582983326224755
 30
0.0
 10
6.86535775326551
 20
-7.561336302460579
 30
0.0
 10
6.878870765462593
 20
-7.539689278696403
 30
0.0
 10
6.892510544368675
 20
-7.518129539343152
 30
0.0
 10
6.90627605096681
 20
-7.496658123420984
 30
0.0
 10
6.920041557564947
 20
-7.475186707498814
 30
0.0
 10
6.933932791855456
 20
-7.453803615008047
 30
0.0
 10
6.947948714822356
 20
-7.432509884968836
 30
0.0
 10
6.961964637788615
 20
-7.411216154929625
 30
0.0
 10
6.976105249431264
 20
-7.39001178734197
 30
0.0
 10
6.990369510733037
 20
-7.368897821226668
 30
0.0
 10
7.00463377203481
 20
-7.347783855111365
 30
0.0
 10
7.019021682996027
 20
-7.326760290467774
 30
0.0
 10
7.033532204600065
 20
-7.305828166316689
 30
0.0
 10
7.048042726204423
 20
-7.284896042165604
 30
0.0
 10
7.0626758584516
 20
-7.264055358507027
 30
0.0
 10
7.077430562324971
 20
-7.24330715436111
 30
0.0
 10
7.092185266198343
 20
-7.222558950215194
 30
0.0
 10
7.107061541698551
 20
-7.20190322558226
 30
0.0
 10
7.122058349808327
 20
-7.181341019482463
 30
0.0
 10
7.137055157918105
 20
-7.160778813382666
 30
0.0
 10
7.152172498638092
 20
-7.140310125816006
 30
0.0
 10
7.167409332951344
 20
-7.119935995803279
 30
0.0
 10
7.182646167264597
 20
-7.099561865790552
 30
0.0
 10
7.198002495171114
 20
-7.079282293331116
 30
0.0
 10
7.213477277654591
 20
-7.059098317446089
 30
0.0
 10
7.228952060138069
 20
-7.038914341561061
 30
0.0
 10
7.244545297198507
 20
-7.0188259622498
 30
0.0
 10
7.260255949819602
 20
-6.998834218533102
 30
0.0
 10
7.275966602440695
 20
-6.978842474816405
 30
0.0
 10
7.291794670622125
 20
-6.95894736669427
 30
0.0
 10
7.307739115347585
 20
-6.939149933186532
 30
0.0
 10
7.323683560072725
 20
-6.919352499679436
 30
0.0
 10
7.339744381342217
 20
-6.899652740786736
 30
0.0
 10
7.355920540139114
 20
-6.880051695529549
 30
0.0
 10
7.372096698935691
 20
-6.860450650272363
 30
0.0
 10
7.388388195259994
 20
-6.840948318650369
 30
0.0
 10
7.404793990095078
 20
-6.821545739684044
 30
0.0
 10
7.421199784930482
 20
-6.802143160717719
 30
0.0
 10
7.437719878276667
 20
-6.782840334407062
 30
0.0
 10
7.454353231117008
 20
-6.763638299772548
 30
0.0
 10
7.47098658395767
 20
-6.744436265138035
 30
0.0
 10
7.487733196292807
 20
-6.725335022179344
 30
0.0
 10
7.504592029105797
 20
-6.706335609917593
 30
0.0
 10
7.521450861919107
 20
-6.687336197655521
 30
0.0
 10
7.538421915209947
 20
-6.668438616089747
 30
0.0
 10
7.555504149962655
 20
-6.649643904241388
 30
0.0
 10
7.572586384715363
 20
-6.630849192392708
 30
0.0
 10
7.589779800929297
 20
-6.612157350260802
 30
0.0
 10
7.607083359588473
 20
-6.593569416866465
 30
0.0
 10
7.62438691824765
 20
-6.574981483471809
 30
0.0
 10
7.641800619351427
 20
-6.556497458814721
 30
0.0
 10
7.659323423884143
 20
-6.538118381915357
 30
0.0
 10
7.676846228416858
 20
-6.519739305015672
 30
0.0
 10
7.69447813637787
 20
-6.501465175874032
 30
0.0
 10
7.712218108751196
 20
-6.483297033510271
 30
0.0
 10
7.7299580811242
 20
-6.46512889114651
 30
0.0
 10
7.747806117909517
 20
-6.447066735560949
 30
0.0
 10
7.76576118008988
 20
-6.429111605773742
 30
0.0
 10
7.783716242270244
 20
-6.411156475986535
 30
0.0
 10
7.801778329846615
 20
-6.393308371998002
 30
0.0
 10
7.81994640380173
 20
-6.375568332828299
 30
0.0
 10
7.838114477756844
 20
-6.357828293658596
 30
0.0
 10
7.856388538091341
 20
-6.340196319308043
 30
0.0
 10
7.874767545787956
 20
-6.322673448796474
 30
0.0
 10
7.893146553484569
 20
-6.305150578284905
 30
0.0
 10
7.911630508543942
 20
-6.28773681161264
 30
0.0
 10
7.930218371949448
 20
-6.270433187800156
 30
0.0
 10
7.948806235354633
 20
-6.253129563987993
 30
0.0
 10
7.967498007105951
 20
-6.235936083034968
 30
0.0
 10
7.986292648186777
 20
-6.218853783962519
 30
0.0
 10
8.005087289267603
 20
-6.20177148489007
 30
0.0
 10
8.023984799677937
 20
-6.184800367697557
 30
0.0
 10
8.042984140401476
 20
-6.167941471405452
 30
0.0
 10
8.061983481125013
 20
-6.151082575113349
 30
0.0
 10
8.081084652161435
 20
-6.134335899721975
 30
0.0
 10
8.100286614494433
 20
-6.117702484251487
 30
0.0
 10
8.119488576827754
 20
-6.101069068780999
 30
0.0
 10
8.138791330457332
 20
-6.084548913231397
 30
0.0
 10
8.158193836366863
 20
-6.068143056623155
 30
0.0
 10
8.177596342276715
 20
-6.051737200014913
 30
0.0
 10
8.197098600466521
 20
-6.035445642348353
 30
0.0
 10
8.216699571919975
 20
-6.019269422642987
 30
0.0
 10
8.23630054337343
 20
-6.003093202937942
 30
0.0
 10
8.256000228090214
 20
-5.987032321194733
 30
0.0
 10
8.27579758705434
 20
-5.971087816433194
 30
0.0
 10
8.295594946018468
 20
-5.955143311671975
 30
0.0
 10
8.315489979229298
 20
-5.939315183892748
 30
0.0
 10
8.33548164767117
 20
-5.923604472116306
 30
0.0
 10
8.355473316113041
 20
-5.907893760339865
 30
0.0
 10
8.37556161978531
 20
-5.89230046456589
 30
0.0
 10
8.395745519671674
 20
-5.876825623814857
 30
0.0
 10
8.415929419558038
 20
-5.861350783063823
 30
0.0
 10
8.436208915658497
 20
-5.845994397335731
 30
0.0
 10
8.456582968956747
 20
-5.830757505651055
 30
0.0
 10
8.476957022254995
 20
-5.815520613966378
 30
0.0
 10
8.497425632750392
 20
-5.800403216324799
 30
0.0
 10
8.517987761427275
 20
-5.785406351747432
 30
0.0
 10
8.538549890104157
 20
-5.770409487169744
 30
0.0
 10
8.559205536961885
 20
-5.755533155655947
 30
0.0
 10
8.579953662984472
 20
-5.740778396226198
 30
0.0
 10
8.60070178900706
 20
-5.72602363679677
 30
0.0
 10
8.621542394194186
 20
-5.711390449451067
 30
0.0
 10
8.64247443952955
 20
-5.696879873210207
 30
0.0
 10
8.663406484864913
 20
-5.682369296969347
 30
0.0
 10
8.68442997034851
 20
-5.667981331833008
 30
0.0
 10
8.705543856963398
 20
-5.653717016821668
 30
0.0
 10
8.726657743578286
 20
-5.639452701810006
 30
0.0
 10
8.747862031325104
 20
-5.625312036923662
 30
0.0
 10
8.769155681186907
 20
-5.611296061182792
 30
0.0
 10
8.790449331048713
 20
-5.597280085441921
 30
0.0
 10
8.8118323430255
 20
-5.583388798846201
 30
0.0
 10
8.833303678101613
 20
-5.56962324041643
 30
0.0
 10
8.854775013177083
 20
-5.555857681986659
 30
0.0
 10
8.876334671351554
 20
-5.542217851722835
 30
0.0
 10
8.89798161360776
 20
-5.528704788644794
 30
0.0
 10
8.919628555863966
 20
-5.515191725567074
 30
0.0
 10
8.941362782202548
 20
-5.501805429675455
 30
0.0
 10
8.963183253606882
 20
-5.488546939990415
 30
0.0
 10
8.985003725011214
 20
-5.475288450305374
 30
0.0
 10
9.0069104414813
 20
-5.462157766826913
 30
0.0
 10
9.028902364000512
 20
-5.449155928575503
 30
0.0
 10
9.050894286519723
 20
-5.436154090324094
 30
0.0
 10
9.072971415087418
 20
-5.423281097299738
 30
0.0
 10
9.095132710688898
 20
-5.41053798852291
 30
0.0
 10
9.117294006289095
 20
-5.397794879746083
 30
0.0
 10
9.139539468923076
 20
-5.385181655216464
 30
0.0
 10
9.161868059572933
 20
-5.372699353954527
 30
0.0
 10
9.18419665022279
 20
-5.36021705269259
 30
0.0
 10
9.206608368888523
 20
-5.347865674698979
 30
0.0
 10
9.229102176554147
 20
-5.335646258993204
 30
0.0
 10
9.25159598421977
 20
-5.323426843287431
 30
0.0
 10
9.274171880885289
 20
-5.311339389870136
 30
0.0
 10
9.296828827534073
 20
-5.299384937761154
 30
0.0
 10
9.319485774182215
 20
-5.287430485652493
 30
0.0
 10
9.342223770814266
 20
-5.275609034852145
 30
0.0
 10
9.36504177841296
 20
-5.263921624380907
 30
0.0
 10
9.387859786011012
 20
-5.252234213909668
 30
0.0
 10
9.410757804576347
 20
-5.240680843767539
 30
0.0
 10
9.433734795091699
 20
-5.229262552974673
 30
0.0
 10
9.456711785607052
 20
-5.217844262182128
 30
0.0
 10
9.479767748073062
 20
-5.206561050738847
 30
0.0
 10
9.502901643471823
 20
-5.195413957665305
 30
0.0
 10
9.526035538871225
 20
-5.184266864591762
 30
0.0
 10
9.54924736720466
 20
-5.17325588988828
 30
0.0
 10
9.572536089454863
 20
-5.162382072575012
 30
0.0
 10
9.595824811705064
 20
-5.151508255261423
 30
0.0
 10
9.619190427872676
 20
-5.14077159533837
 30
0.0
 10
9.642631898941069
 20
-5.130173131826006
 30
0.0
 10
9.666073370009462
 20
-5.119574668313322
 30
0.0
 10
9.689590695978637
 20
-5.109114401211649
 30
0.0
 10
9.713182837831972
 20
-5.098793369540819
 30
0.0
 10
9.736774979684665
 20
-5.088472337870311
 30
0.0
 10
9.760441937422156
 20
-5.078290541630646
 30
0.0
 10
9.784182672027823
 20
-5.068249019842302
 30
0.0
 10
9.807923406632847
 20
-5.058207498053957
 30
0.0
 10
9.831737918105405
 20
-5.048306250717574
 30
0.0
 10
9.855625167430153
 20
-5.038546316852665
 30
0.0
 10
9.87951241675426
 20
-5.028786382987755
 30
0.0
 10
9.903472403929916
 20
-5.019167762594642
 30
0.0
 10
9.927504089939854
 20
-5.009691494693798
 30
0.0
 10
9.951535775949791
 20
-5.000215226792955
 30
0.0
 10
9.975639160795295
 20
-4.990881311384381
 30
0.0
 10
9.999813205458455
 20
-4.981690787488554
 30
0.0
 10
10.02398725012162
 20
-4.972500263592726
 30
0.0
 10
10.04823195460372
 20
-4.963453131209966
 30
0.0
 10
10.07254627988685
 20
-4.954550429359784
 30
0.0
 10
10.09686060516998
 20
-4.945647727509604
 30
0.0
 10
10.12124455125543
 20
-4.936889456192644
 30
0.0
 10
10.14569707912593
 20
-4.928276654429059
 30
0.0
 10
10.17014960699643
 20
-4.919663852665795
 30
0.0
 10
10.19467071665197
 20
-4.911196520455907
 30
0.0
 10
10.21925936907659
 20
-4.902875696819549
 30
0.0
 10
10.2438480215012
 20
-4.894554873183191
 30
0.0
 10
10.26850421669423
 20
-4.886380558121005
 30
0.0
 10
10.29322691564035
 20
-4.878353790653145
 30
0.0
 10
10.31794961458582
 20
-4.870327023185285
 30
0.0
 10
10.34273881728373
 20
-4.862447803311753
 30
0.0
 10
10.36759348471746
 20
-4.8547171700527
 30
0.0
 10
10.39244815215119
 20
-4.846986536793647
 30
0.0
 10
10.41736828432074
 20
-4.839404490149397
 30
0.0
 10
10.44235284220947
 20
-4.831972069140424
 30
0.0
 10
10.46733740009884
 20
-4.82453964813145
 30
0.0
 10
10.49238638370677
 20
-4.817256852757112
 30
0.0
 10
10.51749875401725
 20
-4.810124722038847
 30
0.0
 10
10.54261112432838
 20
-4.802992591320261
 30
0.0
 10
10.56778688134207
 20
-4.796011125257107
 30
0.0
 10
10.59302498604235
 20
-4.78918136287018
 30
0.0
 10
10.61826309074262
 20
-4.782351600483254
 30
0.0
 10
10.64356354312883
 20
-4.775673541771914
 30
0.0
 10
10.66892530418565
 20
-4.769148225756956
 30
0.0
 10
10.69428706524181
 20
-4.762622909742319
 30
0.0
 10
10.71971013496794
 20
-4.756250336423744
 30
0.0
 10
10.74519347434739
 20
-4.750031544822026
 30
0.0
 10
10.77067681372685
 20
-4.743812753219987
 30
0.0
 10
10.79622042275964
 20
-4.737747743334806
 30
0.0
 10
10.82182326242913
 20
-4.731837554186958
 30
0.0
 10
10.84742610209926
 20
-4.72592736503911
 30
0.0
 10
10.87308817240546
 20
-4.720171996628275
 30
0.0
 10
10.89880843433302
 20
-4.714572487975247
 30
0.0
 10
10.92452869625929
 20
-4.708972979321899
 30
0.0
 10
10.95030714980693
 20
-4.703529330426359
 30
0.0
 10
10.97614275595803
 20
-4.698242580308461
 30
0.0
 10
11.00197836210912
 20
-4.692955830190564
 30
0.0
 10
11.02787112086432
 20
-4.68782597885095
 30
0.0
 10
11.05381999320634
 20
-4.682854065309454
 30
0.0
 10
11.079768865549
 20
-4.677882151767958
 30
0.0
 10
11.1057738514785
 20
-4.673068176024899
 30
0.0
 10
11.13183391197948
 20
-4.668413177100434
 30
0.0
 10
11.15789397248046
 20
-4.663758178175969
 30
0.0
 10
11.18400910755165
 20
-4.659262156070096
 30
0.0
 10
11.2101782781777
 20
-4.654926149803613
 30
0.0
 10
11.23634744880374
 20
-4.650590143537129
 30
0.0
 10
11.26257065498337
 20
-4.646414153109714
 30
0.0
 10
11.28884685770188
 20
-4.642399217542163
 30
0.0
 10
11.31512306042039
 20
-4.638384281974613
 30
0.0
 10
11.3414522596765
 20
-4.634530401266284
 30
0.0
 10
11.36783341645357
 20
-4.630838614437975
 30
0.0
 10
11.39421457323129
 20
-4.627146827609666
 30
0.0
 10
11.42064768752998
 20
-4.623617134661376
 30
0.0
 10
11.44713172033365
 20
-4.620250574613579
 30
0.0
 10
11.47361575313733
 20
-4.616884014565783
 30
0.0
 10
11.50015070444599
 20
-4.61368058741784
 30
0.0
 10
11.52673553524302
 20
-4.610641332191187
 30
0.0
 10
11.55332036604068
 20
-4.607602076964533
 30
0.0
 10
11.57995507632607
 20
-4.604726993658529
 30
0.0
 10
11.60663862708384
 20
-4.602017121293649
 30
0.0
 10
11.63332217784096
 20
-4.599307248928769
 30
0.0
 10
11.66005456907047
 20
-4.596762587505334
 30
0.0
 10
11.68683476175508
 20
-4.594384176043177
 30
0.0
 10
11.71361495444034
 20
-4.592005764581342
 30
0.0
 10
11.74044294858071
 20
-4.589793603080785
 30
0.0
 10
11.76731770515956
 20
-4.587748730562303
 30
0.0
 10
11.79419246173842
 20
-4.585703858043821
 30
0.0
 10
11.82111398075705
 20
-4.583826274507413
 30
0.0
 10
11.84808122319753
 20
-4.582117018973236
 30
0.0
 10
11.87504846563802
 20
-4.580407763439058
 30
0.0
 10
11.90206143150101
 20
-4.57886683590743
 30
0.0
 10
11.92911908177052
 20
-4.577495275398507
 30
0.0
 10
11.95617673203939
 20
-4.576123714889584
 30
0.0
 10
11.98327906671414
 20
-4.574921521403366
 30
0.0
 10
12.01042504677878
 20
-4.573889733960649
 30
0.0
 10
12.03757102684278
 20
-4.572857946517932
 30
0.0
 10
12.06476065229668
 20
-4.571996565118394
 30
0.0
 10
12.09199288412384
 20
-4.571306628782192
 30
0.0
 10
12.11922511595036
 20
-4.57061669244599
 30
0.0
 10
12.1464999541508
 20
-4.570098201173764
 30
0.0
 10
12.17381635970659
 20
-4.569752193985347
 30
0.0
 10
12.20113276526303
 20
-4.569406186796931
 30
0.0
 10
12.22849073817547
 20
-4.569232663692325
 30
0.0
 10
12.25588923942857
 20
-4.569232663692325
 30
0.0
 10
12.28328774068167
 20
-4.569232663692325
 30
0.0
 10
12.31064571359411
 20
-4.569406186796931
 30
0.0
 10
12.33796211915054
 20
-4.569752193985347
 30
0.0
 10
12.36527852470698
 20
-4.570098201173764
 30
0.0
 10
12.39255336290677
 20
-4.57061669244599
 30
0.0
 10
12.41978559473329
 20
-4.571306628782192
 30
0.0
 10
12.44701782655982
 20
-4.571996565118394
 30
0.0
 10
12.47420745201435
 20
-4.572857946517932
 30
0.0
 10
12.50135343207899
 20
-4.573889733960649
 30
0.0
 10
12.52849941214364
 20
-4.574921521403366
 30
0.0
 10
12.55560174681838
 20
-4.576123714889584
 30
0.0
 10
12.58265939708725
 20
-4.577495275398507
 30
0.0
 10
12.60971704735612
 20
-4.57886683590743
 30
0.0
 10
12.63673001321911
 20
-4.580407763439058
 30
0.0
 10
12.6636972556596
 20
-4.582117018973236
 30
0.0
 10
12.69066449810009
 20
-4.583826274507413
 30
0.0
 10
12.71758601711807
 20
-4.585703858043821
 30
0.0
 10
12.74446077369757
 20
-4.587748730562303
 30
0.0
 10
12.77133553027707
 20
-4.589793603080785
 30
0.0
 10
12.7981635244168
 20
-4.592005764581342
 30
0.0
 10
12.82494371710205
 20
-4.594384176043177
 30
0.0
 10
12.85172390978731
 20
-4.596762587505334
 30
0.0
 10
12.87845630101681
 20
-4.599307248928769
 30
0.0
 10
12.90513985177394
 20
-4.602017121293649
 30
0.0
 10
12.93182340253106
 20
-4.604726993658529
 30
0.0
 10
12.95845811281709
 20
-4.607602076964533
 30
0.0
 10
12.98504294361412
 20
-4.610641332191187
 30
0.0
 10
13.01162777441114
 20
-4.61368058741784
 30
0.0
 10
13.03816272572045
 20
-4.616884014565783
 30
0.0
 10
13.06464675852412
 20
-4.620250574613579
 30
0.0
 10
13.0911307913278
 20
-4.623617134661376
 30
0.0
 10
13.11756390562649
 20
-4.627146827609666
 30
0.0
 10
13.1439450624042
 20
-4.630838614437975
 30
0.0
 10
13.17032621918128
 20
-4.634530401266284
 30
0.0
 10
13.19665541843738
 20
-4.638384281974613
 30
0.0
 10
13.22293162115589
 20
-4.642399217542163
 30
0.0
 10
13.2492078238744
 20
-4.646414153109714
 30
0.0
 10
13.27543103005403
 20
-4.650590143537129
 30
0.0
 10
13.30160020068008
 20
-4.654926149803613
 30
0.0
 10
13.32776937130613
 20
-4.659262156070096
 30
0.0
 10
13.35388450637732
 20
-4.663758178175969
 30
0.0
 10
13.3799445668783
 20
-4.668413177100434
 30
0.0
 10
13.40600462737928
 20
-4.673068176024899
 30
0.0
 10
13.43200961330877
 20
-4.677882151767958
 30
0.0
 10
13.4579584856508
 20
-4.682854065309454
 30
0.0
 10
13.48390735799282
 20
-4.68782597885095
 30
0.0
 10
13.50980011674801
 20
-4.692955830190564
 30
0.0
 10
13.53563572289911
 20
-4.698242580308461
 30
0.0
 10
13.5614713290502
 20
-4.703529330426359
 30
0.0
 10
13.5872497825972
 20
-4.708972979321899
 30
0.0
 10
13.61297004452476
 20
-4.714572487975247
 30
0.0
 10
13.63869030645104
 20
-4.720171996628275
 30
0.0
 10
13.66435237675788
 20
-4.72592736503911
 30
0.0
 10
13.68995521642737
 20
-4.731837554186958
 30
0.0
 10
13.7155580560975
 20
-4.737747743334806
 30
0.0
 10
13.74110166513028
 20
-4.743812753219987
 30
0.0
 10
13.76658500450974
 20
-4.750031544822026
 30
0.0
 10
13.79206834388919
 20
-4.756250336423744
 30
0.0
 10
13.81749141361532
 20
-4.762622909742319
 30
0.0
 10
13.84285317467149
 20
-4.769148225756956
 30
0.0
 10
13.86821493572766
 20
-4.775673541771914
 30
0.0
 10
13.89351538811451
 20
-4.782351600483254
 30
0.0
 10
13.91875349281479
 20
-4.78918136287018
 30
0.0
 10
13.94399159751442
 20
-4.796011125257107
 30
0.0
 10
13.96916735452875
 20
-4.802992591320261
 30
0.0
 10
13.99427972483924
 20
-4.810124722038847
 30
0.0
 10
14.01939209515037
 20
-4.817256852757112
 30
0.0
 10
14.04444107875893
 20
-4.82453964813145
 30
0.0
 10
14.06942563664767
 20
-4.831972069140424
 30
0.0
 10
14.0944101945364
 20
-4.839404490149397
 30
0.0
 10
14.11933032670594
 20
-4.846986536793647
 30
0.0
 10
14.14418499413967
 20
-4.8547171700527
 30
0.0
 10
14.1690396615734
 20
-4.862447803311753
 30
0.0
 10
14.19382886427131
 20
-4.870327023185285
 30
0.0
 10
14.21855156321679
 20
-4.878353790653145
 30
0.0
 10
14.24327426216226
 20
-4.886380558121005
 30
0.0
 10
14.26793045735594
 20
-4.894554873183191
 30
0.0
 10
14.29251910978055
 20
-4.902875696819549
 30
0.0
 10
14.31710776220452
 20
-4.911196520455907
 30
0.0
 10
14.3416288718607
 20
-4.919663852665795
 30
0.0
 10
14.36608139973056
 20
-4.928276654429059
 30
0.0
 10
14.39053392760106
 20
-4.936889456192644
 30
0.0
 10
14.41491787368651
 20
-4.945647727509604
 30
0.0
 10
14.43923219896964
 20
-4.954550429359784
 30
0.0
 10
14.46354652425277
 20
-4.963453131209966
 30
0.0
 10
14.48779122873488
 20
-4.972500263592726
 30
0.0
 10
14.51196527339804
 20
-4.981690787488554
 30
0.0
 10
14.5361393180612
 20
-4.990881311384381
 30
0.0
 10
14.5602427029067
 20
-5.000215226792955
 30
0.0
 10
14.58427438891664
 20
-5.009691494693798
 30
0.0
 10
14.60830607492658
 20
-5.019167762594642
 30
0.0
 10
14.63226606210223
 20
-5.028786382987755
 30
0.0
 10
14.65615331142634
 20
-5.038546316852665
 30
0.0
 10
14.68004056075109
 20
-5.048306250717574
 30
0.0
 10
14.70385507222429
 20
-5.058207498053957
 30
0.0
 10
14.72759580682931
 20
-5.068249019842302
 30
0.0
 10
14.75133654143434
 20
-5.078290541630646
 30
0.0
 10
14.77500349917247
 20
-5.088472337870311
 30
0.0
 10
14.79859564102516
 20
-5.098793369540819
 30
0.0
 10
14.8221877828785
 20
-5.109114401211649
 30
0.0
 10
14.84570510884767
 20
-5.119574668313322
 30
0.0
 10
14.86914657991542
 20
-5.130173131826006
 30
0.0
 10
14.89258805098382
 20
-5.14077159533837
 30
0.0
 10
14.91595366715143
 20
-5.151508255261423
 30
0.0
 10
14.93924238940163
 20
-5.162382072575012
 30
0.0
 10
14.96253111165183
 20
-5.17325588988828
 30
0.0
 10
14.98574293998527
 20
-5.184266864591762
 30
0.0
 10
15.00887683538467
 20
-5.195413957665305
 30
0.0
 10
15.03201073078407
 20
-5.206561050738847
 30
0.0
 10
15.05506669324944
 20
-5.217844262182128
 30
0.0
 10
15.07804368376479
 20
-5.229262552974673
 30
0.0
 10
15.10102067428014
 20
-5.240680843767539
 30
0.0
 10
15.12391869284548
 20
-5.252234213909668
 30
0.0
 10
15.14673670044353
 20
-5.263921624380907
 30
0.0
 10
15.16955470804223
 20
-5.275609034852145
 30
0.0
 10
15.19229270467364
 20
-5.287430485652493
 30
0.0
 10
15.21494965132242
 20
-5.299384937761154
 30
0.0
 10
15.2376065979712
 20
-5.311339389870136
 30
0.0
 10
15.26018249463672
 20
-5.323426843287431
 30
0.0
 10
15.28267630230235
 20
-5.335646258993204
 30
0.0
 10
15.30517010996797
 20
-5.347865674698979
 30
0.0
 10
15.32758182863435
 20
-5.36021705269259
 30
0.0
 10
15.3499104192842
 20
-5.372699353954527
 30
0.0
 10
15.37223900993406
 20
-5.385181655216464
 30
0.0
 10
15.3944844725674
 20
-5.397794879746083
 30
0.0
 10
15.41664576816824
 20
-5.41053798852291
 30
0.0
 10
15.43880706376907
 20
-5.423281097299738
 30
0.0
 10
15.46088419233805
 20
-5.436154090324094
 30
0.0
 10
15.48287611485662
 20
-5.449155928575503
 30
0.0
 10
15.50486803737583
 20
-5.462157766826913
 30
0.0
 10
15.52677475384592
 20
-5.475288450305374
 30
0.0
 10
15.54859522525025
 20
-5.488546939990415
 30
0.0
 10
15.57041569665459
 20
-5.501805429675455
 30
0.0
 10
15.59214992299253
 20
-5.515191725567074
 30
0.0
 10
15.61379686524938
 20
-5.528704788644794
 30
0.0
 10
15.63544380750558
 20
-5.542217851722835
 30
0.0
 10
15.65700346568005
 20
-5.555857681986659
 30
0.0
 10
15.67847480075552
 20
-5.56962324041643
 30
0.0
 10
15.69994613583163
 20
-5.583388798846201
 30
0.0
 10
15.7213291478081
 20
-5.597280085441921
 30
0.0
 10
15.74262279767023
 20
-5.611296061182792
 30
0.0
 10
15.76391644753171
 20
-5.625312036923662
 30
0.0
 10
15.78512073527885
 20
-5.639452701810006
 30
0.0
 10
15.80623462189374
 20
-5.653717016821668
 30
0.0
 10
15.82734850850862
 20
-5.667981331833008
 30
0.0
 10
15.84837199399254
 20
-5.682369296969347
 30
0.0
 10
15.86930403932758
 20
-5.696879873210207
 30
0.0
 10
15.89023608466327
 20
-5.711390449451067
 30
0.0
 10
15.91107668985007
 20
-5.72602363679677
 30
0.0
 10
15.93182481587266
 20
-5.740778396226198
 30
0.0
 10
15.95257294189525
 20
-5.755533155655947
 30
0.0
 10
15.97322858875362
 20
-5.770409487169744
 30
0.0
 10
15.9937907174305
 20
-5.785406351747432
 30
0.0
 10
16.01435284610738
 20
-5.800403216324799
 30
0.0
 10
16.03482145660278
 20
-5.815520613966378
 30
0.0
 10
16.05519550990071
 20
-5.830757505651055
 30
0.0
 10
16.07556956319864
 20
-5.845994397335731
 30
0.0
 10
16.09584905929909
 20
-5.861350783063823
 30
0.0
 10
16.11603295918546
 20
-5.876825623814857
 30
0.0
 10
16.13621685907182
 20
-5.89230046456589
 30
0.0
 10
16.15630516274409
 20
-5.907893760339865
 30
0.0
 10
16.17629683118564
 20
-5.923604472116306
 30
0.0
 10
16.19628849962719
 20
-5.939315183892748
 30
0.0
 10
16.21618353283867
 20
-5.955143311671975
 30
0.0
 10
16.23598089180279
 20
-5.971087816433194
 30
0.0
 10
16.25577825076692
 20
-5.987032321194733
 30
0.0
 10
16.2754779354837
 20
-6.003093202937942
 30
0.0
 10
16.29507890693716
 20
-6.019269422642987
 30
0.0
 10
16.31467987839061
 20
-6.035445642348353
 30
0.0
 10
16.3341821365801
 20
-6.051737200014913
 30
0.0
 10
16.35358464249027
 20
-6.068143056623155
 30
0.0
 10
16.3729871483998
 20
-6.084548913231397
 30
0.0
 10
16.39228990202938
 20
-6.101069068780999
 30
0.0
 10
16.41149186436238
 20
-6.117702484251487
 30
0.0
 10
16.43069382669602
 20
-6.134335899721975
 30
0.0
 10
16.44979499773244
 20
-6.151082575113349
 30
0.0
 10
16.46879433845566
 20
-6.167941471405452
 30
0.0
 10
16.48779367917887
 20
-6.184800367697557
 30
0.0
 10
16.50669118958953
 20
-6.20177148489007
 30
0.0
 10
16.52548583067036
 20
-6.218853783962519
 30
0.0
 10
16.54428047175118
 20
-6.235936083034968
 30
0.0
 10
16.56297224350218
 20
-6.253129563987993
 30
0.0
 10
16.58156010690801
 20
-6.270433187800156
 30
0.0
 10
16.60014797031319
 20
-6.28773681161264
 30
0.0
 10
16.61863192537256
 20
-6.305150578284905
 30
0.0
 10
16.63701093306886
 20
-6.322673448796474
 30
0.0
 10
16.65538994076515
 20
-6.340196319308043
 30
0.0
 10
16.67366400109965
 20
-6.357828293658596
 30
0.0
 10
16.69183207505508
 20
-6.375568332828299
 30
0.0
 10
16.71000014900988
 20
-6.393308371998002
 30
0.0
 10
16.72806223658625
 20
-6.411156475986535
 30
0.0
 10
16.74601729876693
 20
-6.429111605773742
 30
0.0
 10
16.76397236094762
 20
-6.447066735560949
 30
0.0
 10
16.78182039773261
 20
-6.46512889114651
 30
0.0
 10
16.79956037010594
 20
-6.483297033510271
 30
0.0
 10
16.81730034247926
 20
-6.501465175874032
 30
0.0
 10
16.83493225044027
 20
-6.519739305015672
 30
0.0
 10
16.85245505497235
 20
-6.538118381915357
 30
0.0
 10
16.86997785950507
 20
-6.556497458814721
 30
0.0
 10
16.88739156060884
 20
-6.574981483471809
 30
0.0
 10
16.90469511926834
 20
-6.593569416866465
 30
0.0
 10
16.9219986779272
 20
-6.612157350260802
 30
0.0
 10
16.93919209414113
 20
-6.630849192392708
 30
0.0
 10
16.95627432889352
 20
-6.649643904241388
 30
0.0
 10
16.9733565636459
 20
-6.668438616089747
 30
0.0
 10
16.99032761693739
 20
-6.687336197655521
 30
0.0
 10
17.00718644975069
 20
-6.706335609917593
 30
0.0
 10
17.02404528256401
 20
-6.725335022179344
 30
0.0
 10
17.04079189489914
 20
-6.744436265138035
 30
0.0
 10
17.05742524773948
 20
-6.763638299772548
 30
0.0
 10
17.07405860057982
 20
-6.782840334407062
 30
0.0
 10
17.09057869392665
 20
-6.802143160717719
 30
0.0
 10
17.10698448876142
 20
-6.821545739684044
 30
0.0
 10
17.12339028359682
 20
-6.840948318650369
 30
0.0
 10
17.13968177992144
 20
-6.860450650272363
 30
0.0
 10
17.15585793871802
 20
-6.880051695529549
 30
0.0
 10
17.1720340975146
 20
-6.899652740786736
 30
0.0
 10
17.18809491878377
 20
-6.919352499679436
 30
0.0
 10
17.20403936350955
 20
-6.939149933186532
 30
0.0
 10
17.21998380823469
 20
-6.95894736669427
 30
0.0
 10
17.23581187641644
 20
-6.978842474816405
 30
0.0
 10
17.25152252903689
 20
-6.998834218533102
 30
0.0
 10
17.26723318165799
 20
-7.0188259622498
 30
0.0
 10
17.28282641871842
 20
-7.038914341561061
 30
0.0
 10
17.29830120120158
 20
-7.059098317446089
 30
0.0
 10
17.31377598368538
 20
-7.079282293331116
 30
0.0
 10
17.32913231159189
 20
-7.099561865790552
 30
0.0
 10
17.34436914590515
 20
-7.119935995803279
 30
0.0
 10
17.3596059802184
 20
-7.140310125816006
 30
0.0
 10
17.37472332093839
 20
-7.160778813382666
 30
0.0
 10
17.38972012904784
 20
-7.181341019482463
 30
0.0
 10
17.40471693715794
 20
-7.20190322558226
 30
0.0
 10
17.41959321265815
 20
-7.222558950215194
 30
0.0
 10
17.4343479165312
 20
-7.24330715436111
 30
0.0
 10
17.44910262040489
 20
-7.264055358507027
 30
0.0
 10
17.46373575265207
 20
-7.284896042165604
 30
0.0
 10
17.47824627425611
 20
-7.305828166316689
 30
0.0
 10
17.49275679586079
 20
-7.326760290467774
 30
0.0
 10
17.50714470682168
 20
-7.347783855111365
 30
0.0
 10
17.52140896812346
 20
-7.368897821226668
 30
0.0
 10
17.53567322942523
 20
-7.39001178734197
 30
0.0
 10
17.54981384106788
 20
-7.411216154929625
 30
0.0
 10
17.56382976403414
 20
-7.432509884968836
 30
0.0
 10
17.57784568700104
 20
-7.453803615008047
 30
0.0
 10
17.59173692129155
 20
-7.475186707498814
 30
0.0
 10
17.60550242789032
 20
-7.496658123420984
 30
0.0
 10
17.61926793448846
 20
-7.518129539343152
 30
0.0
 10
17.63290771339422
 20
-7.539689278696403
 30
0.0
 10
17.64642072559163
 20
-7.561336302460579
 30
0.0
 10
17.65993373778839
 20
-7.582983326224755
 30
0.0
 10
17.67331998327679
 20
-7.604717634399537
 30
0.0
 10
17.68657842303957
 20
-7.62653818796477
 30
0.0
 10
17.69983686280171
 20
-7.648358741530003
 30
0.0
 10
17.71296749683951
 20
-7.670265540485687
 30
0.0
 10
17.72596928613505
 20
-7.692257545811346
 30
0.0
 10
17.73897107542996
 20
-7.714249551137006
 30
0.0
 10
17.7518440199839
 20
-7.736326762832641
 30
0.0
 10
17.76458708077897
 20
-7.758488141877776
 30
0.0
 10
17.77733014157403
 20
-7.780649520923232
 30
0.0
 10
17.78994331861151
 20
-7.802895067317868
 30
0.0
 10
17.80242557287348
 20
-7.82522374204217
 30
0.0
 10
17.81490782713545
 20
-7.847552416766152
 30
0.0
 10
17.82725915862321
 20
-7.869964219819158
 30
0.0
 10
17.83947852831884
 20
-7.892458112181356
 30
0.0
 10
17.85169789801447
 20
-7.914952004543554
 30
0.0
 10
17.86378530591927
 20
-7.937527986214301
 30
0.0
 10
17.87573971301595
 20
-7.960185018173443
 30
0.0
 10
17.88769412011263
 20
-7.982842050132585
 30
0.0
 10
17.89951552640184
 20
-8.005580132380123
 30
0.0
 10
17.91120289286632
 20
-8.028398225895579
 30
0.0
 10
17.9228902593308
 20
-8.051216319411036
 30
0.0
 10
17.9344435859712
 20
-8.074114424194734
 30
0.0
 10
17.94586183377022
 20
-8.097091501225554
 30
0.0
 10
17.95728008156989
 20
-8.120068578256696
 30
0.0
 10
17.96856325052885
 20
-8.143124627535283
 30
0.0
 10
17.97971030162982
 20
-8.166258610041158
 30
0.0
 10
17.99085735273079
 20
-8.189392592547033
 30
0.0
 10
18.00186828597506
 20
-8.212604508280199
 30
0.0
 10
18.01274206234536
 20
-8.235893318219858
 30
0.0
 10
18.02361583871567
 20
-8.259182128159518
 30
0.0
 10
18.034352458212
 20
-8.282547832305992
 30
0.0
 10
18.04495088181774
 20
-8.305989391638805
 30
0.0
 10
18.05554930542348
 20
-8.329430950971618
 30
0.0
 10
18.06600953313992
 20
-8.35294836549077
 30
0.0
 10
18.07633052594849
 20
-8.376540596175785
 30
0.0
 10
18.08665151875771
 20
-8.400132826860801
 30
0.0
 10
18.0968332766597
 20
-8.423799873712001
 30
0.0
 10
18.1068747606385
 20
-8.44754069770859
 30
0.0
 10
18.11691624461729
 20
-8.471281521705178
 30
0.0
 10
18.12681745467289
 20
-8.495096122847155
 30
0.0
 10
18.13657735178866
 20
-8.518983462114686
 30
0.0
 10
18.14633724890442
 20
-8.542870801381897
 30
0.0
 10
18.15595583308101
 20
-8.566830878774342
 30
0.0
 10
18.16543206530049
 20
-8.590862655271543
 30
0.0
 10
18.17490829751998
 20
-8.614894431768747
 30
0.0
 10
18.18424217778366
 20
-8.638997907370708
 30
0.0
 10
18.19343266707427
 20
-8.663172043056953
 30
0.0
 10
18.20262315636551
 20
-8.687346178743198
 30
0.0
 10
18.21167025468304
 20
-8.711590974513726
 30
0.0
 10
18.2205729230115
 20
-8.735905391348382
 30
0.0
 10
18.22947559134061
 20
-8.760219808183038
 30
0.0
 10
18.23823382967937
 20
-8.784603846081502
 30
0.0
 10
18.24684659901309
 20
-8.809056466023298
 30
0.0
 10
18.25545936834681
 20
-8.833509085965416
 30
0.0
 10
18.26392666867484
 20
-8.858030287950864
 30
0.0
 10
18.27224746098057
 20
-8.882619032959493
 30
0.0
 10
18.28056825328629
 20
-8.90720777796812
 30
0.0
 10
18.2887425375697
 20
-8.931864065999925
 30
0.0
 10
18.29676927481418
 20
-8.956586858034433
 30
0.0
 10
18.3047960120593
 20
-8.98130965006862
 30
0.0
 10
18.31267520226484
 20
-9.00609894610583
 30
0.0
 10
18.3204058064161
 20
-9.030953707125267
 30
0.0
 10
18.32813641056736
 20
-9.055808468144706
 30
0.0
 10
18.33571842866242
 20
-9.08072869414637
 30
0.0
 10
18.34315082168658
 20
-9.105713346110107
 30
0.0
 10
18.3505832147101
 20
-9.130697998073844
 30
0.0
 10
18.35786598266207
 20
-9.155747075999333
 30
0.0
 10
18.36499808652587
 20
-9.18085954086642
 30
0.0
 10
18.37213019038967
 20
-9.205972005733505
 30
0.0
 10
18.3791116301653
 20
-9.231147857541869
 30
0.0
 10
18.38594136683614
 20
-9.256386057271353
 30
0.0
 10
18.39277110350762
 20
-9.281624257000837
 30
0.0
 10
18.39944913707366
 20
-9.306924804651445
 30
0.0
 10
18.40597442851893
 20
-9.33228666120302
 30
0.0
 10
18.41249971996419
 20
-9.357648517754592
 30
0.0
 10
18.41887226928804
 20
-9.383071683206492
 30
0.0
 10
18.42509103747383
 20
-9.408555118538883
 30
0.0
 10
18.43130980566028
 20
-9.434038553871275
 30
0.0
 10
18.43737479270867
 20
-9.459582259083838
 30
0.0
 10
18.44328495960304
 20
-9.485185195156419
 30
0.0
 10
18.4491951264974
 20
-9.510788131228676
 30
0.0
 10
18.45495047323774
 20
-9.536450298161272
 30
0.0
 10
18.46054996080679
 20
-9.56217065693309
 30
0.0
 10
18.46614944837583
 20
-9.587891015704907
 30
0.0
 10
18.47159307677486
 20
-9.613669566316265
 30
0.0
 10
18.47687980698661
 20
-9.639505269746687
 30
0.0
 10
18.48216653719836
 20
-9.665340973177111
 30
0.0
 10
18.48729636922284
 20
-9.6912338294266
 30
0.0
 10
18.4922682640434
 20
-9.717182799474681
 30
0.0
 10
18.49724015886397
 20
-9.743131769522762
 30
0.0
 10
18.50205411648128
 20
-9.769136853369755
 30
0.0
 10
18.50670909787805
 20
-9.79519701199454
 30
0.0
 10
18.51136407927483
 20
-9.821257170619326
 30
0.0
 10
18.51586008445172
 20
-9.84737240402287
 30
0.0
 10
18.52019607439146
 20
-9.873541673184052
 30
0.0
 10
18.52453206433183
 20
-9.899710942344914
 30
0.0
 10
18.5287080390357
 20
-9.925934247264058
 30
0.0
 10
18.53272295948578
 20
-9.952210548920366
 30
0.0
 10
18.53673787993587
 20
-9.978486850576674
 30
0.0
 10
18.54059174613281
 20
-10.00481614897079
 30
0.0
 10
18.54428351906063
 20
-10.03119740508159
 30
0.0
 10
18.54797529198782
 20
-10.05757866119272
 30
0.0
 10
18.55150497164588
 20
-10.08401187502053
 30
0.0
 10
18.55487151901755
 20
-10.1104960075452
 30
0.0
 10
18.55823806638923
 20
-10.13698014006987
 30
0.0
 10
18.56144148147515
 20
-10.16351519129107
 30
0.0
 10
18.56448072525807
 20
-10.19010012218865
 30
0.0
 10
18.56751996904162
 20
-10.21668505308624
 30
0.0
 10
18.57039504152216
 20
-10.24331986365956
 30
0.0
 10
18.57310490368307
 20
-10.27000351488911
 30
0.0
 10
18.57581476584397
 20
-10.29668716611866
 30
0.0
 10
18.57835941768652
 20
-10.32341965800379
 30
0.0
 10
18.5807378201928
 20
-10.35019995152467
 30
0.0
 10
18.58311622269973
 20
-10.37698024504523
 30
0.0
 10
18.58532837587039
 20
-10.40380834020154
 30
0.0
 10
18.58737324068944
 20
-10.43068319797281
 30
0.0
 10
18.5894181055085
 20
-10.45755805574407
 30
0.0
 10
18.59129568197531
 20
-10.48447967612997
 30
0.0
 10
18.59300493107325
 20
-10.51144702011099
 30
0.0
 10
18.59471418017182
 20
-10.53841436409201
 30
0.0
 10
18.59625510190153
 20
-10.5654274316675
 30
0.0
 10
18.59762665724574
 20
-10.592485183817
 30
0.0
 10
18.59899821258995
 20
-10.61954293596651
 30
0.0
 10
18.60020040154994
 20
-10.64664537269065
 30
0.0
 10
18.60123218510781
 20
-10.67379145496768
 30
0.0
 10
18.60226396866568
 20
-10.700937537246
 30
0.0
 10
18.60312534682207
 20
-10.7281272650772
 30
0.0
 10
18.60381528056036
 20
-10.75535959944209
 30
0.0
 10
18.60450521429864
 20
-10.78259193380699
 30
0.0
 10
18.60502370361882
 20
-10.80986687470558
 30
0.0
 10
18.60536970950426
 20
-10.8371833831161
 30
0.0
 10
18.60571571539035
 20
-10.86449989152791
 30
0.0
 10
18.60588923784107
 20
-10.89185796745166
 30
0.0
 10
18.60588923784107
 20
-10.91925657186879
 30
0.0
  0
ENDSEC
  0
SECTION
  2
OBJECTS
  0
DICTIONARY
  5
C
330
0
100
AcDbDictionary
  3
ACAD_GROUP
350
D
  3
ACAD_LAYOUT
350
1A
  3
ACAD_MATERIAL
350
3B
  3
ACAD_MLEADERSTYLE
350
45
  3
ACAD_MLINESTYLE
350
17
  3
ACAD_PLOTSETTINGS
350
19
  3
ACAD_VISUALSTYLE
350
2A
  3
ACDBVARIABLEDICTIONARY
350
43
1001
ACAD
1000
TREAT_AS_HARD
1070
     0
  0
DICTIONARY
  5
D
102
{ACAD_REACTORS
330
C
102
}
330
C
100
AcDbDictionary
1001
ACAD
1000
TREAT_AS_HARD
1070
     0
  0
DICTIONARY
  5
1A
102
{ACAD_REACTORS
330
C
102
}
330
C
100
AcDbDictionary
1001
ACAD
1000
TREAT_AS_HARD
1070
     0
  0
DICTIONARY
  5
3B
102
{ACAD_REACTORS
330
C
102
}
330
C
100
AcDbDictionary
  3
BYBLOCK
350
3D
  3
BYLAYER
350
3C
  3
GLOBAL
350
3E
1001
ACAD
1000
TREAT_AS_HARD
1070
     0
  0
DICTIONARY
  5
45
102
{ACAD_REACTORS
330
C
102
}
330
C
100
AcDbDictionary
1001
ACAD
1000
TREAT_AS_HARD
1070
     0
  0
DICTIONARY
  5
17
102
{ACAD_REACTORS
330
C
102
}
330
C
100
AcDbDictionary
  3
STANDARD
350
18
1001
ACAD
1000
TREAT_AS_HARD
1070
     0
  0
DICTIONARY
  5
19
102
{ACAD_REACTORS
330
C
102
}
330
C
100
AcDbDictionary
1001
ACAD
1000
TREAT_AS_HARD
1070
     0
  0
DICTIONARY
  5
2A
102
{ACAD_REACTORS
330
C
102
}
330
C
100
AcDbDictionary
  3
2DWIREFRAME
350
2F
  3
3DWIREFRAME
350
30
  3
3D_HIDDEN
350
31
  3
BASIC
350
32
  3
BRIGHTEN
350
36
  3
COLORCHANGE
350
3A
  3
CONCEPTUAL
350
34
  3
DIM
350
35
  3
FACEPATTERN
350
39
  3
FLAT
350
2B
  3
FLATWITHEDGES
350
2C
  3
GOURAUD
350
2D
  3
GOURAUDWITHEDGES
350
2E
  3
LINEPATTERN
350
38
  3
REALISTIC
350
33
  3
THICKEN
350
37
1001
ACAD
1000
TREAT_AS_HARD
1070
     0
  0
DICTIONARY
  5
43
102
{ACAD_REACTORS
330
C
102
}
330
C
100
AcDbDictionary
  3
DIMASSOC
350
46
  3
HIDETEXT
350
47
1001
ACAD
1000
TREAT_AS_HARD
1070
     0
  0
MATERIAL
  5
3D
102
{ACAD_REACTORS
330
3B
102
}
102
{ACAD_XDICTIONARY
360
4A
102
}
330
3B
100
AcDbMaterial
  1
ByBlock
  0
MATERIAL
  5
3C
102
{ACAD_REACTORS
330
3B
102
}
102
{ACAD_XDICTIONARY
360
48
102
}
330
3B
100
AcDbMaterial
  1
ByLayer
  0
MATERIAL
  5
3E
102
{ACAD_REACTORS
330
3B
102
}
102
{ACAD_XDICTIONARY
360
4C
102
}
330
3B
100
AcDbMaterial
  1
Global
  0
MLINESTYLE
  5
18
102
{ACAD_REACTORS
330
17
102
}
330
17
100
AcDbMlineStyle
  2
Standard
 70
     0
  3

 62
   256
 51
90.0
 52
90.0
 71
     2
 49
0.5
 62
   256
  6
BYLAYER
 49
-0.5
 62
   256
  6
BYLAYER
  0
ACAD_PROXY_OBJECT
  5
2F
102
{ACAD_REACTORS
330
2A
102
}
330
2A
100
AcDbZombieObject
 90
      499
 91
      501
 93
      436
310
42CC9915DA5C99599C985B595049028333333333333E3BF0000000000000FB0107901411070040501600405405064090741402480A0340
1001
ACAD
1000
AcDbSavedByObjectVersion
1070
     0
  0
ACAD_PROXY_OBJECT
  5
30
102
{ACAD_REACTORS
330
2A
102
}
330
2A
100
AcDbZombieObject
 90
      499
 91
      501
 93
      436
310
42CCD915DA5C99599C985B595059028333333333333E3BF0000000000000FB0107901411070040501600405405064090741402480A0340
1001
ACAD
1000
AcDbSavedByObjectVersion
1070
     0
  0
ACAD_PROXY_OBJECT
  5
31
102
{ACAD_REACTORS
330
2A
102
}
330
2A
100
AcDbZombieObject
 90
      499
 91
      501
 93
      500
310
424CD108121A5919195B90640502408333333333333E3BF0000000000000FB01079024090700405020000000000001110200405405064090740C02480A0340
1001
ACAD
1000
AcDbSavedByObjectVersion
1070
     0
  0
ACAD_PROXY_OBJECT
  5
32
102
{ACAD_REACTORS
330
2A
102
}
330
2A
100
AcDbZombieObject
 90
      499
 91
      501
 93
      388
310
4150985CDA58D07406404333333333333E3BF0000000000000FB0107A41107004050150841D405064090741402480A0350
1001
ACAD
1000
AcDbSavedByObjectVersion
1070
     0
  0
ACAD_PROXY_OBJECT
  5
36
102
{ACAD_REACTORS
330
2A
102
}
330
2A
100
AcDbZombieObject
 90
      499
 91
      501
 93
      428
310
42109C9A59DA1D195B90C409028333333333333E3BF0000000000000FB010790141107004050150841D405064090741402480A029950
1001
ACAD
1000
AcDbSavedByObjectVersion
1070
     0
  0
ACAD_PROXY_OBJECT
  5
3A
102
{ACAD_REACTORS
330
2A
102
}
330
2A
100
AcDbZombieObject
 90
      499
 91
      501
 93
      452
310
42D0DBDB1BDC90DA185B99D95104090240C333333333333E3BF0000000000000FB0108901411070040501508421405064090741402480A0350
1001
ACAD
1000
AcDbSavedByObjectVersion
1070
     0
  0
ACAD_PROXY_OBJECT
  5
34
102
{ACAD_REACTORS
330
2A
102
}
330
2A
100
AcDbZombieObject
 90
      499
 91
      501
 93
      500
310
4290DBDB98D95C1D1D585B10940D028333333333333E3BF0000000000000FB0107902409070040501000000000000111010841D405064090740C02480A0340
1001
ACAD
1000
AcDbSavedByObjectVersion
1070
     0
  0
ACAD_PROXY_OBJECT
  5
35
102
{ACAD_REACTORS
330
2A
102
}
330
2A
100
AcDbZombieObject
 90
      499
 91
      501
 93
      412
310
40D11A5B50B409028333333333333E3BF0000000000000FB010790141107004050150841D405064090741402480A02677FFFFFD0
1001
ACAD
1000
AcDbSavedByObjectVersion
1070
     0
  0
ACAD_PROXY_OBJECT
  5
39
102
{ACAD_REACTORS
330
2A
102
}
330
2A
100
AcDbZombieObject
 90
      499
 91
      501
 93
      444
310
42D19858D95C185D1D195C9B90F409028333333333333E3BF0000000000000FB010790141107004050150841D405064090741402480A0350
1001
ACAD
1000
AcDbSavedByObjectVersion
1070
     0
  0
ACAD_PROXY_OBJECT
  5
2B
102
{ACAD_REACTORS
330
2A
102
}
330
2A
100
AcDbZombieObject
 90
      499
 91
      501
 93
      388
310
41119B185D240901404333333333333E3BF0000000000000F9010740A41107004050150841D405064090741402480A1B50
1001
ACAD
1000
AcDbSavedByObjectVersion
1070
     0
  0
ACAD_PROXY_OBJECT
  5
2C
102
{ACAD_REACTORS
330
2A
102
}
330
2A
100
AcDbZombieObject
 90
      499
 91
      501
 93
      476
310
43519B185D15DA5D1A115919D95CD0140901404333333333333E3BF0000000000000F9010740901411070040501600405405064090741402480A1B50
1001
ACAD
1000
AcDbSavedByObjectVersion
1070
     0
  0
ACAD_PROXY_OBJECT
  5
2D
102
{ACAD_REACTORS
330
2A
102
}
330
2A
100
AcDbZombieObject
 90
      499
 91
      501
 93
      412
310
41D1DBDD5C985D5910240902404333333333333E3BF0000000000000F9010740A411070040501641D405064090741402480A1B50
1001
ACAD
1000
AcDbSavedByObjectVersion
1070
     0
  0
ACAD_PROXY_OBJECT
  5
2E
102
{ACAD_REACTORS
330
2A
102
}
330
2A
100
AcDbZombieObject
 90
      499
 91
      501
 93
      500
310
4411DBDD5C985D5915DA5D1A115919D95CD0340902404333333333333E3BF0000000000000F9010740901411070040501600405405064090741402480A1B50
1001
ACAD
1000
AcDbSavedByObjectVersion
1070
     0
  0
ACAD_PROXY_OBJECT
  5
38
102
{ACAD_REACTORS
330
2A
102
}
330
2A
100
AcDbZombieObject
 90
      499
 91
      501
 93
      444
310
42D31A5B995C185D1D195C9B90E409028333333333333E3BF0000000000000FB010790141107004050750841D405064090741402483A0350
1001
ACAD
1000
AcDbSavedByObjectVersion
1070
     0
  0
ACAD_PROXY_OBJECT
  5
33
102
{ACAD_REACTORS
330
2A
102
}
330
2A
100
AcDbZombieObject
 90
      499
 91
      501
 93
      420
310
425499585B1A5CDD1A58D08409028333333333333E3BF0000000000000FB01079019070040501508421405064090741402480A1B40
1001
ACAD
1000
AcDbSavedByObjectVersion
1070
     0
  0
ACAD_PROXY_OBJECT
  5
37
102
{ACAD_REACTORS
330
2A
102
}
330
2A
100
AcDbZombieObject
 90
      499
 91
      501
 93
      412
310
41D51A1A58DAD95B90D409028333333333333E3BF0000000000000FB010790141107004050150C41D405064090741402480A0350
1001
ACAD
1000
AcDbSavedByObjectVersion
1070
     0
  0
DICTIONARYVAR
  5
46
102
{ACAD_REACTORS
330
43
102
}
330
43
100
DictionaryVariables
280
     0
  1
2
  0
DICTIONARYVAR
  5
47
102
{ACAD_REACTORS
330
43
102
}
330
43
100
DictionaryVariables
280
     0
  1
1
  0
DICTIONARY
  5
4A
330
3D
100
AcDbDictionary
  3
ACAD_XREC_ROUNDTRIP
360
4B
1001
ACAD
1000
TREAT_AS_HARD
1070
     1
  0
DICTIONARY
  5
48
330
3C
100
AcDbDictionary
  3
ACAD_XREC_ROUNDTRIP
360
49
1001
ACAD
1000
TREAT_AS_HARD
1070
     1
  0
DICTIONARY
  5
4C
330
3E
100
AcDbDictionary
  3
ACAD_XREC_ROUNDTRIP
360
4D
1001
ACAD
1000
TREAT_AS_HARD
1070
     1
  0
XRECORD
  5
4B
102
{ACAD_REACTORS
330
4A
102
}
330
4A
100
AcDbXrecord
102
MATERIAL
148
0.0
149
0.0
149
0.0
 93
        0
 94
      127
282
     0
 72
     1
 77
     1
171
     1
175
     1
179
     1
273
     0
  0
XRECORD
  5
49
102
{ACAD_REACTORS
330
48
102
}
330
48
100
AcDbXrecord
102
MATERIAL
148
0.0
149
0.0
149
0.0
 93
        0
 94
      127
282
     0
 72
     1
 77
     1
171
     1
175
     1
179
     1
273
     0
  0
XRECORD
  5
4D
102
{ACAD_REACTORS
330
4C
102
}
330
4C
100
AcDbXrecord
102
MATERIAL
148
0.0
149
0.0
149
0.0
 93
        0
 94
      127
282
     0
 72
     1
 77
     1
171
     1
175
     1
179
     1
273
     0
  0
ENDSEC
  0
EOF
